G04*
G04 #@! TF.GenerationSoftware,Altium Limited,Altium Designer,23.4.1 (23)*
G04*
G04 Layer_Color=16711935*
%FSLAX44Y44*%
%MOMM*%
G71*
G04*
G04 #@! TF.SameCoordinates,0D17D4F2-5808-4921-BEB8-74D3ABB9EEF9*
G04*
G04*
G04 #@! TF.FilePolarity,Negative*
G04*
G01*
G75*
G04:AMPARAMS|DCode=16|XSize=0.7311mm|YSize=0.3025mm|CornerRadius=0.1512mm|HoleSize=0mm|Usage=FLASHONLY|Rotation=90.000|XOffset=0mm|YOffset=0mm|HoleType=Round|Shape=RoundedRectangle|*
%AMROUNDEDRECTD16*
21,1,0.7311,0.0000,0,0,90.0*
21,1,0.4286,0.3025,0,0,90.0*
1,1,0.3025,0.0000,0.2143*
1,1,0.3025,0.0000,-0.2143*
1,1,0.3025,0.0000,-0.2143*
1,1,0.3025,0.0000,0.2143*
%
%ADD16ROUNDEDRECTD16*%
%ADD17R,0.3025X0.7311*%
%ADD20R,1.0121X1.2084*%
%ADD43R,0.5000X0.4000*%
%ADD51C,0.7032*%
%ADD52R,2.5000X1.7500*%
%ADD57R,1.1532X1.0032*%
%ADD58R,1.1532X1.0532*%
%ADD64R,1.0532X0.9032*%
G04:AMPARAMS|DCode=71|XSize=1.7272mm|YSize=2.2032mm|CornerRadius=0.4826mm|HoleSize=0mm|Usage=FLASHONLY|Rotation=0.000|XOffset=0mm|YOffset=0mm|HoleType=Round|Shape=RoundedRectangle|*
%AMROUNDEDRECTD71*
21,1,1.7272,1.2380,0,0,0.0*
21,1,0.7620,2.2032,0,0,0.0*
1,1,0.9652,0.3810,-0.6190*
1,1,0.9652,-0.3810,-0.6190*
1,1,0.9652,-0.3810,0.6190*
1,1,0.9652,0.3810,0.6190*
%
%ADD71ROUNDEDRECTD71*%
%ADD72C,1.6532*%
%ADD73C,0.7500*%
%ADD74C,1.7272*%
%ADD75C,0.8032*%
%ADD83R,0.5682X0.5725*%
%ADD84R,2.0500X1.1000*%
%ADD87R,1.0000X0.7500*%
%ADD88R,0.3800X1.4000*%
%ADD89R,1.4500X0.9500*%
%ADD90R,0.9121X0.9587*%
%ADD91R,1.3000X0.7000*%
%ADD99R,2.3032X1.1032*%
%ADD100R,2.3032X3.4032*%
G04:AMPARAMS|DCode=101|XSize=2.1032mm|YSize=3.4032mm|CornerRadius=0mm|HoleSize=0mm|Usage=FLASHONLY|Rotation=90.000|XOffset=0mm|YOffset=0mm|HoleType=Round|Shape=Octagon|*
%AMOCTAGOND101*
4,1,8,-1.7016,-0.5258,-1.7016,0.5258,-1.1758,1.0516,1.1758,1.0516,1.7016,0.5258,1.7016,-0.5258,1.1758,-1.0516,-1.1758,-1.0516,-1.7016,-0.5258,0.0*
%
%ADD101OCTAGOND101*%

%ADD102R,1.7032X1.9032*%
%ADD103R,1.8832X1.0032*%
%ADD104R,1.7032X1.8032*%
%ADD105R,1.5032X1.4932*%
%ADD106R,1.6032X1.4932*%
%ADD107R,1.9032X1.7032*%
D16*
X119750Y308905D02*
D03*
X113250D02*
D03*
X106750D02*
D03*
X100250D02*
D03*
Y281095D02*
D03*
X106750D02*
D03*
X113250D02*
D03*
D17*
X119750D02*
D03*
D20*
X200000Y191038D02*
D03*
Y175000D02*
D03*
D43*
X385000Y100000D02*
D03*
X340000Y119000D02*
D03*
Y111000D02*
D03*
Y79000D02*
D03*
Y71000D02*
D03*
X339999Y100000D02*
D03*
Y92000D02*
D03*
X385000D02*
D03*
X375000Y119000D02*
D03*
Y111000D02*
D03*
Y79000D02*
D03*
Y71000D02*
D03*
D51*
X85000Y87500D02*
D03*
X75000D02*
D03*
X65000D02*
D03*
X85000Y97500D02*
D03*
X75000D02*
D03*
X65000D02*
D03*
X85000Y107500D02*
D03*
X75000D02*
D03*
X65000D02*
D03*
D52*
X110000Y295000D02*
D03*
D57*
X225000Y35000D02*
D03*
Y48000D02*
D03*
D58*
X115000Y60001D02*
D03*
D64*
X145000Y195000D02*
D03*
Y207500D02*
D03*
X305000Y327500D02*
D03*
D71*
X325000Y355000D02*
D03*
X300000D02*
D03*
X275000D02*
D03*
X250000D02*
D03*
X225000D02*
D03*
X200000D02*
D03*
X175000D02*
D03*
X150000D02*
D03*
X125000D02*
D03*
X90000Y15000D02*
D03*
X165000D02*
D03*
X340000D02*
D03*
X315000D02*
D03*
X290000D02*
D03*
X265000D02*
D03*
X240000D02*
D03*
X215000D02*
D03*
X65000D02*
D03*
X190000D02*
D03*
X115000D02*
D03*
X140000D02*
D03*
X75000Y380000D02*
D03*
X100000D02*
D03*
X125000D02*
D03*
X150000D02*
D03*
X100000Y355000D02*
D03*
X75000D02*
D03*
X200000Y380000D02*
D03*
X175000D02*
D03*
X225000D02*
D03*
X250000D02*
D03*
X275000D02*
D03*
X300000D02*
D03*
X325000D02*
D03*
D72*
X358000Y90000D02*
D03*
Y140000D02*
D03*
D73*
X377000Y230000D02*
D03*
X375000Y195000D02*
D03*
D74*
X45000Y355000D02*
D03*
X355000D02*
D03*
Y45000D02*
D03*
X45000D02*
D03*
D75*
X47206Y79972D02*
D03*
X142202Y47460D02*
D03*
X118072Y265984D02*
D03*
X133566Y317208D02*
D03*
X38018Y275000D02*
D03*
X344894Y209392D02*
D03*
X257264Y144488D02*
D03*
X2480Y50000D02*
D03*
X167602Y216116D02*
D03*
X197574Y325336D02*
D03*
X189954Y99784D02*
D03*
X165824Y37554D02*
D03*
X127724Y232118D02*
D03*
X93180Y141186D02*
D03*
X202908Y45936D02*
D03*
X207480Y126434D02*
D03*
X223990Y244056D02*
D03*
X175891Y333464D02*
D03*
X186906Y86068D02*
D03*
X38824Y230340D02*
D03*
X123914Y273774D02*
D03*
X195288Y242786D02*
D03*
X194526Y45936D02*
D03*
X363436Y171158D02*
D03*
X1232Y250152D02*
D03*
X200622Y210473D02*
D03*
X369024Y128000D02*
D03*
X346650Y127216D02*
D03*
X264376Y45000D02*
D03*
X217894Y211544D02*
D03*
X37808Y194272D02*
D03*
X145250Y276894D02*
D03*
X316618Y255232D02*
D03*
X140170Y279108D02*
D03*
X175016Y174412D02*
D03*
X277838Y217640D02*
D03*
X212730Y90906D02*
D03*
X349466Y187160D02*
D03*
X159728Y130010D02*
D03*
X154648Y153378D02*
D03*
X146012Y261074D02*
D03*
X151346Y250406D02*
D03*
X186906Y124168D02*
D03*
X167094Y164046D02*
D03*
X322034Y112738D02*
D03*
X178016Y190716D02*
D03*
X265006Y320608D02*
D03*
X342862Y139916D02*
D03*
X170142Y194272D02*
D03*
X49388Y203416D02*
D03*
X102832Y180302D02*
D03*
X284755Y223410D02*
D03*
X63462Y280124D02*
D03*
X126454Y214084D02*
D03*
X188684Y314922D02*
D03*
X200622Y225768D02*
D03*
X200567Y210473D02*
D03*
X226784Y318224D02*
D03*
X269710Y154140D02*
D03*
X214846Y201892D02*
D03*
X215608Y225260D02*
D03*
X209512Y241516D02*
D03*
X135090Y238468D02*
D03*
X219164Y121882D02*
D03*
X174376Y326014D02*
D03*
X108674Y117056D02*
D03*
X123406Y34760D02*
D03*
X46444Y106134D02*
D03*
X36284Y292316D02*
D03*
X-16802Y368516D02*
D03*
X82004Y307048D02*
D03*
X179032Y43142D02*
D03*
X174714Y119596D02*
D03*
X67272Y246850D02*
D03*
X176619Y306413D02*
D03*
X166667Y124432D02*
D03*
X-8674Y374358D02*
D03*
X283680Y56604D02*
D03*
X200696Y84290D02*
D03*
X13932Y225768D02*
D03*
X2756Y357086D02*
D03*
X39586Y393916D02*
D03*
X284920Y169412D02*
D03*
X119342Y205194D02*
D03*
X160490Y97244D02*
D03*
X274282Y59144D02*
D03*
X113754Y90080D02*
D03*
X151092Y268694D02*
D03*
X315938Y263020D02*
D03*
X109842Y222307D02*
D03*
X344894Y224498D02*
D03*
X315938Y295110D02*
D03*
X304508Y154140D02*
D03*
X307810Y151092D02*
D03*
X108166Y74892D02*
D03*
X306540Y174714D02*
D03*
X226784Y196558D02*
D03*
X267932Y249136D02*
D03*
X212990Y315000D02*
D03*
X283426Y304000D02*
D03*
X301968Y190462D02*
D03*
X223482Y91402D02*
D03*
X290792Y183604D02*
D03*
X187668Y384772D02*
D03*
X277838Y203416D02*
D03*
X174206Y282664D02*
D03*
X470Y364706D02*
D03*
X158204Y120696D02*
D03*
X73700Y134504D02*
D03*
X187160Y43396D02*
D03*
X62500Y143726D02*
D03*
X169126Y114516D02*
D03*
X221958Y170396D02*
D03*
X128994Y168110D02*
D03*
X-22898Y190080D02*
D03*
X90132Y325590D02*
D03*
X978Y93180D02*
D03*
X19774Y325082D02*
D03*
X30950Y85814D02*
D03*
Y298158D02*
D03*
X254216Y267170D02*
D03*
X192240Y158458D02*
D03*
X-10452Y161760D02*
D03*
X122290Y316954D02*
D03*
X180302Y287733D02*
D03*
X324574Y94450D02*
D03*
X387402Y265672D02*
D03*
X311924Y224702D02*
D03*
X50508Y212306D02*
D03*
X94450Y57874D02*
D03*
X88608Y153378D02*
D03*
X115000Y33744D02*
D03*
X198590Y118834D02*
D03*
X377406Y63462D02*
D03*
X141440Y79718D02*
D03*
X305000Y233100D02*
D03*
X167856Y99784D02*
D03*
X328130Y126962D02*
D03*
X291808Y321526D02*
D03*
X221196Y74638D02*
D03*
X323558Y41618D02*
D03*
D83*
X77979Y71082D02*
D03*
X87022D02*
D03*
D84*
X85000Y258000D02*
D03*
Y225000D02*
D03*
X145000Y91500D02*
D03*
Y58500D02*
D03*
D87*
X205000Y72500D02*
D03*
Y57500D02*
D03*
X255000Y45000D02*
D03*
Y30000D02*
D03*
X300000Y47500D02*
D03*
Y32500D02*
D03*
D88*
X299250Y73200D02*
D03*
X292750D02*
D03*
X286250D02*
D03*
X279750D02*
D03*
X273250D02*
D03*
X266750D02*
D03*
X260250D02*
D03*
X253750D02*
D03*
X247250D02*
D03*
X240750D02*
D03*
Y126800D02*
D03*
X247250D02*
D03*
X260250D02*
D03*
X266750D02*
D03*
X273250D02*
D03*
X279750D02*
D03*
X286250D02*
D03*
X292750D02*
D03*
X299250D02*
D03*
X253750D02*
D03*
X312250D02*
D03*
X305750D02*
D03*
X234250D02*
D03*
X227750D02*
D03*
Y73200D02*
D03*
X234250D02*
D03*
X305750D02*
D03*
X312250D02*
D03*
D89*
X160000Y259500D02*
D03*
Y240000D02*
D03*
D90*
X190000Y302267D02*
D03*
Y287733D02*
D03*
D91*
X175000Y89500D02*
D03*
Y70500D02*
D03*
X325000Y329500D02*
D03*
Y310500D02*
D03*
D99*
X113500Y193000D02*
D03*
Y170000D02*
D03*
Y147000D02*
D03*
D100*
X56500Y170000D02*
D03*
D101*
X228000Y300000D02*
D03*
D102*
X238902Y295348D02*
D03*
D103*
X239802Y259848D02*
D03*
Y248848D02*
D03*
Y237848D02*
D03*
Y226848D02*
D03*
Y215848D02*
D03*
Y204848D02*
D03*
Y193848D02*
D03*
Y182848D02*
D03*
D104*
X238902Y168748D02*
D03*
D105*
X255402Y162298D02*
D03*
D106*
X329402D02*
D03*
D107*
X387402Y163348D02*
D03*
Y298348D02*
D03*
M02*
