G04*
G04 #@! TF.GenerationSoftware,Altium Limited,Altium Designer,23.4.1 (23)*
G04*
G04 Layer_Physical_Order=6*
G04 Layer_Color=16711680*
%FSLAX44Y44*%
%MOMM*%
G71*
G04*
G04 #@! TF.SameCoordinates,E8E7B276-8895-4430-90FA-F2E57970A6A3*
G04*
G04*
G04 #@! TF.FilePolarity,Positive*
G04*
G01*
G75*
%ADD17C,0.5000*%
%ADD29R,1.5500X0.6000*%
%ADD30R,1.8000X1.2000*%
%ADD37R,0.7500X1.0000*%
%ADD38R,1.1000X2.0500*%
%ADD52R,0.7000X1.3000*%
%ADD53R,0.5000X0.4000*%
%ADD54R,0.4000X0.5000*%
%ADD80C,0.9910*%
%ADD82C,0.7500*%
%ADD86C,0.1500*%
%ADD87C,0.1500*%
%ADD89C,1.4500*%
%ADD90C,4.0000*%
G04:AMPARAMS|DCode=91|XSize=1.524mm|YSize=2mm|CornerRadius=0.381mm|HoleSize=0mm|Usage=FLASHONLY|Rotation=0.000|XOffset=0mm|YOffset=0mm|HoleType=Round|Shape=RoundedRectangle|*
%AMROUNDEDRECTD91*
21,1,1.5240,1.2380,0,0,0.0*
21,1,0.7620,2.0000,0,0,0.0*
1,1,0.7620,0.3810,-0.6190*
1,1,0.7620,-0.3810,-0.6190*
1,1,0.7620,-0.3810,0.6190*
1,1,0.7620,0.3810,0.6190*
%
%ADD91ROUNDEDRECTD91*%
%ADD92C,1.2700*%
%ADD93R,1.7000X1.5000*%
%ADD94R,1.5000X1.7000*%
%ADD95R,1.6800X0.8000*%
%ADD96R,1.5000X1.6000*%
%ADD97R,1.4000X1.2900*%
%ADD98R,1.3000X1.2900*%
%ADD99R,0.8500X0.7000*%
%ADD100R,1.0000X0.7500*%
%ADD101R,1.4000X0.3800*%
%ADD102R,2.4000X1.9000*%
D17*
X100000Y275000D02*
D03*
X90000Y285000D02*
D03*
Y275000D02*
D03*
X80000Y285000D02*
D03*
Y275000D02*
D03*
D29*
X370500Y-40000D02*
D03*
Y-30000D02*
D03*
Y-20000D02*
D03*
Y0D02*
D03*
Y10000D02*
D03*
Y-10000D02*
D03*
X370500Y345000D02*
D03*
Y325000D02*
D03*
Y335000D02*
D03*
Y55000D02*
D03*
Y65000D02*
D03*
Y75000D02*
D03*
Y95000D02*
D03*
Y105000D02*
D03*
Y85000D02*
D03*
D30*
X409250Y-53000D02*
D03*
Y23000D02*
D03*
X409250Y312000D02*
D03*
Y358000D02*
D03*
Y42000D02*
D03*
Y118000D02*
D03*
D37*
X147500Y84999D02*
D03*
X162500D02*
D03*
X147500Y70000D02*
D03*
X162500D02*
D03*
D38*
X128500Y-15000D02*
D03*
X161499D02*
D03*
D52*
X137999Y15000D02*
D03*
X156999D02*
D03*
D53*
X120000Y56000D02*
D03*
Y64000D02*
D03*
X120000Y28500D02*
D03*
Y36500D02*
D03*
X30000Y21000D02*
D03*
Y29000D02*
D03*
D54*
X131000Y45000D02*
D03*
X139000D02*
D03*
D80*
X-70000Y-30400D02*
D03*
X-59840Y20400D02*
D03*
X-80160D02*
D03*
D82*
X-70000Y85000D02*
D03*
D86*
X201410Y19583D02*
G03*
X206057Y12357I8590J417D01*
G01*
X206431Y11772D02*
G03*
X206258Y12082I-1387J-573D01*
G01*
X209542Y4240D02*
G03*
X209704Y3869I7958J3260D01*
G01*
X216111Y-16028D02*
G03*
X222338Y-11985I-1111J8528D01*
G01*
X233929Y203211D02*
G03*
X233907Y202155I8571J-711D01*
G01*
X173290Y-25928D02*
G03*
X179497Y-24830I1710J8428D01*
G01*
X46521Y211060D02*
G03*
X46788Y209947I8479J1440D01*
G01*
X-9096Y183175D02*
G03*
X-12601Y192069I-8404J1825D01*
G01*
X-9627Y193519D02*
G03*
X-10766Y194445I-7873J-8519D01*
G01*
X12520Y175828D02*
G03*
X13190Y182625I-7520J4172D01*
G01*
X132447Y288000D02*
G03*
X132730Y288027I0J1500D01*
G01*
X110886Y198730D02*
G03*
X113130Y202195I-5886J6270D01*
G01*
X112970Y196571D02*
G03*
X115434Y199931I-7970J8429D01*
G01*
X11693Y93304D02*
G03*
X13132Y92052I8307J8096D01*
G01*
X13560Y95700D02*
G03*
X15080Y94347I6440J5700D01*
G01*
X123382Y109053D02*
G03*
X126618Y109053I1618J8446D01*
G01*
X163995Y166273D02*
G03*
X164470Y161921I8505J-1273D01*
G01*
X50828Y178168D02*
G03*
X50452Y183643I-8319J2179D01*
G01*
X18085Y174880D02*
G03*
X15503Y172500I4415J-7380D01*
G01*
X164625Y293333D02*
G03*
X160874Y293445I-2125J-8333D01*
G01*
X166288Y42500D02*
G03*
X166819Y42302I3262J7957D01*
G01*
X57280Y238731D02*
G03*
X48731Y247280I51J8600D01*
G01*
X45223Y218653D02*
G03*
X43571Y221015I-7774J-3677D01*
G01*
X282500Y371621D02*
X395629D01*
X248051D02*
X282500D01*
Y372500D01*
Y366070D02*
Y371621D01*
X275000Y355000D02*
Y358570D01*
X282500Y366070D01*
X209704Y3869D02*
X215000Y-7500D01*
X206431Y11772D02*
X209542Y4240D01*
X206057Y12357D02*
X206257Y12082D01*
X200273Y25785D02*
X201152Y24906D01*
X227286Y10823D02*
X227466Y8288D01*
X227500Y36D01*
X227500Y-3562D02*
Y36D01*
X226100Y16062D02*
X227286Y10823D01*
X227500Y36D02*
X227500Y36D01*
X201152Y24906D02*
X201410Y19583D01*
X204600Y-17500D02*
X216111Y-16028D01*
X222338Y-11985D02*
X227500Y-3562D01*
X395629Y371621D02*
X409250Y358000D01*
X240130Y363700D02*
X248051Y371621D01*
X240130Y346300D02*
Y363700D01*
Y346300D02*
X243929Y342500D01*
X259870Y278629D02*
Y338700D01*
X256070Y342500D02*
X259870Y338700D01*
X243929Y342500D02*
X256070D01*
X259870Y278629D02*
X261500Y277000D01*
X243150Y200000D02*
X244600Y198550D01*
Y135588D02*
Y198550D01*
X233907Y202155D02*
X235668Y158237D01*
X241600Y152305D01*
X244600Y135588D02*
X332750Y47438D01*
X234165Y206028D02*
Y207271D01*
X233929Y203211D02*
X234165Y206028D01*
X210162Y32000D02*
X226100Y16062D01*
X167136Y32000D02*
X210162D01*
X200247Y25802D02*
X200273Y25785D01*
X126494Y23750D02*
X200247Y25802D01*
X166249Y-24500D02*
X173290Y-25928D01*
X161499Y-15000D02*
X166249Y-24500D01*
X179497Y-24830D02*
X189000Y-19000D01*
X192500Y-16250D01*
X321100Y118331D02*
Y145278D01*
X320569Y117800D02*
X321100Y118331D01*
X46788Y209947D02*
X53210Y189290D01*
X45237Y218624D02*
X46521Y211060D01*
X53210Y189290D02*
X53649Y188851D01*
X76283Y207312D02*
X77162Y206433D01*
X55000Y212500D02*
X76283Y207312D01*
X53649Y188851D02*
X67500Y175000D01*
X-9627Y193519D02*
X5000Y180000D01*
X-25250Y201629D02*
X-22662Y199040D01*
X-12601Y192069D01*
X-22250Y202871D02*
X-21419Y202040D01*
X-25250Y201629D02*
Y327563D01*
X-21419Y202040D02*
X-10766Y194445D01*
X-12500Y167500D02*
X-9096Y183175D01*
X7061Y166303D02*
X7500Y166743D01*
X7939Y202061D02*
X33379Y227500D01*
X4500Y163743D02*
X7061Y166303D01*
X7500Y166743D02*
X12520Y175828D01*
X7500Y200379D02*
X13190Y182625D01*
X-22250Y202871D02*
Y326320D01*
X7500Y200379D02*
Y201621D01*
X7939Y202061D01*
X-22250Y326320D02*
X18680Y367250D01*
X113627Y232945D02*
X117500Y229072D01*
X103764Y257436D02*
X107650Y253550D01*
X117500Y207500D02*
Y229072D01*
X80606Y265711D02*
X84565Y262007D01*
X85808Y265007D02*
X103764Y257436D01*
X116627Y234188D02*
X117503Y233311D01*
X82326Y268488D02*
X85808Y265007D01*
X84565Y262007D02*
X102522Y254436D01*
X107650Y253550D02*
X116627Y234188D01*
X101650Y225050D02*
Y251065D01*
X101005Y251710D02*
X101650Y251065D01*
X64141Y267374D02*
X101005Y251710D01*
X40400Y291115D02*
X63935Y267579D01*
X102522Y254436D02*
X104650Y252308D01*
X60841Y274916D02*
X80606Y265711D01*
X100000Y223400D02*
X101650Y225050D01*
X63935Y267579D02*
X64141Y267374D01*
X104650Y252308D02*
X113627Y232945D01*
X117503Y233311D02*
X120500Y230315D01*
X46400Y293600D02*
X47279Y292721D01*
X46400Y294221D02*
X46400Y293600D01*
X47279Y292721D02*
X78032Y270250D01*
X60654Y275104D02*
X60841Y274916D01*
X43400Y292357D02*
X60654Y275104D01*
X78032Y270250D02*
X81748Y268489D01*
X46400Y294221D02*
Y306062D01*
X81748Y268489D02*
X82326Y268488D01*
X68600Y223900D02*
X74393D01*
X82500Y223400D01*
X80000Y275000D02*
X90000D01*
X100000D01*
X152500D01*
X162500Y285000D01*
X80000Y285000D02*
X90000D01*
X80000Y275000D02*
Y285000D01*
X113096Y305324D02*
X130420Y288000D01*
X132730Y288027D02*
X160874Y293445D01*
X130420Y288000D02*
X132447D01*
X57994Y305324D02*
X113096D01*
X292500Y107500D02*
X315000Y85000D01*
X268250Y131750D02*
X292500Y107500D01*
X268250Y131750D02*
Y144150D01*
X315000Y85000D02*
X320818D01*
X258000Y186500D02*
X260200D01*
X261750Y150650D02*
X268250Y144150D01*
X256950Y183250D02*
X260200Y186500D01*
X251750Y159568D02*
X253668Y157650D01*
X254750D02*
X261500Y150900D01*
X253668Y157650D02*
X254750D01*
X251750Y159568D02*
Y180432D01*
X254568Y183250D01*
X256950D01*
X320818Y85000D02*
X333318Y72500D01*
X350000D01*
X261500Y277000D02*
X263650Y274850D01*
X280000D01*
X291879Y203089D02*
Y275621D01*
Y203089D02*
X326000Y168967D01*
X266008Y287750D02*
X279750D01*
X291879Y275621D01*
X-27500Y-32500D02*
X-25338D01*
X-20338Y-27500D01*
X17188D01*
X110886Y198730D02*
X110886Y198730D01*
X72136Y162136D02*
X110886Y198730D01*
X113130Y202195D02*
X113624Y203624D01*
X43400Y292357D02*
Y308530D01*
X40130Y292959D02*
Y338700D01*
Y292959D02*
X40400Y291115D01*
X43400Y308530D02*
X46940Y312070D01*
X46400Y306062D02*
X64898Y324560D01*
X101800Y40250D02*
X111994D01*
X219805Y99100D02*
X223905Y95000D01*
X218562Y96100D02*
X223600Y91062D01*
X142818Y62750D02*
X190250D01*
X199412Y59750D02*
X223600Y83938D01*
X120000Y64000D02*
X141568D01*
X190250Y62750D02*
X215000Y87500D01*
X162500Y70000D02*
Y71250D01*
X187350Y96100D01*
X94068Y99100D02*
X219805D01*
X141568Y64000D02*
X142818Y62750D01*
X223600Y83938D02*
Y91062D01*
X148500Y56000D02*
X152250Y59750D01*
X187350Y96100D02*
X218562D01*
X152250Y59750D02*
X199412D01*
X223905Y95000D02*
X252500D01*
X74879Y79911D02*
X94068Y99100D01*
X162500Y70000D02*
Y84999D01*
X162500Y70000D02*
X162500Y70000D01*
X113624Y203624D02*
X117500Y207500D01*
X55000Y145000D02*
X72136Y162136D01*
X117503Y203261D02*
X120500Y206257D01*
X72500Y157636D02*
X72500Y158257D01*
X73379Y159136D01*
X72500Y145000D02*
Y157636D01*
X73379Y159136D02*
X112970Y196571D01*
X116624Y202382D02*
X117503Y203261D01*
X115434Y199931D02*
X116624Y202382D01*
X13132Y92052D02*
X14251Y90933D01*
X17251Y78317D02*
Y92175D01*
X15080Y94347D02*
X17251Y92175D01*
X7500Y102548D02*
X13560Y95700D01*
X4500Y100684D02*
X11693Y93304D01*
X14251Y70069D02*
Y90933D01*
X4500Y100684D02*
Y163743D01*
X23250Y98000D02*
X26250Y95000D01*
X20000Y101400D02*
X23250Y98000D01*
X7500Y102548D02*
Y161879D01*
X120500Y206257D02*
Y230315D01*
X77162Y172500D02*
Y189099D01*
X76780Y189482D02*
X77162Y189099D01*
X163995Y166273D02*
X170000Y206405D01*
X203369Y239398D02*
X208167Y234600D01*
X195635Y227798D02*
X204365D01*
X208167Y234600D02*
X249121D01*
X204365Y227798D02*
X208600Y223562D01*
X200000Y175542D02*
Y219198D01*
X191400Y223562D02*
X195635Y227798D01*
X200802Y239398D02*
X203369D01*
X235520Y230798D02*
X253068Y213250D01*
X170439Y206844D02*
X194393Y230798D01*
X235520D01*
X225650Y202215D02*
X227135Y200730D01*
X225650Y202215D02*
Y208150D01*
X37217Y214647D02*
X37477Y214907D01*
X50452Y183643D01*
X36850Y214647D02*
X37217D01*
X192796Y106053D02*
X201155Y106493D01*
X126618Y109053D02*
X191553Y109053D01*
X191993Y109493D01*
X201155Y106493D02*
X238600Y143938D01*
X95536Y109053D02*
X123382D01*
X191993Y109493D02*
X230000Y147500D01*
X59233Y72750D02*
X95536Y109053D01*
X96340Y105614D02*
X192796Y106053D01*
X71878Y81153D02*
X96340Y105614D01*
X225000Y295000D02*
Y330000D01*
Y295000D02*
X232500Y287500D01*
X168919Y146419D02*
X170000Y147500D01*
X170000Y206405D02*
X170439Y206844D01*
X164470Y161921D02*
X170000Y147500D01*
X370500Y46662D02*
Y55000D01*
X365000Y41162D02*
X370500Y46662D01*
X365000Y40000D02*
Y41162D01*
X370500Y65000D02*
X375250D01*
X387500Y52750D01*
Y52500D02*
Y52750D01*
X175000Y330000D02*
X177500Y327500D01*
Y307500D02*
Y327500D01*
X344490Y341990D02*
X347500Y345000D01*
X340000Y333257D02*
Y336288D01*
X344490Y340778D01*
Y341990D01*
X120500Y28500D02*
X124812Y24189D01*
X125251Y23750D02*
X126494D01*
X124812Y24189D02*
X125251Y23750D01*
X368250Y322750D02*
X370500Y325000D01*
X360250Y322750D02*
X368250D01*
X352500Y315000D02*
X360250Y322750D01*
X347500Y345000D02*
X370500D01*
Y75000D02*
X372750Y72750D01*
X389750D01*
X390000Y72500D01*
X18085Y174880D02*
X33342Y184008D01*
X34378Y184008D02*
X42509Y180347D01*
X33342Y184008D02*
X34378Y184008D01*
X43400Y149805D02*
X50828Y178168D01*
X43400Y140195D02*
Y149805D01*
Y140195D02*
X54095Y129500D01*
X170019Y359980D02*
X175000Y354999D01*
X170019Y359980D02*
Y364981D01*
X164750Y370250D02*
X170019Y364981D01*
X7500Y161879D02*
X7500Y162500D01*
X10500Y165500D02*
X15503Y172500D01*
X7500Y162500D02*
X10500Y165500D01*
X164625Y293333D02*
X187500Y287500D01*
X166819Y42302D02*
X167061Y42061D01*
X155000Y46250D02*
X156250Y47500D01*
X158750Y42500D02*
X166288D01*
X167061Y42061D02*
X167500Y41621D01*
X158500Y43500D02*
X158750Y42500D01*
X153750Y45000D02*
X155000Y46250D01*
X167500Y35879D02*
Y41621D01*
X155000Y46250D02*
X158500Y43500D01*
X167500Y35879D02*
X168379Y35000D01*
X254121D01*
X255000Y34121D01*
X-56186Y52764D02*
X-54043Y50621D01*
X-56186Y52764D02*
Y58657D01*
X-57500Y59971D02*
X-56186Y58657D01*
X-57500Y59971D02*
Y102500D01*
X57824Y305153D02*
X57994Y305324D01*
X370500Y85000D02*
X409250D01*
Y118000D01*
Y42000D02*
Y85000D01*
X265130Y288628D02*
Y337683D01*
X250000Y352813D02*
Y355000D01*
Y352813D02*
X265130Y337683D01*
Y288628D02*
X266008Y287750D01*
X251750Y184674D02*
Y210325D01*
X250000Y235479D02*
Y307682D01*
X249121Y234600D02*
X250000Y235479D01*
X233379Y220000D02*
X242075D01*
X251750Y210325D01*
X258000Y208500D02*
X262400D01*
X253250Y213250D02*
X258000Y208500D01*
X253068Y213250D02*
X253250D01*
X225650Y212271D02*
X233379Y220000D01*
X225650Y208150D02*
Y212271D01*
X247600Y180524D02*
X251750Y184674D01*
X225650Y208150D02*
X233292D01*
X234165Y207271D01*
X410000Y118750D02*
Y145000D01*
X409250Y118000D02*
X410000Y118750D01*
X320818Y85000D02*
X370500D01*
X247600Y137316D02*
Y180524D01*
X409250Y23000D02*
Y42000D01*
Y23000D02*
X409250Y23000D01*
X358750Y-17000D02*
X365750Y-10000D01*
X345000Y-7500D02*
X354500Y-17000D01*
X358750D01*
X352162Y-20000D02*
X370500D01*
X347162Y-25000D02*
X352162Y-20000D01*
X345000Y-25000D02*
X347162D01*
X365750Y-10000D02*
X370500D01*
X342500Y-42500D02*
X355000Y-30000D01*
X370500D01*
X165386Y33750D02*
X167136Y32000D01*
X155000Y33750D02*
X165386D01*
X255000Y-12500D02*
Y34121D01*
X120000Y56000D02*
X148500D01*
X87500Y35000D02*
Y54121D01*
Y20000D02*
Y35000D01*
X88750Y33750D02*
X99300D01*
X87500Y35000D02*
X88750Y33750D01*
X98150Y54400D02*
X99300Y53250D01*
X90478Y54400D02*
X98150D01*
X89879Y55000D02*
X90478Y54400D01*
X88379Y55000D02*
X89879D01*
X87500Y54121D02*
X88379Y55000D01*
X45000Y-22500D02*
X87500Y20000D01*
X3930Y-45000D02*
X26430Y-22500D01*
X74879Y24847D02*
Y79911D01*
X26430Y-22500D02*
X45000D01*
X31088Y-13600D02*
X36431D01*
X-32500Y-45000D02*
X3930D01*
X17188Y-27500D02*
X31088Y-13600D01*
X36431D02*
X74879Y24847D01*
X-46879Y-29379D02*
X-39750Y-22250D01*
X-46879Y-30621D02*
Y-29379D01*
Y-30621D02*
X-32500Y-45000D01*
X-39750Y-22250D02*
X15250D01*
X32500Y-5000D01*
X120000Y28500D02*
X120500D01*
X225000Y-42500D02*
X255000Y-12500D01*
X0Y-0D02*
Y2500D01*
X28750Y27750D02*
X30000Y29000D01*
X25250Y27750D02*
X28750D01*
X0Y2500D02*
X25250Y27750D01*
X30625Y20875D02*
X31750Y19750D01*
X30500Y21000D02*
X30625Y20875D01*
X45575D01*
X30000Y21000D02*
X30500D01*
X31750Y-4250D02*
Y19750D01*
Y-4250D02*
X32500Y-5000D01*
X26250Y95000D02*
X27500D01*
X17251Y78317D02*
X29318Y66250D01*
X13152Y67727D02*
X21128Y59750D01*
X13152Y67727D02*
Y68969D01*
X14251Y70069D01*
X-25250Y327563D02*
X17437Y370250D01*
X56769Y238731D02*
X57280D01*
X56329Y238292D02*
X56769Y238731D01*
X37130Y255370D02*
X46610Y245890D01*
X55890Y237231D02*
X55890Y236610D01*
X48731Y246769D02*
Y247280D01*
X55890Y236610D02*
X68600Y223900D01*
X37130Y255370D02*
Y353751D01*
X48292Y246329D02*
X48731Y246769D01*
X55890Y237231D02*
X55890Y237853D01*
X47853Y245890D02*
X48292Y246329D01*
X55890Y237853D02*
X56329Y238292D01*
X46610Y245890D02*
X47853D01*
X48919Y238919D02*
X57331Y247331D01*
X36419Y238919D02*
X48919D01*
X45223Y218653D02*
X45237Y218624D01*
X38041Y226621D02*
X43571Y221015D01*
X37162Y227500D02*
X38041Y226621D01*
X33379Y227500D02*
X37162D01*
X161499Y-15000D02*
Y7499D01*
X409250Y-53000D02*
Y23000D01*
X410000Y145000D02*
Y280000D01*
X370500Y335000D02*
X383250D01*
X406250Y312000D01*
X409250D01*
Y280750D02*
Y312000D01*
Y280750D02*
X410000Y280000D01*
X409250Y312000D02*
Y358000D01*
X-37500Y122500D02*
Y172500D01*
X-57500Y102500D02*
X-37500Y122500D01*
X208600Y181062D02*
Y223562D01*
X50800Y53250D02*
X53150Y55600D01*
X208600Y181062D02*
X238600Y151062D01*
X45700Y72750D02*
X59233D01*
X53150Y55600D02*
X53632D01*
X71878Y73847D01*
Y81153D01*
X266800Y230500D02*
X271550Y225750D01*
X271732D01*
Y247750D02*
X279050Y240432D01*
Y211675D02*
Y240432D01*
X273050Y195675D02*
Y213432D01*
X276050Y196917D02*
Y221432D01*
X273050Y195675D02*
X295866Y172859D01*
Y170512D02*
Y172859D01*
X262400Y230500D02*
X266800D01*
X320000Y150832D02*
Y152967D01*
X279050Y211675D02*
X323000Y167725D01*
X271732Y225750D02*
X276050Y221432D01*
Y196917D02*
X320000Y152967D01*
Y150832D02*
X340000Y130832D01*
X271732Y214750D02*
X273050Y213432D01*
X340000Y120000D02*
Y130832D01*
X295866Y170512D02*
X321100Y145278D01*
X326000Y153318D02*
Y168967D01*
X323000Y152075D02*
Y167725D01*
X266800Y219500D02*
X271550Y214750D01*
X323000Y152075D02*
X363500Y111575D01*
X271550Y214750D02*
X271732D01*
X326000Y153318D02*
X369068Y110250D01*
X262400Y219500D02*
X266800D01*
X369068Y110250D02*
X379182D01*
X295500Y149500D02*
X310000Y135000D01*
X312500D01*
X273050Y173675D02*
Y191432D01*
X295500Y149500D02*
Y151225D01*
X270050Y193629D02*
Y194250D01*
Y193629D02*
X270929Y192750D01*
X273050Y173675D02*
X295500Y151225D01*
X271732Y192750D02*
X273050Y191432D01*
X262400Y197500D02*
X266800D01*
X270929Y192750D02*
X271732D01*
X266800Y197500D02*
X270050Y194250D01*
X292500Y137500D02*
Y149982D01*
X262400Y175500D02*
X266800D01*
X271550Y170750D01*
X271732D01*
X292500Y149982D01*
X45700Y53250D02*
X50800D01*
X247600Y137316D02*
X363500Y21416D01*
X240581Y135364D02*
X329750Y46195D01*
X240581Y141676D02*
X241600Y142695D01*
X238600Y143938D02*
Y151062D01*
X241600Y142695D02*
Y152305D01*
X240581Y135364D02*
Y141676D01*
X191400Y179899D02*
X197257Y174042D01*
X191400Y179899D02*
Y223562D01*
X197257Y152743D02*
Y174042D01*
X177015Y132500D02*
X197257Y152743D01*
X54095Y129500D02*
X178257D01*
X200379Y151621D01*
Y175163D01*
X46400Y141438D02*
Y148562D01*
X64662Y160000D02*
X77162Y172500D01*
X55338Y132500D02*
X177015D01*
X46400Y141438D02*
X55338Y132500D01*
X57838Y160000D02*
X64662D01*
X46400Y148562D02*
X57838Y160000D01*
X21128Y59750D02*
X45700D01*
X29318Y66250D02*
X45700D01*
X77162Y189662D02*
Y206433D01*
X333000Y2250D02*
X368250D01*
X363500Y12250D02*
Y21416D01*
X368250Y2250D02*
X370500Y0D01*
X365750Y10000D02*
X370500D01*
X363500Y12250D02*
X365750Y10000D01*
X251750Y267568D02*
X258258Y261060D01*
Y254258D02*
Y261060D01*
X363500Y107250D02*
Y111575D01*
X258258Y254258D02*
X264766Y247750D01*
X379182Y110250D02*
X380500Y108932D01*
X264766Y247750D02*
X271732D01*
X251750Y267568D02*
Y286432D01*
X380500Y100250D02*
Y108932D01*
X250000Y307682D02*
X253000Y304681D01*
X251750Y286432D02*
X253000Y287682D01*
Y304681D01*
X375250Y95000D02*
X380500Y100250D01*
X250000Y307682D02*
Y330000D01*
X370500Y95000D02*
X375250D01*
X363500Y107250D02*
X365750Y105000D01*
X370500D01*
X312500Y-47500D02*
X329750Y-30250D01*
Y46195D01*
X332750Y2500D02*
Y47438D01*
Y-31493D02*
Y2500D01*
X333000Y2250D01*
X309493Y-54750D02*
X332750Y-31493D01*
X236870Y-47940D02*
X246680Y-57750D01*
X361621D01*
X363500Y-55871D02*
Y-42250D01*
X361621Y-57750D02*
X363500Y-55871D01*
X281637Y-49861D02*
X282361D01*
X275000Y-43224D02*
Y-42500D01*
X287250Y-54750D02*
X309493D01*
X282361Y-49861D02*
X287250Y-54750D01*
X275000Y-43224D02*
X281637Y-49861D01*
X365750Y-40000D02*
X370500D01*
X363500Y-42250D02*
X365750Y-40000D01*
X225000Y-42500D02*
X230440Y-47940D01*
X236870D01*
X305000Y-47500D02*
X312500D01*
X300000Y-42500D02*
X305000Y-47500D01*
X162756Y344625D02*
X175000Y332380D01*
X156319Y367250D02*
X162756Y360814D01*
X17437Y370250D02*
X164750D01*
X162756Y344625D02*
Y360814D01*
X18680Y367250D02*
X156319D01*
X175000Y330000D02*
Y332380D01*
X200000Y175542D02*
X200379Y175163D01*
X64898Y324560D02*
X69560D01*
X75000Y330000D01*
X46940Y312070D02*
Y326940D01*
X50000Y330000D01*
X40130Y338700D02*
X44179Y342749D01*
X37130Y353751D02*
X38379Y355000D01*
X44179Y342749D02*
X56320D01*
X63131Y349560D01*
X69560D02*
X75000Y355000D01*
X63131Y349560D02*
X69560D01*
X49999Y355000D02*
X50000Y354999D01*
X38379Y355000D02*
X49999D01*
X100000Y-42500D02*
Y-41776D01*
X93363Y-35139D02*
X100000Y-41776D01*
X92639Y-35139D02*
X93363D01*
X75000Y-43224D02*
X81637Y-49861D01*
X75000Y-43224D02*
Y-42500D01*
X81637Y-49861D02*
X82361D01*
X33250Y79250D02*
X48200D01*
X2501Y80501D02*
X9838Y73163D01*
Y54345D02*
Y73163D01*
Y54345D02*
X14251Y49932D01*
Y41129D02*
Y49932D01*
Y41129D02*
X15130Y40250D01*
X45700D01*
X1Y80501D02*
X2501D01*
X5751Y33750D02*
X45700D01*
X1Y39500D02*
X5751Y33750D01*
X32251Y27250D02*
X45700D01*
X30500Y29000D02*
X32251Y27250D01*
X30000Y29000D02*
X30500D01*
X45575Y20875D02*
X45700Y20750D01*
X192500Y-28750D02*
X193250D01*
X196000Y-31500D01*
Y-41000D02*
Y-31500D01*
Y-41000D02*
X197500Y-42500D01*
X101800Y20750D02*
X106901D01*
X109251Y18400D01*
X109733D01*
X120069Y20750D02*
X135249D01*
X137999Y15000D02*
Y18000D01*
X135249Y20750D02*
X137999Y18000D01*
X156999Y12000D02*
X161499Y7499D01*
X156999Y12000D02*
Y15000D01*
X109733Y18400D02*
X128500Y-368D01*
Y-15000D02*
Y-368D01*
X101800Y59750D02*
X115250D01*
X119500Y64000D02*
X120000D01*
X144751Y72750D02*
X147500Y70000D01*
X101800Y66250D02*
X117251D01*
X101800Y72750D02*
X144751D01*
X115250Y59750D02*
X119500Y64000D01*
X117251Y66250D02*
X119500Y64000D01*
X101800Y79250D02*
X143000D01*
X147500Y83750D01*
Y84999D01*
X27500Y80000D02*
X32500D01*
X33250Y79250D01*
X101800Y27250D02*
X113570D01*
X152250Y36500D02*
X155000Y33750D01*
X120000Y36500D02*
X152250D01*
X111200Y53250D02*
X113950Y56000D01*
X120000D01*
X139000Y45000D02*
X153750D01*
X101800Y53250D02*
X111200D01*
X129750Y46750D02*
X131000Y45499D01*
X101800Y46750D02*
X129750D01*
X131000Y45000D02*
Y45499D01*
X115743Y36500D02*
X120000D01*
X111994Y40250D02*
X115743Y36500D01*
X113570Y27250D02*
X120069Y20750D01*
X48075Y20875D02*
X48200Y20750D01*
D87*
X167061Y42061D02*
D03*
X55890Y237231D02*
D03*
X48292Y246329D02*
D03*
X56329Y238292D02*
D03*
D89*
X-37500Y172500D02*
D03*
Y122500D02*
D03*
D90*
X0Y-0D02*
D03*
X305000Y305000D02*
D03*
Y-0D02*
D03*
X0Y305000D02*
D03*
D91*
X275000Y355000D02*
D03*
X275000Y330000D02*
D03*
X250000D02*
D03*
X250000Y355000D02*
D03*
X224999Y354080D02*
D03*
X225000Y330000D02*
D03*
X200000D02*
D03*
X200000Y354999D02*
D03*
X175000D02*
D03*
Y330000D02*
D03*
X150000D02*
D03*
Y354999D02*
D03*
X125000Y355000D02*
D03*
X100000Y330000D02*
D03*
Y354999D02*
D03*
X75000Y355000D02*
D03*
X75000Y330000D02*
D03*
X50000D02*
D03*
Y354999D02*
D03*
X25000Y355000D02*
D03*
Y330000D02*
D03*
X300000Y-42500D02*
D03*
X275000D02*
D03*
X250000D02*
D03*
X225000Y-42500D02*
D03*
X197500D02*
D03*
X175000D02*
D03*
X150000D02*
D03*
X125000D02*
D03*
X75000D02*
D03*
X50000D02*
D03*
X25000D02*
D03*
X125000Y330000D02*
D03*
X100000Y-42500D02*
D03*
D92*
X217500Y7500D02*
D03*
X210000Y20000D02*
D03*
X182294Y900D02*
D03*
X215000Y-7500D02*
D03*
X132500Y237500D02*
D03*
X243150Y200000D02*
D03*
X204600Y-17500D02*
D03*
X200000Y2200D02*
D03*
X175000Y-17500D02*
D03*
X377500Y132500D02*
D03*
X374855Y159145D02*
D03*
X320569Y117800D02*
D03*
X352500Y158250D02*
D03*
X55000Y212500D02*
D03*
X-17500Y185000D02*
D03*
X-12500Y167500D02*
D03*
X5000Y180000D02*
D03*
X-30000Y52500D02*
D03*
X77500Y243600D02*
D03*
X82500Y223400D02*
D03*
X100000D02*
D03*
X292500Y107500D02*
D03*
X280000Y274850D02*
D03*
X-27500Y-32500D02*
D03*
X207500Y282500D02*
D03*
X205000Y260000D02*
D03*
X105000Y205000D02*
D03*
X-7500Y102500D02*
D03*
X-40577Y97810D02*
D03*
X20000Y101400D02*
D03*
X76780Y189482D02*
D03*
X200802Y239398D02*
D03*
X200000Y219198D02*
D03*
X227135Y200730D02*
D03*
X245000Y-2500D02*
D03*
X36850Y214647D02*
D03*
X40000Y110000D02*
D03*
X125000Y117500D02*
D03*
X187537Y122143D02*
D03*
X187500Y167500D02*
D03*
X168919Y146419D02*
D03*
X172500Y165000D02*
D03*
X232500Y287500D02*
D03*
X365000Y40000D02*
D03*
X387500Y52500D02*
D03*
X177500Y307500D02*
D03*
X390000Y205000D02*
D03*
X395000Y190000D02*
D03*
X340000Y333257D02*
D03*
X352500Y315000D02*
D03*
X355531Y224169D02*
D03*
X352500Y206969D02*
D03*
X339496Y232052D02*
D03*
X355000Y241550D02*
D03*
X390000Y72500D02*
D03*
X352500Y192500D02*
D03*
X32500Y195000D02*
D03*
X42509Y180347D02*
D03*
X231588Y55912D02*
D03*
X22500Y167500D02*
D03*
X162500Y285000D02*
D03*
X169550Y50457D02*
D03*
X192650Y47980D02*
D03*
X-54043Y50621D02*
D03*
X60430Y95519D02*
D03*
X57824Y305153D02*
D03*
X350000Y72500D02*
D03*
X345000Y-25000D02*
D03*
Y-7500D02*
D03*
X342500Y-42500D02*
D03*
X350000Y52500D02*
D03*
X215000Y87500D02*
D03*
X32500Y-5000D02*
D03*
X-40000Y280000D02*
D03*
X15000Y265000D02*
D03*
X-7500Y267500D02*
D03*
X57331Y247331D02*
D03*
X36419Y238919D02*
D03*
X252500Y95000D02*
D03*
X312500Y135000D02*
D03*
X297669Y135169D02*
D03*
X340000Y120000D02*
D03*
X230000Y147500D02*
D03*
X72500Y145000D02*
D03*
X107500Y-10000D02*
D03*
X87500D02*
D03*
X67500Y175000D02*
D03*
X55000Y145000D02*
D03*
X187500Y287500D02*
D03*
D93*
X410000Y280000D02*
D03*
Y145000D02*
D03*
D94*
X261500Y277000D02*
D03*
D95*
X262400Y186500D02*
D03*
Y164500D02*
D03*
Y175500D02*
D03*
Y197500D02*
D03*
Y208500D02*
D03*
Y219500D02*
D03*
Y230500D02*
D03*
Y241500D02*
D03*
D96*
X261500Y150400D02*
D03*
D97*
X352000Y143950D02*
D03*
D98*
X278000D02*
D03*
D99*
X155000Y46250D02*
D03*
Y33750D02*
D03*
X192500Y-16250D02*
D03*
Y-28750D02*
D03*
D100*
X27500Y80000D02*
D03*
Y95000D02*
D03*
D101*
X99300Y40250D02*
D03*
Y66250D02*
D03*
Y59750D02*
D03*
X45700Y7750D02*
D03*
Y14250D02*
D03*
Y85750D02*
D03*
Y92250D02*
D03*
X99300D02*
D03*
Y85750D02*
D03*
Y14250D02*
D03*
Y7750D02*
D03*
Y20750D02*
D03*
Y27250D02*
D03*
Y33750D02*
D03*
Y46750D02*
D03*
Y53250D02*
D03*
Y72750D02*
D03*
Y79250D02*
D03*
X45700D02*
D03*
Y72750D02*
D03*
Y66250D02*
D03*
Y59750D02*
D03*
Y53250D02*
D03*
Y46750D02*
D03*
Y40250D02*
D03*
Y33750D02*
D03*
Y27250D02*
D03*
Y20750D02*
D03*
D102*
X1Y39500D02*
D03*
Y80501D02*
D03*
M02*
