G04*
G04 #@! TF.GenerationSoftware,Altium Limited,Altium Designer,23.4.1 (23)*
G04*
G04 Layer_Physical_Order=2*
G04 Layer_Color=32768*
%FSLAX44Y44*%
%MOMM*%
G71*
G04*
G04 #@! TF.SameCoordinates,8B5CC119-A6FE-408B-88AA-DF5E01278005*
G04*
G04*
G04 #@! TF.FilePolarity,Negative*
G04*
G01*
G75*
%ADD95C,1.0160*%
G04:AMPARAMS|DCode=96|XSize=2.374mm|YSize=2.374mm|CornerRadius=0mm|HoleSize=0mm|Usage=FLASHONLY|Rotation=0.000|XOffset=0mm|YOffset=0mm|HoleType=Round|Shape=Relief|Width=0.254mm|Gap=0.254mm|Entries=4|*
%AMTHD96*
7,0,0,2.3740,1.8660,0.2540,45*
%
%ADD96THD96*%
%AMTHOVALD97*
21,1,0.7000,2.1240,0,0,0.0*
1,1,2.1240,-0.3500,0.0000*
1,1,2.1240,0.3500,0.0000*
21,0,0.7000,1.6160,0,0,0.0*
1,0,1.6160,-0.3500,0.0000*
1,0,1.6160,0.3500,0.0000*
4,0,4,-0.2602,-0.0898,-1.0111,-0.8408,-1.1908,-0.6611,-0.4398,0.0898,-0.2602,-0.0898,0.0*
4,0,4,0.4398,-0.0898,1.1908,0.6611,1.0111,0.8408,0.2602,0.0898,0.4398,-0.0898,0.0*
4,0,4,-0.4398,-0.0898,-1.1908,0.6611,-1.0111,0.8408,-0.2602,0.0898,-0.4398,-0.0898,0.0*
4,0,4,0.2602,-0.0898,1.0111,-0.8408,1.1908,-0.6611,0.4398,0.0898,0.2602,-0.0898,0.0*
%
%ADD97THOVALD97*%

%ADD98C,2.0070*%
%ADD99C,1.7660*%
G04:AMPARAMS|DCode=100|XSize=5.524mm|YSize=5.524mm|CornerRadius=0mm|HoleSize=0mm|Usage=FLASHONLY|Rotation=0.000|XOffset=0mm|YOffset=0mm|HoleType=Round|Shape=Relief|Width=0.254mm|Gap=0.254mm|Entries=4|*
%AMTHD100*
7,0,0,5.5240,5.0160,0.2540,45*
%
%ADD100THD100*%
G04:AMPARAMS|DCode=101|XSize=2.286mm|YSize=2.286mm|CornerRadius=0mm|HoleSize=0mm|Usage=FLASHONLY|Rotation=0.000|XOffset=0mm|YOffset=0mm|HoleType=Round|Shape=Relief|Width=0.254mm|Gap=0.254mm|Entries=4|*
%AMTHD101*
7,0,0,2.2860,1.7780,0.2540,45*
%
%ADD101THD101*%
%ADD102C,1.7780*%
%ADD103C,1.7272*%
G04:AMPARAMS|DCode=104|XSize=2.2352mm|YSize=2.2352mm|CornerRadius=0mm|HoleSize=0mm|Usage=FLASHONLY|Rotation=0.000|XOffset=0mm|YOffset=0mm|HoleType=Round|Shape=Relief|Width=0.254mm|Gap=0.254mm|Entries=4|*
%AMTHD104*
7,0,0,2.2352,1.7272,0.2540,45*
%
%ADD104THD104*%
G04:AMPARAMS|DCode=105|XSize=1.724mm|YSize=1.724mm|CornerRadius=0mm|HoleSize=0mm|Usage=FLASHONLY|Rotation=0.000|XOffset=0mm|YOffset=0mm|HoleType=Round|Shape=Relief|Width=0.254mm|Gap=0.254mm|Entries=4|*
%AMTHD105*
7,0,0,1.7240,1.2160,0.2540,45*
%
%ADD105THD105*%
D95*
X5000Y5000D02*
Y447500D01*
X530000D01*
Y5000D02*
Y447500D01*
X5000Y5000D02*
X530000D01*
D96*
X41440Y193440D02*
D03*
Y243440D02*
D03*
D97*
X14440Y183440D02*
D03*
Y253440D02*
D03*
D98*
X49022Y92456D02*
D03*
X38862Y41656D02*
D03*
X28702Y92456D02*
D03*
D99*
X40000Y155000D02*
D03*
D100*
X110000Y70000D02*
D03*
X415000Y375000D02*
D03*
Y70000D02*
D03*
X110000Y375000D02*
D03*
D101*
X385000Y425000D02*
D03*
X385000Y400000D02*
D03*
X310000Y424999D02*
D03*
X260000D02*
D03*
X210000Y400000D02*
D03*
Y424999D02*
D03*
D102*
X360000Y400000D02*
D03*
X360000Y425000D02*
D03*
X334999Y424080D02*
D03*
X335000Y400000D02*
D03*
X310000D02*
D03*
X285000Y424999D02*
D03*
Y400000D02*
D03*
X260000D02*
D03*
X235000Y425000D02*
D03*
X185000D02*
D03*
X185000Y400000D02*
D03*
X160000D02*
D03*
Y424999D02*
D03*
X135000Y425000D02*
D03*
Y400000D02*
D03*
X410000Y27500D02*
D03*
X385000D02*
D03*
X360000D02*
D03*
X335000Y27500D02*
D03*
X307500D02*
D03*
X285000D02*
D03*
X260000D02*
D03*
X235000D02*
D03*
X185000D02*
D03*
X160000D02*
D03*
X135000D02*
D03*
X235000Y400000D02*
D03*
X210000Y27500D02*
D03*
D103*
X176224Y244140D02*
D03*
X182884Y263043D02*
D03*
X135167Y241018D02*
D03*
X378460Y50800D02*
D03*
X73660Y353060D02*
D03*
X53340Y347980D02*
D03*
X110490Y26670D02*
D03*
X39370Y107950D02*
D03*
X442500Y310000D02*
D03*
X461017Y311896D02*
D03*
X140000Y265000D02*
D03*
X295933Y357860D02*
D03*
X144456Y68039D02*
D03*
X113097Y249460D02*
D03*
X315575Y314617D02*
D03*
X165080Y214964D02*
D03*
X331780Y77488D02*
D03*
X189967Y320411D02*
D03*
X339743Y217618D02*
D03*
X278178Y215961D02*
D03*
X285889Y53840D02*
D03*
X297260Y67974D02*
D03*
X434610Y174894D02*
D03*
X344553Y125000D02*
D03*
X198199Y294622D02*
D03*
X427140Y204901D02*
D03*
X330000Y95107D02*
D03*
X466594Y230983D02*
D03*
X183501Y213636D02*
D03*
X242471Y310097D02*
D03*
X346371Y272556D02*
D03*
X297644Y190239D02*
D03*
X450670Y45490D02*
D03*
X487500Y202500D02*
D03*
X141834Y286835D02*
D03*
X311717Y291837D02*
D03*
X150000Y180000D02*
D03*
X132500Y172500D02*
D03*
X79459Y39459D02*
D03*
X453964Y378149D02*
D03*
X463908Y401079D02*
D03*
X444529Y28707D02*
D03*
X278140Y119610D02*
D03*
X361950Y168742D02*
D03*
X417500Y190000D02*
D03*
X217190Y296580D02*
D03*
X76725Y120105D02*
D03*
X172500Y167500D02*
D03*
X361816Y69317D02*
D03*
X312500Y80000D02*
D03*
X332425Y59800D02*
D03*
X166994Y283260D02*
D03*
X180776Y297740D02*
D03*
X155241Y251977D02*
D03*
X87500Y255000D02*
D03*
X167500Y377500D02*
D03*
X260000Y250000D02*
D03*
X300199Y239827D02*
D03*
X282500Y240000D02*
D03*
X312500Y335000D02*
D03*
X347500Y355000D02*
D03*
X452150Y189643D02*
D03*
X328639Y270992D02*
D03*
X234991Y188069D02*
D03*
X67225Y167696D02*
D03*
X485000Y230000D02*
D03*
X463860Y257797D02*
D03*
X460015Y275075D02*
D03*
X505000Y260000D02*
D03*
X464873Y294621D02*
D03*
X287500Y379100D02*
D03*
X497500Y277500D02*
D03*
X462484Y122516D02*
D03*
X97500Y237500D02*
D03*
X475000Y110000D02*
D03*
X497500Y122500D02*
D03*
X500000Y142500D02*
D03*
X102500Y337500D02*
D03*
X217500Y60000D02*
D03*
X197500D02*
D03*
D104*
X270000Y355000D02*
D03*
X315000D02*
D03*
X165147Y317068D02*
D03*
X454982Y62656D02*
D03*
X140360Y317487D02*
D03*
X315640Y51615D02*
D03*
X304267Y118510D02*
D03*
X320986Y157774D02*
D03*
X401890Y177500D02*
D03*
X125000Y337500D02*
D03*
X392500Y342500D02*
D03*
X102500Y172500D02*
D03*
X55957Y120621D02*
D03*
X460000Y142500D02*
D03*
D105*
X210000Y345000D02*
D03*
X200000Y355000D02*
D03*
Y345000D02*
D03*
X190000Y355000D02*
D03*
Y345000D02*
D03*
M02*
