G04*
G04 #@! TF.GenerationSoftware,Altium Limited,Altium Designer,23.4.1 (23)*
G04*
G04 Layer_Physical_Order=3*
G04 Layer_Color=36540*
%FSLAX44Y44*%
%MOMM*%
G71*
G04*
G04 #@! TF.SameCoordinates,429B218C-89F6-4EF1-A614-2C282A8942F1*
G04*
G04*
G04 #@! TF.FilePolarity,Positive*
G04*
G01*
G75*
%ADD17C,0.5000*%
%ADD80C,0.9910*%
%ADD82C,0.7500*%
%ADD86C,0.1500*%
%ADD88C,0.1500*%
%ADD89C,1.4500*%
%ADD90C,4.0000*%
G04:AMPARAMS|DCode=91|XSize=1.524mm|YSize=2mm|CornerRadius=0.381mm|HoleSize=0mm|Usage=FLASHONLY|Rotation=0.000|XOffset=0mm|YOffset=0mm|HoleType=Round|Shape=RoundedRectangle|*
%AMROUNDEDRECTD91*
21,1,1.5240,1.2380,0,0,0.0*
21,1,0.7620,2.0000,0,0,0.0*
1,1,0.7620,0.3810,-0.6190*
1,1,0.7620,-0.3810,-0.6190*
1,1,0.7620,-0.3810,0.6190*
1,1,0.7620,0.3810,0.6190*
%
%ADD91ROUNDEDRECTD91*%
%ADD92C,1.2700*%
D17*
X210000Y345000D02*
D03*
X200000Y355000D02*
D03*
Y345000D02*
D03*
X190000Y355000D02*
D03*
Y345000D02*
D03*
D80*
X40000Y39600D02*
D03*
X50160Y90400D02*
D03*
X29840D02*
D03*
D82*
X40000Y155000D02*
D03*
D86*
X430873Y199545D02*
G03*
X432067Y200459I-5243J8090D01*
G01*
X423103Y182156D02*
G03*
X426639Y186932I-5604J7844D01*
G01*
X407852Y169925D02*
G03*
X410223Y172652I-5962J7575D01*
G01*
X302995Y78391D02*
G03*
X303063Y78032I9505J1609D01*
G01*
X410295Y167400D02*
G03*
X413142Y170713I-8405J10100D01*
G01*
X425153Y179319D02*
G03*
X427366Y181321I-7653J10682D01*
G01*
X432114Y184272D02*
G03*
X427366Y181321I2496J-9311D01*
G01*
X355654Y176042D02*
G03*
X354139Y174391I6296J-7300D01*
G01*
X410903Y219521D02*
G03*
X396842Y219580I-7058J-6566D01*
G01*
X303445Y62836D02*
G03*
X304746Y69967I-8138J5168D01*
G01*
D02*
G03*
X304744Y69973I-9438J-1963D01*
G01*
X281994Y44200D02*
G03*
X282027Y44186I3896J8818D01*
G01*
X282070Y44167D02*
G03*
X294637Y48967I3819J8851D01*
G01*
X282027Y44186D02*
G03*
X282070Y44167I3862J8832D01*
G01*
X418089Y37981D02*
G03*
X415074Y39617I-4279J-4291D01*
G01*
X188111Y205642D02*
G03*
X188573Y221307I-5381J7998D01*
G01*
X166592Y242457D02*
G03*
X170327Y235214I9632J383D01*
G01*
D02*
G03*
X170380Y235173I5897J7626D01*
G01*
X123512Y250030D02*
G03*
X120282Y257311I-9640J80D01*
G01*
X139400Y302903D02*
G03*
X147244Y299898I7026J6601D01*
G01*
X302909Y315375D02*
G03*
X302147Y313628I7915J-4491D01*
G01*
X320591Y276299D02*
G03*
X320221Y275691I8048J-5307D01*
G01*
X302958Y336370D02*
G03*
X303248Y332292I9542J-1370D01*
G01*
X305812Y355416D02*
G03*
X305401Y353390I9188J-2916D01*
G01*
X305819Y355439D02*
G03*
X306287Y358406I-9172J2967D01*
G01*
X452395Y170072D02*
G03*
X452403Y170080I-35466J38071D01*
G01*
X400091Y193393D02*
G03*
X392452Y189529I79J-9640D01*
G01*
X332936Y225240D02*
G03*
X332155Y224369I6771J-6862D01*
G01*
X313904Y118263D02*
G03*
X313904Y118751I-9637J247D01*
G01*
X308199Y109708D02*
G03*
X313904Y118263I-3932J8802D01*
G01*
X281033Y39748D02*
G03*
X280832Y39739I157J-6058D01*
G01*
X309925Y57378D02*
G03*
X309851Y57326I5167J-7491D01*
G01*
X286229Y39883D02*
G03*
X294827Y43386I-340J13136D01*
G01*
X326940Y104502D02*
G03*
X324663Y103388I3060J-9142D01*
G01*
X314063Y100544D02*
G03*
X309580Y96273I6159J-10957D01*
G01*
X345459Y114425D02*
G03*
X347710Y115657I-2959J8075D01*
G01*
X346575Y111108D02*
G03*
X346576Y111108I-1116J3317D01*
G01*
X325810Y107814D02*
G03*
X322722Y106300I4190J-12454D01*
G01*
X348900Y116184D02*
G03*
X352881Y119448I-3900J8816D01*
G01*
X314991Y110917D02*
G03*
X317297Y116814I-10725J7592D01*
G01*
X432356Y361078D02*
G03*
X437250Y375000I-17356J13922D01*
G01*
X287943Y193375D02*
G03*
X305489Y187623I9637J-241D01*
G01*
X430684Y359218D02*
G03*
X432356Y361078I-15684J15782D01*
G01*
X462410Y383339D02*
G03*
X461632Y384585I-8541J-4470D01*
G01*
X288547Y216067D02*
G03*
X287922Y219747I-9637J257D01*
G01*
X345315Y274382D02*
G03*
X343782Y272398I6795J-6838D01*
G01*
X244629Y187897D02*
G03*
X244630Y188204I-9639J172D01*
G01*
X266073Y39312D02*
G03*
X263810Y39750I-2263J-5622D01*
G01*
X369767Y127451D02*
G03*
X369773Y127456I-983J1133D01*
G01*
X309417Y96087D02*
G03*
X309426Y96097I-1056J1065D01*
G01*
X437977Y302101D02*
G03*
X437921Y301731I8967J-1552D01*
G01*
D02*
G03*
X437904Y299511I9023J-1183D01*
G01*
X369662Y159369D02*
G03*
X369659Y159366I1053J-1069D01*
G01*
X369462Y159140D02*
G03*
X369598Y159305I-6962J5860D01*
G01*
X368136Y157855D02*
G03*
X369462Y159140I-5636J7145D01*
G01*
X336177Y132597D02*
G03*
X336161Y132584I5411J-6685D01*
G01*
X113638Y337069D02*
G03*
X116065Y328565I8862J-2069D01*
G01*
X155900Y282495D02*
G03*
X165000Y273400I9100J5D01*
G01*
X455624Y252335D02*
G03*
X457445Y250542I6876J5165D01*
G01*
X410223Y172652D02*
X410362Y172883D01*
X302990Y78419D02*
X302995Y78391D01*
X410362Y172883D02*
X410667Y173188D01*
X410667Y173188D02*
X410870Y173391D01*
X411103Y173558D01*
X432114Y184272D02*
X452150Y189643D01*
X393640Y127456D02*
X394421Y128237D01*
X302051Y84071D02*
X302990Y78419D01*
X411103Y173558D02*
X423103Y182156D01*
X303063Y78032D02*
X304744Y69973D01*
X394421Y128237D02*
X434610Y174961D01*
X413142Y170713D02*
X425153Y179319D01*
X404766Y193426D02*
X417500Y190000D01*
X404139Y193426D02*
X404766Y193426D01*
X426639Y186932D02*
X430873Y199545D01*
X416556Y213444D02*
X417178Y212822D01*
X355654Y176042D02*
X396842Y219580D01*
X410903Y219521D02*
X416556Y213444D01*
X252342Y60000D02*
X257178Y55164D01*
X354670Y128069D02*
X407852Y169925D01*
X356672Y124521D02*
X359633Y125243D01*
X410295Y167400D01*
X257178Y55164D02*
X281994Y44200D01*
X345000Y125000D02*
X354670Y128069D01*
X294637Y48967D02*
X303445Y62836D01*
X302051Y84071D02*
Y85438D01*
X295380Y78412D02*
X295511Y78818D01*
X295308Y68004D02*
X295380Y78412D01*
X312500Y94180D02*
X315856Y97535D01*
X312500Y80000D02*
Y94180D01*
X331257Y60000D02*
X332425Y59800D01*
X321076Y63406D02*
X323086Y62690D01*
X331257Y60000D01*
X418089Y37981D02*
X418091Y37979D01*
X332500Y60000D02*
X334893D01*
X334458D02*
X337048Y62590D01*
X334893Y60000D02*
X339061Y55832D01*
X417427Y212655D02*
X425630Y207635D01*
X417178Y212822D02*
X417427Y212655D01*
X432067Y200459D02*
X465000Y230000D01*
X170380Y235173D02*
X188573Y221307D01*
X150000Y180000D02*
X188111Y205642D01*
X166509Y244533D02*
X166592Y242457D01*
X166509Y244533D02*
X168340Y271279D01*
X167461Y273400D02*
X168340Y272521D01*
X165000Y273400D02*
X167461D01*
X168340Y271279D02*
Y272521D01*
X70851Y301311D02*
X120282Y257311D01*
X122500Y188729D02*
X123436Y240781D01*
X123512Y250030D01*
X70000Y302162D02*
X70851Y301311D01*
X122500Y187500D02*
Y188729D01*
X125000Y337500D02*
X127029Y335471D01*
Y328900D02*
Y335471D01*
Y328900D02*
X146425Y309503D01*
X116400Y327384D02*
Y327397D01*
Y327384D02*
X139399Y302903D01*
X148059Y299968D02*
X149981Y300319D01*
X147244Y299898D02*
X148059Y299968D01*
X165000Y320000D02*
Y323031D01*
X168518Y326549D01*
Y328087D01*
X169579Y329148D01*
X259645Y342757D02*
Y347145D01*
X267500Y355000D01*
X253932Y337044D02*
X259645Y342757D01*
X278320Y361386D02*
X278762Y360945D01*
X277829Y297278D02*
X278762Y360311D01*
X253053Y336166D02*
X253932Y337044D01*
X278762Y360311D02*
Y360945D01*
X244039Y263489D02*
X277829Y297278D01*
X282500Y240000D02*
X282671Y239829D01*
X283781Y230650D02*
X287922Y219747D01*
X300199Y239827D02*
X320221Y275691D01*
X282671Y239829D02*
X283781Y230650D01*
X282500Y240000D02*
X302147Y313628D01*
X342524Y309559D02*
X347500Y314535D01*
X320591Y276299D02*
X342524Y309559D01*
X302958Y336370D02*
X305401Y353390D01*
X304402Y328348D02*
X306940Y323390D01*
X303248Y332292D02*
X304402Y328348D01*
X306940Y322147D02*
Y323390D01*
X306287Y393810D02*
X310000Y400000D01*
X306287Y358406D02*
Y393810D01*
X305812Y355416D02*
X305819Y355439D01*
X347500Y314535D02*
Y355000D01*
X400091Y193393D02*
X404139Y193426D01*
X484855Y226804D02*
X485000Y230000D01*
X369662Y159369D02*
X370529Y160236D01*
X452403Y170080D02*
X484855Y226804D01*
X370529Y160236D02*
X392452Y189529D01*
X438886Y329791D02*
X443732Y403263D01*
X323439Y213383D02*
X332155Y224369D01*
X305489Y187623D02*
X323439Y213383D01*
X438048Y328953D02*
X438886Y329791D01*
X332936Y225240D02*
X438048Y328953D01*
X280955Y70476D02*
X280964Y71481D01*
X281248Y68117D02*
X285889Y53018D01*
X280955Y70476D02*
X281248Y68117D01*
X313904Y118751D02*
X354139Y174391D01*
X294827Y43386D02*
X309851Y57326D01*
X281033Y39748D02*
X286229Y39883D01*
X269497Y39069D02*
X280832Y39739D01*
X269402Y39057D02*
X269497Y39069D01*
X315883Y97550D02*
X316001Y97629D01*
X316001Y97629D02*
X324663Y103388D01*
X325810Y107814D02*
X345459Y114425D01*
X326940Y104502D02*
X346575Y111108D01*
X314063Y100544D02*
X322722Y106300D01*
X346615Y111121D02*
X354118Y113846D01*
X315856Y97535D02*
X315883Y97550D01*
X346576Y111108D02*
X346615Y111121D01*
X354118Y113846D02*
X354362Y113934D01*
X347710Y115657D02*
X348900Y116184D01*
X355936Y123784D02*
X356672Y124521D01*
X352881Y119448D02*
X355936Y123784D01*
X304721Y96726D02*
X305487Y97491D01*
X284752Y99235D02*
X308199Y109708D01*
X305487Y97491D02*
X314991Y110917D01*
X317833Y117730D02*
X336161Y132584D01*
X317297Y116814D02*
X317354Y117248D01*
X284133Y98795D02*
X284399Y99061D01*
X284752Y99235D01*
X317354Y117248D02*
X317833Y117730D01*
X345315Y274382D02*
X430684Y359218D01*
X461631Y384586D02*
X461632Y384585D01*
X462410Y383339D02*
X480000Y350000D01*
X297580Y193134D02*
X343782Y272398D01*
X287943Y193375D02*
X288547Y216067D01*
X456823Y391040D02*
X461631Y384586D01*
X243165Y105665D02*
X244629Y187897D01*
X243600Y261812D02*
X244630Y188204D01*
X243161Y105661D02*
X243165Y105665D01*
X243600Y261812D02*
Y263050D01*
X132500Y125000D02*
Y172500D01*
X122939Y182061D02*
X132500Y172500D01*
X122939Y182061D02*
Y187061D01*
X159252Y48248D02*
X159642Y47858D01*
X137857Y67143D02*
Y72674D01*
X140000Y65000D02*
X142500D01*
X159642Y47858D02*
X160193Y47813D01*
X142500Y65000D02*
X159252Y48248D01*
X137857Y67143D02*
X140000Y65000D01*
X160193Y47813D02*
X260613Y39750D01*
X130000Y80531D02*
X137857Y72674D01*
X459232Y40768D02*
X461100Y38900D01*
X450671Y45494D02*
X459232Y40768D01*
X455000Y62656D02*
Y96400D01*
X483393Y228926D02*
X483926D01*
X485000Y230000D01*
X465000Y408601D02*
X469362Y390345D01*
X444201Y336627D02*
X453869Y378869D01*
X456823Y392081D02*
X460265Y397755D01*
X456823Y392081D02*
X456823Y391040D01*
X443298Y332482D02*
X444201Y336627D01*
X443732Y403263D02*
X450482Y411373D01*
X437250Y375000D02*
Y395000D01*
X464039Y409562D02*
X465000Y408601D01*
X480000Y277500D02*
Y350000D01*
X460265Y398795D02*
X460265Y397755D01*
X354474Y114022D02*
X369767Y127451D01*
X354362Y113934D02*
X354474Y114022D01*
X309172Y95891D02*
X309417Y96087D01*
X393578Y127456D02*
X393640D01*
X308367Y95370D02*
X309172Y95891D01*
X266073Y39312D02*
X269246Y39057D01*
X269402D01*
X260613Y39750D02*
X263810D01*
X370338Y127456D02*
X393578D01*
X369773Y127456D02*
X370338Y127456D01*
X309540Y96210D02*
X309580Y96273D01*
X308134Y95138D02*
X308367Y95370D01*
X308044Y94994D02*
X308134Y95138D01*
X302051Y85438D02*
X308044Y94994D01*
X309426Y96097D02*
X309540Y96210D01*
X298341Y83582D02*
X298551Y83937D01*
X299296Y87632D02*
X304721Y96283D01*
X295511Y78818D02*
X298341Y83582D01*
X304721Y96283D02*
Y96726D01*
X298551Y86887D02*
X299296Y87632D01*
X298551Y83937D02*
Y86887D01*
X337048Y62590D02*
X452395Y170072D01*
X453133Y416100D02*
X453562Y416100D01*
X464039Y409562D01*
X450482Y411373D02*
X452315Y411796D01*
X453154D01*
X454032Y410917D01*
X446438Y416100D02*
X453133D01*
X454032Y410917D02*
X460265Y398795D01*
X437977Y302101D02*
X443298Y332482D01*
X253044Y336166D02*
X253053D01*
X306504Y321711D02*
X306940Y322147D01*
X266506Y373156D02*
X278320Y361386D01*
X302909Y315375D02*
X306504Y321711D01*
X193570Y365000D02*
X219870Y391300D01*
X138257Y352500D02*
X150757Y365000D01*
X193570D01*
X309925Y57378D02*
X316094Y61640D01*
X320203Y63406D02*
X321076D01*
X316094Y61640D02*
X320203Y63406D01*
X369598Y159305D02*
X369659Y159366D01*
X130000Y80531D02*
Y122500D01*
X132500Y125000D01*
X280964Y71481D02*
X283963Y98625D01*
X339061Y55832D02*
X415066Y39618D01*
X415074Y39617D01*
X283963Y98625D02*
X284133Y98795D01*
X336177Y132597D02*
X338484Y134467D01*
X368136Y157855D01*
X243600Y263050D02*
X244039Y263489D01*
X197500Y60000D02*
X243161Y105661D01*
X116400Y348900D02*
X116839Y349339D01*
X154388Y289395D02*
X155245Y286518D01*
X116839Y349339D02*
X120000Y352500D01*
X155245Y286518D02*
X155899Y283685D01*
X154388Y289395D02*
X154388Y289409D01*
X116400Y327397D02*
Y328231D01*
X113638Y337069D02*
X116400Y348900D01*
X116065Y328565D02*
X116400Y328231D01*
X149981Y300319D02*
X150148Y300486D01*
X154388D01*
Y289409D02*
Y300486D01*
X155899Y283685D02*
X155900Y282495D01*
X179982Y336166D02*
X253044D01*
X249594Y373156D02*
X266506D01*
X418091Y37979D02*
X437170Y18900D01*
X440896Y272563D02*
Y273777D01*
X437904Y299511D02*
X440896Y273777D01*
Y272563D02*
X440896Y271942D01*
X493388Y270358D02*
X497500Y274469D01*
X493388Y268389D02*
Y270358D01*
X492500Y267500D02*
X493388Y268389D01*
X497500Y274469D02*
Y277500D01*
X451400Y100000D02*
Y133900D01*
X460000Y142500D01*
X451400Y100000D02*
X455000Y96400D01*
X437170Y18900D02*
X437791Y18900D01*
X456062D01*
X457445Y250542D02*
X475175Y237663D01*
X476054Y236784D01*
Y234188D02*
Y236784D01*
X476932Y233309D02*
X483393Y228926D01*
X440896Y271942D02*
X455624Y252335D01*
X476054Y234188D02*
X476932Y233309D01*
X70000Y302784D02*
X70000Y302162D01*
X70000Y302784D02*
Y350000D01*
X122500Y187500D02*
X122939Y187061D01*
X169579Y329148D02*
X169665Y329601D01*
X170114Y330051D01*
X179982Y336166D01*
X120000Y352500D02*
X138257D01*
X222500Y418929D02*
Y431070D01*
X228680Y412250D02*
X241320D01*
X153679Y412250D02*
X154179Y412749D01*
X216320D01*
X222500Y431070D02*
X228680Y437250D01*
X241320D02*
X247749Y430820D01*
Y418680D02*
Y430820D01*
X219870Y391300D02*
Y403440D01*
X228680Y437250D02*
X241320D01*
X247749Y418680D02*
X254179Y412250D01*
X219870Y403440D02*
X228680Y412250D01*
X254179D02*
X316320D01*
X244870Y397820D02*
Y408700D01*
X241320Y412250D02*
X244870Y408700D01*
Y397820D02*
X248130Y394560D01*
X216320Y412749D02*
X222500Y418929D01*
X235000Y387750D02*
Y400000D01*
Y387750D02*
X249594Y373156D01*
X254560Y394560D02*
X260000Y400000D01*
X248130Y394560D02*
X254560D01*
X391320Y387750D02*
X400820Y397250D01*
X328680Y387750D02*
X391320D01*
X490000Y267500D02*
X492500D01*
X480000Y277500D02*
X490000Y267500D01*
X437250Y406912D02*
X446438Y416100D01*
X400820Y397250D02*
X435000D01*
X437250Y395000D01*
Y406912D01*
X135000Y413128D02*
Y425000D01*
X322500Y393930D02*
X328680Y387750D01*
X316320Y412250D02*
X322500Y406071D01*
X135000Y413128D02*
X135878Y412250D01*
X153679D01*
X322500Y393930D02*
Y406071D01*
X456062Y18900D02*
X461100Y23938D01*
Y38900D01*
X217500Y60000D02*
X252342D01*
D88*
X411103Y173558D02*
D03*
X410667Y173188D02*
D03*
X316001Y97629D02*
D03*
D89*
X72500Y242500D02*
D03*
Y192500D02*
D03*
D90*
X110000Y70000D02*
D03*
X415000Y375000D02*
D03*
Y70000D02*
D03*
X110000Y375000D02*
D03*
D91*
X385000Y425000D02*
D03*
X385000Y400000D02*
D03*
X360000D02*
D03*
X360000Y425000D02*
D03*
X334999Y424080D02*
D03*
X335000Y400000D02*
D03*
X310000D02*
D03*
X310000Y424999D02*
D03*
X285000D02*
D03*
Y400000D02*
D03*
X260000D02*
D03*
Y424999D02*
D03*
X235000Y425000D02*
D03*
X210000Y400000D02*
D03*
Y424999D02*
D03*
X185000Y425000D02*
D03*
X185000Y400000D02*
D03*
X160000D02*
D03*
Y424999D02*
D03*
X135000Y425000D02*
D03*
Y400000D02*
D03*
X410000Y27500D02*
D03*
X385000D02*
D03*
X360000D02*
D03*
X335000Y27500D02*
D03*
X307500D02*
D03*
X285000D02*
D03*
X260000D02*
D03*
X235000D02*
D03*
X185000D02*
D03*
X160000D02*
D03*
X135000D02*
D03*
X235000Y400000D02*
D03*
X210000Y27500D02*
D03*
D92*
X189355Y319517D02*
D03*
X434610Y174961D02*
D03*
X417500Y190000D02*
D03*
X401890Y177500D02*
D03*
X295308Y68004D02*
D03*
X312500Y80000D02*
D03*
X331632Y77482D02*
D03*
X332425Y59800D02*
D03*
X315598Y49390D02*
D03*
X361816Y69317D02*
D03*
X425630Y207635D02*
D03*
X182730Y213640D02*
D03*
X198199Y294622D02*
D03*
X166994Y283260D02*
D03*
X180776Y297740D02*
D03*
X217500Y297500D02*
D03*
X176224Y242840D02*
D03*
X180586Y261620D02*
D03*
X165140Y217010D02*
D03*
X155241Y251977D02*
D03*
X142500Y287500D02*
D03*
X139866Y266141D02*
D03*
X135000Y240000D02*
D03*
X113873Y250110D02*
D03*
X87500Y255000D02*
D03*
X125000Y337500D02*
D03*
X146425Y309503D02*
D03*
X165000Y320000D02*
D03*
X167500Y377500D02*
D03*
X267500Y355000D02*
D03*
X246815Y307523D02*
D03*
X260000Y250000D02*
D03*
X315006Y312541D02*
D03*
X278537Y215951D02*
D03*
X300199Y239827D02*
D03*
X311717Y290000D02*
D03*
X282500Y240000D02*
D03*
X312500Y335000D02*
D03*
X315007Y352522D02*
D03*
X296647Y358406D02*
D03*
X347500Y355000D02*
D03*
X392500Y342500D02*
D03*
X465000Y230000D02*
D03*
X452150Y189643D02*
D03*
X339707Y218378D02*
D03*
X361950Y168742D02*
D03*
X285889Y53018D02*
D03*
X330000Y95360D02*
D03*
X345000Y125000D02*
D03*
X304267Y118510D02*
D03*
X278155Y119610D02*
D03*
X322500Y157500D02*
D03*
X352110Y267544D02*
D03*
X328639Y270992D02*
D03*
X297580Y193134D02*
D03*
X234991Y188069D02*
D03*
X172500Y167500D02*
D03*
X132500Y172500D02*
D03*
X102500Y172500D02*
D03*
X67225Y167696D02*
D03*
X140000Y65000D02*
D03*
X80000Y40000D02*
D03*
X450671Y45494D02*
D03*
X444529Y28707D02*
D03*
X455000Y62656D02*
D03*
X487500Y202500D02*
D03*
X485000Y230000D02*
D03*
X463860Y257797D02*
D03*
X460015Y275075D02*
D03*
X505000Y260000D02*
D03*
X461092Y312002D02*
D03*
X447510Y300652D02*
D03*
X464873Y294621D02*
D03*
X453869Y378869D02*
D03*
X469362Y390345D02*
D03*
X287500Y379100D02*
D03*
X77500Y120000D02*
D03*
X497500Y277500D02*
D03*
X462484Y122516D02*
D03*
X97500Y237500D02*
D03*
X150000Y180000D02*
D03*
X475000Y110000D02*
D03*
X497500Y122500D02*
D03*
X500000Y142500D02*
D03*
X55957Y120621D02*
D03*
X460000Y142500D02*
D03*
X70000Y350000D02*
D03*
X102500Y337500D02*
D03*
X217500Y60000D02*
D03*
X197500D02*
D03*
M02*
