G04*
G04 #@! TF.GenerationSoftware,Altium Limited,Altium Designer,23.4.1 (23)*
G04*
G04 Layer_Color=8421504*
%FSLAX44Y44*%
%MOMM*%
G71*
G04*
G04 #@! TF.SameCoordinates,429B218C-89F6-4EF1-A614-2C282A8942F1*
G04*
G04*
G04 #@! TF.FilePolarity,Positive*
G04*
G01*
G75*
%ADD10C,0.5000*%
%ADD14R,0.6000X0.5000*%
%ADD15R,0.6000X0.5000*%
%ADD16R,1.0000X1.7500*%
%ADD17C,0.5000*%
G04:AMPARAMS|DCode=18|XSize=0.3125mm|YSize=1.7883mm|CornerRadius=0.1562mm|HoleSize=0mm|Usage=FLASHONLY|Rotation=180.000|XOffset=0mm|YOffset=0mm|HoleType=Round|Shape=RoundedRectangle|*
%AMROUNDEDRECTD18*
21,1,0.3125,1.4758,0,0,180.0*
21,1,0.0000,1.7883,0,0,180.0*
1,1,0.3125,0.0000,0.7379*
1,1,0.3125,0.0000,0.7379*
1,1,0.3125,0.0000,-0.7379*
1,1,0.3125,0.0000,-0.7379*
%
%ADD18ROUNDEDRECTD18*%
G04:AMPARAMS|DCode=19|XSize=1.7883mm|YSize=0.3125mm|CornerRadius=0.1562mm|HoleSize=0mm|Usage=FLASHONLY|Rotation=180.000|XOffset=0mm|YOffset=0mm|HoleType=Round|Shape=RoundedRectangle|*
%AMROUNDEDRECTD19*
21,1,1.7883,0.0000,0,0,180.0*
21,1,1.4758,0.3125,0,0,180.0*
1,1,0.3125,-0.7379,0.0000*
1,1,0.3125,0.7379,0.0000*
1,1,0.3125,0.7379,0.0000*
1,1,0.3125,-0.7379,0.0000*
%
%ADD19ROUNDEDRECTD19*%
%ADD20R,1.7883X0.3125*%
%ADD21R,0.5725X0.5682*%
%ADD22R,0.8000X0.9500*%
%ADD23R,1.8000X0.6000*%
G04:AMPARAMS|DCode=24|XSize=1.9mm|YSize=3.2mm|CornerRadius=0mm|HoleSize=0mm|Usage=FLASHONLY|Rotation=270.000|XOffset=0mm|YOffset=0mm|HoleType=Round|Shape=Octagon|*
%AMOCTAGOND24*
4,1,8,1.6000,0.4750,1.6000,-0.4750,1.1250,-0.9500,-1.1250,-0.9500,-1.6000,-0.4750,-1.6000,0.4750,-1.1250,0.9500,1.1250,0.9500,1.6000,0.4750,0.0*
%
%ADD24OCTAGOND24*%

%ADD25R,1.4000X0.6000*%
%ADD26R,1.3500X0.4000*%
%ADD27R,1.9000X1.5000*%
%ADD28R,0.8000X1.7000*%
%ADD29R,1.5500X0.6000*%
%ADD30R,1.8000X1.2000*%
%ADD31R,0.9000X2.1000*%
%ADD32R,3.2000X2.1000*%
%ADD33R,2.8400X6.8000*%
%ADD34R,1.0121X1.2084*%
%ADD35R,0.5200X0.5200*%
%ADD36R,0.5200X0.5200*%
%ADD37R,0.7500X1.0000*%
%ADD38R,1.1000X2.0500*%
%ADD39R,0.9500X0.8000*%
%ADD40R,0.8500X0.9500*%
%ADD41R,0.9000X1.0500*%
%ADD42R,0.4500X0.4500*%
%ADD43R,1.2500X1.1000*%
%ADD44R,0.5000X0.3500*%
%ADD45R,0.9500X0.8500*%
%ADD46R,0.3500X0.8000*%
%ADD47R,0.8500X0.3500*%
%ADD48R,2.6000X2.7000*%
%ADD49R,2.0000X0.4000*%
G04:AMPARAMS|DCode=50|XSize=0.7311mm|YSize=0.3025mm|CornerRadius=0.1512mm|HoleSize=0mm|Usage=FLASHONLY|Rotation=180.000|XOffset=0mm|YOffset=0mm|HoleType=Round|Shape=RoundedRectangle|*
%AMROUNDEDRECTD50*
21,1,0.7311,0.0000,0,0,180.0*
21,1,0.4286,0.3025,0,0,180.0*
1,1,0.3025,-0.2143,0.0000*
1,1,0.3025,0.2143,0.0000*
1,1,0.3025,0.2143,0.0000*
1,1,0.3025,-0.2143,0.0000*
%
%ADD50ROUNDEDRECTD50*%
%ADD51R,0.9121X0.9587*%
%ADD52R,0.7000X1.3000*%
%ADD53R,0.5000X0.4000*%
%ADD54R,0.4000X0.5000*%
%ADD55R,0.7311X0.3025*%
G36*
X55000Y181500D02*
X36000D01*
Y194500D01*
X55000D01*
Y181500D01*
D02*
G37*
G36*
X50000Y176500D02*
X41000Y176500D01*
Y181500D01*
X50000D01*
Y176500D01*
D02*
G37*
G36*
X50000Y253500D02*
X41000D01*
Y258500D01*
X50000Y258500D01*
Y253500D01*
D02*
G37*
G36*
X55000Y240500D02*
X36000D01*
Y253500D01*
X55000D01*
Y240500D01*
D02*
G37*
D10*
X51276Y183650D02*
G03*
X47709Y182500I-1276J-2150D01*
G01*
X52291D02*
G03*
X51276Y183650I-2291J-1000D01*
G01*
D02*
G03*
X47709Y182500I-1276J-2150D01*
G01*
X52291D02*
G03*
X51276Y183650I-2291J-1000D01*
G01*
Y179350D02*
G03*
X52291Y182500I-1276J2150D01*
G01*
X47500Y181500D02*
G03*
X51276Y179350I2500J0D01*
G01*
D02*
G03*
X52291Y182500I-1276J2150D01*
G01*
X47500Y181500D02*
G03*
X51276Y179350I2500J0D01*
G01*
X40091Y179171D02*
G03*
X40229Y179122I909J2329D01*
G01*
X40091Y179171D02*
G03*
X40229Y179122I909J2329D01*
G01*
X40229Y179122D02*
G03*
X40771Y179011I771J2378D01*
G01*
X40229Y179122D02*
G03*
X40771Y179011I771J2378D01*
G01*
X40229Y179122D02*
G03*
X40771Y179011I771J2378D01*
G01*
X40229Y179122D02*
G03*
X40771Y179011I771J2378D01*
G01*
X40772Y179011D02*
G03*
X41000Y179000I228J2490D01*
G01*
X40772Y179011D02*
G03*
X41000Y179000I228J2490D01*
G01*
X40772Y179011D02*
G03*
X41000Y179000I228J2490D01*
G01*
X40772Y179011D02*
G03*
X41000Y179000I228J2490D01*
G01*
X38709Y180500D02*
G03*
X40090Y179171I2291J1000D01*
G01*
X38709Y180500D02*
G03*
X40090Y179171I2291J1000D01*
G01*
X40091Y179171D02*
G03*
X40229Y179122I909J2329D01*
G01*
X40091Y179171D02*
G03*
X40229Y179122I909J2329D01*
G01*
X38709Y180500D02*
G03*
X40090Y179171I2291J1000D01*
G01*
X38709Y180500D02*
G03*
X40090Y179171I2291J1000D01*
G01*
X41000Y179000D02*
G03*
X42745Y179710I0J2500D01*
G01*
X41000Y179000D02*
G03*
X42745Y179710I0J2500D01*
G01*
X41000Y179000D02*
G03*
X42745Y179710I0J2500D01*
G01*
X41000Y179000D02*
G03*
X42745Y179710I0J2500D01*
G01*
X38511Y181269D02*
G03*
X38511Y181268I2489J231D01*
G01*
X38510Y181271D02*
G03*
X38511Y181269I2490J229D01*
G01*
Y181269D02*
G03*
X38511Y181268I2489J231D01*
G01*
X38510Y181271D02*
G03*
X38511Y181269I2490J229D01*
G01*
X38510Y181271D02*
G03*
X38511Y181269I2490J229D01*
G01*
Y181269D02*
G03*
X38511Y181268I2489J231D01*
G01*
X38511Y181269D02*
G03*
X38511Y181268I2489J231D01*
G01*
X38500Y181500D02*
G03*
X38504Y181362I2500J0D01*
G01*
X38500Y181500D02*
G03*
X38504Y181362I2500J0D01*
G01*
X38504Y181361D02*
G03*
X38510Y181272I2496J139D01*
G01*
X38504Y181362D02*
G03*
X38504Y181361I2496J138D01*
G01*
X38500Y181500D02*
G03*
X38504Y181362I2500J0D01*
G01*
X38500Y181500D02*
G03*
X38504Y181362I2500J0D01*
G01*
X38504Y181361D02*
G03*
X38510Y181272I2496J139D01*
G01*
X38504Y181362D02*
G03*
X38504Y181361I2496J138D01*
G01*
X38510Y181271D02*
G03*
X38511Y181269I2490J229D01*
G01*
X38504Y181361D02*
G03*
X38510Y181272I2496J139D01*
G01*
X38504Y181362D02*
G03*
X38504Y181361I2496J138D01*
G01*
D02*
G03*
X38510Y181272I2496J139D01*
G01*
X38504Y181362D02*
G03*
X38504Y181361I2496J138D01*
G01*
X38616Y180747D02*
G03*
X38671Y180591I2384J753D01*
G01*
X38616Y180747D02*
G03*
X38671Y180591I2384J753D01*
G01*
X38616Y180747D02*
G03*
X38671Y180591I2384J753D01*
G01*
X38574Y180897D02*
G03*
X38616Y180748I2426J603D01*
G01*
X38574Y180897D02*
G03*
X38616Y180748I2426J603D01*
G01*
X38671Y180591D02*
G03*
X38709Y180500I2329J909D01*
G01*
X38671Y180591D02*
G03*
X38709Y180500I2329J909D01*
G01*
X38671Y180591D02*
G03*
X38709Y180500I2329J909D01*
G01*
X38616Y180747D02*
G03*
X38671Y180591I2384J753D01*
G01*
X38671Y180591D02*
G03*
X38709Y180500I2329J909D01*
G01*
X38574Y180897D02*
G03*
X38616Y180748I2426J603D01*
G01*
X38500Y181501D02*
G03*
X38500Y181500I2500J-1D01*
G01*
X38682Y182436D02*
G03*
X38500Y181501I2318J-936D01*
G01*
X38574Y180897D02*
G03*
X38616Y180748I2426J603D01*
G01*
X38500Y181501D02*
G03*
X38500Y181500I2500J-1D01*
G01*
X38682Y182436D02*
G03*
X38500Y181501I2318J-936D01*
G01*
X38709Y182500D02*
G03*
X38682Y182437I2291J-1000D01*
G01*
X38709Y182500D02*
G03*
X38682Y182437I2291J-1000D01*
G01*
X38709Y182500D02*
G03*
X38682Y182437I2291J-1000D01*
G01*
X38709Y182500D02*
G03*
X38682Y182437I2291J-1000D01*
G01*
X42516Y251512D02*
G03*
X43166Y252253I-1516J1988D01*
G01*
X42516Y251512D02*
G03*
X43166Y252253I-1516J1988D01*
G01*
X47709Y182500D02*
G03*
X47572Y182096I2291J-1000D01*
G01*
X47709Y182500D02*
G03*
X47572Y182096I2291J-1000D01*
G01*
X43166Y252253D02*
G03*
X43442Y252964I-2166J1247D01*
G01*
X43166Y252253D02*
G03*
X43442Y252964I-2166J1247D01*
G01*
X43442Y252965D02*
G03*
X43491Y253290I-2442J536D01*
G01*
X43442Y252965D02*
G03*
X43491Y253290I-2442J536D01*
G01*
Y253290D02*
G03*
X43500Y253468I-2491J210D01*
G01*
Y253468D02*
G03*
X43500Y253487I-2500J32D01*
G01*
X43500Y253468D02*
G03*
X43500Y253487I-2500J32D01*
G01*
D02*
G03*
X43500Y253490I-2500J14D01*
G01*
Y253490D02*
Y253491D01*
Y253487D02*
G03*
X43500Y253490I-2500J14D01*
G01*
Y253490D02*
Y253491D01*
Y253491D02*
G03*
X43500Y253495I-2500J9D01*
G01*
X43500Y253491D02*
G03*
X43500Y253495I-2500J9D01*
G01*
X43001Y180002D02*
G03*
X43002Y180003I-2001J1498D01*
G01*
X43001Y180002D02*
G03*
X43002Y180003I-2001J1498D01*
G01*
X38511Y181268D02*
G03*
X38573Y180900I2489J232D01*
G01*
X38511Y181268D02*
G03*
X38573Y180900I2489J232D01*
G01*
X38511Y181268D02*
G03*
X38573Y180900I2489J232D01*
G01*
X38511Y181268D02*
G03*
X38573Y180900I2489J232D01*
G01*
X43291Y182501D02*
G03*
X38709Y182500I-2291J-1001D01*
G01*
X43003Y180004D02*
G03*
X43291Y182500I-2003J1497D01*
G01*
X43291Y182501D02*
G03*
X38709Y182500I-2291J-1001D01*
G01*
X43291Y182501D02*
G03*
X38709Y182500I-2291J-1001D01*
G01*
X43291Y182501D02*
G03*
X38709Y182500I-2291J-1001D01*
G01*
X43003Y180004D02*
G03*
X43291Y182500I-2003J1497D01*
G01*
X43291Y182500D02*
X43291Y182501D01*
X43291Y182500D02*
X43291Y182501D01*
X43500Y253495D02*
G03*
X43500Y253500I-2500J5D01*
G01*
Y253495D02*
G03*
X43500Y253500I-2500J5D01*
G01*
X39894Y251258D02*
G03*
X40093Y251171I1106J2242D01*
G01*
X39894Y251258D02*
G03*
X40093Y251171I1106J2242D01*
G01*
X38870Y252192D02*
G03*
X39894Y251258I2130J1309D01*
G01*
X38500Y253500D02*
G03*
X38870Y252192I2500J0D01*
G01*
X42093Y251252D02*
G03*
X42247Y251334I-1094J2248D01*
G01*
X40093Y251170D02*
G03*
X42093Y251252I907J2330D01*
G01*
X38500Y253500D02*
G03*
X38870Y252192I2500J0D01*
G01*
D02*
G03*
X39894Y251258I2130J1309D01*
G01*
X42093Y251252D02*
G03*
X42247Y251334I-1094J2248D01*
G01*
X42248Y251334D02*
G03*
X42516Y251512I-1248J2166D01*
G01*
X42248Y251334D02*
G03*
X42516Y251512I-1248J2166D01*
G01*
X38573Y180898D02*
X38574Y180898D01*
X38573Y180898D02*
X38574Y180898D01*
X40093Y251170D02*
G03*
X42093Y251252I907J2330D01*
G01*
X43500Y253500D02*
G03*
X38500Y253500I-2500J0D01*
G01*
X42746Y179711D02*
G03*
X42747Y179712I-1746J1789D01*
G01*
X42746Y179711D02*
G03*
X42747Y179712I-1746J1789D01*
G01*
X42747Y179712D02*
G03*
X42810Y179776I-1748J1788D01*
G01*
X42747Y179712D02*
G03*
X42810Y179776I-1748J1788D01*
G01*
X42810Y179776D02*
G03*
X42811Y179777I-1810J1724D01*
G01*
X42810Y179776D02*
G03*
X42811Y179777I-1810J1724D01*
G01*
X47500Y253500D02*
G03*
X49999Y256000I2500J0D01*
G01*
X48325Y255356D02*
G03*
X47500Y253501I1675J-1856D01*
G01*
X48325Y255356D02*
G03*
X47500Y253501I1675J-1856D01*
G01*
X49999Y256000D02*
G03*
X48325Y255356I0J-2500D01*
G01*
X49999Y256000D02*
G03*
X48325Y255356I0J-2500D01*
G01*
X42812Y179778D02*
G03*
X43001Y180002I-1812J1723D01*
G01*
X42812Y179778D02*
G03*
X43001Y180002I-1812J1723D01*
G01*
X47572Y182096D02*
G03*
X47500Y181500I2428J-596D01*
G01*
X47500Y253501D02*
Y253500D01*
Y253500D02*
G03*
X50000Y256000I2500J0D01*
G01*
D14*
X450000Y240000D02*
D03*
X430000Y249500D02*
D03*
D15*
Y230500D02*
D03*
D16*
X419999Y330001D02*
D03*
D17*
X38682Y182436D02*
D03*
D03*
X43500Y253491D02*
D03*
D03*
X38573Y180900D02*
D03*
D03*
X42747Y179712D02*
D03*
D03*
X42745Y179710D02*
D03*
D03*
X48325Y255356D02*
D03*
D03*
X42746Y179711D02*
D03*
D03*
D18*
X292500Y158088D02*
D03*
X287499D02*
D03*
X282500D02*
D03*
X277500D02*
D03*
X272500D02*
D03*
X267500D02*
D03*
X262500D02*
D03*
X257500D02*
D03*
X252500D02*
D03*
X247500D02*
D03*
X242500D02*
D03*
X237500D02*
D03*
X232500D02*
D03*
X227500D02*
D03*
X237500Y271912D02*
D03*
X242500D02*
D03*
X247500D02*
D03*
X252500D02*
D03*
X257500Y271912D02*
D03*
X262500Y271912D02*
D03*
X267500D02*
D03*
X272500D02*
D03*
X277500Y271912D02*
D03*
X282500D02*
D03*
X302500Y271912D02*
D03*
X227500Y271912D02*
D03*
X302500Y158088D02*
D03*
X287500Y271912D02*
D03*
X292500D02*
D03*
X297500Y158088D02*
D03*
X232500Y271912D02*
D03*
X297500Y271912D02*
D03*
D19*
X208088Y187499D02*
D03*
Y192500D02*
D03*
Y197500D02*
D03*
Y202500D02*
D03*
Y207500D02*
D03*
Y212500D02*
D03*
Y217500D02*
D03*
Y222500D02*
D03*
Y227500D02*
D03*
Y232500D02*
D03*
Y237500D02*
D03*
Y242500D02*
D03*
Y247500D02*
D03*
Y252500D02*
D03*
X321912D02*
D03*
Y247500D02*
D03*
Y242500D02*
D03*
Y237500D02*
D03*
Y227499D02*
D03*
Y222500D02*
D03*
Y217500D02*
D03*
Y212500D02*
D03*
X321912Y207500D02*
D03*
X321912Y202500D02*
D03*
Y197500D02*
D03*
Y192500D02*
D03*
Y187500D02*
D03*
Y182500D02*
D03*
X208088Y177500D02*
D03*
Y182500D02*
D03*
X321912Y232499D02*
D03*
D20*
Y177499D02*
D03*
D21*
X252500Y292978D02*
D03*
Y302022D02*
D03*
D22*
X366501Y225000D02*
D03*
X353500D02*
D03*
X293750Y92500D02*
D03*
X281250D02*
D03*
X258500Y102500D02*
D03*
X311250Y105000D02*
D03*
X298751D02*
D03*
X271500Y102500D02*
D03*
D23*
X434499Y287500D02*
D03*
D24*
X409500D02*
D03*
D25*
X436499Y302501D02*
D03*
Y272501D02*
D03*
D26*
X72500Y204500D02*
D03*
Y211000D02*
D03*
Y217500D02*
D03*
Y224000D02*
D03*
Y230500D02*
D03*
D27*
X45500Y207500D02*
D03*
Y227500D02*
D03*
D28*
X57000Y155000D02*
D03*
X22999D02*
D03*
D29*
X480500Y327500D02*
D03*
Y317500D02*
D03*
Y257500D02*
D03*
Y267500D02*
D03*
Y277500D02*
D03*
Y287500D02*
D03*
Y297500D02*
D03*
Y307500D02*
D03*
D30*
X519250Y244500D02*
D03*
Y340500D02*
D03*
D31*
X393000Y143500D02*
D03*
X370000D02*
D03*
X347000D02*
D03*
D32*
X370000Y86500D02*
D03*
D33*
X182500Y120000D02*
D03*
D34*
X455000Y98019D02*
D03*
Y81981D02*
D03*
X325000Y138019D02*
D03*
Y121981D02*
D03*
X295000Y338019D02*
D03*
X410000Y231981D02*
D03*
X295000Y321981D02*
D03*
X410000Y248018D02*
D03*
D35*
X342500Y231000D02*
D03*
Y239000D02*
D03*
X101850Y303149D02*
D03*
Y295149D02*
D03*
X185924Y178427D02*
D03*
X102500Y311000D02*
D03*
X185924Y170427D02*
D03*
X102500Y319000D02*
D03*
D36*
X349000Y177500D02*
D03*
X341000D02*
D03*
X453500Y325000D02*
D03*
X461500D02*
D03*
X361500Y207499D02*
D03*
X299000Y305000D02*
D03*
X231501Y292500D02*
D03*
X296000Y130000D02*
D03*
X223501Y292500D02*
D03*
X291000Y305000D02*
D03*
X304000Y130000D02*
D03*
X353500Y207499D02*
D03*
D37*
X65001Y292500D02*
D03*
X80000D02*
D03*
X148591Y237499D02*
D03*
X163591D02*
D03*
X65000Y272500D02*
D03*
X80000D02*
D03*
D38*
X416000Y165000D02*
D03*
X449000D02*
D03*
D39*
X270000Y306000D02*
D03*
Y319000D02*
D03*
X145000Y361500D02*
D03*
Y348500D02*
D03*
D40*
X259250Y355000D02*
D03*
X245750D02*
D03*
D41*
X68250Y332500D02*
D03*
X81750D02*
D03*
X115750Y272500D02*
D03*
X129250D02*
D03*
X68250Y312500D02*
D03*
X81750D02*
D03*
D42*
X181000Y190000D02*
D03*
X189000D02*
D03*
X181000Y202500D02*
D03*
X189000D02*
D03*
D43*
X49250Y312500D02*
D03*
X25750D02*
D03*
Y272500D02*
D03*
Y332500D02*
D03*
Y292500D02*
D03*
X49250Y272500D02*
D03*
Y292500D02*
D03*
Y332500D02*
D03*
D44*
X130500Y317250D02*
D03*
Y310750D02*
D03*
Y304250D02*
D03*
Y297750D02*
D03*
X114500D02*
D03*
Y304250D02*
D03*
Y310750D02*
D03*
Y317250D02*
D03*
D45*
X252500Y321500D02*
D03*
Y335000D02*
D03*
D46*
X212500Y375000D02*
D03*
X207500D02*
D03*
X202500D02*
D03*
X197500D02*
D03*
X192500D02*
D03*
X187500D02*
D03*
Y335000D02*
D03*
X192500D02*
D03*
X197500D02*
D03*
X202500D02*
D03*
X207500D02*
D03*
X212500D02*
D03*
D47*
X180250Y367500D02*
D03*
Y362500D02*
D03*
Y357500D02*
D03*
Y352500D02*
D03*
Y347500D02*
D03*
Y342500D02*
D03*
X219750D02*
D03*
Y347500D02*
D03*
Y352500D02*
D03*
Y357500D02*
D03*
Y362500D02*
D03*
Y367500D02*
D03*
D48*
X200000Y355000D02*
D03*
D49*
X380000Y187500D02*
D03*
Y175500D02*
D03*
Y199500D02*
D03*
D50*
X406095Y333251D02*
D03*
X433905Y339750D02*
D03*
X406095Y320250D02*
D03*
Y326750D02*
D03*
Y339750D02*
D03*
X433905Y333251D02*
D03*
Y326750D02*
D03*
D51*
X370000Y350233D02*
D03*
Y364767D02*
D03*
D52*
X477000Y350000D02*
D03*
X458000D02*
D03*
D53*
X165000Y351500D02*
D03*
Y343500D02*
D03*
D54*
X196000Y322500D02*
D03*
X204000D02*
D03*
D55*
X433905Y320250D02*
D03*
M02*
