G04*
G04 #@! TF.GenerationSoftware,Altium Limited,Altium Designer,23.4.1 (23)*
G04*
G04 Layer_Physical_Order=6*
G04 Layer_Color=16711680*
%FSLAX44Y44*%
%MOMM*%
G71*
G04*
G04 #@! TF.SameCoordinates,A7B3D8D5-16A8-440A-8199-89ABE8C95972*
G04*
G04*
G04 #@! TF.FilePolarity,Positive*
G04*
G01*
G75*
%ADD17C,0.5000*%
%ADD29R,1.5500X0.6000*%
%ADD30R,1.8000X1.2000*%
%ADD37R,0.7500X1.0000*%
%ADD38R,1.1000X2.0500*%
%ADD52R,0.7000X1.3000*%
%ADD53R,0.5000X0.4000*%
%ADD54R,0.4000X0.5000*%
%ADD80C,0.9910*%
%ADD82C,0.7500*%
%ADD86C,0.1500*%
%ADD88C,0.1500*%
%ADD89C,1.4500*%
%ADD90C,4.0000*%
G04:AMPARAMS|DCode=91|XSize=1.524mm|YSize=2mm|CornerRadius=0.381mm|HoleSize=0mm|Usage=FLASHONLY|Rotation=0.000|XOffset=0mm|YOffset=0mm|HoleType=Round|Shape=RoundedRectangle|*
%AMROUNDEDRECTD91*
21,1,1.5240,1.2380,0,0,0.0*
21,1,0.7620,2.0000,0,0,0.0*
1,1,0.7620,0.3810,-0.6190*
1,1,0.7620,-0.3810,-0.6190*
1,1,0.7620,-0.3810,0.6190*
1,1,0.7620,0.3810,0.6190*
%
%ADD91ROUNDEDRECTD91*%
%ADD92C,1.2700*%
%ADD93R,1.7000X1.5000*%
%ADD94R,1.5000X1.7000*%
%ADD95R,1.6800X0.8000*%
%ADD96R,1.5000X1.6000*%
%ADD97R,1.4000X1.2900*%
%ADD98R,1.3000X1.2900*%
%ADD99R,0.8500X0.7000*%
%ADD100R,1.0000X0.7500*%
%ADD101R,1.4000X0.3800*%
%ADD102R,2.4000X1.9000*%
D17*
X210000Y345000D02*
D03*
X200000Y355000D02*
D03*
Y345000D02*
D03*
X190000Y355000D02*
D03*
Y345000D02*
D03*
D29*
X480500Y30000D02*
D03*
Y40000D02*
D03*
Y50000D02*
D03*
Y70000D02*
D03*
Y80000D02*
D03*
Y60000D02*
D03*
X480500Y415000D02*
D03*
Y395000D02*
D03*
Y405000D02*
D03*
Y125000D02*
D03*
Y135000D02*
D03*
Y145000D02*
D03*
Y165000D02*
D03*
Y175000D02*
D03*
Y155000D02*
D03*
D30*
X519250Y17000D02*
D03*
Y93000D02*
D03*
X519250Y382000D02*
D03*
Y428000D02*
D03*
Y112000D02*
D03*
Y188000D02*
D03*
D37*
X257500Y154999D02*
D03*
X272500D02*
D03*
X257500Y140000D02*
D03*
X272500D02*
D03*
D38*
X238500Y55000D02*
D03*
X271499D02*
D03*
D52*
X247999Y85000D02*
D03*
X266999D02*
D03*
D53*
X230000Y126000D02*
D03*
Y134000D02*
D03*
X230000Y98500D02*
D03*
Y106500D02*
D03*
X140000Y91000D02*
D03*
Y99000D02*
D03*
D54*
X241000Y115000D02*
D03*
X249000D02*
D03*
D80*
X40000Y39600D02*
D03*
X50160Y90400D02*
D03*
X29840D02*
D03*
D82*
X40000Y155000D02*
D03*
D86*
X198990Y319206D02*
G03*
X193382Y328275I-9635J310D01*
G01*
X413412Y214140D02*
G03*
X410395Y220028I-9567J-1185D01*
G01*
X321511Y73405D02*
G03*
X321959Y72595I8650J4255D01*
G01*
X322068Y78825D02*
G03*
X317932Y87964I-9568J1175D01*
G01*
X369477Y63464D02*
G03*
X371286Y71120I-7660J5852D01*
G01*
X303860Y108878D02*
G03*
X305723Y108980I407J9631D01*
G01*
X226112Y301831D02*
G03*
X225882Y302261I-8612J-4331D01*
G01*
X400046Y348499D02*
G03*
X397614Y350672I-7546J-5999D01*
G01*
X436817Y214528D02*
G03*
X435178Y216662I-11187J-6893D01*
G01*
X434943Y205145D02*
G03*
X432603Y214292I-9313J2491D01*
G01*
X158573Y381137D02*
G03*
X159054Y372853I8928J-3637D01*
G01*
X146832Y391857D02*
G03*
X146901Y391550I9358J1953D01*
G01*
X181166Y234563D02*
G03*
X184570Y238016I-4942J8277D01*
G01*
X160080Y225215D02*
G03*
X156055Y213785I5059J-8206D01*
G01*
X220893Y268736D02*
G03*
X223130Y272195I-5893J6264D01*
G01*
X184125Y232341D02*
G03*
X185490Y233524I-7901J10499D01*
G01*
X164265Y248389D02*
G03*
X163481Y257321I-8893J3720D01*
G01*
X153051Y222161D02*
G03*
X152316Y214144I12088J-5151D01*
G01*
X140646Y296960D02*
G03*
X134949Y293493I1854J-9460D01*
G01*
X154239Y379091D02*
G03*
X155645Y371445I12491J-1655D01*
G01*
X125615Y164519D02*
G03*
X125598Y164535I-2483J-2467D01*
G01*
X131281Y248894D02*
G03*
X127193Y245655I3719J-8894D01*
G01*
X190259Y440750D02*
G03*
X190735Y440554I800J1269D01*
G01*
X154256Y440552D02*
G03*
X154740Y440749I-316J1466D01*
G01*
X99085Y260529D02*
G03*
X98610Y261050I-6586J-5530D01*
G01*
X191663Y440314D02*
G03*
X190735Y440554I-2853J-9124D01*
G01*
X179256Y440552D02*
G03*
X179740Y440750I-316J1466D01*
G01*
X229256Y440552D02*
G03*
X229740Y440750I-316J1466D01*
G01*
X254256Y440552D02*
G03*
X254740Y440749I-316J1466D01*
G01*
X154256Y440552D02*
G03*
X153339Y440314I1934J-9362D01*
G01*
X215259Y440749D02*
G03*
X215735Y440554I800J1269D01*
G01*
X100933Y263677D02*
G03*
X100932Y263678I-1060J-1062D01*
G01*
X141662Y440314D02*
G03*
X140735Y440554I-2852J-9125D01*
G01*
X129256Y440552D02*
G03*
X128230Y440280I1934J-9362D01*
G01*
X100926Y263684D02*
G03*
X99156Y265105I-8426J-8684D01*
G01*
X240259Y440750D02*
G03*
X240735Y440554I800J1269D01*
G01*
X101097Y257981D02*
G03*
X100998Y258252I-8598J-2982D01*
G01*
X166635Y440323D02*
G03*
X167080Y440250I462J1427D01*
G01*
X268107Y435462D02*
G03*
X263810Y437249I-4297J-4273D01*
G01*
X266634Y440323D02*
G03*
X267080Y440250I462J1427D01*
G01*
X266634Y440323D02*
G03*
X265735Y440554I-2825J-9133D01*
G01*
X101349Y252880D02*
G03*
X101097Y257981I-8850J2119D01*
G01*
X254256Y440552D02*
G03*
X253339Y440314I1934J-9362D01*
G01*
X216635Y440323D02*
G03*
X215735Y440554I-2825J-9133D01*
G01*
X100829Y258454D02*
G03*
X100824Y258459I-1149J-964D01*
G01*
X229256Y440552D02*
G03*
X228347Y440317I1934J-9362D01*
G01*
X204256Y440552D02*
G03*
X203339Y440314I1934J-9362D01*
G01*
X166635Y440323D02*
G03*
X165735Y440554I-2825J-9133D01*
G01*
X179256Y440552D02*
G03*
X178347Y440317I1934J-9362D01*
G01*
X216635Y440323D02*
G03*
X217080Y440250I462J1427D01*
G01*
X204256Y440552D02*
G03*
X204740Y440749I-316J1466D01*
G01*
X241662Y440314D02*
G03*
X240735Y440554I-2853J-9124D01*
G01*
X98471Y261190D02*
G03*
X97245Y262173I-5971J-6190D01*
G01*
X129256Y440552D02*
G03*
X129740Y440750I-316J1466D01*
G01*
X140259Y440750D02*
G03*
X140735Y440554I800J1269D01*
G01*
X165260Y440749D02*
G03*
X165735Y440554I800J1269D01*
G01*
X265259Y440749D02*
G03*
X265735Y440554I800J1269D01*
G01*
X172990Y314607D02*
G03*
X162461Y329300I-7990J5393D01*
G01*
X150130Y393810D02*
G03*
X150467Y391816I6060J0D01*
G01*
X269624Y364403D02*
G03*
X264934Y364292I-2124J-9403D01*
G01*
X313158Y237651D02*
G03*
X313289Y240971I-12958J2177D01*
G01*
X321068Y287655D02*
G03*
X302198Y288481I-9350J2345D01*
G01*
X309637Y237863D02*
G03*
X309719Y241346I-9438J1964D01*
G01*
X316935Y302059D02*
G03*
X305460Y301554I-5218J-12060D01*
G01*
X461732Y198634D02*
G03*
X460759Y199570I-9582J-8991D01*
G01*
X396500Y351369D02*
G03*
X396233Y351631I-6500J-6369D01*
G01*
X459861Y195428D02*
G03*
X458282Y197081I-7711J-5785D01*
G01*
X351368Y212321D02*
G03*
X352353Y221946I-11661J6057D01*
G01*
X338463Y271430D02*
G03*
X338545Y270880I9037J1070D01*
G01*
X355187Y212275D02*
G03*
X355827Y222506I-15480J6103D01*
G01*
X319054Y272027D02*
G03*
X318999Y270978I9584J-1035D01*
G01*
X437585Y47275D02*
G03*
X437452Y45872I12997J-1935D01*
G01*
X439271Y36786D02*
G03*
X437165Y34928I5259J-8079D01*
G01*
X359018Y212659D02*
G03*
X359423Y222485I-19311J5719D01*
G01*
X348064Y213573D02*
G03*
X346331Y225381I-8357J4805D01*
G01*
X283541Y43669D02*
G03*
X291806Y45407I2349J9350D01*
G01*
X331391Y108426D02*
G03*
X331091Y108455I-1391J-13066D01*
G01*
X274049Y110888D02*
G03*
X278102Y109970I4106J8722D01*
G01*
X331457Y104889D02*
G03*
X329990Y105000I-1457J-9529D01*
G01*
X322417Y167140D02*
G03*
X321792Y167114I83J-9640D01*
G01*
X332488Y152578D02*
G03*
X326164Y167172I-5886J6117D01*
G01*
X298347Y183524D02*
G03*
X303075Y185214I-768J9609D01*
G01*
X298655Y180038D02*
G03*
X304963Y182265I-1075J13096D01*
G01*
X344179Y208906D02*
G03*
X345231Y209720I-5027J7586D01*
G01*
X233928Y178488D02*
G03*
X235855Y178468I1062J9581D01*
G01*
X233867Y178495D02*
G03*
X233928Y178488I1124J9574D01*
G01*
X361615Y265938D02*
G03*
X361615Y269153I-9505J1606D01*
G01*
X233636Y174999D02*
G03*
X236161Y174981I1355J13070D01*
G01*
X235196Y171430D02*
G03*
X235363Y171433I-206J16639D01*
G01*
X80628Y49620D02*
G03*
X76068Y31198I-628J-9620D01*
G01*
X110936Y47770D02*
G03*
X120365Y50312I-936J22230D01*
G01*
X108551Y47797D02*
G03*
X110936Y47770I1449J22203D01*
G01*
X437277Y42174D02*
G03*
X437306Y42211I-1166J944D01*
G01*
X441260Y47797D02*
G03*
X441723Y41539I9322J-2456D01*
G01*
X437132Y67711D02*
G03*
X433413Y82491I-22132J2289D01*
G01*
X437132Y67635D02*
G03*
X437132Y67633I1500J-0D01*
G01*
X455024Y72297D02*
G03*
X454956Y72296I-24J-9640D01*
G01*
X241662Y440314D02*
G03*
X242084Y440250I435J1436D01*
G01*
X202912D02*
G03*
X203339Y440314I-9J1500D01*
G01*
X181190Y437250D02*
G03*
X178779Y436750I0J-6060D01*
G01*
X166219D02*
G03*
X163810Y437249I-2409J-5561D01*
G01*
X92138Y388267D02*
G03*
X88250Y370310I17862J-13267D01*
G01*
X252912Y440250D02*
G03*
X253339Y440314I-9J1500D01*
G01*
X127426Y439978D02*
G03*
X122364Y434864I3763J-8788D01*
G01*
X128066Y440238D02*
G03*
X128230Y440280I-290J1472D01*
G01*
X131190Y437250D02*
G03*
X125387Y432938I0J-6060D01*
G01*
X141662Y440314D02*
G03*
X142085Y440250I436J1435D01*
G01*
X128066Y440238D02*
G03*
X127578Y440055I276J-1475D01*
G01*
X191663Y440314D02*
G03*
X192084Y440250I435J1436D01*
G01*
X152913D02*
G03*
X153339Y440314I-9J1500D01*
G01*
X231190Y437250D02*
G03*
X228779Y436750I0J-6060D01*
G01*
X84724Y379919D02*
G03*
X84750Y369950I25276J-4919D01*
G01*
X216219Y436750D02*
G03*
X213810Y437249I-2409J-5561D01*
G01*
X177910Y440250D02*
G03*
X178347Y440317I-9J1500D01*
G01*
X84724Y379919D02*
G03*
X84750Y380196I-1474J277D01*
G01*
X241220Y436750D02*
G03*
X238810Y437250I-2410J-5560D01*
G01*
X156190Y437249D02*
G03*
X153781Y436750I0J-6060D01*
G01*
X127426Y439978D02*
G03*
X127578Y440055I-600J1375D01*
G01*
X256190Y437249D02*
G03*
X253781Y436750I0J-6060D01*
G01*
X227910Y440250D02*
G03*
X228347Y440317I-9J1500D01*
G01*
X141220Y436750D02*
G03*
X138810Y437250I-2410J-5560D01*
G01*
X191220Y436750D02*
G03*
X188810Y437250I-2410J-5560D01*
G01*
X206190Y437249D02*
G03*
X203781Y436750I0J-6060D01*
G01*
X146832Y391857D02*
G03*
X146810Y391950I-1470J-297D01*
G01*
X146676Y392283D02*
G03*
X146630Y392360I-1314J-723D01*
G01*
X147001Y408828D02*
G03*
X146828Y408127I9189J-2637D01*
G01*
X147001Y408828D02*
G03*
X147058Y409229I-1443J408D01*
G01*
X146630Y407640D02*
G03*
X146828Y408127I-1269J800D01*
G01*
X151911Y410481D02*
G03*
X150130Y406190I4279J-4291D01*
G01*
X223757Y266650D02*
G03*
X223780Y266674I-8758J8350D01*
G01*
X223655Y266460D02*
G03*
X223757Y266650I-80387J43388D01*
G01*
X224573Y267599D02*
G03*
X226049Y270067I-9573J7401D01*
G01*
X226421Y271003D02*
G03*
X226443Y271066I-11421J3997D01*
G01*
X206023Y243468D02*
G03*
X206030Y243474I-62755J66381D01*
G01*
D02*
G03*
X223655Y266460I-62762J66375D01*
G01*
X224573Y267599D02*
G03*
X224386Y267281I1192J-911D01*
G01*
X226174Y270289D02*
G03*
X226049Y270067I1240J-843D01*
G01*
X129006Y43108D02*
G03*
X128984Y43092I871J-1221D01*
G01*
X130311Y39686D02*
G03*
X128270Y39000I879J-5996D01*
G01*
X128788Y42949D02*
G03*
X128777Y42940I874J-1219D01*
G01*
D02*
G03*
X127478Y42500I2414J-9250D01*
G01*
X304205Y97825D02*
G03*
X304184Y97825I-0J-1500D01*
G01*
X305611Y97041D02*
G03*
X305684Y96575I19513J2825D01*
G01*
X305270Y97381D02*
G03*
X305261Y97390I-1065J-1056D01*
G01*
X155903Y282719D02*
G03*
X156992Y278178I9097J-219D01*
G01*
X271473Y235094D02*
G03*
X272284Y230643I9077J-644D01*
G01*
X122520Y245828D02*
G03*
X123190Y252625I-7520J4172D01*
G01*
X155135Y288834D02*
G03*
X153571Y291015I-7686J-3859D01*
G01*
X121693Y163304D02*
G03*
X123132Y162052I8307J8096D01*
G01*
X184823Y332210D02*
X193382Y328275D01*
X154813Y355590D02*
X173742Y337884D01*
X184823Y332210D01*
X198199Y294622D02*
X198990Y319206D01*
X432557Y177015D02*
Y193087D01*
X417500Y190000D02*
Y200602D01*
X432557Y177015D02*
X434610Y174961D01*
X432557Y193087D02*
X434314Y194845D01*
X396687Y221414D02*
X417500Y200602D01*
X413910Y212452D02*
X414215Y212148D01*
X413578Y212799D02*
X413910Y212452D01*
X383929Y244540D02*
X410395Y220028D01*
X413412Y214140D02*
X413578Y212799D01*
X383050Y245418D02*
X383929Y244540D01*
X383050Y239432D02*
X396687Y221414D01*
X383050Y245418D02*
Y261432D01*
X414215Y212148D02*
X425630Y207635D01*
X395775Y183615D02*
Y189225D01*
X401890Y177500D02*
X403561D01*
X395775Y183615D02*
X401890Y177500D01*
X403561Y176439D02*
Y177500D01*
Y176439D02*
X425000Y155000D01*
X391804Y193197D02*
X395775Y189225D01*
X321511Y73770D02*
X321511Y74286D01*
X306029Y96230D02*
X306489Y95770D01*
X317932Y87964D01*
X321511Y73405D02*
Y73770D01*
X305684Y96575D02*
X306029Y96230D01*
X321511Y74286D02*
X322068Y78825D01*
X332500Y59875D02*
Y60000D01*
X332425Y59800D02*
X332500Y59875D01*
X321959Y72595D02*
X332500Y60000D01*
X324948Y46698D02*
X340333D01*
X315598Y49390D02*
X324948Y46698D01*
X278102Y109970D02*
X303860Y108878D01*
X364638Y104483D02*
X365000Y104121D01*
X364619Y104502D02*
X364638Y104483D01*
X364664Y57164D02*
X369477Y63464D01*
X305723Y108980D02*
X312247Y109974D01*
X365000Y104121D02*
X371286Y71120D01*
X345767Y102011D02*
X348068Y69471D01*
X348071Y69419D01*
X340333Y46698D02*
X341027Y47393D01*
X348071Y69129D01*
Y69419D01*
X226113Y301830D02*
X227500Y299072D01*
X195119Y331489D02*
X212729Y324229D01*
X156240Y370341D02*
X179844Y341841D01*
X182968Y338534D02*
X186152Y335710D01*
X180763Y340740D02*
X182968Y338534D01*
X159743Y371605D02*
X184219Y342242D01*
X179844Y341841D02*
X180763Y340740D01*
X212729Y324229D02*
X214462Y322496D01*
X185476Y341336D02*
X187602Y339210D01*
X192752Y338495D02*
X193017Y338248D01*
X187602Y339210D02*
X190258Y339210D01*
X184418Y342034D02*
X185476Y341336D01*
X184219Y342242D02*
X184262Y342190D01*
X215236Y321044D02*
X225882Y302261D01*
X190258Y339210D02*
X192752Y338495D01*
X184262Y342190D02*
X184418Y342034D01*
X193017Y338248D02*
X196500Y334989D01*
X226112Y301831D02*
X226113Y301830D01*
X186152Y335710D02*
X195119Y331489D01*
X363810Y418810D02*
X367520Y416000D01*
X360000Y425000D02*
X363810Y418810D01*
X397607Y350676D02*
X397614Y350672D01*
X367520Y416000D02*
X373500Y410020D01*
X370000Y354750D02*
X371500Y347000D01*
X373500Y410020D02*
X375130Y407683D01*
Y358628D02*
Y407683D01*
X400046Y348499D02*
X405000Y342284D01*
X366070Y412500D02*
X370000Y408571D01*
Y354750D02*
Y408571D01*
X396500Y351369D02*
X397607Y350676D01*
X405866Y242298D02*
Y244134D01*
X436817Y214528D02*
X452150Y189643D01*
X409435Y244088D02*
X409529Y243792D01*
X405866Y242298D02*
X432603Y214292D01*
X434314Y194845D02*
Y202793D01*
X409529Y243792D02*
X435178Y216662D01*
X434314Y202793D02*
X434943Y205145D01*
X159054Y372853D02*
X159743Y371605D01*
X184366Y222990D02*
X206023Y243468D01*
X182730Y213640D02*
X183912Y222536D01*
X184366Y222990D01*
X158573Y381137D02*
X158589Y381179D01*
X159073Y382352D01*
X171175Y301325D02*
X171533Y301165D01*
X146646Y326520D02*
X146967Y390994D01*
X187162Y270000D02*
Y276433D01*
X146901Y391550D02*
X146967Y390994D01*
X171533Y301165D02*
X180776Y297740D01*
X186283Y277312D02*
X187162Y276433D01*
X166994Y283260D02*
X186283Y277312D01*
X218150Y323410D02*
Y323758D01*
X214462Y322496D02*
X214650Y322308D01*
X227500Y277500D02*
Y299072D01*
X159073Y382352D02*
X160955Y385289D01*
X218150Y323410D02*
X231000Y300522D01*
Y276050D02*
Y300522D01*
X214650Y322308D02*
X215236Y321044D01*
X166377Y306123D02*
X171175Y301325D01*
X180586Y261620D02*
X180586Y262839D01*
X171538Y251375D02*
X176224Y242840D01*
X184570Y238016D02*
X187162Y242500D01*
X160080Y225215D02*
X167838Y230000D01*
X187162Y242500D02*
Y250650D01*
X180000Y261969D02*
X180586Y261620D01*
X185490Y233524D02*
X220893Y268736D01*
X180586Y261620D02*
X186412Y255466D01*
X175394Y225770D02*
X184125Y232341D01*
X156073Y213736D02*
X157181Y210656D01*
X171111Y252075D02*
X171538Y251375D01*
X167838Y230000D02*
X173524D01*
X186412Y251400D02*
Y255466D01*
X165140Y217010D02*
X175394Y225770D01*
X173524Y230000D02*
X181166Y234563D01*
X180586Y262839D02*
X187162Y270000D01*
X156055Y213785D02*
X156073Y213736D01*
X157181Y210656D02*
X165338Y202500D01*
X153051Y222161D02*
X164265Y248389D01*
X153339Y209549D02*
X153699Y209189D01*
X163888Y199000D01*
X152316Y214144D02*
X153339Y209549D01*
X140646Y296960D02*
X143379Y297500D01*
X147162D01*
X142500Y287500D02*
X163481Y257321D01*
X117500Y271621D02*
X117936Y272057D01*
X134949Y293493D01*
X143544Y253699D02*
X155241Y251977D01*
X142721Y253699D02*
X143544Y253699D01*
X156992Y278178D02*
X171111Y252075D01*
X131281Y248894D02*
X142721Y253699D01*
X155645Y371445D02*
X156240Y370341D01*
X124809Y242364D02*
X127193Y245655D01*
X124581Y165552D02*
X125586Y164548D01*
X125624Y164509D02*
X127751Y162382D01*
X125615Y164519D02*
X125624Y164509D01*
X125586Y164548D02*
X125598Y164535D01*
X113873Y250110D02*
Y250673D01*
X101055Y263555D02*
X101764Y262846D01*
Y262781D02*
X113873Y250673D01*
X101048Y263563D02*
X101055Y263555D01*
X101764Y262781D02*
Y262846D01*
X101048Y263563D02*
X101048D01*
X140735Y440554D02*
X140735Y440554D01*
X215735Y440554D02*
X215735Y440554D01*
X87043Y268629D02*
X87444D01*
X240735Y440554D02*
X240735Y440554D01*
X100829Y258454D02*
X100998Y258252D01*
X88378Y272391D02*
X88925Y271844D01*
X99085Y260529D02*
X100824Y258459D01*
X254740Y440749D02*
X265259Y440749D01*
X190735Y440554D02*
X190735Y440554D01*
X129740Y440750D02*
X140259Y440750D01*
X265735Y440554D02*
X265735Y440554D01*
X154740Y440749D02*
X165260Y440749D01*
X87444Y268629D02*
X97245Y262173D01*
X267080Y440250D02*
X274750D01*
X268107Y435462D02*
X272756Y430814D01*
X100926Y263684D02*
X100932Y263678D01*
X100933Y263677D02*
X101048Y263563D01*
X98471Y261190D02*
X98610Y261050D01*
X229740Y440750D02*
X240259Y440750D01*
X101328Y252790D02*
X101349Y252880D01*
X165735Y440554D02*
X165735Y440554D01*
X217080Y440250D02*
X227910D01*
X97500Y237500D02*
X101328Y252790D01*
X167080Y440250D02*
X177910D01*
X204740Y440749D02*
X215259Y440749D01*
X88925Y271844D02*
X99156Y265105D01*
X179740Y440750D02*
X190259Y440750D01*
X147010Y308919D02*
X158298D01*
X146425Y309503D02*
X147010Y308919D01*
X147085Y325452D02*
X148328Y325452D01*
X148767Y325561D02*
X162461Y329300D01*
X167255Y308245D02*
X169672Y309691D01*
X148328Y325452D02*
X148767Y325561D01*
X169672Y309691D02*
X172990Y314607D01*
X158298Y308919D02*
X159176Y309798D01*
X165000Y320000D01*
X146646Y325891D02*
X147085Y325452D01*
X220920Y377500D02*
X223512Y374907D01*
X167500Y377500D02*
X220920D01*
X154239Y379091D02*
X156190Y393810D01*
X151116Y359287D02*
X154813Y355590D01*
X160955Y385289D02*
X161611Y385946D01*
X181190Y393810D01*
X223512Y374907D02*
X240420Y358000D01*
X146646Y325891D02*
X146646Y326520D01*
X150819Y359585D02*
X151116Y359287D01*
X156190Y393810D02*
X160000Y400000D01*
X150467Y391816D02*
X150819Y359585D01*
X181190Y393810D02*
X185000Y400000D01*
X274390Y363326D02*
X296647Y358406D01*
X210000Y345000D02*
X261257D01*
X269624Y364403D02*
X274390Y363326D01*
X240420Y358000D02*
X242146D01*
X264934Y364292D01*
X262180Y345879D02*
X267500Y355000D01*
X261301Y345000D02*
X262180Y345879D01*
X261257Y345000D02*
X261301Y345000D01*
X300119Y298662D02*
X305460Y301554D01*
X310000Y278622D02*
X313289Y240971D01*
X310000Y281893D02*
X311717Y290000D01*
X320305Y304618D02*
X320323Y304600D01*
X280166Y275919D02*
X300119Y298662D01*
X319444Y305479D02*
X320305Y304618D01*
X274846Y225107D02*
X278537Y215951D01*
X316935Y302059D02*
X319161Y301097D01*
X272284Y230643D02*
X274846Y225107D01*
X319054Y272027D02*
X320544Y285565D01*
X310721Y223145D02*
X313158Y237651D01*
X310000Y279848D02*
Y280650D01*
X310000Y281893D01*
X310000Y278622D02*
Y279848D01*
X310379Y221621D02*
X310721Y223145D01*
X319161Y301097D02*
X346715Y300785D01*
X320544Y285565D02*
X321068Y287655D01*
X285000Y202500D02*
X306818Y224318D01*
X309637Y237863D01*
X302198Y288481D02*
X309719Y241346D01*
X315006Y312541D02*
X319444Y305479D01*
X271601Y236847D02*
X280166Y275919D01*
X346715Y300785D02*
X347148Y300352D01*
X361750Y285750D01*
X320323Y304600D02*
X359121D01*
X345000Y355000D02*
X347500D01*
X335000Y365000D02*
X345000Y355000D01*
X460638Y199675D02*
X460759Y199570D01*
X371500Y347000D02*
X378250Y342500D01*
X405000Y269967D02*
Y342284D01*
X461732Y198634D02*
X478194Y181124D01*
X378250Y342500D02*
X392500D01*
X473500Y177250D02*
X480500Y175000D01*
X454068Y205250D02*
X460638Y199675D01*
X401497Y268522D02*
X449250Y205118D01*
X459861Y195428D02*
X473500Y177250D01*
X478194Y181124D02*
X479068Y180250D01*
X452618Y201750D02*
X458282Y197081D01*
X449250Y205118D02*
X452618Y201750D01*
X436000Y238967D02*
X452750Y206568D01*
X390050Y283838D02*
X401497Y268522D01*
X452750Y206568D02*
X454068Y205250D01*
X405000Y269967D02*
X435835Y239132D01*
X436000Y238967D01*
X390050Y284321D02*
Y286332D01*
Y284321D02*
X390050Y283838D01*
X319039Y251244D02*
Y253069D01*
X351021Y206078D02*
X351099Y211149D01*
X303075Y185214D02*
X334960Y207369D01*
X353109Y258242D02*
X354764Y226654D01*
X347236Y211528D02*
X347569Y211864D01*
X338545Y270880D02*
X352353Y221946D01*
X347130Y211422D02*
X347236Y211528D01*
X335494Y207903D02*
X339707Y218378D01*
X319918Y250366D02*
X346331Y225381D01*
X354761Y211193D02*
X355187Y212275D01*
X318999Y270978D02*
X319039Y253069D01*
X351099Y211149D02*
X351368Y212321D01*
X358039Y249724D02*
X358250Y228118D01*
X358039Y249724D02*
Y250964D01*
X319039Y251244D02*
X319918Y250366D01*
X354600Y209715D02*
X354609Y209883D01*
X358109Y209592D02*
X359018Y212659D01*
X437306Y42211D02*
X437452Y45872D01*
X354764Y226654D02*
X355826Y222506D01*
X352110Y267544D02*
X353109Y258242D01*
X354609Y209883D02*
X354761Y211193D01*
X426172Y21929D02*
X437165Y34928D01*
X358250Y228118D02*
X359423Y222485D01*
X334960Y207369D02*
X335494Y207903D01*
X347569Y211864D02*
X348064Y213573D01*
X354600Y205588D02*
Y209715D01*
X358920Y168742D02*
X361950D01*
X312062Y173207D02*
X354454D01*
X358920Y168742D01*
X276249Y45500D02*
X283541Y43669D01*
X291806Y45407D02*
X299000Y51000D01*
X302500Y53750D01*
X271499Y55000D02*
X276249Y45500D01*
X364502Y104620D02*
X364517Y104604D01*
X312868Y109974D02*
X331091Y108455D01*
X345316Y102462D02*
X345767Y102011D01*
X265000Y103750D02*
X268500Y105000D01*
X344931Y102847D02*
X345316Y102462D01*
X364121Y105000D02*
X364502Y104620D01*
X268500Y105000D02*
X329990D01*
X312247Y109974D02*
X312868D01*
X331391Y108426D02*
X364121Y105000D01*
X331457Y104889D02*
X344931Y102847D01*
X268500Y113500D02*
X274049Y110888D01*
X265000Y116250D02*
X268500Y113500D01*
X326159Y167172D02*
X326164Y167172D01*
X316884Y149893D02*
X317531Y150540D01*
X277932Y133500D02*
X316884Y149893D01*
X322417Y167140D02*
X326159Y167172D01*
X317531Y150540D02*
X322500Y157500D01*
X272500Y141250D02*
X296503Y165253D01*
X321792Y167114D01*
X309051Y130000D02*
X309486Y130420D01*
X235363Y171433D02*
X312062Y173207D01*
X279382Y130000D02*
X309051D01*
X309486Y130420D02*
X332488Y152578D01*
X235855Y178468D02*
X237029Y178573D01*
X358250Y251882D02*
X359442Y253073D01*
X237351Y175088D02*
X298655Y180038D01*
X359442Y253073D02*
X361615Y265938D01*
X236161Y174981D02*
X237351Y175088D01*
X328639Y270992D02*
X335180Y277680D01*
X437585Y47275D02*
X437815Y48820D01*
X237029Y178573D02*
X237195Y178588D01*
X219361Y178776D02*
X222873Y178776D01*
X237195Y178588D02*
X298347Y183524D01*
X335180Y277680D02*
X335650Y278150D01*
X352954Y289121D02*
X360238Y277289D01*
X222873Y178776D02*
X233867Y178495D01*
X304963Y182265D02*
X344179Y208906D01*
X360238Y277289D02*
X361615Y269153D01*
X218734Y178776D02*
X219361Y178776D01*
X221443Y175275D02*
X233636Y174999D01*
X206038Y171070D02*
X235196Y171430D01*
X220816Y175276D02*
X221443Y175275D01*
X184879Y149911D02*
X206038Y171070D01*
X207138Y175178D02*
X220816Y175276D01*
X286450Y199000D02*
X288697Y199939D01*
X163888Y199000D02*
X286450D01*
X165338Y202500D02*
X285000D01*
X132500Y168750D02*
X136250Y165000D01*
X132500Y168750D02*
Y172500D01*
X124398Y165552D02*
X124581D01*
X118000Y172107D02*
X124055Y165894D01*
X118000Y172107D02*
Y232293D01*
X127751Y147817D02*
X139318Y136250D01*
X124055Y165894D02*
X124398Y165552D01*
X127751Y147817D02*
Y162382D01*
X140000Y65000D02*
Y90250D01*
Y65000D02*
X142500Y62500D01*
Y62000D02*
Y62500D01*
X140000Y90250D02*
X140625Y90875D01*
X89662Y42500D02*
X127478D01*
X82246Y28439D02*
X84577Y28657D01*
X80000Y40000D02*
X89662Y42500D01*
X76068Y31198D02*
X82246Y28439D01*
X80628Y49620D02*
X108551Y47797D01*
X364588Y104534D02*
X364619Y104502D01*
X450671Y45494D02*
X461639Y49825D01*
X439271Y36786D02*
X441241Y38069D01*
X441723Y41539D02*
X442173Y39493D01*
X418871Y15250D02*
X423243Y19000D01*
X444529Y28707D02*
X473500Y37750D01*
X397250Y15250D02*
X418871D01*
X450671Y45494D02*
Y45494D01*
X473500Y37750D02*
X480500Y40000D01*
X461639Y49825D02*
X462882D01*
X442120Y38948D02*
X442173Y39493D01*
X421172Y22500D02*
X422050Y23379D01*
X437277Y42174D01*
X441241Y38069D02*
X442120Y38948D01*
X423243Y19000D02*
X426172Y21929D01*
X415000Y22500D02*
X421172D01*
X442750Y71332D02*
Y72500D01*
X462882Y49825D02*
X463050Y49656D01*
X441260Y47797D02*
X442750Y71332D01*
X437815Y48820D02*
Y48849D01*
X437132Y67633D02*
X437132Y67608D01*
X437815Y48849D01*
X437132Y67635D02*
X437132Y67711D01*
X444871Y72250D02*
X454956Y72296D01*
X455024Y72296D02*
X473500Y72250D01*
X480500Y70000D01*
X443000Y72250D02*
X444871D01*
X469346Y53596D02*
X475750Y60000D01*
X468103Y53596D02*
X469346Y53596D01*
X442750Y72500D02*
X443000Y72250D01*
X455000Y62656D02*
X468103Y53596D01*
X469362Y390345D02*
X471095D01*
X452500Y380238D02*
Y402500D01*
Y380238D02*
X453869Y378869D01*
X471095Y390345D02*
X475750Y395000D01*
X470700Y50000D02*
X480500D01*
X470356Y49656D02*
X470700Y50000D01*
X463050Y49656D02*
X470356D01*
X351100Y204138D02*
X433413Y82491D01*
X124251Y140069D02*
X134570Y129750D01*
X155700D01*
X124251Y140069D02*
Y160933D01*
X119838Y124345D02*
Y143163D01*
X110001Y150501D02*
X112501D01*
X119838Y143163D01*
Y124345D02*
X124251Y119932D01*
X84750Y380196D02*
Y397250D01*
X156190Y437249D02*
X163810D01*
X272756Y414625D02*
Y430814D01*
X131190Y437250D02*
X138810D01*
X88250Y370310D02*
X88378Y272391D01*
X216219Y436750D02*
X228779D01*
X242084Y440250D02*
X252912D01*
X84750Y270921D02*
X87043Y268629D01*
X206190Y437249D02*
X213810D01*
X231190Y437250D02*
X238810D01*
X181190D02*
X188810D01*
X241220Y436750D02*
X253781D01*
X142085Y440250D02*
X152913D01*
X84750Y270921D02*
Y369950D01*
Y397250D02*
X122364Y434864D01*
X191220Y436750D02*
X203781D01*
X92138Y388267D02*
X125387Y432938D01*
X141220Y436750D02*
X153781D01*
X256190Y437249D02*
X263810D01*
X166219Y436750D02*
X178779D01*
X192084Y440250D02*
X202912D01*
X146676Y392283D02*
X146762Y392128D01*
X154179Y412749D02*
X166320D01*
X147058Y409229D02*
X147130Y423751D01*
X146762Y392128D02*
X146810Y391950D01*
X146630Y392360D02*
X146630Y407640D01*
X150130Y393810D02*
Y406190D01*
X151911Y410481D02*
X154179Y412749D01*
X147130Y423751D02*
X147569Y424191D01*
X148379Y425000D01*
X309939Y221182D02*
X310379Y221621D01*
X288697Y199939D02*
X309939Y221182D01*
X336893Y278150D02*
X337771Y277271D01*
X335650Y278150D02*
X336893D01*
X337771Y277271D02*
X338463Y271430D01*
X358250Y251174D02*
Y251882D01*
X363068Y251750D02*
X364750Y253250D01*
X358039Y250964D02*
X358250Y251174D01*
X361750Y250432D02*
X363068Y251750D01*
X361750Y229568D02*
Y250432D01*
X363068Y228250D02*
X364750Y227650D01*
X364750Y253250D02*
X370200Y256500D01*
X364750Y227650D02*
X371500Y220900D01*
X361750Y229568D02*
X363068Y228250D01*
X365409Y281750D02*
Y282091D01*
X361750Y284568D02*
X363068Y283250D01*
X364250D02*
X365409Y282091D01*
X343379Y290000D02*
X352075D01*
X361750Y284568D02*
Y285750D01*
X363068Y283250D02*
X364250D01*
X365409Y281750D02*
X372400Y278500D01*
X352075Y290000D02*
X352954Y289121D01*
X335650Y282271D02*
X343379Y290000D01*
X360000Y305479D02*
Y377682D01*
X359121Y304600D02*
X360000Y305479D01*
X381732Y262750D02*
X383050Y261432D01*
X380050Y242250D02*
X381732Y240750D01*
X383050Y239432D01*
X376800Y245500D02*
X380050Y242250D01*
X372400Y245500D02*
X376800D01*
X409366Y245584D02*
X409435Y244088D01*
X383050Y266950D02*
Y283432D01*
Y266950D02*
X405866Y244134D01*
X386550Y282388D02*
X409366Y245584D01*
X386550Y282388D02*
Y284882D01*
X380050Y263629D02*
Y264250D01*
X376800Y267500D02*
X380050Y264250D01*
Y263629D02*
X380929Y262750D01*
X381732D01*
X372400Y300500D02*
X380050Y297250D01*
X381732Y295750D01*
X372400Y289500D02*
X380050Y286250D01*
X381732Y284750D01*
X383050Y283432D01*
X389050Y287332D02*
Y310432D01*
Y287332D02*
X390050Y286332D01*
X383050Y294432D02*
X385550Y285882D01*
X381732Y295750D02*
X383050Y294432D01*
X385550Y285882D02*
X386550Y284882D01*
X226443Y271066D02*
X226669Y271719D01*
X231000Y276050D01*
X213229Y327936D02*
X213972D01*
X196500Y334989D02*
X213229Y327936D01*
X213972D02*
X218150Y323758D01*
X223780Y266674D02*
X224386Y267281D01*
X226174Y270289D02*
X226421Y271003D01*
X118000Y232293D02*
X121000Y235293D01*
X123194Y239810D02*
X123217Y239848D01*
X121000Y235840D02*
X123194Y239810D01*
X123217Y239848D02*
X124809Y242364D01*
X121000Y235293D02*
Y235840D01*
X128788Y42949D02*
X128984Y43092D01*
X147289Y51942D02*
X196704Y89204D01*
X145840Y55442D02*
X145926Y55528D01*
X129006Y43108D02*
X145840Y55442D01*
X130311Y39686D02*
X147289Y51942D01*
X84577Y28657D02*
X128270Y39000D01*
X196704Y89204D02*
X197500Y90000D01*
X145926Y55528D02*
X184879Y94847D01*
X168611Y142750D02*
X169490Y143629D01*
X177879Y152810D01*
X155700Y123250D02*
X161950Y124400D01*
X181379Y151360D02*
X205017Y174999D01*
X205536Y179053D02*
X206761D01*
X345231Y209720D02*
X347130Y211422D01*
X177879Y152810D02*
X203568Y178499D01*
X206761Y179053D02*
X218734Y178776D01*
X205017Y174999D02*
X205903Y175178D01*
X207138D01*
X163632Y125600D02*
X164950Y126918D01*
X203568Y178499D02*
X205536Y179053D01*
X161950Y124400D02*
X163632Y125600D01*
X164950Y126918D02*
X181379Y151360D01*
X155700Y142750D02*
X168611D01*
X258500Y126000D02*
X261750Y129250D01*
X267818Y132750D02*
X277182D01*
X261750Y129250D02*
X263632D01*
X278631D02*
X279382Y130000D01*
X252818Y132750D02*
X262182D01*
X262929Y133497D02*
X267071D01*
X264379Y129997D02*
X265621D01*
X263632Y129250D02*
X264379Y129997D01*
X265621D02*
X266368Y129250D01*
X267071Y133497D02*
X267818Y132750D01*
X251568Y134000D02*
X252818Y132750D01*
X262182D02*
X262929Y133497D01*
X277182Y132750D02*
X277932Y133500D01*
X266368Y129250D02*
X278631D01*
X231750Y97250D02*
X233135Y95866D01*
X233777D02*
X304184Y97825D01*
X233135Y95866D02*
X233777D01*
X230000Y98500D02*
X231750Y97250D01*
X304205Y97825D02*
X304826D01*
X305261Y97390D01*
X305270Y97381D02*
X305611Y97041D01*
X446611Y118305D02*
X473500Y91416D01*
X351021Y205327D02*
Y206078D01*
X473500Y82250D02*
X480500Y80000D01*
X354600Y205588D02*
X442750Y117437D01*
X473500Y82250D02*
Y91416D01*
X351021Y205327D02*
X351100Y204138D01*
X358114Y207023D02*
X446250Y118887D01*
X358109Y209592D02*
X358113Y207643D01*
X446250Y118887D02*
X446250Y118666D01*
X358113Y207643D02*
X358114Y207023D01*
X446250Y118666D02*
X446611Y118305D01*
X346870Y22060D02*
X358930Y10000D01*
X469371D02*
X473500Y14129D01*
X358930Y10000D02*
X469371D01*
X385000Y26776D02*
Y27500D01*
X391637Y20139D02*
X392361D01*
X385000Y26776D02*
X391637Y20139D01*
X392361D02*
X397250Y15250D01*
X186412Y251400D02*
X187162Y250650D01*
X155903Y282719D02*
X155903Y282747D01*
X155358Y287895D02*
X155903Y283386D01*
X155135Y288834D02*
X155358Y287895D01*
X155903Y283386D02*
X155903Y282747D01*
X287500Y379100D02*
Y397500D01*
X364561Y57061D02*
X364664Y57164D01*
X364561Y104561D02*
X364588Y104534D01*
X120365Y50312D02*
X120397Y50328D01*
X142500Y62000D01*
X197500Y90000D02*
Y105000D01*
X184879Y94847D02*
Y149911D01*
X335000Y27500D02*
X364561Y57061D01*
X364517Y104604D02*
X364561Y104561D01*
X479689Y180250D02*
X489182D01*
X479068Y180250D02*
X479689Y180250D01*
X386803Y193197D02*
X391804D01*
X378250Y201750D02*
X386803Y193197D01*
X271473Y235094D02*
X271601Y236847D01*
X117500Y270379D02*
Y271621D01*
Y270379D02*
X123190Y252625D01*
X117500Y236743D02*
X122520Y245828D01*
X117061Y236303D02*
X117500Y236743D01*
X166377Y307366D02*
X167255Y308245D01*
X166377Y306123D02*
X166377Y307366D01*
X147162Y297500D02*
X148041Y296621D01*
X153571Y291015D01*
X454490Y404490D02*
Y411990D01*
X452500Y402500D02*
X454490Y404490D01*
X475750Y395000D02*
X480500D01*
X389750Y357750D02*
X396233Y351631D01*
X376008Y357750D02*
X389750D01*
X272500Y141250D02*
Y154999D01*
X392500Y441621D02*
X505629D01*
X358051D02*
X392500D01*
Y442500D01*
Y436070D02*
Y441621D01*
X385000Y425000D02*
Y428570D01*
X392500Y436070D01*
X505629Y441621D02*
X519250Y428000D01*
X350130Y433700D02*
X358051Y441621D01*
X350130Y416300D02*
Y433700D01*
Y416300D02*
X353929Y412500D01*
X366070D01*
X114500Y233743D02*
X117061Y236303D01*
X190000Y345000D02*
X200000D01*
X210000D01*
X190000Y355000D02*
X200000D01*
X190000Y345000D02*
Y355000D01*
X378250Y201750D02*
Y214150D01*
X425000Y155000D02*
X430818D01*
X371750Y220650D02*
X378250Y214150D01*
X430818Y155000D02*
X443318Y142500D01*
X460000D01*
X223130Y272195D02*
X223624Y273624D01*
X211800Y110250D02*
X221994D01*
X230000Y134000D02*
X251568D01*
X272500Y140000D02*
Y141250D01*
X223624Y273624D02*
X227500Y277500D01*
X123132Y162052D02*
X124251Y160933D01*
X114500Y170684D02*
X121693Y163304D01*
X114500Y170684D02*
Y233743D01*
X335000Y365000D02*
Y400000D01*
X480500Y116662D02*
Y125000D01*
X475000Y111162D02*
X480500Y116662D01*
X475000Y110000D02*
Y111162D01*
X480500Y135000D02*
X485250D01*
X497500Y122750D01*
Y122500D02*
Y122750D01*
X285000Y400000D02*
X287500Y397500D01*
X454490Y411990D02*
X457500Y415000D01*
X480500D01*
Y145000D02*
X482750Y142750D01*
X499750D01*
X500000Y142500D01*
X280019Y429980D02*
X285000Y424999D01*
X280019Y429980D02*
Y434981D01*
X274750Y440250D02*
X280019Y434981D01*
X263750Y115000D02*
X265000Y116250D01*
X53814Y122764D02*
X55957Y120621D01*
X53814Y122764D02*
Y128657D01*
X52500Y129971D02*
X53814Y128657D01*
X52500Y129971D02*
Y172500D01*
X480500Y155000D02*
X519250D01*
Y188000D01*
Y112000D02*
Y155000D01*
X375130Y358628D02*
X376008Y357750D01*
X335650Y278150D02*
Y282271D01*
X520000Y188750D02*
Y215000D01*
X519250Y188000D02*
X520000Y188750D01*
X430818Y155000D02*
X480500D01*
X519250Y93000D02*
Y112000D01*
Y93000D02*
X519250Y93000D01*
X475750Y60000D02*
X480500D01*
X230000Y126000D02*
X258500D01*
X197500Y105000D02*
Y124121D01*
X198750Y103750D02*
X209300D01*
X197500Y105000D02*
X198750Y103750D01*
X208150Y124400D02*
X209300Y123250D01*
X200478Y124400D02*
X208150D01*
X199879Y125000D02*
X200478Y124400D01*
X198379Y125000D02*
X199879D01*
X197500Y124121D02*
X198379Y125000D01*
X110000Y70000D02*
Y72500D01*
X138750Y97750D02*
X140000Y99000D01*
X135250Y97750D02*
X138750D01*
X110000Y72500D02*
X135250Y97750D01*
X140500Y91000D02*
X140625Y90875D01*
X155575D01*
X140000Y91000D02*
X140500D01*
X136250Y165000D02*
X137500D01*
X271499Y55000D02*
Y77499D01*
X519250Y17000D02*
Y93000D01*
X520000Y215000D02*
Y350000D01*
X480500Y405000D02*
X493250D01*
X516250Y382000D01*
X519250D01*
Y350750D02*
Y382000D01*
Y350750D02*
X520000Y350000D01*
X519250Y382000D02*
Y428000D01*
X72500Y192500D02*
Y242500D01*
X52500Y172500D02*
X72500Y192500D01*
X381732Y317750D02*
X389050Y310432D01*
X372400Y267500D02*
X376800D01*
X139318Y136250D02*
X155700D01*
X361750Y337568D02*
X368258Y331060D01*
Y324258D02*
Y331060D01*
Y324258D02*
X374766Y317750D01*
X489182Y180250D02*
X490500Y178932D01*
X374766Y317750D02*
X381732D01*
X361750Y337568D02*
Y356432D01*
X490500Y170250D02*
Y178932D01*
X360000Y377682D02*
X363000Y374682D01*
X361750Y356432D02*
X363000Y357682D01*
Y374682D01*
X485250Y165000D02*
X490500Y170250D01*
X360000Y377682D02*
Y400000D01*
X480500Y165000D02*
X485250D01*
X442750Y72500D02*
Y117437D01*
X473500Y14129D02*
Y27750D01*
X475750Y30000D02*
X480500D01*
X473500Y27750D02*
X475750Y30000D01*
X335000Y27500D02*
X340440Y22060D01*
X346870D01*
X410000Y27500D02*
X415000Y22500D01*
X272756Y414625D02*
X285000Y402380D01*
Y400000D02*
Y402380D01*
X166320Y412749D02*
X173131Y419560D01*
X179560D02*
X185000Y425000D01*
X173131Y419560D02*
X179560D01*
X159999Y425000D02*
X160000Y424999D01*
X148379Y425000D02*
X159999D01*
X210000Y27500D02*
Y28224D01*
X203363Y34861D02*
X210000Y28224D01*
X202639Y34861D02*
X203363D01*
X185000Y26776D02*
X191637Y20139D01*
X185000Y26776D02*
Y27500D01*
X191637Y20139D02*
X192361D01*
X143250Y149250D02*
X158200D01*
X124251Y111129D02*
Y119932D01*
Y111129D02*
X125130Y110250D01*
X155700D01*
X115751Y103750D02*
X155700D01*
X110001Y109500D02*
X115751Y103750D01*
X142251Y97250D02*
X155700D01*
X140500Y99000D02*
X142251Y97250D01*
X140000Y99000D02*
X140500D01*
X155575Y90875D02*
X155700Y90750D01*
X302500Y41250D02*
X303250D01*
X306000Y38500D01*
Y29000D02*
Y38500D01*
Y29000D02*
X307500Y27500D01*
X211800Y90750D02*
X216901D01*
X219251Y88400D01*
X219733D01*
X230069Y90750D02*
X245249D01*
X247999Y85000D02*
Y88000D01*
X245249Y90750D02*
X247999Y88000D01*
X266999Y82000D02*
X271499Y77499D01*
X266999Y82000D02*
Y85000D01*
X219733Y88400D02*
X238500Y69632D01*
Y55000D02*
Y69632D01*
X211800Y129750D02*
X225250D01*
X229500Y134000D02*
X230000D01*
X254751Y142750D02*
X257500Y140000D01*
X211800Y136250D02*
X227251D01*
X211800Y142750D02*
X254751D01*
X225250Y129750D02*
X229500Y134000D01*
X227251Y136250D02*
X229500Y134000D01*
X211800Y149250D02*
X253000D01*
X257500Y153750D01*
Y154999D01*
X137500Y150000D02*
X142500D01*
X143250Y149250D01*
X211800Y97249D02*
X223570D01*
X262250Y106500D02*
X265000Y103750D01*
X230000Y106500D02*
X262250D01*
X221200Y123250D02*
X223950Y126000D01*
X230000D01*
X249000Y115000D02*
X263750D01*
X211800Y123250D02*
X221200D01*
X239750Y116750D02*
X241000Y115499D01*
X211800Y116750D02*
X239750D01*
X241000Y115000D02*
Y115499D01*
X225743Y106500D02*
X230000D01*
X221994Y110250D02*
X225743Y106500D01*
X223570Y97249D02*
X230069Y90750D01*
X158075Y90875D02*
X158200Y90750D01*
D88*
X306029Y96230D02*
D03*
D89*
X72500Y242500D02*
D03*
Y192500D02*
D03*
D90*
X110000Y70000D02*
D03*
X415000Y375000D02*
D03*
Y70000D02*
D03*
X110000Y375000D02*
D03*
D91*
X385000Y425000D02*
D03*
X385000Y400000D02*
D03*
X360000D02*
D03*
X360000Y425000D02*
D03*
X334999Y424080D02*
D03*
X335000Y400000D02*
D03*
X310000D02*
D03*
X310000Y424999D02*
D03*
X285000D02*
D03*
Y400000D02*
D03*
X260000D02*
D03*
Y424999D02*
D03*
X235000Y425000D02*
D03*
X210000Y400000D02*
D03*
Y424999D02*
D03*
X185000Y425000D02*
D03*
X185000Y400000D02*
D03*
X160000D02*
D03*
Y424999D02*
D03*
X135000Y425000D02*
D03*
Y400000D02*
D03*
X410000Y27500D02*
D03*
X385000D02*
D03*
X360000D02*
D03*
X335000Y27500D02*
D03*
X307500D02*
D03*
X285000D02*
D03*
X260000D02*
D03*
X235000D02*
D03*
X185000D02*
D03*
X160000D02*
D03*
X135000D02*
D03*
X235000Y400000D02*
D03*
X210000Y27500D02*
D03*
D92*
X189355Y319517D02*
D03*
X434610Y174961D02*
D03*
X417500Y190000D02*
D03*
X401890Y177500D02*
D03*
X295308Y68004D02*
D03*
X312500Y80000D02*
D03*
X331632Y77482D02*
D03*
X332425Y59800D02*
D03*
X315598Y49390D02*
D03*
X361816Y69317D02*
D03*
X425630Y207635D02*
D03*
X182730Y213640D02*
D03*
X198199Y294622D02*
D03*
X166994Y283260D02*
D03*
X180776Y297740D02*
D03*
X217500Y297500D02*
D03*
X176224Y242840D02*
D03*
X180586Y261620D02*
D03*
X165140Y217010D02*
D03*
X155241Y251977D02*
D03*
X142500Y287500D02*
D03*
X139866Y266141D02*
D03*
X135000Y240000D02*
D03*
X113873Y250110D02*
D03*
X87500Y255000D02*
D03*
X125000Y337500D02*
D03*
X146425Y309503D02*
D03*
X165000Y320000D02*
D03*
X167500Y377500D02*
D03*
X267500Y355000D02*
D03*
X246815Y307523D02*
D03*
X260000Y250000D02*
D03*
X315006Y312541D02*
D03*
X278537Y215951D02*
D03*
X300199Y239827D02*
D03*
X311717Y290000D02*
D03*
X282500Y240000D02*
D03*
X312500Y335000D02*
D03*
X315007Y352522D02*
D03*
X296647Y358406D02*
D03*
X347500Y355000D02*
D03*
X392500Y342500D02*
D03*
X465000Y230000D02*
D03*
X452150Y189643D02*
D03*
X339707Y218378D02*
D03*
X361950Y168742D02*
D03*
X285889Y53018D02*
D03*
X330000Y95360D02*
D03*
X345000Y125000D02*
D03*
X304267Y118510D02*
D03*
X278155Y119610D02*
D03*
X322500Y157500D02*
D03*
X352110Y267544D02*
D03*
X328639Y270992D02*
D03*
X297580Y193134D02*
D03*
X234991Y188069D02*
D03*
X172500Y167500D02*
D03*
X132500Y172500D02*
D03*
X102500Y172500D02*
D03*
X67225Y167696D02*
D03*
X140000Y65000D02*
D03*
X80000Y40000D02*
D03*
X450671Y45494D02*
D03*
X444529Y28707D02*
D03*
X455000Y62656D02*
D03*
X487500Y202500D02*
D03*
X485000Y230000D02*
D03*
X463860Y257797D02*
D03*
X460015Y275075D02*
D03*
X505000Y260000D02*
D03*
X461092Y312002D02*
D03*
X447510Y300652D02*
D03*
X464873Y294621D02*
D03*
X453869Y378869D02*
D03*
X469362Y390345D02*
D03*
X287500Y379100D02*
D03*
X77500Y120000D02*
D03*
X497500Y277500D02*
D03*
X462484Y122516D02*
D03*
X97500Y237500D02*
D03*
X150000Y180000D02*
D03*
X475000Y110000D02*
D03*
X497500Y122500D02*
D03*
X500000Y142500D02*
D03*
X55957Y120621D02*
D03*
X460000Y142500D02*
D03*
X70000Y350000D02*
D03*
X102500Y337500D02*
D03*
X217500Y60000D02*
D03*
X197500D02*
D03*
D93*
X520000Y350000D02*
D03*
Y215000D02*
D03*
D94*
X371500Y347000D02*
D03*
D95*
X372400Y256500D02*
D03*
Y234500D02*
D03*
Y245500D02*
D03*
Y267500D02*
D03*
Y278500D02*
D03*
Y289500D02*
D03*
Y300500D02*
D03*
Y311500D02*
D03*
D96*
X371500Y220400D02*
D03*
D97*
X462000Y213950D02*
D03*
D98*
X388000D02*
D03*
D99*
X265000Y116250D02*
D03*
Y103750D02*
D03*
X302500Y53750D02*
D03*
Y41250D02*
D03*
D100*
X137500Y150000D02*
D03*
Y165000D02*
D03*
D101*
X209300Y110250D02*
D03*
Y136250D02*
D03*
Y129750D02*
D03*
X155700Y77750D02*
D03*
Y84250D02*
D03*
Y155750D02*
D03*
Y162250D02*
D03*
X209300D02*
D03*
Y155750D02*
D03*
Y84250D02*
D03*
Y77750D02*
D03*
Y90750D02*
D03*
Y97250D02*
D03*
Y103750D02*
D03*
Y116750D02*
D03*
Y123250D02*
D03*
Y142750D02*
D03*
Y149250D02*
D03*
X155700D02*
D03*
Y142750D02*
D03*
Y136250D02*
D03*
Y129750D02*
D03*
Y123250D02*
D03*
Y116750D02*
D03*
Y110250D02*
D03*
Y103750D02*
D03*
Y97250D02*
D03*
Y90750D02*
D03*
D102*
X110001Y109500D02*
D03*
Y150501D02*
D03*
M02*
