G04*
G04 #@! TF.GenerationSoftware,Altium Limited,Altium Designer,23.4.1 (23)*
G04*
G04 Layer_Color=16711935*
%FSLAX44Y44*%
%MOMM*%
G71*
G04*
G04 #@! TF.SameCoordinates,9DE4E05F-C8E7-4F3F-A45E-6430895F1302*
G04*
G04*
G04 #@! TF.FilePolarity,Negative*
G04*
G01*
G75*
%ADD41R,0.7500X1.0000*%
%ADD42R,1.1000X2.0500*%
%ADD52R,0.7000X1.3000*%
%ADD53R,0.5000X0.4000*%
%ADD66R,1.7532X0.8032*%
%ADD67R,2.0032X1.4032*%
%ADD77C,1.6532*%
%ADD78C,1.1942*%
%ADD79C,0.7500*%
%ADD80C,4.2032*%
G04:AMPARAMS|DCode=81|XSize=1.7272mm|YSize=2.2032mm|CornerRadius=0.4826mm|HoleSize=0mm|Usage=FLASHONLY|Rotation=0.000|XOffset=0mm|YOffset=0mm|HoleType=Round|Shape=RoundedRectangle|*
%AMROUNDEDRECTD81*
21,1,1.7272,1.2380,0,0,0.0*
21,1,0.7620,2.2032,0,0,0.0*
1,1,0.9652,0.3810,-0.6190*
1,1,0.9652,-0.3810,-0.6190*
1,1,0.9652,-0.3810,0.6190*
1,1,0.9652,0.3810,0.6190*
%
%ADD81ROUNDEDRECTD81*%
%ADD82C,1.4732*%
%ADD105R,1.3500X0.9500*%
%ADD113R,1.0000X0.7500*%
%ADD114R,0.4000X0.5000*%
%ADD115R,1.4000X0.3800*%
%ADD116R,2.4000X1.9000*%
%ADD117R,1.8832X1.0032*%
%ADD118R,1.5032X1.4932*%
%ADD119R,1.6032X1.4932*%
%ADD120R,1.7032X1.8032*%
%ADD121R,1.9032X1.7032*%
%ADD122R,1.7032X1.9032*%
%ADD123R,1.0532X0.9032*%
D41*
X257500Y154999D02*
D03*
X272500D02*
D03*
X257500Y140000D02*
D03*
X272500D02*
D03*
D42*
X238500Y55000D02*
D03*
X271499D02*
D03*
D52*
X247999Y85000D02*
D03*
X266999D02*
D03*
D53*
X230000Y126000D02*
D03*
Y134000D02*
D03*
X230000Y98500D02*
D03*
Y106500D02*
D03*
X140000Y91000D02*
D03*
Y99000D02*
D03*
D66*
X480500Y30000D02*
D03*
Y40000D02*
D03*
Y50000D02*
D03*
Y70000D02*
D03*
Y80000D02*
D03*
Y60000D02*
D03*
X480500Y415000D02*
D03*
Y395000D02*
D03*
Y405000D02*
D03*
Y125000D02*
D03*
Y135000D02*
D03*
Y145000D02*
D03*
Y165000D02*
D03*
Y175000D02*
D03*
Y155000D02*
D03*
D67*
X519250Y17000D02*
D03*
Y93000D02*
D03*
X519250Y382000D02*
D03*
Y428000D02*
D03*
Y112000D02*
D03*
Y188000D02*
D03*
D77*
X41440Y193440D02*
D03*
Y243440D02*
D03*
D78*
X49022Y92456D02*
D03*
X38862Y41656D02*
D03*
X28702Y92456D02*
D03*
D79*
X40000Y155000D02*
D03*
D80*
X110000Y70000D02*
D03*
X415000Y375000D02*
D03*
Y70000D02*
D03*
X110000Y375000D02*
D03*
D81*
X385000Y425000D02*
D03*
X385000Y400000D02*
D03*
X360000D02*
D03*
X360000Y425000D02*
D03*
X334999Y424080D02*
D03*
X335000Y400000D02*
D03*
X310000D02*
D03*
X310000Y424999D02*
D03*
X285000D02*
D03*
Y400000D02*
D03*
X260000D02*
D03*
Y424999D02*
D03*
X235000Y425000D02*
D03*
X210000Y400000D02*
D03*
Y424999D02*
D03*
X185000Y425000D02*
D03*
X185000Y400000D02*
D03*
X160000D02*
D03*
Y424999D02*
D03*
X135000Y425000D02*
D03*
Y400000D02*
D03*
X410000Y27500D02*
D03*
X385000D02*
D03*
X360000D02*
D03*
X335000Y27500D02*
D03*
X307500D02*
D03*
X285000D02*
D03*
X260000D02*
D03*
X235000D02*
D03*
X185000D02*
D03*
X160000D02*
D03*
X135000D02*
D03*
X235000Y400000D02*
D03*
X210000Y27500D02*
D03*
D82*
X242570Y354330D02*
D03*
X257380Y367411D02*
D03*
X200056Y294622D02*
D03*
X218349Y296624D02*
D03*
X242471Y307860D02*
D03*
X218374Y319514D02*
D03*
X288290Y381000D02*
D03*
X59690Y365760D02*
D03*
X177550Y370116D02*
D03*
X176224Y244140D02*
D03*
X182884Y263043D02*
D03*
X135167Y241018D02*
D03*
X378460Y50800D02*
D03*
X73660Y353060D02*
D03*
X53340Y347980D02*
D03*
X110490Y26670D02*
D03*
X39370Y107950D02*
D03*
X442500Y310000D02*
D03*
X461017Y311896D02*
D03*
X140000Y265000D02*
D03*
X270000Y355000D02*
D03*
X295933Y357860D02*
D03*
X315000Y355000D02*
D03*
X144456Y68039D02*
D03*
X113097Y249460D02*
D03*
X315575Y314617D02*
D03*
X165080Y214964D02*
D03*
X331780Y77488D02*
D03*
X339743Y217618D02*
D03*
X278178Y215961D02*
D03*
X285889Y53840D02*
D03*
X297260Y67974D02*
D03*
X434610Y174894D02*
D03*
X344553Y125000D02*
D03*
X427140Y204901D02*
D03*
X330000Y95107D02*
D03*
X466594Y230983D02*
D03*
X183501Y213636D02*
D03*
X346371Y272556D02*
D03*
X297644Y190239D02*
D03*
X454982Y62656D02*
D03*
X450670Y45490D02*
D03*
X487500Y202500D02*
D03*
X141834Y286835D02*
D03*
X311717Y291837D02*
D03*
X140360Y317487D02*
D03*
X150000Y180000D02*
D03*
X132500Y172500D02*
D03*
X79459Y39459D02*
D03*
X315640Y51615D02*
D03*
X453964Y378149D02*
D03*
X463908Y401079D02*
D03*
X444529Y28707D02*
D03*
X278140Y119610D02*
D03*
X304267Y118510D02*
D03*
X320986Y157774D02*
D03*
X361950Y168742D02*
D03*
X417500Y190000D02*
D03*
X76725Y120105D02*
D03*
X172500Y167500D02*
D03*
X361816Y69317D02*
D03*
X401890Y177500D02*
D03*
X312500Y80000D02*
D03*
X332425Y59800D02*
D03*
X166994Y283260D02*
D03*
X180776Y297740D02*
D03*
X155241Y251977D02*
D03*
X87500Y255000D02*
D03*
X125000Y337500D02*
D03*
X260000Y250000D02*
D03*
X300199Y239827D02*
D03*
X282500Y240000D02*
D03*
X312500Y335000D02*
D03*
X347500Y355000D02*
D03*
X392500Y342500D02*
D03*
X452150Y189643D02*
D03*
X328639Y270992D02*
D03*
X234991Y188069D02*
D03*
X102500Y172500D02*
D03*
X67225Y167696D02*
D03*
X485000Y230000D02*
D03*
X463860Y257797D02*
D03*
X460015Y275075D02*
D03*
X505000Y260000D02*
D03*
X464873Y294621D02*
D03*
X497500Y277500D02*
D03*
X462484Y122516D02*
D03*
X97500Y237500D02*
D03*
X475000Y110000D02*
D03*
X497500Y122500D02*
D03*
X500000Y142500D02*
D03*
X55957Y120621D02*
D03*
X460000Y142500D02*
D03*
X102500Y337500D02*
D03*
X217500Y60000D02*
D03*
X197500D02*
D03*
D105*
X74930Y83940D02*
D03*
Y98940D02*
D03*
X76200Y153550D02*
D03*
Y138550D02*
D03*
D113*
X137500Y150000D02*
D03*
Y165000D02*
D03*
D114*
X241000Y115000D02*
D03*
X249000D02*
D03*
D115*
X209300Y110250D02*
D03*
Y136250D02*
D03*
Y129750D02*
D03*
X155700Y77750D02*
D03*
Y84250D02*
D03*
Y155750D02*
D03*
Y162250D02*
D03*
X209300D02*
D03*
Y155750D02*
D03*
Y84250D02*
D03*
Y77750D02*
D03*
Y90750D02*
D03*
Y97250D02*
D03*
Y103750D02*
D03*
Y116750D02*
D03*
Y123250D02*
D03*
Y142750D02*
D03*
Y149250D02*
D03*
X155700D02*
D03*
Y142750D02*
D03*
Y136250D02*
D03*
Y129750D02*
D03*
Y123250D02*
D03*
Y116750D02*
D03*
Y110250D02*
D03*
Y103750D02*
D03*
Y97250D02*
D03*
Y90750D02*
D03*
D116*
X110001Y109500D02*
D03*
Y150501D02*
D03*
D117*
X372400Y311500D02*
D03*
Y300500D02*
D03*
Y289500D02*
D03*
Y278500D02*
D03*
Y267500D02*
D03*
Y245500D02*
D03*
Y234500D02*
D03*
Y256500D02*
D03*
D118*
X388000Y213950D02*
D03*
D119*
X462000D02*
D03*
D120*
X371500Y220400D02*
D03*
D121*
X520000Y215000D02*
D03*
Y350000D02*
D03*
D122*
X371500Y347000D02*
D03*
D123*
X265000Y116250D02*
D03*
Y103750D02*
D03*
X302500Y53750D02*
D03*
Y41250D02*
D03*
M02*
