G04*
G04 #@! TF.GenerationSoftware,Altium Limited,Altium Designer,23.4.1 (23)*
G04*
G04 Layer_Physical_Order=3*
G04 Layer_Color=36540*
%FSLAX44Y44*%
%MOMM*%
G71*
G04*
G04 #@! TF.SameCoordinates,0D17D4F2-5808-4921-BEB8-74D3ABB9EEF9*
G04*
G04*
G04 #@! TF.FilePolarity,Positive*
G04*
G01*
G75*
%ADD15C,0.5000*%
%ADD73C,0.7500*%
%ADD77C,0.1500*%
G04:AMPARAMS|DCode=78|XSize=1.524mm|YSize=2mm|CornerRadius=0.381mm|HoleSize=0mm|Usage=FLASHONLY|Rotation=0.000|XOffset=0mm|YOffset=0mm|HoleType=Round|Shape=RoundedRectangle|*
%AMROUNDEDRECTD78*
21,1,1.5240,1.2380,0,0,0.0*
21,1,0.7620,2.0000,0,0,0.0*
1,1,0.7620,0.3810,-0.6190*
1,1,0.7620,-0.3810,-0.6190*
1,1,0.7620,-0.3810,0.6190*
1,1,0.7620,0.3810,0.6190*
%
%ADD78ROUNDEDRECTD78*%
%ADD79C,1.4500*%
%ADD80C,1.5240*%
%ADD81C,0.6000*%
D15*
X85000Y87500D02*
D03*
X75000D02*
D03*
X65000D02*
D03*
X85000Y97500D02*
D03*
X75000D02*
D03*
X65000D02*
D03*
X85000Y107500D02*
D03*
X75000D02*
D03*
X65000D02*
D03*
D73*
X377000Y230000D02*
D03*
X375000Y195000D02*
D03*
D77*
X344894Y194526D02*
Y209392D01*
Y224498D01*
X134328Y55334D02*
X142202Y47460D01*
X134328Y55334D02*
Y216878D01*
X121120Y230086D02*
X134328Y216878D01*
X121120Y230086D02*
Y262936D01*
X118072Y265984D02*
X121120Y262936D01*
X304508Y154140D02*
X344894Y194526D01*
X193213Y103043D02*
Y122329D01*
X197574Y126690D01*
X192028Y202203D02*
X197574Y196657D01*
X192028Y225354D02*
X203078Y236404D01*
X197574Y251000D02*
Y325336D01*
X192028Y202203D02*
Y225354D01*
X203078Y236404D02*
Y245496D01*
X189954Y99784D02*
X193213Y103043D01*
X197574Y126690D02*
Y196657D01*
Y251000D02*
X203078Y245496D01*
X152700Y50678D02*
X165824Y37554D01*
X149398Y148128D02*
Y158628D01*
X157612Y166842D01*
Y309250D01*
X174376Y326014D01*
X231732Y77644D02*
X264376Y45000D01*
X231732Y77644D02*
Y99489D01*
X229771Y101451D02*
X231732Y99489D01*
X229771Y101451D02*
Y175284D01*
X220096Y184958D02*
X229771Y175284D01*
X220096Y184958D02*
Y209342D01*
X217894Y211544D02*
X220096Y209342D01*
X175016Y174412D02*
X181656Y167772D01*
Y80818D02*
Y167772D01*
Y80818D02*
X215000Y47474D01*
Y15000D02*
Y47474D01*
X125000Y331616D02*
Y355000D01*
Y331616D02*
X128232Y328384D01*
Y278854D02*
Y328384D01*
Y278854D02*
X146012Y261074D01*
X167094Y164046D02*
Y178392D01*
X170650Y181948D01*
X180424D01*
X185806Y187330D01*
Y295448D01*
X183350Y297904D02*
X185806Y295448D01*
X183350Y297904D02*
Y324320D01*
X189954Y330924D01*
X211284D01*
X225000Y344640D01*
Y355000D01*
X63462Y277076D02*
Y280124D01*
Y277076D02*
X126454Y214084D01*
X226784Y318224D02*
X232880Y312128D01*
Y142964D02*
Y312128D01*
Y142964D02*
X256756Y119088D01*
Y63462D02*
Y119088D01*
Y63462D02*
X269710Y50508D01*
Y23214D02*
Y50508D01*
X265000Y18504D02*
X269710Y23214D01*
X265000Y15000D02*
Y18504D01*
X225000Y376644D02*
Y380000D01*
Y376644D02*
X236606Y365038D01*
Y175646D02*
Y365038D01*
Y175646D02*
X265732Y146520D01*
X272188D01*
X284920Y159252D01*
Y169412D01*
X200000Y380000D02*
Y390754D01*
X203670Y394424D01*
X231610D01*
X239606Y386428D01*
Y184244D02*
Y386428D01*
Y184244D02*
X269710Y154140D01*
X240000Y15000D02*
Y28410D01*
X228732Y39678D02*
X240000Y28410D01*
X228732Y39678D02*
Y94286D01*
X226530Y96489D02*
X228732Y94286D01*
X226530Y96489D02*
Y143218D01*
X209512Y160236D02*
X226530Y143218D01*
X209512Y160236D02*
Y241516D01*
X135090Y238468D02*
X138730Y234828D01*
Y103510D02*
Y234828D01*
Y103510D02*
X147452Y94788D01*
Y41448D02*
Y94788D01*
X140000Y33995D02*
X147452Y41448D01*
X140000Y15000D02*
Y33995D01*
X152700Y50678D02*
Y144826D01*
X149398Y148128D02*
X152700Y144826D01*
X177508Y44666D02*
X179032Y43142D01*
X177508Y44666D02*
Y116802D01*
X174714Y119596D02*
X177508Y116802D01*
X392138Y43904D02*
Y228780D01*
X312128Y308790D02*
X392138Y228780D01*
X312128Y308790D02*
Y366992D01*
X313906Y368770D01*
X325000D01*
Y380000D01*
X290000Y15000D02*
Y164332D01*
X284920Y169412D02*
X290000Y164332D01*
X158204Y117707D02*
Y120696D01*
Y117707D02*
X173190Y102721D01*
Y31810D02*
Y102721D01*
Y31810D02*
X190000Y15000D01*
X75000Y344748D02*
Y355000D01*
X58128Y327876D02*
X75000Y344748D01*
X58128Y238976D02*
Y327876D01*
Y238976D02*
X128994Y168110D01*
X978Y93180D02*
Y242278D01*
X-6388Y249644D02*
X978Y242278D01*
X-6388Y249644D02*
Y298920D01*
X19774Y325082D01*
X30950Y85814D02*
Y298158D01*
X50508Y212306D02*
X79972Y182842D01*
Y72352D02*
Y182842D01*
Y72352D02*
X94450Y57874D01*
X85501Y150271D02*
X88608Y153378D01*
X85501Y124481D02*
Y150271D01*
Y124481D02*
X95720Y114262D01*
Y77686D02*
Y114262D01*
Y77686D02*
X115000Y58406D01*
Y33744D02*
Y58406D01*
D78*
X325000Y355000D02*
D03*
X300000D02*
D03*
X275000D02*
D03*
X250000D02*
D03*
X225000D02*
D03*
X200000D02*
D03*
X175000D02*
D03*
X150000D02*
D03*
X125000D02*
D03*
X90000Y15000D02*
D03*
X165000D02*
D03*
X340000D02*
D03*
X315000D02*
D03*
X290000D02*
D03*
X265000D02*
D03*
X240000D02*
D03*
X215000D02*
D03*
X65000D02*
D03*
X190000D02*
D03*
X115000D02*
D03*
X140000D02*
D03*
X75000Y380000D02*
D03*
X100000D02*
D03*
X125000D02*
D03*
X150000D02*
D03*
X100000Y355000D02*
D03*
X75000D02*
D03*
X200000Y380000D02*
D03*
X175000D02*
D03*
X225000D02*
D03*
X250000D02*
D03*
X275000D02*
D03*
X300000D02*
D03*
X325000D02*
D03*
D79*
X358000Y90000D02*
D03*
Y140000D02*
D03*
D80*
X45000Y355000D02*
D03*
X355000D02*
D03*
Y45000D02*
D03*
X45000D02*
D03*
D81*
X47206Y79972D02*
D03*
X142202Y47460D02*
D03*
X118072Y265984D02*
D03*
X133566Y317208D02*
D03*
X38018Y275000D02*
D03*
X344894Y209392D02*
D03*
X257264Y144488D02*
D03*
X2480Y50000D02*
D03*
X167602Y216116D02*
D03*
X197574Y325336D02*
D03*
X189954Y99784D02*
D03*
X165824Y37554D02*
D03*
X127724Y232118D02*
D03*
X93180Y141186D02*
D03*
X202908Y45936D02*
D03*
X207480Y126434D02*
D03*
X223990Y244056D02*
D03*
X175891Y333464D02*
D03*
X186906Y86068D02*
D03*
X38824Y230340D02*
D03*
X123914Y273774D02*
D03*
X195288Y242786D02*
D03*
X194526Y45936D02*
D03*
X363436Y171158D02*
D03*
X1232Y250152D02*
D03*
X200622Y210473D02*
D03*
X369024Y128000D02*
D03*
X346650Y127216D02*
D03*
X264376Y45000D02*
D03*
X217894Y211544D02*
D03*
X37808Y194272D02*
D03*
X145250Y276894D02*
D03*
X316618Y255232D02*
D03*
X140170Y279108D02*
D03*
X175016Y174412D02*
D03*
X277838Y217640D02*
D03*
X212730Y90906D02*
D03*
X349466Y187160D02*
D03*
X159728Y130010D02*
D03*
X154648Y153378D02*
D03*
X146012Y261074D02*
D03*
X151346Y250406D02*
D03*
X186906Y124168D02*
D03*
X167094Y164046D02*
D03*
X322034Y112738D02*
D03*
X178016Y190716D02*
D03*
X265006Y320608D02*
D03*
X342862Y139916D02*
D03*
X170142Y194272D02*
D03*
X49388Y203416D02*
D03*
X102832Y180302D02*
D03*
X284755Y223410D02*
D03*
X63462Y280124D02*
D03*
X126454Y214084D02*
D03*
X188684Y314922D02*
D03*
X200622Y225768D02*
D03*
X200567Y210473D02*
D03*
X226784Y318224D02*
D03*
X269710Y154140D02*
D03*
X214846Y201892D02*
D03*
X215608Y225260D02*
D03*
X209512Y241516D02*
D03*
X135090Y238468D02*
D03*
X219164Y121882D02*
D03*
X174376Y326014D02*
D03*
X108674Y117056D02*
D03*
X123406Y34760D02*
D03*
X46444Y106134D02*
D03*
X36284Y292316D02*
D03*
X-16802Y368516D02*
D03*
X82004Y307048D02*
D03*
X179032Y43142D02*
D03*
X174714Y119596D02*
D03*
X67272Y246850D02*
D03*
X176619Y306413D02*
D03*
X166667Y124432D02*
D03*
X-8674Y374358D02*
D03*
X283680Y56604D02*
D03*
X200696Y84290D02*
D03*
X13932Y225768D02*
D03*
X2756Y357086D02*
D03*
X39586Y393916D02*
D03*
X284920Y169412D02*
D03*
X119342Y205194D02*
D03*
X160490Y97244D02*
D03*
X274282Y59144D02*
D03*
X113754Y90080D02*
D03*
X151092Y268694D02*
D03*
X315938Y263020D02*
D03*
X109842Y222307D02*
D03*
X344894Y224498D02*
D03*
X315938Y295110D02*
D03*
X304508Y154140D02*
D03*
X307810Y151092D02*
D03*
X108166Y74892D02*
D03*
X306540Y174714D02*
D03*
X226784Y196558D02*
D03*
X267932Y249136D02*
D03*
X212990Y315000D02*
D03*
X283426Y304000D02*
D03*
X301968Y190462D02*
D03*
X223482Y91402D02*
D03*
X290792Y183604D02*
D03*
X187668Y384772D02*
D03*
X277838Y203416D02*
D03*
X174206Y282664D02*
D03*
X470Y364706D02*
D03*
X158204Y120696D02*
D03*
X73700Y134504D02*
D03*
X187160Y43396D02*
D03*
X62500Y143726D02*
D03*
X169126Y114516D02*
D03*
X221958Y170396D02*
D03*
X128994Y168110D02*
D03*
X-22898Y190080D02*
D03*
X90132Y325590D02*
D03*
X978Y93180D02*
D03*
X19774Y325082D02*
D03*
X30950Y85814D02*
D03*
Y298158D02*
D03*
X254216Y267170D02*
D03*
X192240Y158458D02*
D03*
X-10452Y161760D02*
D03*
X122290Y316954D02*
D03*
X180302Y287733D02*
D03*
X324574Y94450D02*
D03*
X387402Y265672D02*
D03*
X311924Y224702D02*
D03*
X50508Y212306D02*
D03*
X94450Y57874D02*
D03*
X88608Y153378D02*
D03*
X115000Y33744D02*
D03*
X198590Y118834D02*
D03*
X377406Y63462D02*
D03*
X141440Y79718D02*
D03*
X305000Y233100D02*
D03*
X167856Y99784D02*
D03*
X328130Y126962D02*
D03*
X291808Y321526D02*
D03*
X221196Y74638D02*
D03*
X323558Y41618D02*
D03*
M02*
