G04*
G04 #@! TF.GenerationSoftware,Altium Limited,Altium Designer,23.4.1 (23)*
G04*
G04 Layer_Physical_Order=4*
G04 Layer_Color=16440176*
%FSLAX44Y44*%
%MOMM*%
G71*
G04*
G04 #@! TF.SameCoordinates,429B218C-89F6-4EF1-A614-2C282A8942F1*
G04*
G04*
G04 #@! TF.FilePolarity,Positive*
G04*
G01*
G75*
%ADD17C,0.5000*%
%ADD80C,0.9910*%
%ADD82C,0.7500*%
%ADD86C,0.1500*%
%ADD88C,0.1500*%
%ADD89C,1.4500*%
%ADD90C,4.0000*%
G04:AMPARAMS|DCode=91|XSize=1.524mm|YSize=2mm|CornerRadius=0.381mm|HoleSize=0mm|Usage=FLASHONLY|Rotation=0.000|XOffset=0mm|YOffset=0mm|HoleType=Round|Shape=RoundedRectangle|*
%AMROUNDEDRECTD91*
21,1,1.5240,1.2380,0,0,0.0*
21,1,0.7620,2.0000,0,0,0.0*
1,1,0.7620,0.3810,-0.6190*
1,1,0.7620,-0.3810,-0.6190*
1,1,0.7620,-0.3810,0.6190*
1,1,0.7620,0.3810,0.6190*
%
%ADD91ROUNDEDRECTD91*%
%ADD92C,1.2700*%
D17*
X210000Y345000D02*
D03*
X200000Y355000D02*
D03*
Y345000D02*
D03*
X190000Y355000D02*
D03*
Y345000D02*
D03*
D80*
X40000Y39600D02*
D03*
X50160Y90400D02*
D03*
X29840D02*
D03*
D82*
X40000Y155000D02*
D03*
D86*
X433864Y165350D02*
G03*
X443114Y170420I746J9611D01*
G01*
X399294Y168216D02*
G03*
X401144Y167889I2596J9284D01*
G01*
X404947Y226049D02*
G03*
X404238Y226089I-1102J-13094D01*
G01*
X493724Y234101D02*
G03*
X479465Y237893I-8724J-4101D01*
G01*
X403457Y203323D02*
G03*
X410728Y206206I388J9632D01*
G01*
X429409Y223840D02*
G03*
X426090Y224269I-3779J-16205D01*
G01*
X340174Y228007D02*
G03*
X339020Y227994I-467J-9629D01*
G01*
X429018Y220331D02*
G03*
X424673Y220740I-3388J-12696D01*
G01*
X429897Y216280D02*
G03*
X423620Y217063I-4267J-8644D01*
G01*
X404718Y222555D02*
G03*
X402300Y222470I-873J-9600D01*
G01*
X423620Y217063D02*
G03*
X418747Y214384I2010J-9428D01*
G01*
X364570Y178019D02*
G03*
X364235Y178107I-2619J-9277D01*
G01*
D02*
G03*
X361577Y178374I-2284J-9366D01*
G01*
X481757Y190681D02*
G03*
X500343Y199721I5743J11818D01*
G01*
X481684Y190717D02*
G03*
X481757Y190681I5816J11783D01*
G01*
X184583Y223100D02*
G03*
X179163Y222596I-1853J-9460D01*
G01*
X140283Y296882D02*
G03*
X132860Y287500I2217J-9382D01*
G01*
X179711Y307321D02*
G03*
X178283Y307053I1064J-9581D01*
G01*
X198145Y304483D02*
G03*
X193351Y303413I-367J-9633D01*
G01*
X240458Y298198D02*
G03*
X257946Y298374I8435J30842D01*
G01*
X221278Y306369D02*
G03*
X216132Y307042I-3778J-8869D01*
G01*
X198172Y304483D02*
G03*
X198385Y304498I0J1500D01*
G01*
X191620Y287361D02*
G03*
X192836Y286564I5880J7639D01*
G01*
X258175Y240534D02*
G03*
X264447Y241447I1825J9466D01*
G01*
X141849Y246784D02*
G03*
X141449Y247165I-6849J-6784D01*
G01*
X113924Y259750D02*
G03*
X113839Y259750I-52J-9640D01*
G01*
X279322Y249101D02*
G03*
X278037Y248545I3178J-9101D01*
G01*
X282714Y249638D02*
G03*
X279322Y249101I-214J-9638D01*
G01*
X300352Y249466D02*
G03*
X300293Y249467I-153J-9639D01*
G01*
X297650Y249492D02*
G03*
X295825Y249347I-150J-9639D01*
G01*
X279902Y225494D02*
G03*
X279147Y225572I-1365J-9543D01*
G01*
X270452Y210702D02*
G03*
X278943Y206320I8086J5249D01*
G01*
X313567Y280313D02*
G03*
X314518Y280578I-1967J8885D01*
G01*
X311000Y301785D02*
G03*
X312480Y301936I-177J9098D01*
G01*
X467412Y239333D02*
G03*
X458185Y236818I-2412J-9333D01*
G01*
X322402Y147860D02*
G03*
X322589Y147860I98J9639D01*
G01*
X297366Y202772D02*
G03*
X297159Y202765I214J-9638D01*
G01*
X464622Y62068D02*
G03*
X464618Y63313I-9622J588D01*
G01*
X477870Y202945D02*
G03*
X496949Y200588I9630J-446D01*
G01*
X496828Y235723D02*
G03*
X491698Y241305I-11828J-5723D01*
G01*
X456961Y289114D02*
G03*
X459874Y286379I7912J5508D01*
G01*
D02*
G03*
X459922Y286350I5000J8242D01*
G01*
X466543Y282168D02*
G03*
X464948Y283358I-6528J-7094D01*
G01*
X466338Y320090D02*
G03*
X460670Y321633I-5246J-8088D01*
G01*
X339656Y206406D02*
G03*
X341526Y206538I300J9095D01*
G01*
X508105Y213340D02*
G03*
X507812Y218343I-14505J1660D01*
G01*
X364570Y178019D02*
X399263Y168225D01*
X399294Y168216D01*
X445241Y173600D02*
X446400D01*
X443114Y170420D02*
X444320Y172680D01*
X401144Y167889D02*
X433864Y165350D01*
X444320Y172680D02*
X445241Y173600D01*
X364471Y216329D02*
X402300Y222470D01*
X392542Y202798D02*
X393421Y203677D01*
X410728Y206206D02*
X418747Y214384D01*
X340174Y228007D02*
X404238Y226089D01*
X393421Y203677D02*
X394664D01*
X403457Y203323D01*
X391712Y201968D02*
X392542Y202798D01*
X477880Y236788D02*
X479465Y237893D01*
X404718Y222555D02*
X424673Y220740D01*
X493724Y234101D02*
X493725Y234100D01*
X404947Y226049D02*
X426090Y224269D01*
X339839Y77661D02*
X356940Y60560D01*
X331810Y77661D02*
X339839D01*
X331632Y77482D02*
X331810Y77661D01*
X358786Y69317D02*
X361816D01*
X352854Y73576D02*
X354526D01*
X331070Y95360D02*
X352854Y73576D01*
X356940Y30560D02*
Y60560D01*
X354526Y73576D02*
X358786Y69317D01*
X429897Y216280D02*
X481684Y190717D01*
X446919Y219757D02*
X476861Y217569D01*
X429018Y220331D02*
X477234Y207520D01*
X477522Y207232D01*
X477995Y206759D01*
X429409Y223840D02*
X446919Y219757D01*
X262706Y222367D02*
X263258Y221815D01*
X270452Y210702D01*
X187886Y205052D02*
X194602Y198337D01*
X182730Y213640D02*
X187886Y205052D01*
X165140Y217010D02*
X179163Y222596D01*
X184583Y223100D02*
X262706Y222367D01*
X226510Y312520D02*
X234061Y312863D01*
X140283Y296882D02*
X178283Y307053D01*
X187120Y290862D02*
X191620Y287361D01*
X179711Y307321D02*
X226510Y312520D01*
X181982Y296000D02*
X187120Y290862D01*
X219062Y283309D02*
X220644Y282202D01*
X198199Y294622D02*
X219062Y283309D01*
X180776Y297740D02*
X181982Y296000D01*
X198145Y304483D02*
X198172D01*
X221278Y306369D02*
X240458Y298198D01*
X198385Y304498D02*
X216132Y307042D01*
X180246Y297280D02*
X181488Y297280D01*
X193351Y303413D01*
X132860Y284629D02*
Y287500D01*
X131590Y283750D02*
X131981Y283750D01*
X116250Y283750D02*
X131590D01*
X131981Y283750D02*
X132860Y284629D01*
X264447Y241447D02*
X264470Y241459D01*
X216416Y248584D02*
X258175Y240534D01*
X139866Y266141D02*
X147486Y269986D01*
X192500Y272500D02*
X216416Y248584D01*
X264470Y241459D02*
X278037Y248545D01*
X147486Y269986D02*
X148365Y270865D01*
X150000Y272500D01*
X127520Y259702D02*
X141449Y247165D01*
X136309Y231529D02*
X137188Y230650D01*
X161416Y227037D02*
X262919Y226600D01*
X141849Y246784D02*
X160537Y227915D01*
X161416Y227037D01*
X137188Y230650D02*
X218498Y149339D01*
X135000Y240000D02*
X136309Y231529D01*
X113924Y259750D02*
X127520Y259702D01*
X97200Y259700D02*
X99321Y259700D01*
X113839Y259750D01*
X87500Y255000D02*
X90531D01*
X94170Y258639D01*
X96139D01*
X97200Y259700D01*
X234061Y312863D02*
X239993D01*
X245333Y307523D01*
X246815D01*
X257946Y298374D02*
X266536Y300922D01*
X239313Y260868D02*
X260000Y250000D01*
X192836Y286563D02*
X239313Y260868D01*
X396703Y247934D02*
X397934D01*
X300352Y249466D02*
X396703Y247934D01*
X297650Y249492D02*
X300293Y249467D01*
X278943Y206320D02*
X297024Y207099D01*
X262919Y226600D02*
X279147Y225572D01*
X297024Y207099D02*
X297653Y207099D01*
X280869Y225356D02*
X280875Y225356D01*
X297653Y207099D02*
X298341Y207092D01*
X279902Y225494D02*
X280869Y225356D01*
X282714Y249638D02*
X295825Y249347D01*
X372333Y300054D02*
X372666Y300166D01*
X381103Y308603D01*
X240763Y264368D02*
X241548Y264368D01*
X312480Y301936D02*
X377584Y313988D01*
X266536Y300922D02*
X266739Y300926D01*
X311000Y301785D01*
X314518Y280578D02*
X372333Y300054D01*
X241548Y264368D02*
X313567Y280313D01*
X377584Y313988D02*
X378462Y314867D01*
X477259Y236788D02*
X477880Y236788D01*
X467412Y239333D02*
X477259Y236788D01*
X454555Y233187D02*
X458185Y236818D01*
X451821Y228300D02*
X454555Y233187D01*
X451021Y227500D02*
X451821Y228300D01*
X500343Y199721D02*
X504182Y217452D01*
X493725Y234100D02*
X499949Y220900D01*
X317412Y226600D02*
X317943Y226543D01*
X318711Y226543D02*
X339020Y227994D01*
X317943Y226543D02*
X318711Y226543D01*
X248461Y174039D02*
X249703D01*
X361577Y178374D01*
X330000Y95360D02*
X331070D01*
X116583Y120650D02*
X277115D01*
X278155Y119610D01*
X218938Y148900D02*
X322402Y147860D01*
X322589Y147860D02*
X434857Y148900D01*
X218498Y149339D02*
X218938Y148900D01*
X434857Y148900D02*
X436100D01*
X462500Y122500D01*
X397934Y247934D02*
X448963Y298963D01*
X323746Y203357D02*
X323768D01*
X195845Y198337D02*
X297159Y202765D01*
X297366Y202771D02*
X323746Y203357D01*
X194602Y198337D02*
X195845Y198337D01*
X234991Y187509D02*
X241322Y181178D01*
X234991Y187509D02*
Y188069D01*
X241322Y181178D02*
X248461Y174039D01*
X69536Y167696D02*
X116583Y120650D01*
X67225Y167696D02*
X69536D01*
X444529Y28707D02*
X453707D01*
X459122Y34122D01*
X459561Y34561D02*
X462745Y37745D01*
X463161Y38161D01*
X463180Y79073D02*
X463600Y78653D01*
X460000Y82254D02*
X463180Y79073D01*
X463161Y38161D02*
X464622Y62068D01*
X463600Y78653D02*
X464618Y63313D01*
X485461Y214029D02*
X487500Y202500D01*
X500700Y219093D02*
Y219715D01*
X504182Y217452D02*
X504200Y217470D01*
X484582Y214908D02*
X485461Y214029D01*
X477870Y202945D02*
X477995Y205516D01*
X483870Y215620D02*
X484582Y214908D01*
X477995Y205516D02*
Y206759D01*
X496949Y200588D02*
X500379Y217555D01*
X500700Y219093D01*
X503567Y221797D02*
X504200Y221164D01*
X496828Y235723D02*
X503567Y221797D01*
X463860Y257797D02*
X491698Y241305D01*
X499949Y220900D02*
X500700Y219715D01*
X451919Y274507D02*
X460015Y275075D01*
X466543Y282168D02*
X499405Y251929D01*
X459922Y286350D02*
X464948Y283358D01*
X499405Y251929D02*
X500107Y251227D01*
X450676Y274507D02*
X451919Y274507D01*
X500107Y251227D02*
X507700Y222614D01*
X220644Y282202D02*
X240763Y264368D01*
X451742Y311837D02*
X461092Y312002D01*
X466338Y320090D02*
X472838Y315874D01*
X378856Y315260D02*
X459288Y321572D01*
X449989Y298963D02*
X450868Y298084D01*
X450615Y311832D02*
X451742Y311837D01*
X459288Y321572D02*
X460670Y321633D01*
X447392Y300533D02*
X447510Y300652D01*
X448963Y298963D02*
X449989D01*
X453774Y293692D02*
X456961Y289114D01*
X447392Y300533D02*
X448963Y298963D01*
X472838Y315874D02*
X473600Y315112D01*
X450868Y298084D02*
X453774Y293692D01*
X464873Y294621D02*
X470066Y302651D01*
X381683Y308630D02*
X450615Y311832D01*
X470066Y302651D02*
X473600Y307987D01*
X316544Y226600D02*
X317412D01*
X391080Y201968D02*
X391684D01*
X325186Y206857D02*
X339656Y206406D01*
X323768Y203357D02*
X323789Y203356D01*
X339788Y202902D02*
X391080Y201968D01*
X339653Y202905D02*
X339679Y202904D01*
X339757Y202902D02*
X339788Y202902D01*
X298341Y207092D02*
X325186Y206857D01*
X391684Y201968D02*
X391712Y201968D01*
X339679Y202904D02*
X339757Y202902D01*
X323789Y203356D02*
X339653Y202905D01*
X341526Y206538D02*
X357472Y209331D01*
X378462Y314867D02*
X378856Y315260D01*
X381103Y308603D02*
X381683Y308630D01*
X490848Y304041D02*
X490884Y304006D01*
X447099Y345856D02*
X490848Y304041D01*
X490884Y304006D02*
X508600Y285713D01*
Y266631D02*
Y285713D01*
X473600Y307987D02*
Y315112D01*
X504200Y217470D02*
Y221164D01*
X507700Y222614D02*
X507812Y218343D01*
X280875Y225356D02*
X316544Y226600D01*
X287500Y379100D02*
X289100Y377500D01*
X381034D01*
X357472Y209331D02*
X357481Y209339D01*
X97200Y259700D02*
Y264700D01*
X116250Y283750D01*
X412678Y345856D02*
X447099D01*
X462500Y122500D02*
X462500D01*
X462484Y101040D02*
Y122484D01*
X462500Y122500D01*
X460000Y98556D02*
X462484Y101040D01*
X460000Y82254D02*
Y98556D01*
X459122Y34122D02*
X459561Y34561D01*
X357481Y209339D02*
X364471Y216329D01*
X450069Y273900D02*
X450676Y274507D01*
X505000Y260000D02*
Y263031D01*
X508600Y266631D01*
X381034Y377500D02*
X412678Y345856D01*
X356940Y30560D02*
X360000Y27500D01*
X476861Y217569D02*
X483870Y215620D01*
X500000Y142500D02*
X508105Y213340D01*
X448900Y229000D02*
Y273058D01*
X449779Y227500D02*
X451021D01*
X448900Y229000D02*
X448900Y228379D01*
X449779Y227500D01*
X446400Y173600D02*
X497500Y122500D01*
X452412Y15250D02*
X475000Y37838D01*
X328680Y15250D02*
X452412D01*
X312940Y22060D02*
X321870D01*
X475000Y37838D02*
Y110000D01*
X307500Y27500D02*
X312940Y22060D01*
X321870D02*
X328680Y15250D01*
X150000Y272500D02*
X192500D01*
X448900Y273058D02*
X449339Y273498D01*
X449339Y273498D02*
X449742Y273900D01*
X450069D01*
D88*
X449339Y273498D02*
D03*
D89*
X72500Y242500D02*
D03*
Y192500D02*
D03*
D90*
X110000Y70000D02*
D03*
X415000Y375000D02*
D03*
Y70000D02*
D03*
X110000Y375000D02*
D03*
D91*
X385000Y425000D02*
D03*
X385000Y400000D02*
D03*
X360000D02*
D03*
X360000Y425000D02*
D03*
X334999Y424080D02*
D03*
X335000Y400000D02*
D03*
X310000D02*
D03*
X310000Y424999D02*
D03*
X285000D02*
D03*
Y400000D02*
D03*
X260000D02*
D03*
Y424999D02*
D03*
X235000Y425000D02*
D03*
X210000Y400000D02*
D03*
Y424999D02*
D03*
X185000Y425000D02*
D03*
X185000Y400000D02*
D03*
X160000D02*
D03*
Y424999D02*
D03*
X135000Y425000D02*
D03*
Y400000D02*
D03*
X410000Y27500D02*
D03*
X385000D02*
D03*
X360000D02*
D03*
X335000Y27500D02*
D03*
X307500D02*
D03*
X285000D02*
D03*
X260000D02*
D03*
X235000D02*
D03*
X185000D02*
D03*
X160000D02*
D03*
X135000D02*
D03*
X235000Y400000D02*
D03*
X210000Y27500D02*
D03*
D92*
X189355Y319517D02*
D03*
X434610Y174961D02*
D03*
X417500Y190000D02*
D03*
X401890Y177500D02*
D03*
X295308Y68004D02*
D03*
X312500Y80000D02*
D03*
X331632Y77482D02*
D03*
X332425Y59800D02*
D03*
X315598Y49390D02*
D03*
X361816Y69317D02*
D03*
X425630Y207635D02*
D03*
X182730Y213640D02*
D03*
X198199Y294622D02*
D03*
X166994Y283260D02*
D03*
X180776Y297740D02*
D03*
X217500Y297500D02*
D03*
X176224Y242840D02*
D03*
X180586Y261620D02*
D03*
X165140Y217010D02*
D03*
X155241Y251977D02*
D03*
X142500Y287500D02*
D03*
X139866Y266141D02*
D03*
X135000Y240000D02*
D03*
X113873Y250110D02*
D03*
X87500Y255000D02*
D03*
X125000Y337500D02*
D03*
X146425Y309503D02*
D03*
X165000Y320000D02*
D03*
X167500Y377500D02*
D03*
X267500Y355000D02*
D03*
X246815Y307523D02*
D03*
X260000Y250000D02*
D03*
X315006Y312541D02*
D03*
X278537Y215951D02*
D03*
X300199Y239827D02*
D03*
X311717Y290000D02*
D03*
X282500Y240000D02*
D03*
X312500Y335000D02*
D03*
X315007Y352522D02*
D03*
X296647Y358406D02*
D03*
X347500Y355000D02*
D03*
X392500Y342500D02*
D03*
X465000Y230000D02*
D03*
X452150Y189643D02*
D03*
X339707Y218378D02*
D03*
X361950Y168742D02*
D03*
X285889Y53018D02*
D03*
X330000Y95360D02*
D03*
X345000Y125000D02*
D03*
X304267Y118510D02*
D03*
X278155Y119610D02*
D03*
X322500Y157500D02*
D03*
X352110Y267544D02*
D03*
X328639Y270992D02*
D03*
X297580Y193134D02*
D03*
X234991Y188069D02*
D03*
X172500Y167500D02*
D03*
X132500Y172500D02*
D03*
X102500Y172500D02*
D03*
X67225Y167696D02*
D03*
X140000Y65000D02*
D03*
X80000Y40000D02*
D03*
X450671Y45494D02*
D03*
X444529Y28707D02*
D03*
X455000Y62656D02*
D03*
X487500Y202500D02*
D03*
X485000Y230000D02*
D03*
X463860Y257797D02*
D03*
X460015Y275075D02*
D03*
X505000Y260000D02*
D03*
X461092Y312002D02*
D03*
X447510Y300652D02*
D03*
X464873Y294621D02*
D03*
X453869Y378869D02*
D03*
X469362Y390345D02*
D03*
X287500Y379100D02*
D03*
X77500Y120000D02*
D03*
X497500Y277500D02*
D03*
X462484Y122516D02*
D03*
X97500Y237500D02*
D03*
X150000Y180000D02*
D03*
X475000Y110000D02*
D03*
X497500Y122500D02*
D03*
X500000Y142500D02*
D03*
X55957Y120621D02*
D03*
X460000Y142500D02*
D03*
X70000Y350000D02*
D03*
X102500Y337500D02*
D03*
X217500Y60000D02*
D03*
X197500D02*
D03*
M02*
