G04*
G04 #@! TF.GenerationSoftware,Altium Limited,Altium Designer,23.4.1 (23)*
G04*
G04 Layer_Color=8421504*
%FSLAX44Y44*%
%MOMM*%
G71*
G04*
G04 #@! TF.SameCoordinates,3B5A73B4-8A0B-4212-871D-57366DFA46AC*
G04*
G04*
G04 #@! TF.FilePolarity,Positive*
G04*
G01*
G75*
%ADD11C,0.5000*%
%ADD14R,1.7500X1.0000*%
%ADD15C,0.5000*%
%ADD16R,0.5200X0.5200*%
%ADD17R,0.7500X1.0000*%
%ADD18R,0.5000X0.3500*%
%ADD19R,0.8000X0.9500*%
%ADD20R,0.9500X0.8500*%
%ADD21R,1.8000X0.6000*%
%ADD22R,1.4000X0.6000*%
%ADD23R,1.3500X0.4000*%
%ADD24R,1.9000X1.5000*%
%ADD25R,1.0500X0.9500*%
%ADD26R,0.8500X0.9500*%
%ADD27R,0.8000X0.3500*%
%ADD28R,0.3500X0.8500*%
%ADD29R,2.7000X2.6000*%
%ADD30R,1.2500X1.1000*%
%ADD31R,1.2084X1.0121*%
%ADD32R,0.4000X2.0000*%
G04:AMPARAMS|DCode=33|XSize=0.7311mm|YSize=0.3025mm|CornerRadius=0.1512mm|HoleSize=0mm|Usage=FLASHONLY|Rotation=90.000|XOffset=0mm|YOffset=0mm|HoleType=Round|Shape=RoundedRectangle|*
%AMROUNDEDRECTD33*
21,1,0.7311,0.0000,0,0,90.0*
21,1,0.4286,0.3025,0,0,90.0*
1,1,0.3025,0.0000,0.2143*
1,1,0.3025,0.0000,-0.2143*
1,1,0.3025,0.0000,-0.2143*
1,1,0.3025,0.0000,0.2143*
%
%ADD33ROUNDEDRECTD33*%
G04:AMPARAMS|DCode=34|XSize=0.3125mm|YSize=1.7883mm|CornerRadius=0.1562mm|HoleSize=0mm|Usage=FLASHONLY|Rotation=180.000|XOffset=0mm|YOffset=0mm|HoleType=Round|Shape=RoundedRectangle|*
%AMROUNDEDRECTD34*
21,1,0.3125,1.4758,0,0,180.0*
21,1,0.0000,1.7883,0,0,180.0*
1,1,0.3125,0.0000,0.7379*
1,1,0.3125,0.0000,0.7379*
1,1,0.3125,0.0000,-0.7379*
1,1,0.3125,0.0000,-0.7379*
%
%ADD34ROUNDEDRECTD34*%
%ADD35R,0.5000X0.4000*%
G04:AMPARAMS|DCode=36|XSize=1.7883mm|YSize=0.3125mm|CornerRadius=0.1562mm|HoleSize=0mm|Usage=FLASHONLY|Rotation=180.000|XOffset=0mm|YOffset=0mm|HoleType=Round|Shape=RoundedRectangle|*
%AMROUNDEDRECTD36*
21,1,1.7883,0.0000,0,0,180.0*
21,1,1.4758,0.3125,0,0,180.0*
1,1,0.3125,-0.7379,0.0000*
1,1,0.3125,0.7379,0.0000*
1,1,0.3125,0.7379,0.0000*
1,1,0.3125,-0.7379,0.0000*
%
%ADD36ROUNDEDRECTD36*%
%ADD37R,0.5200X0.5200*%
%ADD38R,0.9587X0.9121*%
%ADD39R,0.6000X1.8000*%
G04:AMPARAMS|DCode=40|XSize=1.9mm|YSize=3.2mm|CornerRadius=0mm|HoleSize=0mm|Usage=FLASHONLY|Rotation=180.000|XOffset=0mm|YOffset=0mm|HoleType=Round|Shape=Octagon|*
%AMOCTAGOND40*
4,1,8,0.4750,-1.6000,-0.4750,-1.6000,-0.9500,-1.1250,-0.9500,1.1250,-0.4750,1.6000,0.4750,1.6000,0.9500,1.1250,0.9500,-1.1250,0.4750,-1.6000,0.0*
%
%ADD40OCTAGOND40*%

%ADD41R,1.5500X0.6000*%
%ADD42R,0.7000X1.3000*%
%ADD43R,1.0121X1.2084*%
%ADD44R,1.8000X1.2000*%
%ADD45R,0.8000X1.7000*%
%ADD46R,0.8500X0.7000*%
%ADD47R,1.7883X0.3125*%
%ADD48R,0.9500X0.8000*%
%ADD49R,0.4500X0.4500*%
%ADD50R,1.9000X2.4000*%
%ADD51R,0.5000X0.6000*%
%ADD52R,6.8000X2.8400*%
%ADD53R,0.3025X0.7311*%
%ADD54R,0.6000X1.4000*%
%ADD55R,0.8500X0.7000*%
G36*
X419500Y114000D02*
X400500D01*
Y127000D01*
X419500D01*
Y114000D01*
D02*
G37*
G36*
X414500Y109000D02*
X405500Y109000D01*
Y114000D01*
X414500D01*
Y109000D01*
D02*
G37*
G36*
X414500Y186000D02*
X405500D01*
Y191000D01*
X414500Y191000D01*
Y186000D01*
D02*
G37*
G36*
X419500Y173000D02*
X400500D01*
Y186000D01*
X419500D01*
Y173000D01*
D02*
G37*
D11*
X408000Y114000D02*
G03*
X405500Y111500I-2500J-0D01*
G01*
X407928Y185404D02*
G03*
X408000Y186000I-2428J596D01*
G01*
X412688Y187722D02*
G03*
X412499Y187499I1812J-1723D01*
G01*
X412688Y187722D02*
G03*
X412499Y187499I1812J-1723D01*
G01*
X412754Y187790D02*
X412754Y187789D01*
X412754Y187790D02*
X412754Y187789D01*
X405500Y111500D02*
G03*
X407175Y112144I-0J2500D01*
G01*
X405500Y111500D02*
G03*
X407175Y112144I-0J2500D01*
G01*
X407175Y112144D02*
G03*
X408000Y114000I-1675J1856D01*
G01*
X407175Y112144D02*
G03*
X408000Y114000I-1675J1856D01*
G01*
Y114000D02*
G03*
X405500Y111500I-2500J-0D01*
G01*
X412690Y187724D02*
G03*
X412688Y187723I1810J-1724D01*
G01*
X412690Y187724D02*
G03*
X412688Y187723I1810J-1724D01*
G01*
X412752Y187788D02*
G03*
X412690Y187724I1748J-1788D01*
G01*
X412752Y187788D02*
G03*
X412690Y187724I1748J-1788D01*
G01*
X412754Y187789D02*
G03*
X412753Y187788I1746J-1789D01*
G01*
X412754Y187789D02*
G03*
X412753Y187788I1746J-1789D01*
G01*
X416927Y186600D02*
X416927Y186601D01*
X416927Y186600D02*
X416927Y186601D01*
X412000Y114000D02*
G03*
X417000Y114000I2500J-0D01*
G01*
X415407Y116330D02*
G03*
X413407Y116248I-907J-2330D01*
G01*
X413252Y116166D02*
G03*
X412984Y115988I1248J-2166D01*
G01*
X413252Y116166D02*
G03*
X412984Y115988I1248J-2166D01*
G01*
X413406Y116248D02*
G03*
X413252Y116166I1094J-2248D01*
G01*
X416630Y115309D02*
G03*
X415606Y116242I-2130J-1309D01*
G01*
X417000Y114000D02*
G03*
X416630Y115309I-2500J-0D01*
G01*
X415407Y116330D02*
G03*
X413407Y116248I-907J-2330D01*
G01*
X413406Y116248D02*
G03*
X413252Y116166I1094J-2248D01*
G01*
X417000Y114000D02*
G03*
X416630Y115309I-2500J-0D01*
G01*
D02*
G03*
X415606Y116242I-2130J-1309D01*
G01*
D02*
G03*
X415407Y116330I-1106J-2242D01*
G01*
X415606Y116242D02*
G03*
X415407Y116330I-1106J-2242D01*
G01*
X412000Y114005D02*
G03*
X412000Y114000I2500J-5D01*
G01*
Y114005D02*
G03*
X412000Y114000I2500J-5D01*
G01*
X412209Y185000D02*
X412209Y184999D01*
X412209Y185000D02*
X412209Y184999D01*
X412497Y187496D02*
G03*
X412209Y185000I2003J-1497D01*
G01*
X412209Y184999D02*
G03*
X416791Y185000I2291J1001D01*
G01*
X412209Y184999D02*
G03*
X416791Y185000I2291J1001D01*
G01*
X412209Y184999D02*
G03*
X416791Y185000I2291J1001D01*
G01*
X412497Y187496D02*
G03*
X412209Y185000I2003J-1497D01*
G01*
X412209Y184999D02*
G03*
X416791Y185000I2291J1001D01*
G01*
X416989Y186232D02*
G03*
X416927Y186600I-2489J-232D01*
G01*
X416989Y186232D02*
G03*
X416927Y186600I-2489J-232D01*
G01*
X416989Y186232D02*
G03*
X416927Y186600I-2489J-232D01*
G01*
X416989Y186232D02*
G03*
X416927Y186600I-2489J-232D01*
G01*
X412499Y187498D02*
G03*
X412497Y187497I2001J-1498D01*
G01*
X412499Y187498D02*
G03*
X412497Y187497I2001J-1498D01*
G01*
X412000Y114009D02*
G03*
X412000Y114005I2500J-9D01*
G01*
X412000Y114009D02*
G03*
X412000Y114005I2500J-9D01*
G01*
X412000Y114010D02*
Y114009D01*
Y114013D02*
G03*
X412000Y114010I2500J-14D01*
G01*
Y114010D02*
Y114009D01*
Y114013D02*
G03*
X412000Y114010I2500J-14D01*
G01*
X412000Y114032D02*
G03*
X412000Y114013I2500J-32D01*
G01*
X412000Y114032D02*
G03*
X412000Y114013I2500J-32D01*
G01*
X412009Y114210D02*
G03*
X412000Y114032I2491J-210D01*
G01*
X412058Y114536D02*
G03*
X412009Y114210I2442J-536D01*
G01*
X412058Y114536D02*
G03*
X412009Y114210I2442J-536D01*
G01*
X412333Y115247D02*
G03*
X412058Y114536I2166J-1247D01*
G01*
X412333Y115247D02*
G03*
X412058Y114536I2166J-1247D01*
G01*
X408000Y186000D02*
G03*
X403209Y185000I-2500J-0D01*
G01*
D02*
G03*
X407791Y185000I2291J1000D01*
G01*
D02*
G03*
X407928Y185404I-2291J1000D01*
G01*
X408000Y186000D02*
G03*
X403209Y185000I-2500J-0D01*
G01*
D02*
G03*
X407791Y185000I2291J1000D01*
G01*
D02*
G03*
X407928Y185404I-2291J1000D01*
G01*
X412984Y115988D02*
G03*
X412333Y115247I1516J-1988D01*
G01*
X412984Y115988D02*
G03*
X412333Y115247I1516J-1988D01*
G01*
X416791Y185000D02*
G03*
X416818Y185063I-2291J1000D01*
G01*
X416791Y185000D02*
G03*
X416818Y185063I-2291J1000D01*
G01*
X416791Y185000D02*
G03*
X416818Y185063I-2291J1000D01*
G01*
X416791Y185000D02*
G03*
X416818Y185063I-2291J1000D01*
G01*
X416818Y185064D02*
G03*
X417000Y185999I-2318J936D01*
G01*
D02*
G03*
X417000Y186000I-2500J1D01*
G01*
X416926Y186603D02*
G03*
X416884Y186752I-2426J-603D01*
G01*
X416818Y185064D02*
G03*
X417000Y185999I-2318J936D01*
G01*
D02*
G03*
X417000Y186000I-2500J1D01*
G01*
X416926Y186603D02*
G03*
X416884Y186752I-2426J-603D01*
G01*
X416829Y186910D02*
G03*
X416791Y187000I-2329J-909D01*
G01*
X416884Y186753D02*
G03*
X416829Y186909I-2384J-753D01*
G01*
X416829Y186910D02*
G03*
X416791Y187000I-2329J-909D01*
G01*
X416829Y186910D02*
G03*
X416791Y187000I-2329J-909D01*
G01*
X416829Y186910D02*
G03*
X416791Y187000I-2329J-909D01*
G01*
X416926Y186603D02*
G03*
X416884Y186752I-2426J-603D01*
G01*
X416926Y186603D02*
G03*
X416884Y186752I-2426J-603D01*
G01*
X416884Y186753D02*
G03*
X416829Y186909I-2384J-753D01*
G01*
X416884Y186753D02*
G03*
X416829Y186909I-2384J-753D01*
G01*
X416884Y186753D02*
G03*
X416829Y186909I-2384J-753D01*
G01*
X416996Y186138D02*
G03*
X416996Y186139I-2496J-138D01*
G01*
D02*
G03*
X416990Y186228I-2496J-139D01*
G01*
X416996Y186138D02*
G03*
X416996Y186139I-2496J-138D01*
G01*
D02*
G03*
X416990Y186228I-2496J-139D01*
G01*
X416989Y186229D02*
G03*
X416989Y186231I-2490J-229D01*
G01*
X416996Y186138D02*
G03*
X416996Y186139I-2496J-138D01*
G01*
D02*
G03*
X416990Y186228I-2496J-139D01*
G01*
X417000Y186000D02*
G03*
X416996Y186138I-2500J-0D01*
G01*
X417000Y186000D02*
G03*
X416996Y186138I-2500J-0D01*
G01*
Y186138D02*
G03*
X416996Y186139I-2496J-138D01*
G01*
D02*
G03*
X416990Y186228I-2496J-139D01*
G01*
X417000Y186000D02*
G03*
X416996Y186138I-2500J-0D01*
G01*
X417000Y186000D02*
G03*
X416996Y186138I-2500J-0D01*
G01*
X416989Y186231D02*
G03*
X416989Y186232I-2489J-231D01*
G01*
X416989Y186231D02*
G03*
X416989Y186232I-2489J-231D01*
G01*
X416989Y186229D02*
G03*
X416989Y186231I-2490J-229D01*
G01*
X416989Y186229D02*
G03*
X416989Y186231I-2490J-229D01*
G01*
Y186231D02*
G03*
X416989Y186232I-2489J-231D01*
G01*
X416989Y186229D02*
G03*
X416989Y186231I-2490J-229D01*
G01*
Y186231D02*
G03*
X416989Y186232I-2489J-231D01*
G01*
X414500Y188500D02*
G03*
X412755Y187790I-0J-2500D01*
G01*
X414500Y188500D02*
G03*
X412755Y187790I-0J-2500D01*
G01*
X414500Y188500D02*
G03*
X412755Y187790I-0J-2500D01*
G01*
X414500Y188500D02*
G03*
X412755Y187790I-0J-2500D01*
G01*
X416791Y187000D02*
G03*
X415410Y188329I-2291J-1000D01*
G01*
X416791Y187000D02*
G03*
X415410Y188329I-2291J-1000D01*
G01*
X415409Y188329D02*
G03*
X415271Y188378I-909J-2329D01*
G01*
X415409Y188329D02*
G03*
X415271Y188378I-909J-2329D01*
G01*
X416791Y187000D02*
G03*
X415410Y188329I-2291J-1000D01*
G01*
X416791Y187000D02*
G03*
X415410Y188329I-2291J-1000D01*
G01*
X414728Y188489D02*
G03*
X414500Y188500I-228J-2490D01*
G01*
X414728Y188489D02*
G03*
X414500Y188500I-228J-2490D01*
G01*
X414728Y188489D02*
G03*
X414500Y188500I-228J-2490D01*
G01*
X414728Y188489D02*
G03*
X414500Y188500I-228J-2490D01*
G01*
X415271Y188378D02*
G03*
X414729Y188489I-771J-2378D01*
G01*
X415271Y188378D02*
G03*
X414729Y188489I-771J-2378D01*
G01*
X415271Y188378D02*
G03*
X414729Y188489I-771J-2378D01*
G01*
X415271Y188378D02*
G03*
X414729Y188489I-771J-2378D01*
G01*
X415409Y188329D02*
G03*
X415271Y188378I-909J-2329D01*
G01*
X415409Y188329D02*
G03*
X415271Y188378I-909J-2329D01*
G01*
D14*
X160000Y315000D02*
D03*
D15*
X408000Y114000D02*
D03*
X407175Y112144D02*
D03*
D03*
X412755Y187790D02*
D03*
D03*
X412753Y187788D02*
D03*
D03*
X416926Y186602D02*
D03*
D03*
X412000Y114009D02*
D03*
D03*
X416818Y185064D02*
D03*
D03*
D16*
X45000Y181000D02*
D03*
Y189000D02*
D03*
X270001Y259000D02*
D03*
X135000Y69000D02*
D03*
Y49000D02*
D03*
Y61000D02*
D03*
Y41000D02*
D03*
X270001Y251000D02*
D03*
D17*
X342500Y275000D02*
D03*
X327500D02*
D03*
Y255000D02*
D03*
X42500Y115000D02*
D03*
X27500D02*
D03*
X342500Y315000D02*
D03*
X327500D02*
D03*
X342500Y255000D02*
D03*
X327500Y295000D02*
D03*
X342500D02*
D03*
D18*
X173001Y69750D02*
D03*
Y63250D02*
D03*
Y56750D02*
D03*
Y50250D02*
D03*
X157000D02*
D03*
Y56750D02*
D03*
Y63250D02*
D03*
Y69750D02*
D03*
D19*
X268750Y145000D02*
D03*
X281250D02*
D03*
X310000Y205000D02*
D03*
X323000D02*
D03*
X183500Y125000D02*
D03*
X261249Y125000D02*
D03*
X273749D02*
D03*
X196500Y125000D02*
D03*
D20*
X120000Y106750D02*
D03*
Y93250D02*
D03*
D21*
X295000Y80000D02*
D03*
D22*
X293000Y65000D02*
D03*
Y95000D02*
D03*
D23*
X383000Y137000D02*
D03*
Y143500D02*
D03*
Y150000D02*
D03*
Y156500D02*
D03*
Y162999D02*
D03*
D24*
X410000Y140000D02*
D03*
Y160000D02*
D03*
D25*
X295000Y237250D02*
D03*
Y222750D02*
D03*
D26*
X136750Y285000D02*
D03*
X123250D02*
D03*
D27*
X62500Y112750D02*
D03*
Y107750D02*
D03*
Y102750D02*
D03*
Y97750D02*
D03*
Y92750D02*
D03*
Y87750D02*
D03*
X102500D02*
D03*
Y92750D02*
D03*
Y97750D02*
D03*
Y102750D02*
D03*
Y107750D02*
D03*
Y112750D02*
D03*
D28*
X70000Y80500D02*
D03*
X75000D02*
D03*
X80000D02*
D03*
X85000D02*
D03*
X90000D02*
D03*
X95000D02*
D03*
Y120000D02*
D03*
X90000D02*
D03*
X85000D02*
D03*
X80000D02*
D03*
X75000D02*
D03*
X70000D02*
D03*
D29*
X82500Y100250D02*
D03*
D30*
X381750Y315000D02*
D03*
Y295000D02*
D03*
Y275000D02*
D03*
Y255000D02*
D03*
X358250Y315000D02*
D03*
Y255000D02*
D03*
Y275000D02*
D03*
Y295000D02*
D03*
D31*
X203019Y290000D02*
D03*
X46037Y95000D02*
D03*
X186981Y290000D02*
D03*
X30000Y95000D02*
D03*
D32*
X230000Y305001D02*
D03*
X218000D02*
D03*
X242000D02*
D03*
D33*
X163250Y328906D02*
D03*
X169750Y301095D02*
D03*
X150250Y328906D02*
D03*
X156750D02*
D03*
X169750D02*
D03*
X163250Y301095D02*
D03*
X156750D02*
D03*
D34*
X220379Y268824D02*
D03*
X155379Y268824D02*
D03*
X220379Y155000D02*
D03*
X215379Y268824D02*
D03*
X210379D02*
D03*
X225379Y155000D02*
D03*
X150379Y268824D02*
D03*
X225379Y268824D02*
D03*
X205379Y268824D02*
D03*
X200379D02*
D03*
X195379Y268824D02*
D03*
X190379D02*
D03*
X185379D02*
D03*
X180379Y268824D02*
D03*
X175379Y268824D02*
D03*
X170379D02*
D03*
X165379D02*
D03*
X160379D02*
D03*
X150379Y155000D02*
D03*
X155379D02*
D03*
X160378D02*
D03*
X165379D02*
D03*
X170379D02*
D03*
X175379D02*
D03*
X180379D02*
D03*
X185379D02*
D03*
X190379D02*
D03*
X195379D02*
D03*
X200379D02*
D03*
X205379D02*
D03*
X210378D02*
D03*
X215379D02*
D03*
D35*
X270000Y226000D02*
D03*
Y206000D02*
D03*
X58890Y172618D02*
D03*
X270000Y214000D02*
D03*
X60000Y202000D02*
D03*
X270000Y234000D02*
D03*
X58890Y164618D02*
D03*
X60000Y210000D02*
D03*
D36*
X244791Y229411D02*
D03*
X130967Y179412D02*
D03*
Y174412D02*
D03*
X244791Y179412D02*
D03*
Y184412D02*
D03*
Y189412D02*
D03*
Y194412D02*
D03*
Y199412D02*
D03*
X244791Y204412D02*
D03*
X244791Y209412D02*
D03*
Y214412D02*
D03*
Y219412D02*
D03*
Y224411D02*
D03*
Y234412D02*
D03*
Y239412D02*
D03*
Y244412D02*
D03*
Y249412D02*
D03*
X130967D02*
D03*
Y244412D02*
D03*
Y239412D02*
D03*
Y234412D02*
D03*
Y229412D02*
D03*
Y224412D02*
D03*
Y219412D02*
D03*
Y214412D02*
D03*
Y209412D02*
D03*
Y204412D02*
D03*
Y199412D02*
D03*
Y194412D02*
D03*
Y189412D02*
D03*
Y184411D02*
D03*
D37*
X161000Y290000D02*
D03*
X249001Y275000D02*
D03*
X125999D02*
D03*
X216000Y125000D02*
D03*
X133999Y275000D02*
D03*
X241001D02*
D03*
X169000Y290000D02*
D03*
X224000Y125000D02*
D03*
D38*
X112733Y330000D02*
D03*
X127267D02*
D03*
D39*
X80000Y283001D02*
D03*
D40*
Y308001D02*
D03*
D41*
X4500Y370000D02*
D03*
Y235000D02*
D03*
Y165000D02*
D03*
Y65000D02*
D03*
Y85000D02*
D03*
Y75000D02*
D03*
Y55000D02*
D03*
Y45000D02*
D03*
Y35000D02*
D03*
Y245000D02*
D03*
Y305000D02*
D03*
Y295000D02*
D03*
Y285000D02*
D03*
Y275000D02*
D03*
Y265000D02*
D03*
Y255000D02*
D03*
Y185000D02*
D03*
Y175000D02*
D03*
Y155000D02*
D03*
Y145000D02*
D03*
Y135000D02*
D03*
Y360000D02*
D03*
Y380000D02*
D03*
D42*
X70500Y250000D02*
D03*
X89500D02*
D03*
D43*
X45000Y260000D02*
D03*
Y243962D02*
D03*
D44*
X-34250Y393000D02*
D03*
Y318000D02*
D03*
Y347000D02*
D03*
Y222000D02*
D03*
Y198000D02*
D03*
Y122000D02*
D03*
Y98000D02*
D03*
Y22000D02*
D03*
D45*
X387040Y227800D02*
D03*
X353040D02*
D03*
D46*
X332750Y235000D02*
D03*
X317250D02*
D03*
D47*
X244791Y174411D02*
D03*
D48*
X135000Y93500D02*
D03*
Y106500D02*
D03*
D49*
X340000Y96000D02*
D03*
Y104000D02*
D03*
Y119000D02*
D03*
Y111000D02*
D03*
D50*
X199500Y50001D02*
D03*
X240501D02*
D03*
D51*
X104500Y45000D02*
D03*
X85500D02*
D03*
X95000Y65000D02*
D03*
D52*
X215000Y95000D02*
D03*
D53*
X150250Y301095D02*
D03*
D54*
X95001Y281001D02*
D03*
X65001D02*
D03*
D55*
X275000Y35000D02*
D03*
M02*
