G04*
G04 #@! TF.GenerationSoftware,Altium Limited,Altium Designer,23.4.1 (23)*
G04*
G04 Layer_Physical_Order=1*
G04 Layer_Color=255*
%FSLAX44Y44*%
%MOMM*%
G71*
G04*
G04 #@! TF.SameCoordinates,30852D99-AE15-4CE0-A94D-D67A95FAC50C*
G04*
G04*
G04 #@! TF.FilePolarity,Positive*
G04*
G01*
G75*
%ADD11C,0.5000*%
%ADD16C,0.5000*%
%ADD17R,1.3500X0.4000*%
%ADD18R,1.9000X1.5000*%
%ADD19C,0.7870*%
G04:AMPARAMS|DCode=20|XSize=0.3125mm|YSize=1.7883mm|CornerRadius=0.1562mm|HoleSize=0mm|Usage=FLASHONLY|Rotation=180.000|XOffset=0mm|YOffset=0mm|HoleType=Round|Shape=RoundedRectangle|*
%AMROUNDEDRECTD20*
21,1,0.3125,1.4758,0,0,180.0*
21,1,0.0000,1.7883,0,0,180.0*
1,1,0.3125,0.0000,0.7379*
1,1,0.3125,0.0000,0.7379*
1,1,0.3125,0.0000,-0.7379*
1,1,0.3125,0.0000,-0.7379*
%
%ADD20ROUNDEDRECTD20*%
G04:AMPARAMS|DCode=21|XSize=1.7883mm|YSize=0.3125mm|CornerRadius=0.1562mm|HoleSize=0mm|Usage=FLASHONLY|Rotation=180.000|XOffset=0mm|YOffset=0mm|HoleType=Round|Shape=RoundedRectangle|*
%AMROUNDEDRECTD21*
21,1,1.7883,0.0000,0,0,180.0*
21,1,1.4758,0.3125,0,0,180.0*
1,1,0.3125,-0.7379,0.0000*
1,1,0.3125,0.7379,0.0000*
1,1,0.3125,0.7379,0.0000*
1,1,0.3125,-0.7379,0.0000*
%
%ADD21ROUNDEDRECTD21*%
%ADD22R,1.7883X0.3125*%
%ADD23R,0.5725X0.5682*%
%ADD24R,0.8000X0.9500*%
%ADD25R,1.8000X0.6000*%
G04:AMPARAMS|DCode=26|XSize=1.9mm|YSize=3.2mm|CornerRadius=0mm|HoleSize=0mm|Usage=FLASHONLY|Rotation=270.000|XOffset=0mm|YOffset=0mm|HoleType=Round|Shape=Octagon|*
%AMOCTAGOND26*
4,1,8,1.6000,0.4750,1.6000,-0.4750,1.1250,-0.9500,-1.1250,-0.9500,-1.6000,-0.4750,-1.6000,0.4750,-1.1250,0.9500,1.1250,0.9500,1.6000,0.4750,0.0*
%
%ADD26OCTAGOND26*%

%ADD27R,1.4000X0.6000*%
%ADD28R,0.8000X1.7000*%
%ADD29R,1.5500X0.6000*%
%ADD30R,1.8000X1.2000*%
%ADD31R,0.9000X2.1000*%
%ADD32R,3.2000X2.1000*%
%ADD33R,2.8400X6.8000*%
%ADD34R,1.0121X1.2084*%
%ADD35R,0.5200X0.5200*%
%ADD36R,0.5200X0.5200*%
%ADD37R,0.7500X1.0000*%
%ADD38R,1.1000X2.0500*%
%ADD39R,0.9500X0.8000*%
%ADD40R,0.8500X0.9500*%
%ADD41R,0.9000X1.0500*%
%ADD42R,0.4500X0.4500*%
%ADD43R,1.2500X1.1000*%
%ADD44R,0.5000X0.3500*%
%ADD45R,0.9500X0.8500*%
%ADD46R,0.3500X0.8000*%
%ADD47R,0.8500X0.3500*%
%ADD48R,2.6000X2.7000*%
%ADD49R,2.0000X0.4000*%
G04:AMPARAMS|DCode=50|XSize=0.7311mm|YSize=0.3025mm|CornerRadius=0.1512mm|HoleSize=0mm|Usage=FLASHONLY|Rotation=180.000|XOffset=0mm|YOffset=0mm|HoleType=Round|Shape=RoundedRectangle|*
%AMROUNDEDRECTD50*
21,1,0.7311,0.0000,0,0,180.0*
21,1,0.4286,0.3025,0,0,180.0*
1,1,0.3025,-0.2143,0.0000*
1,1,0.3025,0.2143,0.0000*
1,1,0.3025,0.2143,0.0000*
1,1,0.3025,-0.2143,0.0000*
%
%ADD50ROUNDEDRECTD50*%
%ADD51R,0.9121X0.9587*%
%ADD52R,0.7000X1.3000*%
%ADD53R,0.5000X0.4000*%
%ADD54R,0.4000X0.5000*%
%ADD55R,0.7311X0.3025*%
%ADD67R,0.7000X0.6000*%
%ADD79R,1.7500X2.5000*%
%ADD82C,0.7500*%
%ADD86C,0.1500*%
%ADD87C,0.3810*%
%ADD88C,0.5080*%
%ADD89C,0.6350*%
%ADD90C,1.4500*%
%ADD91C,0.9910*%
%ADD92C,4.0000*%
G04:AMPARAMS|DCode=93|XSize=1.524mm|YSize=2mm|CornerRadius=0.381mm|HoleSize=0mm|Usage=FLASHONLY|Rotation=0.000|XOffset=0mm|YOffset=0mm|HoleType=Round|Shape=RoundedRectangle|*
%AMROUNDEDRECTD93*
21,1,1.5240,1.2380,0,0,0.0*
21,1,0.7620,2.0000,0,0,0.0*
1,1,0.7620,0.3810,-0.6190*
1,1,0.7620,-0.3810,-0.6190*
1,1,0.7620,-0.3810,0.6190*
1,1,0.7620,0.3810,0.6190*
%
%ADD93ROUNDEDRECTD93*%
%ADD94C,1.2700*%
G36*
X23940Y195440D02*
X4940D01*
Y182440D01*
X23940D01*
Y195440D01*
D02*
G37*
G36*
X18940Y182440D02*
X9940D01*
Y177440D01*
X18940Y177440D01*
Y182440D01*
D02*
G37*
G36*
X9940Y254440D02*
X18940D01*
Y259440D01*
X9940Y259440D01*
Y254440D01*
D02*
G37*
G36*
X4940Y241440D02*
X23940D01*
Y254440D01*
X4940D01*
Y241440D01*
D02*
G37*
D11*
X16440Y254440D02*
G03*
X18940Y256940I2500J0D01*
G01*
X16512Y183036D02*
G03*
X16440Y182440I2428J-596D01*
G01*
X11752Y180718D02*
G03*
X11941Y180941I-1812J1723D01*
G01*
X11752Y180718D02*
G03*
X11941Y180941I-1812J1723D01*
G01*
X11686Y180650D02*
X11686Y180651D01*
X11686Y180650D02*
X11686Y180651D01*
X18939Y256940D02*
G03*
X17265Y256296I0J-2500D01*
G01*
X18939Y256940D02*
G03*
X17265Y256296I0J-2500D01*
G01*
X17265Y256296D02*
G03*
X16440Y254440I1675J-1856D01*
G01*
X17265Y256296D02*
G03*
X16440Y254440I1675J-1856D01*
G01*
Y254440D02*
G03*
X18940Y256940I2500J0D01*
G01*
X11750Y180716D02*
G03*
X11751Y180717I-1810J1724D01*
G01*
X11750Y180716D02*
G03*
X11751Y180717I-1810J1724D01*
G01*
X11688Y180652D02*
G03*
X11750Y180716I-1748J1788D01*
G01*
X11688Y180652D02*
G03*
X11750Y180716I-1748J1788D01*
G01*
X11686Y180651D02*
G03*
X11687Y180652I-1746J1789D01*
G01*
X11686Y180651D02*
G03*
X11687Y180652I-1746J1789D01*
G01*
X7513Y181840D02*
X7513Y181839D01*
X7513Y181840D02*
X7513Y181839D01*
X12440Y254440D02*
G03*
X7440Y254440I-2500J0D01*
G01*
X9033Y252110D02*
G03*
X11033Y252192I907J2330D01*
G01*
X7513Y181838D02*
X7514Y181838D01*
X7513Y181838D02*
X7514Y181838D01*
X11188Y252274D02*
G03*
X11456Y252452I-1248J2166D01*
G01*
X11188Y252274D02*
G03*
X11456Y252452I-1248J2166D01*
G01*
X11034Y252192D02*
G03*
X11187Y252273I-1094J2248D01*
G01*
X7810Y253131D02*
G03*
X8834Y252198I2130J1309D01*
G01*
X7440Y254440D02*
G03*
X7810Y253131I2500J0D01*
G01*
X9033Y252110D02*
G03*
X11033Y252192I907J2330D01*
G01*
X11034Y252192D02*
G03*
X11187Y252273I-1094J2248D01*
G01*
X7440Y254440D02*
G03*
X7810Y253131I2500J0D01*
G01*
D02*
G03*
X8834Y252198I2130J1309D01*
G01*
D02*
G03*
X9033Y252110I1106J2242D01*
G01*
X8834Y252198D02*
G03*
X9033Y252110I1106J2242D01*
G01*
X12440Y254435D02*
G03*
X12440Y254440I-2500J5D01*
G01*
Y254435D02*
G03*
X12440Y254440I-2500J5D01*
G01*
X12231Y183440D02*
X12231Y183441D01*
X12231Y183440D02*
X12231Y183441D01*
X11943Y180943D02*
G03*
X12231Y183440I-2003J1497D01*
G01*
X12231Y183441D02*
G03*
X7649Y183440I-2291J-1001D01*
G01*
X12231Y183441D02*
G03*
X7649Y183440I-2291J-1001D01*
G01*
X12231Y183441D02*
G03*
X7649Y183440I-2291J-1001D01*
G01*
X11943Y180943D02*
G03*
X12231Y183440I-2003J1497D01*
G01*
X12231Y183441D02*
G03*
X7649Y183440I-2291J-1001D01*
G01*
X7451Y182208D02*
G03*
X7513Y181840I2489J232D01*
G01*
X7451Y182208D02*
G03*
X7513Y181840I2489J232D01*
G01*
X7451Y182208D02*
G03*
X7513Y181840I2489J232D01*
G01*
X7451Y182208D02*
G03*
X7513Y181840I2489J232D01*
G01*
X11941Y180942D02*
G03*
X11942Y180943I-2001J1498D01*
G01*
X11941Y180942D02*
G03*
X11942Y180943I-2001J1498D01*
G01*
X12440Y254431D02*
G03*
X12440Y254435I-2500J9D01*
G01*
X12440Y254431D02*
G03*
X12440Y254435I-2500J9D01*
G01*
X12440Y254430D02*
Y254431D01*
Y254426D02*
G03*
X12440Y254430I-2500J14D01*
G01*
Y254430D02*
Y254431D01*
Y254426D02*
G03*
X12440Y254430I-2500J14D01*
G01*
X12440Y254408D02*
G03*
X12440Y254426I-2500J32D01*
G01*
X12440Y254408D02*
G03*
X12440Y254426I-2500J32D01*
G01*
X12431Y254230D02*
G03*
X12440Y254408I-2491J210D01*
G01*
X12382Y253904D02*
G03*
X12431Y254230I-2442J536D01*
G01*
X12382Y253904D02*
G03*
X12431Y254230I-2442J536D01*
G01*
X12106Y253193D02*
G03*
X12382Y253904I-2166J1247D01*
G01*
X12106Y253193D02*
G03*
X12382Y253904I-2166J1247D01*
G01*
X16649Y183440D02*
G03*
X16512Y183036I2291J-1000D01*
G01*
X16649Y183440D02*
G03*
X16512Y183036I2291J-1000D01*
G01*
X11456Y252452D02*
G03*
X12106Y253193I-1516J1988D01*
G01*
X11456Y252452D02*
G03*
X12106Y253193I-1516J1988D01*
G01*
X7649Y183440D02*
G03*
X7622Y183377I2291J-1000D01*
G01*
X7649Y183440D02*
G03*
X7622Y183377I2291J-1000D01*
G01*
X7649Y183440D02*
G03*
X7622Y183377I2291J-1000D01*
G01*
X7649Y183440D02*
G03*
X7622Y183377I2291J-1000D01*
G01*
X7622Y183376D02*
G03*
X7440Y182441I2318J-936D01*
G01*
D02*
G03*
X7440Y182440I2500J-1D01*
G01*
X7514Y181837D02*
G03*
X7556Y181688I2426J603D01*
G01*
X7622Y183376D02*
G03*
X7440Y182441I2318J-936D01*
G01*
D02*
G03*
X7440Y182440I2500J-1D01*
G01*
X7514Y181837D02*
G03*
X7556Y181688I2426J603D01*
G01*
X7611Y181530D02*
G03*
X7649Y181440I2329J909D01*
G01*
X7556Y181687D02*
G03*
X7611Y181531I2384J753D01*
G01*
X7611Y181530D02*
G03*
X7649Y181440I2329J909D01*
G01*
X7611Y181530D02*
G03*
X7649Y181440I2329J909D01*
G01*
X7611Y181530D02*
G03*
X7649Y181440I2329J909D01*
G01*
X7514Y181837D02*
G03*
X7556Y181688I2426J603D01*
G01*
X7514Y181837D02*
G03*
X7556Y181688I2426J603D01*
G01*
X7556Y181687D02*
G03*
X7611Y181531I2384J753D01*
G01*
X7556Y181687D02*
G03*
X7611Y181531I2384J753D01*
G01*
X7556Y181687D02*
G03*
X7611Y181531I2384J753D01*
G01*
X7444Y182302D02*
G03*
X7444Y182301I2496J138D01*
G01*
D02*
G03*
X7451Y182212I2496J139D01*
G01*
X7444Y182302D02*
G03*
X7444Y182301I2496J138D01*
G01*
D02*
G03*
X7451Y182212I2496J139D01*
G01*
X7451Y182211D02*
G03*
X7451Y182209I2490J229D01*
G01*
X7444Y182302D02*
G03*
X7444Y182301I2496J138D01*
G01*
D02*
G03*
X7451Y182212I2496J139D01*
G01*
X7440Y182440D02*
G03*
X7444Y182302I2500J0D01*
G01*
X7440Y182440D02*
G03*
X7444Y182302I2500J0D01*
G01*
Y182302D02*
G03*
X7444Y182301I2496J138D01*
G01*
D02*
G03*
X7451Y182212I2496J139D01*
G01*
X7440Y182440D02*
G03*
X7444Y182302I2500J0D01*
G01*
X7440Y182440D02*
G03*
X7444Y182302I2500J0D01*
G01*
X7451Y182209D02*
G03*
X7451Y182208I2489J231D01*
G01*
X7451Y182209D02*
G03*
X7451Y182208I2489J231D01*
G01*
X7451Y182211D02*
G03*
X7451Y182209I2490J229D01*
G01*
X7451Y182211D02*
G03*
X7451Y182209I2490J229D01*
G01*
Y182209D02*
G03*
X7451Y182208I2489J231D01*
G01*
X7451Y182211D02*
G03*
X7451Y182209I2490J229D01*
G01*
Y182209D02*
G03*
X7451Y182208I2489J231D01*
G01*
X9940Y179940D02*
G03*
X11685Y180650I0J2500D01*
G01*
X9940Y179940D02*
G03*
X11685Y180650I0J2500D01*
G01*
X9940Y179940D02*
G03*
X11685Y180650I0J2500D01*
G01*
X9940Y179940D02*
G03*
X11685Y180650I0J2500D01*
G01*
X7649Y181440D02*
G03*
X9031Y180111I2291J1000D01*
G01*
X7649Y181440D02*
G03*
X9031Y180111I2291J1000D01*
G01*
X9031Y180111D02*
G03*
X9169Y180062I909J2329D01*
G01*
X9031Y180111D02*
G03*
X9169Y180062I909J2329D01*
G01*
X7649Y181440D02*
G03*
X9031Y180111I2291J1000D01*
G01*
X7649Y181440D02*
G03*
X9031Y180111I2291J1000D01*
G01*
X9712Y179950D02*
G03*
X9940Y179940I228J2490D01*
G01*
X9712Y179950D02*
G03*
X9940Y179940I228J2490D01*
G01*
X9712Y179950D02*
G03*
X9940Y179940I228J2490D01*
G01*
X9712Y179950D02*
G03*
X9940Y179940I228J2490D01*
G01*
X9169Y180062D02*
G03*
X9711Y179951I771J2378D01*
G01*
X9169Y180062D02*
G03*
X9711Y179951I771J2378D01*
G01*
X9169Y180062D02*
G03*
X9711Y179951I771J2378D01*
G01*
X9169Y180062D02*
G03*
X9711Y179951I771J2378D01*
G01*
X9031Y180111D02*
G03*
X9169Y180062I909J2329D01*
G01*
X9031Y180111D02*
G03*
X9169Y180062I909J2329D01*
G01*
X16440Y182440D02*
G03*
X20216Y180290I2500J0D01*
G01*
D02*
G03*
X21231Y183440I-1276J2150D01*
G01*
X16440Y182440D02*
G03*
X20216Y180290I2500J0D01*
G01*
D02*
G03*
X21231Y183440I-1276J2150D01*
G01*
D02*
G03*
X20216Y184590I-2291J-1000D01*
G01*
D02*
G03*
X16649Y183440I-1276J-2150D01*
G01*
X21231D02*
G03*
X20216Y184590I-2291J-1000D01*
G01*
D02*
G03*
X16649Y183440I-1276J-2150D01*
G01*
X40092Y244288D02*
X41910Y242470D01*
X37603Y254105D02*
X40092Y251616D01*
Y244288D02*
Y251616D01*
X25750Y272500D02*
X26500D01*
X37603Y261396D01*
Y254105D02*
Y261396D01*
D16*
X16440Y254440D02*
D03*
X17265Y256296D02*
D03*
D03*
X11685Y180650D02*
D03*
D03*
X11687Y180652D02*
D03*
D03*
X12440Y254431D02*
D03*
D03*
X7622Y183376D02*
D03*
D03*
X210000Y345000D02*
D03*
X200000Y355000D02*
D03*
Y345000D02*
D03*
X190000Y355000D02*
D03*
Y345000D02*
D03*
D17*
X41440Y231440D02*
D03*
Y224939D02*
D03*
Y218440D02*
D03*
Y211940D02*
D03*
Y205440D02*
D03*
D18*
X14440Y228440D02*
D03*
Y208440D02*
D03*
D19*
X45212Y54356D02*
D03*
X32512D02*
D03*
X45212Y67056D02*
D03*
X32512D02*
D03*
X45212Y79756D02*
D03*
X32512D02*
D03*
D20*
X292500Y158088D02*
D03*
X287499D02*
D03*
X282500D02*
D03*
X277500D02*
D03*
X272500D02*
D03*
X267500D02*
D03*
X262500D02*
D03*
X257500D02*
D03*
X252500D02*
D03*
X247500D02*
D03*
X242500D02*
D03*
X237500D02*
D03*
X232500D02*
D03*
X227500D02*
D03*
X237500Y271912D02*
D03*
X242500D02*
D03*
X247500D02*
D03*
X252500D02*
D03*
X257500Y271912D02*
D03*
X262500Y271912D02*
D03*
X267500D02*
D03*
X272500D02*
D03*
X277500Y271912D02*
D03*
X282500D02*
D03*
X302500Y271912D02*
D03*
X227500Y271912D02*
D03*
X302500Y158088D02*
D03*
X287500Y271912D02*
D03*
X292500D02*
D03*
X297500Y158088D02*
D03*
X232500Y271912D02*
D03*
X297500Y271912D02*
D03*
D21*
X208088Y187499D02*
D03*
Y192500D02*
D03*
Y197500D02*
D03*
Y202500D02*
D03*
Y207500D02*
D03*
Y212500D02*
D03*
Y217500D02*
D03*
Y222500D02*
D03*
Y227500D02*
D03*
Y232500D02*
D03*
Y237500D02*
D03*
Y242500D02*
D03*
Y247500D02*
D03*
Y252500D02*
D03*
X321912D02*
D03*
Y247500D02*
D03*
Y242500D02*
D03*
Y237500D02*
D03*
Y227499D02*
D03*
Y222500D02*
D03*
Y217500D02*
D03*
Y212500D02*
D03*
X321912Y207500D02*
D03*
X321912Y202500D02*
D03*
Y197500D02*
D03*
Y192500D02*
D03*
Y187500D02*
D03*
Y182500D02*
D03*
X208088Y177500D02*
D03*
Y182500D02*
D03*
X321912Y232499D02*
D03*
D22*
Y177499D02*
D03*
D23*
X252500Y292978D02*
D03*
Y302022D02*
D03*
D24*
X366501Y225000D02*
D03*
X353500D02*
D03*
X293750Y92500D02*
D03*
X281250D02*
D03*
X258500Y102500D02*
D03*
X311250Y105000D02*
D03*
X298751D02*
D03*
X271500Y102500D02*
D03*
D25*
X434499Y287500D02*
D03*
D26*
X409500D02*
D03*
D27*
X436499Y302501D02*
D03*
Y272501D02*
D03*
D28*
X57000Y155000D02*
D03*
X22999D02*
D03*
D29*
X480500Y327500D02*
D03*
Y317500D02*
D03*
Y257500D02*
D03*
Y267500D02*
D03*
Y277500D02*
D03*
Y287500D02*
D03*
Y297500D02*
D03*
Y307500D02*
D03*
D30*
X519250Y244500D02*
D03*
Y340500D02*
D03*
D31*
X393000Y143500D02*
D03*
X370000D02*
D03*
X347000D02*
D03*
D32*
X370000Y86500D02*
D03*
D33*
X182500Y120000D02*
D03*
D34*
X455000Y98019D02*
D03*
Y81981D02*
D03*
X325000Y138019D02*
D03*
Y121981D02*
D03*
X295000Y338019D02*
D03*
X410000Y231981D02*
D03*
X295000Y321981D02*
D03*
X410000Y248018D02*
D03*
D35*
X342500Y231000D02*
D03*
Y239000D02*
D03*
X101850Y303149D02*
D03*
Y295149D02*
D03*
X185924Y178427D02*
D03*
X102500Y311000D02*
D03*
X185924Y170427D02*
D03*
X102500Y319000D02*
D03*
D36*
X349000Y177500D02*
D03*
X341000D02*
D03*
X453500Y325000D02*
D03*
X461500D02*
D03*
X361500Y207499D02*
D03*
X299000Y305000D02*
D03*
X231501Y292500D02*
D03*
X296000Y130000D02*
D03*
X223501Y292500D02*
D03*
X291000Y305000D02*
D03*
X304000Y130000D02*
D03*
X353500Y207499D02*
D03*
D37*
X65001Y292500D02*
D03*
X80000D02*
D03*
X148591Y237499D02*
D03*
X163591D02*
D03*
X65000Y272500D02*
D03*
X80000D02*
D03*
D38*
X416000Y165000D02*
D03*
X449000D02*
D03*
D39*
X270000Y306000D02*
D03*
Y319000D02*
D03*
X145000Y361500D02*
D03*
Y348500D02*
D03*
D40*
X259250Y355000D02*
D03*
X245750D02*
D03*
D41*
X68250Y332500D02*
D03*
X81750D02*
D03*
X115750Y272500D02*
D03*
X129250D02*
D03*
X68250Y312500D02*
D03*
X81750D02*
D03*
D42*
X181000Y190000D02*
D03*
X189000D02*
D03*
X181000Y202500D02*
D03*
X189000D02*
D03*
D43*
X49250Y312500D02*
D03*
X25750D02*
D03*
Y272500D02*
D03*
Y332500D02*
D03*
Y292500D02*
D03*
X49250Y272500D02*
D03*
Y292500D02*
D03*
Y332500D02*
D03*
D44*
X130500Y317250D02*
D03*
Y310750D02*
D03*
Y304250D02*
D03*
Y297750D02*
D03*
X114500D02*
D03*
Y304250D02*
D03*
Y310750D02*
D03*
Y317250D02*
D03*
D45*
X252500Y321500D02*
D03*
Y335000D02*
D03*
D46*
X212500Y375000D02*
D03*
X207500D02*
D03*
X202500D02*
D03*
X197500D02*
D03*
X192500D02*
D03*
X187500D02*
D03*
Y335000D02*
D03*
X192500D02*
D03*
X197500D02*
D03*
X202500D02*
D03*
X207500D02*
D03*
X212500D02*
D03*
D47*
X180250Y367500D02*
D03*
Y362500D02*
D03*
Y357500D02*
D03*
Y352500D02*
D03*
Y347500D02*
D03*
Y342500D02*
D03*
X219750D02*
D03*
Y347500D02*
D03*
Y352500D02*
D03*
Y357500D02*
D03*
Y362500D02*
D03*
Y367500D02*
D03*
D48*
X200000Y355000D02*
D03*
D49*
X380000Y187500D02*
D03*
Y175500D02*
D03*
Y199500D02*
D03*
D50*
X406095Y333251D02*
D03*
X433905Y339750D02*
D03*
X406095Y320250D02*
D03*
Y326750D02*
D03*
Y339750D02*
D03*
X433905Y333251D02*
D03*
Y326750D02*
D03*
D51*
X370000Y350233D02*
D03*
Y364767D02*
D03*
D52*
X477000Y350000D02*
D03*
X458000D02*
D03*
D53*
X165000Y351500D02*
D03*
Y343500D02*
D03*
D54*
X196000Y322500D02*
D03*
X204000D02*
D03*
D55*
X433905Y320250D02*
D03*
D67*
X430000Y249500D02*
D03*
Y230500D02*
D03*
X450000Y240000D02*
D03*
D79*
X420000Y330000D02*
D03*
D82*
X40000Y155000D02*
D03*
D86*
X119753Y235016D02*
G03*
X120763Y234129I1390J564D01*
G01*
X183212Y250784D02*
G03*
X183443Y250598I1052J1069D01*
G01*
X170203Y252338D02*
G03*
X171228Y252777I-36J1500D01*
G01*
X358140Y129986D02*
G03*
X358124Y130204I-1500J0D01*
G01*
X358019Y131003D02*
G03*
X358034Y130817I1500J31D01*
G01*
X279706Y368027D02*
G03*
X279899Y368011I222J1484D01*
G01*
X279059Y368124D02*
G03*
X278838Y368140I-222J-1484D01*
G01*
X264075Y368053D02*
G03*
X264557Y368140I-23J1500D01*
G01*
X319109Y367060D02*
X319109Y367061D01*
X318887Y324257D02*
G03*
X320278Y325212I-6J1500D01*
G01*
X341420Y74778D02*
G03*
X341422Y74704I1500J0D01*
G01*
X341039Y82408D02*
G03*
X341117Y82008I1498J83D01*
G01*
X341420Y80868D02*
G03*
X341340Y81350I-1500J-0D01*
G01*
X315417Y272951D02*
G03*
X315499Y273438I-1419J488D01*
G01*
X192547Y307500D02*
G03*
X192299Y307479I0J-1500D01*
G01*
X187877Y311000D02*
G03*
X192056Y311000I2090J9411D01*
G01*
X187662Y307474D02*
G03*
X187386Y307500I-276J-1475D01*
G01*
X187696Y307468D02*
G03*
X192245Y307470I2271J12942D01*
G01*
X298759Y84644D02*
G03*
X298779Y84644I20J1500D01*
G01*
X358055Y113905D02*
G03*
X357711Y113011I1154J-958D01*
G01*
X74000Y61219D02*
G03*
X73965Y61541I-1500J-0D01*
G01*
X88000Y43996D02*
G03*
X88113Y43722I1436J434D01*
G01*
X87869Y44430D02*
G03*
X87499Y45051I-1436J-434D01*
G01*
X306931Y67955D02*
G03*
X297291Y77644I-9640J50D01*
G01*
X183108Y223273D02*
G03*
X179573Y222749I-378J-9633D01*
G01*
X185793Y223000D02*
G03*
X185956Y222971I346J1460D01*
G01*
X183118Y223272D02*
G03*
X183203Y223272I49J1499D01*
G01*
X185793Y223000D02*
G03*
X183203Y223272I-2291J-9364D01*
G01*
X301397Y319245D02*
G03*
X298574Y313835I9426J-8361D01*
G01*
X242473Y319737D02*
G03*
X232845Y310612I-2J-9640D01*
G01*
X289231Y185533D02*
G03*
X292592Y182028I8413J4706D01*
G01*
X95851Y179479D02*
G03*
X95430Y179052I6649J-6980D01*
G01*
X93902Y22923D02*
G03*
X94766Y42236I-73080J12947D01*
G01*
D02*
G03*
X94717Y42783I-73945J-6365D01*
G01*
X313222Y114941D02*
G03*
X307349Y127644I-8955J3568D01*
G01*
X313555Y163915D02*
G03*
X320225Y148164I7431J-6141D01*
G01*
X90900Y35654D02*
G03*
X91064Y38283I-8400J1846D01*
G01*
X175507Y319833D02*
G03*
X175600Y318869I9630J442D01*
G01*
X411530Y177500D02*
G03*
X410100Y182553I-9640J0D01*
G01*
X341512Y56578D02*
G03*
X342128Y60486I-9012J3422D01*
G01*
X168443Y387094D02*
G03*
X164575Y386686I-943J-9594D01*
G01*
X300725Y292629D02*
G03*
X300587Y287921I9275J-2629D01*
G01*
X296879Y290705D02*
G03*
X296885Y289185I13121J-705D01*
G01*
X401465Y346043D02*
G03*
X398186Y350285I-8965J-3543D01*
G01*
X353850Y173968D02*
G03*
X352634Y166267I8101J-5226D01*
G01*
X342558Y113400D02*
G03*
X342757Y113404I-58J9100D01*
G01*
X338560Y206015D02*
G03*
X340074Y205900I1440J8985D01*
G01*
X146089Y299825D02*
G03*
X146553Y299820I329J9094D01*
G01*
X331189Y436330D02*
G03*
X325130Y430270I0J-6060D01*
G01*
X327357Y410884D02*
G03*
X325130Y406190I3832J-4694D01*
G01*
X327357Y410884D02*
G03*
X327355Y413197I-957J1155D01*
G01*
X325130Y417890D02*
G03*
X327355Y413197I6060J0D01*
G01*
X303690Y39750D02*
G03*
X297630Y33690I0J-6060D01*
G01*
X87849Y49651D02*
X94717Y42783D01*
X87849Y49651D02*
Y50616D01*
X81932Y56532D02*
X87849Y50616D01*
X81932Y79392D02*
X86364Y83825D01*
X81932Y56532D02*
Y79392D01*
X86183Y169074D02*
X95430Y179052D01*
X86364Y83825D02*
Y168892D01*
X86183Y169074D02*
X86364Y168892D01*
X31910Y242470D02*
X41910D01*
X49815Y235065D02*
X78500D01*
X41440Y231440D02*
X46190D01*
X49815Y235065D01*
X31909Y192470D02*
X41440D01*
Y193440D02*
Y205440D01*
X19909Y204470D02*
X31909Y192470D01*
X18909Y204470D02*
X19909D01*
X15910Y207470D02*
X18909Y204470D01*
X162750Y238339D02*
X163591Y237499D01*
X166590Y234500D01*
X181774D01*
X184774Y237500D01*
X208088D01*
X119643Y235287D02*
X119753Y235016D01*
X120763Y234129D02*
X124643Y230249D01*
X169403D01*
X198769Y231000D02*
X200269Y232500D01*
X169403Y230249D02*
X170154Y231000D01*
X198769D01*
X168708Y224604D02*
X171604Y227500D01*
X200269Y232500D02*
X208088D01*
X171604Y227500D02*
X204398D01*
X133323Y224604D02*
X168708D01*
X183443Y250598D02*
X188177Y247500D01*
X171228Y252777D02*
X172231Y253780D01*
X176946Y276183D02*
X188327D01*
X203248Y256312D02*
X217046D01*
X183204Y250793D02*
X183212Y250784D01*
X177553Y242811D02*
X207777D01*
X171135Y293747D02*
X188513Y276370D01*
X168191Y261983D02*
X178891Y272683D01*
X182264Y260355D02*
Y262423D01*
X174382Y273620D02*
X176946Y276183D01*
X176224Y244140D02*
X177553Y242811D01*
X163001Y273620D02*
X174382D01*
X180217Y253780D02*
X183204Y250793D01*
X155241Y251977D02*
X170203Y252338D01*
X188513Y276370D02*
X189597Y275286D01*
X183443Y250598D02*
X183443Y250598D01*
X182264Y262423D02*
X182884Y263043D01*
X157262Y275100D02*
X161521D01*
X156581Y275781D02*
X157262Y275100D01*
X128301Y219582D02*
X133323Y224604D01*
X172231Y253780D02*
X180217D01*
X161521Y275100D02*
X163001Y273620D01*
X151362Y261983D02*
X168191D01*
X178891Y272683D02*
X186877D01*
X203248Y256312D01*
X145591Y241018D02*
X148591Y237499D01*
X135167Y241018D02*
X145591D01*
X119643Y235580D02*
X119643Y235287D01*
X119643Y235580D02*
Y240357D01*
X104100Y230900D02*
X116983D01*
X128301Y219582D01*
X14910Y227470D02*
X16910D01*
X31910Y242470D01*
X358034Y130817D02*
X358124Y130204D01*
X358019Y131003D02*
X358019Y131003D01*
X358140Y114008D02*
Y129986D01*
X351750Y58420D02*
Y109121D01*
X359370Y50800D02*
X378460D01*
X351750Y58420D02*
X359370Y50800D01*
X38100Y302500D02*
X81932D01*
X35560Y304409D02*
Y333742D01*
Y304409D02*
X36439Y303530D01*
X37070D01*
X38100Y302500D01*
X35560Y333742D02*
X44202Y342385D01*
X46773D01*
X52369Y347980D01*
X53340D01*
X78000Y336250D02*
Y345689D01*
X73660Y350029D02*
Y353060D01*
Y350029D02*
X78000Y345689D01*
X30801Y339371D02*
X128680Y437250D01*
X25000Y312500D02*
X25750D01*
X128680Y437250D02*
X200129D01*
X25750Y332500D02*
X26051D01*
X30801Y337250D01*
Y339371D01*
X26670Y48514D02*
X32512Y54356D01*
X26670Y35560D02*
Y48514D01*
Y35560D02*
X34730Y27500D01*
X72500Y68220D02*
Y114080D01*
X46228Y78740D02*
X59335D01*
X63810Y83215D01*
Y103830D01*
X45212Y79756D02*
X46228Y78740D01*
X60960Y106680D02*
X63810Y103830D01*
X40640Y106680D02*
X60960D01*
X39370Y107950D02*
X40640Y106680D01*
X58166Y67056D02*
X67310Y76200D01*
Y110190D01*
X45212Y67056D02*
X58166D01*
X56418Y121082D02*
X67310Y110190D01*
X113030Y15000D02*
X166070D01*
X110490Y17540D02*
Y26670D01*
Y17540D02*
X113030Y15000D01*
X23000Y57544D02*
X32512Y67056D01*
X20548Y79756D02*
X32512D01*
X45212Y54356D02*
X64561D01*
X79459Y39459D01*
X17500Y82804D02*
Y119742D01*
Y82804D02*
X20548Y79756D01*
X34730Y27500D02*
X87500D01*
X469692Y310500D02*
X470442Y309750D01*
X461017Y311896D02*
X462413Y310500D01*
X469692D01*
X128546Y286490D02*
Y288455D01*
X139255Y275781D02*
X156581D01*
X128546Y286490D02*
X139255Y275781D01*
X295000Y338019D02*
Y339000D01*
X308857Y352857D01*
X312857D01*
X315000Y355000D01*
X219750Y362500D02*
X263867D01*
X266007Y364640D01*
X277860D01*
X282650Y359850D01*
X264075Y368053D02*
X264075Y368053D01*
X279059Y368124D02*
X279706Y368027D01*
X264557Y368140D02*
X278838D01*
X264557Y368140D02*
X264557Y368140D01*
X227121Y367500D02*
X264075Y368053D01*
X279899Y368011D02*
X318669Y367500D01*
X225000D02*
X227121Y367500D01*
X259250Y355000D02*
X262750Y355000D01*
X270000D02*
X272016Y345650D01*
X272500Y345166D01*
X262750Y355000D02*
X270000D01*
X318669Y367500D02*
X319109Y367061D01*
X272500Y343121D02*
Y345166D01*
X282650Y300018D02*
Y359850D01*
X286150Y346150D02*
X290285Y350285D01*
X295933Y357860D01*
X319188Y366981D02*
X326634Y356907D01*
X315499Y278294D02*
X326634Y289429D01*
X329654Y387786D02*
X330533Y386907D01*
X326634Y289429D02*
Y356907D01*
X319109Y367060D02*
X319188Y366981D01*
X318999Y276845D02*
X330533Y288379D01*
Y386907D01*
X189597Y275286D02*
X192297D01*
X207771Y259812D01*
X218496D01*
X171135Y293747D02*
Y297447D01*
X155507Y313075D02*
X171135Y297447D01*
X155507Y313075D02*
Y313736D01*
X155175Y314069D02*
X155507Y313736D01*
X114500Y297750D02*
X119250D01*
X128546Y288455D01*
X144379Y255000D02*
X151362Y261983D01*
X111190Y265000D02*
X121189Y255000D01*
X144379D01*
X182264Y260355D02*
X190570Y254092D01*
X188177Y247500D02*
X208088D01*
X190570Y254092D02*
X191449Y253213D01*
X75568Y265000D02*
X111190D01*
X113097Y249460D02*
X113496Y249060D01*
X113876D01*
X311582Y324257D02*
X318881D01*
X305935Y311935D02*
Y318610D01*
X318881Y324257D02*
X318887Y324257D01*
X305935Y318610D02*
X311582Y324257D01*
X299000Y305000D02*
X305935Y311935D01*
X320278Y325212D02*
X323134Y332543D01*
X315291Y314335D02*
X315573Y314617D01*
X315575D01*
X165080Y214964D02*
X174542Y221005D01*
X341420Y74778D02*
Y80868D01*
X331626Y77488D02*
X331780D01*
X319475Y89640D02*
X331626Y77488D01*
X339961Y104121D02*
X341039Y82408D01*
X341420Y80868D02*
X341420D01*
X341422Y74704D02*
X342128Y60486D01*
X341117Y82008D02*
X341340Y81350D01*
X301886Y338019D02*
X308507Y344640D01*
X316493D01*
X323134Y337999D01*
X295000Y338019D02*
X301886D01*
X323134Y332543D02*
Y337999D01*
X297500Y303500D02*
X299000Y305000D01*
X303238Y320863D02*
X304357Y321981D01*
X302371Y320225D02*
X303238Y320863D01*
X295000Y321981D02*
X304357D01*
X305227Y322852D02*
X305233Y322860D01*
X304357Y321981D02*
X305227Y322852D01*
X219750Y367500D02*
X225000D01*
X321912Y252500D02*
Y262661D01*
X318999Y265575D02*
X321912Y262661D01*
X318999Y265575D02*
Y276845D01*
X315499Y273438D02*
Y278294D01*
X312626Y264831D02*
X315417Y272951D01*
X192056Y311000D02*
X203835Y311106D01*
X192245Y307470D02*
X192299Y307479D01*
X190750Y321194D02*
Y324250D01*
X189764Y320614D02*
X189967Y320411D01*
X189355Y320205D02*
X189764Y320614D01*
X192547Y307500D02*
X220000D01*
X167500D02*
X187386D01*
X203835Y311106D02*
X232500Y322500D01*
X187662Y307474D02*
X187696Y307468D01*
X181459Y311337D02*
X182170Y311086D01*
X187877Y311000D01*
X189967Y320411D02*
X190750Y321194D01*
X339565Y217618D02*
X339743D01*
X330871Y226312D02*
X339565Y217618D01*
X278178Y215961D02*
X279542D01*
X280000Y216419D01*
X285889Y53362D02*
Y53840D01*
X297230Y68004D02*
X297260Y67974D01*
X256746Y68004D02*
X297230D01*
X231501Y292500D02*
X232500Y291500D01*
X220000Y307500D02*
X229651Y297849D01*
X166100Y308900D02*
X167500Y307500D01*
X229651Y294350D02*
X231501Y292500D01*
X229651Y294350D02*
Y297849D01*
X307846Y140117D02*
Y167153D01*
X306173Y168826D02*
X307846Y167153D01*
X325000Y121981D02*
Y122962D01*
X307846Y140117D02*
X325000Y122962D01*
X298751Y104250D02*
Y105000D01*
Y104250D02*
X305001Y98000D01*
X316493D02*
X318493Y100000D01*
Y105000D01*
X265250Y92932D02*
Y112500D01*
X267500Y114749D01*
Y158088D01*
X252250Y117711D02*
X262500Y127961D01*
X311356Y81144D02*
X312500Y80000D01*
X277038Y81144D02*
X311356D01*
X289070Y84983D02*
X289280Y84773D01*
X298759Y84644D01*
X265250Y92932D02*
X277038Y81144D01*
X287500Y86553D02*
Y91621D01*
X300462Y84644D02*
X305457Y89640D01*
X287500Y86553D02*
X289070Y84983D01*
X298779Y84644D02*
X300462D01*
X261371Y77544D02*
X293197D01*
X259743Y79173D02*
X261371Y77544D01*
X293197D02*
X293298Y77644D01*
X252250Y72500D02*
Y117711D01*
Y72500D02*
X256746Y68004D01*
X328644Y387786D02*
X329654D01*
X325130Y391300D02*
X328644Y387786D01*
X325130Y391300D02*
Y406190D01*
X372500Y180000D02*
X390682D01*
X369250Y183250D02*
X372500Y180000D01*
X390682D02*
X392250Y178432D01*
X370750Y176750D02*
X370808Y176742D01*
X372598Y176500D02*
X380000Y175500D01*
X370808Y176742D02*
X371050Y176500D01*
Y176500D02*
X372598D01*
X367500Y184319D02*
X367999D01*
X369068Y183250D01*
X369250D01*
X388424Y168742D02*
X392250Y172568D01*
X361950Y168742D02*
X388424D01*
X367500Y184319D02*
Y192500D01*
X364859Y180191D02*
X370750Y176750D01*
X361812Y183238D02*
X364859Y180191D01*
X361500Y183550D02*
X361812Y183238D01*
X344553Y125000D02*
Y137571D01*
X354193Y115010D02*
Y140120D01*
X344553Y137571D02*
X345000Y138019D01*
X353311Y114128D02*
X354193Y115010D01*
X342757Y113404D02*
X352872Y113689D01*
X353750Y154932D02*
X354193Y140120D01*
X358055Y113905D02*
X358140Y114008D01*
X357500Y156132D02*
X358019Y131003D01*
X357601Y109996D02*
X357711Y113011D01*
X351750Y109121D02*
X352629Y110000D01*
X357597D01*
X357601Y109996D01*
X138005Y162860D02*
X147503D01*
X138005Y162860D02*
X138005Y162860D01*
X147503D02*
X163069Y178427D01*
X112581Y162860D02*
X138005D01*
X111954Y163486D02*
X112581Y162860D01*
X72500Y68220D02*
X73965Y61541D01*
X87493Y45057D02*
X87499Y45051D01*
X74000Y58550D02*
Y61219D01*
X74000D02*
X74000D01*
X87869Y44430D02*
X88000Y43996D01*
X88113Y43722D02*
X88113Y43722D01*
X86292Y46258D02*
Y46258D01*
X74000Y58550D02*
X86292Y46258D01*
X88113Y43722D02*
X91064Y38283D01*
X86292Y46258D02*
X87493Y45057D01*
X72500Y114080D02*
X77625Y119205D01*
X43833Y134197D02*
X62633D01*
X76725Y120105D01*
X22999Y150500D02*
Y155000D01*
Y150500D02*
X26249Y147250D01*
X30779D01*
X43833Y134197D01*
X18379Y120621D02*
X55957D01*
X17500Y119742D02*
X18379Y120621D01*
X303368Y92500D02*
X305368Y94500D01*
X329393D01*
X293750Y92500D02*
X303368D01*
X329393Y94500D02*
X330000Y95107D01*
X305457Y89640D02*
X319475D01*
X293298Y77644D02*
X297291D01*
X306921Y66026D02*
X306931Y67955D01*
X306921Y60335D02*
Y66026D01*
Y60335D02*
X315640Y51615D01*
X198199Y294622D02*
X215356Y277144D01*
X185956Y222971D02*
X185966Y222970D01*
X183108Y223272D02*
X183118Y223272D01*
X174542Y221005D02*
X179573Y222749D01*
X119019Y240981D02*
X119643Y240357D01*
X113876Y249060D02*
X118489Y241511D01*
X119019Y240981D01*
X464900Y230983D02*
X466594D01*
X458134Y237750D02*
X464900Y230983D01*
X192852Y216108D02*
X200709Y217500D01*
X185966Y222970D02*
X190026Y222500D01*
X183501Y213636D02*
X192852Y216108D01*
X190026Y222500D02*
X208088D01*
X280000Y202034D02*
Y216419D01*
Y217500D02*
X282143Y215357D01*
X301397Y319245D02*
X302371Y320225D01*
X165000Y317215D02*
Y343500D01*
Y317215D02*
X165147Y317068D01*
X189355Y319517D02*
Y320205D01*
Y319517D02*
X193879Y317038D01*
X249509Y304991D02*
X250388Y304113D01*
X232535Y304825D02*
X232845Y310612D01*
X248500Y319737D02*
X252500Y321500D01*
X242473Y319737D02*
X248500D01*
X232465Y304545D02*
X232535Y304825D01*
X242471Y310097D02*
X249509Y304991D01*
X250388Y304113D02*
X252500Y302022D01*
X347098Y272556D02*
X352110Y267544D01*
X346371Y272556D02*
X347098D01*
X280000Y202034D02*
X289231Y185533D01*
X297644Y190239D02*
X310000Y182500D01*
X312143Y170000D02*
X315000D01*
X292592Y182028D02*
X312143Y170000D01*
X454982Y62656D02*
Y81963D01*
X455000Y81981D01*
X486581Y202500D02*
X487500D01*
X453000Y207500D02*
X481581D01*
X486581Y202500D01*
X165000Y343500D02*
X165000Y343500D01*
X137139Y294301D02*
X141834Y289605D01*
Y286835D02*
Y289605D01*
X309025Y307377D02*
X309503Y307855D01*
X308357Y306800D02*
X309025Y307377D01*
X308791Y280665D02*
X309362Y282487D01*
X309503Y307855D02*
X315291Y314335D01*
X309362Y282487D02*
X311717Y291837D01*
X305233Y322860D02*
X312500Y335000D01*
X132945Y327127D02*
X150796D01*
X151675Y328006D01*
Y343243D01*
X130500Y317250D02*
X130619Y317369D01*
X140241D01*
X140360Y317487D01*
X125750Y319932D02*
X132945Y327127D01*
X93902Y22923D02*
X93902Y22923D01*
X90978Y20000D02*
X93902Y22923D01*
X148369Y180000D02*
X150000D01*
X161620Y181927D01*
X101646Y185000D02*
X143369D01*
X161382Y47500D02*
X199500Y85618D01*
X140710Y47500D02*
X161382D01*
X158871Y38871D02*
X203000Y83000D01*
X166100Y308900D02*
Y316614D01*
X134750Y297750D02*
X137139Y295361D01*
Y294301D02*
Y295361D01*
X329683Y242500D02*
X346807Y259624D01*
X352110Y267544D01*
X279042Y46986D02*
X285889Y53362D01*
X278958Y46910D02*
X279042Y46986D01*
X277745Y45696D02*
X278958Y46910D01*
X271000Y126100D02*
X273121D01*
X274000Y125221D02*
X278140Y119610D01*
X273121Y126100D02*
X274000Y125221D01*
X311250Y105000D02*
X311250Y109000D01*
Y109993D02*
X313222Y114941D01*
X297850Y128150D02*
X304267Y118510D01*
X305850Y128150D02*
X307349Y127644D01*
X311250Y109000D02*
Y109993D01*
X304000Y130000D02*
X305850Y128150D01*
X271000Y103000D02*
Y126100D01*
Y141975D01*
X296000Y130000D02*
X297850Y128150D01*
X320986Y157774D02*
X330336Y159568D01*
X287650Y123600D02*
X289500Y121750D01*
Y110049D02*
Y121750D01*
X287650Y123600D02*
Y143049D01*
X281250Y101799D02*
X289500Y110049D01*
X320225Y148164D02*
X323471Y147909D01*
X330336Y159568D02*
X331850Y159968D01*
X305621Y169378D02*
X306173Y168826D01*
X313555Y163915D02*
X316400Y167357D01*
Y168600D01*
X392250Y196568D02*
Y202432D01*
X390932Y203750D02*
X392250Y202432D01*
X353500Y207499D02*
X355074Y205926D01*
X143369Y185000D02*
X148369Y180000D01*
X95851Y179479D02*
X101211Y184586D01*
X101646Y185000D01*
X362500Y342500D02*
X362500Y342500D01*
X362500Y342500D02*
Y354330D01*
X362500Y354720D02*
X362689Y355060D01*
X363189Y355959D01*
X362500Y354330D02*
X362500Y354720D01*
X362500Y337498D02*
Y342500D01*
X363189Y355959D02*
X366189Y360724D01*
X362500Y337498D02*
X379747Y320250D01*
X406095D01*
X259743Y79173D02*
Y101257D01*
X258500Y102500D02*
X259743Y101257D01*
X392250Y172568D02*
Y178432D01*
X367500Y192500D02*
X388182D01*
X392250Y196568D01*
X350575Y197500D02*
X351454Y196621D01*
X321912Y197500D02*
X350575D01*
X351454Y196621D02*
X361500Y183550D01*
X355074Y203691D02*
Y205926D01*
Y203691D02*
X356115Y202649D01*
X367967D01*
X353500Y207500D02*
X354499D01*
X354500Y207499D01*
X352025Y201000D02*
X355525Y197500D01*
X331183Y201000D02*
X352025D01*
X354500Y207499D02*
Y224000D01*
X238500Y328500D02*
X261621D01*
X262500Y327621D01*
Y314568D02*
Y327621D01*
Y314568D02*
X264318Y312750D01*
X178693Y312715D02*
X181459Y311337D01*
X232500Y322500D02*
X238500Y328500D01*
X204000Y323000D02*
X205250Y324250D01*
X232250Y335000D02*
X252500D01*
X221500Y324250D02*
X232250Y335000D01*
X204000Y322500D02*
Y323000D01*
X205250Y324250D02*
X221500D01*
X221651Y294350D02*
X225351Y290650D01*
X217190Y296580D02*
X221651Y294350D01*
X391621Y187500D02*
X394731Y184390D01*
X395000D01*
X401890Y177500D01*
X405223Y190478D02*
X410100Y182553D01*
X405000Y191264D02*
Y202500D01*
X405000Y190839D02*
X405223Y190478D01*
X405000Y191264D02*
X405000Y190839D01*
X386500Y221000D02*
X396966Y210534D01*
X396967D01*
X405000Y202500D01*
X392132Y207500D02*
X395750Y203881D01*
Y191629D02*
Y203881D01*
X369068Y203750D02*
X390932D01*
X310000Y222500D02*
X321912D01*
X306336Y226164D02*
X306336D01*
X310000Y222500D01*
X306024Y226620D02*
X306336Y226164D01*
X300199Y239827D02*
X306024Y226620D01*
X292447Y218373D02*
X293321Y217500D01*
X282500Y240000D02*
X292447Y218373D01*
X293810Y217500D02*
X321912D01*
X293321Y217500D02*
X293810Y217500D01*
X76725Y120105D02*
X77625Y119205D01*
X87500Y27500D02*
X89561Y29561D01*
X90900Y35654D01*
X35000Y20000D02*
X90978D01*
X489731Y79481D02*
X519250Y109000D01*
Y340500D01*
X457500Y79481D02*
X489731D01*
X172500Y167500D02*
X173545Y166455D01*
X181953D01*
X361816Y69317D02*
Y78316D01*
X370000Y86500D01*
X175600Y318869D02*
X175987Y316281D01*
X175000Y331184D02*
X175507Y319833D01*
X175987Y316281D02*
X176370Y315113D01*
X175000Y331184D02*
Y332375D01*
X362689Y207500D02*
X392132D01*
X369750Y221000D02*
X386500D01*
X391621Y187500D02*
X395750Y191629D01*
X411530Y174500D02*
Y177500D01*
Y174500D02*
X416000Y165000D01*
X271000Y141975D02*
X275921Y146896D01*
X271000Y103000D02*
X271500Y102500D01*
X339083Y51423D02*
X339261Y51535D01*
X339819Y52094D02*
X341512Y56578D01*
X339083Y105000D02*
X339961Y104121D01*
X339261Y51535D02*
X339819Y52094D01*
X155175Y314069D02*
Y341793D01*
X159966Y300000D02*
X160845Y299121D01*
X215356Y277144D02*
X216231Y276269D01*
X158724Y300000D02*
X159966D01*
X176370Y315113D02*
X178693Y312715D01*
X160845Y299121D02*
X166994Y283260D01*
X216231Y276269D02*
X220454Y272046D01*
X191449Y253213D02*
X192162Y252500D01*
X87500Y244065D02*
Y255000D01*
X78500Y235065D02*
X87500Y244065D01*
X125000Y334549D02*
Y337500D01*
X120394Y329943D02*
X125000Y334549D01*
X120394Y315713D02*
Y329943D01*
X160417Y385361D02*
X164575Y386686D01*
X157127Y372150D02*
X157815D01*
X152066Y380497D02*
X160417Y385361D01*
X157815Y372150D02*
X167500Y377500D01*
X193543Y384626D02*
X194625D01*
X168443Y387094D02*
X193543Y384626D01*
X137500Y365932D02*
X152066Y380497D01*
X260000Y250000D02*
X262143Y252143D01*
Y257674D02*
X262500Y258031D01*
X262143Y252143D02*
Y257674D01*
X308673Y279757D02*
X308791Y280665D01*
X302500Y279291D02*
X302500Y271912D01*
X307836Y306280D02*
X308357Y306800D01*
X300587Y287921D02*
X302500Y279291D01*
X305455Y303029D02*
X307836Y306280D01*
X300725Y292629D02*
X302939Y300439D01*
X297500Y302257D02*
Y303500D01*
X297500Y279291D02*
X297500Y271912D01*
X296879Y290705D02*
X297500Y302257D01*
X306313Y262954D02*
X308673Y279757D01*
X302939Y300439D02*
X305250Y302750D01*
X296885Y289185D02*
X297500Y279291D01*
X294150Y308532D02*
X298309Y313417D01*
X298574Y313835D01*
X286150Y301468D02*
Y346150D01*
X401465Y346043D02*
X401467Y346038D01*
X366189Y360724D02*
X370000Y364767D01*
X401467Y346038D02*
X403952Y339750D01*
X395479Y352266D02*
X398186Y350285D01*
X392500Y342500D02*
X395871Y334129D01*
X391621Y341621D02*
X392500Y342500D01*
X381036Y340439D02*
X391621Y341621D01*
X378935Y364767D02*
X395479Y352266D01*
X379794Y340439D02*
X381036D01*
X395871Y334129D02*
X396513Y333487D01*
X396749Y333251D01*
X403952Y339750D02*
X406095D01*
X353900Y179746D02*
Y180982D01*
X354539Y159093D02*
X354693Y158939D01*
X352634Y166267D02*
X354539Y159093D01*
X353850Y173968D02*
X353900Y179746D01*
X354693Y158939D02*
X357500Y156132D01*
X352432Y156250D02*
X353750Y154932D01*
X318750Y113250D02*
X342558Y113400D01*
X352872Y113689D02*
X353311Y114128D01*
X311250Y105750D02*
X318750Y113250D01*
X296000Y130000D02*
Y141499D01*
X333699Y149339D02*
X340610Y156250D01*
X333260Y148900D02*
X333699Y149339D01*
X331850Y159968D02*
X345850Y173968D01*
X323471Y147909D02*
X333260Y148900D01*
X331604Y261661D02*
X333104Y254051D01*
X328639Y270992D02*
X331604Y261661D01*
X306155Y255000D02*
X312626Y264831D01*
X310000Y182500D02*
X310622D01*
X235000Y188078D02*
Y200000D01*
X234991Y188069D02*
X235000Y188078D01*
X181953Y166455D02*
X189074Y173577D01*
X102500Y172500D02*
X111954Y163486D01*
X65196Y167696D02*
X67225D01*
X57000Y159500D02*
X65196Y167696D01*
X454432Y245250D02*
X469750D01*
X485000Y230000D01*
X460015Y275075D02*
X460075D01*
X463860Y257797D02*
X465466Y259403D01*
Y266397D01*
X460075Y275075D02*
X462500Y277500D01*
X465466Y266397D02*
X470500Y271432D01*
X473500Y275250D02*
X480500Y277500D01*
X470500Y271432D02*
X473500Y275250D01*
X470442Y309750D02*
X478250D01*
X480500Y307500D01*
X465502Y295250D02*
X478250D01*
X464873Y294621D02*
X465502Y295250D01*
X262500Y258031D02*
Y271912D01*
X271621Y240000D02*
X272500Y240879D01*
Y271912D01*
X222779Y240879D02*
Y255529D01*
Y240879D02*
X223658Y240000D01*
X271621D01*
X219279Y238221D02*
Y254079D01*
Y238221D02*
X272500Y185000D01*
X217046Y256312D02*
X219279Y254079D01*
X218496Y259812D02*
X222779Y255529D01*
X333104Y250921D02*
Y254051D01*
X330871Y248687D02*
X333104Y250921D01*
X321912Y207500D02*
X329291Y207500D01*
X338560Y206015D01*
X340074Y205900D02*
X351650D01*
X440227Y352750D02*
X449977Y362500D01*
X477682D02*
X490500Y349682D01*
X449977Y362500D02*
X477682D01*
X220454Y272046D02*
X220801Y265285D01*
X221208Y264878D01*
X227234Y258852D01*
X189456Y173577D02*
X190774Y174895D01*
Y175277D02*
X192998Y177500D01*
X161620Y181927D02*
X192182Y185500D01*
X194181Y187499D01*
X189074Y173577D02*
X189456D01*
X192998Y177500D02*
X208088D01*
X190774Y174895D02*
Y175277D01*
X187775Y180277D02*
X200709Y182500D01*
X194181Y187499D02*
X208088D01*
X200709Y182500D02*
X208088Y182500D01*
X185924Y178427D02*
X187775Y180277D01*
X222279Y201029D02*
X222779Y200529D01*
X222279Y173971D02*
X222779Y174471D01*
X203000Y83000D02*
Y169121D01*
X203879Y170000D01*
X222279Y172279D02*
Y173971D01*
X203879Y170000D02*
X220000D01*
X222779Y174471D02*
Y200529D01*
X222279Y201029D02*
Y201079D01*
X217046Y173687D02*
X219279Y175921D01*
Y199079D01*
X220000Y170000D02*
X222279Y172279D01*
X208088Y202500D02*
X215858D01*
X219279Y199079D01*
X199500Y85618D02*
Y172309D01*
X200879Y173687D01*
X217046D01*
X90879Y315850D02*
X99350D01*
X90000Y308492D02*
Y314971D01*
X90879Y315850D01*
X90000Y308492D02*
X93500Y304992D01*
Y298167D02*
X94000Y297667D01*
Y294617D02*
Y297667D01*
X93500Y298167D02*
Y304992D01*
X81750Y312500D02*
X85500Y308750D01*
Y303882D02*
Y308750D01*
X94813Y285187D02*
X103813D01*
X89500Y290500D02*
Y299881D01*
Y290500D02*
X94813Y285187D01*
X98318Y290299D02*
X105382D01*
X94000Y294617D02*
X98318Y290299D01*
X114500Y317250D02*
X115250D01*
X141000Y345251D02*
X144250Y348500D01*
X85500Y303882D02*
X89500Y299881D01*
X86000Y279750D02*
Y298432D01*
X80000Y273750D02*
X86000Y279750D01*
X81932Y302500D02*
X86000Y298432D01*
X236351Y280880D02*
X237500Y279731D01*
Y271912D02*
Y279731D01*
X236351Y280880D02*
Y299837D01*
X301021Y169378D02*
X305621D01*
X155175Y355207D02*
Y356621D01*
X152000Y343568D02*
Y353432D01*
X151675Y343243D02*
X152000Y343568D01*
X155175Y356621D02*
X156054Y357500D01*
X150183Y355250D02*
X152000Y353432D01*
X156054Y357500D02*
X180250D01*
X155500Y342118D02*
Y354882D01*
X155175Y341793D02*
X155500Y342118D01*
X155175Y355207D02*
X155500Y354882D01*
X232465Y304344D02*
Y304545D01*
X253000Y335000D02*
X259121Y341121D01*
X274500D01*
X272500Y343121D02*
X274500Y341121D01*
X225000Y367500D02*
Y405000D01*
X292850Y306850D02*
X294150Y308532D01*
X291000Y305000D02*
X292850Y306850D01*
X305250Y302750D02*
X305455Y303029D01*
X287500Y279731D02*
X288500Y280731D01*
X287500Y271912D02*
Y279731D01*
X282500Y279683D02*
X285000Y282183D01*
X286150Y301468D02*
X288500Y299118D01*
X285000Y282183D02*
Y297668D01*
X288500Y280731D02*
Y299118D01*
X282650Y300018D02*
X285000Y297668D01*
X277500Y264141D02*
X286641Y255000D01*
X306155D01*
X304079Y260721D02*
X306313Y262954D01*
X282500Y264141D02*
X285921Y260721D01*
X304079D01*
X367967Y202649D02*
X369068Y203750D01*
X372000Y199500D02*
X380000D01*
X370000Y197500D02*
X372000Y199500D01*
X355525Y197500D02*
X370000D01*
X321912Y202500D02*
X329683D01*
X331183Y201000D01*
X365000Y226500D02*
X366501Y225000D01*
X364121Y238146D02*
X365000Y237268D01*
X343353Y238146D02*
X364121D01*
X365000Y226500D02*
Y237268D01*
X360251Y219318D02*
Y230182D01*
X358432Y232000D02*
X360251Y230182D01*
Y219318D02*
X361568Y218000D01*
X304000Y130000D02*
Y149017D01*
X302500Y150517D02*
X304000Y149017D01*
X302500Y150517D02*
Y158088D01*
X291150Y125050D02*
X293000Y123200D01*
X288688Y149129D02*
X289000Y148817D01*
X298751Y105000D02*
Y105750D01*
X293000Y111500D02*
X298751Y105750D01*
X293000Y111500D02*
Y123200D01*
X291150Y125050D02*
Y141599D01*
X287650Y143049D02*
X289000Y144399D01*
X292500Y142949D02*
Y158088D01*
X291150Y141599D02*
X292500Y142949D01*
X289000Y144399D02*
Y148817D01*
X354693Y158939D02*
X354693D01*
X340610Y156250D02*
X352432D01*
X303690Y39750D02*
X319637D01*
X339083Y51423D01*
X231000Y73500D02*
Y126159D01*
X217500Y60000D02*
X231000Y73500D01*
X237500Y127709D02*
Y158088D01*
X238250Y58250D02*
Y123510D01*
X248750Y119161D02*
X257500Y127911D01*
X210000Y29999D02*
X238250Y58250D01*
X215000Y40000D02*
X234750Y59750D01*
X241750Y122060D02*
X247500Y127810D01*
X241750Y43180D02*
X243095Y41835D01*
X242500Y127760D02*
Y158088D01*
X247500Y127810D02*
Y158088D01*
X253893Y45696D02*
X277745D01*
X234750Y59750D02*
Y124960D01*
X245250Y120611D02*
X252500Y127861D01*
X245250Y44630D02*
X260000Y29880D01*
X234750Y124960D02*
X237500Y127709D01*
X232500Y127660D02*
Y158088D01*
X248750Y50840D02*
X253893Y45696D01*
X241750Y43180D02*
Y122060D01*
X231000Y126159D02*
X232500Y127660D01*
X245250Y44630D02*
Y120611D01*
X248750Y50840D02*
Y119161D01*
X243095Y37975D02*
Y41835D01*
X238250Y123510D02*
X242500Y127760D01*
X252500Y127861D02*
Y158088D01*
X158871Y34614D02*
Y38871D01*
X155879Y31621D02*
X158871Y34614D01*
X23000Y32000D02*
Y57544D01*
Y32000D02*
X35000Y20000D01*
X166070Y15000D02*
X175130Y24060D01*
X342382Y192500D02*
X353900Y180982D01*
X351650Y205900D02*
X353500Y207499D01*
X321912Y227499D02*
X329291Y227499D01*
X330871Y226312D01*
X310622Y182500D02*
X310622Y182500D01*
X200709Y217500D02*
X208088Y217500D01*
X192162Y252500D02*
X208088D01*
X207777Y242811D02*
X208088Y242500D01*
X194625Y384626D02*
X197500Y387500D01*
X156400Y372150D02*
X157127D01*
X146553Y299820D02*
X158724Y300000D01*
X135251Y306000D02*
X140811Y300439D01*
X141251Y300000D01*
X146089Y299825D01*
X374044Y346189D02*
X379794Y340439D01*
X495357Y270357D02*
Y275357D01*
X492500Y267500D02*
X495357Y270357D01*
Y275357D02*
X497500Y277500D01*
X455000Y114716D02*
X455000Y115338D01*
X315000Y170000D02*
X316400Y168600D01*
X455000Y115338D02*
X455879Y116216D01*
X455000Y98019D02*
Y114716D01*
X455879Y116216D02*
X462484Y122516D01*
X318493Y105000D02*
X339083D01*
X462500Y277500D02*
X473500Y285250D01*
X432750Y247250D02*
X454432Y245250D01*
X430500Y249500D02*
X432750Y247250D01*
X504750Y259750D02*
X505000Y260000D01*
X482750Y259750D02*
X504750D01*
X200129Y437250D02*
X210000Y427379D01*
Y424999D02*
Y427379D01*
X286621Y92500D02*
X287500Y91621D01*
X281250Y92500D02*
X286621D01*
X232465Y303723D02*
Y304344D01*
X452250Y237750D02*
X458134D01*
X97500Y237500D02*
X104100Y230900D01*
X361568Y207568D02*
Y218000D01*
X361500Y207499D02*
X361568Y207568D01*
X347569Y231000D02*
X348568Y232000D01*
X358432D01*
X342500Y231000D02*
X347569D01*
X380000Y187500D02*
X391621D01*
X321912Y232499D02*
X341001D01*
X342500Y231000D01*
X393000Y138750D02*
X395375Y141125D01*
X396750Y142500D01*
X340999Y237500D02*
X342500Y239000D01*
X321912Y237500D02*
X340999D01*
X370000Y350000D02*
X373811Y346189D01*
X370000Y350000D02*
Y350233D01*
X373811Y346189D02*
X374044D01*
X406095Y333251D02*
X416750D01*
X396749D02*
X406095D01*
X411250Y287500D02*
X434499D01*
X409500D02*
X411250D01*
X189000Y202500D02*
X194000Y197500D01*
X208088D01*
X190000Y192500D02*
X208088D01*
X189000Y190000D02*
X190000Y191000D01*
Y192500D01*
X163069Y178427D02*
X185924D01*
X264318Y312750D02*
X276621D01*
X277500Y289682D02*
Y311871D01*
X276621Y312750D02*
X277500Y311871D01*
X232465Y303723D02*
X236351Y299837D01*
X227234Y258852D02*
X252211D01*
X257500Y264141D01*
X272500Y158088D02*
Y185000D01*
X138379Y355250D02*
X150183D01*
X137500Y356129D02*
X138379Y355250D01*
X137500Y356129D02*
Y365932D01*
X458000Y336875D02*
Y350000D01*
X455350Y334225D02*
X458000Y336875D01*
X455350Y326850D02*
Y334225D01*
X453500Y325000D02*
X455350Y326850D01*
X222500Y212500D02*
X235000Y200000D01*
X310622Y182500D02*
X321912D01*
X280000Y216419D02*
Y217500D01*
X208088Y212500D02*
X222500D01*
X370000Y86500D02*
Y143500D01*
X480500Y257500D02*
X482750Y259750D01*
X480500Y267500D02*
X492500D01*
X480500Y267500D02*
X480500Y267500D01*
X281250Y92500D02*
Y101799D01*
X433905Y333251D02*
X445249D01*
X453500Y325000D01*
X455350Y344350D02*
X456625Y345625D01*
X420000Y331750D02*
Y333750D01*
Y330000D02*
Y331750D01*
X428000Y341750D02*
X436568D01*
X453568Y358750D02*
X462432D01*
X463750Y357432D01*
X461500Y340318D02*
X463750Y342568D01*
X420000Y333750D02*
X428000Y341750D01*
X436568D02*
X453568Y358750D01*
X461500Y325000D02*
Y340318D01*
X463750Y342568D02*
Y357432D01*
X428000Y339750D02*
X433905D01*
X420000Y331750D02*
X428000Y339750D01*
X378935Y364767D02*
X393005D01*
X370000D02*
X378935D01*
X480500Y317500D02*
X485250D01*
X490500Y322750D01*
X405022Y352750D02*
X440227D01*
X393005Y364767D02*
X405022Y352750D01*
X490500Y322750D02*
Y349682D01*
X430750Y272750D02*
X433000Y275000D01*
X410000Y249000D02*
X430750Y269750D01*
Y272750D01*
X410000Y248018D02*
Y249000D01*
Y231981D02*
Y232689D01*
X399500Y238757D02*
X401257Y237000D01*
X405689D01*
X410000Y232689D01*
X399500Y238757D02*
Y256045D01*
X409500Y266045D02*
Y287500D01*
X399500Y256045D02*
X409500Y266045D01*
X473250Y325000D02*
X475751Y327500D01*
X461500Y325000D02*
X473250D01*
X475751Y327500D02*
X479250D01*
X430000Y249500D02*
X430500D01*
X473500Y285250D02*
X480500Y287500D01*
X325000Y138019D02*
X345000D01*
Y141499D01*
X347000Y143500D01*
X450000Y240000D02*
X452250Y237750D01*
X430000Y230500D02*
X453000Y207500D01*
X449000Y160250D02*
Y165000D01*
Y160250D02*
X458150Y151100D01*
Y144350D02*
Y151100D01*
Y144350D02*
X460000Y142500D01*
X416750Y333251D02*
X420000Y330000D01*
Y296250D02*
Y330000D01*
X411250Y287500D02*
X420000Y296250D01*
X282500Y264141D02*
Y279683D01*
X325130Y417890D02*
Y430270D01*
X335232Y436330D02*
X336152Y437250D01*
X350680D01*
X331189Y436330D02*
X335232D01*
X478250Y295250D02*
X480500Y297500D01*
X57000Y155000D02*
Y159500D01*
X287499Y156899D02*
X288688D01*
X287499Y158088D02*
X287499Y156899D01*
X288688Y149129D02*
Y156899D01*
X212500Y375000D02*
Y397500D01*
X210000Y400000D02*
X212500Y397500D01*
X200000Y412500D02*
X217500D01*
X225000Y405000D01*
X197500Y387500D02*
Y410000D01*
X200000Y412500D01*
X329291Y247500D02*
X330871Y248687D01*
X321912Y247500D02*
X329291Y247500D01*
X519250Y340500D02*
X519250Y340500D01*
X257500Y127911D02*
Y158088D01*
X262500Y127961D02*
Y158088D01*
X275921Y146896D02*
X279079D01*
X282500Y150317D01*
Y158088D01*
X315000Y170000D02*
X333500D01*
X297500Y158088D02*
Y165858D01*
Y150269D02*
Y158088D01*
Y165858D02*
X301021Y169378D01*
X333500Y170000D02*
X341000Y177500D01*
X314533Y177499D02*
X321912D01*
X345850Y174350D02*
X349000Y177500D01*
X345850Y173968D02*
Y174350D01*
X305001Y98000D02*
X316493D01*
X78000Y336250D02*
X81750Y332500D01*
X114500Y310750D02*
X115250D01*
X117750Y313250D01*
X117932D01*
X120394Y315713D01*
X113500Y348500D02*
X144250D01*
X102500Y319000D02*
Y337500D01*
X113500Y348500D01*
X98700Y298299D02*
X101850Y295149D01*
X97000Y299617D02*
Y306681D01*
Y299617D02*
X98318Y298299D01*
X97000Y306681D02*
X99469Y309149D01*
X98318Y298299D02*
X98700D01*
X99469Y309149D02*
X100650D01*
X102500Y311000D01*
X106700Y291617D02*
Y298681D01*
X104082Y301299D02*
X106700Y298681D01*
X99350Y315850D02*
X102500Y319000D01*
X103813Y285187D02*
X115750Y273250D01*
X101850Y303149D02*
X103700Y301299D01*
X105382Y290299D02*
X106700Y291617D01*
X103700Y301299D02*
X104082D01*
X144250Y348500D02*
X145000D01*
X175440Y332814D02*
X176750Y334125D01*
X175000Y332375D02*
X175440Y332814D01*
X135251Y306000D02*
Y306932D01*
X133932Y308250D02*
X135251Y306932D01*
X130500Y310750D02*
X131250D01*
X132250Y309750D01*
X133129Y308250D02*
X133932D01*
X132250Y309129D02*
X133129Y308250D01*
X132250Y309129D02*
Y309750D01*
X127251Y306750D02*
X129750Y304250D01*
X127069Y306750D02*
X127251D01*
X125750Y308068D02*
X127069Y306750D01*
X125750Y308068D02*
Y319932D01*
X81750Y332500D02*
Y378216D01*
X103534Y400000D01*
X135000D01*
X285000Y27500D02*
X296751D01*
X297630Y28379D02*
Y33690D01*
X296751Y27500D02*
X297190Y27939D01*
X297190Y27939D02*
X297630Y28379D01*
X235000Y27500D02*
Y29880D01*
X243095Y37975D01*
X25750Y312500D02*
Y332500D01*
Y272500D02*
Y292500D01*
X175130Y24060D02*
Y37630D01*
X197500Y60000D01*
X410000Y27500D02*
Y28224D01*
X416637Y34861D01*
X417610D01*
X417749Y35000D01*
X385000Y27500D02*
Y29880D01*
X321912Y242500D02*
X329683D01*
X260000Y27500D02*
Y29880D01*
X227500Y90000D02*
Y158088D01*
X197500Y60000D02*
X227500Y90000D01*
X208088Y207500D02*
X215858D01*
X222279Y201079D01*
X129750Y304250D02*
X130500D01*
X146750Y362500D02*
X156400Y372150D01*
X130500Y297750D02*
X134750D01*
X257500Y264141D02*
Y271912D01*
X146750Y362500D02*
X180250D01*
X146000D02*
X146750D01*
X360000Y425000D02*
Y427930D01*
X350680Y437250D02*
X360000Y427930D01*
X155879Y31621D02*
X160000Y27500D01*
X135000D02*
Y41790D01*
X140710Y47500D01*
X191440Y38939D02*
X192500Y40000D01*
X215000D01*
X185000Y27500D02*
Y31536D01*
X191440Y37975D01*
Y38939D01*
X115750Y272500D02*
Y273250D01*
X80000Y272500D02*
Y273750D01*
X321912Y192500D02*
X342382D01*
X342500Y239000D02*
X343353Y238146D01*
X232500Y271912D02*
Y291500D01*
X227500Y271912D02*
Y284271D01*
X225351Y286420D02*
X227500Y284271D01*
X225351Y286420D02*
Y290650D01*
X165000Y343500D02*
X170000D01*
X252500Y271912D02*
Y292978D01*
Y292978D01*
X437000Y256000D02*
Y275000D01*
X433000D02*
X437000D01*
X165000Y351500D02*
X170000D01*
X102952Y304250D02*
X114500D01*
X101850Y303149D02*
X102952Y304250D01*
X170500Y352000D02*
X179750D01*
X170000Y351500D02*
X170500Y352000D01*
X170000Y343500D02*
X174000Y347500D01*
X180250D01*
X431000Y250000D02*
X437000Y256000D01*
X430500Y249500D02*
X431000Y250000D01*
X334999Y421700D02*
Y424080D01*
Y421700D02*
X346830Y409870D01*
Y394600D02*
Y409870D01*
Y394600D02*
X358225Y383205D01*
X358606D01*
X370000Y371811D01*
Y364767D02*
Y371811D01*
X424594Y332094D02*
X426129Y333629D01*
X455000Y81981D02*
Y82963D01*
X446621Y91341D02*
X455000Y82963D01*
X446621Y91341D02*
Y142500D01*
X393000Y138750D02*
Y143500D01*
X370000Y145000D02*
X390000Y165000D01*
X416000D01*
X455000Y81981D02*
X457500Y79481D01*
X366501Y224250D02*
X369750Y221000D01*
X366501Y224250D02*
Y225000D01*
X353500D02*
X354500Y224000D01*
X209251Y324250D02*
X211500Y326500D01*
Y334000D01*
X188500Y326500D02*
Y334000D01*
X190750Y324250D02*
X194751D01*
X188500Y326500D02*
X190750Y324250D01*
X194751D02*
X196000Y323000D01*
X211500Y334000D02*
X212500Y335000D01*
X187500D02*
X188500Y334000D01*
X102749Y310750D02*
X114500D01*
X102500Y311000D02*
X102749Y310750D01*
X104250Y317250D02*
X114500D01*
X102500Y319000D02*
X104250Y317250D01*
X80000Y291250D02*
Y292500D01*
X74000Y285250D02*
X80000Y291250D01*
X74000Y266567D02*
Y285250D01*
Y266567D02*
X75568Y265000D01*
X49250Y292500D02*
X65001D01*
X49250Y312500D02*
X68250D01*
X49250Y332500D02*
X68250D01*
Y332500D02*
Y332500D01*
X81750Y330000D02*
Y330750D01*
X49250Y272500D02*
X65000D01*
X396750Y142500D02*
X446621D01*
X321912Y177499D02*
X339501D01*
X477000Y329750D02*
X479250Y327500D01*
X477000Y329750D02*
Y350000D01*
X179750Y352000D02*
X180250Y352500D01*
X210000Y27500D02*
Y29999D01*
X145000Y361500D02*
X146000Y362500D01*
X274500Y320000D02*
Y341121D01*
X252500Y335000D02*
X253000D01*
X252500Y292978D02*
X252521D01*
X262293Y302750D01*
X266750D01*
X270000Y306000D01*
X267500Y271912D02*
Y279682D01*
X277500Y289682D01*
X242500Y351750D02*
X245750Y355000D01*
X242500Y350000D02*
Y351750D01*
X240000Y347500D02*
X242500Y350000D01*
X219750Y347500D02*
X240000D01*
X277500Y264141D02*
Y271912D01*
X177750Y342500D02*
X180250D01*
X176750Y341499D02*
X177750Y342500D01*
X176750Y334125D02*
Y341499D01*
X217250Y367499D02*
X217251Y367500D01*
X297500Y150269D02*
X299500Y148268D01*
Y145000D02*
Y148268D01*
X296000Y141499D02*
X299500Y145000D01*
X292500Y271912D02*
Y303500D01*
X291000Y305000D02*
X292500Y303500D01*
D87*
X41910Y223970D02*
X79560D01*
X41910Y217470D02*
X76173D01*
X90025Y213505D02*
X130428D01*
X79560Y223970D02*
X90025Y213505D01*
X76173Y217470D02*
X86488Y207155D01*
X127797D01*
X141877Y193075D01*
X178925D01*
X146086Y199425D02*
X178925D01*
X130428Y213505D02*
X144508Y199425D01*
X146086Y199425D01*
X178925Y200425D02*
X181000Y202500D01*
X178925Y199425D02*
Y200425D01*
Y192075D02*
X181000Y190000D01*
X178925Y192075D02*
Y193075D01*
D88*
X436499Y302501D02*
X440499D01*
X440959Y302961D01*
Y306397D01*
X442500Y307938D01*
Y310000D01*
X433905Y320250D02*
X448751D01*
X453500Y325000D01*
X443958Y315457D02*
X448751Y320250D01*
X443958Y311458D02*
Y315457D01*
X442500Y310000D02*
X443958Y311458D01*
D89*
X129250Y271750D02*
X134785Y266215D01*
X129250Y271750D02*
Y272500D01*
D90*
X41440Y193440D02*
D03*
Y243440D02*
D03*
D91*
X49022Y92456D02*
D03*
X38862Y41656D02*
D03*
X28702Y92456D02*
D03*
D92*
X110000Y70000D02*
D03*
X415000Y375000D02*
D03*
Y70000D02*
D03*
X110000Y375000D02*
D03*
D93*
X385000Y425000D02*
D03*
X385000Y400000D02*
D03*
X360000D02*
D03*
X360000Y425000D02*
D03*
X334999Y424080D02*
D03*
X335000Y400000D02*
D03*
X310000D02*
D03*
X310000Y424999D02*
D03*
X285000D02*
D03*
Y400000D02*
D03*
X260000D02*
D03*
Y424999D02*
D03*
X235000Y425000D02*
D03*
X210000Y400000D02*
D03*
Y424999D02*
D03*
X185000Y425000D02*
D03*
X185000Y400000D02*
D03*
X160000D02*
D03*
Y424999D02*
D03*
X135000Y425000D02*
D03*
Y400000D02*
D03*
X410000Y27500D02*
D03*
X385000D02*
D03*
X360000D02*
D03*
X335000Y27500D02*
D03*
X307500D02*
D03*
X285000D02*
D03*
X260000D02*
D03*
X235000D02*
D03*
X185000D02*
D03*
X160000D02*
D03*
X135000D02*
D03*
X235000Y400000D02*
D03*
X210000Y27500D02*
D03*
D94*
X176224Y244140D02*
D03*
X182884Y263043D02*
D03*
X135167Y241018D02*
D03*
X378460Y50800D02*
D03*
X73660Y353060D02*
D03*
X53340Y347980D02*
D03*
X110490Y26670D02*
D03*
X39370Y107950D02*
D03*
X442500Y310000D02*
D03*
X461017Y311896D02*
D03*
X140000Y265000D02*
D03*
X270000Y355000D02*
D03*
X295933Y357860D02*
D03*
X315000Y355000D02*
D03*
X144456Y68039D02*
D03*
X113097Y249460D02*
D03*
X315575Y314617D02*
D03*
X165080Y214964D02*
D03*
X331780Y77488D02*
D03*
X189967Y320411D02*
D03*
X339743Y217618D02*
D03*
X278178Y215961D02*
D03*
X285889Y53840D02*
D03*
X297260Y67974D02*
D03*
X434610Y174894D02*
D03*
X344553Y125000D02*
D03*
X198199Y294622D02*
D03*
X427140Y204901D02*
D03*
X330000Y95107D02*
D03*
X466594Y230983D02*
D03*
X183501Y213636D02*
D03*
X165147Y317068D02*
D03*
X242471Y310097D02*
D03*
X346371Y272556D02*
D03*
X297644Y190239D02*
D03*
X454982Y62656D02*
D03*
X450670Y45490D02*
D03*
X487500Y202500D02*
D03*
X141834Y286835D02*
D03*
X311717Y291837D02*
D03*
X140360Y317487D02*
D03*
X150000Y180000D02*
D03*
X132500Y172500D02*
D03*
X79459Y39459D02*
D03*
X315640Y51615D02*
D03*
X453964Y378149D02*
D03*
X463908Y401079D02*
D03*
X444529Y28707D02*
D03*
X278140Y119610D02*
D03*
X304267Y118510D02*
D03*
X320986Y157774D02*
D03*
X361950Y168742D02*
D03*
X417500Y190000D02*
D03*
X217190Y296580D02*
D03*
X76725Y120105D02*
D03*
X172500Y167500D02*
D03*
X361816Y69317D02*
D03*
X401890Y177500D02*
D03*
X312500Y80000D02*
D03*
X332425Y59800D02*
D03*
X166994Y283260D02*
D03*
X180776Y297740D02*
D03*
X155241Y251977D02*
D03*
X87500Y255000D02*
D03*
X125000Y337500D02*
D03*
X167500Y377500D02*
D03*
X260000Y250000D02*
D03*
X300199Y239827D02*
D03*
X282500Y240000D02*
D03*
X312500Y335000D02*
D03*
X347500Y355000D02*
D03*
X392500Y342500D02*
D03*
X452150Y189643D02*
D03*
X328639Y270992D02*
D03*
X234991Y188069D02*
D03*
X102500Y172500D02*
D03*
X67225Y167696D02*
D03*
X485000Y230000D02*
D03*
X463860Y257797D02*
D03*
X460015Y275075D02*
D03*
X505000Y260000D02*
D03*
X464873Y294621D02*
D03*
X287500Y379100D02*
D03*
X497500Y277500D02*
D03*
X462484Y122516D02*
D03*
X97500Y237500D02*
D03*
X475000Y110000D02*
D03*
X497500Y122500D02*
D03*
X500000Y142500D02*
D03*
X55957Y120621D02*
D03*
X460000Y142500D02*
D03*
X102500Y337500D02*
D03*
X217500Y60000D02*
D03*
X197500D02*
D03*
M02*
