G04*
G04 #@! TF.GenerationSoftware,Altium Limited,Altium Designer,23.4.1 (23)*
G04*
G04 Layer_Color=8388736*
%FSLAX44Y44*%
%MOMM*%
G71*
G04*
G04 #@! TF.SameCoordinates,E8E7B276-8895-4430-90FA-F2E57970A6A3*
G04*
G04*
G04 #@! TF.FilePolarity,Negative*
G04*
G01*
G75*
%ADD18R,0.5725X0.5682*%
G04:AMPARAMS|DCode=23|XSize=0.3125mm|YSize=1.7883mm|CornerRadius=0.1562mm|HoleSize=0mm|Usage=FLASHONLY|Rotation=180.000|XOffset=0mm|YOffset=0mm|HoleType=Round|Shape=RoundedRectangle|*
%AMROUNDEDRECTD23*
21,1,0.3125,1.4758,0,0,180.0*
21,1,0.0000,1.7883,0,0,180.0*
1,1,0.3125,0.0000,0.7379*
1,1,0.3125,0.0000,0.7379*
1,1,0.3125,0.0000,-0.7379*
1,1,0.3125,0.0000,-0.7379*
%
%ADD23ROUNDEDRECTD23*%
G04:AMPARAMS|DCode=24|XSize=1.7883mm|YSize=0.3125mm|CornerRadius=0.1562mm|HoleSize=0mm|Usage=FLASHONLY|Rotation=180.000|XOffset=0mm|YOffset=0mm|HoleType=Round|Shape=RoundedRectangle|*
%AMROUNDEDRECTD24*
21,1,1.7883,0.0000,0,0,180.0*
21,1,1.4758,0.3125,0,0,180.0*
1,1,0.3125,-0.7379,0.0000*
1,1,0.3125,0.7379,0.0000*
1,1,0.3125,0.7379,0.0000*
1,1,0.3125,-0.7379,0.0000*
%
%ADD24ROUNDEDRECTD24*%
%ADD25R,1.7883X0.3125*%
%ADD28R,0.8000X1.7000*%
%ADD33R,2.8400X6.8000*%
%ADD34R,1.0121X1.2084*%
%ADD35R,0.5200X0.5200*%
%ADD36R,0.5200X0.5200*%
%ADD37R,0.7500X1.0000*%
%ADD38R,1.1000X2.0500*%
%ADD43R,1.2500X1.1000*%
%ADD44R,0.5000X0.3500*%
G04:AMPARAMS|DCode=50|XSize=0.7311mm|YSize=0.3025mm|CornerRadius=0.1512mm|HoleSize=0mm|Usage=FLASHONLY|Rotation=180.000|XOffset=0mm|YOffset=0mm|HoleType=Round|Shape=RoundedRectangle|*
%AMROUNDEDRECTD50*
21,1,0.7311,0.0000,0,0,180.0*
21,1,0.4286,0.3025,0,0,180.0*
1,1,0.3025,-0.2143,0.0000*
1,1,0.3025,0.2143,0.0000*
1,1,0.3025,0.2143,0.0000*
1,1,0.3025,-0.2143,0.0000*
%
%ADD50ROUNDEDRECTD50*%
%ADD51R,0.9121X0.9587*%
%ADD52R,0.7000X1.3000*%
%ADD53R,0.5000X0.4000*%
%ADD54R,0.4000X0.5000*%
%ADD55R,0.7311X0.3025*%
%ADD56C,0.7032*%
%ADD57C,0.7032*%
%ADD58C,0.7870*%
%ADD59R,1.0032X1.1532*%
%ADD60R,2.0032X0.8032*%
G04:AMPARAMS|DCode=61|XSize=2.1032mm|YSize=3.4032mm|CornerRadius=0mm|HoleSize=0mm|Usage=FLASHONLY|Rotation=270.000|XOffset=0mm|YOffset=0mm|HoleType=Round|Shape=Octagon|*
%AMOCTAGOND61*
4,1,8,1.7016,0.5258,1.7016,-0.5258,1.1758,-1.0516,-1.1758,-1.0516,-1.7016,-0.5258,-1.7016,0.5258,-1.1758,1.0516,1.1758,1.0516,1.7016,0.5258,0.0*
%
%ADD61OCTAGOND61*%

%ADD62R,1.6032X0.8032*%
%ADD63R,1.5532X0.6032*%
%ADD64R,2.1032X1.7032*%
%ADD65R,1.7532X0.8032*%
%ADD66R,2.0032X1.4032*%
%ADD67R,0.7000X0.6000*%
%ADD68R,1.1032X2.3032*%
%ADD69R,3.4032X2.3032*%
%ADD70R,1.1532X1.0032*%
%ADD71R,1.0532X1.1532*%
%ADD72R,1.1032X1.2532*%
%ADD73R,0.6532X0.6532*%
%ADD74R,1.1532X1.0532*%
%ADD75R,0.5532X1.0032*%
%ADD76R,1.0532X0.5532*%
%ADD77R,2.8032X2.9032*%
%ADD78R,2.2032X0.6032*%
%ADD79R,1.7500X2.5000*%
%ADD80C,0.9910*%
%ADD81C,1.6532*%
%ADD82C,0.7500*%
%ADD83C,4.2032*%
G04:AMPARAMS|DCode=84|XSize=1.7272mm|YSize=2.2032mm|CornerRadius=0.4826mm|HoleSize=0mm|Usage=FLASHONLY|Rotation=0.000|XOffset=0mm|YOffset=0mm|HoleType=Round|Shape=RoundedRectangle|*
%AMROUNDEDRECTD84*
21,1,1.7272,1.2380,0,0,0.0*
21,1,0.7620,2.2032,0,0,0.0*
1,1,0.9652,0.3810,-0.6190*
1,1,0.9652,-0.3810,-0.6190*
1,1,0.9652,-0.3810,0.6190*
1,1,0.9652,0.3810,0.6190*
%
%ADD84ROUNDEDRECTD84*%
%ADD85C,1.4732*%
G36*
X-54867Y125510D02*
X-54737Y125484D01*
X-54611Y125441D01*
X-54491Y125382D01*
X-54380Y125308D01*
X-54280Y125220D01*
X-54192Y125120D01*
X-54118Y125009D01*
X-54059Y124890D01*
X-54017Y124764D01*
X-53991Y124633D01*
X-53982Y124500D01*
Y111500D01*
X-53991Y111367D01*
X-54017Y111237D01*
X-54059Y111110D01*
X-54118Y110991D01*
X-54192Y110880D01*
X-54280Y110780D01*
X-54380Y110692D01*
X-54491Y110618D01*
X-54611Y110559D01*
X-54737Y110517D01*
X-54867Y110491D01*
X-55000Y110482D01*
X-58982D01*
Y106500D01*
X-58990Y106367D01*
X-59016Y106237D01*
X-59059Y106111D01*
X-59088Y106052D01*
X-59118Y105991D01*
X-59192Y105880D01*
X-59280Y105780D01*
X-59280D01*
Y105780D01*
X-59380Y105693D01*
X-59491Y105619D01*
X-59551Y105589D01*
X-59610Y105560D01*
X-59736Y105517D01*
X-59867Y105491D01*
X-60000Y105482D01*
X-69000Y105482D01*
D01*
X-69000D01*
X-69133Y105491D01*
X-69264Y105517D01*
X-69390Y105559D01*
X-69449Y105589D01*
X-69509Y105618D01*
X-69620Y105692D01*
X-69720Y105780D01*
Y105780D01*
X-69720D01*
X-69808Y105880D01*
X-69882Y105991D01*
X-69912Y106052D01*
X-69941Y106110D01*
X-69984Y106236D01*
X-70010Y106367D01*
X-70018Y106500D01*
Y106500D01*
D01*
Y110482D01*
X-74000D01*
X-74133Y110491D01*
X-74264Y110517D01*
X-74390Y110559D01*
X-74509Y110618D01*
X-74620Y110692D01*
X-74720Y110780D01*
X-74808Y110880D01*
X-74882Y110991D01*
X-74941Y111110D01*
X-74984Y111237D01*
X-75010Y111367D01*
X-75018Y111500D01*
Y124500D01*
X-75010Y124633D01*
X-74984Y124764D01*
X-74941Y124890D01*
X-74882Y125009D01*
X-74808Y125120D01*
X-74720Y125220D01*
X-74620Y125308D01*
X-74509Y125382D01*
X-74390Y125441D01*
X-74264Y125484D01*
X-74133Y125510D01*
X-74000Y125518D01*
X-55000D01*
X-54867Y125510D01*
D02*
G37*
G36*
X-59867Y189510D02*
X-59737Y189484D01*
X-59611Y189441D01*
X-59552Y189412D01*
X-59491Y189382D01*
X-59380Y189308D01*
X-59280Y189220D01*
Y189220D01*
X-59280D01*
X-59192Y189120D01*
X-59118Y189009D01*
X-59089Y188949D01*
X-59059Y188890D01*
X-59017Y188764D01*
X-58991Y188633D01*
X-58982Y188500D01*
Y188500D01*
D01*
Y184518D01*
X-55000D01*
X-54867Y184510D01*
X-54737Y184484D01*
X-54611Y184441D01*
X-54491Y184382D01*
X-54380Y184308D01*
X-54280Y184220D01*
X-54192Y184120D01*
X-54118Y184009D01*
X-54059Y183890D01*
X-54017Y183764D01*
X-53991Y183633D01*
X-53982Y183500D01*
Y170500D01*
X-53991Y170367D01*
X-54017Y170237D01*
X-54059Y170110D01*
X-54118Y169991D01*
X-54192Y169880D01*
X-54280Y169780D01*
X-54380Y169692D01*
X-54491Y169618D01*
X-54611Y169559D01*
X-54737Y169517D01*
X-54867Y169491D01*
X-55000Y169482D01*
X-74000D01*
X-74133Y169491D01*
X-74264Y169517D01*
X-74390Y169559D01*
X-74509Y169618D01*
X-74620Y169692D01*
X-74720Y169780D01*
X-74808Y169880D01*
X-74882Y169991D01*
X-74941Y170110D01*
X-74984Y170237D01*
X-75010Y170367D01*
X-75018Y170500D01*
Y183500D01*
X-75010Y183633D01*
X-74984Y183764D01*
X-74941Y183890D01*
X-74882Y184009D01*
X-74808Y184120D01*
X-74720Y184220D01*
X-74620Y184308D01*
X-74509Y184382D01*
X-74390Y184441D01*
X-74264Y184484D01*
X-74133Y184510D01*
X-74000Y184518D01*
X-70019D01*
Y188500D01*
X-70010Y188633D01*
X-69984Y188763D01*
X-69941Y188890D01*
X-69912Y188948D01*
X-69882Y189009D01*
X-69808Y189120D01*
X-69720Y189220D01*
X-69720D01*
Y189220D01*
X-69620Y189308D01*
X-69510Y189382D01*
X-69449Y189412D01*
X-69390Y189441D01*
X-69264Y189483D01*
X-69133Y189509D01*
X-69000Y189518D01*
X-60000Y189518D01*
D01*
X-60000D01*
X-59867Y189510D01*
D02*
G37*
D18*
X142500Y222978D02*
D03*
Y232022D02*
D03*
D23*
X182500Y88088D02*
D03*
X177499D02*
D03*
X172500D02*
D03*
X167500D02*
D03*
X162500D02*
D03*
X157500D02*
D03*
X152500D02*
D03*
X147500D02*
D03*
X142500D02*
D03*
X137500D02*
D03*
X132500D02*
D03*
X127500D02*
D03*
X122500D02*
D03*
X117500D02*
D03*
X127500Y201912D02*
D03*
X132500D02*
D03*
X137500D02*
D03*
X142500D02*
D03*
X147500Y201912D02*
D03*
X152500Y201912D02*
D03*
X157500D02*
D03*
X162500D02*
D03*
X167500Y201912D02*
D03*
X172500D02*
D03*
X192500Y201912D02*
D03*
X117500Y201912D02*
D03*
X192500Y88088D02*
D03*
X177500Y201912D02*
D03*
X182500D02*
D03*
X187500Y88088D02*
D03*
X122500Y201912D02*
D03*
X187500Y201912D02*
D03*
D24*
X98088Y117499D02*
D03*
Y122500D02*
D03*
Y127500D02*
D03*
Y132500D02*
D03*
Y137500D02*
D03*
Y142500D02*
D03*
Y147500D02*
D03*
Y152500D02*
D03*
Y157500D02*
D03*
Y162500D02*
D03*
Y167500D02*
D03*
Y172500D02*
D03*
Y177500D02*
D03*
Y182500D02*
D03*
X211912D02*
D03*
Y177500D02*
D03*
Y172500D02*
D03*
Y167500D02*
D03*
Y157499D02*
D03*
Y152500D02*
D03*
Y147500D02*
D03*
Y142500D02*
D03*
X211912Y137500D02*
D03*
X211912Y132500D02*
D03*
Y127500D02*
D03*
Y122500D02*
D03*
Y117500D02*
D03*
Y112500D02*
D03*
X98088Y107500D02*
D03*
Y112500D02*
D03*
X211912Y162499D02*
D03*
D25*
Y107499D02*
D03*
D28*
X-53000Y85000D02*
D03*
X-87001D02*
D03*
D33*
X72500Y50000D02*
D03*
D34*
X345000Y28019D02*
D03*
Y11982D02*
D03*
X215000Y68018D02*
D03*
Y51981D02*
D03*
X185000Y268019D02*
D03*
X300000Y161981D02*
D03*
X185000Y251981D02*
D03*
X300000Y178018D02*
D03*
D35*
X232500Y161000D02*
D03*
Y169000D02*
D03*
X-8150Y233149D02*
D03*
Y225149D02*
D03*
X75925Y108427D02*
D03*
X-7500Y241000D02*
D03*
X75925Y100427D02*
D03*
X-7500Y249000D02*
D03*
D36*
X239000Y107500D02*
D03*
X231000D02*
D03*
X343500Y255000D02*
D03*
X351500D02*
D03*
X251500Y137499D02*
D03*
X189000Y235000D02*
D03*
X121501Y222500D02*
D03*
X186000Y60000D02*
D03*
X113501Y222500D02*
D03*
X181000Y235000D02*
D03*
X194000Y60000D02*
D03*
X243500Y137499D02*
D03*
D37*
X-45000Y222500D02*
D03*
X-30000D02*
D03*
X38591Y167499D02*
D03*
X53590D02*
D03*
X-45000Y202500D02*
D03*
X-30000D02*
D03*
D38*
X306000Y95000D02*
D03*
X339000D02*
D03*
D43*
X-60750Y242500D02*
D03*
X-84250D02*
D03*
Y202500D02*
D03*
Y262500D02*
D03*
Y222500D02*
D03*
X-60750Y202500D02*
D03*
Y222500D02*
D03*
Y262500D02*
D03*
D44*
X20500Y247250D02*
D03*
Y240750D02*
D03*
Y234250D02*
D03*
Y227750D02*
D03*
X4500D02*
D03*
Y234250D02*
D03*
Y240750D02*
D03*
Y247250D02*
D03*
D50*
X296095Y263251D02*
D03*
X323905Y269750D02*
D03*
X296095Y250250D02*
D03*
Y256750D02*
D03*
Y269750D02*
D03*
X323905Y263251D02*
D03*
Y256750D02*
D03*
D51*
X260000Y280233D02*
D03*
Y294767D02*
D03*
D52*
X367000Y280000D02*
D03*
X348000D02*
D03*
D53*
X55000Y281500D02*
D03*
Y273500D02*
D03*
D54*
X86000Y252500D02*
D03*
X94000D02*
D03*
D55*
X323905Y250250D02*
D03*
D56*
X-58724Y113650D02*
G03*
X-62291Y112500I-1276J-2150D01*
G01*
X-57709D02*
G03*
X-58724Y113650I-2291J-1000D01*
G01*
D02*
G03*
X-62291Y112500I-1276J-2150D01*
G01*
X-57709D02*
G03*
X-58724Y113650I-2291J-1000D01*
G01*
Y109350D02*
G03*
X-57709Y112500I-1276J2150D01*
G01*
X-62500Y111500D02*
G03*
X-58724Y109350I2500J0D01*
G01*
D02*
G03*
X-57709Y112500I-1276J2150D01*
G01*
X-62500Y111500D02*
G03*
X-58724Y109350I2500J0D01*
G01*
X-69909Y109171D02*
G03*
X-69771Y109122I909J2329D01*
G01*
X-69909Y109171D02*
G03*
X-69771Y109122I909J2329D01*
G01*
X-69771Y109122D02*
G03*
X-69229Y109011I771J2378D01*
G01*
X-69771Y109122D02*
G03*
X-69229Y109011I771J2378D01*
G01*
X-69771Y109122D02*
G03*
X-69229Y109011I771J2378D01*
G01*
X-69771Y109122D02*
G03*
X-69229Y109011I771J2378D01*
G01*
X-69228Y109010D02*
G03*
X-69000Y109000I228J2490D01*
G01*
X-69228Y109010D02*
G03*
X-69000Y109000I228J2490D01*
G01*
X-69228Y109010D02*
G03*
X-69000Y109000I228J2490D01*
G01*
X-69228Y109010D02*
G03*
X-69000Y109000I228J2490D01*
G01*
X-71291Y110500D02*
G03*
X-69910Y109171I2291J1000D01*
G01*
X-71291Y110500D02*
G03*
X-69910Y109171I2291J1000D01*
G01*
X-69909Y109171D02*
G03*
X-69771Y109122I909J2329D01*
G01*
X-69909Y109171D02*
G03*
X-69771Y109122I909J2329D01*
G01*
X-71291Y110500D02*
G03*
X-69910Y109171I2291J1000D01*
G01*
X-71291Y110500D02*
G03*
X-69910Y109171I2291J1000D01*
G01*
X-69000Y109000D02*
G03*
X-67255Y109710I0J2500D01*
G01*
X-69000Y109000D02*
G03*
X-67255Y109710I0J2500D01*
G01*
X-69000Y109000D02*
G03*
X-67255Y109710I0J2500D01*
G01*
X-69000Y109000D02*
G03*
X-67255Y109710I0J2500D01*
G01*
X-71489Y111269D02*
G03*
X-71489Y111268I2489J231D01*
G01*
X-71490Y111271D02*
G03*
X-71489Y111269I2490J229D01*
G01*
Y111269D02*
G03*
X-71489Y111268I2489J231D01*
G01*
X-71490Y111271D02*
G03*
X-71489Y111269I2490J229D01*
G01*
X-71490Y111271D02*
G03*
X-71489Y111269I2490J229D01*
G01*
Y111269D02*
G03*
X-71489Y111268I2489J231D01*
G01*
X-71489Y111269D02*
G03*
X-71489Y111268I2489J231D01*
G01*
X-71500Y111500D02*
G03*
X-71496Y111362I2500J0D01*
G01*
X-71500Y111500D02*
G03*
X-71496Y111362I2500J0D01*
G01*
X-71496Y111361D02*
G03*
X-71490Y111272I2496J139D01*
G01*
X-71496Y111362D02*
G03*
X-71496Y111361I2496J138D01*
G01*
X-71500Y111500D02*
G03*
X-71496Y111362I2500J0D01*
G01*
X-71500Y111500D02*
G03*
X-71496Y111362I2500J0D01*
G01*
X-71496Y111361D02*
G03*
X-71490Y111272I2496J139D01*
G01*
X-71496Y111362D02*
G03*
X-71496Y111361I2496J138D01*
G01*
X-71490Y111271D02*
G03*
X-71489Y111269I2490J229D01*
G01*
X-71496Y111361D02*
G03*
X-71490Y111272I2496J139D01*
G01*
X-71496Y111362D02*
G03*
X-71496Y111361I2496J138D01*
G01*
D02*
G03*
X-71490Y111272I2496J139D01*
G01*
X-71496Y111362D02*
G03*
X-71496Y111361I2496J138D01*
G01*
X-71384Y110747D02*
G03*
X-71329Y110591I2384J753D01*
G01*
X-71384Y110747D02*
G03*
X-71329Y110591I2384J753D01*
G01*
X-71384Y110747D02*
G03*
X-71329Y110591I2384J753D01*
G01*
X-71426Y110897D02*
G03*
X-71384Y110748I2426J603D01*
G01*
X-71426Y110897D02*
G03*
X-71384Y110748I2426J603D01*
G01*
X-71329Y110591D02*
G03*
X-71291Y110500I2329J909D01*
G01*
X-71329Y110591D02*
G03*
X-71291Y110500I2329J909D01*
G01*
X-71329Y110591D02*
G03*
X-71291Y110500I2329J909D01*
G01*
X-71384Y110747D02*
G03*
X-71329Y110591I2384J753D01*
G01*
X-71329Y110591D02*
G03*
X-71291Y110500I2329J909D01*
G01*
X-71426Y110897D02*
G03*
X-71384Y110748I2426J603D01*
G01*
X-71500Y111501D02*
G03*
X-71500Y111500I2500J-1D01*
G01*
X-71318Y112436D02*
G03*
X-71500Y111501I2318J-936D01*
G01*
X-71426Y110897D02*
G03*
X-71384Y110748I2426J603D01*
G01*
X-71500Y111501D02*
G03*
X-71500Y111500I2500J-1D01*
G01*
X-71318Y112436D02*
G03*
X-71500Y111501I2318J-936D01*
G01*
X-71291Y112500D02*
G03*
X-71318Y112437I2291J-1000D01*
G01*
X-71291Y112500D02*
G03*
X-71318Y112437I2291J-1000D01*
G01*
X-71291Y112500D02*
G03*
X-71318Y112437I2291J-1000D01*
G01*
X-71291Y112500D02*
G03*
X-71318Y112437I2291J-1000D01*
G01*
X-67484Y181512D02*
G03*
X-66834Y182253I-1516J1988D01*
G01*
X-67484Y181512D02*
G03*
X-66834Y182253I-1516J1988D01*
G01*
X-62291Y112500D02*
G03*
X-62428Y112096I2291J-1000D01*
G01*
X-62291Y112500D02*
G03*
X-62428Y112096I2291J-1000D01*
G01*
X-66834Y182253D02*
G03*
X-66558Y182964I-2166J1247D01*
G01*
X-66834Y182253D02*
G03*
X-66558Y182964I-2166J1247D01*
G01*
X-66558Y182965D02*
G03*
X-66509Y183290I-2442J536D01*
G01*
X-66558Y182965D02*
G03*
X-66509Y183290I-2442J536D01*
G01*
Y183290D02*
G03*
X-66500Y183468I-2491J210D01*
G01*
Y183468D02*
G03*
X-66500Y183487I-2500J32D01*
G01*
X-66500Y183468D02*
G03*
X-66500Y183487I-2500J32D01*
G01*
D02*
G03*
X-66500Y183490I-2500J14D01*
G01*
Y183490D02*
Y183491D01*
Y183487D02*
G03*
X-66500Y183490I-2500J14D01*
G01*
Y183490D02*
Y183491D01*
Y183491D02*
G03*
X-66500Y183495I-2500J9D01*
G01*
X-66500Y183491D02*
G03*
X-66500Y183495I-2500J9D01*
G01*
X-66999Y110002D02*
G03*
X-66998Y110003I-2001J1498D01*
G01*
X-66999Y110002D02*
G03*
X-66998Y110003I-2001J1498D01*
G01*
X-71489Y111268D02*
G03*
X-71427Y110900I2489J232D01*
G01*
X-71489Y111268D02*
G03*
X-71427Y110900I2489J232D01*
G01*
X-71489Y111268D02*
G03*
X-71427Y110900I2489J232D01*
G01*
X-71489Y111268D02*
G03*
X-71427Y110900I2489J232D01*
G01*
X-66709Y112501D02*
G03*
X-71291Y112500I-2291J-1001D01*
G01*
X-66997Y110003D02*
G03*
X-66709Y112500I-2003J1497D01*
G01*
X-66709Y112501D02*
G03*
X-71291Y112500I-2291J-1001D01*
G01*
X-66709Y112501D02*
G03*
X-71291Y112500I-2291J-1001D01*
G01*
X-66709Y112501D02*
G03*
X-71291Y112500I-2291J-1001D01*
G01*
X-66997Y110003D02*
G03*
X-66709Y112500I-2003J1497D01*
G01*
X-66709Y112500D02*
X-66709Y112501D01*
X-66709Y112500D02*
X-66709Y112501D01*
X-66500Y183495D02*
G03*
X-66500Y183500I-2500J5D01*
G01*
Y183495D02*
G03*
X-66500Y183500I-2500J5D01*
G01*
X-70106Y181258D02*
G03*
X-69907Y181171I1106J2242D01*
G01*
X-70106Y181258D02*
G03*
X-69907Y181171I1106J2242D01*
G01*
X-71130Y182192D02*
G03*
X-70106Y181258I2130J1309D01*
G01*
X-71500Y183500D02*
G03*
X-71130Y182192I2500J0D01*
G01*
X-67907Y181252D02*
G03*
X-67753Y181334I-1094J2248D01*
G01*
X-69907Y181170D02*
G03*
X-67907Y181252I907J2330D01*
G01*
X-71500Y183500D02*
G03*
X-71130Y182192I2500J0D01*
G01*
D02*
G03*
X-70106Y181258I2130J1309D01*
G01*
X-67907Y181252D02*
G03*
X-67753Y181334I-1094J2248D01*
G01*
X-67752Y181334D02*
G03*
X-67484Y181512I-1248J2166D01*
G01*
X-67752Y181334D02*
G03*
X-67484Y181512I-1248J2166D01*
G01*
X-69907Y181170D02*
G03*
X-67907Y181252I907J2330D01*
G01*
X-66500Y183500D02*
G03*
X-71500Y183500I-2500J0D01*
G01*
X-71427Y110900D02*
X-71427Y110899D01*
X-71427Y110900D02*
X-71427Y110899D01*
X-67254Y109711D02*
G03*
X-67253Y109712I-1746J1789D01*
G01*
X-67254Y109711D02*
G03*
X-67253Y109712I-1746J1789D01*
G01*
X-67253Y109712D02*
G03*
X-67190Y109776I-1748J1788D01*
G01*
X-67253Y109712D02*
G03*
X-67190Y109776I-1748J1788D01*
G01*
X-67190Y109776D02*
G03*
X-67189Y109777I-1810J1724D01*
G01*
X-67190Y109776D02*
G03*
X-67189Y109777I-1810J1724D01*
G01*
X-62500Y183500D02*
G03*
X-60001Y186000I2500J0D01*
G01*
X-61675Y185356D02*
G03*
X-62500Y183501I1675J-1856D01*
G01*
X-61675Y185356D02*
G03*
X-62500Y183501I1675J-1856D01*
G01*
X-60001Y186000D02*
G03*
X-61675Y185356I0J-2500D01*
G01*
X-60001Y186000D02*
G03*
X-61675Y185356I0J-2500D01*
G01*
X-67255Y109711D02*
X-67254Y109711D01*
X-67255Y109711D02*
X-67254Y109711D01*
X-67188Y109778D02*
G03*
X-66999Y110001I-1812J1723D01*
G01*
X-67188Y109778D02*
G03*
X-66999Y110001I-1812J1723D01*
G01*
X-62428Y112096D02*
G03*
X-62500Y111500I2428J-596D01*
G01*
X-62500Y183501D02*
Y183500D01*
Y183500D02*
G03*
X-60000Y186000I2500J0D01*
G01*
D57*
X-71318Y112436D02*
D03*
D03*
X-66500Y183491D02*
D03*
D03*
X-71427Y110898D02*
D03*
D03*
X-67253Y109712D02*
D03*
D03*
X-67255Y109710D02*
D03*
D03*
X-61675Y185356D02*
D03*
D03*
X100000Y275000D02*
D03*
X90000Y285000D02*
D03*
Y275000D02*
D03*
X80000Y285000D02*
D03*
Y275000D02*
D03*
D58*
X-76350Y7700D02*
D03*
X-63650D02*
D03*
Y-5000D02*
D03*
X-76350Y-17700D02*
D03*
X-63650D02*
D03*
X-76350Y-5000D02*
D03*
D59*
X256500Y155000D02*
D03*
X243500D02*
D03*
X183750Y22500D02*
D03*
X171250D02*
D03*
X148500Y32500D02*
D03*
X201250Y35000D02*
D03*
X188750D02*
D03*
X161500Y32500D02*
D03*
D60*
X324499Y217500D02*
D03*
D61*
X299500D02*
D03*
D62*
X326499Y232501D02*
D03*
Y202501D02*
D03*
D63*
X-37500Y134500D02*
D03*
Y141000D02*
D03*
Y147500D02*
D03*
Y154000D02*
D03*
Y160500D02*
D03*
D64*
X-64500Y137500D02*
D03*
Y157500D02*
D03*
D65*
X370500Y257500D02*
D03*
Y247500D02*
D03*
Y187500D02*
D03*
Y197500D02*
D03*
Y207500D02*
D03*
Y217500D02*
D03*
Y227500D02*
D03*
Y237500D02*
D03*
D66*
X409250Y174500D02*
D03*
Y270500D02*
D03*
D67*
X320000Y179500D02*
D03*
Y160500D02*
D03*
X340000Y170000D02*
D03*
D68*
X283000Y73500D02*
D03*
X260000D02*
D03*
X237000D02*
D03*
D69*
X260000Y16500D02*
D03*
D70*
X160000Y236000D02*
D03*
Y249000D02*
D03*
X35000Y291500D02*
D03*
Y278500D02*
D03*
D71*
X149250Y285000D02*
D03*
X135750D02*
D03*
D72*
X-41750Y262500D02*
D03*
X-28250D02*
D03*
X5750Y202500D02*
D03*
X19250D02*
D03*
X-41750Y242500D02*
D03*
X-28250D02*
D03*
D73*
X71000Y120000D02*
D03*
X79000D02*
D03*
X71000Y132500D02*
D03*
X79000D02*
D03*
D74*
X142500Y251500D02*
D03*
Y265000D02*
D03*
D75*
X102500Y305000D02*
D03*
X97500D02*
D03*
X92500D02*
D03*
X87500D02*
D03*
X82500D02*
D03*
X77500D02*
D03*
Y265000D02*
D03*
X82500D02*
D03*
X87500D02*
D03*
X92500D02*
D03*
X97500D02*
D03*
X102500D02*
D03*
D76*
X70250Y297500D02*
D03*
Y292500D02*
D03*
Y287500D02*
D03*
Y282500D02*
D03*
Y277500D02*
D03*
Y272500D02*
D03*
X109750D02*
D03*
Y277500D02*
D03*
Y282500D02*
D03*
Y287500D02*
D03*
Y292500D02*
D03*
Y297500D02*
D03*
D77*
X90000Y285000D02*
D03*
D78*
X270000Y117500D02*
D03*
Y105500D02*
D03*
Y129500D02*
D03*
D79*
X310000Y260000D02*
D03*
D80*
X-70000Y-30400D02*
D03*
X-59840Y20400D02*
D03*
X-80160D02*
D03*
D81*
X-37500Y172500D02*
D03*
Y122500D02*
D03*
D82*
X-70000Y85000D02*
D03*
D83*
X0Y-0D02*
D03*
X305000Y305000D02*
D03*
Y-0D02*
D03*
X0Y305000D02*
D03*
D84*
X275000Y355000D02*
D03*
X275000Y330000D02*
D03*
X250000D02*
D03*
X250000Y355000D02*
D03*
X224999Y354080D02*
D03*
X225000Y330000D02*
D03*
X200000D02*
D03*
X200000Y354999D02*
D03*
X175000D02*
D03*
Y330000D02*
D03*
X150000D02*
D03*
Y354999D02*
D03*
X125000Y355000D02*
D03*
X100000Y330000D02*
D03*
Y354999D02*
D03*
X75000Y355000D02*
D03*
X75000Y330000D02*
D03*
X50000D02*
D03*
Y354999D02*
D03*
X25000Y355000D02*
D03*
Y330000D02*
D03*
X300000Y-42500D02*
D03*
X275000D02*
D03*
X250000D02*
D03*
X225000Y-42500D02*
D03*
X197500D02*
D03*
X175000D02*
D03*
X150000D02*
D03*
X125000D02*
D03*
X75000D02*
D03*
X50000D02*
D03*
X25000D02*
D03*
X125000Y330000D02*
D03*
X100000Y-42500D02*
D03*
D85*
X217500Y7500D02*
D03*
X210000Y20000D02*
D03*
X182294Y900D02*
D03*
X215000Y-7500D02*
D03*
X132500Y237500D02*
D03*
X243150Y200000D02*
D03*
X204600Y-17500D02*
D03*
X200000Y2200D02*
D03*
X175000Y-17500D02*
D03*
X377500Y132500D02*
D03*
X374855Y159145D02*
D03*
X320569Y117800D02*
D03*
X352500Y158250D02*
D03*
X55000Y212500D02*
D03*
X-17500Y185000D02*
D03*
X-12500Y167500D02*
D03*
X5000Y180000D02*
D03*
X-30000Y52500D02*
D03*
X77500Y243600D02*
D03*
X82500Y223400D02*
D03*
X100000D02*
D03*
X292500Y107500D02*
D03*
X280000Y274850D02*
D03*
X-27500Y-32500D02*
D03*
X207500Y282500D02*
D03*
X205000Y260000D02*
D03*
X105000Y205000D02*
D03*
X-7500Y102500D02*
D03*
X-40577Y97810D02*
D03*
X20000Y101400D02*
D03*
X76780Y189482D02*
D03*
X200802Y239398D02*
D03*
X200000Y219198D02*
D03*
X227135Y200730D02*
D03*
X245000Y-2500D02*
D03*
X36850Y214647D02*
D03*
X40000Y110000D02*
D03*
X125000Y117500D02*
D03*
X187537Y122143D02*
D03*
X187500Y167500D02*
D03*
X168919Y146419D02*
D03*
X172500Y165000D02*
D03*
X232500Y287500D02*
D03*
X365000Y40000D02*
D03*
X387500Y52500D02*
D03*
X177500Y307500D02*
D03*
X390000Y205000D02*
D03*
X395000Y190000D02*
D03*
X340000Y333257D02*
D03*
X352500Y315000D02*
D03*
X355531Y224169D02*
D03*
X352500Y206969D02*
D03*
X339496Y232052D02*
D03*
X355000Y241550D02*
D03*
X390000Y72500D02*
D03*
X352500Y192500D02*
D03*
X32500Y195000D02*
D03*
X42509Y180347D02*
D03*
X231588Y55912D02*
D03*
X22500Y167500D02*
D03*
X162500Y285000D02*
D03*
X169550Y50457D02*
D03*
X192650Y47980D02*
D03*
X-54043Y50621D02*
D03*
X60430Y95519D02*
D03*
X57824Y305153D02*
D03*
X350000Y72500D02*
D03*
X345000Y-25000D02*
D03*
Y-7500D02*
D03*
X342500Y-42500D02*
D03*
X350000Y52500D02*
D03*
X215000Y87500D02*
D03*
X32500Y-5000D02*
D03*
X-40000Y280000D02*
D03*
X15000Y265000D02*
D03*
X-7500Y267500D02*
D03*
X57331Y247331D02*
D03*
X36419Y238919D02*
D03*
X252500Y95000D02*
D03*
X312500Y135000D02*
D03*
X297669Y135169D02*
D03*
X340000Y120000D02*
D03*
X230000Y147500D02*
D03*
X72500Y145000D02*
D03*
X107500Y-10000D02*
D03*
X87500D02*
D03*
X67500Y175000D02*
D03*
X55000Y145000D02*
D03*
X187500Y287500D02*
D03*
M02*
