G04*
G04 #@! TF.GenerationSoftware,Altium Limited,Altium Designer,23.4.1 (23)*
G04*
G04 Layer_Color=32896*
%FSLAX44Y44*%
%MOMM*%
G71*
G04*
G04 #@! TF.SameCoordinates,85AF0129-C820-498D-97AF-9D942E21B237*
G04*
G04*
G04 #@! TF.FilePolarity,Positive*
G04*
G01*
G75*
%ADD10C,0.2500*%
%ADD12C,0.2000*%
%ADD110C,0.1000*%
D10*
X249750Y241500D02*
G03*
X249750Y241500I-1250J0D01*
G01*
X358500Y10000D02*
G03*
X358500Y10000I-1250J0D01*
G01*
Y105000D02*
G03*
X358500Y105000I-1250J0D01*
G01*
X33750Y8000D02*
G03*
X33750Y8000I-1250J0D01*
G01*
D12*
X411251Y254769D02*
G03*
X415057Y156521I153012J-43269D01*
G01*
X411250Y254770D02*
Y266600D01*
X363000Y141000D02*
X397500D01*
X288500D02*
X341000D01*
X273000Y284000D02*
X397500D01*
X416250Y-43000D02*
Y13000D01*
X373750Y25000D02*
X396250D01*
X373750Y17000D02*
Y25000D01*
Y-55000D02*
Y-47000D01*
Y-55000D02*
X396250D01*
X373750Y310000D02*
X396250D01*
X373750D02*
Y318000D01*
Y352000D02*
Y360000D01*
X396250D01*
X416250Y322000D02*
Y348000D01*
Y52000D02*
Y108000D01*
X373750Y120000D02*
X396250D01*
X373750Y112000D02*
Y120000D01*
Y40000D02*
Y48000D01*
Y40000D02*
X396250D01*
X145249Y8000D02*
X149749D01*
X145249Y22000D02*
X149749D01*
X137750Y-28500D02*
X152250D01*
X137750Y-1500D02*
X152250D01*
X147000Y76000D02*
X163000D01*
X147000Y94000D02*
X163000D01*
X36500Y79500D02*
Y95500D01*
X18500Y79500D02*
Y95500D01*
X147000Y61000D02*
X162999D01*
X147000Y79000D02*
X162999D01*
X129750Y38750D02*
X140250D01*
X129750Y51250D02*
X140250D01*
X126250Y54749D02*
Y65250D01*
X113750Y54749D02*
Y65250D01*
X126250Y27250D02*
Y37750D01*
X113750Y27250D02*
Y37750D01*
X49999Y1000D02*
X95000D01*
Y97900D02*
Y99000D01*
Y1000D02*
Y2100D01*
X49999Y99000D02*
X95000D01*
X49999Y97900D02*
Y99000D01*
Y1000D02*
Y2100D01*
X17001Y34000D02*
Y86001D01*
X-16999D02*
X-15749D01*
X15751D02*
X17001D01*
X-16999Y34000D02*
Y86001D01*
Y34000D02*
X-15749D01*
X15751D02*
X17001D01*
X36251Y19750D02*
Y30250D01*
X23750Y19750D02*
Y30250D01*
D110*
X359250Y345000D02*
G03*
X359250Y345000I-500J0D01*
G01*
M02*
