G04*
G04 #@! TF.GenerationSoftware,Altium Limited,Altium Designer,23.4.1 (23)*
G04*
G04 Layer_Color=65535*
%FSLAX44Y44*%
%MOMM*%
G71*
G04*
G04 #@! TF.SameCoordinates,2C5E8893-7F3A-498D-B770-72B9E7EC2C88*
G04*
G04*
G04 #@! TF.FilePolarity,Positive*
G04*
G01*
G75*
%ADD10C,0.5000*%
%ADD11C,0.2500*%
%ADD12C,0.2000*%
%ADD13C,0.2540*%
G36*
X364887Y183343D02*
X357274D01*
X357281Y183336D01*
X357295Y183322D01*
X357317Y183301D01*
X357345Y183266D01*
X357380Y183223D01*
X357429Y183167D01*
X357478Y183104D01*
X357535Y183041D01*
X357591Y182956D01*
X357661Y182872D01*
X357725Y182780D01*
X357802Y182682D01*
X357872Y182569D01*
X357950Y182457D01*
X358105Y182203D01*
X358112Y182196D01*
X358126Y182175D01*
X358147Y182133D01*
X358168Y182084D01*
X358203Y182027D01*
X358245Y181957D01*
X358288Y181873D01*
X358337Y181788D01*
X358435Y181591D01*
X358534Y181380D01*
X358632Y181162D01*
X358717Y180951D01*
X357563D01*
X357556Y180965D01*
X357542Y180993D01*
X357514Y181049D01*
X357478Y181120D01*
X357436Y181204D01*
X357380Y181310D01*
X357317Y181422D01*
X357246Y181542D01*
X357162Y181676D01*
X357077Y181816D01*
X356880Y182112D01*
X356662Y182414D01*
X356423Y182703D01*
X356416Y182710D01*
X356395Y182738D01*
X356360Y182773D01*
X356311Y182822D01*
X356247Y182886D01*
X356177Y182956D01*
X356092Y183034D01*
X356008Y183118D01*
X355909Y183202D01*
X355804Y183294D01*
X355586Y183470D01*
X355354Y183632D01*
X355234Y183702D01*
X355114Y183765D01*
Y184539D01*
X364887D01*
Y183343D01*
D02*
G37*
G36*
Y177792D02*
X361418Y175336D01*
X361404Y175329D01*
X361369Y175301D01*
X361306Y175259D01*
X361236Y175210D01*
X361144Y175146D01*
X361046Y175083D01*
X360827Y174935D01*
X360835D01*
X360849Y174921D01*
X360877Y174907D01*
X360905Y174886D01*
X360996Y174830D01*
X361095Y174759D01*
X361214Y174682D01*
X361327Y174612D01*
X361433Y174541D01*
X361517Y174478D01*
X364887Y172008D01*
Y170461D01*
X359842Y174225D01*
X355150Y170904D01*
Y172445D01*
X357640Y174218D01*
X357647Y174225D01*
X357675Y174239D01*
X357718Y174274D01*
X357767Y174309D01*
X357830Y174351D01*
X357908Y174408D01*
X357992Y174464D01*
X358077Y174527D01*
X358274Y174654D01*
X358470Y174781D01*
X358660Y174900D01*
X358752Y174956D01*
X358836Y174999D01*
X358829Y175006D01*
X358815Y175013D01*
X358787Y175034D01*
X358745Y175055D01*
X358703Y175090D01*
X358646Y175125D01*
X358576Y175168D01*
X358506Y175217D01*
X358344Y175329D01*
X358161Y175456D01*
X357957Y175604D01*
X357746Y175766D01*
X355150Y177715D01*
Y179122D01*
X359779Y175744D01*
X364887Y179389D01*
Y177792D01*
D02*
G37*
G36*
X239932Y376512D02*
X234310D01*
X234296D01*
X234254D01*
X234191D01*
X234106Y376505D01*
X234001D01*
X233881Y376498D01*
X233748Y376491D01*
X233600Y376484D01*
X233452Y376470D01*
X233297Y376456D01*
X232988Y376413D01*
X232840Y376385D01*
X232692Y376357D01*
X232558Y376322D01*
X232439Y376280D01*
X232432D01*
X232411Y376266D01*
X232383Y376251D01*
X232340Y376230D01*
X232291Y376209D01*
X232235Y376174D01*
X232101Y376090D01*
X231953Y375977D01*
X231876Y375914D01*
X231799Y375836D01*
X231721Y375759D01*
X231651Y375667D01*
X231581Y375576D01*
X231517Y375471D01*
Y375463D01*
X231503Y375442D01*
X231489Y375414D01*
X231468Y375365D01*
X231440Y375309D01*
X231412Y375245D01*
X231383Y375168D01*
X231355Y375076D01*
X231327Y374978D01*
X231299Y374873D01*
X231271Y374760D01*
X231243Y374633D01*
X231222Y374500D01*
X231208Y374359D01*
X231201Y374218D01*
X231194Y374063D01*
Y374000D01*
X231201Y373930D01*
Y373831D01*
X231215Y373712D01*
X231229Y373585D01*
X231250Y373437D01*
X231271Y373275D01*
X231306Y373114D01*
X231348Y372945D01*
X231405Y372776D01*
X231461Y372607D01*
X231538Y372445D01*
X231623Y372297D01*
X231721Y372157D01*
X231834Y372037D01*
X231841Y372030D01*
X231862Y372009D01*
X231904Y371981D01*
X231960Y371946D01*
X232038Y371896D01*
X232136Y371847D01*
X232249Y371791D01*
X232390Y371735D01*
X232544Y371678D01*
X232720Y371622D01*
X232924Y371573D01*
X233150Y371524D01*
X233403Y371488D01*
X233677Y371460D01*
X233980Y371439D01*
X234310Y371432D01*
X239932D01*
Y370144D01*
X234303D01*
X234296D01*
X234289D01*
X234268D01*
X234240D01*
X234205D01*
X234163D01*
X234064Y370151D01*
X233937D01*
X233797Y370159D01*
X233635Y370173D01*
X233466Y370187D01*
X233283Y370208D01*
X233093Y370229D01*
X232706Y370285D01*
X232509Y370327D01*
X232326Y370370D01*
X232143Y370426D01*
X231975Y370482D01*
X231968Y370489D01*
X231939Y370496D01*
X231890Y370517D01*
X231834Y370546D01*
X231756Y370588D01*
X231672Y370630D01*
X231581Y370686D01*
X231475Y370757D01*
X231362Y370834D01*
X231250Y370918D01*
X231137Y371017D01*
X231018Y371129D01*
X230898Y371249D01*
X230785Y371376D01*
X230673Y371524D01*
X230567Y371678D01*
X230560Y371685D01*
X230546Y371721D01*
X230518Y371770D01*
X230483Y371833D01*
X230441Y371925D01*
X230399Y372023D01*
X230349Y372150D01*
X230300Y372283D01*
X230251Y372445D01*
X230201Y372614D01*
X230159Y372797D01*
X230117Y373001D01*
X230082Y373219D01*
X230054Y373451D01*
X230040Y373690D01*
X230033Y373951D01*
Y374085D01*
X230040Y374176D01*
X230047Y374296D01*
X230061Y374429D01*
X230075Y374584D01*
X230089Y374746D01*
X230117Y374922D01*
X230145Y375105D01*
X230187Y375288D01*
X230230Y375478D01*
X230286Y375661D01*
X230349Y375850D01*
X230420Y376026D01*
X230504Y376195D01*
X230511Y376202D01*
X230525Y376230D01*
X230553Y376280D01*
X230588Y376336D01*
X230638Y376406D01*
X230701Y376491D01*
X230771Y376575D01*
X230849Y376674D01*
X230940Y376772D01*
X231046Y376878D01*
X231151Y376983D01*
X231278Y377082D01*
X231405Y377180D01*
X231552Y377272D01*
X231700Y377356D01*
X231862Y377434D01*
X231876Y377441D01*
X231904Y377448D01*
X231953Y377469D01*
X232024Y377490D01*
X232115Y377518D01*
X232228Y377546D01*
X232354Y377581D01*
X232502Y377617D01*
X232671Y377652D01*
X232854Y377687D01*
X233051Y377715D01*
X233269Y377743D01*
X233501Y377764D01*
X233755Y377785D01*
X234022Y377792D01*
X234303Y377799D01*
X239932D01*
Y376512D01*
D02*
G37*
G36*
X230349Y368625D02*
X230462Y368618D01*
X230581Y368604D01*
X230722Y368582D01*
X230870Y368547D01*
X231018Y368498D01*
X231025D01*
X231046Y368484D01*
X231081Y368470D01*
X231130Y368449D01*
X231194Y368428D01*
X231264Y368392D01*
X231341Y368350D01*
X231426Y368308D01*
X231524Y368259D01*
X231623Y368195D01*
X231841Y368062D01*
X232073Y367900D01*
X232312Y367710D01*
X232319Y367703D01*
X232340Y367682D01*
X232376Y367654D01*
X232425Y367612D01*
X232488Y367555D01*
X232558Y367485D01*
X232643Y367407D01*
X232734Y367309D01*
X232840Y367203D01*
X232952Y367091D01*
X233072Y366964D01*
X233206Y366824D01*
X233339Y366669D01*
X233480Y366507D01*
X233628Y366331D01*
X233783Y366148D01*
X233790Y366141D01*
X233797Y366127D01*
X233818Y366106D01*
X233839Y366078D01*
X233874Y366043D01*
X233909Y366000D01*
X234001Y365895D01*
X234106Y365761D01*
X234240Y365620D01*
X234381Y365459D01*
X234536Y365290D01*
X234697Y365107D01*
X234866Y364931D01*
X235035Y364748D01*
X235211Y364579D01*
X235380Y364410D01*
X235542Y364263D01*
X235704Y364122D01*
X235851Y364009D01*
X235858Y364002D01*
X235886Y363988D01*
X235929Y363960D01*
X235978Y363918D01*
X236048Y363876D01*
X236126Y363833D01*
X236217Y363777D01*
X236316Y363728D01*
X236421Y363679D01*
X236534Y363622D01*
X236780Y363531D01*
X236907Y363496D01*
X237033Y363467D01*
X237160Y363453D01*
X237286Y363446D01*
X237294D01*
X237322D01*
X237357D01*
X237406Y363453D01*
X237470Y363460D01*
X237540Y363475D01*
X237617Y363489D01*
X237702Y363510D01*
X237793Y363538D01*
X237892Y363573D01*
X237990Y363615D01*
X238089Y363665D01*
X238194Y363721D01*
X238293Y363791D01*
X238391Y363868D01*
X238483Y363960D01*
X238490Y363967D01*
X238504Y363981D01*
X238525Y364009D01*
X238560Y364051D01*
X238595Y364101D01*
X238637Y364164D01*
X238687Y364234D01*
X238729Y364312D01*
X238778Y364403D01*
X238820Y364502D01*
X238862Y364614D01*
X238898Y364727D01*
X238933Y364854D01*
X238954Y364987D01*
X238968Y365128D01*
X238975Y365276D01*
Y365360D01*
X238968Y365416D01*
X238961Y365494D01*
X238947Y365578D01*
X238933Y365670D01*
X238912Y365775D01*
X238884Y365881D01*
X238848Y365993D01*
X238806Y366106D01*
X238757Y366226D01*
X238694Y366338D01*
X238623Y366451D01*
X238546Y366563D01*
X238454Y366662D01*
X238447Y366669D01*
X238433Y366683D01*
X238398Y366711D01*
X238363Y366739D01*
X238307Y366781D01*
X238243Y366824D01*
X238166Y366873D01*
X238082Y366915D01*
X237990Y366964D01*
X237878Y367014D01*
X237765Y367056D01*
X237638Y367098D01*
X237498Y367126D01*
X237350Y367154D01*
X237195Y367168D01*
X237026Y367175D01*
X237153Y368407D01*
X237160D01*
X237167D01*
X237188Y368400D01*
X237216D01*
X237286Y368392D01*
X237378Y368371D01*
X237491Y368350D01*
X237624Y368322D01*
X237772Y368287D01*
X237927Y368245D01*
X238096Y368189D01*
X238265Y368125D01*
X238440Y368048D01*
X238616Y367956D01*
X238785Y367858D01*
X238947Y367738D01*
X239102Y367612D01*
X239242Y367464D01*
X239249Y367457D01*
X239271Y367429D01*
X239313Y367379D01*
X239355Y367316D01*
X239411Y367232D01*
X239475Y367133D01*
X239538Y367014D01*
X239608Y366880D01*
X239672Y366725D01*
X239735Y366563D01*
X239798Y366380D01*
X239855Y366183D01*
X239904Y365972D01*
X239939Y365747D01*
X239960Y365508D01*
X239967Y365255D01*
Y365191D01*
X239960Y365121D01*
X239953Y365022D01*
X239946Y364903D01*
X239925Y364769D01*
X239904Y364614D01*
X239869Y364453D01*
X239826Y364277D01*
X239777Y364101D01*
X239714Y363911D01*
X239636Y363728D01*
X239545Y363545D01*
X239447Y363369D01*
X239327Y363200D01*
X239186Y363038D01*
X239179Y363031D01*
X239151Y363003D01*
X239109Y362961D01*
X239046Y362912D01*
X238975Y362848D01*
X238884Y362778D01*
X238778Y362701D01*
X238659Y362623D01*
X238525Y362553D01*
X238377Y362475D01*
X238215Y362405D01*
X238046Y362342D01*
X237864Y362293D01*
X237673Y362250D01*
X237470Y362222D01*
X237258Y362215D01*
X237251D01*
X237230D01*
X237202D01*
X237160D01*
X237104Y362222D01*
X237047Y362229D01*
X236977Y362236D01*
X236900Y362243D01*
X236724Y362271D01*
X236527Y362314D01*
X236323Y362377D01*
X236112Y362454D01*
X236105D01*
X236083Y362468D01*
X236055Y362482D01*
X236013Y362504D01*
X235964Y362525D01*
X235900Y362560D01*
X235830Y362595D01*
X235753Y362644D01*
X235668Y362693D01*
X235577Y362750D01*
X235373Y362891D01*
X235267Y362968D01*
X235155Y363052D01*
X235042Y363151D01*
X234923Y363249D01*
X234916Y363256D01*
X234894Y363278D01*
X234859Y363306D01*
X234810Y363355D01*
X234747Y363418D01*
X234669Y363496D01*
X234578Y363580D01*
X234472Y363686D01*
X234360Y363805D01*
X234233Y363946D01*
X234092Y364094D01*
X233937Y364263D01*
X233776Y364445D01*
X233600Y364642D01*
X233410Y364861D01*
X233213Y365093D01*
X233206Y365107D01*
X233171Y365142D01*
X233128Y365191D01*
X233065Y365262D01*
X232995Y365353D01*
X232910Y365444D01*
X232819Y365550D01*
X232720Y365663D01*
X232516Y365902D01*
X232411Y366014D01*
X232312Y366127D01*
X232214Y366232D01*
X232129Y366324D01*
X232052Y366408D01*
X231982Y366472D01*
X231968Y366486D01*
X231925Y366521D01*
X231862Y366577D01*
X231784Y366648D01*
X231686Y366725D01*
X231581Y366810D01*
X231461Y366894D01*
X231341Y366971D01*
Y362201D01*
X230194D01*
Y368632D01*
X230201D01*
X230215D01*
X230237D01*
X230265D01*
X230307D01*
X230349Y368625D01*
D02*
G37*
G36*
X88740Y182460D02*
X88831Y182453D01*
X88937Y182446D01*
X89064Y182425D01*
X89204Y182404D01*
X89352Y182376D01*
X89507Y182334D01*
X89669Y182292D01*
X89830Y182228D01*
X89992Y182158D01*
X90154Y182073D01*
X90309Y181975D01*
X90457Y181862D01*
X90590Y181736D01*
X90597Y181729D01*
X90618Y181700D01*
X90654Y181658D01*
X90696Y181595D01*
X90745Y181518D01*
X90801Y181426D01*
X90865Y181313D01*
X90921Y181187D01*
X90984Y181039D01*
X91048Y180877D01*
X91097Y180694D01*
X91146Y180497D01*
X91188Y180286D01*
X91216Y180054D01*
X91238Y179808D01*
Y179548D01*
X90077Y179386D01*
Y179400D01*
Y179435D01*
X90070Y179491D01*
X90063Y179569D01*
X90056Y179660D01*
X90042Y179759D01*
X90027Y179871D01*
X90006Y179998D01*
X89957Y180251D01*
X89887Y180504D01*
X89838Y180617D01*
X89788Y180730D01*
X89725Y180828D01*
X89662Y180912D01*
X89655Y180919D01*
X89648Y180926D01*
X89619Y180948D01*
X89591Y180976D01*
X89556Y181004D01*
X89507Y181039D01*
X89458Y181081D01*
X89394Y181117D01*
X89324Y181152D01*
X89247Y181194D01*
X89162Y181229D01*
X89071Y181257D01*
X88965Y181285D01*
X88860Y181299D01*
X88747Y181313D01*
X88627Y181320D01*
X88578D01*
X88543Y181313D01*
X88501D01*
X88451Y181306D01*
X88339Y181292D01*
X88212Y181264D01*
X88071Y181229D01*
X87924Y181173D01*
X87790Y181102D01*
X87783D01*
X87776Y181088D01*
X87734Y181060D01*
X87670Y181011D01*
X87600Y180941D01*
X87516Y180856D01*
X87438Y180751D01*
X87361Y180631D01*
X87305Y180497D01*
Y180490D01*
X87297Y180476D01*
X87290Y180455D01*
X87283Y180427D01*
X87276Y180385D01*
X87262Y180336D01*
X87248Y180272D01*
X87234Y180202D01*
X87227Y180124D01*
X87213Y180033D01*
X87199Y179935D01*
X87192Y179822D01*
X87185Y179702D01*
X87178Y179576D01*
X87171Y179435D01*
Y179280D01*
Y172568D01*
X85883D01*
Y179203D01*
Y179217D01*
Y179259D01*
Y179322D01*
X85890Y179407D01*
Y179505D01*
X85897Y179625D01*
X85912Y179759D01*
X85919Y179899D01*
X85940Y180047D01*
X85954Y180202D01*
X86010Y180518D01*
X86045Y180673D01*
X86087Y180821D01*
X86130Y180962D01*
X86186Y181095D01*
Y181102D01*
X86200Y181124D01*
X86214Y181159D01*
X86242Y181208D01*
X86270Y181264D01*
X86313Y181328D01*
X86362Y181398D01*
X86411Y181475D01*
X86474Y181553D01*
X86545Y181637D01*
X86622Y181722D01*
X86706Y181806D01*
X86798Y181890D01*
X86896Y181968D01*
X87002Y182045D01*
X87122Y182116D01*
X87129Y182123D01*
X87150Y182130D01*
X87185Y182151D01*
X87234Y182172D01*
X87297Y182200D01*
X87368Y182228D01*
X87452Y182256D01*
X87551Y182292D01*
X87656Y182327D01*
X87769Y182355D01*
X87896Y182383D01*
X88022Y182411D01*
X88163Y182432D01*
X88311Y182453D01*
X88458Y182460D01*
X88620Y182467D01*
X88677D01*
X88740Y182460D01*
D02*
G37*
G36*
X80958Y174693D02*
X80965Y174700D01*
X80979Y174714D01*
X81000Y174735D01*
X81036Y174763D01*
X81078Y174798D01*
X81134Y174848D01*
X81198Y174897D01*
X81261Y174953D01*
X81345Y175009D01*
X81430Y175080D01*
X81521Y175143D01*
X81620Y175221D01*
X81732Y175291D01*
X81845Y175368D01*
X82098Y175523D01*
X82105Y175530D01*
X82126Y175544D01*
X82168Y175565D01*
X82218Y175586D01*
X82274Y175621D01*
X82344Y175664D01*
X82429Y175706D01*
X82513Y175755D01*
X82710Y175854D01*
X82921Y175952D01*
X83139Y176051D01*
X83350Y176135D01*
Y174981D01*
X83336Y174974D01*
X83308Y174960D01*
X83252Y174932D01*
X83182Y174897D01*
X83097Y174855D01*
X82992Y174798D01*
X82879Y174735D01*
X82759Y174665D01*
X82626Y174580D01*
X82485Y174496D01*
X82190Y174299D01*
X81887Y174081D01*
X81599Y173841D01*
X81592Y173834D01*
X81563Y173813D01*
X81528Y173778D01*
X81479Y173729D01*
X81416Y173666D01*
X81345Y173595D01*
X81268Y173511D01*
X81183Y173426D01*
X81099Y173328D01*
X81007Y173222D01*
X80832Y173004D01*
X80670Y172772D01*
X80599Y172652D01*
X80536Y172533D01*
X79762D01*
Y182306D01*
X80958D01*
Y174693D01*
D02*
G37*
D10*
X301500Y181000D02*
G03*
X301500Y181000I-2500J0D01*
G01*
D11*
X323162Y170400D02*
G03*
X323162Y170400I-1250J0D01*
G01*
X77250Y52300D02*
G03*
X77250Y52300I-1250J0D01*
G01*
X438250Y264000D02*
G03*
X438250Y264000I-1250J0D01*
G01*
X86000Y230500D02*
G03*
X86000Y230500I-1250J0D01*
G01*
X468500Y257500D02*
G03*
X468500Y257500I-1250J0D01*
G01*
X404250Y143500D02*
G03*
X404250Y143500I-1250J0D01*
G01*
X15250Y312500D02*
G03*
X15250Y312500I-1250J0D01*
G01*
X140000Y317250D02*
G03*
X140000Y317250I-1250J0D01*
G01*
X221750Y383500D02*
G03*
X221750Y383500I-1250J0D01*
G01*
X442811Y320250D02*
G03*
X442811Y320250I-1250J0D01*
G01*
X381251Y168000D02*
G03*
X381251Y168000I-1250J0D01*
G01*
X15250Y272500D02*
G03*
X15250Y272500I-1250J0D01*
G01*
Y292500D02*
G03*
X15250Y292500I-1250J0D01*
G01*
Y332500D02*
G03*
X15250Y332500I-1250J0D01*
G01*
D12*
X307500Y172500D02*
Y257500D01*
X222501D02*
X307500D01*
X222500Y172499D02*
X222501Y257500D01*
X222500Y172499D02*
X307500Y172500D01*
X9520Y15470D02*
X70480D01*
Y114530D01*
X9520D02*
X70480D01*
X9520Y15470D02*
Y114530D01*
X259363Y290138D02*
Y304862D01*
X245638Y290138D02*
Y304862D01*
X404499Y301001D02*
Y310501D01*
X430499D01*
X404499Y264501D02*
Y274000D01*
Y264501D02*
X430499D01*
X24001Y180050D02*
Y254950D01*
X24000Y180047D02*
X32120D01*
X58880D02*
X71000D01*
Y181350D01*
X70953Y253640D02*
Y254953D01*
X58880D02*
X70953D01*
X24001Y254950D02*
X32120D01*
X24000Y141500D02*
X56000D01*
X24000Y167250D02*
Y168500D01*
Y141500D02*
Y142750D01*
Y168500D02*
X56000D01*
Y167250D02*
Y168500D01*
Y141500D02*
Y142750D01*
X483750Y342500D02*
X506250D01*
X483750Y334500D02*
Y342500D01*
Y242500D02*
Y250500D01*
Y242500D02*
X506250D01*
X526250Y254500D02*
Y330500D01*
X437250Y255000D02*
X447000D01*
Y225000D02*
Y233250D01*
Y246750D02*
Y255000D01*
X437250Y225000D02*
X447000D01*
X433000Y237250D02*
Y242750D01*
X336501Y130000D02*
X403500D01*
X336501Y100000D02*
X403500D01*
Y130000D01*
X336501Y100000D02*
Y130000D01*
X445939Y75939D02*
Y104061D01*
X464061Y75939D02*
Y104061D01*
X336150Y230000D02*
Y240000D01*
X348850Y230000D02*
Y240000D01*
X340000Y171150D02*
X350000D01*
X340000Y183850D02*
X350000D01*
X64500Y301500D02*
X80500D01*
X64500Y283500D02*
X80500D01*
X425250Y178500D02*
X439750D01*
X425250Y151500D02*
X439750D01*
X315940Y115939D02*
Y144060D01*
X334061Y115939D02*
Y144060D01*
X148090Y246498D02*
X164091D01*
X148090Y228498D02*
X164091D01*
X108200Y294149D02*
Y304149D01*
X95500Y294149D02*
Y304149D01*
X35750Y319250D02*
X39250D01*
X35750Y305750D02*
X39250D01*
X452500Y331350D02*
X462500D01*
X452500Y318650D02*
X462500D01*
X112000Y323250D02*
X133000D01*
X112000Y291751D02*
X133000D01*
X218250Y376000D02*
X221000D01*
Y373250D02*
Y376000D01*
Y334000D02*
Y336750D01*
X218250Y334000D02*
X221000D01*
X179000D02*
X181750D01*
X179000D02*
Y336750D01*
Y376000D02*
X181750D01*
X179000Y373250D02*
Y376000D01*
X64500Y281500D02*
X80500D01*
X64500Y263500D02*
X80500D01*
X285939Y315939D02*
Y344061D01*
X304061Y315939D02*
Y344061D01*
X405000Y315000D02*
X435000D01*
X405000Y345000D02*
X435000D01*
X378561Y345439D02*
Y369561D01*
X361439Y345439D02*
Y369561D01*
X465250Y343000D02*
X469750D01*
X465250Y357000D02*
X469750D01*
X419061Y225939D02*
Y254060D01*
X400939Y225939D02*
Y254060D01*
X96150Y310000D02*
Y320000D01*
X108850Y310000D02*
Y320000D01*
X290000Y311350D02*
X300000D01*
X290000Y298650D02*
X300000D01*
X171250Y342250D02*
Y352750D01*
X158750Y342250D02*
Y352750D01*
X194750Y316250D02*
X205251D01*
X194750Y328750D02*
X205251D01*
X295000Y136350D02*
X305000D01*
X295000Y123650D02*
X305000D01*
X192274Y169426D02*
Y179426D01*
X179575Y169426D02*
Y179426D01*
X352500Y201149D02*
X362500D01*
X352500Y213849D02*
X362500D01*
X222501Y286150D02*
X232501D01*
X222501Y298850D02*
X232501D01*
X35750Y265750D02*
X39250D01*
X35750Y279250D02*
X39250D01*
X35750Y285749D02*
X39250D01*
X35750Y299250D02*
X39250D01*
X35750Y325750D02*
X39250D01*
X35750Y339250D02*
X39250D01*
D13*
X20312Y139290D02*
X15233D01*
X17773D01*
Y126594D01*
X15233Y124055D01*
X12694D01*
X10155Y126594D01*
X35547Y124055D02*
X25390D01*
X35547Y134212D01*
Y136751D01*
X33008Y139290D01*
X27929D01*
X25390Y136751D01*
M02*
