G04*
G04 #@! TF.GenerationSoftware,Altium Limited,Altium Designer,23.4.1 (23)*
G04*
G04 Layer_Physical_Order=6*
G04 Layer_Color=16737945*
%FSLAX44Y44*%
%MOMM*%
G71*
G04*
G04 #@! TF.SameCoordinates,0D17D4F2-5808-4921-BEB8-74D3ABB9EEF9*
G04*
G04*
G04 #@! TF.FilePolarity,Positive*
G04*
G01*
G75*
%ADD15C,0.5000*%
%ADD73C,0.7500*%
%ADD77C,0.1500*%
G04:AMPARAMS|DCode=78|XSize=1.524mm|YSize=2mm|CornerRadius=0.381mm|HoleSize=0mm|Usage=FLASHONLY|Rotation=0.000|XOffset=0mm|YOffset=0mm|HoleType=Round|Shape=RoundedRectangle|*
%AMROUNDEDRECTD78*
21,1,1.5240,1.2380,0,0,0.0*
21,1,0.7620,2.0000,0,0,0.0*
1,1,0.7620,0.3810,-0.6190*
1,1,0.7620,-0.3810,-0.6190*
1,1,0.7620,-0.3810,0.6190*
1,1,0.7620,0.3810,0.6190*
%
%ADD78ROUNDEDRECTD78*%
%ADD79C,1.4500*%
%ADD80C,1.5240*%
%ADD81C,0.6000*%
D15*
X85000Y87500D02*
D03*
X75000D02*
D03*
X65000D02*
D03*
X85000Y97500D02*
D03*
X75000D02*
D03*
X65000D02*
D03*
X85000Y107500D02*
D03*
X75000D02*
D03*
X65000D02*
D03*
D73*
X377000Y230000D02*
D03*
X375000Y195000D02*
D03*
D77*
X106896Y17488D02*
X115000D01*
X15964Y380200D02*
X75000D01*
X307810Y151092D02*
X318478Y161760D01*
X304170Y179964D02*
X308910D01*
X268694Y144488D02*
X304170Y179964D01*
X174564Y332137D02*
X175891Y333464D01*
X127137Y332137D02*
X174564D01*
X20000Y225000D02*
X127137Y332137D01*
X121628Y260566D02*
X140170Y279108D01*
X66764Y260566D02*
X121628D01*
X50254Y244056D02*
X66764Y260566D01*
X50254Y231610D02*
Y244056D01*
X37554Y218910D02*
X50254Y231610D01*
X-7150Y218910D02*
X37554D01*
X-14516Y211544D02*
X-7150Y218910D01*
X-14516Y167602D02*
Y211544D01*
X-15786Y166332D02*
X-14516Y167602D01*
X-15786Y155664D02*
Y166332D01*
Y155664D02*
X-12230Y152108D01*
X-4356D01*
X37808Y194272D01*
X115000Y15000D02*
Y17488D01*
X106896D02*
Y41110D01*
X102700Y45306D02*
X106896Y41110D01*
X102700Y45306D02*
Y91016D01*
X190970Y179286D01*
X234642D01*
X272996Y217640D01*
X277838D01*
X38018Y275000D02*
X43142Y280124D01*
X63462D01*
X152616Y201892D02*
X214846D01*
X99700Y148976D02*
X152616Y201892D01*
X99700Y54620D02*
Y148976D01*
X90000Y44920D02*
X99700Y54620D01*
X90000Y15000D02*
Y44920D01*
X20000Y200000D02*
X42854D01*
X49896Y192959D01*
X131652D01*
X252889Y314196D01*
X317752D01*
X325000Y321444D01*
Y355000D01*
X257264Y144488D02*
X268694D01*
X318478Y161760D02*
Y170396D01*
X308910Y179964D02*
X318478Y170396D01*
X108166Y74892D02*
X127470Y55588D01*
X187414D01*
X217814Y85988D01*
X228732D01*
X306540Y163796D01*
Y174714D01*
X226784Y196558D02*
Y207988D01*
X267932Y249136D01*
X-17564Y174968D02*
X-17532Y175000D01*
X-22390Y174968D02*
X-17564D01*
X-28232Y180810D02*
X-22390Y174968D01*
X-28232Y180810D02*
Y271996D01*
X15456Y315684D01*
X104610D01*
X109944Y321018D01*
Y367716D01*
X100000Y377660D02*
X109944Y367716D01*
X100000Y377660D02*
Y380000D01*
X470Y364706D02*
X15964Y380200D01*
X75000Y380000D02*
Y380200D01*
X219565Y271996D02*
X220000Y271562D01*
X215354Y271996D02*
X219565D01*
X87084Y143726D02*
X215354Y271996D01*
X62500Y143726D02*
X87084D01*
X-10452Y161760D02*
Y198590D01*
X3010Y212052D01*
X42466D01*
X86238Y255824D01*
X156116D01*
X180302Y280010D01*
Y287733D01*
X275000Y377660D02*
Y380000D01*
X263824Y366484D02*
X275000Y377660D01*
X263824Y331432D02*
Y366484D01*
X220125Y287733D02*
X263824Y331432D01*
X180302Y287733D02*
X220125D01*
X141440Y75908D02*
Y79718D01*
Y75908D02*
X142710Y74638D01*
X158967D01*
X178194Y93865D01*
Y106293D01*
X271819Y199918D01*
Y207480D01*
X274397Y210058D01*
X281958D01*
X305000Y233100D01*
D78*
X325000Y355000D02*
D03*
X300000D02*
D03*
X275000D02*
D03*
X250000D02*
D03*
X225000D02*
D03*
X200000D02*
D03*
X175000D02*
D03*
X150000D02*
D03*
X125000D02*
D03*
X90000Y15000D02*
D03*
X165000D02*
D03*
X340000D02*
D03*
X315000D02*
D03*
X290000D02*
D03*
X265000D02*
D03*
X240000D02*
D03*
X215000D02*
D03*
X65000D02*
D03*
X190000D02*
D03*
X115000D02*
D03*
X140000D02*
D03*
X75000Y380000D02*
D03*
X100000D02*
D03*
X125000D02*
D03*
X150000D02*
D03*
X100000Y355000D02*
D03*
X75000D02*
D03*
X200000Y380000D02*
D03*
X175000D02*
D03*
X225000D02*
D03*
X250000D02*
D03*
X275000D02*
D03*
X300000D02*
D03*
X325000D02*
D03*
D79*
X358000Y90000D02*
D03*
Y140000D02*
D03*
D80*
X45000Y355000D02*
D03*
X355000D02*
D03*
Y45000D02*
D03*
X45000D02*
D03*
D81*
X47206Y79972D02*
D03*
X142202Y47460D02*
D03*
X118072Y265984D02*
D03*
X133566Y317208D02*
D03*
X38018Y275000D02*
D03*
X344894Y209392D02*
D03*
X257264Y144488D02*
D03*
X2480Y50000D02*
D03*
X167602Y216116D02*
D03*
X197574Y325336D02*
D03*
X189954Y99784D02*
D03*
X165824Y37554D02*
D03*
X127724Y232118D02*
D03*
X93180Y141186D02*
D03*
X202908Y45936D02*
D03*
X207480Y126434D02*
D03*
X223990Y244056D02*
D03*
X175891Y333464D02*
D03*
X186906Y86068D02*
D03*
X38824Y230340D02*
D03*
X123914Y273774D02*
D03*
X195288Y242786D02*
D03*
X194526Y45936D02*
D03*
X363436Y171158D02*
D03*
X1232Y250152D02*
D03*
X200622Y210473D02*
D03*
X369024Y128000D02*
D03*
X346650Y127216D02*
D03*
X264376Y45000D02*
D03*
X217894Y211544D02*
D03*
X37808Y194272D02*
D03*
X145250Y276894D02*
D03*
X316618Y255232D02*
D03*
X140170Y279108D02*
D03*
X175016Y174412D02*
D03*
X277838Y217640D02*
D03*
X212730Y90906D02*
D03*
X349466Y187160D02*
D03*
X159728Y130010D02*
D03*
X154648Y153378D02*
D03*
X146012Y261074D02*
D03*
X151346Y250406D02*
D03*
X186906Y124168D02*
D03*
X167094Y164046D02*
D03*
X322034Y112738D02*
D03*
X178016Y190716D02*
D03*
X265006Y320608D02*
D03*
X342862Y139916D02*
D03*
X170142Y194272D02*
D03*
X49388Y203416D02*
D03*
X102832Y180302D02*
D03*
X284755Y223410D02*
D03*
X63462Y280124D02*
D03*
X126454Y214084D02*
D03*
X188684Y314922D02*
D03*
X200622Y225768D02*
D03*
X200567Y210473D02*
D03*
X226784Y318224D02*
D03*
X269710Y154140D02*
D03*
X214846Y201892D02*
D03*
X215608Y225260D02*
D03*
X209512Y241516D02*
D03*
X135090Y238468D02*
D03*
X219164Y121882D02*
D03*
X174376Y326014D02*
D03*
X108674Y117056D02*
D03*
X123406Y34760D02*
D03*
X46444Y106134D02*
D03*
X36284Y292316D02*
D03*
X-16802Y368516D02*
D03*
X82004Y307048D02*
D03*
X179032Y43142D02*
D03*
X174714Y119596D02*
D03*
X67272Y246850D02*
D03*
X176619Y306413D02*
D03*
X166667Y124432D02*
D03*
X-8674Y374358D02*
D03*
X283680Y56604D02*
D03*
X200696Y84290D02*
D03*
X13932Y225768D02*
D03*
X2756Y357086D02*
D03*
X39586Y393916D02*
D03*
X284920Y169412D02*
D03*
X119342Y205194D02*
D03*
X160490Y97244D02*
D03*
X274282Y59144D02*
D03*
X113754Y90080D02*
D03*
X151092Y268694D02*
D03*
X315938Y263020D02*
D03*
X109842Y222307D02*
D03*
X344894Y224498D02*
D03*
X315938Y295110D02*
D03*
X304508Y154140D02*
D03*
X307810Y151092D02*
D03*
X108166Y74892D02*
D03*
X306540Y174714D02*
D03*
X226784Y196558D02*
D03*
X267932Y249136D02*
D03*
X212990Y315000D02*
D03*
X283426Y304000D02*
D03*
X301968Y190462D02*
D03*
X223482Y91402D02*
D03*
X290792Y183604D02*
D03*
X187668Y384772D02*
D03*
X277838Y203416D02*
D03*
X174206Y282664D02*
D03*
X470Y364706D02*
D03*
X158204Y120696D02*
D03*
X73700Y134504D02*
D03*
X187160Y43396D02*
D03*
X62500Y143726D02*
D03*
X169126Y114516D02*
D03*
X221958Y170396D02*
D03*
X128994Y168110D02*
D03*
X-22898Y190080D02*
D03*
X90132Y325590D02*
D03*
X978Y93180D02*
D03*
X19774Y325082D02*
D03*
X30950Y85814D02*
D03*
Y298158D02*
D03*
X254216Y267170D02*
D03*
X192240Y158458D02*
D03*
X-10452Y161760D02*
D03*
X122290Y316954D02*
D03*
X180302Y287733D02*
D03*
X324574Y94450D02*
D03*
X387402Y265672D02*
D03*
X311924Y224702D02*
D03*
X50508Y212306D02*
D03*
X94450Y57874D02*
D03*
X88608Y153378D02*
D03*
X115000Y33744D02*
D03*
X198590Y118834D02*
D03*
X377406Y63462D02*
D03*
X141440Y79718D02*
D03*
X305000Y233100D02*
D03*
X167856Y99784D02*
D03*
X328130Y126962D02*
D03*
X291808Y321526D02*
D03*
X221196Y74638D02*
D03*
X323558Y41618D02*
D03*
M02*
