G04*
G04 #@! TF.GenerationSoftware,Altium Limited,Altium Designer,23.4.1 (23)*
G04*
G04 Layer_Color=32896*
%FSLAX44Y44*%
%MOMM*%
G71*
G04*
G04 #@! TF.SameCoordinates,A7B3D8D5-16A8-440A-8199-89ABE8C95972*
G04*
G04*
G04 #@! TF.FilePolarity,Positive*
G04*
G01*
G75*
%ADD11C,0.2500*%
%ADD12C,0.2000*%
%ADD110C,0.1000*%
D11*
X359750Y311500D02*
G03*
X359750Y311500I-1250J0D01*
G01*
X468500Y80000D02*
G03*
X468500Y80000I-1250J0D01*
G01*
Y175000D02*
G03*
X468500Y175000I-1250J0D01*
G01*
X143750Y78000D02*
G03*
X143750Y78000I-1250J0D01*
G01*
D12*
X521251Y324769D02*
G03*
X525057Y226521I153012J-43269D01*
G01*
X521250Y324770D02*
Y336600D01*
X473000Y211000D02*
X507500D01*
X398500D02*
X451000D01*
X383000Y354000D02*
X507500D01*
X526250Y27000D02*
Y83000D01*
X483750Y95000D02*
X506250D01*
X483750Y87000D02*
Y95000D01*
Y15000D02*
Y23000D01*
Y15000D02*
X506250D01*
X483750Y380000D02*
X506250D01*
X483750D02*
Y388000D01*
Y422000D02*
Y430000D01*
X506250D01*
X526250Y392000D02*
Y418000D01*
Y122000D02*
Y178000D01*
X483750Y190000D02*
X506250D01*
X483750Y182000D02*
Y190000D01*
Y110000D02*
Y118000D01*
Y110000D02*
X506250D01*
X255249Y78000D02*
X259749D01*
X255249Y92000D02*
X259749D01*
X247750Y41500D02*
X262250D01*
X247750Y68500D02*
X262250D01*
X257000Y146000D02*
X273000D01*
X257000Y164000D02*
X273000D01*
X146500Y149500D02*
Y165500D01*
X128500Y149500D02*
Y165500D01*
X257000Y131000D02*
X272999D01*
X257000Y149000D02*
X272999D01*
X239750Y108750D02*
X250250D01*
X239750Y121250D02*
X250250D01*
X236250Y124749D02*
Y135250D01*
X223750Y124749D02*
Y135250D01*
X236250Y97250D02*
Y107750D01*
X223750Y97250D02*
Y107750D01*
X160000Y71000D02*
X205000D01*
Y167900D02*
Y169000D01*
Y71000D02*
Y72100D01*
X160000Y169000D02*
X205000D01*
X160000Y167900D02*
Y169000D01*
Y71000D02*
Y72100D01*
X127001Y104000D02*
Y156001D01*
X93001D02*
X94251D01*
X125751D02*
X127001D01*
X93001Y104000D02*
Y156001D01*
Y104000D02*
X94251D01*
X125751D02*
X127001D01*
X146250Y89750D02*
Y100250D01*
X133750Y89750D02*
Y100250D01*
D110*
X469250Y415000D02*
G03*
X469250Y415000I-500J0D01*
G01*
M02*
