G04*
G04 #@! TF.GenerationSoftware,Altium Limited,Altium Designer,23.4.1 (23)*
G04*
G04 Layer_Color=16711935*
%FSLAX44Y44*%
%MOMM*%
G71*
G04*
G04 #@! TF.SameCoordinates,0C08C988-1F2B-49C3-A879-C7924B40E8ED*
G04*
G04*
G04 #@! TF.FilePolarity,Negative*
G04*
G01*
G75*
G04:AMPARAMS|DCode=24|XSize=0.7311mm|YSize=0.3025mm|CornerRadius=0.1512mm|HoleSize=0mm|Usage=FLASHONLY|Rotation=90.000|XOffset=0mm|YOffset=0mm|HoleType=Round|Shape=RoundedRectangle|*
%AMROUNDEDRECTD24*
21,1,0.7311,0.0000,0,0,90.0*
21,1,0.4286,0.3025,0,0,90.0*
1,1,0.3025,0.0000,0.2143*
1,1,0.3025,0.0000,-0.2143*
1,1,0.3025,0.0000,-0.2143*
1,1,0.3025,0.0000,0.2143*
%
%ADD24ROUNDEDRECTD24*%
%ADD27R,0.5000X0.4000*%
%ADD38R,1.0121X1.2084*%
%ADD40R,0.7500X1.0000*%
%ADD50R,0.3025X0.7311*%
%ADD56C,0.7032*%
%ADD61R,2.5000X1.7500*%
%ADD62R,1.1532X1.0032*%
%ADD75R,1.1532X1.0532*%
%ADD78R,1.0532X0.9032*%
G04:AMPARAMS|DCode=79|XSize=1.7272mm|YSize=2.2032mm|CornerRadius=0.4826mm|HoleSize=0mm|Usage=FLASHONLY|Rotation=0.000|XOffset=0mm|YOffset=0mm|HoleType=Round|Shape=RoundedRectangle|*
%AMROUNDEDRECTD79*
21,1,1.7272,1.2380,0,0,0.0*
21,1,0.7620,2.2032,0,0,0.0*
1,1,0.9652,0.3810,-0.6190*
1,1,0.9652,-0.3810,-0.6190*
1,1,0.9652,-0.3810,0.6190*
1,1,0.9652,0.3810,0.6190*
%
%ADD79ROUNDEDRECTD79*%
%ADD80C,0.7500*%
%ADD81C,1.6532*%
%ADD82C,1.7272*%
%ADD93R,0.3800X1.4000*%
%ADD94R,0.9121X0.9587*%
%ADD95R,2.0500X1.1000*%
%ADD97R,1.3000X0.7000*%
%ADD98R,1.4500X0.9500*%
%ADD101R,0.5682X0.5725*%
%ADD103R,1.0000X0.7500*%
%ADD104R,1.9032X1.7032*%
%ADD105R,1.7032X1.9032*%
G04:AMPARAMS|DCode=106|XSize=2.1032mm|YSize=3.4032mm|CornerRadius=0mm|HoleSize=0mm|Usage=FLASHONLY|Rotation=90.000|XOffset=0mm|YOffset=0mm|HoleType=Round|Shape=Octagon|*
%AMOCTAGOND106*
4,1,8,-1.7016,-0.5258,-1.7016,0.5258,-1.1758,1.0516,1.1758,1.0516,1.7016,0.5258,1.7016,-0.5258,1.1758,-1.0516,-1.1758,-1.0516,-1.7016,-0.5258,0.0*
%
%ADD106OCTAGOND106*%

%ADD107R,1.8832X1.0032*%
%ADD108R,1.7032X1.8032*%
%ADD109R,2.3032X1.1032*%
%ADD110R,1.6032X1.4932*%
%ADD111R,1.5032X1.4932*%
%ADD112R,2.3032X3.4032*%
D24*
X191750Y278905D02*
D03*
X185250Y251095D02*
D03*
X204750Y278905D02*
D03*
X198250D02*
D03*
X185250D02*
D03*
X191750Y251095D02*
D03*
X198250D02*
D03*
D27*
X375000Y119000D02*
D03*
X385000Y100000D02*
D03*
X375000Y79000D02*
D03*
X340000Y79000D02*
D03*
Y119000D02*
D03*
Y111000D02*
D03*
Y71000D02*
D03*
X174365Y54250D02*
D03*
Y46251D02*
D03*
X385000Y92000D02*
D03*
X375000Y111000D02*
D03*
Y71000D02*
D03*
D38*
X200000Y191038D02*
D03*
Y175000D02*
D03*
D40*
X204444Y154892D02*
D03*
X219444D02*
D03*
X164841Y151826D02*
D03*
X179842D02*
D03*
D50*
X204750Y251095D02*
D03*
D56*
X308064Y250152D02*
D03*
X125184Y257772D02*
D03*
X182588Y37300D02*
D03*
X148329Y142425D02*
D03*
X95000Y72606D02*
D03*
X152870Y212814D02*
D03*
X165570Y104356D02*
D03*
X167066Y130772D02*
D03*
X167602Y132804D02*
D03*
Y208242D02*
D03*
X151798Y131554D02*
D03*
X168099Y217397D02*
D03*
X88354Y189700D02*
D03*
X132804Y268948D02*
D03*
X264884Y296888D02*
D03*
X49492Y82512D02*
D03*
X171933Y250343D02*
D03*
X67526Y192494D02*
D03*
X48730Y200439D02*
D03*
X86576Y274282D02*
D03*
X306540Y311620D02*
D03*
X358864Y162776D02*
D03*
X332781Y180985D02*
D03*
X343340Y127700D02*
D03*
X295000Y245834D02*
D03*
X25978Y67272D02*
D03*
X216878Y44666D02*
D03*
X79718Y53048D02*
D03*
X71082Y72098D02*
D03*
X37046Y183604D02*
D03*
X313144Y305524D02*
D03*
X103594Y280886D02*
D03*
X336004Y58636D02*
D03*
X171920Y222974D02*
D03*
X190379Y185890D02*
D03*
X190970Y194780D02*
D03*
X257518Y105372D02*
D03*
X154140Y167856D02*
D03*
X155410Y77940D02*
D03*
X205448Y132804D02*
D03*
X98520Y149290D02*
D03*
X146207Y183972D02*
D03*
X232460Y159090D02*
D03*
X371230Y170540D02*
D03*
X358766Y155000D02*
D03*
X293332Y85738D02*
D03*
Y132550D02*
D03*
X263360Y69050D02*
D03*
X145758Y201130D02*
D03*
X84798Y215354D02*
D03*
X82258Y199595D02*
D03*
X98768Y190462D02*
D03*
X327368Y118072D02*
D03*
X246850Y291276D02*
D03*
X252184Y258534D02*
D03*
X315371Y295000D02*
D03*
X233599Y286605D02*
D03*
X180548Y178160D02*
D03*
X124422Y70828D02*
D03*
X331200Y125160D02*
D03*
X160998Y243673D02*
D03*
X58890Y192240D02*
D03*
X323050D02*
D03*
X327622Y246342D02*
D03*
X49746Y127470D02*
D03*
X101054Y259804D02*
D03*
X175299Y191732D02*
D03*
X191732Y309080D02*
D03*
X-21480Y341920D02*
D03*
X-21374Y346926D02*
D03*
X106480Y133500D02*
D03*
X387040Y215530D02*
D03*
X-21480Y198000D02*
D03*
Y222000D02*
D03*
X16020Y235000D02*
D03*
X48730Y305361D02*
D03*
X-21480Y318000D02*
D03*
X155379Y256112D02*
D03*
X190970Y238600D02*
D03*
X104169Y330000D02*
D03*
X-21480Y393000D02*
D03*
X230000Y334000D02*
D03*
X368520Y128000D02*
D03*
X336480Y188500D02*
D03*
X26765Y397218D02*
D03*
X28156Y155000D02*
D03*
X216878Y52032D02*
D03*
X225260Y53556D02*
D03*
X17234Y45000D02*
D03*
X249644Y305016D02*
D03*
X-9458Y255000D02*
D03*
X-6896Y265000D02*
D03*
X30696Y273526D02*
D03*
X11138Y204432D02*
D03*
X22822Y175000D02*
D03*
X263106Y246088D02*
D03*
X259550Y239412D02*
D03*
X58890Y324320D02*
D03*
X128740Y306794D02*
D03*
X178270Y337274D02*
D03*
X313398Y125184D02*
D03*
X9360Y28410D02*
D03*
X70066Y221000D02*
D03*
X198227Y321911D02*
D03*
X198844Y141948D02*
D03*
X43904Y134836D02*
D03*
X72500Y110250D02*
D03*
X82500D02*
D03*
X92500D02*
D03*
X72500Y100250D02*
D03*
X82500D02*
D03*
X92500D02*
D03*
X72500Y90250D02*
D03*
X82500D02*
D03*
X92500D02*
D03*
X298920Y208242D02*
D03*
D61*
X195000Y265000D02*
D03*
D62*
X200000Y33500D02*
D03*
Y46500D02*
D03*
D75*
X90000Y146750D02*
D03*
D78*
X115000Y108750D02*
D03*
Y121250D02*
D03*
X275000Y47500D02*
D03*
D79*
X250000Y380000D02*
D03*
X90000Y15000D02*
D03*
X115000D02*
D03*
X325000Y355000D02*
D03*
X300000D02*
D03*
X275000D02*
D03*
X250000D02*
D03*
X225000D02*
D03*
X200000D02*
D03*
X175000D02*
D03*
X150000D02*
D03*
X125000D02*
D03*
X165000Y15000D02*
D03*
X340000D02*
D03*
X315000D02*
D03*
X290000D02*
D03*
X265000D02*
D03*
X240000D02*
D03*
X215000D02*
D03*
X65000D02*
D03*
X190000D02*
D03*
X140000D02*
D03*
X75000Y380000D02*
D03*
X100000D02*
D03*
X125000D02*
D03*
X150000D02*
D03*
X100000Y355000D02*
D03*
X75000D02*
D03*
X200000Y380000D02*
D03*
X175000D02*
D03*
X225000D02*
D03*
X275000D02*
D03*
X300000D02*
D03*
X325000D02*
D03*
D80*
X370040Y227800D02*
D03*
D81*
X358000Y90000D02*
D03*
Y140000D02*
D03*
D82*
X45000Y355000D02*
D03*
X355000D02*
D03*
X365000Y35000D02*
D03*
X45000Y45000D02*
D03*
D93*
X224750Y121800D02*
D03*
X198750D02*
D03*
X205250D02*
D03*
X257250Y68200D02*
D03*
X250750D02*
D03*
X179250D02*
D03*
X172751D02*
D03*
Y121800D02*
D03*
X179250D02*
D03*
X250750D02*
D03*
X257250D02*
D03*
X244251D02*
D03*
X237751D02*
D03*
X231250D02*
D03*
X218251D02*
D03*
X211750D02*
D03*
X192251D02*
D03*
X185750D02*
D03*
Y68200D02*
D03*
X192251D02*
D03*
X198750D02*
D03*
X205250D02*
D03*
X211750D02*
D03*
X218251D02*
D03*
X224750D02*
D03*
X231250D02*
D03*
X237751D02*
D03*
X244251D02*
D03*
D94*
X120000Y317267D02*
D03*
Y302734D02*
D03*
D95*
X85000Y258000D02*
D03*
Y225000D02*
D03*
X300000Y101500D02*
D03*
Y68500D02*
D03*
D97*
X137998Y75502D02*
D03*
Y56502D02*
D03*
X275000Y159000D02*
D03*
Y140000D02*
D03*
D98*
X110000Y55250D02*
D03*
Y74750D02*
D03*
D101*
X77979Y71082D02*
D03*
X87022D02*
D03*
D103*
X300000Y47500D02*
D03*
Y32500D02*
D03*
D104*
X383500Y303000D02*
D03*
Y168000D02*
D03*
D105*
X235000Y300000D02*
D03*
D106*
X333000Y155000D02*
D03*
D107*
X235900Y209500D02*
D03*
Y187500D02*
D03*
Y198500D02*
D03*
Y220500D02*
D03*
Y231500D02*
D03*
Y242500D02*
D03*
Y253500D02*
D03*
Y264500D02*
D03*
D108*
X235000Y173400D02*
D03*
D109*
X113500Y193000D02*
D03*
Y170000D02*
D03*
Y147000D02*
D03*
D110*
X325500Y166950D02*
D03*
D111*
X251500D02*
D03*
D112*
X56500Y170000D02*
D03*
M02*
