G04*
G04 #@! TF.GenerationSoftware,Altium Limited,Altium Designer,23.4.1 (23)*
G04*
G04 Layer_Color=65535*
%FSLAX44Y44*%
%MOMM*%
G71*
G04*
G04 #@! TF.SameCoordinates,BB448C96-6B98-4BC5-9BA7-9117CF3D6AC6*
G04*
G04*
G04 #@! TF.FilePolarity,Positive*
G04*
G01*
G75*
%ADD10C,0.5000*%
%ADD11C,0.2500*%
%ADD12C,0.2000*%
G36*
X364897Y183360D02*
X357275D01*
Y183350D01*
X357294Y183341D01*
X357313Y183312D01*
X357341Y183284D01*
X357426Y183181D01*
X357529Y183049D01*
X357651Y182890D01*
X357792Y182692D01*
X357943Y182467D01*
X358093Y182213D01*
Y182204D01*
X358112Y182185D01*
X358131Y182147D01*
X358159Y182100D01*
X358196Y182034D01*
X358234Y181969D01*
X358328Y181800D01*
X358422Y181602D01*
X358525Y181395D01*
X358629Y181179D01*
X358713Y180963D01*
X357557D01*
X357548Y180972D01*
X357538Y181010D01*
X357510Y181057D01*
X357473Y181132D01*
X357426Y181217D01*
X357369Y181320D01*
X357313Y181433D01*
X357238Y181555D01*
X357069Y181828D01*
X356881Y182119D01*
X356665Y182420D01*
X356420Y182711D01*
X356411Y182721D01*
X356392Y182749D01*
X356354Y182786D01*
X356307Y182833D01*
X356242Y182899D01*
X356176Y182965D01*
X356091Y183040D01*
X355997Y183125D01*
X355800Y183303D01*
X355584Y183482D01*
X355349Y183641D01*
X355227Y183717D01*
X355104Y183782D01*
Y184553D01*
X364897D01*
Y183360D01*
D02*
G37*
G36*
Y177796D02*
X361420Y175334D01*
X361410Y175324D01*
X361373Y175296D01*
X361307Y175259D01*
X361232Y175202D01*
X361147Y175146D01*
X361044Y175080D01*
X360818Y174930D01*
X360828D01*
X360837Y174920D01*
X360865Y174901D01*
X360903Y174873D01*
X360988Y174817D01*
X361100Y174751D01*
X361213Y174676D01*
X361326Y174601D01*
X361439Y174525D01*
X361523Y174469D01*
X364897Y171997D01*
Y170447D01*
X359841Y174215D01*
X355142Y170898D01*
Y172448D01*
X357632Y174215D01*
X357642Y174225D01*
X357670Y174244D01*
X357708Y174272D01*
X357764Y174309D01*
X357830Y174347D01*
X357905Y174403D01*
X358074Y174525D01*
X358262Y174648D01*
X358469Y174779D01*
X358657Y174901D01*
X358826Y174995D01*
X358817D01*
X358807Y175014D01*
X358779Y175023D01*
X358741Y175052D01*
X358638Y175117D01*
X358497Y175212D01*
X358337Y175324D01*
X358149Y175456D01*
X357952Y175606D01*
X357736Y175766D01*
X355142Y177721D01*
Y179130D01*
X359775Y175747D01*
X364897Y179394D01*
Y177796D01*
D02*
G37*
G36*
X239939Y376527D02*
X234309D01*
X234290D01*
X234253D01*
X234187D01*
X234102D01*
X233999Y376518D01*
X233877D01*
X233745Y376508D01*
X233604Y376499D01*
X233294Y376471D01*
X232984Y376424D01*
X232834Y376405D01*
X232693Y376367D01*
X232561Y376330D01*
X232439Y376292D01*
X232430D01*
X232411Y376283D01*
X232383Y376264D01*
X232336Y376245D01*
X232232Y376189D01*
X232101Y376104D01*
X231950Y375992D01*
X231791Y375850D01*
X231640Y375681D01*
X231509Y375484D01*
Y375475D01*
X231499Y375456D01*
X231480Y375428D01*
X231462Y375381D01*
X231433Y375324D01*
X231405Y375258D01*
X231377Y375183D01*
X231349Y375089D01*
X231321Y374995D01*
X231292Y374892D01*
X231236Y374647D01*
X231198Y374375D01*
X231189Y374074D01*
Y373943D01*
X231198Y373839D01*
X231208Y373727D01*
X231227Y373586D01*
X231245Y373445D01*
X231274Y373285D01*
X231349Y372947D01*
X231396Y372777D01*
X231462Y372618D01*
X231537Y372458D01*
X231621Y372307D01*
X231715Y372166D01*
X231828Y372044D01*
X231838Y372035D01*
X231856Y372016D01*
X231903Y371988D01*
X231960Y371950D01*
X232035Y371903D01*
X232129Y371847D01*
X232242Y371800D01*
X232383Y371734D01*
X232542Y371678D01*
X232721Y371631D01*
X232918Y371574D01*
X233153Y371527D01*
X233398Y371490D01*
X233680Y371462D01*
X233980Y371443D01*
X234309Y371433D01*
X239939D01*
Y370146D01*
X234300D01*
X234281D01*
X234234D01*
X234159D01*
X234055Y370155D01*
X233933D01*
X233792Y370165D01*
X233633Y370174D01*
X233463Y370183D01*
X233275Y370202D01*
X233087Y370230D01*
X232702Y370287D01*
X232317Y370371D01*
X232138Y370428D01*
X231969Y370484D01*
X231960D01*
X231931Y370503D01*
X231884Y370522D01*
X231828Y370550D01*
X231753Y370588D01*
X231668Y370635D01*
X231574Y370691D01*
X231471Y370757D01*
X231358Y370832D01*
X231245Y370926D01*
X231133Y371020D01*
X231010Y371133D01*
X230888Y371255D01*
X230776Y371386D01*
X230663Y371527D01*
X230559Y371687D01*
X230550Y371697D01*
X230541Y371725D01*
X230512Y371772D01*
X230475Y371847D01*
X230437Y371931D01*
X230390Y372035D01*
X230343Y372157D01*
X230296Y372298D01*
X230240Y372448D01*
X230193Y372618D01*
X230146Y372805D01*
X230108Y373012D01*
X230071Y373228D01*
X230042Y373463D01*
X230033Y373708D01*
X230024Y373961D01*
Y374093D01*
X230033Y374187D01*
X230042Y374309D01*
X230052Y374441D01*
X230061Y374591D01*
X230080Y374760D01*
X230108Y374930D01*
X230136Y375108D01*
X230221Y375484D01*
X230277Y375672D01*
X230343Y375860D01*
X230409Y376038D01*
X230494Y376208D01*
X230503Y376217D01*
X230512Y376245D01*
X230541Y376292D01*
X230578Y376349D01*
X230634Y376424D01*
X230691Y376499D01*
X230757Y376593D01*
X230841Y376687D01*
X230935Y376790D01*
X231029Y376894D01*
X231142Y376997D01*
X231264Y377091D01*
X231396Y377194D01*
X231546Y377288D01*
X231696Y377373D01*
X231856Y377448D01*
X231866D01*
X231894Y377467D01*
X231950Y377486D01*
X232016Y377505D01*
X232110Y377533D01*
X232223Y377561D01*
X232345Y377598D01*
X232495Y377627D01*
X232665Y377664D01*
X232843Y377702D01*
X233050Y377730D01*
X233266Y377758D01*
X233501Y377777D01*
X233745Y377796D01*
X234018Y377815D01*
X234300D01*
X239939D01*
Y376527D01*
D02*
G37*
G36*
X230447Y368623D02*
X230569Y368605D01*
X230710Y368586D01*
X230860Y368548D01*
X231010Y368501D01*
X231020D01*
X231039Y368492D01*
X231076Y368473D01*
X231123Y368454D01*
X231180Y368426D01*
X231255Y368388D01*
X231415Y368304D01*
X231612Y368200D01*
X231828Y368060D01*
X232063Y367900D01*
X232298Y367712D01*
X232307Y367702D01*
X232326Y367684D01*
X232364Y367655D01*
X232411Y367608D01*
X232477Y367552D01*
X232542Y367486D01*
X232627Y367402D01*
X232721Y367308D01*
X232824Y367204D01*
X232937Y367091D01*
X233069Y366960D01*
X233191Y366819D01*
X233332Y366669D01*
X233473Y366499D01*
X233623Y366330D01*
X233783Y366142D01*
X233802Y366124D01*
X233839Y366077D01*
X233905Y365992D01*
X233999Y365889D01*
X234112Y365757D01*
X234234Y365607D01*
X234375Y365447D01*
X234535Y365278D01*
X234864Y364921D01*
X235202Y364563D01*
X235380Y364394D01*
X235540Y364244D01*
X235700Y364103D01*
X235850Y363990D01*
X235860Y363981D01*
X235888Y363962D01*
X235926Y363934D01*
X235982Y363906D01*
X236048Y363859D01*
X236123Y363812D01*
X236217Y363765D01*
X236320Y363708D01*
X236537Y363605D01*
X236781Y363511D01*
X236903Y363483D01*
X237035Y363455D01*
X237157Y363436D01*
X237288Y363426D01*
X237298D01*
X237316D01*
X237354D01*
X237411Y363436D01*
X237467Y363445D01*
X237542Y363455D01*
X237711Y363492D01*
X237899Y363549D01*
X238097Y363643D01*
X238200Y363699D01*
X238303Y363774D01*
X238397Y363849D01*
X238491Y363943D01*
X238501Y363953D01*
X238510Y363962D01*
X238538Y364000D01*
X238566Y364037D01*
X238604Y364084D01*
X238642Y364150D01*
X238689Y364216D01*
X238736Y364300D01*
X238783Y364385D01*
X238830Y364488D01*
X238905Y364714D01*
X238961Y364977D01*
X238971Y365118D01*
X238980Y365268D01*
Y365353D01*
X238971Y365409D01*
X238961Y365485D01*
X238952Y365569D01*
X238933Y365663D01*
X238914Y365766D01*
X238858Y365992D01*
X238764Y366217D01*
X238707Y366340D01*
X238632Y366452D01*
X238557Y366556D01*
X238463Y366659D01*
X238454Y366669D01*
X238435Y366678D01*
X238407Y366706D01*
X238369Y366744D01*
X238313Y366781D01*
X238256Y366819D01*
X238181Y366866D01*
X238087Y366913D01*
X237993Y366969D01*
X237890Y367016D01*
X237768Y367054D01*
X237645Y367091D01*
X237505Y367129D01*
X237354Y367157D01*
X237204Y367167D01*
X237035Y367176D01*
X237157Y368407D01*
X237176D01*
X237213Y368398D01*
X237288Y368388D01*
X237382Y368379D01*
X237495Y368351D01*
X237627Y368323D01*
X237777Y368285D01*
X237937Y368238D01*
X238097Y368191D01*
X238275Y368125D01*
X238444Y368041D01*
X238623Y367956D01*
X238792Y367853D01*
X238952Y367740D01*
X239111Y367608D01*
X239252Y367458D01*
X239262Y367449D01*
X239281Y367421D01*
X239318Y367374D01*
X239365Y367308D01*
X239422Y367223D01*
X239478Y367120D01*
X239544Y367007D01*
X239619Y366866D01*
X239685Y366716D01*
X239751Y366556D01*
X239807Y366368D01*
X239863Y366171D01*
X239910Y365964D01*
X239948Y365738D01*
X239967Y365494D01*
X239976Y365240D01*
Y365174D01*
X239967Y365109D01*
Y365005D01*
X239948Y364892D01*
X239939Y364751D01*
X239910Y364601D01*
X239882Y364441D01*
X239835Y364263D01*
X239788Y364084D01*
X239722Y363896D01*
X239647Y363718D01*
X239563Y363530D01*
X239450Y363351D01*
X239337Y363182D01*
X239196Y363022D01*
X239187Y363013D01*
X239158Y362985D01*
X239121Y362947D01*
X239055Y362891D01*
X238980Y362834D01*
X238886Y362759D01*
X238783Y362684D01*
X238660Y362609D01*
X238529Y362533D01*
X238379Y362458D01*
X238219Y362383D01*
X238050Y362327D01*
X237871Y362270D01*
X237674Y362233D01*
X237476Y362205D01*
X237260Y362195D01*
X237251D01*
X237232D01*
X237204D01*
X237157D01*
X237110Y362205D01*
X237044D01*
X236894Y362223D01*
X236724Y362252D01*
X236527Y362299D01*
X236320Y362355D01*
X236104Y362439D01*
X236095D01*
X236076Y362449D01*
X236048Y362468D01*
X236010Y362486D01*
X235954Y362515D01*
X235897Y362543D01*
X235747Y362627D01*
X235569Y362740D01*
X235362Y362881D01*
X235146Y363041D01*
X234911Y363238D01*
X234901Y363248D01*
X234882Y363267D01*
X234845Y363295D01*
X234798Y363342D01*
X234732Y363408D01*
X234657Y363483D01*
X234563Y363567D01*
X234469Y363680D01*
X234347Y363793D01*
X234225Y363934D01*
X234084Y364084D01*
X233924Y364253D01*
X233764Y364432D01*
X233585Y364629D01*
X233398Y364845D01*
X233200Y365080D01*
X233191Y365090D01*
X233163Y365127D01*
X233116Y365184D01*
X233050Y365249D01*
X232984Y365344D01*
X232899Y365438D01*
X232712Y365663D01*
X232505Y365898D01*
X232298Y366124D01*
X232204Y366227D01*
X232119Y366321D01*
X232035Y366405D01*
X231969Y366471D01*
X231960Y366481D01*
X231913Y366518D01*
X231847Y366575D01*
X231772Y366650D01*
X231668Y366725D01*
X231565Y366810D01*
X231452Y366894D01*
X231330Y366969D01*
Y362186D01*
X230183D01*
Y368633D01*
X230193D01*
X230202D01*
X230259D01*
X230343D01*
X230447Y368623D01*
D02*
G37*
G36*
X88756Y182467D02*
X88841D01*
X88954Y182458D01*
X89076Y182439D01*
X89207Y182411D01*
X89358Y182382D01*
X89518Y182345D01*
X89677Y182298D01*
X89837Y182241D01*
X90006Y182166D01*
X90166Y182082D01*
X90316Y181988D01*
X90467Y181875D01*
X90598Y181743D01*
X90608Y181734D01*
X90626Y181706D01*
X90664Y181668D01*
X90702Y181602D01*
X90758Y181527D01*
X90815Y181433D01*
X90871Y181320D01*
X90937Y181189D01*
X90993Y181048D01*
X91049Y180879D01*
X91106Y180700D01*
X91153Y180503D01*
X91200Y180287D01*
X91228Y180061D01*
X91247Y179807D01*
Y179544D01*
X90081Y179384D01*
Y179394D01*
Y179431D01*
X90072Y179488D01*
Y179563D01*
X90063Y179657D01*
X90053Y179760D01*
X90034Y179873D01*
X90016Y179995D01*
X89959Y180258D01*
X89894Y180512D01*
X89846Y180625D01*
X89790Y180738D01*
X89734Y180841D01*
X89668Y180926D01*
X89649Y180944D01*
X89602Y180991D01*
X89518Y181057D01*
X89395Y181123D01*
X89254Y181198D01*
X89076Y181264D01*
X88869Y181311D01*
X88756Y181320D01*
X88634Y181330D01*
X88550D01*
X88465Y181320D01*
X88352Y181302D01*
X88221Y181273D01*
X88080Y181236D01*
X87939Y181189D01*
X87807Y181114D01*
X87788Y181104D01*
X87751Y181076D01*
X87685Y181020D01*
X87610Y180954D01*
X87535Y180869D01*
X87450Y180766D01*
X87375Y180644D01*
X87318Y180512D01*
X87309Y180493D01*
Y180475D01*
X87300Y180437D01*
X87281Y180399D01*
X87271Y180343D01*
X87262Y180287D01*
X87243Y180212D01*
X87234Y180136D01*
X87224Y180042D01*
X87206Y179939D01*
X87196Y179826D01*
X87187Y179704D01*
Y179572D01*
X87177Y179431D01*
Y179281D01*
Y172561D01*
X85890D01*
Y179206D01*
Y179215D01*
Y179262D01*
Y179328D01*
Y179413D01*
X85899Y179516D01*
X85909Y179629D01*
X85918Y179760D01*
X85927Y179901D01*
X85965Y180212D01*
X86012Y180522D01*
X86087Y180832D01*
X86134Y180973D01*
X86191Y181104D01*
Y181114D01*
X86200Y181133D01*
X86219Y181170D01*
X86247Y181217D01*
X86275Y181273D01*
X86313Y181330D01*
X86416Y181480D01*
X86548Y181649D01*
X86707Y181819D01*
X86905Y181978D01*
X87130Y182129D01*
X87140D01*
X87159Y182147D01*
X87196Y182157D01*
X87243Y182185D01*
X87309Y182213D01*
X87375Y182241D01*
X87459Y182270D01*
X87553Y182298D01*
X87666Y182335D01*
X87779Y182364D01*
X88033Y182420D01*
X88324Y182458D01*
X88634Y182476D01*
X88691D01*
X88756Y182467D01*
D02*
G37*
G36*
X80947Y174695D02*
X80956D01*
X80965Y174714D01*
X80994Y174732D01*
X81022Y174761D01*
X81125Y174845D01*
X81257Y174949D01*
X81417Y175071D01*
X81614Y175212D01*
X81839Y175362D01*
X82093Y175513D01*
X82102D01*
X82121Y175531D01*
X82159Y175550D01*
X82206Y175578D01*
X82272Y175616D01*
X82338Y175653D01*
X82507Y175747D01*
X82704Y175841D01*
X82911Y175945D01*
X83127Y176048D01*
X83343Y176133D01*
Y174977D01*
X83334Y174967D01*
X83296Y174958D01*
X83249Y174930D01*
X83174Y174892D01*
X83089Y174845D01*
X82986Y174789D01*
X82873Y174732D01*
X82751Y174657D01*
X82478Y174488D01*
X82187Y174300D01*
X81886Y174084D01*
X81595Y173840D01*
X81586Y173830D01*
X81557Y173811D01*
X81520Y173774D01*
X81473Y173727D01*
X81407Y173661D01*
X81341Y173595D01*
X81266Y173511D01*
X81181Y173417D01*
X81003Y173219D01*
X80824Y173003D01*
X80665Y172768D01*
X80590Y172646D01*
X80524Y172524D01*
X79753D01*
Y182317D01*
X80947D01*
Y174695D01*
D02*
G37*
D10*
X301500Y181000D02*
G03*
X301500Y181000I-2500J0D01*
G01*
D11*
X323162Y170400D02*
G03*
X323162Y170400I-1250J0D01*
G01*
X438250Y264000D02*
G03*
X438250Y264000I-1250J0D01*
G01*
X86000Y230500D02*
G03*
X86000Y230500I-1250J0D01*
G01*
X468500Y257500D02*
G03*
X468500Y257500I-1250J0D01*
G01*
X404250Y143500D02*
G03*
X404250Y143500I-1250J0D01*
G01*
X15250Y312500D02*
G03*
X15250Y312500I-1250J0D01*
G01*
X140000Y317250D02*
G03*
X140000Y317250I-1250J0D01*
G01*
X221750Y383500D02*
G03*
X221750Y383500I-1250J0D01*
G01*
X442811Y320250D02*
G03*
X442811Y320250I-1250J0D01*
G01*
X381251Y168000D02*
G03*
X381251Y168000I-1250J0D01*
G01*
X15250Y272500D02*
G03*
X15250Y272500I-1250J0D01*
G01*
Y292500D02*
G03*
X15250Y292500I-1250J0D01*
G01*
Y332500D02*
G03*
X15250Y332500I-1250J0D01*
G01*
D12*
X307500Y172500D02*
Y257500D01*
X222501D02*
X307500D01*
X222500Y172499D02*
X222501Y257500D01*
X222500Y172499D02*
X307500Y172500D01*
X259363Y290138D02*
Y304862D01*
X245638Y290138D02*
Y304862D01*
X404499Y301001D02*
Y310501D01*
X430499D01*
X404499Y264501D02*
Y274000D01*
Y264501D02*
X430499D01*
X24001Y180050D02*
Y254950D01*
X24000Y180047D02*
X32120D01*
X58880D02*
X71000D01*
Y181350D01*
X70953Y253640D02*
Y254953D01*
X58880D02*
X70953D01*
X24001Y254950D02*
X32120D01*
X24000Y141500D02*
X56000D01*
X24000Y167250D02*
Y168500D01*
Y141500D02*
Y142750D01*
Y168500D02*
X56000D01*
Y167250D02*
Y168500D01*
Y141500D02*
Y142750D01*
X483750Y342500D02*
X506250D01*
X483750Y334500D02*
Y342500D01*
Y242500D02*
Y250500D01*
Y242500D02*
X506250D01*
X526250Y254500D02*
Y330500D01*
X437250Y255000D02*
X447000D01*
Y225000D02*
Y233250D01*
Y246750D02*
Y255000D01*
X437250Y225000D02*
X447000D01*
X433000Y237250D02*
Y242750D01*
X336501Y130000D02*
X403500D01*
X336501Y100000D02*
X403500D01*
Y130000D01*
X336501Y100000D02*
Y130000D01*
X445939Y75939D02*
Y104061D01*
X464061Y75939D02*
Y104061D01*
X336150Y230000D02*
Y240000D01*
X348850Y230000D02*
Y240000D01*
X340000Y171150D02*
X350000D01*
X340000Y183850D02*
X350000D01*
X64500Y301500D02*
X80500D01*
X64500Y283500D02*
X80500D01*
X425250Y178500D02*
X439750D01*
X425250Y151500D02*
X439750D01*
X315940Y115939D02*
Y144060D01*
X334061Y115939D02*
Y144060D01*
X148090Y246498D02*
X164091D01*
X148090Y228498D02*
X164091D01*
X108200Y294149D02*
Y304149D01*
X95500Y294149D02*
Y304149D01*
X35750Y319250D02*
X39250D01*
X35750Y305750D02*
X39250D01*
X452500Y331350D02*
X462500D01*
X452500Y318650D02*
X462500D01*
X112000Y323250D02*
X133000D01*
X112000Y291751D02*
X133000D01*
X218250Y376000D02*
X221000D01*
Y373250D02*
Y376000D01*
Y334000D02*
Y336750D01*
X218250Y334000D02*
X221000D01*
X179000D02*
X181750D01*
X179000D02*
Y336750D01*
Y376000D02*
X181750D01*
X179000Y373250D02*
Y376000D01*
X64500Y281500D02*
X80500D01*
X64500Y263500D02*
X80500D01*
X285939Y315939D02*
Y344061D01*
X304061Y315939D02*
Y344061D01*
X405000Y315000D02*
X435000D01*
X405000Y345000D02*
X435000D01*
X378561Y345439D02*
Y369561D01*
X361439Y345439D02*
Y369561D01*
X465250Y343000D02*
X469750D01*
X465250Y357000D02*
X469750D01*
X419061Y225939D02*
Y254060D01*
X400939Y225939D02*
Y254060D01*
X96150Y310000D02*
Y320000D01*
X108850Y310000D02*
Y320000D01*
X290000Y311350D02*
X300000D01*
X290000Y298650D02*
X300000D01*
X171250Y342250D02*
Y352750D01*
X158750Y342250D02*
Y352750D01*
X194750Y316250D02*
X205251D01*
X194750Y328750D02*
X205251D01*
X295000Y136350D02*
X305000D01*
X295000Y123650D02*
X305000D01*
X192274Y169426D02*
Y179426D01*
X179575Y169426D02*
Y179426D01*
X352500Y201149D02*
X362500D01*
X352500Y213849D02*
X362500D01*
X222501Y286150D02*
X232501D01*
X222501Y298850D02*
X232501D01*
X35750Y265750D02*
X39250D01*
X35750Y279250D02*
X39250D01*
X35750Y285749D02*
X39250D01*
X35750Y299250D02*
X39250D01*
X35750Y325750D02*
X39250D01*
X35750Y339250D02*
X39250D01*
M02*
