G04*
G04 #@! TF.GenerationSoftware,Altium Limited,Altium Designer,23.4.1 (23)*
G04*
G04 Layer_Physical_Order=1*
G04 Layer_Color=255*
%FSLAX44Y44*%
%MOMM*%
G71*
G04*
G04 #@! TF.SameCoordinates,0C08C988-1F2B-49C3-A879-C7924B40E8ED*
G04*
G04*
G04 #@! TF.FilePolarity,Positive*
G04*
G01*
G75*
%ADD11C,0.5000*%
%ADD16C,0.5000*%
%ADD17R,0.5000X0.3500*%
%ADD18R,0.8000X0.3500*%
%ADD19R,0.3500X0.8500*%
%ADD20R,2.7000X2.6000*%
%ADD21R,1.2500X1.1000*%
%ADD22R,1.2084X1.0121*%
%ADD23R,0.4000X2.0000*%
G04:AMPARAMS|DCode=24|XSize=0.7311mm|YSize=0.3025mm|CornerRadius=0.1512mm|HoleSize=0mm|Usage=FLASHONLY|Rotation=90.000|XOffset=0mm|YOffset=0mm|HoleType=Round|Shape=RoundedRectangle|*
%AMROUNDEDRECTD24*
21,1,0.7311,0.0000,0,0,90.0*
21,1,0.4286,0.3025,0,0,90.0*
1,1,0.3025,0.0000,0.2143*
1,1,0.3025,0.0000,-0.2143*
1,1,0.3025,0.0000,-0.2143*
1,1,0.3025,0.0000,0.2143*
%
%ADD24ROUNDEDRECTD24*%
G04:AMPARAMS|DCode=25|XSize=0.3125mm|YSize=1.7883mm|CornerRadius=0.1562mm|HoleSize=0mm|Usage=FLASHONLY|Rotation=180.000|XOffset=0mm|YOffset=0mm|HoleType=Round|Shape=RoundedRectangle|*
%AMROUNDEDRECTD25*
21,1,0.3125,1.4758,0,0,180.0*
21,1,0.0000,1.7883,0,0,180.0*
1,1,0.3125,0.0000,0.7379*
1,1,0.3125,0.0000,0.7379*
1,1,0.3125,0.0000,-0.7379*
1,1,0.3125,0.0000,-0.7379*
%
%ADD25ROUNDEDRECTD25*%
%ADD26R,0.9500X0.8000*%
%ADD27R,0.5000X0.4000*%
%ADD28R,1.0500X0.9500*%
%ADD29R,1.3500X0.4000*%
%ADD30R,1.8000X0.6000*%
%ADD31R,0.5200X0.5200*%
G04:AMPARAMS|DCode=32|XSize=1.7883mm|YSize=0.3125mm|CornerRadius=0.1562mm|HoleSize=0mm|Usage=FLASHONLY|Rotation=180.000|XOffset=0mm|YOffset=0mm|HoleType=Round|Shape=RoundedRectangle|*
%AMROUNDEDRECTD32*
21,1,1.7883,0.0000,0,0,180.0*
21,1,1.4758,0.3125,0,0,180.0*
1,1,0.3125,-0.7379,0.0000*
1,1,0.3125,0.7379,0.0000*
1,1,0.3125,0.7379,0.0000*
1,1,0.3125,-0.7379,0.0000*
%
%ADD32ROUNDEDRECTD32*%
%ADD33R,0.9587X0.9121*%
%ADD34R,0.6000X1.8000*%
G04:AMPARAMS|DCode=35|XSize=1.9mm|YSize=3.2mm|CornerRadius=0mm|HoleSize=0mm|Usage=FLASHONLY|Rotation=180.000|XOffset=0mm|YOffset=0mm|HoleType=Round|Shape=Octagon|*
%AMOCTAGOND35*
4,1,8,0.4750,-1.6000,-0.4750,-1.6000,-0.9500,-1.1250,-0.9500,1.1250,-0.4750,1.6000,0.4750,1.6000,0.9500,1.1250,0.9500,-1.1250,0.4750,-1.6000,0.0*
%
%ADD35OCTAGOND35*%

%ADD36R,1.5500X0.6000*%
%ADD37R,0.7000X1.3000*%
%ADD38R,1.0121X1.2084*%
%ADD39R,1.8000X1.2000*%
%ADD40R,0.7500X1.0000*%
%ADD41R,0.8000X1.7000*%
%ADD42R,0.8500X0.7000*%
%ADD43R,1.7883X0.3125*%
%ADD44R,0.8000X0.9500*%
%ADD45R,1.4000X0.6000*%
%ADD46R,0.4500X0.4500*%
%ADD47R,1.9000X2.4000*%
%ADD49R,6.8000X2.8400*%
%ADD50R,0.3025X0.7311*%
%ADD51R,0.9500X0.8500*%
%ADD52R,1.9000X1.5000*%
%ADD53R,0.6000X1.4000*%
%ADD54R,0.8500X0.7000*%
%ADD61R,2.5000X1.7500*%
%ADD80C,0.7500*%
%ADD83R,0.6000X0.7000*%
%ADD84C,0.1500*%
G04:AMPARAMS|DCode=85|XSize=1.524mm|YSize=2mm|CornerRadius=0.381mm|HoleSize=0mm|Usage=FLASHONLY|Rotation=0.000|XOffset=0mm|YOffset=0mm|HoleType=Round|Shape=RoundedRectangle|*
%AMROUNDEDRECTD85*
21,1,1.5240,1.2380,0,0,0.0*
21,1,0.7620,2.0000,0,0,0.0*
1,1,0.7620,0.3810,-0.6190*
1,1,0.7620,-0.3810,-0.6190*
1,1,0.7620,-0.3810,0.6190*
1,1,0.7620,0.3810,0.6190*
%
%ADD85ROUNDEDRECTD85*%
%ADD86C,1.4500*%
%ADD87C,1.5240*%
G36*
X394500Y92000D02*
X375500D01*
Y79000D01*
X394500D01*
Y92000D01*
D02*
G37*
G36*
X389500Y79000D02*
X380500D01*
Y74000D01*
X389500Y74000D01*
Y79000D01*
D02*
G37*
G36*
X380500Y151000D02*
X389500D01*
Y156000D01*
X380500Y156000D01*
Y151000D01*
D02*
G37*
G36*
X375500Y138000D02*
X394500D01*
Y151000D01*
X375500D01*
Y138000D01*
D02*
G37*
D11*
X390409Y153329D02*
G03*
X390271Y153378I-909J-2329D01*
G01*
X390409Y153329D02*
G03*
X390271Y153378I-909J-2329D01*
G01*
X390271Y153378D02*
G03*
X389729Y153489I-771J-2378D01*
G01*
X390271Y153378D02*
G03*
X389729Y153489I-771J-2378D01*
G01*
X390271Y153378D02*
G03*
X389729Y153489I-771J-2378D01*
G01*
X390271Y153378D02*
G03*
X389729Y153489I-771J-2378D01*
G01*
X389728Y153490D02*
G03*
X389500Y153500I-228J-2490D01*
G01*
X389728Y153490D02*
G03*
X389500Y153500I-228J-2490D01*
G01*
X389728Y153490D02*
G03*
X389500Y153500I-228J-2490D01*
G01*
X389728Y153490D02*
G03*
X389500Y153500I-228J-2490D01*
G01*
X391791Y152000D02*
G03*
X390409Y153329I-2291J-1000D01*
G01*
X391791Y152000D02*
G03*
X390409Y153329I-2291J-1000D01*
G01*
X390409Y153329D02*
G03*
X390271Y153378I-909J-2329D01*
G01*
X390409Y153329D02*
G03*
X390271Y153378I-909J-2329D01*
G01*
X391791Y152000D02*
G03*
X390409Y153329I-2291J-1000D01*
G01*
X391791Y152000D02*
G03*
X390409Y153329I-2291J-1000D01*
G01*
X389500Y153500D02*
G03*
X387755Y152790I-0J-2500D01*
G01*
X389500Y153500D02*
G03*
X387755Y152790I-0J-2500D01*
G01*
X389500Y153500D02*
G03*
X387755Y152790I-0J-2500D01*
G01*
X389500Y153500D02*
G03*
X387755Y152790I-0J-2500D01*
G01*
X391989Y151231D02*
G03*
X391989Y151232I-2489J-231D01*
G01*
X391989Y151229D02*
G03*
X391989Y151231I-2490J-229D01*
G01*
Y151231D02*
G03*
X391989Y151232I-2489J-231D01*
G01*
X391989Y151229D02*
G03*
X391989Y151231I-2490J-229D01*
G01*
X391989Y151229D02*
G03*
X391989Y151231I-2490J-229D01*
G01*
Y151231D02*
G03*
X391989Y151232I-2489J-231D01*
G01*
X391989Y151231D02*
G03*
X391989Y151232I-2489J-231D01*
G01*
X392000Y151000D02*
G03*
X391996Y151138I-2500J-0D01*
G01*
X392000Y151000D02*
G03*
X391996Y151138I-2500J-0D01*
G01*
X391996Y151139D02*
G03*
X391989Y151228I-2496J-139D01*
G01*
X391996Y151138D02*
G03*
X391996Y151139I-2496J-138D01*
G01*
X392000Y151000D02*
G03*
X391996Y151138I-2500J-0D01*
G01*
X392000Y151000D02*
G03*
X391996Y151138I-2500J-0D01*
G01*
X391996Y151139D02*
G03*
X391989Y151228I-2496J-139D01*
G01*
X391996Y151138D02*
G03*
X391996Y151139I-2496J-138D01*
G01*
X391989Y151229D02*
G03*
X391989Y151231I-2490J-229D01*
G01*
X391996Y151139D02*
G03*
X391989Y151228I-2496J-139D01*
G01*
X391996Y151138D02*
G03*
X391996Y151139I-2496J-138D01*
G01*
D02*
G03*
X391989Y151228I-2496J-139D01*
G01*
X391996Y151138D02*
G03*
X391996Y151139I-2496J-138D01*
G01*
X391884Y151753D02*
G03*
X391829Y151909I-2384J-753D01*
G01*
X391884Y151753D02*
G03*
X391829Y151909I-2384J-753D01*
G01*
X391884Y151753D02*
G03*
X391829Y151909I-2384J-753D01*
G01*
X391926Y151603D02*
G03*
X391884Y151752I-2426J-603D01*
G01*
X391926Y151603D02*
G03*
X391884Y151752I-2426J-603D01*
G01*
X391828Y151910D02*
G03*
X391791Y152000I-2329J-909D01*
G01*
X391828Y151910D02*
G03*
X391791Y152000I-2329J-909D01*
G01*
X391828Y151910D02*
G03*
X391791Y152000I-2329J-909D01*
G01*
X391884Y151753D02*
G03*
X391829Y151909I-2384J-753D01*
G01*
X391828Y151910D02*
G03*
X391791Y152000I-2329J-909D01*
G01*
X391926Y151603D02*
G03*
X391884Y151752I-2426J-603D01*
G01*
X392000Y150999D02*
G03*
X392000Y151000I-2500J1D01*
G01*
X391818Y150064D02*
G03*
X392000Y150999I-2318J936D01*
G01*
X391926Y151603D02*
G03*
X391884Y151752I-2426J-603D01*
G01*
X392000Y150999D02*
G03*
X392000Y151000I-2500J1D01*
G01*
X391818Y150064D02*
G03*
X392000Y150999I-2318J936D01*
G01*
X391791Y150000D02*
G03*
X391818Y150063I-2291J1000D01*
G01*
X391791Y150000D02*
G03*
X391818Y150063I-2291J1000D01*
G01*
X391791Y150000D02*
G03*
X391818Y150063I-2291J1000D01*
G01*
X391791Y150000D02*
G03*
X391818Y150063I-2291J1000D01*
G01*
X387984Y80988D02*
G03*
X387333Y80247I1516J-1988D01*
G01*
X387984Y80988D02*
G03*
X387333Y80247I1516J-1988D01*
G01*
X382791Y150000D02*
G03*
X382928Y150404I-2291J1000D01*
G01*
X378209Y150000D02*
G03*
X382791Y150000I2291J1000D01*
G01*
X383000Y151000D02*
G03*
X378209Y150000I-2500J-0D01*
G01*
X382791D02*
G03*
X382928Y150404I-2291J1000D01*
G01*
X378209Y150000D02*
G03*
X382791Y150000I2291J1000D01*
G01*
X383000Y151000D02*
G03*
X378209Y150000I-2500J-0D01*
G01*
X387333Y80247D02*
G03*
X387058Y79536I2166J-1247D01*
G01*
X387333Y80247D02*
G03*
X387058Y79536I2166J-1247D01*
G01*
X387058Y79535D02*
G03*
X387009Y79210I2442J-536D01*
G01*
X387058Y79535D02*
G03*
X387009Y79210I2442J-536D01*
G01*
Y79210D02*
G03*
X387000Y79032I2491J-210D01*
G01*
Y79032D02*
G03*
X387000Y79013I2500J-32D01*
G01*
X387000Y79032D02*
G03*
X387000Y79013I2500J-32D01*
G01*
D02*
G03*
X387000Y79010I2500J-14D01*
G01*
Y79010D02*
Y79009D01*
Y79013D02*
G03*
X387000Y79010I2500J-14D01*
G01*
Y79010D02*
Y79009D01*
Y79009D02*
G03*
X387000Y79005I2500J-9D01*
G01*
X387000Y79009D02*
G03*
X387000Y79005I2500J-9D01*
G01*
X387499Y152498D02*
G03*
X387497Y152497I2001J-1498D01*
G01*
X387499Y152498D02*
G03*
X387497Y152497I2001J-1498D01*
G01*
X391989Y151232D02*
G03*
X391927Y151600I-2489J-232D01*
G01*
X391989Y151232D02*
G03*
X391927Y151600I-2489J-232D01*
G01*
X391989Y151232D02*
G03*
X391927Y151600I-2489J-232D01*
G01*
X391989Y151232D02*
G03*
X391927Y151600I-2489J-232D01*
G01*
X387209Y149999D02*
G03*
X391791Y150000I2291J1001D01*
G01*
X387497Y152497D02*
G03*
X387209Y150000I2003J-1497D01*
G01*
X387209Y149999D02*
G03*
X391791Y150000I2291J1001D01*
G01*
X387209Y149999D02*
G03*
X391791Y150000I2291J1001D01*
G01*
X387209Y149999D02*
G03*
X391791Y150000I2291J1001D01*
G01*
X387497Y152497D02*
G03*
X387209Y150000I2003J-1497D01*
G01*
X387209Y150000D02*
X387209Y149999D01*
X387209Y150000D02*
X387209Y149999D01*
X387000Y79005D02*
G03*
X387000Y79000I2500J-5D01*
G01*
Y79005D02*
G03*
X387000Y79000I2500J-5D01*
G01*
X390606Y81242D02*
G03*
X390407Y81330I-1106J-2242D01*
G01*
X390606Y81242D02*
G03*
X390407Y81330I-1106J-2242D01*
G01*
X391630Y80309D02*
G03*
X390606Y81242I-2130J-1309D01*
G01*
X392000Y79000D02*
G03*
X391630Y80309I-2500J-0D01*
G01*
X388406Y81248D02*
G03*
X388252Y81166I1094J-2248D01*
G01*
X390407Y81330D02*
G03*
X388407Y81248I-907J-2330D01*
G01*
X392000Y79000D02*
G03*
X391630Y80309I-2500J-0D01*
G01*
D02*
G03*
X390606Y81242I-2130J-1309D01*
G01*
X388406Y81248D02*
G03*
X388252Y81166I1094J-2248D01*
G01*
X388252Y81166D02*
G03*
X387984Y80988I1248J-2166D01*
G01*
X388252Y81166D02*
G03*
X387984Y80988I1248J-2166D01*
G01*
X390407Y81330D02*
G03*
X388407Y81248I-907J-2330D01*
G01*
X387000Y79000D02*
G03*
X392000Y79000I2500J-0D01*
G01*
X391927Y151600D02*
X391927Y151601D01*
X391927Y151600D02*
X391927Y151601D01*
X387754Y152789D02*
G03*
X387753Y152788I1746J-1789D01*
G01*
X387754Y152789D02*
G03*
X387753Y152788I1746J-1789D01*
G01*
X387752Y152788D01*
X387753Y152788D02*
X387752Y152788D01*
X387752Y152788D02*
G03*
X387690Y152724I1748J-1788D01*
G01*
X387752Y152788D02*
G03*
X387690Y152724I1748J-1788D01*
G01*
X387690Y152724D02*
G03*
X387688Y152723I1810J-1724D01*
G01*
X387690Y152724D02*
G03*
X387688Y152723I1810J-1724D01*
G01*
X387755Y152790D02*
X387754Y152790D01*
X387755Y152790D02*
X387754Y152790D01*
X383000Y79000D02*
G03*
X380500Y76500I-2500J-0D01*
G01*
X382175Y77144D02*
G03*
X383000Y79000I-1675J1856D01*
G01*
X382175Y77144D02*
G03*
X383000Y79000I-1675J1856D01*
G01*
X380500Y76500D02*
G03*
X382175Y77144I-0J2500D01*
G01*
X380500Y76500D02*
G03*
X382175Y77144I-0J2500D01*
G01*
X387688Y152722D02*
G03*
X387499Y152499I1812J-1723D01*
G01*
X387688Y152722D02*
G03*
X387499Y152499I1812J-1723D01*
G01*
X382928Y150404D02*
G03*
X383000Y151000I-2428J596D01*
G01*
X383000Y79000D02*
G03*
X380500Y76500I-2500J-0D01*
G01*
D16*
X391818Y150064D02*
D03*
D03*
X387000Y79009D02*
D03*
D03*
X391926Y151602D02*
D03*
D03*
X382175Y77144D02*
D03*
D03*
X387754Y152789D02*
D03*
D03*
X383000Y79000D02*
D03*
X308064Y250152D02*
D03*
X125184Y257772D02*
D03*
X182588Y37300D02*
D03*
X148329Y142425D02*
D03*
X95000Y72606D02*
D03*
X152870Y212814D02*
D03*
X165570Y104356D02*
D03*
X167066Y130772D02*
D03*
X167602Y132804D02*
D03*
Y208242D02*
D03*
X151798Y131554D02*
D03*
X168099Y217397D02*
D03*
X88354Y189700D02*
D03*
X132804Y268948D02*
D03*
X264884Y296888D02*
D03*
X49492Y82512D02*
D03*
X171933Y250343D02*
D03*
X67526Y192494D02*
D03*
X48730Y200439D02*
D03*
X86576Y274282D02*
D03*
X306540Y311620D02*
D03*
X358864Y162776D02*
D03*
X332781Y180985D02*
D03*
X343340Y127700D02*
D03*
X295000Y245834D02*
D03*
X25978Y67272D02*
D03*
X216878Y44666D02*
D03*
X79718Y53048D02*
D03*
X71082Y72098D02*
D03*
X37046Y183604D02*
D03*
X313144Y305524D02*
D03*
X103594Y280886D02*
D03*
X336004Y58636D02*
D03*
X171920Y222974D02*
D03*
X190379Y185890D02*
D03*
X190970Y194780D02*
D03*
X257518Y105372D02*
D03*
X154140Y167856D02*
D03*
X155410Y77940D02*
D03*
X205448Y132804D02*
D03*
X98520Y149290D02*
D03*
X146207Y183972D02*
D03*
X232460Y159090D02*
D03*
X371230Y170540D02*
D03*
X358766Y155000D02*
D03*
X293332Y85738D02*
D03*
Y132550D02*
D03*
X263360Y69050D02*
D03*
X145758Y201130D02*
D03*
X84798Y215354D02*
D03*
X82258Y199595D02*
D03*
X98768Y190462D02*
D03*
X327368Y118072D02*
D03*
X246850Y291276D02*
D03*
X252184Y258534D02*
D03*
X315371Y295000D02*
D03*
X233599Y286605D02*
D03*
X180548Y178160D02*
D03*
X124422Y70828D02*
D03*
X331200Y125160D02*
D03*
X160998Y243673D02*
D03*
X58890Y192240D02*
D03*
X323050D02*
D03*
X327622Y246342D02*
D03*
X49746Y127470D02*
D03*
X101054Y259804D02*
D03*
X175299Y191732D02*
D03*
X191732Y309080D02*
D03*
X-21480Y341920D02*
D03*
X-21374Y346926D02*
D03*
X106480Y133500D02*
D03*
X387040Y215530D02*
D03*
X-21480Y198000D02*
D03*
Y222000D02*
D03*
X16020Y235000D02*
D03*
X48730Y305361D02*
D03*
X-21480Y318000D02*
D03*
X155379Y256112D02*
D03*
X190970Y238600D02*
D03*
X104169Y330000D02*
D03*
X-21480Y393000D02*
D03*
X230000Y334000D02*
D03*
X368520Y128000D02*
D03*
X336480Y188500D02*
D03*
X26765Y397218D02*
D03*
X28156Y155000D02*
D03*
X216878Y52032D02*
D03*
X225260Y53556D02*
D03*
X17234Y45000D02*
D03*
X249644Y305016D02*
D03*
X-9458Y255000D02*
D03*
X-6896Y265000D02*
D03*
X30696Y273526D02*
D03*
X11138Y204432D02*
D03*
X22822Y175000D02*
D03*
X263106Y246088D02*
D03*
X259550Y239412D02*
D03*
X58890Y324320D02*
D03*
X128740Y306794D02*
D03*
X178270Y337274D02*
D03*
X313398Y125184D02*
D03*
X9360Y28410D02*
D03*
X70066Y221000D02*
D03*
X198227Y321911D02*
D03*
X198844Y141948D02*
D03*
X43904Y134836D02*
D03*
X72500Y110250D02*
D03*
X82500D02*
D03*
X92500D02*
D03*
X72500Y100250D02*
D03*
X82500D02*
D03*
X92500D02*
D03*
X72500Y90250D02*
D03*
X82500D02*
D03*
X92500D02*
D03*
X298920Y208242D02*
D03*
D17*
X157000Y69750D02*
D03*
Y63250D02*
D03*
Y56750D02*
D03*
Y50250D02*
D03*
X173001D02*
D03*
Y56750D02*
D03*
Y63250D02*
D03*
Y69750D02*
D03*
D18*
X62500Y112750D02*
D03*
Y107750D02*
D03*
Y102750D02*
D03*
Y97750D02*
D03*
Y92750D02*
D03*
Y87750D02*
D03*
X102500D02*
D03*
Y92750D02*
D03*
Y97750D02*
D03*
Y102750D02*
D03*
Y107750D02*
D03*
Y112750D02*
D03*
D19*
X70000Y80500D02*
D03*
X75000D02*
D03*
X80000D02*
D03*
X85000D02*
D03*
X90000D02*
D03*
X95000D02*
D03*
Y120000D02*
D03*
X90000D02*
D03*
X85000D02*
D03*
X80000D02*
D03*
X75000D02*
D03*
X70000D02*
D03*
D20*
X82500Y100250D02*
D03*
D21*
X381750Y315000D02*
D03*
Y295000D02*
D03*
Y275000D02*
D03*
Y255000D02*
D03*
X358250Y315000D02*
D03*
Y255000D02*
D03*
Y275000D02*
D03*
Y295000D02*
D03*
D22*
X303018Y295000D02*
D03*
X46037Y95000D02*
D03*
X286981Y295000D02*
D03*
X30000Y95000D02*
D03*
D23*
X230000Y305001D02*
D03*
X218000D02*
D03*
X242000D02*
D03*
D24*
X163250Y328905D02*
D03*
X169750Y301095D02*
D03*
X150250Y328905D02*
D03*
X156750D02*
D03*
X169750D02*
D03*
X163250Y301095D02*
D03*
X156750D02*
D03*
D25*
X220379Y268824D02*
D03*
X155379Y268824D02*
D03*
X220379Y155000D02*
D03*
X215379Y268824D02*
D03*
X210379D02*
D03*
X225379Y155000D02*
D03*
X150379Y268824D02*
D03*
X225379Y268824D02*
D03*
X205379Y268824D02*
D03*
X200379D02*
D03*
X195379Y268824D02*
D03*
X190379D02*
D03*
X185379D02*
D03*
X180379Y268824D02*
D03*
X175379Y268824D02*
D03*
X170379D02*
D03*
X165379D02*
D03*
X160379D02*
D03*
X150379Y155000D02*
D03*
X155379D02*
D03*
X160378D02*
D03*
X165379D02*
D03*
X170379D02*
D03*
X175379D02*
D03*
X180379D02*
D03*
X185379D02*
D03*
X190379D02*
D03*
X195379D02*
D03*
X200379D02*
D03*
X205379D02*
D03*
X210378D02*
D03*
X215379D02*
D03*
D26*
X345000Y188500D02*
D03*
X115000Y133500D02*
D03*
Y146500D02*
D03*
X345000Y201500D02*
D03*
D27*
X310000Y234000D02*
D03*
X285443Y180985D02*
D03*
X59999Y221000D02*
D03*
X58890Y172618D02*
D03*
X285443Y172985D02*
D03*
X60000Y202000D02*
D03*
X310000Y226000D02*
D03*
X58890Y164618D02*
D03*
X60000Y210000D02*
D03*
X59999Y229000D02*
D03*
D28*
X295000Y222750D02*
D03*
Y237250D02*
D03*
D29*
X358000Y128000D02*
D03*
Y121500D02*
D03*
Y115000D02*
D03*
Y108500D02*
D03*
Y102000D02*
D03*
D30*
X308000Y155000D02*
D03*
D31*
X270001Y259000D02*
D03*
X155000Y109000D02*
D03*
X145000Y109001D02*
D03*
X105000Y254000D02*
D03*
X45000Y189000D02*
D03*
X135000Y109001D02*
D03*
X125000Y109000D02*
D03*
X135000Y69000D02*
D03*
Y49000D02*
D03*
Y101001D02*
D03*
X145000D02*
D03*
X155000Y101000D02*
D03*
X125000D02*
D03*
X135000Y61000D02*
D03*
Y41000D02*
D03*
X45000Y181000D02*
D03*
X105000Y246000D02*
D03*
X270001Y251000D02*
D03*
D32*
X244791Y229411D02*
D03*
X130967Y179412D02*
D03*
Y174412D02*
D03*
X244791Y179412D02*
D03*
Y184412D02*
D03*
Y189412D02*
D03*
Y194412D02*
D03*
Y199412D02*
D03*
X244791Y204412D02*
D03*
X244791Y209412D02*
D03*
Y214412D02*
D03*
Y219412D02*
D03*
Y224411D02*
D03*
Y234412D02*
D03*
Y239412D02*
D03*
Y244412D02*
D03*
Y249412D02*
D03*
X130967D02*
D03*
Y244412D02*
D03*
Y239412D02*
D03*
Y234412D02*
D03*
Y229412D02*
D03*
Y224412D02*
D03*
Y219412D02*
D03*
Y214412D02*
D03*
Y209412D02*
D03*
Y204412D02*
D03*
Y199412D02*
D03*
Y194412D02*
D03*
Y189412D02*
D03*
Y184411D02*
D03*
D33*
X112733Y330000D02*
D03*
X127267D02*
D03*
D34*
X80000Y283001D02*
D03*
D35*
Y308001D02*
D03*
D36*
X4500Y370000D02*
D03*
Y235000D02*
D03*
Y165000D02*
D03*
Y65000D02*
D03*
Y85000D02*
D03*
Y75000D02*
D03*
Y55000D02*
D03*
Y45000D02*
D03*
Y35000D02*
D03*
Y245000D02*
D03*
Y305000D02*
D03*
Y295000D02*
D03*
Y285000D02*
D03*
Y275000D02*
D03*
Y265000D02*
D03*
Y255000D02*
D03*
Y185000D02*
D03*
Y175000D02*
D03*
Y155000D02*
D03*
Y145000D02*
D03*
Y135000D02*
D03*
Y360000D02*
D03*
Y380000D02*
D03*
D37*
X70500Y250000D02*
D03*
X89500D02*
D03*
D38*
X45000Y260000D02*
D03*
Y243962D02*
D03*
D39*
X-34250Y393000D02*
D03*
Y318000D02*
D03*
Y347000D02*
D03*
Y222000D02*
D03*
Y198000D02*
D03*
Y122000D02*
D03*
Y98000D02*
D03*
Y22000D02*
D03*
D40*
X327500Y255000D02*
D03*
X42500Y115000D02*
D03*
X27500D02*
D03*
X342500Y315000D02*
D03*
X327500D02*
D03*
X342500Y255000D02*
D03*
X327500Y275000D02*
D03*
X342500D02*
D03*
X327500Y295000D02*
D03*
X342500D02*
D03*
D41*
X387040Y227800D02*
D03*
X353040D02*
D03*
D42*
X332750Y235000D02*
D03*
X317250D02*
D03*
D43*
X244791Y174411D02*
D03*
D44*
X268750Y145000D02*
D03*
X261249Y125000D02*
D03*
X273749D02*
D03*
X281250Y145000D02*
D03*
D45*
X306000Y140000D02*
D03*
Y170000D02*
D03*
D46*
X340000Y96000D02*
D03*
Y104000D02*
D03*
Y119000D02*
D03*
Y111000D02*
D03*
D47*
X199500Y50001D02*
D03*
X240501D02*
D03*
D49*
X215000Y95000D02*
D03*
D50*
X150250Y301095D02*
D03*
D51*
X90000Y133250D02*
D03*
D52*
X385000Y125000D02*
D03*
Y105000D02*
D03*
D53*
X95001Y281001D02*
D03*
X65001D02*
D03*
D54*
X275000Y35000D02*
D03*
D61*
X160000Y315000D02*
D03*
D80*
X370040Y227800D02*
D03*
D83*
X104500Y45000D02*
D03*
X85500D02*
D03*
X95000Y65000D02*
D03*
D84*
X222644Y46266D02*
X240501D01*
X199500Y61862D02*
X216954D01*
X9360Y118326D02*
X27500D01*
X125184Y249412D02*
Y257772D01*
X327500Y246464D02*
X327622Y246342D01*
X210379Y268694D02*
X215379D01*
X266408Y174411D02*
X270014D01*
X58890Y192240D02*
Y202000D01*
X146006Y49994D02*
X146387Y49613D01*
X146006Y49994D02*
X152108Y56096D01*
X139916Y43904D02*
X146006Y49994D01*
X146387Y49613D02*
X153524Y56750D01*
X137774Y41000D02*
X146387Y49613D01*
X-2070Y14948D02*
X65000D01*
X100000Y373342D02*
X109690D01*
X218074Y136360D02*
X239918Y114516D01*
X210378Y144056D02*
X218074Y136360D01*
X251390Y117651D02*
X272250D01*
X248461D02*
X251390D01*
X167602Y130236D02*
Y132804D01*
Y130236D02*
X178750Y119088D01*
X167066Y130772D02*
X167602Y130236D01*
X151798Y131554D02*
X164602Y118750D01*
X157696Y39840D02*
Y50250D01*
X30696Y268440D02*
Y273526D01*
X4026Y185000D02*
Y197320D01*
X252184Y249412D02*
Y258534D01*
X37554Y302984D02*
X39570Y305000D01*
X313398Y125184D02*
Y140000D01*
X150250Y334654D02*
X152870Y337274D01*
X145596Y330000D02*
X150250Y334654D01*
X172544Y337274D02*
X178270D01*
X152870D02*
X172544D01*
X9360Y28410D02*
Y35000D01*
X381724Y295000D02*
Y315000D01*
X280124Y304000D02*
X300444Y324320D01*
X381724Y275000D02*
Y295000D01*
Y255000D02*
Y275000D01*
X191732Y315415D02*
X198227Y321911D01*
X191317Y315000D02*
X191732Y315415D01*
X163250Y326860D02*
X168199Y321911D01*
X177332Y315000D02*
X184243Y321911D01*
X169750Y307418D02*
X177332Y315000D01*
X191317D01*
X160000D02*
X177332D01*
X166840Y67060D02*
X169530Y69750D01*
X145000Y109182D02*
X154818D01*
X81097Y273648D02*
X86502Y274282D01*
X80000Y273520D02*
X81097Y273648D01*
X80000Y273520D02*
X85740D01*
X79972Y283001D02*
Y301432D01*
X-24930Y347000D02*
X-21480Y343550D01*
X131992Y69000D02*
X135000D01*
X129960D02*
X131992D01*
X49746Y174714D02*
X55524Y180492D01*
X67526Y192494D01*
X40032Y165000D02*
X49746Y174714D01*
Y105271D02*
Y127470D01*
Y95000D02*
Y105271D01*
Y90640D02*
Y95000D01*
Y127470D02*
Y174714D01*
X-34328Y98000D02*
Y122000D01*
X89624Y79210D02*
X90000D01*
X-34074Y22000D02*
Y98000D01*
X342500Y254978D02*
X358250D01*
X342500Y281032D02*
X358250D01*
X342500Y294856D02*
X358250D01*
X338544Y119000D02*
Y139916D01*
X345000Y197320D02*
X354292D01*
X315684Y228774D02*
Y236630D01*
Y228774D02*
X317250Y230340D01*
X308064Y250152D02*
X327500Y269588D01*
Y275000D01*
X125184Y249412D02*
X130967D01*
X169372Y41570D02*
X176568D01*
X167507Y43436D02*
X169372Y41570D01*
X169327Y63250D02*
X173001D01*
X167507Y61430D02*
X169327Y63250D01*
X167507Y43436D02*
Y61430D01*
X176568Y41570D02*
X180838Y37300D01*
X182588D01*
X148329Y142425D02*
X153824D01*
X155379Y155000D01*
X135000Y61000D02*
X146006Y49994D01*
X135000Y41000D02*
X137774D01*
X327500Y246464D02*
Y255000D01*
X190379Y252355D02*
Y268824D01*
X168110Y230086D02*
X190379Y252355D01*
X95000Y72606D02*
Y80500D01*
X83027Y209412D02*
X130967D01*
X78101Y214338D02*
X83027Y209412D01*
X6312Y214338D02*
X78101D01*
X-5626Y202400D02*
X6312Y214338D01*
X-5626Y146520D02*
Y202400D01*
Y146520D02*
X4500Y145000D01*
X100000Y373342D02*
Y380000D01*
X109690Y373342D02*
X115024Y368008D01*
Y344640D02*
Y368008D01*
Y344640D02*
X117564Y342100D01*
X185382D01*
X203162Y324320D01*
Y305254D02*
Y324320D01*
X185379Y287471D02*
X203162Y305254D01*
X185379Y268824D02*
Y287471D01*
X130967Y204412D02*
X141420D01*
X149822Y212814D01*
X152870D01*
X75000Y120000D02*
Y131280D01*
X83636Y139916D01*
X95720D01*
X97244Y138392D01*
Y127256D02*
Y138392D01*
Y127256D02*
X108750Y115750D01*
X157950D01*
X165570Y108130D01*
Y104356D02*
Y108130D01*
X175730Y50250D02*
X180810Y55330D01*
X173001Y50250D02*
X175730D01*
X180810Y55330D02*
Y77178D01*
X178750Y79238D02*
X180810Y77178D01*
X178750Y79238D02*
Y119088D01*
X167602Y208242D02*
X196050D01*
X205379Y217571D01*
Y268824D01*
X177762Y58782D02*
Y73537D01*
X168099Y217397D02*
X195055D01*
X200379Y222720D01*
Y268824D01*
X130967Y244412D02*
X153022D01*
X156604Y240830D01*
X98066Y199412D02*
X130967D01*
X88354Y189700D02*
X98066Y199412D01*
X246596Y278600D02*
X264884Y296888D01*
X225379Y278600D02*
X246596D01*
X225379Y268824D02*
Y278600D01*
X4500Y85000D02*
X9360D01*
X11848Y82512D01*
X49492D01*
X130967Y224412D02*
X156644D01*
X171933Y239701D01*
Y250343D01*
X149314Y236004D02*
X161252D01*
X165748Y240500D01*
Y253124D01*
X168618Y255994D01*
X171823D01*
X175379Y259550D01*
Y268824D01*
X46037Y95000D02*
Y101562D01*
X49746Y105271D01*
X-5626Y66510D02*
X4500Y65000D01*
X-5626Y66510D02*
Y90386D01*
X18250D01*
X21044Y87592D02*
X46698D01*
X4500Y165000D02*
X40032D01*
X55524Y172618D02*
X58890D01*
X55524D02*
Y180492D01*
X48730Y192730D02*
Y200439D01*
X45000Y189000D02*
X48730Y192730D01*
X103984Y256874D02*
X105000Y254000D01*
X101054Y259804D02*
X103984Y256874D01*
X86502Y274282D02*
X86576D01*
X85740Y273520D02*
X86502Y274282D01*
X80000Y273520D02*
Y283001D01*
X163250Y326860D02*
Y328905D01*
X168199Y321911D02*
X184243D01*
X169750Y301095D02*
Y307418D01*
X381750Y315000D02*
Y321780D01*
X379210Y324320D02*
X381750Y321780D01*
X300444Y324320D02*
X379210D01*
X244791Y229411D02*
X271234D01*
X275044Y298920D02*
X280124Y304000D01*
X271234Y229411D02*
X275044Y233221D01*
X280124Y304000D02*
X298920D01*
X275044Y233221D02*
Y298920D01*
X298920Y304000D02*
X306540Y311620D01*
X350990Y162776D02*
X358864D01*
X332781Y180985D02*
X350990Y162776D01*
X285443Y180985D02*
X332781D01*
X338544Y119000D02*
X340000D01*
X333210Y145250D02*
X338544Y139916D01*
X300190Y145250D02*
X333210D01*
X296634Y148806D02*
X300190Y145250D01*
X296634Y148806D02*
Y159220D01*
X300698Y163284D01*
X312890D01*
X315684Y166078D01*
Y173952D01*
X314160Y175476D02*
X315684Y173952D01*
X296380Y175476D02*
X314160D01*
X287490Y166586D02*
X296380Y175476D01*
X205956Y166586D02*
X287490D01*
X200622Y171920D02*
X205956Y166586D01*
X200622Y171920D02*
Y192240D01*
X191986Y200876D02*
X200622Y192240D01*
X157477Y200876D02*
X191986D01*
X146012Y189412D02*
X157477Y200876D01*
X130967Y189412D02*
X146012D01*
X295000Y237250D02*
X300912D01*
X302270Y238607D01*
X313707D01*
X315684Y236630D01*
X312910Y226000D02*
X315684Y228774D01*
X295000Y237250D02*
Y245834D01*
X270218Y239230D02*
Y244310D01*
X265400Y234412D02*
X270218Y239230D01*
X244791Y234412D02*
X265400D01*
X4500Y75000D02*
X18250D01*
X25978Y67272D01*
X109342Y146500D02*
X115000D01*
X101342Y154501D02*
X109342Y146500D01*
X98113Y154501D02*
X101342D01*
X71082Y72098D02*
X75000Y76016D01*
Y80500D01*
X104500Y32838D02*
Y45000D01*
Y32838D02*
X109690Y27648D01*
X272250D01*
X280130Y19768D01*
Y2749D02*
Y19768D01*
Y2749D02*
X284441Y-1562D01*
X376898D01*
X387312Y8852D01*
Y45936D01*
X367500Y65748D02*
X387312Y45936D01*
X367500Y65748D02*
Y100730D01*
X366230Y102000D02*
X367500Y100730D01*
X358000Y102000D02*
X366230D01*
X42396Y183604D02*
X45000Y181000D01*
X313144Y305524D02*
X323436D01*
X327500Y301460D01*
Y295000D02*
Y301460D01*
X95001Y281001D02*
X103479D01*
X103594Y280886D01*
X37046Y183604D02*
X42396D01*
X157000Y50250D02*
X157696D01*
Y39840D02*
X165062Y32474D01*
X249390D01*
X252438Y35522D01*
Y54318D01*
X256756Y58636D01*
X336004D01*
X171920Y222974D02*
X185890D01*
X195796Y232880D01*
Y244909D01*
X195379Y245326D02*
X195796Y244909D01*
X195379Y245326D02*
Y268824D01*
X190379Y155000D02*
Y185890D01*
X173001Y56750D02*
X175730D01*
X177762Y58782D01*
X175750Y75549D02*
X177762Y73537D01*
X175750Y75549D02*
Y107602D01*
X164602Y118750D02*
X175750Y107602D01*
X111750Y118750D02*
X164602D01*
X100546Y129955D02*
X111750Y118750D01*
X100546Y129955D02*
Y142418D01*
X100000Y142964D02*
X100546Y142418D01*
X71524Y142964D02*
X100000D01*
X70000Y141440D02*
X71524Y142964D01*
X70000Y120000D02*
Y141440D01*
X251422Y111468D02*
X257518Y105372D01*
X196737Y111468D02*
X251422D01*
X165379Y142826D02*
X196737Y111468D01*
X165379Y142826D02*
Y155000D01*
X155000Y109000D02*
X158640D01*
X160820Y106820D01*
Y99606D02*
Y106820D01*
Y99606D02*
X166840Y93585D01*
Y67060D02*
Y93585D01*
X163030Y63250D02*
X166840Y67060D01*
X270014Y174411D02*
X271440Y172985D01*
X285443D01*
X220407Y174411D02*
X244791D01*
X209258Y185560D02*
X220407Y174411D01*
X209258Y185560D02*
Y228711D01*
X210379Y268824D01*
X234150Y179412D02*
X244791D01*
X212306Y201255D02*
X234150Y179412D01*
X212306Y201255D02*
Y222974D01*
X154140Y167856D02*
X156822D01*
X160378Y164300D01*
Y155000D02*
Y164300D01*
X169530Y69750D02*
X173001D01*
X157000Y63250D02*
X163030D01*
X155000Y101000D02*
X161801Y94200D01*
Y71061D02*
Y94200D01*
X160490Y69750D02*
X161801Y71061D01*
X157000Y69750D02*
X160490D01*
X102500Y112750D02*
X121251D01*
X125000Y109000D01*
X175379Y143726D02*
Y155000D01*
Y143726D02*
X186301Y132804D01*
X205448D01*
X296492Y170000D02*
X306000D01*
X293332Y166840D02*
X296492Y170000D01*
X293332Y132550D02*
Y166840D01*
X144730Y183972D02*
X146207D01*
X140170Y179412D02*
X144730Y183972D01*
X130967Y179412D02*
X140170D01*
X85000Y65038D02*
Y80500D01*
Y65038D02*
X86068Y63970D01*
X67208Y164618D02*
X71082Y160744D01*
X58890Y164618D02*
X67208D01*
X308000Y155000D02*
X358766D01*
X293332Y85738D02*
Y132550D01*
X223903Y224411D02*
X244791D01*
X223482Y223990D02*
X223903Y224411D01*
X59999Y229000D02*
X71152D01*
X84798Y215354D01*
X71853Y210000D02*
X82258Y199595D01*
X60000Y210000D02*
X71853D01*
X-3816Y55000D02*
X4500D01*
X-8909Y60093D02*
X-3816Y55000D01*
X-8909Y60093D02*
Y93707D01*
X12484Y115100D01*
X4500Y285000D02*
X27648D01*
X117818Y214338D02*
X117892Y214412D01*
X130967D01*
X102718Y194412D02*
X130967D01*
X98768Y190462D02*
X102718Y194412D01*
X327368Y110960D02*
Y118072D01*
Y110960D02*
X334328Y104000D01*
X340000D01*
X242000Y293586D02*
Y305001D01*
Y293586D02*
X244310Y291276D01*
X246850D01*
X255546Y199412D02*
X259042Y202908D01*
X244791Y199412D02*
X255546D01*
X244791Y249412D02*
X252184D01*
X303018Y295000D02*
X315371D01*
X223738Y286605D02*
X233599D01*
X220379Y283246D02*
X223738Y286605D01*
X220379Y268824D02*
Y283246D01*
X244791Y214412D02*
X257338D01*
X258280Y215354D01*
X170379Y155000D02*
Y193949D01*
X173750Y197320D01*
X177710D01*
X180548Y194482D01*
Y178160D02*
Y194482D01*
X95000Y65000D02*
X118594D01*
X124422Y70828D01*
X146266Y228054D02*
Y233134D01*
X139988Y239412D02*
X146266Y233134D01*
X130967Y239412D02*
X139988D01*
X281494Y247458D02*
X295110Y261074D01*
X281494Y223419D02*
Y247458D01*
X281154Y223079D02*
X281494Y223419D01*
X273571Y223079D02*
X281154D01*
X259904Y209412D02*
X273571Y223079D01*
X244791Y209412D02*
X259904D01*
X102500Y87750D02*
X111749D01*
X125000Y101000D01*
X125054Y101054D01*
X134947D01*
X135000Y101001D01*
X145000D01*
X155000D01*
X155000Y101000D01*
X153124Y50250D02*
X157000D01*
X138306Y35433D02*
X153124Y50250D01*
X130353Y35433D02*
X138306D01*
X112484Y53302D02*
X130353Y35433D01*
X87620Y53302D02*
X112484D01*
X80000Y60922D02*
X87620Y53302D01*
X80000Y60922D02*
Y80500D01*
X154078Y69750D02*
X157000D01*
X152108Y67780D02*
X154078Y69750D01*
X152108Y56096D02*
Y67780D01*
X137904Y43904D02*
X139916D01*
X135000Y41000D02*
X137904Y43904D01*
X153524Y56750D02*
X157000D01*
X58890Y202000D02*
X60000D01*
X225379Y148757D02*
Y155000D01*
Y148757D02*
X249136Y125000D01*
X261249D01*
X268750Y138956D02*
Y145000D01*
X261249Y131455D02*
X268750Y138956D01*
X261249Y125000D02*
Y131455D01*
X244791Y189412D02*
X309185D01*
X346164Y226390D01*
Y237960D01*
X334988Y249136D02*
X346164Y237960D01*
X334988Y249136D02*
Y302100D01*
X327500Y309588D02*
X334988Y302100D01*
X327500Y309588D02*
Y315000D01*
X316446Y185636D02*
X323050Y192240D01*
X277633Y185636D02*
X316446D01*
X266408Y174411D02*
X277633Y185636D01*
X244791Y174411D02*
X266408D01*
X210379Y268694D02*
Y268824D01*
X215379Y268694D02*
Y268824D01*
X327622Y246342D02*
X332750Y241214D01*
Y235000D02*
Y241214D01*
X-34250Y22000D02*
X-34074D01*
X-34250Y98000D02*
X-34074D01*
X-34328D02*
X-34250D01*
X-34328Y122000D02*
X-34250D01*
X46698Y87592D02*
X49746Y90640D01*
X18250Y90386D02*
X21044Y87592D01*
X-5626Y66510D02*
X-4116Y65000D01*
X4500D01*
X90000Y79210D02*
Y80500D01*
X89624Y59144D02*
Y79210D01*
Y59144D02*
X120104D01*
X129960Y69000D01*
X130010Y53990D02*
X135000Y49000D01*
X130010Y53990D02*
Y67018D01*
X131992Y69000D01*
X125000Y109000D02*
X125182Y109182D01*
X134819D01*
X135000Y109001D01*
X145000D01*
Y109182D01*
X154818D02*
X155000Y109000D01*
X79972Y283001D02*
X80000D01*
X79972Y301432D02*
X80000Y301460D01*
Y308001D01*
X180379Y155000D02*
Y166473D01*
X175299Y171553D02*
X180379Y166473D01*
X175299Y171553D02*
Y191732D01*
X381724Y315000D02*
X381750D01*
X381724Y295000D02*
X381750D01*
X381724Y275000D02*
X381750D01*
X244791Y219412D02*
X255734D01*
X262733Y226411D01*
X274790D01*
X278489Y230110D01*
Y261217D01*
X280632Y263360D01*
X381724Y255000D02*
X381750D01*
Y275000D01*
X-21480Y341920D02*
Y343550D01*
X-34250Y347000D02*
X-24930D01*
X-21374Y346926D02*
Y360856D01*
X-12230Y370000D01*
X4500D01*
X295000Y222750D02*
X302730D01*
X304762Y224782D01*
Y232222D01*
X306540Y234000D01*
X310000D01*
X106480Y133500D02*
X115000D01*
X387040Y215530D02*
Y227800D01*
X-34250Y198000D02*
X-21480D01*
X-34250Y222000D02*
X-21480D01*
X4500Y235000D02*
X16020D01*
X48730Y287377D02*
Y305361D01*
X45000Y283648D02*
X48730Y287377D01*
X45000Y260000D02*
Y283648D01*
X-34250Y318000D02*
X-21480D01*
X155379Y256112D02*
Y268824D01*
X104169Y330000D02*
X112733D01*
X-34250Y393000D02*
X-21480D01*
X230000Y305001D02*
Y334000D01*
X358000Y128000D02*
X368520D01*
X336480Y188500D02*
X345000D01*
X97324Y45000D02*
X104500D01*
X45000Y243962D02*
X53810D01*
X59815Y249967D01*
Y271890D01*
X65001Y277076D01*
Y281001D01*
X327500Y275000D02*
Y285590D01*
X4500Y380000D02*
X13119D01*
Y383572D01*
X26765Y397218D01*
X65001Y281001D02*
Y334894D01*
X75000Y344894D01*
Y355000D01*
X4500Y55000D02*
X22822D01*
X35094Y67272D01*
X56938D01*
X79210Y45000D01*
X85500D01*
X4500Y155000D02*
X28156D01*
X240501Y46266D02*
Y50001D01*
X216878Y52032D02*
X222644Y46266D01*
X199500Y50001D02*
Y61862D01*
X216954D02*
X225260Y53556D01*
X13314Y295000D02*
X15964Y297650D01*
X4500Y295000D02*
X13314D01*
X4500Y360000D02*
X13170D01*
X16472Y363302D01*
Y375628D01*
X39586Y398742D01*
X72968D01*
X75000Y396710D01*
Y380000D02*
Y396710D01*
X-7150Y45000D02*
X4500D01*
X-11976Y49826D02*
X-7150Y45000D01*
X-11976Y49826D02*
Y96990D01*
X9360Y118326D01*
X27500Y115000D02*
Y118326D01*
Y106094D02*
Y115000D01*
Y106094D02*
X30000Y103594D01*
Y95000D02*
Y103594D01*
X4500Y45000D02*
X17234D01*
X60000Y202000D02*
X67672D01*
X95260Y174412D01*
X130967D01*
X65000Y14948D02*
Y15000D01*
X-14976Y27854D02*
X-2070Y14948D01*
X-14976Y27854D02*
Y98308D01*
X16980Y130264D01*
Y141440D01*
X13420Y145000D02*
X16980Y141440D01*
X4500Y145000D02*
X13420D01*
X340000Y96000D02*
X345058Y101058D01*
Y103340D01*
X350218Y108500D01*
X358000D01*
X340000Y111000D02*
X344000Y115000D01*
X358000D01*
X218000Y293840D02*
Y305001D01*
Y293840D02*
X219270Y292570D01*
X234150D01*
X235420Y293840D01*
Y314160D01*
X240754Y319494D01*
X243040D01*
X249644Y312890D01*
Y305016D02*
Y312890D01*
X268872Y202400D02*
Y213652D01*
X260884Y194412D02*
X268872Y202400D01*
X244791Y194412D02*
X260884D01*
X-9458Y255000D02*
X4500D01*
X178524Y255740D02*
X180379Y257595D01*
Y268824D01*
X-6896Y265000D02*
X4500D01*
X218074Y136360D02*
X218910D01*
X239918Y114516D02*
X277330D01*
X281250Y118436D01*
X210378Y144056D02*
Y155000D01*
X281250Y118436D02*
Y145000D01*
X228562Y137550D02*
X248461Y117651D01*
X272250D02*
X273749Y119150D01*
Y125000D01*
X215379Y143980D02*
Y155000D01*
Y143980D02*
X218068Y141291D01*
X227751D01*
X251390Y117651D01*
X185379Y142713D02*
Y155000D01*
X30696Y237960D02*
X36284Y232372D01*
X56350Y233388D02*
X77686D01*
X91662Y219412D01*
X130967D01*
X4500Y275000D02*
X24136D01*
X30696Y268440D01*
Y237960D02*
Y268440D01*
X36284Y232372D02*
X55334D01*
X56350Y233388D01*
X4026Y185000D02*
X4500D01*
X4026Y197320D02*
X11138Y204432D01*
X4500Y175000D02*
X22822D01*
X244791Y244412D02*
X261430D01*
X263106Y246088D01*
X244791Y239412D02*
X259550D01*
X85980Y229412D02*
X130967D01*
X78702Y236690D02*
X85980Y229412D01*
X52286Y236690D02*
X78702D01*
X51016Y235420D02*
X52286Y236690D01*
X38824Y235420D02*
X51016D01*
X37554Y236690D02*
X38824Y235420D01*
X37554Y236690D02*
Y302984D01*
X4500Y305000D02*
X39570D01*
X58890Y324320D01*
X-7150Y245000D02*
X4500D01*
X-14262Y252112D02*
X-7150Y245000D01*
X-14262Y252112D02*
Y307810D01*
X22568Y344640D01*
Y371564D01*
X28410Y377406D01*
X54064D01*
X63970Y367500D01*
X106535D01*
X111468Y362567D01*
Y342100D02*
Y362567D01*
Y342100D02*
X114770Y338798D01*
X125489D01*
X127267Y337020D01*
Y330000D02*
Y337020D01*
Y308267D02*
Y330000D01*
Y308267D02*
X128740Y306794D01*
X127267Y330000D02*
X145596D01*
X150250Y328905D02*
Y334654D01*
X169750Y328905D02*
Y334480D01*
X172544Y337274D01*
X306000Y140000D02*
X313398D01*
X4500Y35000D02*
X9360D01*
X59999Y221000D02*
X70066D01*
X191732Y309080D02*
Y315415D01*
X342500Y254978D02*
Y255000D01*
X358250Y254978D02*
Y255000D01*
X342500Y275000D02*
Y281032D01*
X358250Y275000D02*
Y281032D01*
X342500Y294856D02*
Y295000D01*
X358250Y294856D02*
Y295000D01*
X342500Y315000D02*
X358250D01*
X90000Y120000D02*
Y133250D01*
X105000Y246000D02*
X107120Y248120D01*
X108674D01*
X109944Y249390D01*
Y291300D01*
X111976Y293332D01*
X145647D01*
X160379Y278600D01*
Y268824D02*
Y278600D01*
X-2731Y135000D02*
X4500D01*
X-18072Y119659D02*
X-2731Y135000D01*
X-18072Y11646D02*
Y119659D01*
Y11646D02*
X-6175Y-251D01*
X235715D01*
X240000Y4034D01*
Y15000D01*
X255980Y35000D02*
X275000D01*
X89500Y250000D02*
Y258280D01*
X95001Y263781D01*
Y281001D01*
Y281086D01*
X115009Y301095D01*
X150250D01*
Y295952D02*
Y301095D01*
Y295952D02*
X152870Y293332D01*
X160490D01*
X163250Y296092D01*
Y301095D01*
X233916Y204412D02*
X244791D01*
X218787Y219541D02*
X233916Y204412D01*
X218787Y219541D02*
Y248759D01*
X235194Y265166D01*
X254601D01*
X265900Y253867D01*
X267134D01*
X270001Y251000D01*
X205379Y143657D02*
Y155000D01*
X203670Y141948D02*
X205379Y143657D01*
X198844Y141948D02*
X203670D01*
X345000Y197320D02*
Y201500D01*
Y210528D01*
X353040Y218568D01*
Y227800D01*
X317250Y230340D02*
Y235000D01*
X310000Y226000D02*
X312910D01*
X42500Y115000D02*
Y133432D01*
X43904Y134836D01*
X114770Y239492D02*
Y275681D01*
Y239492D02*
X119850Y234412D01*
X130967D01*
X303178Y212500D02*
X310000D01*
X298920Y208242D02*
X303178Y212500D01*
X354258Y208242D02*
X363000Y199500D01*
D85*
X250000Y380000D02*
D03*
X90000Y15000D02*
D03*
X115000D02*
D03*
X325000Y355000D02*
D03*
X300000D02*
D03*
X275000D02*
D03*
X250000D02*
D03*
X225000D02*
D03*
X200000D02*
D03*
X175000D02*
D03*
X150000D02*
D03*
X125000D02*
D03*
X165000Y15000D02*
D03*
X340000D02*
D03*
X315000D02*
D03*
X290000D02*
D03*
X265000D02*
D03*
X240000D02*
D03*
X215000D02*
D03*
X65000D02*
D03*
X190000D02*
D03*
X140000D02*
D03*
X75000Y380000D02*
D03*
X100000D02*
D03*
X125000D02*
D03*
X150000D02*
D03*
X100000Y355000D02*
D03*
X75000D02*
D03*
X200000Y380000D02*
D03*
X175000D02*
D03*
X225000D02*
D03*
X275000D02*
D03*
X300000D02*
D03*
X325000D02*
D03*
D86*
X358000Y90000D02*
D03*
Y140000D02*
D03*
D87*
X45000Y355000D02*
D03*
X355000D02*
D03*
X365000Y35000D02*
D03*
X45000Y45000D02*
D03*
M02*
