G04*
G04 #@! TF.GenerationSoftware,Altium Limited,Altium Designer,23.4.1 (23)*
G04*
G04 Layer_Color=128*
%FSLAX44Y44*%
%MOMM*%
G71*
G04*
G04 #@! TF.SameCoordinates,0C08C988-1F2B-49C3-A879-C7924B40E8ED*
G04*
G04*
G04 #@! TF.FilePolarity,Positive*
G04*
G01*
G75*
%ADD15R,1.7500X1.0000*%
G04:AMPARAMS|DCode=24|XSize=0.7311mm|YSize=0.3025mm|CornerRadius=0.1512mm|HoleSize=0mm|Usage=FLASHONLY|Rotation=90.000|XOffset=0mm|YOffset=0mm|HoleType=Round|Shape=RoundedRectangle|*
%AMROUNDEDRECTD24*
21,1,0.7311,0.0000,0,0,90.0*
21,1,0.4286,0.3025,0,0,90.0*
1,1,0.3025,0.0000,0.2143*
1,1,0.3025,0.0000,-0.2143*
1,1,0.3025,0.0000,-0.2143*
1,1,0.3025,0.0000,0.2143*
%
%ADD24ROUNDEDRECTD24*%
%ADD26R,0.9500X0.8000*%
%ADD27R,0.5000X0.4000*%
%ADD38R,1.0121X1.2084*%
%ADD40R,0.7500X1.0000*%
%ADD50R,0.3025X0.7311*%
%ADD51R,0.9500X0.8500*%
%ADD54R,0.8500X0.7000*%
%ADD88R,1.7000X1.5000*%
%ADD89R,1.5000X1.7000*%
G04:AMPARAMS|DCode=90|XSize=1.9mm|YSize=3.2mm|CornerRadius=0mm|HoleSize=0mm|Usage=FLASHONLY|Rotation=90.000|XOffset=0mm|YOffset=0mm|HoleType=Round|Shape=Octagon|*
%AMOCTAGOND90*
4,1,8,-1.6000,-0.4750,-1.6000,0.4750,-1.1250,0.9500,1.1250,0.9500,1.6000,0.4750,1.6000,-0.4750,1.1250,-0.9500,-1.1250,-0.9500,-1.6000,-0.4750,0.0*
%
%ADD90OCTAGOND90*%

%ADD91R,1.6800X0.8000*%
%ADD92R,1.5000X1.6000*%
%ADD93R,0.3800X1.4000*%
%ADD94R,0.9121X0.9587*%
%ADD95R,2.0500X1.1000*%
%ADD96R,2.1000X0.9000*%
%ADD97R,1.3000X0.7000*%
%ADD98R,1.4500X0.9500*%
%ADD99R,1.4000X1.2900*%
%ADD100R,1.3000X1.2900*%
%ADD101R,0.5682X0.5725*%
%ADD102R,2.1000X3.2000*%
%ADD103R,1.0000X0.7500*%
D15*
X195000Y265000D02*
D03*
D24*
X191750Y278905D02*
D03*
X185250Y251095D02*
D03*
X204750Y278905D02*
D03*
X198250D02*
D03*
X185250D02*
D03*
X191750Y251095D02*
D03*
X198250D02*
D03*
D26*
X200000Y33500D02*
D03*
Y46500D02*
D03*
D27*
X375000Y119000D02*
D03*
X385000Y100000D02*
D03*
X375000Y79000D02*
D03*
X340000Y79000D02*
D03*
Y119000D02*
D03*
Y111000D02*
D03*
Y71000D02*
D03*
X174365Y54250D02*
D03*
Y46251D02*
D03*
X385000Y92000D02*
D03*
X375000Y111000D02*
D03*
Y71000D02*
D03*
D38*
X200000Y191038D02*
D03*
Y175000D02*
D03*
D40*
X204444Y154892D02*
D03*
X219444D02*
D03*
X164841Y151826D02*
D03*
X179842D02*
D03*
D50*
X204750Y251095D02*
D03*
D51*
X90000Y146750D02*
D03*
D54*
X115000Y108750D02*
D03*
Y121250D02*
D03*
X275000Y47500D02*
D03*
D88*
X383500Y303000D02*
D03*
Y168000D02*
D03*
D89*
X235000Y300000D02*
D03*
D90*
X333000Y155000D02*
D03*
D91*
X235900Y209500D02*
D03*
Y187500D02*
D03*
Y198500D02*
D03*
Y220500D02*
D03*
Y231500D02*
D03*
Y242500D02*
D03*
Y253500D02*
D03*
Y264500D02*
D03*
D92*
X235000Y173400D02*
D03*
D93*
X224750Y121800D02*
D03*
X198750D02*
D03*
X205250D02*
D03*
X257250Y68200D02*
D03*
X250750D02*
D03*
X179250D02*
D03*
X172751D02*
D03*
Y121800D02*
D03*
X179250D02*
D03*
X250750D02*
D03*
X257250D02*
D03*
X244251D02*
D03*
X237751D02*
D03*
X231250D02*
D03*
X218251D02*
D03*
X211750D02*
D03*
X192251D02*
D03*
X185750D02*
D03*
Y68200D02*
D03*
X192251D02*
D03*
X198750D02*
D03*
X205250D02*
D03*
X211750D02*
D03*
X218251D02*
D03*
X224750D02*
D03*
X231250D02*
D03*
X237751D02*
D03*
X244251D02*
D03*
D94*
X120000Y317267D02*
D03*
Y302734D02*
D03*
D95*
X85000Y258000D02*
D03*
Y225000D02*
D03*
X300000Y101500D02*
D03*
Y68500D02*
D03*
D96*
X113500Y193000D02*
D03*
Y170000D02*
D03*
Y147000D02*
D03*
D97*
X137998Y75502D02*
D03*
Y56502D02*
D03*
X275000Y159000D02*
D03*
Y140000D02*
D03*
D98*
X110000Y55250D02*
D03*
Y74750D02*
D03*
D99*
X325500Y166950D02*
D03*
D100*
X251500D02*
D03*
D101*
X77979Y71082D02*
D03*
X87022D02*
D03*
D102*
X56500Y170000D02*
D03*
D103*
X300000Y47500D02*
D03*
Y32500D02*
D03*
M02*
