G04*
G04 #@! TF.GenerationSoftware,Altium Limited,Altium Designer,23.4.1 (23)*
G04*
G04 Layer_Physical_Order=5*
G04 Layer_Color=6736896*
%FSLAX44Y44*%
%MOMM*%
G71*
G04*
G04 #@! TF.SameCoordinates,0D17D4F2-5808-4921-BEB8-74D3ABB9EEF9*
G04*
G04*
G04 #@! TF.FilePolarity,Positive*
G04*
G01*
G75*
%ADD15C,0.5000*%
%ADD73C,0.7500*%
%ADD77C,0.1500*%
G04:AMPARAMS|DCode=78|XSize=1.524mm|YSize=2mm|CornerRadius=0.381mm|HoleSize=0mm|Usage=FLASHONLY|Rotation=0.000|XOffset=0mm|YOffset=0mm|HoleType=Round|Shape=RoundedRectangle|*
%AMROUNDEDRECTD78*
21,1,1.5240,1.2380,0,0,0.0*
21,1,0.7620,2.0000,0,0,0.0*
1,1,0.7620,0.3810,-0.6190*
1,1,0.7620,-0.3810,-0.6190*
1,1,0.7620,-0.3810,0.6190*
1,1,0.7620,0.3810,0.6190*
%
%ADD78ROUNDEDRECTD78*%
%ADD79C,1.4500*%
%ADD80C,1.5240*%
%ADD81C,0.6000*%
D15*
X85000Y87500D02*
D03*
X75000D02*
D03*
X65000D02*
D03*
X85000Y97500D02*
D03*
X75000D02*
D03*
X65000D02*
D03*
X85000Y107500D02*
D03*
X75000D02*
D03*
X65000D02*
D03*
D73*
X377000Y230000D02*
D03*
X375000Y195000D02*
D03*
D77*
X108674Y144130D02*
X113754Y139050D01*
X165824Y370040D02*
X175000D01*
X266154Y377660D02*
X275000D01*
X20000Y225000D02*
X82860D01*
X134244Y173616D01*
Y106980D02*
Y173616D01*
Y106980D02*
X155156Y86068D01*
X186906D01*
X195288Y222720D02*
Y242786D01*
Y222720D02*
X198082Y219926D01*
X227800D01*
X275044Y172682D01*
Y104610D02*
Y172682D01*
X210274Y39840D02*
X275044Y104610D01*
X200622Y39840D02*
X210274D01*
X194526Y45936D02*
X200622Y39840D01*
X275000Y377660D02*
Y380000D01*
X264884Y376390D02*
X266154Y377660D01*
X264884Y344640D02*
Y376390D01*
Y344640D02*
X271742Y337782D01*
X291808D01*
X363436Y266154D01*
Y171158D02*
Y266154D01*
X75000Y380000D02*
Y390360D01*
X78048Y393408D01*
X107404D01*
X110452Y390360D01*
Y320121D02*
Y390360D01*
Y320121D02*
X156342Y274231D01*
Y255402D02*
Y274231D01*
X151346Y250406D02*
X156342Y255402D01*
X186906Y124168D02*
Y144234D01*
X167094Y164046D02*
X186906Y144234D01*
X49388Y203416D02*
X79718D01*
X102832Y180302D01*
X175000Y370040D02*
Y380000D01*
X160744Y364960D02*
X165824Y370040D01*
X160744Y341084D02*
Y364960D01*
X159513Y339853D02*
X160744Y341084D01*
X159513Y168743D02*
Y339853D01*
X149398Y158628D02*
X159513Y168743D01*
X149398Y120847D02*
Y158628D01*
Y120847D02*
X162670Y107574D01*
X204856D01*
X219164Y121882D01*
X108674Y117056D02*
Y144130D01*
X49388Y203416D02*
X108674Y144130D01*
X28968Y292316D02*
X36284D01*
X-16802Y338086D02*
X28968Y292316D01*
X-16802Y338086D02*
Y368516D01*
X13932Y225768D02*
X53556Y186144D01*
Y71082D02*
Y186144D01*
Y71082D02*
X90000Y34638D01*
Y15000D02*
Y34638D01*
X113754Y90080D02*
Y139050D01*
X187668Y370040D02*
Y384772D01*
Y370040D02*
X190208Y367500D01*
X232118D01*
X239738Y359880D01*
Y241516D02*
Y359880D01*
Y241516D02*
X277838Y203416D01*
X73700Y134504D02*
X101562Y106642D01*
Y90640D02*
Y106642D01*
Y90640D02*
X130264Y61938D01*
X168618D01*
X187160Y43396D01*
X250000Y271386D02*
Y355000D01*
Y271386D02*
X254216Y267170D01*
X200000Y340322D02*
Y355000D01*
X162513Y302835D02*
X200000Y340322D01*
X162513Y229485D02*
Y302835D01*
Y229485D02*
X192240Y199758D01*
Y158458D02*
Y199758D01*
X311924Y224702D02*
X349466Y187160D01*
D78*
X325000Y355000D02*
D03*
X300000D02*
D03*
X275000D02*
D03*
X250000D02*
D03*
X225000D02*
D03*
X200000D02*
D03*
X175000D02*
D03*
X150000D02*
D03*
X125000D02*
D03*
X90000Y15000D02*
D03*
X165000D02*
D03*
X340000D02*
D03*
X315000D02*
D03*
X290000D02*
D03*
X265000D02*
D03*
X240000D02*
D03*
X215000D02*
D03*
X65000D02*
D03*
X190000D02*
D03*
X115000D02*
D03*
X140000D02*
D03*
X75000Y380000D02*
D03*
X100000D02*
D03*
X125000D02*
D03*
X150000D02*
D03*
X100000Y355000D02*
D03*
X75000D02*
D03*
X200000Y380000D02*
D03*
X175000D02*
D03*
X225000D02*
D03*
X250000D02*
D03*
X275000D02*
D03*
X300000D02*
D03*
X325000D02*
D03*
D79*
X358000Y90000D02*
D03*
Y140000D02*
D03*
D80*
X45000Y355000D02*
D03*
X355000D02*
D03*
Y45000D02*
D03*
X45000D02*
D03*
D81*
X47206Y79972D02*
D03*
X142202Y47460D02*
D03*
X118072Y265984D02*
D03*
X133566Y317208D02*
D03*
X38018Y275000D02*
D03*
X344894Y209392D02*
D03*
X257264Y144488D02*
D03*
X2480Y50000D02*
D03*
X167602Y216116D02*
D03*
X197574Y325336D02*
D03*
X189954Y99784D02*
D03*
X165824Y37554D02*
D03*
X127724Y232118D02*
D03*
X93180Y141186D02*
D03*
X202908Y45936D02*
D03*
X207480Y126434D02*
D03*
X223990Y244056D02*
D03*
X175891Y333464D02*
D03*
X186906Y86068D02*
D03*
X38824Y230340D02*
D03*
X123914Y273774D02*
D03*
X195288Y242786D02*
D03*
X194526Y45936D02*
D03*
X363436Y171158D02*
D03*
X1232Y250152D02*
D03*
X200622Y210473D02*
D03*
X369024Y128000D02*
D03*
X346650Y127216D02*
D03*
X264376Y45000D02*
D03*
X217894Y211544D02*
D03*
X37808Y194272D02*
D03*
X145250Y276894D02*
D03*
X316618Y255232D02*
D03*
X140170Y279108D02*
D03*
X175016Y174412D02*
D03*
X277838Y217640D02*
D03*
X212730Y90906D02*
D03*
X349466Y187160D02*
D03*
X159728Y130010D02*
D03*
X154648Y153378D02*
D03*
X146012Y261074D02*
D03*
X151346Y250406D02*
D03*
X186906Y124168D02*
D03*
X167094Y164046D02*
D03*
X322034Y112738D02*
D03*
X178016Y190716D02*
D03*
X265006Y320608D02*
D03*
X342862Y139916D02*
D03*
X170142Y194272D02*
D03*
X49388Y203416D02*
D03*
X102832Y180302D02*
D03*
X284755Y223410D02*
D03*
X63462Y280124D02*
D03*
X126454Y214084D02*
D03*
X188684Y314922D02*
D03*
X200622Y225768D02*
D03*
X200567Y210473D02*
D03*
X226784Y318224D02*
D03*
X269710Y154140D02*
D03*
X214846Y201892D02*
D03*
X215608Y225260D02*
D03*
X209512Y241516D02*
D03*
X135090Y238468D02*
D03*
X219164Y121882D02*
D03*
X174376Y326014D02*
D03*
X108674Y117056D02*
D03*
X123406Y34760D02*
D03*
X46444Y106134D02*
D03*
X36284Y292316D02*
D03*
X-16802Y368516D02*
D03*
X82004Y307048D02*
D03*
X179032Y43142D02*
D03*
X174714Y119596D02*
D03*
X67272Y246850D02*
D03*
X176619Y306413D02*
D03*
X166667Y124432D02*
D03*
X-8674Y374358D02*
D03*
X283680Y56604D02*
D03*
X200696Y84290D02*
D03*
X13932Y225768D02*
D03*
X2756Y357086D02*
D03*
X39586Y393916D02*
D03*
X284920Y169412D02*
D03*
X119342Y205194D02*
D03*
X160490Y97244D02*
D03*
X274282Y59144D02*
D03*
X113754Y90080D02*
D03*
X151092Y268694D02*
D03*
X315938Y263020D02*
D03*
X109842Y222307D02*
D03*
X344894Y224498D02*
D03*
X315938Y295110D02*
D03*
X304508Y154140D02*
D03*
X307810Y151092D02*
D03*
X108166Y74892D02*
D03*
X306540Y174714D02*
D03*
X226784Y196558D02*
D03*
X267932Y249136D02*
D03*
X212990Y315000D02*
D03*
X283426Y304000D02*
D03*
X301968Y190462D02*
D03*
X223482Y91402D02*
D03*
X290792Y183604D02*
D03*
X187668Y384772D02*
D03*
X277838Y203416D02*
D03*
X174206Y282664D02*
D03*
X470Y364706D02*
D03*
X158204Y120696D02*
D03*
X73700Y134504D02*
D03*
X187160Y43396D02*
D03*
X62500Y143726D02*
D03*
X169126Y114516D02*
D03*
X221958Y170396D02*
D03*
X128994Y168110D02*
D03*
X-22898Y190080D02*
D03*
X90132Y325590D02*
D03*
X978Y93180D02*
D03*
X19774Y325082D02*
D03*
X30950Y85814D02*
D03*
Y298158D02*
D03*
X254216Y267170D02*
D03*
X192240Y158458D02*
D03*
X-10452Y161760D02*
D03*
X122290Y316954D02*
D03*
X180302Y287733D02*
D03*
X324574Y94450D02*
D03*
X387402Y265672D02*
D03*
X311924Y224702D02*
D03*
X50508Y212306D02*
D03*
X94450Y57874D02*
D03*
X88608Y153378D02*
D03*
X115000Y33744D02*
D03*
X198590Y118834D02*
D03*
X377406Y63462D02*
D03*
X141440Y79718D02*
D03*
X305000Y233100D02*
D03*
X167856Y99784D02*
D03*
X328130Y126962D02*
D03*
X291808Y321526D02*
D03*
X221196Y74638D02*
D03*
X323558Y41618D02*
D03*
M02*
