G04*
G04 #@! TF.GenerationSoftware,Altium Limited,Altium Designer,23.4.1 (23)*
G04*
G04 Layer_Physical_Order=1*
G04 Layer_Color=255*
%FSLAX44Y44*%
%MOMM*%
G71*
G04*
G04 #@! TF.SameCoordinates,85AF0129-C820-498D-97AF-9D942E21B237*
G04*
G04*
G04 #@! TF.FilePolarity,Positive*
G04*
G01*
G75*
%ADD11C,0.5000*%
%ADD17C,0.5000*%
%ADD18R,0.5725X0.5682*%
%ADD19R,0.8000X0.9500*%
%ADD20R,1.8000X0.6000*%
G04:AMPARAMS|DCode=21|XSize=1.9mm|YSize=3.2mm|CornerRadius=0mm|HoleSize=0mm|Usage=FLASHONLY|Rotation=270.000|XOffset=0mm|YOffset=0mm|HoleType=Round|Shape=Octagon|*
%AMOCTAGOND21*
4,1,8,1.6000,0.4750,1.6000,-0.4750,1.1250,-0.9500,-1.1250,-0.9500,-1.6000,-0.4750,-1.6000,0.4750,-1.1250,0.9500,1.1250,0.9500,1.6000,0.4750,0.0*
%
%ADD21OCTAGOND21*%

%ADD22R,1.4000X0.6000*%
G04:AMPARAMS|DCode=23|XSize=0.3125mm|YSize=1.7883mm|CornerRadius=0.1562mm|HoleSize=0mm|Usage=FLASHONLY|Rotation=180.000|XOffset=0mm|YOffset=0mm|HoleType=Round|Shape=RoundedRectangle|*
%AMROUNDEDRECTD23*
21,1,0.3125,1.4758,0,0,180.0*
21,1,0.0000,1.7883,0,0,180.0*
1,1,0.3125,0.0000,0.7379*
1,1,0.3125,0.0000,0.7379*
1,1,0.3125,0.0000,-0.7379*
1,1,0.3125,0.0000,-0.7379*
%
%ADD23ROUNDEDRECTD23*%
G04:AMPARAMS|DCode=24|XSize=1.7883mm|YSize=0.3125mm|CornerRadius=0.1562mm|HoleSize=0mm|Usage=FLASHONLY|Rotation=180.000|XOffset=0mm|YOffset=0mm|HoleType=Round|Shape=RoundedRectangle|*
%AMROUNDEDRECTD24*
21,1,1.7883,0.0000,0,0,180.0*
21,1,1.4758,0.3125,0,0,180.0*
1,1,0.3125,-0.7379,0.0000*
1,1,0.3125,0.7379,0.0000*
1,1,0.3125,0.7379,0.0000*
1,1,0.3125,-0.7379,0.0000*
%
%ADD24ROUNDEDRECTD24*%
%ADD25R,1.7883X0.3125*%
%ADD26R,1.3500X0.4000*%
%ADD27R,1.9000X1.5000*%
%ADD28R,0.8000X1.7000*%
%ADD29R,1.5500X0.6000*%
%ADD30R,1.8000X1.2000*%
%ADD31R,0.9000X2.1000*%
%ADD32R,3.2000X2.1000*%
%ADD33R,2.8400X6.8000*%
%ADD34R,1.0121X1.2084*%
%ADD35R,0.5200X0.5200*%
%ADD36R,0.5200X0.5200*%
%ADD37R,0.7500X1.0000*%
%ADD38R,1.1000X2.0500*%
%ADD39R,0.9500X0.8000*%
%ADD40R,0.8500X0.9500*%
%ADD41R,0.9000X1.0500*%
%ADD42R,0.4500X0.4500*%
%ADD43R,1.2500X1.1000*%
%ADD44R,0.5000X0.3500*%
%ADD45R,0.9500X0.8500*%
%ADD46R,0.3500X0.8000*%
%ADD47R,0.8500X0.3500*%
%ADD48R,2.6000X2.7000*%
%ADD49R,2.0000X0.4000*%
G04:AMPARAMS|DCode=50|XSize=0.7311mm|YSize=0.3025mm|CornerRadius=0.1512mm|HoleSize=0mm|Usage=FLASHONLY|Rotation=180.000|XOffset=0mm|YOffset=0mm|HoleType=Round|Shape=RoundedRectangle|*
%AMROUNDEDRECTD50*
21,1,0.7311,0.0000,0,0,180.0*
21,1,0.4286,0.3025,0,0,180.0*
1,1,0.3025,-0.2143,0.0000*
1,1,0.3025,0.2143,0.0000*
1,1,0.3025,0.2143,0.0000*
1,1,0.3025,-0.2143,0.0000*
%
%ADD50ROUNDEDRECTD50*%
%ADD51R,0.9121X0.9587*%
%ADD52R,0.7000X1.3000*%
%ADD53R,0.5000X0.4000*%
%ADD54R,0.4000X0.5000*%
%ADD55R,0.7311X0.3025*%
%ADD58C,0.7870*%
%ADD67R,0.7000X0.6000*%
%ADD79R,1.7500X2.5000*%
%ADD80C,0.9910*%
%ADD82C,0.7500*%
%ADD86C,0.1500*%
%ADD87C,0.1500*%
%ADD88C,0.3810*%
%ADD89C,1.4500*%
%ADD90C,4.0000*%
G04:AMPARAMS|DCode=91|XSize=1.524mm|YSize=2mm|CornerRadius=0.381mm|HoleSize=0mm|Usage=FLASHONLY|Rotation=0.000|XOffset=0mm|YOffset=0mm|HoleType=Round|Shape=RoundedRectangle|*
%AMROUNDEDRECTD91*
21,1,1.5240,1.2380,0,0,0.0*
21,1,0.7620,2.0000,0,0,0.0*
1,1,0.7620,0.3810,-0.6190*
1,1,0.7620,-0.3810,-0.6190*
1,1,0.7620,-0.3810,0.6190*
1,1,0.7620,0.3810,0.6190*
%
%ADD91ROUNDEDRECTD91*%
%ADD92C,1.2700*%
G36*
X-55000Y124500D02*
X-74000D01*
Y111500D01*
X-55000D01*
Y124500D01*
D02*
G37*
G36*
X-60000Y111500D02*
X-69000D01*
Y106500D01*
X-60000Y106500D01*
Y111500D01*
D02*
G37*
G36*
X-69000Y183500D02*
X-60000D01*
Y188500D01*
X-69000Y188500D01*
Y183500D01*
D02*
G37*
G36*
X-74000Y170500D02*
X-55000D01*
Y183500D01*
X-74000D01*
Y170500D01*
D02*
G37*
D11*
X-58724Y113650D02*
G03*
X-62291Y112500I-1276J-2150D01*
G01*
X-57709D02*
G03*
X-58724Y113650I-2291J-1000D01*
G01*
D02*
G03*
X-62291Y112500I-1276J-2150D01*
G01*
X-57709D02*
G03*
X-58724Y113650I-2291J-1000D01*
G01*
Y109350D02*
G03*
X-57709Y112500I-1276J2150D01*
G01*
X-62500Y111500D02*
G03*
X-58724Y109350I2500J0D01*
G01*
D02*
G03*
X-57709Y112500I-1276J2150D01*
G01*
X-62500Y111500D02*
G03*
X-58724Y109350I2500J0D01*
G01*
X-69909Y109171D02*
G03*
X-69771Y109122I909J2329D01*
G01*
X-69909Y109171D02*
G03*
X-69771Y109122I909J2329D01*
G01*
X-69771Y109122D02*
G03*
X-69229Y109011I771J2378D01*
G01*
X-69771Y109122D02*
G03*
X-69229Y109011I771J2378D01*
G01*
X-69771Y109122D02*
G03*
X-69229Y109011I771J2378D01*
G01*
X-69771Y109122D02*
G03*
X-69229Y109011I771J2378D01*
G01*
X-69228Y109010D02*
G03*
X-69000Y109000I228J2490D01*
G01*
X-69228Y109010D02*
G03*
X-69000Y109000I228J2490D01*
G01*
X-69228Y109010D02*
G03*
X-69000Y109000I228J2490D01*
G01*
X-69228Y109010D02*
G03*
X-69000Y109000I228J2490D01*
G01*
X-71291Y110500D02*
G03*
X-69910Y109171I2291J1000D01*
G01*
X-71291Y110500D02*
G03*
X-69910Y109171I2291J1000D01*
G01*
X-69909Y109171D02*
G03*
X-69771Y109122I909J2329D01*
G01*
X-69909Y109171D02*
G03*
X-69771Y109122I909J2329D01*
G01*
X-71291Y110500D02*
G03*
X-69910Y109171I2291J1000D01*
G01*
X-71291Y110500D02*
G03*
X-69910Y109171I2291J1000D01*
G01*
X-69000Y109000D02*
G03*
X-67255Y109710I0J2500D01*
G01*
X-69000Y109000D02*
G03*
X-67255Y109710I0J2500D01*
G01*
X-69000Y109000D02*
G03*
X-67255Y109710I0J2500D01*
G01*
X-69000Y109000D02*
G03*
X-67255Y109710I0J2500D01*
G01*
X-71489Y111269D02*
G03*
X-71489Y111268I2489J231D01*
G01*
X-71490Y111271D02*
G03*
X-71489Y111269I2490J229D01*
G01*
Y111269D02*
G03*
X-71489Y111268I2489J231D01*
G01*
X-71490Y111271D02*
G03*
X-71489Y111269I2490J229D01*
G01*
X-71490Y111271D02*
G03*
X-71489Y111269I2490J229D01*
G01*
Y111269D02*
G03*
X-71489Y111268I2489J231D01*
G01*
X-71489Y111269D02*
G03*
X-71489Y111268I2489J231D01*
G01*
X-71500Y111500D02*
G03*
X-71496Y111362I2500J0D01*
G01*
X-71500Y111500D02*
G03*
X-71496Y111362I2500J0D01*
G01*
X-71496Y111361D02*
G03*
X-71490Y111272I2496J139D01*
G01*
X-71496Y111362D02*
G03*
X-71496Y111361I2496J138D01*
G01*
X-71500Y111500D02*
G03*
X-71496Y111362I2500J0D01*
G01*
X-71500Y111500D02*
G03*
X-71496Y111362I2500J0D01*
G01*
X-71496Y111361D02*
G03*
X-71490Y111272I2496J139D01*
G01*
X-71496Y111362D02*
G03*
X-71496Y111361I2496J138D01*
G01*
X-71490Y111271D02*
G03*
X-71489Y111269I2490J229D01*
G01*
X-71496Y111361D02*
G03*
X-71490Y111272I2496J139D01*
G01*
X-71496Y111362D02*
G03*
X-71496Y111361I2496J138D01*
G01*
D02*
G03*
X-71490Y111272I2496J139D01*
G01*
X-71496Y111362D02*
G03*
X-71496Y111361I2496J138D01*
G01*
X-71384Y110747D02*
G03*
X-71329Y110591I2384J753D01*
G01*
X-71384Y110747D02*
G03*
X-71329Y110591I2384J753D01*
G01*
X-71384Y110747D02*
G03*
X-71329Y110591I2384J753D01*
G01*
X-71426Y110897D02*
G03*
X-71384Y110748I2426J603D01*
G01*
X-71426Y110897D02*
G03*
X-71384Y110748I2426J603D01*
G01*
X-71329Y110591D02*
G03*
X-71291Y110500I2329J909D01*
G01*
X-71329Y110591D02*
G03*
X-71291Y110500I2329J909D01*
G01*
X-71329Y110591D02*
G03*
X-71291Y110500I2329J909D01*
G01*
X-71384Y110747D02*
G03*
X-71329Y110591I2384J753D01*
G01*
X-71329Y110591D02*
G03*
X-71291Y110500I2329J909D01*
G01*
X-71426Y110897D02*
G03*
X-71384Y110748I2426J603D01*
G01*
X-71500Y111501D02*
G03*
X-71500Y111500I2500J-1D01*
G01*
X-71318Y112436D02*
G03*
X-71500Y111501I2318J-936D01*
G01*
X-71426Y110897D02*
G03*
X-71384Y110748I2426J603D01*
G01*
X-71500Y111501D02*
G03*
X-71500Y111500I2500J-1D01*
G01*
X-71318Y112436D02*
G03*
X-71500Y111501I2318J-936D01*
G01*
X-71291Y112500D02*
G03*
X-71318Y112437I2291J-1000D01*
G01*
X-71291Y112500D02*
G03*
X-71318Y112437I2291J-1000D01*
G01*
X-71291Y112500D02*
G03*
X-71318Y112437I2291J-1000D01*
G01*
X-71291Y112500D02*
G03*
X-71318Y112437I2291J-1000D01*
G01*
X-67484Y181512D02*
G03*
X-66834Y182253I-1516J1988D01*
G01*
X-67484Y181512D02*
G03*
X-66834Y182253I-1516J1988D01*
G01*
X-62291Y112500D02*
G03*
X-62428Y112096I2291J-1000D01*
G01*
X-62291Y112500D02*
G03*
X-62428Y112096I2291J-1000D01*
G01*
X-66834Y182253D02*
G03*
X-66558Y182964I-2166J1247D01*
G01*
X-66834Y182253D02*
G03*
X-66558Y182964I-2166J1247D01*
G01*
X-66558Y182965D02*
G03*
X-66509Y183290I-2442J536D01*
G01*
X-66558Y182965D02*
G03*
X-66509Y183290I-2442J536D01*
G01*
Y183290D02*
G03*
X-66500Y183468I-2491J210D01*
G01*
Y183468D02*
G03*
X-66500Y183487I-2500J32D01*
G01*
X-66500Y183468D02*
G03*
X-66500Y183487I-2500J32D01*
G01*
D02*
G03*
X-66500Y183490I-2500J14D01*
G01*
Y183490D02*
Y183491D01*
Y183487D02*
G03*
X-66500Y183490I-2500J14D01*
G01*
Y183490D02*
Y183491D01*
Y183491D02*
G03*
X-66500Y183495I-2500J9D01*
G01*
X-66500Y183491D02*
G03*
X-66500Y183495I-2500J9D01*
G01*
X-66999Y110002D02*
G03*
X-66998Y110003I-2001J1498D01*
G01*
X-66999Y110002D02*
G03*
X-66998Y110003I-2001J1498D01*
G01*
X-71489Y111268D02*
G03*
X-71427Y110900I2489J232D01*
G01*
X-71489Y111268D02*
G03*
X-71427Y110900I2489J232D01*
G01*
X-71489Y111268D02*
G03*
X-71427Y110900I2489J232D01*
G01*
X-71489Y111268D02*
G03*
X-71427Y110900I2489J232D01*
G01*
X-66709Y112501D02*
G03*
X-71291Y112500I-2291J-1001D01*
G01*
X-66997Y110003D02*
G03*
X-66709Y112500I-2003J1497D01*
G01*
X-66709Y112501D02*
G03*
X-71291Y112500I-2291J-1001D01*
G01*
X-66709Y112501D02*
G03*
X-71291Y112500I-2291J-1001D01*
G01*
X-66709Y112501D02*
G03*
X-71291Y112500I-2291J-1001D01*
G01*
X-66997Y110003D02*
G03*
X-66709Y112500I-2003J1497D01*
G01*
X-66709Y112500D02*
X-66709Y112501D01*
X-66709Y112500D02*
X-66709Y112501D01*
X-66500Y183495D02*
G03*
X-66500Y183500I-2500J5D01*
G01*
Y183495D02*
G03*
X-66500Y183500I-2500J5D01*
G01*
X-70106Y181258D02*
G03*
X-69907Y181171I1106J2242D01*
G01*
X-70106Y181258D02*
G03*
X-69907Y181171I1106J2242D01*
G01*
X-71130Y182192D02*
G03*
X-70106Y181258I2130J1309D01*
G01*
X-71500Y183500D02*
G03*
X-71130Y182192I2500J0D01*
G01*
X-67907Y181252D02*
G03*
X-67753Y181334I-1094J2248D01*
G01*
X-69907Y181170D02*
G03*
X-67907Y181252I907J2330D01*
G01*
X-71500Y183500D02*
G03*
X-71130Y182192I2500J0D01*
G01*
D02*
G03*
X-70106Y181258I2130J1309D01*
G01*
X-67907Y181252D02*
G03*
X-67753Y181334I-1094J2248D01*
G01*
X-67752Y181334D02*
G03*
X-67484Y181512I-1248J2166D01*
G01*
X-67752Y181334D02*
G03*
X-67484Y181512I-1248J2166D01*
G01*
X-69907Y181170D02*
G03*
X-67907Y181252I907J2330D01*
G01*
X-66500Y183500D02*
G03*
X-71500Y183500I-2500J0D01*
G01*
X-71427Y110900D02*
X-71427Y110899D01*
X-71427Y110900D02*
X-71427Y110899D01*
X-67254Y109711D02*
G03*
X-67253Y109712I-1746J1789D01*
G01*
X-67254Y109711D02*
G03*
X-67253Y109712I-1746J1789D01*
G01*
X-67253Y109712D02*
G03*
X-67190Y109776I-1748J1788D01*
G01*
X-67253Y109712D02*
G03*
X-67190Y109776I-1748J1788D01*
G01*
X-67190Y109776D02*
G03*
X-67189Y109777I-1810J1724D01*
G01*
X-67190Y109776D02*
G03*
X-67189Y109777I-1810J1724D01*
G01*
X-62500Y183500D02*
G03*
X-60001Y186000I2500J0D01*
G01*
X-61675Y185356D02*
G03*
X-62500Y183501I1675J-1856D01*
G01*
X-61675Y185356D02*
G03*
X-62500Y183501I1675J-1856D01*
G01*
X-60001Y186000D02*
G03*
X-61675Y185356I0J-2500D01*
G01*
X-60001Y186000D02*
G03*
X-61675Y185356I0J-2500D01*
G01*
X-67255Y109711D02*
X-67254Y109711D01*
X-67255Y109711D02*
X-67254Y109711D01*
X-67188Y109778D02*
G03*
X-66999Y110001I-1812J1723D01*
G01*
X-67188Y109778D02*
G03*
X-66999Y110001I-1812J1723D01*
G01*
X-62428Y112096D02*
G03*
X-62500Y111500I2428J-596D01*
G01*
X-62500Y183501D02*
Y183500D01*
Y183500D02*
G03*
X-60000Y186000I2500J0D01*
G01*
X-84250Y202500D02*
X-83500D01*
X-72397Y191396D01*
Y184105D02*
Y191396D01*
D17*
X-71318Y112436D02*
D03*
D03*
X-66500Y183491D02*
D03*
D03*
X-71427Y110898D02*
D03*
D03*
X-67253Y109712D02*
D03*
D03*
X-67255Y109710D02*
D03*
D03*
X-61675Y185356D02*
D03*
D03*
X100000Y275000D02*
D03*
X90000Y285000D02*
D03*
Y275000D02*
D03*
X80000Y285000D02*
D03*
Y275000D02*
D03*
D18*
X142500Y222978D02*
D03*
Y232022D02*
D03*
D19*
X256500Y155000D02*
D03*
X243500D02*
D03*
X183750Y22500D02*
D03*
X171250D02*
D03*
X148500Y32500D02*
D03*
X201250Y35000D02*
D03*
X188750D02*
D03*
X161500Y32500D02*
D03*
D20*
X324499Y217500D02*
D03*
D21*
X299500D02*
D03*
D22*
X326499Y232501D02*
D03*
Y202501D02*
D03*
D23*
X182500Y88088D02*
D03*
X177499D02*
D03*
X172500D02*
D03*
X167500D02*
D03*
X162500D02*
D03*
X157500D02*
D03*
X152500D02*
D03*
X147500D02*
D03*
X142500D02*
D03*
X137500D02*
D03*
X132500D02*
D03*
X127500D02*
D03*
X122500D02*
D03*
X117500D02*
D03*
X127500Y201912D02*
D03*
X132500D02*
D03*
X137500D02*
D03*
X142500D02*
D03*
X147500Y201912D02*
D03*
X152500Y201912D02*
D03*
X157500D02*
D03*
X162500D02*
D03*
X167500Y201912D02*
D03*
X172500D02*
D03*
X192500Y201912D02*
D03*
X117500Y201912D02*
D03*
X192500Y88088D02*
D03*
X177500Y201912D02*
D03*
X182500D02*
D03*
X187500Y88088D02*
D03*
X122500Y201912D02*
D03*
X187500Y201912D02*
D03*
D24*
X98088Y117499D02*
D03*
Y122500D02*
D03*
Y127500D02*
D03*
Y132500D02*
D03*
Y137500D02*
D03*
Y142500D02*
D03*
Y147500D02*
D03*
Y152500D02*
D03*
Y157500D02*
D03*
Y162500D02*
D03*
Y167500D02*
D03*
Y172500D02*
D03*
Y177500D02*
D03*
Y182500D02*
D03*
X211912D02*
D03*
Y177500D02*
D03*
Y172500D02*
D03*
Y167500D02*
D03*
Y157499D02*
D03*
Y152500D02*
D03*
Y147500D02*
D03*
Y142500D02*
D03*
X211912Y137500D02*
D03*
X211912Y132500D02*
D03*
Y127500D02*
D03*
Y122500D02*
D03*
Y117500D02*
D03*
Y112500D02*
D03*
X98088Y107500D02*
D03*
Y112500D02*
D03*
X211912Y162499D02*
D03*
D25*
Y107499D02*
D03*
D26*
X-37500Y134500D02*
D03*
Y141000D02*
D03*
Y147500D02*
D03*
Y154000D02*
D03*
Y160500D02*
D03*
D27*
X-64500Y137500D02*
D03*
Y157500D02*
D03*
D28*
X-53000Y85000D02*
D03*
X-87001D02*
D03*
D29*
X370500Y257500D02*
D03*
Y247500D02*
D03*
Y187500D02*
D03*
Y197500D02*
D03*
Y207500D02*
D03*
Y217500D02*
D03*
Y227500D02*
D03*
Y237500D02*
D03*
D30*
X409250Y174500D02*
D03*
Y270500D02*
D03*
D31*
X283000Y73500D02*
D03*
X260000D02*
D03*
X237000D02*
D03*
D32*
X260000Y16500D02*
D03*
D33*
X72500Y50000D02*
D03*
D34*
X345000Y28019D02*
D03*
Y11982D02*
D03*
X215000Y68018D02*
D03*
Y51981D02*
D03*
X185000Y268019D02*
D03*
X300000Y161981D02*
D03*
X185000Y251981D02*
D03*
X300000Y178018D02*
D03*
D35*
X232500Y161000D02*
D03*
Y169000D02*
D03*
X-8150Y233149D02*
D03*
Y225149D02*
D03*
X75925Y108427D02*
D03*
X-7500Y241000D02*
D03*
X75925Y100427D02*
D03*
X-7500Y249000D02*
D03*
D36*
X239000Y107500D02*
D03*
X231000D02*
D03*
X343500Y255000D02*
D03*
X351500D02*
D03*
X251500Y137499D02*
D03*
X189000Y235000D02*
D03*
X121501Y222500D02*
D03*
X186000Y60000D02*
D03*
X113501Y222500D02*
D03*
X181000Y235000D02*
D03*
X194000Y60000D02*
D03*
X243500Y137499D02*
D03*
D37*
X-45000Y222500D02*
D03*
X-30000D02*
D03*
X38591Y167499D02*
D03*
X53590D02*
D03*
X-45000Y202500D02*
D03*
X-30000D02*
D03*
D38*
X306000Y95000D02*
D03*
X339000D02*
D03*
D39*
X160000Y236000D02*
D03*
Y249000D02*
D03*
X35000Y291500D02*
D03*
Y278500D02*
D03*
D40*
X149250Y285000D02*
D03*
X135750D02*
D03*
D41*
X-41750Y262500D02*
D03*
X-28250D02*
D03*
X5750Y202500D02*
D03*
X19250D02*
D03*
X-41750Y242500D02*
D03*
X-28250D02*
D03*
D42*
X71000Y120000D02*
D03*
X79000D02*
D03*
X71000Y132500D02*
D03*
X79000D02*
D03*
D43*
X-60750Y242500D02*
D03*
X-84250D02*
D03*
Y202500D02*
D03*
Y262500D02*
D03*
Y222500D02*
D03*
X-60750Y202500D02*
D03*
Y222500D02*
D03*
Y262500D02*
D03*
D44*
X20500Y247250D02*
D03*
Y240750D02*
D03*
Y234250D02*
D03*
Y227750D02*
D03*
X4500D02*
D03*
Y234250D02*
D03*
Y240750D02*
D03*
Y247250D02*
D03*
D45*
X142500Y251500D02*
D03*
Y265000D02*
D03*
D46*
X102500Y305000D02*
D03*
X97500D02*
D03*
X92500D02*
D03*
X87500D02*
D03*
X82500D02*
D03*
X77500D02*
D03*
Y265000D02*
D03*
X82500D02*
D03*
X87500D02*
D03*
X92500D02*
D03*
X97500D02*
D03*
X102500D02*
D03*
D47*
X70250Y297500D02*
D03*
Y292500D02*
D03*
Y287500D02*
D03*
Y282500D02*
D03*
Y277500D02*
D03*
Y272500D02*
D03*
X109750D02*
D03*
Y277500D02*
D03*
Y282500D02*
D03*
Y287500D02*
D03*
Y292500D02*
D03*
Y297500D02*
D03*
D48*
X90000Y285000D02*
D03*
D49*
X270000Y117500D02*
D03*
Y105500D02*
D03*
Y129500D02*
D03*
D50*
X296095Y263251D02*
D03*
X323905Y269750D02*
D03*
X296095Y250250D02*
D03*
Y256750D02*
D03*
Y269750D02*
D03*
X323905Y263251D02*
D03*
Y256750D02*
D03*
D51*
X260000Y280233D02*
D03*
Y294767D02*
D03*
D52*
X367000Y280000D02*
D03*
X348000D02*
D03*
D53*
X55000Y281500D02*
D03*
Y273500D02*
D03*
D54*
X86000Y252500D02*
D03*
X94000D02*
D03*
D55*
X323905Y250250D02*
D03*
D58*
X-76350Y7700D02*
D03*
X-63650D02*
D03*
Y-5000D02*
D03*
X-76350Y-17700D02*
D03*
X-63650D02*
D03*
X-76350Y-5000D02*
D03*
D67*
X320000Y179500D02*
D03*
Y160500D02*
D03*
X340000Y170000D02*
D03*
D79*
X310000Y260000D02*
D03*
D80*
X-70000Y-30400D02*
D03*
X-59840Y20400D02*
D03*
X-80160D02*
D03*
D82*
X-70000Y85000D02*
D03*
D86*
X192219Y12446D02*
G03*
X189990Y12565I-1168J-941D01*
G01*
X130285Y245810D02*
G03*
X124400Y240389I2215J-8310D01*
G01*
X127506Y247970D02*
G03*
X121868Y242139I4994J-10470D01*
G01*
X191840Y4916D02*
G03*
X194569Y-4468I8160J-2716D01*
G01*
X54386Y203922D02*
G03*
X55307Y203906I614J8578D01*
G01*
X8097Y188023D02*
G03*
X7742Y188151I-3097J-8023D01*
G01*
X-21487Y51281D02*
G03*
X-21589Y54293I-8513J1219D01*
G01*
X65900Y246595D02*
G03*
X65911Y247922I-8568J737D01*
G01*
X65896Y246560D02*
G03*
X65900Y246595I-8565J772D01*
G01*
X102429Y231650D02*
G03*
X100000Y232000I-2429J-8250D01*
G01*
X287083Y279727D02*
G03*
X285385Y281555I-7084J-4877D01*
G01*
X-19100Y-34346D02*
G03*
X-18937Y-31708I-8400J1846D01*
G01*
X-15976Y-33824D02*
G03*
X-15941Y-31530I-11524J1324D01*
G01*
X82549Y195860D02*
G03*
X81354Y196764I-5769J-6378D01*
G01*
X109279Y175921D02*
G03*
X109279Y174079I1184J-921D01*
G01*
X109279Y170921D02*
G03*
X109279Y169079I1184J-921D01*
G01*
X73107Y181521D02*
G03*
X66364Y183525I-5607J-6521D01*
G01*
X221044Y206800D02*
G03*
X218802Y202855I6092J-6071D01*
G01*
X180760Y116848D02*
G03*
X182022Y115544I6777J5294D01*
G01*
X24092Y154083D02*
G03*
X30678Y153078I4489J7336D01*
G01*
X22800Y151362D02*
G03*
X31274Y150136I5781J10057D01*
G01*
X220883Y317435D02*
G03*
X220879Y317440I-1061J-1061D01*
G01*
X221189Y366330D02*
G03*
X215130Y360270I0J-6060D01*
G01*
X217358Y340884D02*
G03*
X215130Y336190I3832J-4694D01*
G01*
X221323Y316373D02*
G03*
X221323Y316375I-1500J2D01*
G01*
X217358Y340884D02*
G03*
X217355Y343197I-957J1155D01*
G01*
X215130Y347890D02*
G03*
X217355Y343197I6060J0D01*
G01*
X215130Y323810D02*
G03*
X220533Y317786I6060J0D01*
G01*
X203470Y-30648D02*
G03*
X201310Y-30250I-2160J-5662D01*
G01*
X58319Y313909D02*
G03*
X56023Y313733I-495J-8586D01*
G01*
X217278Y-31681D02*
G03*
X217404Y-31560I-978J1137D01*
G01*
X217278Y-31681D02*
G03*
X215130Y-36310I3912J-4628D01*
G01*
X193690Y-30250D02*
G03*
X187630Y-36310I0J-6060D01*
G01*
X-84250Y262500D02*
X-83500D01*
X-30035Y315965D01*
Y318535D01*
X18680Y367250D01*
X90129D01*
X100000Y357379D01*
Y354999D02*
Y357379D01*
X201826Y17857D02*
X207857D01*
X201175Y17206D02*
X201826Y17857D01*
X207857D02*
X210000Y20000D01*
X206862Y7500D02*
X217500D01*
X189933Y16751D02*
X195134D01*
X189925Y12500D02*
X189990Y12565D01*
X173694Y4526D02*
X175637D01*
X192219Y12446D02*
X192222Y12442D01*
X147121Y-17804D02*
X174425Y9500D01*
X175637Y4526D02*
X179263Y900D01*
X173182Y12500D02*
X189925D01*
X176621Y22500D02*
X177500Y21621D01*
Y16818D02*
Y21621D01*
X192222Y12442D02*
X195256Y8649D01*
X168682Y8000D02*
X173182Y12500D01*
X179263Y900D02*
X182294D01*
X171250Y22500D02*
X176621D01*
X174425Y9500D02*
X190162D01*
X201084Y10800D02*
X203562D01*
X206862Y7500D01*
X188682Y15500D02*
X189933Y16751D01*
X177500Y16818D02*
X178818Y15500D01*
X188682D01*
X195134Y16751D02*
X201084Y10800D01*
X-84105Y-4600D02*
X-73850D01*
X-86121Y-17300D02*
X-73850D01*
X-87000Y-18179D02*
X-86121Y-17300D01*
X118257Y235000D02*
X119136Y235879D01*
X122465Y234344D02*
X122465Y234965D01*
X119136Y235879D02*
X121868Y242139D01*
X117636Y235000D02*
X118257Y235000D01*
X65907Y235000D02*
X117636D01*
X134621Y251364D02*
X135500Y252243D01*
X140388Y234113D02*
X142500Y232022D01*
X122465Y234965D02*
X124400Y240389D01*
X132500Y237500D02*
X140388Y234113D01*
X138500Y248000D02*
X142500Y251500D01*
X122465Y233723D02*
Y234344D01*
X127506Y247970D02*
X134621Y251364D01*
X130285Y245810D02*
X138500Y248000D01*
X135500Y252243D02*
Y256682D01*
X219683Y172500D02*
X241007Y193824D01*
Y197857D01*
X243150Y200000D01*
X194569Y-4468D02*
X204600Y-14499D01*
Y-17500D02*
Y-14499D01*
X198921Y17206D02*
X201175D01*
X193627Y22500D02*
X198921Y17206D01*
X195256Y8649D02*
X200000Y2200D01*
X191840Y4916D02*
X192256Y6164D01*
Y7407D01*
X190162Y9500D02*
X192256Y7407D01*
X217822Y-31107D02*
X230386Y-18544D01*
X230825Y-18105D02*
X230825Y17007D01*
X231264Y17446D01*
X230386Y-18544D02*
X230825Y-18105D01*
X231264Y17446D02*
X246750Y32932D01*
X168696Y-23804D02*
X175000Y-17500D01*
X143393Y-23804D02*
X168696D01*
X369812Y140189D02*
X377500Y132500D01*
X367688Y140189D02*
X369812D01*
X355500Y179500D02*
X374855Y160145D01*
Y159145D02*
Y160145D01*
X350357Y160393D02*
X352500Y158250D01*
X350357Y160393D02*
Y165527D01*
X348134Y167750D02*
X350357Y165527D01*
X342250Y167750D02*
X348134D01*
X365000Y137500D02*
X367688Y140189D01*
X343000Y137500D02*
X365000D01*
X55307Y203906D02*
X84514Y205000D01*
X85757Y205000D02*
X89211Y205000D01*
X50845Y229121D02*
X55000Y212500D01*
X49966Y230000D02*
X50845Y229121D01*
X26000Y206999D02*
X27126Y205874D01*
X31251Y230000D02*
X49966D01*
X27126Y205874D02*
X54386Y203922D01*
X84514Y205000D02*
X85757Y205000D01*
X45000Y242500D02*
X69182Y218318D01*
X45000Y242500D02*
Y284675D01*
X69182Y218318D02*
X83721Y211165D01*
X-25571Y170993D02*
Y176929D01*
X-17500Y185000D01*
X-31500Y165065D02*
X-25571Y170993D01*
X-12500Y167500D02*
X-5900Y160900D01*
X8909D01*
X12210Y157599D01*
X8134Y171866D02*
X9013Y170987D01*
X22404Y182500D02*
X22664Y182500D01*
X32500D01*
X8097Y188023D02*
X22404Y182500D01*
X9013Y170987D02*
X9643Y170357D01*
X-12500Y195000D02*
X7742Y188151D01*
X5000Y180000D02*
X8134Y171866D01*
X-34432Y195000D02*
X-12500D01*
X-29561Y-5099D02*
X-21487Y51281D01*
X-29561Y92939D02*
X-29561Y91697D01*
X-29561Y-6342D02*
X-29561Y-5099D01*
X-39561Y658D02*
X-30000Y52500D01*
X-65364Y67636D02*
X-64925Y67196D01*
X-39561Y-584D02*
X-20000Y-20145D01*
X-39561Y-584D02*
X-39561Y658D01*
X-64925Y67196D02*
X-31500Y54000D01*
X-30000Y52500D01*
X-74978Y77250D02*
X-65364Y67636D01*
X-29561Y91697D02*
X-21589Y54293D01*
X-29561Y-6342D02*
X-17000Y-18902D01*
X-29561Y92939D02*
X10000Y132500D01*
X83827Y245743D02*
X86000Y247916D01*
X79643Y245743D02*
X83827D01*
X77500Y243600D02*
X79643Y245743D01*
X65028Y235879D02*
X65907Y235000D01*
X65028Y235879D02*
Y236565D01*
X63000Y232000D02*
X100000D01*
X82500Y223400D02*
X90738Y208504D01*
X65028Y236565D02*
X65896Y246560D01*
X86000Y247916D02*
Y253000D01*
X57331Y237669D02*
X63000Y232000D01*
X90738Y208504D02*
X92560Y205100D01*
X57331Y237669D02*
Y247331D01*
X92560Y205100D02*
X92591Y204811D01*
X118351Y226032D02*
X119651Y224350D01*
X117033Y227350D02*
X118351Y226032D01*
X95516Y215329D02*
X100000Y223400D01*
X102429Y231650D02*
X117033Y227350D01*
X119651Y224350D02*
X122500Y221500D01*
X95516Y214691D02*
X95516Y215329D01*
X92591Y204811D02*
X92598Y204752D01*
X95516Y214691D02*
X95969Y196176D01*
X251569Y137568D02*
Y148000D01*
X250250Y149318D02*
Y160182D01*
X251500Y137499D02*
X251569Y137568D01*
X248432Y162000D02*
X250250Y160182D01*
X237569Y161000D02*
X238568Y162000D01*
X248432D01*
X250250Y149318D02*
X251569Y148000D01*
X232500Y161000D02*
X237569D01*
X281621Y117500D02*
X282500D01*
X270000D02*
X281621D01*
X282500D02*
X292500Y107500D01*
X211912Y162499D02*
X231000D01*
X232500Y161000D01*
X283000Y68751D02*
X285375Y71125D01*
X286750Y72500D01*
X243500Y137499D02*
X246650Y134349D01*
X243500Y137500D02*
X244499D01*
X211912D02*
X243500D01*
X244500Y137499D02*
Y154000D01*
X243500Y137499D02*
Y137500D01*
X246650Y133967D02*
Y134349D01*
Y133967D02*
X247969Y132649D01*
X230999Y167500D02*
X232500Y169000D01*
X233353Y168146D02*
X252372D01*
X211912Y167500D02*
X230999D01*
X293952Y269750D02*
X296095D01*
X268935Y294767D02*
X285385Y281555D01*
X287083Y279727D02*
X293952Y269750D01*
X280000Y270000D02*
Y274850D01*
X270233Y270000D02*
X280000D01*
X286749Y263251D01*
X260000Y280000D02*
X263811Y276189D01*
X260000Y280000D02*
Y280233D01*
X263811Y276189D02*
X264044D01*
X270233Y270000D01*
X296095Y263251D02*
X306750D01*
X286749D02*
X296095D01*
X-20879Y-50000D02*
X-17439Y-46561D01*
X-20439Y-40439D02*
X-19100Y-34346D01*
X-28600Y-32500D02*
X-27500D01*
X-20000Y-20145D02*
X-18937Y-31708D01*
X-17439Y-46561D02*
X-15976Y-33824D01*
X-22500Y-42500D02*
X-20439Y-40439D01*
X-17000Y-18902D02*
X-15941Y-31530D01*
X-30743Y-30357D02*
X-28600Y-32500D01*
X185000Y268019D02*
X193019D01*
X207500Y282500D01*
X245000Y270000D02*
X264750Y250250D01*
X245000Y270000D02*
Y279534D01*
X260000Y294534D01*
X264750Y250250D02*
X296095D01*
X-61150Y-17700D02*
X-36350Y-42500D01*
X301250Y217500D02*
X324499D01*
X299500D02*
X301250D01*
X326499Y232501D02*
X326948Y232052D01*
X339496D01*
X193553Y259727D02*
X196400Y262573D01*
Y263562D02*
X201438Y268600D01*
X196400Y262573D02*
Y263562D01*
X196981Y251981D02*
X205000Y260000D01*
X201438Y268600D02*
X208562D01*
X185000Y267037D02*
X192311Y259727D01*
X185000Y267037D02*
Y268019D01*
X192311Y259727D02*
X193553D01*
X104601Y205399D02*
Y213600D01*
Y205399D02*
X105000Y205000D01*
X104601Y213600D02*
X113501Y222500D01*
X90029Y193630D02*
X94347Y189312D01*
X95969Y196176D02*
X96832Y195312D01*
X87009Y207991D02*
X87879Y207121D01*
X89211Y205000D01*
X92598Y204752D02*
X92999Y194903D01*
X95590Y192312D01*
X89598Y204121D02*
X90029Y193630D01*
X96832Y195312D02*
X110774D01*
X89211Y205000D02*
X89598Y204121D01*
X79000Y132500D02*
X84000Y127500D01*
X98088D01*
X80000Y122500D02*
X98088D01*
X79000Y120000D02*
X80000Y121000D01*
Y122500D01*
X-7500Y102500D02*
X2200Y92800D01*
X37443D01*
X53069Y108427D01*
X75925D01*
X17500Y132500D02*
X40000Y110000D01*
X10000Y132500D02*
X17500D01*
X40000Y110000D02*
X45000D01*
X-48068Y74250D02*
X-33000Y89318D01*
Y93743D01*
X-25000Y101743D02*
Y110000D01*
X-42720Y95667D02*
X-40577Y97810D01*
X-46833Y95667D02*
X-42720D01*
X-53000Y89500D02*
X-46833Y95667D01*
X-33000Y93743D02*
X-25000Y101743D01*
X-67736Y74250D02*
X-48068D01*
X162500Y273121D02*
Y285000D01*
Y273121D02*
X163621Y272000D01*
X126075Y265000D02*
X142500D01*
X122250D02*
X126075D01*
X95250Y254250D02*
X111500D01*
X94000Y252500D02*
Y253000D01*
X111500Y254250D02*
X122250Y265000D01*
X94000Y253000D02*
X95250Y254250D01*
X153000Y253932D02*
X154318Y255250D01*
X160621Y269000D02*
X161500Y268121D01*
X158682Y269000D02*
X160621D01*
X153000Y244068D02*
Y253932D01*
X161500Y256129D02*
Y268121D01*
X153000Y244068D02*
X154318Y242750D01*
X166621D01*
X160621Y255250D02*
X161500Y256129D01*
X137318Y258500D02*
X148182D01*
X158682Y269000D01*
X154318Y255250D02*
X160621D01*
X135500Y256682D02*
X137318Y258500D01*
X167500Y219682D02*
Y241871D01*
X166621Y242750D02*
X167500Y241871D01*
X122465Y233723D02*
X126351Y229837D01*
Y218968D02*
Y229837D01*
X184150Y239150D02*
X196981Y251981D01*
X185000D02*
X196981D01*
X83721Y211165D02*
X87009Y207991D01*
X113071Y181929D02*
X125000Y170000D01*
X115991Y185852D02*
X143454D01*
X110774Y195312D02*
X117234Y188852D01*
X108289Y189312D02*
X112279Y185322D01*
X95590Y192312D02*
X109531D01*
X82549Y195860D02*
X93104Y186312D01*
X117234Y188852D02*
X142211D01*
X107046Y186312D02*
X109279Y184079D01*
X79682Y197818D02*
X81354Y196764D01*
X146518Y188160D02*
X152500Y194141D01*
X142211Y188852D02*
X147500Y194141D01*
X93104Y186312D02*
X107046D01*
X109279Y178659D02*
X109279Y184079D01*
X94347Y189312D02*
X108289D01*
X112279Y185322D02*
X113071Y181929D01*
X143454Y185852D02*
X146518Y188160D01*
X109531Y192312D02*
X115991Y185852D01*
X109279Y175921D02*
Y178659D01*
X79238Y198262D02*
X79682Y197818D01*
X109279Y170921D02*
X109279Y174079D01*
X109279Y169079D02*
X109279Y168221D01*
X125000Y170000D02*
X157500D01*
X109279Y168221D02*
X162500Y115000D01*
Y88088D02*
Y115000D01*
X48262Y198262D02*
X79238D01*
X77784Y177500D02*
X98088D01*
X42509Y180347D02*
X66364Y183525D01*
X73107Y181521D02*
X77784Y177500D01*
X76780Y189482D02*
X81283Y183379D01*
X82162Y182500D01*
X208562Y268600D02*
X213600Y263562D01*
X197340Y248098D02*
X205260D01*
X190500Y228000D02*
X200802Y238302D01*
X200000Y196641D02*
Y219198D01*
X205260Y248098D02*
X213600Y256438D01*
X189000Y235000D02*
Y239757D01*
X200802Y238302D02*
Y239398D01*
X181000Y235000D02*
X184150Y238150D01*
X213600Y256438D02*
Y263562D01*
X189000Y239757D02*
X197340Y248098D01*
X184150Y238150D02*
Y239150D01*
X221044Y206800D02*
X223070Y208827D01*
X217634Y198275D02*
X218802Y202855D01*
X219759Y209758D02*
X220070Y284300D01*
X221323Y315131D02*
X223070Y286173D01*
X207500Y297500D02*
X219631Y285369D01*
X223104Y183865D02*
X227135Y200730D01*
X223070Y208827D02*
Y286173D01*
X220070Y284300D02*
Y284930D01*
X221323Y316351D02*
X221323Y315131D01*
X217300Y187588D02*
X217634Y198275D01*
X219631Y285369D02*
X220070Y284930D01*
X223104Y180921D02*
Y183865D01*
X197500Y187500D02*
X219759Y209758D01*
X254750Y16500D02*
X260000D01*
X245000Y6750D02*
X254750Y16500D01*
X245000Y-2500D02*
Y6750D01*
X27500Y295932D02*
X42379Y310811D01*
X28379Y285250D02*
X40183D01*
X27500Y286129D02*
X28379Y285250D01*
X27500Y286129D02*
Y295932D01*
X348000Y266875D02*
Y280000D01*
X345350Y264225D02*
X348000Y266875D01*
X345350Y256849D02*
Y264225D01*
X343500Y255000D02*
X345350Y256849D01*
X36850Y214647D02*
Y215650D01*
X24750Y227750D02*
X36850Y215650D01*
X75925Y100427D02*
X77774Y102277D01*
X69780Y94282D02*
X75925Y100427D01*
X61666Y94282D02*
X69780D01*
X60430Y95519D02*
X61666Y94282D01*
X112500Y142500D02*
X125000Y130000D01*
Y117500D02*
Y130000D01*
X200622Y112500D02*
X211912D01*
X182022Y115544D02*
X200621Y100000D01*
X200001Y112500D02*
X200622Y112500D01*
X187537Y122143D02*
X200001Y112500D01*
X200621Y100000D02*
X205000D01*
X170000Y130621D02*
Y146419D01*
Y130621D02*
X180760Y116848D01*
X204141Y152500D02*
X211912D01*
X198315Y158326D02*
X204141Y152500D01*
X196674Y158326D02*
X198315D01*
X187500Y167500D02*
X196674Y158326D01*
X204142Y147500D02*
X211912D01*
X199142Y142500D02*
X204142Y147500D01*
X185000Y142500D02*
X199142D01*
X170000Y146419D02*
Y147500D01*
X172500Y155000D02*
X185000Y142500D01*
X172500Y155000D02*
Y165000D01*
X168919Y146419D02*
X170000D01*
X98088Y142500D02*
X112500D01*
X260000Y16500D02*
Y73500D01*
X370500Y187500D02*
X372750Y189750D01*
X394750D01*
X395000Y190000D01*
X370500Y197500D02*
X382500D01*
X390000Y205000D01*
X370500Y197500D02*
X370500Y197500D01*
X183750Y22500D02*
X193627D01*
X171250D02*
Y31799D01*
X178150Y38699D01*
X136000Y-20653D02*
Y50653D01*
Y-20653D02*
X136250Y-20903D01*
Y-26370D02*
Y-20903D01*
X142000Y-18168D02*
Y48168D01*
X145000Y-16925D02*
X145879Y-17804D01*
X133095Y-32025D02*
Y-21991D01*
X145000Y-16925D02*
Y20682D01*
X142000Y-18168D02*
X144636Y-20804D01*
X148364D02*
X173694Y4526D01*
X139000Y-19410D02*
X143393Y-23804D01*
X133000Y-21895D02*
X133095Y-21991D01*
X139000Y-19410D02*
Y49411D01*
X133000Y-21895D02*
Y51896D01*
X144636Y-20804D02*
X148364D01*
X145879Y-17804D02*
X147121D01*
X157500Y9318D02*
Y20682D01*
X155250Y22932D02*
X157500Y20682D01*
X157000Y52225D02*
Y72218D01*
X155250Y50476D02*
X157000Y52225D01*
Y72218D02*
X157500Y72718D01*
X157500Y9318D02*
X158818Y8000D01*
X155250Y22932D02*
Y50476D01*
X158818Y8000D02*
X168682D01*
X338751Y250250D02*
X339496Y250995D01*
X343500Y255000D01*
X339496Y232052D02*
Y250995D01*
X323905Y263251D02*
X335249D01*
X343500Y255000D01*
X326048Y250250D02*
X338751D01*
X345350Y274350D02*
X346625Y275625D01*
X310000Y261750D02*
Y263750D01*
Y260000D02*
Y261750D01*
X318000Y271750D02*
X326568D01*
X330227Y282750D02*
X339227Y291750D01*
X368432D02*
X380500Y279682D01*
X343568Y288750D02*
X352432D01*
X353750Y287432D01*
X351500Y270318D02*
X353750Y272568D01*
X310000Y263750D02*
X318000Y271750D01*
X326568D02*
X343568Y288750D01*
X351500Y255000D02*
Y270318D01*
X339227Y291750D02*
X368432D01*
X353750Y272568D02*
Y287432D01*
X318000Y269750D02*
X323905D01*
X310000Y261750D02*
X318000Y269750D01*
X125500Y218117D02*
X126351Y218968D01*
X125500Y211682D02*
X127500Y209682D01*
X125500Y211682D02*
Y218117D01*
X127500Y201912D02*
Y209682D01*
X268935Y294767D02*
X283005D01*
X260000D02*
X268935D01*
X370500Y247500D02*
X375250D01*
X380500Y252750D01*
X295022Y282750D02*
X330227D01*
X283005Y294767D02*
X295022Y282750D01*
X380500Y252750D02*
Y279682D01*
X320750Y202750D02*
X323000Y205000D01*
X300000Y179000D02*
X320750Y199750D01*
Y202750D01*
X300000Y178018D02*
Y179000D01*
Y161981D02*
Y162689D01*
X289500Y168757D02*
X291257Y167000D01*
X295689D01*
X300000Y162689D01*
X289500Y168757D02*
Y186045D01*
X299500Y196045D02*
Y217500D01*
X289500Y186045D02*
X299500Y196045D01*
X355531Y222822D02*
Y224169D01*
X352500Y206969D02*
Y207500D01*
X355531Y222822D02*
X355644Y222708D01*
X356451Y241550D02*
X360500Y237500D01*
X355000Y241550D02*
X356451D01*
X363250Y255000D02*
X365750Y257500D01*
X351500Y255000D02*
X363250D01*
X365750Y257500D02*
X369250D01*
X320500Y179500D02*
X355500D01*
X320000D02*
X320500D01*
X355644Y222708D02*
X363500Y225250D01*
X360500Y237500D02*
X370500D01*
X370500Y237500D01*
X352500Y207500D02*
X363500Y215250D01*
Y225250D02*
X368250Y225250D01*
X363500Y215250D02*
X370500Y217500D01*
X359829Y199829D02*
Y201579D01*
X352500Y192500D02*
X359829Y199829D01*
Y201579D02*
X365750Y207500D01*
X370500D01*
X19250Y202500D02*
X20669Y201081D01*
X26419D01*
X32500Y195000D01*
Y182500D02*
X48262Y198262D01*
X233250Y66269D02*
X235000Y68018D01*
X231588Y55912D02*
X233250Y57575D01*
Y66269D01*
X215000Y68018D02*
X235000D01*
Y71499D01*
X237000Y73500D01*
X243750Y44568D02*
Y84932D01*
X201250Y35750D02*
X209189Y43689D01*
X242872D01*
X243750Y44568D01*
X242432Y86250D02*
X243750Y84932D01*
X340000Y170000D02*
X342250Y167750D01*
X320000Y160500D02*
X343000Y137500D01*
X339000Y90250D02*
Y95000D01*
Y90250D02*
X348150Y81100D01*
Y74350D02*
Y81100D01*
Y74350D02*
X350000Y72500D01*
X38589Y167500D02*
X38591Y167499D01*
X22500Y167500D02*
X38589D01*
X12210Y157599D02*
X22663Y151441D01*
X22800Y151362D01*
X13464Y160587D02*
X24092Y154083D01*
X30678Y153078D02*
X60195Y160500D01*
X61187Y157249D02*
X61438Y157500D01*
X31274Y150136D02*
X61187Y157249D01*
X13363Y160688D02*
X13464Y160587D01*
X9643Y164408D02*
X13363Y160688D01*
X306750Y263251D02*
X310000Y260000D01*
Y226250D02*
Y260000D01*
X301250Y217500D02*
X310000Y226250D01*
X172500Y194141D02*
Y209683D01*
X168000Y294500D02*
X177500Y285000D01*
X172500Y209683D02*
X174500Y211683D01*
X177500Y281743D02*
Y285000D01*
X173150Y230225D02*
X174500Y228875D01*
X173150Y277393D02*
X177500Y281743D01*
X174500Y211683D02*
Y228875D01*
X173150Y230225D02*
Y277393D01*
X109750Y292500D02*
X110750Y293500D01*
X114932D01*
X115932Y294500D01*
X168000D01*
X220883Y317435D02*
X221323Y316996D01*
X215130Y347890D02*
Y360270D01*
X225232Y366330D02*
X226152Y367250D01*
X221323Y316351D02*
Y316373D01*
X216863Y187151D02*
X217300Y187588D01*
X215130Y323810D02*
Y336190D01*
X226152Y367250D02*
X240679D01*
X220533Y317786D02*
X220879Y317440D01*
X211912Y182500D02*
X216846Y187135D01*
X221323Y316375D02*
Y316996D01*
X221189Y366330D02*
X225232D01*
X216846Y187135D02*
X216863Y187151D01*
X368250Y225250D02*
X370500Y227500D01*
X-53000Y85000D02*
Y89500D01*
X-37500Y122500D02*
Y134500D01*
Y122500D02*
X-25000Y110000D01*
X167407Y48314D02*
X169550Y50457D01*
X167407Y39156D02*
Y48314D01*
X161500Y32500D02*
Y33250D01*
X167407Y39156D01*
X201250Y35000D02*
Y35750D01*
X202845Y65118D02*
X215000Y52962D01*
X186000Y54631D02*
X192650Y47980D01*
X186000Y54631D02*
Y60000D01*
X201250Y35750D02*
Y52750D01*
X194000Y60000D02*
X201250Y52750D01*
X160000Y34000D02*
X161500Y32500D01*
X157500Y72718D02*
Y88088D01*
X160000Y70975D02*
X165921Y76896D01*
X160000Y34000D02*
Y70975D01*
X179500Y66125D02*
Y78317D01*
X178688Y79129D02*
X179500Y78317D01*
X178150Y64774D02*
X179500Y66125D01*
X177499Y86899D02*
X178688D01*
X177499Y88088D02*
X177499Y86899D01*
X178688Y79129D02*
Y86899D01*
X178150Y38699D02*
Y64774D01*
X183379Y37712D02*
X186038D01*
X181150Y63532D02*
X182500Y64882D01*
X181150Y39941D02*
Y63532D01*
X182500Y64882D02*
Y88088D01*
X181150Y39941D02*
X183379Y37712D01*
X186000Y60000D02*
Y71499D01*
X-93251Y94432D02*
X-91933Y95750D01*
X-82652Y64970D02*
X-68727D01*
X-93251Y75568D02*
Y94432D01*
X-87001Y80500D02*
Y85000D01*
X-68727Y64970D02*
X-58129Y54371D01*
X-87001Y80500D02*
X-83751Y77250D01*
X-74978D01*
X-76000Y82515D02*
X-67736Y74250D01*
X-53582Y51082D02*
X-50135Y47635D01*
X-76000Y82515D02*
Y89682D01*
X-84865Y27635D02*
X-58129Y54371D01*
X-54379Y50621D02*
X-54043D01*
X-82069Y95750D02*
X-76000Y89682D01*
X-91933Y95750D02*
X-82069D01*
X-58129Y54371D02*
X-54379Y50621D01*
X-93251Y75568D02*
X-82652Y64970D01*
X-63000Y136000D02*
X-38126D01*
X-50135Y17416D02*
Y47635D01*
X-84865Y17416D02*
Y27635D01*
X-59851Y7700D02*
X-50135Y17416D01*
X-84865D02*
X-75149Y7700D01*
X-73850D01*
X-37500Y160500D02*
X-32750D01*
X-31500Y161750D01*
Y165065D01*
X102500Y305000D02*
Y327500D01*
X100000Y330000D02*
X102500Y327500D01*
X90000Y342500D02*
X107500D01*
X115000Y335000D01*
X87500Y317500D02*
Y340000D01*
X90000Y342500D01*
X83753Y313753D02*
X87500Y317500D01*
X49766Y302150D02*
X57765Y305301D01*
X57824Y305153D02*
Y305243D01*
X57765Y305301D02*
X57824Y305243D01*
X57710Y313753D02*
X83753D01*
X219291Y177500D02*
X220870Y178687D01*
X211912Y177500D02*
X219291Y177500D01*
X220870Y178687D02*
X223104Y180921D01*
X409250Y145500D02*
Y270500D01*
X345000Y28019D02*
Y45338D01*
X350000Y50338D01*
Y52500D01*
X401000Y126500D02*
X404250Y123250D01*
X375250Y5000D02*
X404250Y34000D01*
Y123250D01*
X401000Y126500D02*
Y140251D01*
X409250Y270500D02*
X409250Y270500D01*
X409250Y270500D02*
X409250Y270500D01*
X260000Y294534D02*
Y294767D01*
X147500Y57911D02*
Y88088D01*
X142000Y48168D02*
X152500Y58668D01*
X139000Y49411D02*
X147500Y57911D01*
X152500Y58668D02*
Y88088D01*
X186038Y37712D02*
X188750Y35000D01*
X165921Y76896D02*
X169079D01*
X172500Y80317D01*
Y88088D01*
X205000Y100000D02*
X223500D01*
X205000D02*
X206400Y98600D01*
Y83938D02*
Y98600D01*
X232382Y122500D02*
X243900Y110982D01*
Y89025D02*
Y110982D01*
X230610Y86250D02*
X242432D01*
X243900Y89025D02*
X246750Y86174D01*
X223260Y78900D02*
X230610Y86250D01*
X246750Y32932D02*
Y86174D01*
X211438Y78900D02*
X223260D01*
X206400Y83938D02*
X211438Y78900D01*
X208493Y35000D02*
X226621D01*
X187500Y88088D02*
Y95858D01*
X207614Y32879D02*
Y34121D01*
X202845Y65118D02*
Y92155D01*
X207614Y34121D02*
X208493Y35000D01*
X207614Y32879D02*
X208250Y32243D01*
X195621Y99378D02*
X202845Y92155D01*
X227500Y-7500D02*
Y34121D01*
X226621Y35000D02*
X227500Y34121D01*
X187500Y80269D02*
Y88088D01*
X215000Y51981D02*
Y52962D01*
X191021Y99378D02*
X195621D01*
X187500Y95858D02*
X191021Y99378D01*
X223500Y100000D02*
X231000Y107500D01*
X172143Y139498D02*
Y145357D01*
X202954Y108687D02*
X203345D01*
X170000Y147500D02*
X172143Y145357D01*
X203345Y108687D02*
X204533Y107499D01*
X211912D01*
X235850Y104350D02*
X239000Y107500D01*
X235850Y103968D02*
Y104350D01*
X221525Y89643D02*
X235850Y103968D01*
X217143Y89643D02*
X221525D01*
X215000Y87500D02*
X217143Y89643D01*
X204352Y-30648D02*
X227500Y-7500D01*
X203731Y-30648D02*
X204352Y-30648D01*
X203470D02*
X203731Y-30648D01*
X192001Y31439D02*
X194122D01*
X208250Y29757D02*
Y32243D01*
X194122Y31439D02*
X195000Y30561D01*
Y29318D02*
Y30561D01*
Y29318D02*
X196318Y28000D01*
X188750Y34689D02*
X192001Y31439D01*
X196318Y28000D02*
X206493D01*
X208250Y29757D01*
X9643Y164408D02*
Y170357D01*
X-32000Y266250D02*
X-28250Y262500D01*
X-32000Y266250D02*
Y272000D01*
X-40000Y280000D02*
X-32000Y272000D01*
X4500Y240750D02*
X5250D01*
X7750Y243250D01*
X7932D01*
X10395Y245713D01*
Y257443D01*
X15000Y262049D01*
Y265000D01*
X3500Y278500D02*
X34250D01*
X-7500Y249000D02*
Y267500D01*
X3500Y278500D01*
X-21500Y239992D02*
X-16000Y234492D01*
Y224617D02*
Y234492D01*
X-21500Y239992D02*
Y244971D01*
X-20622Y245850D02*
X-10650D01*
X-16000Y224617D02*
X-11682Y220299D01*
X-21500Y244971D02*
X-20622Y245850D01*
X-19000Y223375D02*
Y227675D01*
X-24500Y233175D02*
X-19000Y227675D01*
Y223375D02*
X-10813Y215187D01*
X-11300Y228299D02*
X-8150Y225149D01*
X-13000Y229617D02*
Y236681D01*
Y229617D02*
X-11682Y228299D01*
X-13000Y236681D02*
X-10531Y239149D01*
X-11682Y228299D02*
X-11300D01*
X-10531Y239149D02*
X-9350D01*
X-7500Y241000D01*
X-3300Y221617D02*
Y228681D01*
X-5918Y231299D02*
X-3300Y228681D01*
X-10650Y245850D02*
X-7500Y249000D01*
X-6187Y215187D02*
X5750Y203250D01*
X-8150Y233149D02*
X-6300Y231299D01*
X-10813Y215187D02*
X-6187D01*
X-11682Y220299D02*
X-4618D01*
X-3300Y221617D01*
X-6300Y231299D02*
X-5918D01*
X5500Y235250D02*
X6432D01*
X4500Y234250D02*
X5500Y235250D01*
X4500Y247250D02*
X5250D01*
X34250Y278500D02*
X35000D01*
X46400Y302150D02*
X48523D01*
X42379Y310811D02*
X56023Y313733D01*
X48523Y302150D02*
X49766Y302150D01*
X55000Y271378D02*
Y272250D01*
X65440Y262814D02*
X66750Y264125D01*
X65000Y261132D02*
X65911Y247922D01*
X65000Y261132D02*
Y262375D01*
X65440Y262814D01*
X55000Y273500D02*
X55000Y272250D01*
Y271378D02*
X57331Y247331D01*
X44296Y285379D02*
X45000Y284675D01*
X44296Y286621D02*
X45175Y287500D01*
X36419Y238919D02*
Y241081D01*
X42000Y256284D02*
Y283432D01*
X18724Y252905D02*
X38621D01*
X45175Y287500D02*
X70250D01*
X38621Y252905D02*
X42000Y256284D01*
X44296Y285379D02*
Y286621D01*
X30250Y247250D02*
X36419Y241081D01*
X40183Y285250D02*
X42000Y283432D01*
X20500Y247250D02*
X30250D01*
X25250Y236000D02*
X31251Y230000D01*
X25250Y236000D02*
Y236932D01*
X23932Y238250D02*
X25250Y236932D01*
X20500Y240750D02*
X21250D01*
X22250Y239750D01*
X23129Y238250D02*
X23932D01*
X22250Y239129D02*
X23129Y238250D01*
X22250Y239129D02*
Y239750D01*
X17251Y236750D02*
X19750Y234250D01*
X17069Y236750D02*
X17251D01*
X15750Y238068D02*
X17069Y236750D01*
X15750Y238068D02*
Y249932D01*
X-28250Y262500D02*
Y308216D01*
X-6466Y330000D01*
X25000D01*
X217779Y-31152D02*
X217822Y-31107D01*
X217404Y-31560D02*
X217779Y-31152D01*
X215130Y-57370D02*
Y-36310D01*
X212000Y-60500D02*
X215130Y-57370D01*
X-91121Y-60500D02*
X212000D01*
X175000Y-42500D02*
X186751D01*
X187630Y-41621D02*
Y-36310D01*
X186751Y-42500D02*
X187190Y-42061D01*
X193690Y-30250D02*
X201310D01*
X187190Y-42061D02*
X187630Y-41621D01*
X133000Y51896D02*
X137500Y56396D01*
X130000Y53138D02*
X132500Y55639D01*
X136000Y50653D02*
X142500Y57154D01*
X125000Y-42500D02*
Y-40120D01*
X145000Y20682D02*
X148500Y24182D01*
X130000Y-10000D02*
Y53138D01*
X100000Y-40001D02*
X130000Y-10000D01*
X105000Y-30000D02*
X127000Y-8000D01*
Y54381D02*
X127500Y54881D01*
X125000Y-40120D02*
X133095Y-32025D01*
X127000Y-8000D02*
Y54381D01*
X148500Y24182D02*
Y32500D01*
X279250Y69750D02*
X283000Y73500D01*
X-97500Y-54121D02*
Y225007D01*
X-90007Y232500D02*
X-28068D01*
X-97500Y225007D02*
X-90007Y232500D01*
X-85000Y242500D02*
X-84250D01*
X-97500Y-54121D02*
X-91121Y-60500D01*
X-74500Y-50000D02*
X-20879D01*
X-40000Y-57500D02*
X53570D01*
X-90000Y-40000D02*
X-75000Y-55000D01*
X53570Y-57500D02*
X65130Y-45940D01*
X-87000Y-37500D02*
X-74500Y-50000D01*
X-42500Y-55000D02*
X-40000Y-57500D01*
X-75000Y-55000D02*
X-42500D01*
X-84250Y242500D02*
Y262500D01*
Y202500D02*
Y222500D01*
X-53000Y160000D02*
X-38000Y175000D01*
X-61150Y7700D02*
X-59851D01*
X-36350Y-42500D02*
X-22500D01*
X-30743Y-30357D02*
Y-24257D01*
X-50000Y-5000D02*
X-30743Y-24257D01*
X-61150Y-5000D02*
X-50000D01*
X260818Y111500D02*
X279182D01*
X257750Y114568D02*
X260818Y111500D01*
X257750Y114568D02*
Y120432D01*
X260818Y123500D01*
X281621Y117500D02*
X285250Y121129D01*
X260818Y123500D02*
X279182D01*
X282250Y126568D01*
Y132432D01*
X280932Y133750D02*
X282250Y132432D01*
X285250Y121129D02*
Y133674D01*
X252500Y95000D02*
X274682D01*
X282250Y102568D02*
Y108432D01*
X259068Y133750D02*
X280932D01*
X257967Y132649D02*
X259068Y133750D01*
X247969Y132649D02*
X257967D01*
X250663Y116837D02*
Y117412D01*
Y116837D02*
X262000Y105500D01*
X270000D01*
X279182Y111500D02*
X282250Y108432D01*
X240576Y127500D02*
X250663Y117412D01*
X252689Y137500D02*
X281425D01*
X274682Y95000D02*
X282250Y102568D01*
X281425Y137500D02*
X285250Y133674D01*
X289069Y129856D02*
Y134098D01*
Y129856D02*
X306000Y112925D01*
X272167Y151000D02*
X289069Y134098D01*
X259750Y151000D02*
X272167D01*
X211912Y127500D02*
X240576D01*
X-87000Y-37500D02*
Y-18179D01*
X-90000Y-40000D02*
Y-10495D01*
X-84105Y-4600D01*
X306000Y95000D02*
Y112925D01*
X65130Y-45940D02*
Y-32370D01*
X87500Y-10000D01*
X229683Y147500D02*
X230000D01*
X219684Y157499D02*
X229683Y147500D01*
X72500Y145000D02*
X75531D01*
X78030Y147500D01*
X82162Y182500D02*
X98088D01*
X-64500Y137500D02*
X-63000Y136000D01*
X300000Y-42500D02*
Y-41776D01*
X306637Y-35139D01*
X307610D01*
X307749Y-35000D01*
X275000Y-42500D02*
Y-40120D01*
X211912Y172500D02*
X219683D01*
X211912Y157499D02*
X219684D01*
X142500Y57154D02*
Y88088D01*
X136250Y-26370D02*
X150000Y-40120D01*
X127500Y54881D02*
Y88088D01*
X137500Y56396D02*
Y88088D01*
X132500Y55639D02*
Y88088D01*
X122500Y5000D02*
Y88088D01*
X107500Y-10000D02*
X122500Y5000D01*
X150000Y-42500D02*
Y-40120D01*
X117500Y20000D02*
Y88088D01*
X87500Y-10000D02*
X117500Y20000D01*
X46996Y-31129D02*
X93000Y14876D01*
X112279Y104678D02*
Y131079D01*
X93000Y99809D02*
X93879Y100687D01*
X108289D02*
X112279Y104678D01*
X93879Y100687D02*
X108289D01*
X93000Y14876D02*
Y99809D01*
X98088Y137500D02*
X105858D01*
X112279Y131079D01*
X98088Y132500D02*
X105858D01*
X107046Y103687D02*
X109279Y105921D01*
X90000Y102809D02*
X90879Y103687D01*
X90000Y16118D02*
Y102809D01*
X90879Y103687D02*
X107046D01*
X109279Y105921D02*
Y129079D01*
X51382Y-22500D02*
X90000Y16118D01*
X105858Y132500D02*
X109279Y129079D01*
X88269Y160500D02*
X90269Y162500D01*
X60195Y160500D02*
X88269D01*
X61438Y157500D02*
X98088D01*
X90269Y162500D02*
X98088D01*
X52750Y168339D02*
X56089Y165000D01*
X87817D02*
X90317Y167500D01*
X56089Y165000D02*
X87817D01*
X90317Y167500D02*
X98088D01*
X73031Y172500D02*
X98088D01*
X70531Y175000D02*
X73031Y172500D01*
X67500Y175000D02*
X70531D01*
X172500Y194141D02*
X175921Y190721D01*
X194079D01*
X200000Y196641D01*
X190500Y211683D02*
Y228000D01*
X192500Y201912D02*
Y209682D01*
X190500Y211683D02*
X192500Y209682D01*
X115000Y297500D02*
X207500D01*
X109750D02*
X115000D01*
X15750Y249932D02*
X18724Y252905D01*
X19750Y234250D02*
X20500D01*
X115000Y297500D02*
Y335000D01*
X36751Y292500D02*
X46400Y302150D01*
X20500Y227750D02*
X24750D01*
X23001Y210000D02*
X24682D01*
X26000Y208682D01*
X5250Y227750D02*
X23001Y210000D01*
X26000Y206999D02*
Y208682D01*
X79998Y152500D02*
X98088D01*
X78898Y153600D02*
X79998Y152500D01*
X63600Y153600D02*
X78898D01*
X55000Y145000D02*
X63600Y153600D01*
X78030Y147500D02*
X98088D01*
X152500Y194141D02*
Y201912D01*
X147500Y194141D02*
Y201912D01*
X36751Y292500D02*
X70250D01*
X36000D02*
X36751D01*
X176150Y276150D02*
X187500Y287500D01*
X176150Y231468D02*
Y276150D01*
Y231468D02*
X177500Y230118D01*
Y201912D02*
Y230118D01*
X250000Y355000D02*
Y357930D01*
X240679Y367250D02*
X250000Y357930D01*
X174142Y187500D02*
X197500D01*
X45000Y110000D02*
X48750Y113750D01*
X80432D01*
X84181Y117499D01*
X98088D01*
X87223Y112500D02*
X98088D01*
X80159Y105435D02*
X87223Y112500D01*
X75925Y108427D02*
X78916Y105435D01*
X80159D01*
X86478Y107500D02*
X98088D01*
X81255Y102277D02*
X86478Y107500D01*
X77774Y102277D02*
X81255D01*
X45879Y-38379D02*
X46996Y-37262D01*
Y-31129D01*
X45879Y-38379D02*
X50000Y-42500D01*
X30710Y-22500D02*
X51382D01*
X25000Y-42500D02*
Y-28210D01*
X30710Y-22500D01*
X81440Y-31061D02*
X82500Y-30000D01*
X105000D01*
X75000Y-42500D02*
Y-38464D01*
X81440Y-32025D01*
Y-31061D01*
X-24500Y233175D02*
Y238750D01*
X5750Y202500D02*
Y203250D01*
X-24000Y209750D02*
Y228432D01*
X-28068Y232500D02*
X-24000Y228432D01*
X-30000Y203750D02*
X-24000Y209750D01*
X-30000Y202500D02*
Y203750D01*
X211912Y122500D02*
X232382D01*
X232500Y169000D02*
X233353Y168146D01*
X122500Y201912D02*
Y221500D01*
X117500Y201912D02*
Y214271D01*
X115351Y216420D02*
X117500Y214271D01*
X115351Y216420D02*
Y220650D01*
X113501Y222500D02*
X115351Y220650D01*
X252372Y168146D02*
X253251Y167268D01*
Y158250D02*
Y167268D01*
Y158250D02*
X256500Y155000D01*
X55000Y273500D02*
X60000D01*
X142500Y201912D02*
Y222978D01*
Y222978D01*
X327000Y186000D02*
Y205000D01*
X323000D02*
X327000D01*
X55000Y281500D02*
X60000D01*
X126075Y265000D02*
X135576Y274500D01*
X139250D01*
X149250Y284500D01*
Y285000D01*
X-28250Y242500D02*
X-24500Y238750D01*
X-7048Y234250D02*
X4500D01*
X-8150Y233149D02*
X-7048Y234250D01*
X60500Y282000D02*
X69750D01*
X60000Y281500D02*
X60500Y282000D01*
X60000Y273500D02*
X64000Y277500D01*
X70250D01*
X321000Y180000D02*
X327000Y186000D01*
X320500Y179500D02*
X321000Y180000D01*
X224999Y351700D02*
Y354080D01*
Y351700D02*
X236830Y339870D01*
Y324600D02*
Y339870D01*
Y324600D02*
X248225Y313205D01*
X248606D01*
X260000Y301811D01*
Y294767D02*
Y301811D01*
X314594Y262094D02*
X316129Y263629D01*
X345000Y11982D02*
Y12962D01*
X336621Y21341D02*
X345000Y12962D01*
X336621Y21341D02*
Y72500D01*
X283000Y68751D02*
Y73500D01*
X260000Y75000D02*
X280000Y95000D01*
X306000D01*
X401000Y140251D02*
X406250Y145500D01*
X409250D01*
X345000Y11982D02*
X347500Y9481D01*
X361269D01*
X-65000Y140000D02*
X-62000Y137000D01*
X-65000Y160000D02*
X-53000D01*
X256500Y154250D02*
X259750Y151000D01*
X256500Y154250D02*
Y155000D01*
X243500D02*
X244500Y154000D01*
X99251Y254250D02*
X101500Y256500D01*
Y264000D01*
X78500Y256500D02*
Y264000D01*
X80750Y254250D02*
X84751D01*
X78500Y256500D02*
X80750Y254250D01*
X84751D02*
X86000Y253000D01*
X101500Y264000D02*
X102500Y265000D01*
X77500D02*
X78500Y264000D01*
X-7251Y240750D02*
X4500D01*
X-7500Y241000D02*
X-7251Y240750D01*
X-5750Y247250D02*
X4500D01*
X-7500Y249000D02*
X-5750Y247250D01*
X-30000Y221250D02*
Y222500D01*
X-36000Y215250D02*
X-30000Y221250D01*
X-36000Y196567D02*
Y215250D01*
Y196567D02*
X-34432Y195000D01*
X157500Y170000D02*
X162500Y175000D01*
Y201912D01*
X-60750Y222500D02*
X-45000D01*
X-60750Y242500D02*
X-41750D01*
X-60750Y262500D02*
X-41750D01*
Y262500D02*
Y262500D01*
X-28250Y260000D02*
Y260750D01*
X-60750Y202500D02*
X-45000D01*
X286750Y72500D02*
X336621D01*
X211912Y107499D02*
X229501D01*
X242000Y132500D02*
X245000Y129500D01*
X211912Y132500D02*
X242000D01*
X244499Y137500D02*
X244500Y137499D01*
X367000Y259750D02*
X369250Y257500D01*
X367000Y259750D02*
Y280000D01*
X4500Y227750D02*
X5250D01*
X31000Y275250D02*
X34250Y278500D01*
X69750Y282000D02*
X70250Y282500D01*
X100000Y-42500D02*
Y-40001D01*
X361269Y9481D02*
X365750Y5000D01*
X375250D01*
X245000Y129500D02*
X262500D01*
X35000Y291500D02*
X36000Y292500D01*
X150000Y272000D02*
X163621D01*
X164500Y271121D01*
Y250000D02*
Y271121D01*
X142500Y265000D02*
X143000D01*
X150000Y272000D01*
X142500Y222978D02*
X142521D01*
X152293Y232750D01*
X156750D01*
X160000Y236000D01*
X157500Y201912D02*
Y209682D01*
X167500Y219682D01*
X132500Y281750D02*
X135750Y285000D01*
X132500Y280000D02*
Y281750D01*
X130000Y277500D02*
X132500Y280000D01*
X109750Y277500D02*
X130000D01*
X167500Y194141D02*
X174142Y187500D01*
X167500Y194141D02*
Y201912D01*
X67750Y272500D02*
X70250D01*
X66750Y271499D02*
X67750Y272500D01*
X66750Y264125D02*
Y271499D01*
X187500Y201912D02*
Y233500D01*
X107250Y297499D02*
X107251Y297500D01*
X187500Y80269D02*
X189500Y78268D01*
Y75000D02*
Y78268D01*
X186000Y71499D02*
X189500Y75000D01*
X192500Y61500D02*
Y88088D01*
Y61500D02*
X194000Y60000D01*
X187500Y233500D02*
X189000Y235000D01*
X182500Y201912D02*
Y233500D01*
X181000Y235000D02*
X182500Y233500D01*
D87*
X203731Y-30648D02*
D03*
D88*
X68925Y130425D02*
X71000Y132500D01*
X68925Y129425D02*
Y130425D01*
Y122075D02*
X71000Y120000D01*
X68925Y122075D02*
Y123075D01*
X-31027Y147650D02*
X7303D01*
X14016Y140936D01*
X16647Y147286D02*
X17570D01*
X9933Y154000D02*
X16647Y147286D01*
X14016Y140936D02*
X14940D01*
X32801Y123075D02*
X68925D01*
X35431Y129425D02*
X68925D01*
X17570Y147286D02*
X35431Y129425D01*
X-37500Y154000D02*
X9933D01*
X14940Y140936D02*
X32801Y123075D01*
D89*
X-37500Y172500D02*
D03*
Y122500D02*
D03*
D90*
X0Y-0D02*
D03*
X305000Y305000D02*
D03*
Y-0D02*
D03*
X0Y305000D02*
D03*
D91*
X275000Y355000D02*
D03*
X275000Y330000D02*
D03*
X250000D02*
D03*
X250000Y355000D02*
D03*
X224999Y354080D02*
D03*
X225000Y330000D02*
D03*
X200000D02*
D03*
X200000Y354999D02*
D03*
X175000D02*
D03*
Y330000D02*
D03*
X150000D02*
D03*
Y354999D02*
D03*
X125000Y355000D02*
D03*
X100000Y330000D02*
D03*
Y354999D02*
D03*
X75000Y355000D02*
D03*
X75000Y330000D02*
D03*
X50000D02*
D03*
Y354999D02*
D03*
X25000Y355000D02*
D03*
Y330000D02*
D03*
X300000Y-42500D02*
D03*
X275000D02*
D03*
X250000D02*
D03*
X225000Y-42500D02*
D03*
X197500D02*
D03*
X175000D02*
D03*
X150000D02*
D03*
X125000D02*
D03*
X75000D02*
D03*
X50000D02*
D03*
X25000D02*
D03*
X125000Y330000D02*
D03*
X100000Y-42500D02*
D03*
D92*
X217500Y7500D02*
D03*
X210000Y20000D02*
D03*
X182294Y900D02*
D03*
X215000Y-7500D02*
D03*
X132500Y237500D02*
D03*
X243150Y200000D02*
D03*
X204600Y-17500D02*
D03*
X200000Y2200D02*
D03*
X175000Y-17500D02*
D03*
X377500Y132500D02*
D03*
X374855Y159145D02*
D03*
X320569Y117800D02*
D03*
X352500Y158250D02*
D03*
X55000Y212500D02*
D03*
X-17500Y185000D02*
D03*
X-12500Y167500D02*
D03*
X5000Y180000D02*
D03*
X-30000Y52500D02*
D03*
X77500Y243600D02*
D03*
X82500Y223400D02*
D03*
X100000D02*
D03*
X292500Y107500D02*
D03*
X280000Y274850D02*
D03*
X-27500Y-32500D02*
D03*
X207500Y282500D02*
D03*
X205000Y260000D02*
D03*
X105000Y205000D02*
D03*
X-7500Y102500D02*
D03*
X-40577Y97810D02*
D03*
X20000Y101400D02*
D03*
X76780Y189482D02*
D03*
X200802Y239398D02*
D03*
X200000Y219198D02*
D03*
X227135Y200730D02*
D03*
X245000Y-2500D02*
D03*
X36850Y214647D02*
D03*
X40000Y110000D02*
D03*
X125000Y117500D02*
D03*
X187537Y122143D02*
D03*
X187500Y167500D02*
D03*
X168919Y146419D02*
D03*
X172500Y165000D02*
D03*
X232500Y287500D02*
D03*
X365000Y40000D02*
D03*
X387500Y52500D02*
D03*
X177500Y307500D02*
D03*
X390000Y205000D02*
D03*
X395000Y190000D02*
D03*
X340000Y333257D02*
D03*
X352500Y315000D02*
D03*
X355531Y224169D02*
D03*
X352500Y206969D02*
D03*
X339496Y232052D02*
D03*
X355000Y241550D02*
D03*
X390000Y72500D02*
D03*
X352500Y192500D02*
D03*
X32500Y195000D02*
D03*
X42509Y180347D02*
D03*
X231588Y55912D02*
D03*
X22500Y167500D02*
D03*
X162500Y285000D02*
D03*
X169550Y50457D02*
D03*
X192650Y47980D02*
D03*
X-54043Y50621D02*
D03*
X60430Y95519D02*
D03*
X57824Y305153D02*
D03*
X350000Y72500D02*
D03*
X345000Y-25000D02*
D03*
Y-7500D02*
D03*
X342500Y-42500D02*
D03*
X350000Y52500D02*
D03*
X215000Y87500D02*
D03*
X32500Y-5000D02*
D03*
X-40000Y280000D02*
D03*
X15000Y265000D02*
D03*
X-7500Y267500D02*
D03*
X57331Y247331D02*
D03*
X36419Y238919D02*
D03*
X252500Y95000D02*
D03*
X312500Y135000D02*
D03*
X297669Y135169D02*
D03*
X340000Y120000D02*
D03*
X230000Y147500D02*
D03*
X72500Y145000D02*
D03*
X107500Y-10000D02*
D03*
X87500D02*
D03*
X67500Y175000D02*
D03*
X55000Y145000D02*
D03*
X187500Y287500D02*
D03*
M02*
