G04*
G04 #@! TF.GenerationSoftware,Altium Limited,Altium Designer,23.4.1 (23)*
G04*
G04 Layer_Physical_Order=6*
G04 Layer_Color=16711680*
%FSLAX44Y44*%
%MOMM*%
G71*
G04*
G04 #@! TF.SameCoordinates,9DE4E05F-C8E7-4F3F-A45E-6430895F1302*
G04*
G04*
G04 #@! TF.FilePolarity,Positive*
G04*
G01*
G75*
%ADD10C,0.1500*%
%ADD33R,1.5500X0.6000*%
%ADD34R,1.8000X1.2000*%
%ADD41R,0.7500X1.0000*%
%ADD42R,1.1000X2.0500*%
%ADD52R,0.7000X1.3000*%
%ADD53R,0.5000X0.4000*%
%ADD79C,0.7500*%
%ADD86C,1.4500*%
%ADD87C,0.9910*%
%ADD88C,4.0000*%
G04:AMPARAMS|DCode=89|XSize=1.524mm|YSize=2mm|CornerRadius=0.381mm|HoleSize=0mm|Usage=FLASHONLY|Rotation=0.000|XOffset=0mm|YOffset=0mm|HoleType=Round|Shape=RoundedRectangle|*
%AMROUNDEDRECTD89*
21,1,1.5240,1.2380,0,0,0.0*
21,1,0.7620,2.0000,0,0,0.0*
1,1,0.7620,0.3810,-0.6190*
1,1,0.7620,-0.3810,-0.6190*
1,1,0.7620,-0.3810,0.6190*
1,1,0.7620,0.3810,0.6190*
%
%ADD89ROUNDEDRECTD89*%
%ADD90C,1.2700*%
%ADD104C,0.1500*%
%ADD105R,1.3500X0.9500*%
%ADD106R,1.6800X0.8000*%
%ADD107R,1.3000X1.2900*%
%ADD108R,1.4000X1.2900*%
%ADD109R,1.5000X1.6000*%
%ADD110R,1.7000X1.5000*%
%ADD111R,1.5000X1.7000*%
%ADD112R,0.8500X0.7000*%
%ADD113R,1.0000X0.7500*%
%ADD114R,0.4000X0.5000*%
%ADD115R,1.4000X0.3800*%
%ADD116R,2.4000X1.9000*%
D10*
X231489Y296547D02*
G03*
X231488Y296793I-13140J77D01*
G01*
X227500Y293593D02*
G03*
X227967Y297279I-9151J3031D01*
G01*
X210308Y314236D02*
G03*
X214305Y310775I8067J5278D01*
G01*
X166373Y388319D02*
G03*
X168095Y389525I-2563J5491D01*
G01*
X182532Y314153D02*
G03*
X183838Y312887I7333J6257D01*
G01*
X441260Y47796D02*
G03*
X441030Y44042I9322J-2456D01*
G01*
X88250Y379691D02*
G03*
X88250Y370310I21750J-4690D01*
G01*
X84724Y379919D02*
G03*
X84750Y380196I-1474J277D01*
G01*
X268115Y435454D02*
G03*
X261650Y438150I-6465J-6405D01*
G01*
X150446Y60485D02*
G03*
X151283Y61233I-5990J7553D01*
G01*
X129076Y248491D02*
G03*
X126791Y245791I6090J-7473D01*
G01*
X235103Y171429D02*
G03*
X235084Y171429I0J-1500D01*
G01*
X317464Y304673D02*
G03*
X318330Y304252I1054J1067D01*
G01*
X436995Y34726D02*
G03*
X437024Y34761I-1145J969D01*
G01*
X437367Y35177D02*
G03*
X437253Y35050I1061J-1061D01*
G01*
X175000Y316788D02*
G03*
X174515Y319842I-9954J-18D01*
G01*
X167970Y330413D02*
G03*
X168729Y330208I758J1294D01*
G01*
X303037Y304896D02*
G03*
X302533Y304811I5161J-32130D01*
G01*
X400052Y348491D02*
G03*
X397614Y350672I-7552J-5991D01*
G01*
X150130Y393810D02*
G03*
X150403Y392013I6060J0D01*
G01*
D02*
G03*
X150456Y391849I5787J1797D01*
G01*
X125615Y164519D02*
G03*
X125598Y164535I-2483J-2467D01*
G01*
X396500Y351369D02*
G03*
X396233Y351631I-6500J-6369D01*
G01*
X319054Y272027D02*
G03*
X318999Y270978I9584J-1035D01*
G01*
X283541Y43669D02*
G03*
X291806Y45407I2349J9350D01*
G01*
X110936Y47770D02*
G03*
X120365Y50312I-936J22230D01*
G01*
X108551Y47797D02*
G03*
X110936Y47770I1449J22203D01*
G01*
X455024Y72297D02*
G03*
X454956Y72296I-24J-9640D01*
G01*
X84724Y379919D02*
G03*
X84750Y369950I25276J-4919D01*
G01*
X151911Y410481D02*
G03*
X150130Y406190I4279J-4291D01*
G01*
X121693Y163304D02*
G03*
X123132Y162052I8307J8096D01*
G01*
X198199Y294622D02*
X200056D01*
X229318Y212770D02*
X229500Y212770D01*
X226621Y223276D02*
X227061Y223716D01*
X230121Y212770D02*
X231000Y213649D01*
X227500Y304162D02*
X227966Y297279D01*
X231000Y213649D02*
X231489Y296547D01*
X230121Y339210D02*
X231000Y338331D01*
X231488Y296793D01*
X226621Y305041D02*
X227500Y304162D01*
X227061Y223716D02*
X227500Y224155D01*
X195194Y303176D02*
X198199Y294622D01*
X191463Y305263D02*
X194569Y303801D01*
X195194Y303176D01*
X229500Y212770D02*
X230121Y212770D01*
X227500Y224155D02*
Y293593D01*
X214305Y310775D02*
X226621Y305041D01*
X196832Y334831D02*
X210308Y314236D01*
X174290Y335710D02*
X195953D01*
X196832Y334831D01*
X520000Y215000D02*
Y350000D01*
X519250Y350750D02*
Y382000D01*
Y350750D02*
X520000Y350000D01*
X385000Y425000D02*
X516250D01*
X519250Y428000D01*
X132500Y170000D02*
X137500Y165000D01*
X132500Y170000D02*
Y172500D01*
X74200Y153550D02*
X76200D01*
X55957Y135307D02*
X74200Y153550D01*
X55957Y120621D02*
Y135307D01*
X519250Y188000D02*
Y214250D01*
X520000Y215000D01*
X74930Y83940D02*
X92474D01*
X106414Y70000D01*
X110000D01*
X183389Y377500D02*
X261133D01*
X177550Y370116D02*
Y371661D01*
X183389Y377500D01*
X154360Y355640D02*
Y382943D01*
X187602Y339210D02*
X230121D01*
X154360Y355640D02*
X174290Y335710D01*
X158148Y368664D02*
X187602Y339210D01*
X158148Y368664D02*
Y371913D01*
X168095Y389525D02*
X173130Y394560D01*
X157860Y381493D02*
X163209Y386842D01*
X173130Y394560D02*
X179560D01*
X163209Y386842D02*
X166373Y388319D01*
X129540Y438150D02*
X261650D01*
X157860Y372201D02*
Y381493D01*
X154360Y382943D02*
X160000Y388583D01*
Y400000D01*
X157860Y372201D02*
X158148Y371913D01*
X183838Y312887D02*
X184362Y312363D01*
X181422Y315304D02*
X182300Y314425D01*
X184362Y312363D02*
X191463Y305263D01*
X182300Y314425D02*
X182532Y314153D01*
X454982Y62656D02*
X466625D01*
X478250Y62250D02*
X480500Y60000D01*
X467031Y62250D02*
X478250D01*
X466625Y62656D02*
X467031Y62250D01*
X458210Y50000D02*
X480500D01*
X453700Y45490D02*
X458210Y50000D01*
X450670Y45490D02*
X453700D01*
X441260Y47797D02*
X442750Y71332D01*
X441260Y47796D02*
Y47797D01*
X437367Y35177D02*
X441030Y38840D01*
Y44042D02*
Y45720D01*
Y38840D02*
Y44042D01*
X422050Y23379D02*
X437277Y42174D01*
Y88422D01*
X261133Y377500D02*
X280773Y357860D01*
X295933D01*
X88250Y396860D02*
X129540Y438150D01*
X88250Y379691D02*
Y396860D01*
X84750Y398310D02*
X128090Y441650D01*
X84750Y380196D02*
Y398310D01*
X128090Y441650D02*
X273350D01*
X280019Y434981D01*
X77470Y138550D02*
X95551D01*
X107501Y150501D01*
X110001D01*
X74930Y98940D02*
X96941D01*
X107501Y109500D01*
X110001D01*
X198750Y103750D02*
X198750D01*
X209300D01*
X134750Y39750D02*
X198750Y103750D01*
X197500Y105000D02*
Y118110D01*
X204200Y123250D02*
X209300D01*
X201849Y120900D02*
X204200Y123250D01*
X200290Y120900D02*
X201849D01*
X197500Y118110D02*
X200290Y120900D01*
X128621Y43186D02*
X128630Y43186D01*
X88059Y40896D02*
X90348Y43186D01*
X128630Y43186D02*
X150446Y60485D01*
X69819Y35466D02*
Y43452D01*
X75466Y49099D01*
X90348Y43186D02*
X128621D01*
X151283Y61233D02*
X184879Y94847D01*
Y149911D01*
X206038Y171070D01*
X130375Y39750D02*
X134750D01*
X180586Y260355D02*
Y260745D01*
X168512Y250552D02*
X174924Y244140D01*
X180586Y260745D02*
X182884Y263043D01*
X174924Y244140D02*
X176224D01*
X126305Y244938D02*
X126791Y245791D01*
X125360Y237360D02*
Y243372D01*
X125360Y243993D02*
X126305Y244938D01*
X133344Y251977D02*
X155241D01*
X129076Y248491D02*
X133344Y251977D01*
X125360Y243372D02*
X125360Y243993D01*
X142616Y278235D02*
X164881Y255970D01*
Y239216D02*
Y255970D01*
X142616Y278235D02*
Y286053D01*
X141834Y286835D02*
X142616Y286053D01*
X400273Y348329D02*
X487500D01*
X352300Y202365D02*
X372505Y172504D01*
X372500Y153198D02*
X437277Y88422D01*
X372500Y153198D02*
Y172498D01*
X372505Y172504D01*
X140129Y61031D02*
X142508Y67370D01*
X145703Y68896D02*
Y85798D01*
X334876Y168742D02*
X361950D01*
X332164Y171453D02*
X334876Y168742D01*
X308121Y171453D02*
X332164D01*
X272500Y165000D02*
X275000Y167500D01*
X272500Y140000D02*
Y141250D01*
X330822Y129250D02*
Y166080D01*
X275000Y167500D02*
X329403D01*
X330822Y166080D01*
X261750Y129250D02*
X330822D01*
X239054Y178499D02*
X272206D01*
X238984Y178429D02*
X239054Y178499D01*
X272206D02*
X293586Y199879D01*
X239921Y174929D02*
X239945Y174953D01*
X235103Y171429D02*
X241370D01*
X306671Y174953D02*
X329664Y197946D01*
X241370Y171429D02*
X308121Y171453D01*
X239945Y174953D02*
X306671D01*
X204947Y174929D02*
X239921D01*
X329664Y197946D02*
X342435Y207586D01*
X206038Y171070D02*
X235084Y171429D01*
X319372Y195104D02*
X335125Y207533D01*
X203638Y178429D02*
X238984D01*
X308899Y195104D02*
X319372D01*
X293586Y199879D02*
X304124D01*
X181379Y151360D02*
X204947Y174929D01*
X304124Y199879D02*
X308899Y195104D01*
X203568Y178499D02*
X203638Y178429D01*
X180586Y259414D02*
Y260355D01*
Y261620D01*
X88250Y370310D02*
X88358Y287500D01*
X88250Y274306D02*
X113097Y249460D01*
X88250Y274306D02*
Y287500D01*
X84750Y270921D02*
Y369950D01*
Y270921D02*
X91032Y264640D01*
X97500Y237500D02*
Y258633D01*
X91493Y264640D02*
X97500Y258633D01*
X91032Y264640D02*
X91493D01*
X118000Y172107D02*
Y230000D01*
X122805Y246388D02*
Y255524D01*
X121860Y244590D02*
Y245443D01*
X114500Y170684D02*
Y237230D01*
X121860Y244590D01*
X118000Y230000D02*
X125360Y237360D01*
X121860Y245443D02*
X122805Y246388D01*
X151940Y209521D02*
Y226275D01*
X164881Y239216D01*
X313339Y224582D02*
Y259713D01*
X311717Y261335D02*
Y291837D01*
Y261335D02*
X313339Y259713D01*
X288697Y199939D02*
X313339Y224582D01*
X306818Y224318D02*
Y232813D01*
X163910Y202500D02*
X285000D01*
X306818Y224318D01*
Y232813D02*
X309839Y235834D01*
Y243820D01*
X304754Y248906D02*
X309839Y243820D01*
X304754Y248906D02*
Y275246D01*
X307724Y301477D02*
X315711D01*
X321357Y295830D01*
Y287844D02*
Y295830D01*
X319054Y272027D02*
X320011Y280727D01*
Y286497D02*
X321357Y287844D01*
X302078Y295830D02*
X307724Y301477D01*
X302078Y277922D02*
X304754Y275246D01*
X302078Y277922D02*
Y295830D01*
X317160Y304977D02*
X317458Y304679D01*
X302743Y304602D02*
X303037Y304896D01*
X318330Y304252D02*
X318336Y304251D01*
X272860Y274719D02*
X302743Y304602D01*
X306275Y304977D02*
X317160D01*
X303037Y304896D02*
X306194D01*
X320011Y280727D02*
Y286497D01*
X315575Y314617D02*
X325557Y324598D01*
X306194Y304896D02*
X306275Y304977D01*
X318336Y304251D02*
X337658Y301891D01*
X317458Y304679D02*
X317464Y304673D01*
X319039Y251954D02*
X349383Y221611D01*
X342435Y207586D02*
X342826Y207978D01*
X343736D01*
X349383Y213625D01*
Y221611D01*
X352883Y212175D02*
Y223060D01*
X350000Y225944D02*
X352883Y223060D01*
X352300Y202365D02*
Y211592D01*
X352883Y212175D01*
X350000Y225944D02*
Y232500D01*
X357594Y202594D02*
X442750Y117437D01*
X354750Y226143D02*
X357594Y223300D01*
X354750Y226143D02*
Y246434D01*
X357594Y202594D02*
Y223300D01*
X361750Y204007D02*
Y224618D01*
X358250Y228118D02*
X361750Y224618D01*
Y204007D02*
X446250Y119507D01*
Y118887D02*
Y119507D01*
X363068Y251750D02*
X364750Y253250D01*
X364750Y227650D02*
X371500Y220900D01*
X358250Y228118D02*
Y247884D01*
X361750Y229568D02*
X363068Y228250D01*
X361750Y229568D02*
Y250432D01*
X363068Y228250D02*
X364750Y227650D01*
X364750Y253250D02*
X370200Y256500D01*
X319039Y251954D02*
Y253069D01*
X318999Y270978D02*
X319039Y253069D01*
X358113Y248021D02*
X358250Y247884D01*
X437024Y34761D02*
X437253Y35050D01*
X357220Y250543D02*
X358113Y249650D01*
X426172Y21929D02*
X436995Y34726D01*
X358113Y248021D02*
Y249650D01*
X335277Y207686D02*
X335494Y207931D01*
X339743Y217618D01*
X352350Y248834D02*
X354750Y246434D01*
X352350Y248834D02*
Y265311D01*
X361750Y250432D02*
X363068Y251750D01*
X357220Y250543D02*
Y279658D01*
X335853Y278150D02*
X338332D01*
X336731Y245769D02*
Y277271D01*
Y245769D02*
X350000Y232500D01*
X335650Y278150D02*
X335853D01*
X352902Y279658D02*
X357220D01*
X350364Y282196D02*
X352902Y279658D01*
X342378Y282196D02*
X350364D01*
X338332Y278150D02*
X342378Y282196D01*
X140625Y90875D02*
X145703Y85798D01*
X80896Y40896D02*
X88059D01*
X79459Y39459D02*
X80896Y40896D01*
X70879Y25000D02*
X86877D01*
X70000Y25879D02*
X70879Y25000D01*
X70000Y25879D02*
Y35284D01*
X69819Y35466D02*
X70000Y35284D01*
X130311Y39686D02*
X130375Y39750D01*
X101563Y39686D02*
X130311D01*
X86877Y25000D02*
X101563Y39686D01*
X79893Y49089D02*
Y49099D01*
Y49089D02*
X108551Y47797D01*
X75466Y49099D02*
X79893D01*
X117500Y260829D02*
X122805Y255524D01*
X118000Y172107D02*
X124055Y165894D01*
X120000Y297500D02*
X147162D01*
X147162Y297500D01*
X117500Y295000D02*
X120000Y297500D01*
X117500Y260829D02*
Y295000D01*
X168512Y250552D02*
Y265867D01*
X152135Y282245D02*
X168512Y265867D01*
X147162Y297500D02*
X152135Y292528D01*
Y282245D02*
Y292528D01*
X155440Y210971D02*
X163910Y202500D01*
X162461Y199000D02*
X286450D01*
X151940Y209521D02*
X162461Y199000D01*
X155440Y210971D02*
Y218957D01*
X164092Y227609D01*
X190109D01*
X286450Y199000D02*
X288697Y199939D01*
X180586Y259414D02*
X195000Y245000D01*
Y232500D02*
Y245000D01*
X190109Y227609D02*
X195000Y232500D01*
X166994Y283260D02*
X167546Y282707D01*
Y274660D02*
Y282707D01*
Y274660D02*
X180586Y261620D01*
X163211Y326708D02*
X169140D01*
X143833Y346086D02*
X163211Y326708D01*
X169140D02*
X174515Y321334D01*
Y319842D02*
Y321334D01*
Y319842D02*
Y319842D01*
X178770Y317955D02*
X181422Y315304D01*
X170636Y330208D02*
X178770Y322073D01*
Y317955D02*
Y322073D01*
X164067Y332700D02*
X167970Y330413D01*
X168729Y330208D02*
X170636D01*
X144870Y408390D02*
X160000Y423520D01*
X143833Y346086D02*
Y387962D01*
X144870Y388999D02*
Y408390D01*
X143833Y387962D02*
X144870Y388999D01*
X160000Y423520D02*
Y424999D01*
X179560Y394560D02*
X185000Y400000D01*
X376800Y267500D02*
X381550Y262750D01*
X381732D02*
X427140Y217342D01*
X372400Y267500D02*
X376800D01*
X381550Y262750D02*
X381732D01*
X427140Y204901D02*
Y217342D01*
X381732Y284750D02*
X436780Y229702D01*
X376800Y289500D02*
X381550Y284750D01*
X436780Y180095D02*
Y229702D01*
X434610Y177925D02*
X436780Y180095D01*
X434610Y174894D02*
Y177925D01*
X381550Y284750D02*
X381732D01*
X372400Y289500D02*
X376800D01*
X381732Y295750D02*
X451738Y225744D01*
X376800Y300500D02*
X381550Y295750D01*
X451738Y190055D02*
Y225744D01*
X452150Y189643D02*
X452150Y189643D01*
X451738Y190055D02*
X452150Y189643D01*
X381550Y295750D02*
X381732D01*
X372400Y300500D02*
X376800D01*
X345648Y59391D02*
Y103868D01*
X344769Y104747D02*
X345648Y103868D01*
X265997Y104747D02*
X344769D01*
X377500Y70000D02*
Y105000D01*
X342361Y34861D02*
X377500Y70000D01*
X373630Y108870D02*
X377500Y105000D01*
X273130Y108870D02*
X373630D01*
X265000Y116250D02*
X265750D01*
X273130Y108870D01*
X335000Y27500D02*
Y28224D01*
X341637Y34861D01*
X342361D01*
X265000Y103750D02*
X265997Y104747D01*
X315640Y51615D02*
X317095Y50160D01*
X336418D01*
X345648Y59391D01*
X312383Y93750D02*
X320653Y85480D01*
X322140Y70085D02*
Y83993D01*
X320653Y85480D02*
X322140Y83993D01*
Y70085D02*
X332425Y59800D01*
X264069Y93750D02*
X312383D01*
X259318Y98500D02*
X264069Y93750D01*
X230000Y98500D02*
X259318D01*
X478250Y152750D02*
X480500Y155000D01*
X470250Y152750D02*
X478250D01*
X460000Y142500D02*
X470250Y152750D01*
X436890Y142500D02*
X460000D01*
X401890Y177500D02*
X436890Y142500D01*
X371500Y220400D02*
X378250Y213650D01*
Y207568D02*
Y213650D01*
Y207568D02*
X399747Y186071D01*
Y179643D02*
Y186071D01*
Y179643D02*
X401890Y177500D01*
X335125Y207533D02*
X335277Y207686D01*
X272860Y234326D02*
X278537Y228649D01*
X272860Y234326D02*
Y274098D01*
X272860Y274719D01*
X278178Y215961D02*
X278537Y227406D01*
X302533Y304811D02*
Y325033D01*
X278537Y227406D02*
Y228649D01*
X268115Y435454D02*
X272756Y430814D01*
X315526Y148183D02*
X320986Y157774D01*
X279653Y132750D02*
X315075Y147657D01*
X315283Y147865D01*
X315426Y148008D02*
X315526Y148183D01*
X315283Y147865D02*
X315426Y148008D01*
X232628Y132750D02*
X279653D01*
X230000Y134000D02*
X231250Y132750D01*
X232628D01*
X232628Y132750D01*
X272500Y140000D02*
X272500Y140000D01*
Y154999D01*
Y165000D01*
X372400Y245500D02*
X384500D01*
X417500Y212500D01*
Y190000D02*
Y212500D01*
X173392Y223276D02*
X226621D01*
X165080Y214964D02*
X173392Y223276D01*
X183501Y213636D02*
X229318Y212770D01*
X165080Y214964D02*
X168067Y214542D01*
X302533Y325033D02*
X312500Y335000D01*
X479902Y324598D02*
X482500Y322000D01*
X359599Y324598D02*
X479902D01*
X325557D02*
X359599D01*
X360000Y325000D02*
Y400000D01*
X359599Y324598D02*
X360000Y325000D01*
X482500Y263917D02*
Y322000D01*
X497140Y196945D02*
Y249277D01*
X482500Y263917D02*
X497140Y249277D01*
X487500Y263867D02*
X500640Y250727D01*
X487500Y263867D02*
Y348329D01*
X485250Y165000D02*
X500640Y180390D01*
X480500Y180305D02*
X497140Y196945D01*
X480500Y175000D02*
Y180305D01*
X500640Y180390D02*
Y250727D01*
X480500Y165000D02*
X485250D01*
X341019Y301480D02*
X341385Y301115D01*
X345353Y297147D01*
X337658Y301891D02*
X337896Y301862D01*
X341019Y301480D01*
X345353Y297147D02*
X360409Y282091D01*
X364212Y281750D02*
X369150D01*
X372400Y278500D01*
X363871Y282091D02*
X364212Y281750D01*
X360409Y282091D02*
X363871D01*
X175000Y300303D02*
X175000Y316788D01*
X147333Y351217D02*
X147488Y349688D01*
X163765Y332933D02*
X164067Y332700D01*
X147488Y349688D02*
X147920Y348779D01*
X163765Y332933D01*
X181422Y315304D02*
X181422D01*
X181422Y315304D02*
X181422Y315304D01*
X147333Y354837D02*
X148235Y361667D01*
X147333Y351217D02*
Y354837D01*
X148235Y361667D02*
X150456Y389636D01*
X346371Y272556D02*
X352350Y265311D01*
X452500Y379613D02*
Y402500D01*
Y379613D02*
X453964Y378149D01*
X468172Y393323D02*
Y393784D01*
Y393323D02*
X470256Y391239D01*
X463908Y398048D02*
Y401079D01*
Y398048D02*
X468172Y393784D01*
X471990Y391239D02*
X475750Y395000D01*
X480500D01*
X470256Y391239D02*
X471990D01*
X335853Y278150D02*
X336731Y277271D01*
X444529Y28707D02*
X473500Y37750D01*
X480500Y40000D01*
X417500Y190000D02*
X417500Y190000D01*
X120397Y50328D02*
X139529Y60431D01*
X140129Y61031D01*
X335000Y27500D02*
X340440Y22060D01*
X346870D02*
X358930Y10000D01*
X150456Y389636D02*
Y391849D01*
X363810Y418810D02*
X367520Y416000D01*
X360000Y425000D02*
X363810Y418810D01*
X397607Y350676D02*
X397614Y350672D01*
X367520Y416000D02*
X373500Y410020D01*
X370000Y354750D02*
X371500Y347000D01*
X373500Y410020D02*
X375130Y407683D01*
Y358628D02*
Y407683D01*
X396500Y351369D02*
X397607Y350676D01*
X124581Y165552D02*
X125586Y164548D01*
X125624Y164509D02*
X127751Y162382D01*
X125615Y164519D02*
X125624Y164509D01*
X125586Y164548D02*
X125598Y164535D01*
X345000Y355000D02*
X347500D01*
X335000Y365000D02*
X345000Y355000D01*
X371500Y347000D02*
X378250Y342500D01*
X392500D01*
X276249Y45500D02*
X283541Y43669D01*
X291806Y45407D02*
X299000Y51000D01*
X302500Y53750D01*
X271499Y55000D02*
X276249Y45500D01*
X328639Y270992D02*
X335180Y277680D01*
X335650Y278150D01*
X124398Y165552D02*
X124581D01*
X127751Y147817D02*
X139318Y136250D01*
X124055Y165894D02*
X124398Y165552D01*
X127751Y147817D02*
Y162382D01*
X418871Y15250D02*
X423243Y19000D01*
X397250Y15250D02*
X418871D01*
X421172Y22500D02*
X422050Y23379D01*
X423243Y19000D02*
X426172Y21929D01*
X415000Y22500D02*
X421172D01*
X442750Y71332D02*
Y72500D01*
X444871Y72250D02*
X454956Y72296D01*
X455024Y72296D02*
X473500Y72250D01*
X480500Y70000D01*
X443000Y72250D02*
X444871D01*
X442750Y72500D02*
X443000Y72250D01*
X124251Y140069D02*
X134570Y129750D01*
X155700D01*
X124251Y140069D02*
Y160933D01*
X119838Y124345D02*
Y143163D01*
X110001Y150501D02*
X112501D01*
X119838Y143163D01*
Y124345D02*
X124251Y119932D01*
X272756Y414625D02*
Y430814D01*
X154179Y412749D02*
X166320D01*
X150130Y393810D02*
Y406190D01*
X151911Y410481D02*
X154179Y412749D01*
X168611Y142750D02*
X169490Y143629D01*
X177879Y152810D01*
X155700Y123250D02*
X161950Y124400D01*
X177879Y152810D02*
X203568Y178499D01*
X163632Y125600D02*
X164950Y126918D01*
X161950Y124400D02*
X163632Y125600D01*
X164950Y126918D02*
X181379Y151360D01*
X155700Y142750D02*
X168611D01*
X258500Y126000D02*
X261750Y129250D01*
X446611Y118305D02*
X473500Y91416D01*
Y82250D02*
X480500Y80000D01*
X473500Y82250D02*
Y91416D01*
X446250Y118887D02*
X446250Y118666D01*
X446611Y118305D01*
X469371Y10000D02*
X473500Y14129D01*
X358930Y10000D02*
X469371D01*
X385000Y26776D02*
Y27500D01*
X391637Y20139D02*
X392361D01*
X385000Y26776D02*
X391637Y20139D01*
X392361D02*
X397250Y15250D01*
X120365Y50312D02*
X120397Y50328D01*
X454490Y404490D02*
Y411990D01*
X452500Y402500D02*
X454490Y404490D01*
X389750Y357750D02*
X396233Y351631D01*
X376008Y357750D02*
X389750D01*
X385000Y425000D02*
Y428570D01*
X211800Y110250D02*
X221994D01*
X123132Y162052D02*
X124251Y160933D01*
X114500Y170684D02*
X121693Y163304D01*
X335000Y365000D02*
Y400000D01*
X480500Y116662D02*
Y125000D01*
X475000Y111162D02*
X480500Y116662D01*
X475000Y110000D02*
Y111162D01*
X480500Y135000D02*
X485250D01*
X497500Y122750D01*
Y122500D02*
Y122750D01*
X454490Y411990D02*
X457500Y415000D01*
X480500D01*
Y145000D02*
X482750Y142750D01*
X499750D01*
X500000Y142500D01*
X280019Y429980D02*
X285000Y424999D01*
X280019Y429980D02*
Y434981D01*
X263750Y115000D02*
X265000Y116250D01*
X53814Y122764D02*
X55957Y120621D01*
X480500Y155000D02*
X519250D01*
Y188000D01*
Y112000D02*
Y155000D01*
X375130Y358628D02*
X376008Y357750D01*
X519250Y93000D02*
Y112000D01*
Y93000D02*
X519250Y93000D01*
X230000Y126000D02*
X258500D01*
X197500Y105000D02*
X198750Y103750D01*
X110000Y70000D02*
Y72500D01*
X138750Y97750D02*
X140000Y99000D01*
X135250Y97750D02*
X138750D01*
X110000Y72500D02*
X135250Y97750D01*
X140625Y90875D02*
X155575D01*
X271499Y55000D02*
Y77499D01*
X519250Y17000D02*
Y93000D01*
X480500Y405000D02*
X493250D01*
X516250Y382000D01*
X519250D01*
Y428000D01*
X139318Y136250D02*
X155700D01*
X442750Y72500D02*
Y117437D01*
X473500Y14129D02*
Y27750D01*
X475750Y30000D02*
X480500D01*
X473500Y27750D02*
X475750Y30000D01*
X340440Y22060D02*
X346870D01*
X410000Y27500D02*
X415000Y22500D01*
X272756Y414625D02*
X285000Y402380D01*
Y400000D02*
Y402380D01*
X166320Y412749D02*
X173131Y419560D01*
X179560D02*
X185000Y425000D01*
X173131Y419560D02*
X179560D01*
X210000Y27500D02*
Y28224D01*
X203363Y34861D02*
X210000Y28224D01*
X202639Y34861D02*
X203363D01*
X185000Y26776D02*
X191637Y20139D01*
X185000Y26776D02*
Y27500D01*
X191637Y20139D02*
X192361D01*
X143250Y149250D02*
X158200D01*
X124251Y111129D02*
Y119932D01*
Y111129D02*
X125130Y110250D01*
X155700D01*
X115751Y103750D02*
X155700D01*
X110001Y109500D02*
X115751Y103750D01*
X142251Y97250D02*
X155700D01*
X140500Y99000D02*
X142251Y97250D01*
X140000Y99000D02*
X140500D01*
X155575Y90875D02*
X155700Y90750D01*
X302500Y41250D02*
X303250D01*
X306000Y38500D01*
Y29000D02*
Y38500D01*
Y29000D02*
X307500Y27500D01*
X211800Y90750D02*
X216901D01*
X219251Y88400D01*
X219733D01*
X230069Y90750D02*
X245249D01*
X247999Y85000D02*
Y88000D01*
X245249Y90750D02*
X247999Y88000D01*
X266999Y82000D02*
X271499Y77499D01*
X266999Y82000D02*
Y85000D01*
X219733Y88400D02*
X238500Y69632D01*
Y55000D02*
Y69632D01*
X211800Y129750D02*
X225250D01*
X229500Y134000D02*
X230000D01*
X254751Y142750D02*
X257500Y140000D01*
X211800Y136250D02*
X227251D01*
X211800Y142750D02*
X254751D01*
X225250Y129750D02*
X229500Y134000D01*
X227251Y136250D02*
X229500Y134000D01*
X211800Y149250D02*
X253000D01*
X257500Y153750D01*
Y154999D01*
X137500Y150000D02*
X142500D01*
X143250Y149250D01*
X211800Y97249D02*
X223570D01*
X262250Y106500D02*
X265000Y103750D01*
X230000Y106500D02*
X262250D01*
X221200Y123250D02*
X223950Y126000D01*
X230000D01*
X249000Y115000D02*
X263750D01*
X211800Y123250D02*
X221200D01*
X239750Y116750D02*
X241000Y115499D01*
X211800Y116750D02*
X239750D01*
X241000Y115000D02*
Y115499D01*
X225743Y106500D02*
X230000D01*
X221994Y110250D02*
X225743Y106500D01*
X223570Y97249D02*
X230069Y90750D01*
X158075Y90875D02*
X158200Y90750D01*
D33*
X480500Y30000D02*
D03*
Y40000D02*
D03*
Y50000D02*
D03*
Y70000D02*
D03*
Y80000D02*
D03*
Y60000D02*
D03*
X480500Y415000D02*
D03*
Y395000D02*
D03*
Y405000D02*
D03*
Y125000D02*
D03*
Y135000D02*
D03*
Y145000D02*
D03*
Y165000D02*
D03*
Y175000D02*
D03*
Y155000D02*
D03*
D34*
X519250Y17000D02*
D03*
Y93000D02*
D03*
X519250Y382000D02*
D03*
Y428000D02*
D03*
Y112000D02*
D03*
Y188000D02*
D03*
D41*
X257500Y154999D02*
D03*
X272500D02*
D03*
X257500Y140000D02*
D03*
X272500D02*
D03*
D42*
X238500Y55000D02*
D03*
X271499D02*
D03*
D52*
X247999Y85000D02*
D03*
X266999D02*
D03*
D53*
X230000Y126000D02*
D03*
Y134000D02*
D03*
X230000Y98500D02*
D03*
Y106500D02*
D03*
X140000Y91000D02*
D03*
Y99000D02*
D03*
D79*
X40000Y155000D02*
D03*
D86*
X41440Y193440D02*
D03*
Y243440D02*
D03*
D87*
X49022Y92456D02*
D03*
X38862Y41656D02*
D03*
X28702Y92456D02*
D03*
D88*
X110000Y70000D02*
D03*
X415000Y375000D02*
D03*
Y70000D02*
D03*
X110000Y375000D02*
D03*
D89*
X385000Y425000D02*
D03*
X385000Y400000D02*
D03*
X360000D02*
D03*
X360000Y425000D02*
D03*
X334999Y424080D02*
D03*
X335000Y400000D02*
D03*
X310000D02*
D03*
X310000Y424999D02*
D03*
X285000D02*
D03*
Y400000D02*
D03*
X260000D02*
D03*
Y424999D02*
D03*
X235000Y425000D02*
D03*
X210000Y400000D02*
D03*
Y424999D02*
D03*
X185000Y425000D02*
D03*
X185000Y400000D02*
D03*
X160000D02*
D03*
Y424999D02*
D03*
X135000Y425000D02*
D03*
Y400000D02*
D03*
X410000Y27500D02*
D03*
X385000D02*
D03*
X360000D02*
D03*
X335000Y27500D02*
D03*
X307500D02*
D03*
X285000D02*
D03*
X260000D02*
D03*
X235000D02*
D03*
X185000D02*
D03*
X160000D02*
D03*
X135000D02*
D03*
X235000Y400000D02*
D03*
X210000Y27500D02*
D03*
D90*
X242570Y354330D02*
D03*
X257380Y367411D02*
D03*
X200056Y294622D02*
D03*
X218349Y296624D02*
D03*
X242471Y307860D02*
D03*
X218374Y319514D02*
D03*
X288290Y381000D02*
D03*
X59690Y365760D02*
D03*
X177550Y370116D02*
D03*
X176224Y244140D02*
D03*
X182884Y263043D02*
D03*
X135167Y241018D02*
D03*
X378460Y50800D02*
D03*
X73660Y353060D02*
D03*
X53340Y347980D02*
D03*
X110490Y26670D02*
D03*
X39370Y107950D02*
D03*
X442500Y310000D02*
D03*
X461017Y311896D02*
D03*
X140000Y265000D02*
D03*
X270000Y355000D02*
D03*
X295933Y357860D02*
D03*
X315000Y355000D02*
D03*
X144456Y68039D02*
D03*
X113097Y249460D02*
D03*
X315575Y314617D02*
D03*
X165080Y214964D02*
D03*
X331780Y77488D02*
D03*
X339743Y217618D02*
D03*
X278178Y215961D02*
D03*
X285889Y53840D02*
D03*
X297260Y67974D02*
D03*
X434610Y174894D02*
D03*
X344553Y125000D02*
D03*
X427140Y204901D02*
D03*
X330000Y95107D02*
D03*
X466594Y230983D02*
D03*
X183501Y213636D02*
D03*
X346371Y272556D02*
D03*
X297644Y190239D02*
D03*
X454982Y62656D02*
D03*
X450670Y45490D02*
D03*
X487500Y202500D02*
D03*
X141834Y286835D02*
D03*
X311717Y291837D02*
D03*
X140360Y317487D02*
D03*
X150000Y180000D02*
D03*
X132500Y172500D02*
D03*
X79459Y39459D02*
D03*
X315640Y51615D02*
D03*
X453964Y378149D02*
D03*
X463908Y401079D02*
D03*
X444529Y28707D02*
D03*
X278140Y119610D02*
D03*
X304267Y118510D02*
D03*
X320986Y157774D02*
D03*
X361950Y168742D02*
D03*
X417500Y190000D02*
D03*
X76725Y120105D02*
D03*
X172500Y167500D02*
D03*
X361816Y69317D02*
D03*
X401890Y177500D02*
D03*
X312500Y80000D02*
D03*
X332425Y59800D02*
D03*
X166994Y283260D02*
D03*
X180776Y297740D02*
D03*
X155241Y251977D02*
D03*
X87500Y255000D02*
D03*
X125000Y337500D02*
D03*
X260000Y250000D02*
D03*
X300199Y239827D02*
D03*
X282500Y240000D02*
D03*
X312500Y335000D02*
D03*
X347500Y355000D02*
D03*
X392500Y342500D02*
D03*
X452150Y189643D02*
D03*
X328639Y270992D02*
D03*
X234991Y188069D02*
D03*
X102500Y172500D02*
D03*
X67225Y167696D02*
D03*
X485000Y230000D02*
D03*
X463860Y257797D02*
D03*
X460015Y275075D02*
D03*
X505000Y260000D02*
D03*
X464873Y294621D02*
D03*
X497500Y277500D02*
D03*
X462484Y122516D02*
D03*
X97500Y237500D02*
D03*
X475000Y110000D02*
D03*
X497500Y122500D02*
D03*
X500000Y142500D02*
D03*
X55957Y120621D02*
D03*
X460000Y142500D02*
D03*
X102500Y337500D02*
D03*
X217500Y60000D02*
D03*
X197500D02*
D03*
D104*
X315283Y147865D02*
D03*
D105*
X74930Y83940D02*
D03*
Y98940D02*
D03*
X76200Y153550D02*
D03*
Y138550D02*
D03*
D106*
X372400Y311500D02*
D03*
Y300500D02*
D03*
Y289500D02*
D03*
Y278500D02*
D03*
Y267500D02*
D03*
Y245500D02*
D03*
Y234500D02*
D03*
Y256500D02*
D03*
D107*
X388000Y213950D02*
D03*
D108*
X462000D02*
D03*
D109*
X371500Y220400D02*
D03*
D110*
X520000Y215000D02*
D03*
Y350000D02*
D03*
D111*
X371500Y347000D02*
D03*
D112*
X265000Y116250D02*
D03*
Y103750D02*
D03*
X302500Y53750D02*
D03*
Y41250D02*
D03*
D113*
X137500Y150000D02*
D03*
Y165000D02*
D03*
D114*
X241000Y115000D02*
D03*
X249000D02*
D03*
D115*
X209300Y110250D02*
D03*
Y136250D02*
D03*
Y129750D02*
D03*
X155700Y77750D02*
D03*
Y84250D02*
D03*
Y155750D02*
D03*
Y162250D02*
D03*
X209300D02*
D03*
Y155750D02*
D03*
Y84250D02*
D03*
Y77750D02*
D03*
Y90750D02*
D03*
Y97250D02*
D03*
Y103750D02*
D03*
Y116750D02*
D03*
Y123250D02*
D03*
Y142750D02*
D03*
Y149250D02*
D03*
X155700D02*
D03*
Y142750D02*
D03*
Y136250D02*
D03*
Y129750D02*
D03*
Y123250D02*
D03*
Y116750D02*
D03*
Y110250D02*
D03*
Y103750D02*
D03*
Y97250D02*
D03*
Y90750D02*
D03*
D116*
X110001Y109500D02*
D03*
Y150501D02*
D03*
M02*
