G04*
G04 #@! TF.GenerationSoftware,Altium Limited,Altium Designer,23.4.1 (23)*
G04*
G04 Layer_Color=65535*
%FSLAX44Y44*%
%MOMM*%
G71*
G04*
G04 #@! TF.SameCoordinates,59331B5B-431F-49C6-BA55-5F8B3CDCC9CF*
G04*
G04*
G04 #@! TF.FilePolarity,Positive*
G04*
G01*
G75*
%ADD10C,0.2500*%
%ADD11C,0.5000*%
%ADD12C,0.2000*%
G36*
X364887Y183343D02*
X357274D01*
X357281Y183336D01*
X357295Y183322D01*
X357317Y183301D01*
X357345Y183266D01*
X357380Y183223D01*
X357429Y183167D01*
X357478Y183104D01*
X357535Y183041D01*
X357591Y182956D01*
X357661Y182872D01*
X357725Y182780D01*
X357802Y182682D01*
X357872Y182569D01*
X357950Y182457D01*
X358105Y182203D01*
X358112Y182196D01*
X358126Y182175D01*
X358147Y182133D01*
X358168Y182084D01*
X358203Y182027D01*
X358245Y181957D01*
X358288Y181873D01*
X358337Y181788D01*
X358435Y181591D01*
X358534Y181380D01*
X358632Y181162D01*
X358717Y180951D01*
X357563D01*
X357556Y180965D01*
X357542Y180993D01*
X357514Y181049D01*
X357478Y181120D01*
X357436Y181204D01*
X357380Y181310D01*
X357317Y181422D01*
X357246Y181542D01*
X357162Y181676D01*
X357077Y181816D01*
X356880Y182112D01*
X356662Y182414D01*
X356423Y182703D01*
X356416Y182710D01*
X356395Y182738D01*
X356360Y182773D01*
X356311Y182822D01*
X356247Y182886D01*
X356177Y182956D01*
X356092Y183034D01*
X356008Y183118D01*
X355909Y183202D01*
X355804Y183294D01*
X355586Y183470D01*
X355354Y183632D01*
X355234Y183702D01*
X355114Y183765D01*
Y184539D01*
X364887D01*
Y183343D01*
D02*
G37*
G36*
Y177792D02*
X361418Y175336D01*
X361404Y175329D01*
X361369Y175301D01*
X361306Y175259D01*
X361236Y175210D01*
X361144Y175146D01*
X361046Y175083D01*
X360827Y174935D01*
X360835D01*
X360849Y174921D01*
X360877Y174907D01*
X360905Y174886D01*
X360996Y174830D01*
X361095Y174759D01*
X361214Y174682D01*
X361327Y174612D01*
X361433Y174541D01*
X361517Y174478D01*
X364887Y172008D01*
Y170461D01*
X359842Y174225D01*
X355150Y170904D01*
Y172445D01*
X357640Y174218D01*
X357647Y174225D01*
X357675Y174239D01*
X357718Y174274D01*
X357767Y174309D01*
X357830Y174351D01*
X357908Y174408D01*
X357992Y174464D01*
X358077Y174527D01*
X358274Y174654D01*
X358470Y174781D01*
X358660Y174900D01*
X358752Y174956D01*
X358836Y174999D01*
X358829Y175006D01*
X358815Y175013D01*
X358787Y175034D01*
X358745Y175055D01*
X358703Y175090D01*
X358646Y175125D01*
X358576Y175168D01*
X358506Y175217D01*
X358344Y175329D01*
X358161Y175456D01*
X357957Y175604D01*
X357746Y175766D01*
X355150Y177715D01*
Y179122D01*
X359779Y175744D01*
X364887Y179389D01*
Y177792D01*
D02*
G37*
G36*
X239932Y376512D02*
X234310D01*
X234296D01*
X234254D01*
X234191D01*
X234106Y376505D01*
X234001D01*
X233881Y376498D01*
X233748Y376491D01*
X233600Y376484D01*
X233452Y376470D01*
X233297Y376455D01*
X232988Y376413D01*
X232840Y376385D01*
X232692Y376357D01*
X232558Y376322D01*
X232439Y376280D01*
X232432D01*
X232411Y376266D01*
X232383Y376251D01*
X232340Y376230D01*
X232291Y376209D01*
X232235Y376174D01*
X232101Y376090D01*
X231953Y375977D01*
X231876Y375914D01*
X231799Y375836D01*
X231721Y375759D01*
X231651Y375667D01*
X231581Y375576D01*
X231517Y375471D01*
Y375463D01*
X231503Y375442D01*
X231489Y375414D01*
X231468Y375365D01*
X231440Y375309D01*
X231412Y375245D01*
X231383Y375168D01*
X231355Y375076D01*
X231327Y374978D01*
X231299Y374873D01*
X231271Y374760D01*
X231243Y374633D01*
X231222Y374500D01*
X231208Y374359D01*
X231201Y374218D01*
X231194Y374063D01*
Y374000D01*
X231201Y373930D01*
Y373831D01*
X231215Y373712D01*
X231229Y373585D01*
X231250Y373437D01*
X231271Y373275D01*
X231306Y373114D01*
X231348Y372945D01*
X231405Y372776D01*
X231461Y372607D01*
X231538Y372445D01*
X231623Y372297D01*
X231721Y372157D01*
X231834Y372037D01*
X231841Y372030D01*
X231862Y372009D01*
X231904Y371981D01*
X231960Y371946D01*
X232038Y371896D01*
X232136Y371847D01*
X232249Y371791D01*
X232390Y371735D01*
X232544Y371678D01*
X232720Y371622D01*
X232924Y371573D01*
X233150Y371523D01*
X233403Y371488D01*
X233677Y371460D01*
X233980Y371439D01*
X234310Y371432D01*
X239932D01*
Y370144D01*
X234303D01*
X234296D01*
X234289D01*
X234268D01*
X234240D01*
X234205D01*
X234163D01*
X234064Y370151D01*
X233937D01*
X233797Y370159D01*
X233635Y370173D01*
X233466Y370187D01*
X233283Y370208D01*
X233093Y370229D01*
X232706Y370285D01*
X232509Y370327D01*
X232326Y370370D01*
X232143Y370426D01*
X231975Y370482D01*
X231968Y370489D01*
X231939Y370496D01*
X231890Y370517D01*
X231834Y370546D01*
X231756Y370588D01*
X231672Y370630D01*
X231581Y370686D01*
X231475Y370756D01*
X231362Y370834D01*
X231250Y370918D01*
X231137Y371017D01*
X231018Y371129D01*
X230898Y371249D01*
X230786Y371376D01*
X230673Y371523D01*
X230567Y371678D01*
X230560Y371685D01*
X230546Y371720D01*
X230518Y371770D01*
X230483Y371833D01*
X230441Y371925D01*
X230399Y372023D01*
X230349Y372150D01*
X230300Y372283D01*
X230251Y372445D01*
X230201Y372614D01*
X230159Y372797D01*
X230117Y373001D01*
X230082Y373219D01*
X230054Y373451D01*
X230040Y373690D01*
X230033Y373951D01*
Y374085D01*
X230040Y374176D01*
X230047Y374296D01*
X230061Y374429D01*
X230075Y374584D01*
X230089Y374746D01*
X230117Y374922D01*
X230145Y375105D01*
X230187Y375288D01*
X230230Y375478D01*
X230286Y375661D01*
X230349Y375850D01*
X230420Y376026D01*
X230504Y376195D01*
X230511Y376202D01*
X230525Y376230D01*
X230553Y376280D01*
X230588Y376336D01*
X230638Y376406D01*
X230701Y376491D01*
X230771Y376575D01*
X230849Y376674D01*
X230940Y376772D01*
X231046Y376878D01*
X231151Y376983D01*
X231278Y377082D01*
X231405Y377180D01*
X231552Y377272D01*
X231700Y377356D01*
X231862Y377434D01*
X231876Y377440D01*
X231904Y377448D01*
X231953Y377469D01*
X232024Y377490D01*
X232115Y377518D01*
X232228Y377546D01*
X232355Y377581D01*
X232502Y377616D01*
X232671Y377652D01*
X232854Y377687D01*
X233051Y377715D01*
X233269Y377743D01*
X233501Y377764D01*
X233755Y377785D01*
X234022Y377792D01*
X234303Y377799D01*
X239932D01*
Y376512D01*
D02*
G37*
G36*
X230349Y368625D02*
X230462Y368618D01*
X230581Y368604D01*
X230722Y368582D01*
X230870Y368547D01*
X231018Y368498D01*
X231025D01*
X231046Y368484D01*
X231081Y368470D01*
X231130Y368449D01*
X231194Y368428D01*
X231264Y368392D01*
X231341Y368350D01*
X231426Y368308D01*
X231524Y368259D01*
X231623Y368195D01*
X231841Y368062D01*
X232073Y367900D01*
X232312Y367710D01*
X232319Y367703D01*
X232340Y367682D01*
X232376Y367654D01*
X232425Y367612D01*
X232488Y367555D01*
X232558Y367485D01*
X232643Y367407D01*
X232734Y367309D01*
X232840Y367203D01*
X232952Y367091D01*
X233072Y366964D01*
X233206Y366824D01*
X233340Y366669D01*
X233480Y366507D01*
X233628Y366331D01*
X233783Y366148D01*
X233790Y366141D01*
X233797Y366127D01*
X233818Y366106D01*
X233839Y366078D01*
X233874Y366043D01*
X233909Y366000D01*
X234001Y365895D01*
X234106Y365761D01*
X234240Y365620D01*
X234381Y365459D01*
X234536Y365290D01*
X234697Y365107D01*
X234866Y364931D01*
X235035Y364748D01*
X235211Y364579D01*
X235380Y364410D01*
X235542Y364263D01*
X235704Y364122D01*
X235851Y364009D01*
X235858Y364002D01*
X235886Y363988D01*
X235929Y363960D01*
X235978Y363918D01*
X236048Y363876D01*
X236126Y363833D01*
X236217Y363777D01*
X236316Y363728D01*
X236421Y363679D01*
X236534Y363622D01*
X236780Y363531D01*
X236907Y363496D01*
X237033Y363467D01*
X237160Y363453D01*
X237286Y363446D01*
X237294D01*
X237322D01*
X237357D01*
X237406Y363453D01*
X237470Y363460D01*
X237540Y363475D01*
X237617Y363489D01*
X237702Y363510D01*
X237793Y363538D01*
X237892Y363573D01*
X237990Y363615D01*
X238089Y363664D01*
X238194Y363721D01*
X238293Y363791D01*
X238391Y363868D01*
X238483Y363960D01*
X238490Y363967D01*
X238504Y363981D01*
X238525Y364009D01*
X238560Y364051D01*
X238595Y364101D01*
X238637Y364164D01*
X238687Y364234D01*
X238729Y364312D01*
X238778Y364403D01*
X238820Y364502D01*
X238863Y364614D01*
X238898Y364727D01*
X238933Y364854D01*
X238954Y364987D01*
X238968Y365128D01*
X238975Y365276D01*
Y365360D01*
X238968Y365416D01*
X238961Y365494D01*
X238947Y365578D01*
X238933Y365670D01*
X238912Y365775D01*
X238884Y365881D01*
X238848Y365993D01*
X238806Y366106D01*
X238757Y366226D01*
X238694Y366338D01*
X238623Y366451D01*
X238546Y366563D01*
X238454Y366662D01*
X238447Y366669D01*
X238433Y366683D01*
X238398Y366711D01*
X238363Y366739D01*
X238307Y366781D01*
X238243Y366824D01*
X238166Y366873D01*
X238082Y366915D01*
X237990Y366964D01*
X237878Y367014D01*
X237765Y367056D01*
X237638Y367098D01*
X237498Y367126D01*
X237350Y367154D01*
X237195Y367168D01*
X237026Y367175D01*
X237153Y368407D01*
X237160D01*
X237167D01*
X237188Y368400D01*
X237216D01*
X237286Y368392D01*
X237378Y368371D01*
X237491Y368350D01*
X237624Y368322D01*
X237772Y368287D01*
X237927Y368245D01*
X238096Y368189D01*
X238265Y368125D01*
X238440Y368048D01*
X238616Y367956D01*
X238785Y367858D01*
X238947Y367738D01*
X239102Y367612D01*
X239242Y367464D01*
X239249Y367457D01*
X239271Y367429D01*
X239313Y367379D01*
X239355Y367316D01*
X239411Y367232D01*
X239475Y367133D01*
X239538Y367014D01*
X239608Y366880D01*
X239672Y366725D01*
X239735Y366563D01*
X239798Y366380D01*
X239855Y366183D01*
X239904Y365972D01*
X239939Y365747D01*
X239960Y365508D01*
X239967Y365255D01*
Y365191D01*
X239960Y365121D01*
X239953Y365022D01*
X239946Y364903D01*
X239925Y364769D01*
X239904Y364614D01*
X239869Y364453D01*
X239827Y364277D01*
X239777Y364101D01*
X239714Y363911D01*
X239636Y363728D01*
X239545Y363545D01*
X239447Y363369D01*
X239327Y363200D01*
X239186Y363038D01*
X239179Y363031D01*
X239151Y363003D01*
X239109Y362961D01*
X239046Y362912D01*
X238975Y362848D01*
X238884Y362778D01*
X238778Y362701D01*
X238659Y362623D01*
X238525Y362553D01*
X238377Y362475D01*
X238215Y362405D01*
X238046Y362342D01*
X237864Y362293D01*
X237673Y362250D01*
X237470Y362222D01*
X237258Y362215D01*
X237251D01*
X237230D01*
X237202D01*
X237160D01*
X237104Y362222D01*
X237047Y362229D01*
X236977Y362236D01*
X236900Y362243D01*
X236724Y362271D01*
X236527Y362314D01*
X236323Y362377D01*
X236112Y362454D01*
X236105D01*
X236083Y362468D01*
X236055Y362482D01*
X236013Y362504D01*
X235964Y362525D01*
X235900Y362560D01*
X235830Y362595D01*
X235753Y362644D01*
X235668Y362693D01*
X235577Y362750D01*
X235373Y362891D01*
X235267Y362968D01*
X235155Y363052D01*
X235042Y363151D01*
X234923Y363249D01*
X234916Y363256D01*
X234894Y363278D01*
X234859Y363306D01*
X234810Y363355D01*
X234747Y363418D01*
X234669Y363496D01*
X234578Y363580D01*
X234472Y363686D01*
X234360Y363805D01*
X234233Y363946D01*
X234092Y364094D01*
X233937Y364263D01*
X233776Y364445D01*
X233600Y364642D01*
X233410Y364860D01*
X233213Y365093D01*
X233206Y365107D01*
X233171Y365142D01*
X233128Y365191D01*
X233065Y365262D01*
X232995Y365353D01*
X232910Y365444D01*
X232819Y365550D01*
X232720Y365663D01*
X232516Y365902D01*
X232411Y366014D01*
X232312Y366127D01*
X232214Y366232D01*
X232129Y366324D01*
X232052Y366408D01*
X231982Y366472D01*
X231968Y366486D01*
X231925Y366521D01*
X231862Y366577D01*
X231785Y366648D01*
X231686Y366725D01*
X231581Y366810D01*
X231461Y366894D01*
X231341Y366971D01*
Y362201D01*
X230194D01*
Y368632D01*
X230201D01*
X230216D01*
X230237D01*
X230265D01*
X230307D01*
X230349Y368625D01*
D02*
G37*
G36*
X57680Y183400D02*
X57771Y183393D01*
X57877Y183386D01*
X58004Y183365D01*
X58144Y183344D01*
X58292Y183316D01*
X58447Y183274D01*
X58609Y183231D01*
X58770Y183168D01*
X58932Y183098D01*
X59094Y183013D01*
X59249Y182915D01*
X59397Y182802D01*
X59530Y182675D01*
X59537Y182668D01*
X59559Y182640D01*
X59594Y182598D01*
X59636Y182535D01*
X59685Y182457D01*
X59742Y182366D01*
X59805Y182253D01*
X59861Y182127D01*
X59924Y181979D01*
X59988Y181817D01*
X60037Y181634D01*
X60086Y181437D01*
X60128Y181226D01*
X60157Y180994D01*
X60178Y180748D01*
Y180487D01*
X59017Y180326D01*
Y180340D01*
Y180375D01*
X59010Y180431D01*
X59003Y180508D01*
X58996Y180600D01*
X58982Y180698D01*
X58967Y180811D01*
X58946Y180938D01*
X58897Y181191D01*
X58827Y181444D01*
X58778Y181557D01*
X58728Y181669D01*
X58665Y181768D01*
X58602Y181852D01*
X58595Y181859D01*
X58588Y181866D01*
X58559Y181887D01*
X58531Y181916D01*
X58496Y181944D01*
X58447Y181979D01*
X58398Y182021D01*
X58334Y182056D01*
X58264Y182092D01*
X58186Y182134D01*
X58102Y182169D01*
X58011Y182197D01*
X57905Y182225D01*
X57800Y182239D01*
X57687Y182253D01*
X57567Y182260D01*
X57518D01*
X57483Y182253D01*
X57441D01*
X57392Y182246D01*
X57279Y182232D01*
X57152Y182204D01*
X57012Y182169D01*
X56864Y182113D01*
X56730Y182042D01*
X56723D01*
X56716Y182028D01*
X56674Y182000D01*
X56610Y181951D01*
X56540Y181880D01*
X56456Y181796D01*
X56378Y181691D01*
X56301Y181571D01*
X56245Y181437D01*
Y181430D01*
X56238Y181416D01*
X56231Y181395D01*
X56224Y181367D01*
X56217Y181325D01*
X56203Y181275D01*
X56188Y181212D01*
X56174Y181142D01*
X56167Y181064D01*
X56153Y180973D01*
X56139Y180874D01*
X56132Y180762D01*
X56125Y180642D01*
X56118Y180515D01*
X56111Y180375D01*
Y180220D01*
Y173508D01*
X54823D01*
Y180143D01*
Y180157D01*
Y180199D01*
Y180262D01*
X54830Y180347D01*
Y180445D01*
X54837Y180565D01*
X54852Y180698D01*
X54859Y180839D01*
X54880Y180987D01*
X54894Y181142D01*
X54950Y181458D01*
X54985Y181613D01*
X55027Y181761D01*
X55070Y181901D01*
X55126Y182035D01*
Y182042D01*
X55140Y182063D01*
X55154Y182099D01*
X55182Y182148D01*
X55210Y182204D01*
X55253Y182267D01*
X55302Y182338D01*
X55351Y182415D01*
X55414Y182493D01*
X55485Y182577D01*
X55562Y182661D01*
X55647Y182746D01*
X55738Y182830D01*
X55837Y182908D01*
X55942Y182985D01*
X56062Y183055D01*
X56069Y183062D01*
X56090Y183069D01*
X56125Y183091D01*
X56174Y183112D01*
X56238Y183140D01*
X56308Y183168D01*
X56392Y183196D01*
X56491Y183231D01*
X56596Y183267D01*
X56709Y183295D01*
X56836Y183323D01*
X56962Y183351D01*
X57103Y183372D01*
X57251Y183393D01*
X57399Y183400D01*
X57560Y183407D01*
X57617D01*
X57680Y183400D01*
D02*
G37*
G36*
X49898Y175633D02*
X49905Y175640D01*
X49920Y175654D01*
X49941Y175675D01*
X49976Y175703D01*
X50018Y175738D01*
X50074Y175787D01*
X50138Y175837D01*
X50201Y175893D01*
X50285Y175949D01*
X50370Y176020D01*
X50461Y176083D01*
X50560Y176160D01*
X50672Y176231D01*
X50785Y176308D01*
X51038Y176463D01*
X51045Y176470D01*
X51066Y176484D01*
X51108Y176505D01*
X51158Y176526D01*
X51214Y176561D01*
X51284Y176604D01*
X51369Y176646D01*
X51453Y176695D01*
X51650Y176794D01*
X51861Y176892D01*
X52080Y176991D01*
X52291Y177075D01*
Y175921D01*
X52277Y175914D01*
X52248Y175900D01*
X52192Y175872D01*
X52122Y175837D01*
X52037Y175795D01*
X51932Y175738D01*
X51819Y175675D01*
X51700Y175604D01*
X51566Y175520D01*
X51425Y175436D01*
X51130Y175239D01*
X50827Y175021D01*
X50539Y174781D01*
X50532Y174774D01*
X50504Y174753D01*
X50468Y174718D01*
X50419Y174669D01*
X50356Y174605D01*
X50285Y174535D01*
X50208Y174451D01*
X50124Y174366D01*
X50039Y174268D01*
X49948Y174162D01*
X49772Y173944D01*
X49610Y173712D01*
X49540Y173592D01*
X49476Y173473D01*
X48702D01*
Y183245D01*
X49898D01*
Y175633D01*
D02*
G37*
D10*
X54940Y231440D02*
G03*
X54940Y231440I-1250J0D01*
G01*
X323162Y170400D02*
G03*
X323162Y170400I-1250J0D01*
G01*
X438250Y264000D02*
G03*
X438250Y264000I-1250J0D01*
G01*
X468500Y257500D02*
G03*
X468500Y257500I-1250J0D01*
G01*
X404250Y143500D02*
G03*
X404250Y143500I-1250J0D01*
G01*
X15250Y312500D02*
G03*
X15250Y312500I-1250J0D01*
G01*
X140000Y317250D02*
G03*
X140000Y317250I-1250J0D01*
G01*
X221750Y383500D02*
G03*
X221750Y383500I-1250J0D01*
G01*
X442811Y320250D02*
G03*
X442811Y320250I-1250J0D01*
G01*
X381251Y168000D02*
G03*
X381251Y168000I-1250J0D01*
G01*
X15250Y272500D02*
G03*
X15250Y272500I-1250J0D01*
G01*
Y292500D02*
G03*
X15250Y292500I-1250J0D01*
G01*
Y332500D02*
G03*
X15250Y332500I-1250J0D01*
G01*
D11*
X301500Y181000D02*
G03*
X301500Y181000I-2500J0D01*
G01*
D12*
X-7059Y255890D02*
X1060D01*
X27820Y255893D02*
X39893D01*
Y254580D02*
Y255893D01*
X39940Y180987D02*
Y182290D01*
X27820Y180987D02*
X39940D01*
X-7060D02*
X1060D01*
X-7059Y180990D02*
Y255890D01*
X307500Y172500D02*
Y257500D01*
X222501D02*
X307500D01*
X222500Y172499D02*
X222501Y257500D01*
X222500Y172499D02*
X307500Y172500D01*
X259363Y290138D02*
Y304862D01*
X245638Y290138D02*
Y304862D01*
X404499Y301001D02*
Y310501D01*
X430499D01*
X404499Y264501D02*
Y274000D01*
Y264501D02*
X430499D01*
X24000Y141500D02*
X56000D01*
X24000Y167250D02*
Y168500D01*
Y141500D02*
Y142750D01*
Y168500D02*
X56000D01*
Y167250D02*
Y168500D01*
Y141500D02*
Y142750D01*
X483750Y342500D02*
X506250D01*
X483750Y334500D02*
Y342500D01*
Y242500D02*
Y250500D01*
Y242500D02*
X506250D01*
X526250Y254500D02*
Y330500D01*
X437250Y255000D02*
X447000D01*
Y225000D02*
Y233250D01*
Y246750D02*
Y255000D01*
X437250Y225000D02*
X447000D01*
X433000Y237250D02*
Y242750D01*
X336501Y130000D02*
X403500D01*
X336501Y100000D02*
X403500D01*
Y130000D01*
X336501Y100000D02*
Y130000D01*
X445939Y75939D02*
Y104061D01*
X464061Y75939D02*
Y104061D01*
X336150Y230000D02*
Y240000D01*
X348850Y230000D02*
Y240000D01*
X340000Y171150D02*
X350000D01*
X340000Y183850D02*
X350000D01*
X64500Y301500D02*
X80500D01*
X64500Y283500D02*
X80500D01*
X425250Y178500D02*
X439750D01*
X425250Y151500D02*
X439750D01*
X315940Y115939D02*
Y144060D01*
X334061Y115939D02*
Y144060D01*
X148090Y246498D02*
X164091D01*
X148090Y228498D02*
X164091D01*
X108200Y294149D02*
Y304149D01*
X95500Y294149D02*
Y304149D01*
X35750Y319250D02*
X39250D01*
X35750Y305750D02*
X39250D01*
X452500Y331350D02*
X462500D01*
X452500Y318650D02*
X462500D01*
X112000Y323250D02*
X133000D01*
X112000Y291751D02*
X133000D01*
X218250Y376000D02*
X221000D01*
Y373250D02*
Y376000D01*
Y334000D02*
Y336750D01*
X218250Y334000D02*
X221000D01*
X179000D02*
X181750D01*
X179000D02*
Y336750D01*
Y376000D02*
X181750D01*
X179000Y373250D02*
Y376000D01*
X64500Y281500D02*
X80500D01*
X64500Y263500D02*
X80500D01*
X285939Y315939D02*
Y344061D01*
X304061Y315939D02*
Y344061D01*
X405000Y315000D02*
X435000D01*
X405000Y345000D02*
X435000D01*
X378561Y345439D02*
Y369561D01*
X361439Y345439D02*
Y369561D01*
X465250Y343000D02*
X469750D01*
X465250Y357000D02*
X469750D01*
X419061Y225939D02*
Y254060D01*
X400939Y225939D02*
Y254060D01*
X96150Y310000D02*
Y320000D01*
X108850Y310000D02*
Y320000D01*
X290000Y311350D02*
X300000D01*
X290000Y298650D02*
X300000D01*
X171250Y342250D02*
Y352750D01*
X158750Y342250D02*
Y352750D01*
X194750Y316250D02*
X205251D01*
X194750Y328750D02*
X205251D01*
X295000Y136350D02*
X305000D01*
X295000Y123650D02*
X305000D01*
X192274Y169426D02*
Y179426D01*
X179575Y169426D02*
Y179426D01*
X352500Y201149D02*
X362500D01*
X352500Y213849D02*
X362500D01*
X222501Y286150D02*
X232501D01*
X222501Y298850D02*
X232501D01*
X35750Y265750D02*
X39250D01*
X35750Y279250D02*
X39250D01*
X35750Y285749D02*
X39250D01*
X35750Y299250D02*
X39250D01*
X35750Y325750D02*
X39250D01*
X35750Y339250D02*
X39250D01*
M02*
