G04*
G04 #@! TF.GenerationSoftware,Altium Limited,Altium Designer,23.4.1 (23)*
G04*
G04 Layer_Physical_Order=3*
G04 Layer_Color=36540*
%FSLAX44Y44*%
%MOMM*%
G71*
G04*
G04 #@! TF.SameCoordinates,3B5A73B4-8A0B-4212-871D-57366DFA46AC*
G04*
G04*
G04 #@! TF.FilePolarity,Positive*
G04*
G01*
G75*
%ADD15C,0.5000*%
%ADD83C,0.7500*%
%ADD86C,0.1500*%
%ADD88C,1.4500*%
G04:AMPARAMS|DCode=89|XSize=1.524mm|YSize=2mm|CornerRadius=0.381mm|HoleSize=0mm|Usage=FLASHONLY|Rotation=0.000|XOffset=0mm|YOffset=0mm|HoleType=Round|Shape=RoundedRectangle|*
%AMROUNDEDRECTD89*
21,1,1.5240,1.2380,0,0,0.0*
21,1,0.7620,2.0000,0,0,0.0*
1,1,0.7620,0.3810,-0.6190*
1,1,0.7620,-0.3810,-0.6190*
1,1,0.7620,-0.3810,0.6190*
1,1,0.7620,0.3810,0.6190*
%
%ADD89ROUNDEDRECTD89*%
%ADD90C,1.5240*%
D15*
X16726Y155000D02*
D03*
X32220Y154902D02*
D03*
X99022Y173190D02*
D03*
X323050Y64478D02*
D03*
X184442Y216878D02*
D03*
X83208Y136868D02*
D03*
X171817Y218402D02*
D03*
X149766Y124676D02*
D03*
X118580Y246088D02*
D03*
X180810Y46190D02*
D03*
X353066Y79000D02*
D03*
X313652Y59652D02*
D03*
X384518Y110452D02*
D03*
X354066Y80000D02*
D03*
X368664Y119000D02*
D03*
X363076D02*
D03*
X82968Y270674D02*
D03*
X99276Y254216D02*
D03*
X99250Y254392D02*
D03*
X182842Y310350D02*
D03*
X323050Y324320D02*
D03*
X309606Y313126D02*
D03*
X298412Y324320D02*
D03*
X154140Y170396D02*
D03*
X273266Y116040D02*
D03*
X77432Y197320D02*
D03*
X177762Y39840D02*
D03*
X123914Y254470D02*
D03*
X9614Y28156D02*
D03*
X213068Y48476D02*
D03*
X92926Y43142D02*
D03*
X168110Y255994D02*
D03*
X37046Y186604D02*
D03*
X310350Y302730D02*
D03*
X324574Y111000D02*
D03*
X310858Y302222D02*
D03*
X38465Y85000D02*
D03*
X326139Y50000D02*
D03*
X203416Y210274D02*
D03*
X74892Y62418D02*
D03*
X166332Y189700D02*
D03*
X313652Y249898D02*
D03*
X42500Y140214D02*
D03*
X73202Y234412D02*
D03*
X182948Y39840D02*
D03*
X173063Y228181D02*
D03*
X21584Y71932D02*
D03*
X143218Y204412D02*
D03*
X72606Y187283D02*
D03*
X31966Y71336D02*
D03*
X59906Y149568D02*
D03*
X49746Y127470D02*
D03*
X17234Y45000D02*
D03*
X67526Y200114D02*
D03*
X76420Y206000D02*
D03*
X142710Y49492D02*
D03*
X58890Y192240D02*
D03*
X133566Y118834D02*
D03*
X165062D02*
D03*
X148691Y134467D02*
D03*
X98981Y173231D02*
D03*
X205448Y132804D02*
D03*
X156934Y234404D02*
D03*
X295110Y252513D02*
D03*
X249136Y259550D02*
D03*
X317250Y226606D02*
D03*
X190970Y191986D02*
D03*
X-21480Y341920D02*
D03*
X-21374Y346926D02*
D03*
X190970Y324320D02*
D03*
X381724Y265900D02*
D03*
X387040Y240070D02*
D03*
X-7020Y165000D02*
D03*
X-21480Y198000D02*
D03*
Y222000D02*
D03*
X16020Y235000D02*
D03*
X38570Y274881D02*
D03*
X-21480Y318000D02*
D03*
X155379Y256112D02*
D03*
X104169Y330000D02*
D03*
X-21480Y393000D02*
D03*
X308542Y259728D02*
D03*
X30337Y397218D02*
D03*
X218148Y53302D02*
D03*
X225260Y53556D02*
D03*
X277832Y219412D02*
D03*
X148329Y142425D02*
D03*
X277584Y273088D02*
D03*
X223990Y321018D02*
D03*
X345656Y181949D02*
D03*
X331686Y201638D02*
D03*
X141694Y42202D02*
D03*
X233134Y134582D02*
D03*
X270980Y93942D02*
D03*
X318654Y106134D02*
D03*
X246850Y292474D02*
D03*
X-9458Y255000D02*
D03*
X175222Y245326D02*
D03*
X-6896Y265000D02*
D03*
X156934Y249644D02*
D03*
X22568Y288302D02*
D03*
X114516Y269456D02*
D03*
X224498Y39332D02*
D03*
X263360Y72723D02*
D03*
X177839Y184112D02*
D03*
X190379Y179362D02*
D03*
X88354Y192240D02*
D03*
X30833Y264151D02*
D03*
X102324Y226530D02*
D03*
X19984Y275000D02*
D03*
X11138Y204432D02*
D03*
X23071Y175000D02*
D03*
X254724Y255994D02*
D03*
X263106Y246088D02*
D03*
X282410Y239412D02*
D03*
X183096Y173190D02*
D03*
X99530Y233642D02*
D03*
X54453Y319883D02*
D03*
X178270Y337274D02*
D03*
X131280Y306794D02*
D03*
X246596Y149060D02*
D03*
X119704Y74892D02*
D03*
X198844Y141948D02*
D03*
X331704Y189700D02*
D03*
X118326Y184411D02*
D03*
X165570Y177254D02*
D03*
X72500Y110250D02*
D03*
X82500D02*
D03*
X92500D02*
D03*
X72500Y100250D02*
D03*
X82500D02*
D03*
X92500D02*
D03*
X72500Y90250D02*
D03*
X82500D02*
D03*
X92500D02*
D03*
X298920Y208242D02*
D03*
D83*
X370040Y227800D02*
D03*
D86*
X67380Y364960D02*
X82620D01*
X67380D02*
X75000Y357340D01*
X100000Y389598D02*
X107404D01*
X293999Y286378D02*
X310350Y302730D01*
X149766Y124676D02*
X153441Y128351D01*
Y146965D01*
X138468Y161938D02*
Y225336D01*
X160895Y218402D02*
X171817D01*
X147179Y232118D02*
X160895Y218402D01*
X145250Y232118D02*
X147179D01*
X138468Y225336D02*
X145250Y232118D01*
X138468Y161938D02*
X153441Y146965D01*
X94450Y246088D02*
X118580D01*
X47460Y199098D02*
X94450Y246088D01*
X47460Y136868D02*
Y199098D01*
X4534Y93942D02*
X47460Y136868D01*
X4534Y16355D02*
Y93942D01*
Y16355D02*
X40993Y-20104D01*
X145250D01*
X152616Y-12738D01*
Y29680D01*
X169126Y46190D01*
X180810D01*
X273266Y116040D02*
X275806Y113500D01*
Y76316D02*
Y113500D01*
X215000Y15510D02*
X275806Y76316D01*
X215000Y-5000D02*
Y15510D01*
X9614Y23584D02*
Y28156D01*
Y23584D02*
X13170Y20028D01*
X134412D01*
X140000Y14440D01*
Y-5000D02*
Y14440D01*
X210604Y50940D02*
X213068Y48476D01*
X168288Y50940D02*
X210604D01*
X150406Y33058D02*
X168288Y50940D01*
X103010Y33058D02*
X150406D01*
X92926Y43142D02*
X103010Y33058D01*
X37046Y186604D02*
Y208190D01*
X115235Y286378D01*
X293999D01*
X326139Y50000D02*
X336454Y60315D01*
Y195073D01*
X336141Y195386D02*
X336454Y195073D01*
X218304Y195386D02*
X336141D01*
X203416Y210274D02*
X218304Y195386D01*
X166332Y189700D02*
X191656Y215024D01*
X205626D01*
X208166Y212484D01*
X278778D01*
X313652Y247358D01*
Y249898D01*
X212306Y222974D02*
X231205D01*
X272709Y264479D01*
X316549D01*
X383251Y331181D01*
Y389341D01*
X370040Y402552D02*
X383251Y389341D01*
X82112Y402552D02*
X370040D01*
X75000Y395440D02*
X82112Y402552D01*
X75000Y380000D02*
Y395440D01*
X42500Y140214D02*
Y203710D01*
X73202Y234412D01*
X21584Y71932D02*
X26931Y66586D01*
X36030D01*
X36716Y67272D01*
X100015D01*
X158943Y126200D01*
Y149845D01*
X143218Y165570D02*
X158943Y149845D01*
X143218Y165570D02*
Y204412D01*
X31966Y71336D02*
Y94704D01*
X59906Y122644D01*
Y149568D01*
X38465Y85000D02*
X87932Y134467D01*
X148691D01*
X327500Y285590D02*
X369278Y327368D01*
X372615D01*
X380251Y335004D01*
Y378367D01*
X359868Y398750D02*
X380251Y378367D01*
X100046Y398750D02*
X359868D01*
X86576Y385280D02*
X100046Y398750D01*
X86576Y368916D02*
Y385280D01*
X82620Y364960D02*
X86576Y368916D01*
X35122Y397218D02*
X67380Y364960D01*
X75000Y355000D02*
Y357340D01*
X30337Y397218D02*
X35122D01*
X250000Y332621D02*
Y355000D01*
X215029Y297650D02*
X250000Y332621D01*
X15964Y297650D02*
X215029D01*
X132704Y158050D02*
X148329Y142425D01*
X132704Y158050D02*
Y242491D01*
X163301Y273088D01*
X277584D01*
X345656Y181949D02*
Y192786D01*
X336804Y201638D02*
X345656Y192786D01*
X331686Y201638D02*
X336804D01*
X141694Y42202D02*
X147612D01*
X189700Y84290D01*
X261328D01*
X270980Y93942D01*
X233134Y131788D02*
Y134582D01*
Y131788D02*
X270980Y93942D01*
X100000Y380000D02*
Y389598D01*
X107404D02*
X110198Y392392D01*
X354899D01*
X377251Y370040D01*
Y338389D02*
Y370040D01*
X369278Y330416D02*
X377251Y338389D01*
X352768Y330416D02*
X369278D01*
X290538Y268186D02*
X352768Y330416D01*
X198336Y268186D02*
X290538D01*
X181318Y251168D02*
X198336Y268186D01*
X158458Y251168D02*
X181318D01*
X156934Y249644D02*
X158458Y251168D01*
X190000Y-5000D02*
Y25870D01*
X203462Y39332D01*
X224498D01*
X146266Y228054D02*
X158890Y215430D01*
Y165405D02*
Y215430D01*
Y165405D02*
X235942Y88354D01*
X253454D01*
X88354Y192240D02*
X129248Y233134D01*
Y253708D01*
X158918Y283378D01*
X299174D01*
X327800Y312005D01*
Y329070D01*
X325000Y331870D02*
X327800Y329070D01*
X325000Y331870D02*
Y355000D01*
X11138Y204432D02*
Y303492D01*
X21806Y314160D01*
X134760D01*
X150000Y329400D01*
Y355000D01*
X183096Y148552D02*
Y173190D01*
Y148552D02*
X196050Y135598D01*
X200876D01*
X204686Y139408D01*
X273490D01*
X290000Y122898D01*
Y-5000D02*
Y122898D01*
X54453Y319883D02*
X112365D01*
X212500Y367500D02*
X225000Y355000D01*
X112365Y319883D02*
X136614Y344132D01*
Y364960D01*
X139154Y367500D01*
X212500D01*
X240000Y19020D02*
X255980Y35000D01*
X240000Y-5000D02*
Y19020D01*
X198844Y141948D02*
X246596Y189700D01*
X331704D01*
X71082Y160744D02*
X92164Y139662D01*
X127978D01*
X298920Y208242D02*
X354258D01*
D88*
X383000Y175000D02*
D03*
Y125000D02*
D03*
D89*
X250000Y380000D02*
D03*
X90000Y-5000D02*
D03*
X115000D02*
D03*
X325000Y355000D02*
D03*
X300000D02*
D03*
X275000D02*
D03*
X250000D02*
D03*
X225000D02*
D03*
X200000D02*
D03*
X175000D02*
D03*
X150000D02*
D03*
X125000D02*
D03*
X165000Y-5000D02*
D03*
X340000D02*
D03*
X315000D02*
D03*
X290000D02*
D03*
X265000D02*
D03*
X240000D02*
D03*
X215000D02*
D03*
X65000D02*
D03*
X190000D02*
D03*
X140000D02*
D03*
X75000Y380000D02*
D03*
X100000D02*
D03*
X125000D02*
D03*
X150000D02*
D03*
X100000Y355000D02*
D03*
X75000D02*
D03*
X200000Y380000D02*
D03*
X175000D02*
D03*
X225000D02*
D03*
X275000D02*
D03*
X300000D02*
D03*
X325000D02*
D03*
D90*
X45000Y355000D02*
D03*
X355000D02*
D03*
X365000Y35000D02*
D03*
X45000Y45000D02*
D03*
M02*
