G04*
G04 #@! TF.GenerationSoftware,Altium Limited,Altium Designer,23.4.1 (23)*
G04*
G04 Layer_Color=8388736*
%FSLAX44Y44*%
%MOMM*%
G71*
G04*
G04 #@! TF.SameCoordinates,0C08C988-1F2B-49C3-A879-C7924B40E8ED*
G04*
G04*
G04 #@! TF.FilePolarity,Negative*
G04*
G01*
G75*
%ADD17R,0.5000X0.3500*%
%ADD21R,1.2500X1.1000*%
%ADD22R,1.2084X1.0121*%
G04:AMPARAMS|DCode=24|XSize=0.7311mm|YSize=0.3025mm|CornerRadius=0.1512mm|HoleSize=0mm|Usage=FLASHONLY|Rotation=90.000|XOffset=0mm|YOffset=0mm|HoleType=Round|Shape=RoundedRectangle|*
%AMROUNDEDRECTD24*
21,1,0.7311,0.0000,0,0,90.0*
21,1,0.4286,0.3025,0,0,90.0*
1,1,0.3025,0.0000,0.2143*
1,1,0.3025,0.0000,-0.2143*
1,1,0.3025,0.0000,-0.2143*
1,1,0.3025,0.0000,0.2143*
%
%ADD24ROUNDEDRECTD24*%
G04:AMPARAMS|DCode=25|XSize=0.3125mm|YSize=1.7883mm|CornerRadius=0.1562mm|HoleSize=0mm|Usage=FLASHONLY|Rotation=180.000|XOffset=0mm|YOffset=0mm|HoleType=Round|Shape=RoundedRectangle|*
%AMROUNDEDRECTD25*
21,1,0.3125,1.4758,0,0,180.0*
21,1,0.0000,1.7883,0,0,180.0*
1,1,0.3125,0.0000,0.7379*
1,1,0.3125,0.0000,0.7379*
1,1,0.3125,0.0000,-0.7379*
1,1,0.3125,0.0000,-0.7379*
%
%ADD25ROUNDEDRECTD25*%
%ADD27R,0.5000X0.4000*%
%ADD31R,0.5200X0.5200*%
G04:AMPARAMS|DCode=32|XSize=1.7883mm|YSize=0.3125mm|CornerRadius=0.1562mm|HoleSize=0mm|Usage=FLASHONLY|Rotation=180.000|XOffset=0mm|YOffset=0mm|HoleType=Round|Shape=RoundedRectangle|*
%AMROUNDEDRECTD32*
21,1,1.7883,0.0000,0,0,180.0*
21,1,1.4758,0.3125,0,0,180.0*
1,1,0.3125,-0.7379,0.0000*
1,1,0.3125,0.7379,0.0000*
1,1,0.3125,0.7379,0.0000*
1,1,0.3125,-0.7379,0.0000*
%
%ADD32ROUNDEDRECTD32*%
%ADD33R,0.9587X0.9121*%
%ADD37R,0.7000X1.3000*%
%ADD38R,1.0121X1.2084*%
%ADD40R,0.7500X1.0000*%
%ADD41R,0.8000X1.7000*%
%ADD43R,1.7883X0.3125*%
%ADD47R,1.9000X2.4000*%
%ADD49R,6.8000X2.8400*%
%ADD50R,0.3025X0.7311*%
%ADD55C,0.7032*%
%ADD56C,0.7032*%
%ADD57R,1.0032X0.5532*%
%ADD58R,0.5532X1.0532*%
%ADD59R,2.9032X2.8032*%
%ADD60R,0.6032X2.2032*%
%ADD61R,2.5000X1.7500*%
%ADD62R,1.1532X1.0032*%
%ADD63R,1.2532X1.1532*%
%ADD64R,1.5532X0.6032*%
%ADD65R,2.0032X0.8032*%
%ADD66R,0.8032X2.0032*%
G04:AMPARAMS|DCode=67|XSize=2.1032mm|YSize=3.4032mm|CornerRadius=0mm|HoleSize=0mm|Usage=FLASHONLY|Rotation=180.000|XOffset=0mm|YOffset=0mm|HoleType=Round|Shape=Octagon|*
%AMOCTAGOND67*
4,1,8,0.5258,-1.7016,-0.5258,-1.7016,-1.0516,-1.1758,-1.0516,1.1758,-0.5258,1.7016,0.5258,1.7016,1.0516,1.1758,1.0516,-1.1758,0.5258,-1.7016,0.0*
%
%ADD67OCTAGOND67*%

%ADD68R,1.7532X0.8032*%
%ADD69R,2.0032X1.4032*%
%ADD70R,1.0532X0.9032*%
%ADD71R,1.0032X1.1532*%
%ADD72R,1.6032X0.8032*%
%ADD73R,0.6532X0.6532*%
%ADD74R,0.8032X0.9032*%
%ADD75R,1.1532X1.0532*%
%ADD76R,2.1032X1.7032*%
%ADD77R,0.8032X1.6032*%
%ADD78R,1.0532X0.9032*%
G04:AMPARAMS|DCode=79|XSize=1.7272mm|YSize=2.2032mm|CornerRadius=0.4826mm|HoleSize=0mm|Usage=FLASHONLY|Rotation=0.000|XOffset=0mm|YOffset=0mm|HoleType=Round|Shape=RoundedRectangle|*
%AMROUNDEDRECTD79*
21,1,1.7272,1.2380,0,0,0.0*
21,1,0.7620,2.2032,0,0,0.0*
1,1,0.9652,0.3810,-0.6190*
1,1,0.9652,-0.3810,-0.6190*
1,1,0.9652,-0.3810,0.6190*
1,1,0.9652,0.3810,0.6190*
%
%ADD79ROUNDEDRECTD79*%
%ADD80C,0.7500*%
%ADD81C,1.6532*%
%ADD82C,1.7272*%
G36*
X394633Y93009D02*
X394763Y92983D01*
X394889Y92941D01*
X395009Y92882D01*
X395120Y92808D01*
X395220Y92720D01*
X395308Y92620D01*
X395382Y92509D01*
X395441Y92390D01*
X395483Y92263D01*
X395509Y92133D01*
X395518Y92000D01*
Y79000D01*
X395509Y78867D01*
X395483Y78736D01*
X395441Y78610D01*
X395382Y78491D01*
X395308Y78380D01*
X395220Y78280D01*
X395120Y78192D01*
X395009Y78118D01*
X394889Y78059D01*
X394763Y78016D01*
X394633Y77990D01*
X394500Y77982D01*
X390518D01*
Y74000D01*
X390510Y73867D01*
X390484Y73737D01*
X390441Y73611D01*
X390412Y73552D01*
X390382Y73491D01*
X390308Y73380D01*
X390220Y73280D01*
X390220D01*
Y73280D01*
X390120Y73192D01*
X390009Y73118D01*
X389949Y73088D01*
X389890Y73059D01*
X389764Y73017D01*
X389633Y72991D01*
X389500Y72982D01*
X380500Y72982D01*
X380500D01*
D01*
X380367Y72990D01*
X380236Y73016D01*
X380110Y73059D01*
X380051Y73088D01*
X379991Y73118D01*
X379880Y73192D01*
X379780Y73280D01*
Y73280D01*
X379780D01*
X379692Y73380D01*
X379618Y73491D01*
X379588Y73551D01*
X379559Y73610D01*
X379516Y73736D01*
X379490Y73867D01*
X379482Y74000D01*
Y74000D01*
D01*
Y77982D01*
X375500D01*
X375367Y77990D01*
X375236Y78016D01*
X375110Y78059D01*
X374991Y78118D01*
X374880Y78192D01*
X374780Y78280D01*
X374692Y78380D01*
X374618Y78491D01*
X374559Y78610D01*
X374516Y78736D01*
X374490Y78867D01*
X374482Y79000D01*
Y92000D01*
X374490Y92133D01*
X374516Y92263D01*
X374559Y92390D01*
X374618Y92509D01*
X374692Y92620D01*
X374780Y92720D01*
X374880Y92808D01*
X374991Y92882D01*
X375110Y92941D01*
X375236Y92983D01*
X375367Y93009D01*
X375500Y93018D01*
X394500D01*
X394633Y93009D01*
D02*
G37*
G36*
X389633Y157009D02*
X389763Y156983D01*
X389889Y156941D01*
X389948Y156912D01*
X390009Y156882D01*
X390120Y156808D01*
X390220Y156720D01*
Y156720D01*
X390220D01*
X390308Y156620D01*
X390382Y156509D01*
X390411Y156448D01*
X390440Y156390D01*
X390483Y156264D01*
X390509Y156133D01*
X390518Y156000D01*
Y156000D01*
D01*
Y152018D01*
X394500D01*
X394633Y152009D01*
X394763Y151983D01*
X394889Y151941D01*
X395009Y151882D01*
X395120Y151808D01*
X395220Y151720D01*
X395308Y151620D01*
X395382Y151509D01*
X395441Y151390D01*
X395483Y151264D01*
X395509Y151133D01*
X395518Y151000D01*
Y138000D01*
X395509Y137867D01*
X395483Y137736D01*
X395441Y137610D01*
X395382Y137491D01*
X395308Y137380D01*
X395220Y137280D01*
X395120Y137192D01*
X395009Y137118D01*
X394889Y137059D01*
X394763Y137016D01*
X394633Y136990D01*
X394500Y136982D01*
X375500D01*
X375367Y136990D01*
X375236Y137016D01*
X375110Y137059D01*
X374991Y137118D01*
X374880Y137192D01*
X374780Y137280D01*
X374692Y137380D01*
X374618Y137491D01*
X374559Y137610D01*
X374516Y137736D01*
X374490Y137867D01*
X374482Y138000D01*
Y151000D01*
X374490Y151133D01*
X374516Y151264D01*
X374559Y151390D01*
X374618Y151509D01*
X374692Y151620D01*
X374780Y151720D01*
X374880Y151808D01*
X374991Y151882D01*
X375110Y151941D01*
X375236Y151983D01*
X375367Y152009D01*
X375500Y152018D01*
X379481D01*
Y156000D01*
X379490Y156133D01*
X379516Y156263D01*
X379559Y156389D01*
X379588Y156448D01*
X379618Y156509D01*
X379692Y156620D01*
X379780Y156720D01*
X379780D01*
Y156720D01*
X379880Y156807D01*
X379991Y156882D01*
X380051Y156911D01*
X380110Y156940D01*
X380236Y156983D01*
X380367Y157009D01*
X380500Y157018D01*
X389500Y157018D01*
X389500D01*
D01*
X389633Y157009D01*
D02*
G37*
D17*
X157000Y69750D02*
D03*
Y63250D02*
D03*
Y56750D02*
D03*
Y50250D02*
D03*
X173001D02*
D03*
Y56750D02*
D03*
Y63250D02*
D03*
Y69750D02*
D03*
D21*
X381750Y315000D02*
D03*
Y295000D02*
D03*
Y275000D02*
D03*
Y255000D02*
D03*
X358250Y315000D02*
D03*
Y255000D02*
D03*
Y275000D02*
D03*
Y295000D02*
D03*
D22*
X303018Y295000D02*
D03*
X46037Y95000D02*
D03*
X286981Y295000D02*
D03*
X30000Y95000D02*
D03*
D24*
X163250Y328905D02*
D03*
X169750Y301095D02*
D03*
X150250Y328905D02*
D03*
X156750D02*
D03*
X169750D02*
D03*
X163250Y301095D02*
D03*
X156750D02*
D03*
D25*
X220379Y268824D02*
D03*
X155379Y268824D02*
D03*
X220379Y155000D02*
D03*
X215379Y268824D02*
D03*
X210379D02*
D03*
X225379Y155000D02*
D03*
X150379Y268824D02*
D03*
X225379Y268824D02*
D03*
X205379Y268824D02*
D03*
X200379D02*
D03*
X195379Y268824D02*
D03*
X190379D02*
D03*
X185379D02*
D03*
X180379Y268824D02*
D03*
X175379Y268824D02*
D03*
X170379D02*
D03*
X165379D02*
D03*
X160379D02*
D03*
X150379Y155000D02*
D03*
X155379D02*
D03*
X160378D02*
D03*
X165379D02*
D03*
X170379D02*
D03*
X175379D02*
D03*
X180379D02*
D03*
X185379D02*
D03*
X190379D02*
D03*
X195379D02*
D03*
X200379D02*
D03*
X205379D02*
D03*
X210378D02*
D03*
X215379D02*
D03*
D27*
X310000Y234000D02*
D03*
X285443Y180985D02*
D03*
X59999Y221000D02*
D03*
X58890Y172618D02*
D03*
X285443Y172985D02*
D03*
X60000Y202000D02*
D03*
X310000Y226000D02*
D03*
X58890Y164618D02*
D03*
X60000Y210000D02*
D03*
X59999Y229000D02*
D03*
D31*
X270001Y259000D02*
D03*
X155000Y109000D02*
D03*
X145000Y109001D02*
D03*
X105000Y254000D02*
D03*
X45000Y189000D02*
D03*
X135000Y109001D02*
D03*
X125000Y109000D02*
D03*
X135000Y69000D02*
D03*
Y49000D02*
D03*
Y101001D02*
D03*
X145000D02*
D03*
X155000Y101000D02*
D03*
X125000D02*
D03*
X135000Y61000D02*
D03*
Y41000D02*
D03*
X45000Y181000D02*
D03*
X105000Y246000D02*
D03*
X270001Y251000D02*
D03*
D32*
X244791Y229411D02*
D03*
X130967Y179412D02*
D03*
Y174412D02*
D03*
X244791Y179412D02*
D03*
Y184412D02*
D03*
Y189412D02*
D03*
Y194412D02*
D03*
Y199412D02*
D03*
X244791Y204412D02*
D03*
X244791Y209412D02*
D03*
Y214412D02*
D03*
Y219412D02*
D03*
Y224411D02*
D03*
Y234412D02*
D03*
Y239412D02*
D03*
Y244412D02*
D03*
Y249412D02*
D03*
X130967D02*
D03*
Y244412D02*
D03*
Y239412D02*
D03*
Y234412D02*
D03*
Y229412D02*
D03*
Y224412D02*
D03*
Y219412D02*
D03*
Y214412D02*
D03*
Y209412D02*
D03*
Y204412D02*
D03*
Y199412D02*
D03*
Y194412D02*
D03*
Y189412D02*
D03*
Y184411D02*
D03*
D33*
X112733Y330000D02*
D03*
X127267D02*
D03*
D37*
X70500Y250000D02*
D03*
X89500D02*
D03*
D38*
X45000Y260000D02*
D03*
Y243962D02*
D03*
D40*
X327500Y255000D02*
D03*
X42500Y115000D02*
D03*
X27500D02*
D03*
X342500Y315000D02*
D03*
X327500D02*
D03*
X342500Y255000D02*
D03*
X327500Y275000D02*
D03*
X342500D02*
D03*
X327500Y295000D02*
D03*
X342500D02*
D03*
D41*
X387040Y227800D02*
D03*
X353040D02*
D03*
D43*
X244791Y174411D02*
D03*
D47*
X199500Y50001D02*
D03*
X240501D02*
D03*
D49*
X215000Y95000D02*
D03*
D50*
X150250Y301095D02*
D03*
D55*
X390409Y153329D02*
G03*
X390271Y153378I-909J-2329D01*
G01*
X390409Y153329D02*
G03*
X390271Y153378I-909J-2329D01*
G01*
X390271Y153378D02*
G03*
X389729Y153489I-771J-2378D01*
G01*
X390271Y153378D02*
G03*
X389729Y153489I-771J-2378D01*
G01*
X390271Y153378D02*
G03*
X389729Y153489I-771J-2378D01*
G01*
X390271Y153378D02*
G03*
X389729Y153489I-771J-2378D01*
G01*
X389728Y153490D02*
G03*
X389500Y153500I-228J-2490D01*
G01*
X389728Y153490D02*
G03*
X389500Y153500I-228J-2490D01*
G01*
X389728Y153490D02*
G03*
X389500Y153500I-228J-2490D01*
G01*
X389728Y153490D02*
G03*
X389500Y153500I-228J-2490D01*
G01*
X391791Y152000D02*
G03*
X390409Y153329I-2291J-1000D01*
G01*
X391791Y152000D02*
G03*
X390409Y153329I-2291J-1000D01*
G01*
X390409Y153329D02*
G03*
X390271Y153378I-909J-2329D01*
G01*
X390409Y153329D02*
G03*
X390271Y153378I-909J-2329D01*
G01*
X391791Y152000D02*
G03*
X390409Y153329I-2291J-1000D01*
G01*
X391791Y152000D02*
G03*
X390409Y153329I-2291J-1000D01*
G01*
X389500Y153500D02*
G03*
X387755Y152790I-0J-2500D01*
G01*
X389500Y153500D02*
G03*
X387755Y152790I-0J-2500D01*
G01*
X389500Y153500D02*
G03*
X387755Y152790I-0J-2500D01*
G01*
X389500Y153500D02*
G03*
X387755Y152790I-0J-2500D01*
G01*
X391989Y151231D02*
G03*
X391989Y151232I-2489J-231D01*
G01*
X391989Y151229D02*
G03*
X391989Y151231I-2490J-229D01*
G01*
Y151231D02*
G03*
X391989Y151232I-2489J-231D01*
G01*
X391989Y151229D02*
G03*
X391989Y151231I-2490J-229D01*
G01*
X391989Y151229D02*
G03*
X391989Y151231I-2490J-229D01*
G01*
Y151231D02*
G03*
X391989Y151232I-2489J-231D01*
G01*
X391989Y151231D02*
G03*
X391989Y151232I-2489J-231D01*
G01*
X392000Y151000D02*
G03*
X391996Y151138I-2500J-0D01*
G01*
X392000Y151000D02*
G03*
X391996Y151138I-2500J-0D01*
G01*
X391996Y151139D02*
G03*
X391989Y151228I-2496J-139D01*
G01*
X391996Y151138D02*
G03*
X391996Y151139I-2496J-138D01*
G01*
X392000Y151000D02*
G03*
X391996Y151138I-2500J-0D01*
G01*
X392000Y151000D02*
G03*
X391996Y151138I-2500J-0D01*
G01*
X391996Y151139D02*
G03*
X391989Y151228I-2496J-139D01*
G01*
X391996Y151138D02*
G03*
X391996Y151139I-2496J-138D01*
G01*
X391989Y151229D02*
G03*
X391989Y151231I-2490J-229D01*
G01*
X391996Y151139D02*
G03*
X391989Y151228I-2496J-139D01*
G01*
X391996Y151138D02*
G03*
X391996Y151139I-2496J-138D01*
G01*
D02*
G03*
X391989Y151228I-2496J-139D01*
G01*
X391996Y151138D02*
G03*
X391996Y151139I-2496J-138D01*
G01*
X391884Y151753D02*
G03*
X391829Y151909I-2384J-753D01*
G01*
X391884Y151753D02*
G03*
X391829Y151909I-2384J-753D01*
G01*
X391884Y151753D02*
G03*
X391829Y151909I-2384J-753D01*
G01*
X391926Y151603D02*
G03*
X391884Y151752I-2426J-603D01*
G01*
X391926Y151603D02*
G03*
X391884Y151752I-2426J-603D01*
G01*
X391828Y151910D02*
G03*
X391791Y152000I-2329J-909D01*
G01*
X391828Y151910D02*
G03*
X391791Y152000I-2329J-909D01*
G01*
X391828Y151910D02*
G03*
X391791Y152000I-2329J-909D01*
G01*
X391884Y151753D02*
G03*
X391829Y151909I-2384J-753D01*
G01*
X391828Y151910D02*
G03*
X391791Y152000I-2329J-909D01*
G01*
X391926Y151603D02*
G03*
X391884Y151752I-2426J-603D01*
G01*
X392000Y150999D02*
G03*
X392000Y151000I-2500J1D01*
G01*
X391818Y150064D02*
G03*
X392000Y150999I-2318J936D01*
G01*
X391926Y151603D02*
G03*
X391884Y151752I-2426J-603D01*
G01*
X392000Y150999D02*
G03*
X392000Y151000I-2500J1D01*
G01*
X391818Y150064D02*
G03*
X392000Y150999I-2318J936D01*
G01*
X391791Y150000D02*
G03*
X391818Y150063I-2291J1000D01*
G01*
X391791Y150000D02*
G03*
X391818Y150063I-2291J1000D01*
G01*
X391791Y150000D02*
G03*
X391818Y150063I-2291J1000D01*
G01*
X391791Y150000D02*
G03*
X391818Y150063I-2291J1000D01*
G01*
X387984Y80988D02*
G03*
X387333Y80247I1516J-1988D01*
G01*
X387984Y80988D02*
G03*
X387333Y80247I1516J-1988D01*
G01*
X382791Y150000D02*
G03*
X382928Y150404I-2291J1000D01*
G01*
X378209Y150000D02*
G03*
X382791Y150000I2291J1000D01*
G01*
X383000Y151000D02*
G03*
X378209Y150000I-2500J-0D01*
G01*
X382791D02*
G03*
X382928Y150404I-2291J1000D01*
G01*
X378209Y150000D02*
G03*
X382791Y150000I2291J1000D01*
G01*
X383000Y151000D02*
G03*
X378209Y150000I-2500J-0D01*
G01*
X387333Y80247D02*
G03*
X387058Y79536I2166J-1247D01*
G01*
X387333Y80247D02*
G03*
X387058Y79536I2166J-1247D01*
G01*
X387058Y79535D02*
G03*
X387009Y79210I2442J-536D01*
G01*
X387058Y79535D02*
G03*
X387009Y79210I2442J-536D01*
G01*
Y79210D02*
G03*
X387000Y79032I2491J-210D01*
G01*
Y79032D02*
G03*
X387000Y79013I2500J-32D01*
G01*
X387000Y79032D02*
G03*
X387000Y79013I2500J-32D01*
G01*
D02*
G03*
X387000Y79010I2500J-14D01*
G01*
Y79010D02*
Y79009D01*
Y79013D02*
G03*
X387000Y79010I2500J-14D01*
G01*
Y79010D02*
Y79009D01*
Y79009D02*
G03*
X387000Y79005I2500J-9D01*
G01*
X387000Y79009D02*
G03*
X387000Y79005I2500J-9D01*
G01*
X387499Y152498D02*
G03*
X387497Y152497I2001J-1498D01*
G01*
X387499Y152498D02*
G03*
X387497Y152497I2001J-1498D01*
G01*
X391989Y151232D02*
G03*
X391927Y151600I-2489J-232D01*
G01*
X391989Y151232D02*
G03*
X391927Y151600I-2489J-232D01*
G01*
X391989Y151232D02*
G03*
X391927Y151600I-2489J-232D01*
G01*
X391989Y151232D02*
G03*
X391927Y151600I-2489J-232D01*
G01*
X387209Y149999D02*
G03*
X391791Y150000I2291J1001D01*
G01*
X387497Y152497D02*
G03*
X387209Y150000I2003J-1497D01*
G01*
X387209Y149999D02*
G03*
X391791Y150000I2291J1001D01*
G01*
X387209Y149999D02*
G03*
X391791Y150000I2291J1001D01*
G01*
X387209Y149999D02*
G03*
X391791Y150000I2291J1001D01*
G01*
X387497Y152497D02*
G03*
X387209Y150000I2003J-1497D01*
G01*
X387209Y150000D02*
X387209Y149999D01*
X387209Y150000D02*
X387209Y149999D01*
X387000Y79005D02*
G03*
X387000Y79000I2500J-5D01*
G01*
Y79005D02*
G03*
X387000Y79000I2500J-5D01*
G01*
X390606Y81242D02*
G03*
X390407Y81330I-1106J-2242D01*
G01*
X390606Y81242D02*
G03*
X390407Y81330I-1106J-2242D01*
G01*
X391630Y80309D02*
G03*
X390606Y81242I-2130J-1309D01*
G01*
X392000Y79000D02*
G03*
X391630Y80309I-2500J-0D01*
G01*
X388406Y81248D02*
G03*
X388252Y81166I1094J-2248D01*
G01*
X390407Y81330D02*
G03*
X388407Y81248I-907J-2330D01*
G01*
X392000Y79000D02*
G03*
X391630Y80309I-2500J-0D01*
G01*
D02*
G03*
X390606Y81242I-2130J-1309D01*
G01*
X388406Y81248D02*
G03*
X388252Y81166I1094J-2248D01*
G01*
X388252Y81166D02*
G03*
X387984Y80988I1248J-2166D01*
G01*
X388252Y81166D02*
G03*
X387984Y80988I1248J-2166D01*
G01*
X390407Y81330D02*
G03*
X388407Y81248I-907J-2330D01*
G01*
X387000Y79000D02*
G03*
X392000Y79000I2500J-0D01*
G01*
X391927Y151600D02*
X391927Y151601D01*
X391927Y151600D02*
X391927Y151601D01*
X387754Y152789D02*
G03*
X387753Y152788I1746J-1789D01*
G01*
X387754Y152789D02*
G03*
X387753Y152788I1746J-1789D01*
G01*
X387752Y152788D01*
X387753Y152788D02*
X387752Y152788D01*
X387752Y152788D02*
G03*
X387690Y152724I1748J-1788D01*
G01*
X387752Y152788D02*
G03*
X387690Y152724I1748J-1788D01*
G01*
X387690Y152724D02*
G03*
X387688Y152723I1810J-1724D01*
G01*
X387690Y152724D02*
G03*
X387688Y152723I1810J-1724D01*
G01*
X387755Y152790D02*
X387754Y152790D01*
X387755Y152790D02*
X387754Y152790D01*
X383000Y79000D02*
G03*
X380500Y76500I-2500J-0D01*
G01*
X382175Y77144D02*
G03*
X383000Y79000I-1675J1856D01*
G01*
X382175Y77144D02*
G03*
X383000Y79000I-1675J1856D01*
G01*
X380500Y76500D02*
G03*
X382175Y77144I-0J2500D01*
G01*
X380500Y76500D02*
G03*
X382175Y77144I-0J2500D01*
G01*
X387688Y152722D02*
G03*
X387499Y152499I1812J-1723D01*
G01*
X387688Y152722D02*
G03*
X387499Y152499I1812J-1723D01*
G01*
X382928Y150404D02*
G03*
X383000Y151000I-2428J596D01*
G01*
X383000Y79000D02*
G03*
X380500Y76500I-2500J-0D01*
G01*
D56*
X391818Y150064D02*
D03*
D03*
X387000Y79009D02*
D03*
D03*
X391926Y151602D02*
D03*
D03*
X382175Y77144D02*
D03*
D03*
X387754Y152789D02*
D03*
D03*
X383000Y79000D02*
D03*
X308064Y250152D02*
D03*
X125184Y257772D02*
D03*
X182588Y37300D02*
D03*
X148329Y142425D02*
D03*
X95000Y72606D02*
D03*
X152870Y212814D02*
D03*
X165570Y104356D02*
D03*
X167066Y130772D02*
D03*
X167602Y132804D02*
D03*
Y208242D02*
D03*
X151798Y131554D02*
D03*
X168099Y217397D02*
D03*
X88354Y189700D02*
D03*
X132804Y268948D02*
D03*
X264884Y296888D02*
D03*
X49492Y82512D02*
D03*
X171933Y250343D02*
D03*
X67526Y192494D02*
D03*
X48730Y200439D02*
D03*
X86576Y274282D02*
D03*
X306540Y311620D02*
D03*
X358864Y162776D02*
D03*
X332781Y180985D02*
D03*
X343340Y127700D02*
D03*
X295000Y245834D02*
D03*
X25978Y67272D02*
D03*
X216878Y44666D02*
D03*
X79718Y53048D02*
D03*
X71082Y72098D02*
D03*
X37046Y183604D02*
D03*
X313144Y305524D02*
D03*
X103594Y280886D02*
D03*
X336004Y58636D02*
D03*
X171920Y222974D02*
D03*
X190379Y185890D02*
D03*
X190970Y194780D02*
D03*
X257518Y105372D02*
D03*
X154140Y167856D02*
D03*
X155410Y77940D02*
D03*
X205448Y132804D02*
D03*
X98520Y149290D02*
D03*
X146207Y183972D02*
D03*
X232460Y159090D02*
D03*
X371230Y170540D02*
D03*
X358766Y155000D02*
D03*
X293332Y85738D02*
D03*
Y132550D02*
D03*
X263360Y69050D02*
D03*
X145758Y201130D02*
D03*
X84798Y215354D02*
D03*
X82258Y199595D02*
D03*
X98768Y190462D02*
D03*
X327368Y118072D02*
D03*
X246850Y291276D02*
D03*
X252184Y258534D02*
D03*
X315371Y295000D02*
D03*
X233599Y286605D02*
D03*
X180548Y178160D02*
D03*
X124422Y70828D02*
D03*
X331200Y125160D02*
D03*
X160998Y243673D02*
D03*
X58890Y192240D02*
D03*
X323050D02*
D03*
X327622Y246342D02*
D03*
X49746Y127470D02*
D03*
X101054Y259804D02*
D03*
X175299Y191732D02*
D03*
X191732Y309080D02*
D03*
X-21480Y341920D02*
D03*
X-21374Y346926D02*
D03*
X106480Y133500D02*
D03*
X387040Y215530D02*
D03*
X-21480Y198000D02*
D03*
Y222000D02*
D03*
X16020Y235000D02*
D03*
X48730Y305361D02*
D03*
X-21480Y318000D02*
D03*
X155379Y256112D02*
D03*
X190970Y238600D02*
D03*
X104169Y330000D02*
D03*
X-21480Y393000D02*
D03*
X230000Y334000D02*
D03*
X368520Y128000D02*
D03*
X336480Y188500D02*
D03*
X26765Y397218D02*
D03*
X28156Y155000D02*
D03*
X216878Y52032D02*
D03*
X225260Y53556D02*
D03*
X17234Y45000D02*
D03*
X249644Y305016D02*
D03*
X-9458Y255000D02*
D03*
X-6896Y265000D02*
D03*
X30696Y273526D02*
D03*
X11138Y204432D02*
D03*
X22822Y175000D02*
D03*
X263106Y246088D02*
D03*
X259550Y239412D02*
D03*
X58890Y324320D02*
D03*
X128740Y306794D02*
D03*
X178270Y337274D02*
D03*
X313398Y125184D02*
D03*
X9360Y28410D02*
D03*
X70066Y221000D02*
D03*
X198227Y321911D02*
D03*
X198844Y141948D02*
D03*
X43904Y134836D02*
D03*
X72500Y110250D02*
D03*
X82500D02*
D03*
X92500D02*
D03*
X72500Y100250D02*
D03*
X82500D02*
D03*
X92500D02*
D03*
X72500Y90250D02*
D03*
X82500D02*
D03*
X92500D02*
D03*
X298920Y208242D02*
D03*
D57*
X62500Y112750D02*
D03*
Y107750D02*
D03*
Y102750D02*
D03*
Y97750D02*
D03*
Y92750D02*
D03*
Y87750D02*
D03*
X102500D02*
D03*
Y92750D02*
D03*
Y97750D02*
D03*
Y102750D02*
D03*
Y107750D02*
D03*
Y112750D02*
D03*
D58*
X70000Y80500D02*
D03*
X75000D02*
D03*
X80000D02*
D03*
X85000D02*
D03*
X90000D02*
D03*
X95000D02*
D03*
Y120000D02*
D03*
X90000D02*
D03*
X85000D02*
D03*
X80000D02*
D03*
X75000D02*
D03*
X70000D02*
D03*
D59*
X82500Y100250D02*
D03*
D60*
X230000Y305001D02*
D03*
X218000D02*
D03*
X242000D02*
D03*
D61*
X160000Y315000D02*
D03*
D62*
X345000Y188500D02*
D03*
X115000Y133500D02*
D03*
Y146500D02*
D03*
X345000Y201500D02*
D03*
D63*
X295000Y222750D02*
D03*
Y237250D02*
D03*
D64*
X358000Y128000D02*
D03*
Y121500D02*
D03*
Y115000D02*
D03*
Y108500D02*
D03*
Y102000D02*
D03*
D65*
X308000Y155000D02*
D03*
D66*
X80000Y283001D02*
D03*
D67*
Y308001D02*
D03*
D68*
X4500Y370000D02*
D03*
Y235000D02*
D03*
Y165000D02*
D03*
Y65000D02*
D03*
Y85000D02*
D03*
Y75000D02*
D03*
Y55000D02*
D03*
Y45000D02*
D03*
Y35000D02*
D03*
Y245000D02*
D03*
Y305000D02*
D03*
Y295000D02*
D03*
Y285000D02*
D03*
Y275000D02*
D03*
Y265000D02*
D03*
Y255000D02*
D03*
Y185000D02*
D03*
Y175000D02*
D03*
Y155000D02*
D03*
Y145000D02*
D03*
Y135000D02*
D03*
Y360000D02*
D03*
Y380000D02*
D03*
D69*
X-34250Y393000D02*
D03*
Y318000D02*
D03*
Y347000D02*
D03*
Y222000D02*
D03*
Y198000D02*
D03*
Y122000D02*
D03*
Y98000D02*
D03*
Y22000D02*
D03*
D70*
X332750Y235000D02*
D03*
X317250D02*
D03*
D71*
X268750Y145000D02*
D03*
X261249Y125000D02*
D03*
X273749D02*
D03*
X281250Y145000D02*
D03*
D72*
X306000Y140000D02*
D03*
Y170000D02*
D03*
D73*
X340000Y96000D02*
D03*
Y104000D02*
D03*
Y119000D02*
D03*
Y111000D02*
D03*
D74*
X104500Y45000D02*
D03*
X85500D02*
D03*
X95000Y65000D02*
D03*
D75*
X90000Y133250D02*
D03*
D76*
X385000Y125000D02*
D03*
Y105000D02*
D03*
D77*
X95001Y281001D02*
D03*
X65001D02*
D03*
D78*
X275000Y35000D02*
D03*
D79*
X250000Y380000D02*
D03*
X90000Y15000D02*
D03*
X115000D02*
D03*
X325000Y355000D02*
D03*
X300000D02*
D03*
X275000D02*
D03*
X250000D02*
D03*
X225000D02*
D03*
X200000D02*
D03*
X175000D02*
D03*
X150000D02*
D03*
X125000D02*
D03*
X165000Y15000D02*
D03*
X340000D02*
D03*
X315000D02*
D03*
X290000D02*
D03*
X265000D02*
D03*
X240000D02*
D03*
X215000D02*
D03*
X65000D02*
D03*
X190000D02*
D03*
X140000D02*
D03*
X75000Y380000D02*
D03*
X100000D02*
D03*
X125000D02*
D03*
X150000D02*
D03*
X100000Y355000D02*
D03*
X75000D02*
D03*
X200000Y380000D02*
D03*
X175000D02*
D03*
X225000D02*
D03*
X275000D02*
D03*
X300000D02*
D03*
X325000D02*
D03*
D80*
X370040Y227800D02*
D03*
D81*
X358000Y90000D02*
D03*
Y140000D02*
D03*
D82*
X45000Y355000D02*
D03*
X355000D02*
D03*
X365000Y35000D02*
D03*
X45000Y45000D02*
D03*
M02*
