G04*
G04 #@! TF.GenerationSoftware,Altium Limited,Altium Designer,23.4.1 (23)*
G04*
G04 Layer_Physical_Order=3*
G04 Layer_Color=36540*
%FSLAX44Y44*%
%MOMM*%
G71*
G04*
G04 #@! TF.SameCoordinates,8B5CC119-A6FE-408B-88AA-DF5E01278005*
G04*
G04*
G04 #@! TF.FilePolarity,Positive*
G04*
G01*
G75*
%ADD16C,0.5000*%
%ADD82C,0.7500*%
%ADD86C,0.1500*%
%ADD90C,1.4500*%
%ADD91C,0.9910*%
%ADD92C,4.0000*%
G04:AMPARAMS|DCode=93|XSize=1.524mm|YSize=2mm|CornerRadius=0.381mm|HoleSize=0mm|Usage=FLASHONLY|Rotation=0.000|XOffset=0mm|YOffset=0mm|HoleType=Round|Shape=RoundedRectangle|*
%AMROUNDEDRECTD93*
21,1,1.5240,1.2380,0,0,0.0*
21,1,0.7620,2.0000,0,0,0.0*
1,1,0.7620,0.3810,-0.6190*
1,1,0.7620,-0.3810,-0.6190*
1,1,0.7620,-0.3810,0.6190*
1,1,0.7620,0.3810,0.6190*
%
%ADD93ROUNDEDRECTD93*%
%ADD94C,1.2700*%
D16*
X210000Y345000D02*
D03*
X200000Y355000D02*
D03*
Y345000D02*
D03*
X190000Y355000D02*
D03*
Y345000D02*
D03*
D82*
X40000Y155000D02*
D03*
D86*
X279633Y354627D02*
G03*
X279492Y356683I-9633J373D01*
G01*
X305466Y356423D02*
G03*
X305572Y357695I-9532J1437D01*
G01*
X305466Y356423D02*
G03*
X305420Y356076I9534J-1423D01*
G01*
X287500Y203915D02*
G03*
X287500Y203875I1499J-40D01*
G01*
X322034Y113754D02*
G03*
X322203Y113896I-875J1218D01*
G01*
X315290Y107190D02*
G03*
X315306Y107206I-1045J1077D01*
G01*
X321497Y113368D02*
G03*
X321311Y113211I875J-1218D01*
G01*
X338287Y132326D02*
G03*
X336885Y130843I6266J-7326D01*
G01*
X326065Y117642D02*
G03*
X330556Y122538I-39684J40909D01*
G01*
X123512Y250040D02*
G03*
X120282Y257311I-9640J71D01*
G01*
X123516Y248966D02*
G03*
X123516Y249099I-9640J94D01*
G01*
X305681Y203614D02*
G03*
X302105Y199667I35921J-36141D01*
G01*
X332936Y225240D02*
G03*
X332155Y224369I6771J-6862D01*
G01*
X305693Y203626D02*
G03*
X305681Y203614I35909J-36153D01*
G01*
X309034Y101121D02*
G03*
X308722Y100810I11189J-11534D01*
G01*
X369662Y159369D02*
G03*
X369659Y159366I1053J-1069D01*
G01*
X368136Y157855D02*
G03*
X369462Y159140I-5636J7145D01*
G01*
D02*
G03*
X369598Y159305I-6962J5860D01*
G01*
X244629Y187897D02*
G03*
X244630Y188204I-9639J172D01*
G01*
X41440Y243440D02*
X71560D01*
X72500Y242500D01*
X73660Y328236D02*
Y353060D01*
X70000Y324576D02*
X73660Y328236D01*
X70000Y302784D02*
Y324576D01*
X39370Y107950D02*
X60960D01*
X66040Y102870D01*
Y71120D02*
X110490Y26670D01*
X66040Y71120D02*
Y102870D01*
X151475Y261844D02*
Y290828D01*
X145601Y255970D02*
X151475Y261844D01*
X115360Y326942D02*
X151475Y290828D01*
X261399Y348278D02*
X270000Y355000D01*
X277398Y296848D02*
X279633Y354627D01*
X278320Y361386D02*
X278743Y360964D01*
X260520Y347399D02*
X261399Y348278D01*
X259645Y346523D02*
X260520Y347399D01*
X244039Y263489D02*
X277398Y296848D01*
X278743Y360964D02*
X279492Y356683D01*
X122500Y182500D02*
X132500Y172500D01*
X122500Y182500D02*
Y188729D01*
X132500Y172500D02*
X143050Y161950D01*
X305572Y357695D02*
X306190Y393810D01*
X304930Y351713D02*
X305420Y356076D01*
X304927Y351710D02*
X304930Y351713D01*
X306190Y393810D02*
X310000Y400000D01*
X144456Y68039D02*
X145145D01*
X172483Y40700D01*
X374215Y104747D02*
X434577Y174923D01*
X282500Y329283D02*
X304927Y351710D01*
X167551Y330051D02*
X205000D01*
X259645Y332145D02*
Y346523D01*
X429684Y193812D02*
X466594Y230722D01*
X429684Y188551D02*
Y193812D01*
X466594Y230722D02*
Y230983D01*
X356083Y110000D02*
X435726Y189643D01*
X452150D01*
X344553Y125000D02*
X366133D01*
X165000Y327500D02*
X167551Y330051D01*
X210000D02*
X257551D01*
X190000Y345000D02*
Y355000D01*
Y330457D02*
Y345000D01*
X200000Y330457D02*
Y345000D01*
X205000Y330051D02*
X210000D01*
X127029Y328900D02*
X139401Y316528D01*
X165000Y317215D02*
X165147Y317068D01*
X164938Y317277D02*
X165000Y317215D01*
X140360Y317487D02*
X140570Y317277D01*
X164938D01*
X282500Y240000D02*
Y329283D01*
X285000Y82500D02*
X289723Y87224D01*
X285000Y54730D02*
X285889Y53840D01*
X285000Y54730D02*
Y82500D01*
X289723Y87224D02*
Y147575D01*
X312500Y80000D02*
Y91671D01*
X325576Y104747D02*
X374215D01*
X312500Y91671D02*
X325576Y104747D01*
X366133Y125000D02*
X429684Y188551D01*
X370529Y160236D02*
X392452Y189529D01*
X392923Y190000D01*
X417500D01*
X287817Y220023D02*
X287915Y219766D01*
X287500Y175879D02*
Y203875D01*
X287500Y203915D02*
X287915Y219470D01*
Y219766D01*
X283781Y230650D02*
X287817Y220023D01*
X288379Y175000D02*
X302500D01*
X287500Y175879D02*
X288379Y175000D01*
X323515Y196015D02*
Y213479D01*
X302500Y175000D02*
X323515Y196015D01*
X305360Y97365D02*
X308722Y100810D01*
X297260Y67974D02*
Y89265D01*
X305360Y97365D01*
X323109Y110058D02*
X332480D01*
X302521Y89471D02*
X323109Y110058D01*
X233300Y44200D02*
X292765D01*
X307868Y59303D01*
X277983Y40218D02*
X332500D01*
X277500Y40700D02*
X277983Y40218D01*
X302521Y76346D02*
X307868Y70999D01*
Y59303D02*
Y70999D01*
X302521Y76346D02*
Y89471D01*
X309034Y101121D02*
X315290Y107190D01*
X322203Y113896D02*
X326065Y117642D01*
X315306Y107206D02*
X321311Y113211D01*
X321497Y113368D02*
X322034Y113754D01*
X332539Y110000D02*
X356083D01*
X332480Y110058D02*
X332539Y110000D01*
X434577Y174923D02*
X434582D01*
X434610Y174894D01*
X332936Y225240D02*
X427729Y318771D01*
X442821Y333863D01*
Y389448D01*
X437250Y372750D02*
Y395000D01*
Y372750D02*
X437500Y372500D01*
X305693Y203626D02*
X414784Y312716D01*
X305692Y203624D02*
X305693Y203626D01*
X414784Y312716D02*
X437500Y335433D01*
Y372500D01*
X330556Y122538D02*
X336885Y130843D01*
X338287Y132326D02*
X368136Y157855D01*
X425626Y207621D02*
X427140Y206107D01*
Y204901D02*
Y206107D01*
X123435Y240774D02*
X123516Y248966D01*
X123512Y250040D02*
X123516Y249099D01*
X122500Y188729D02*
X123435Y240774D01*
X217500Y60000D02*
X233300Y44200D01*
X347500Y297500D02*
Y355000D01*
X331250Y281250D02*
X347500Y297500D01*
X347500D01*
X300199Y272699D02*
X308750Y281250D01*
X331250D01*
X300199Y239827D02*
Y272699D01*
X143050Y73959D02*
Y161950D01*
X165000Y317215D02*
Y327500D01*
X297644Y190239D02*
X301838Y199149D01*
X323515Y213479D02*
X332155Y224369D01*
X301838Y199149D02*
X302105Y199667D01*
X416276Y207500D02*
X425626Y207621D01*
X359057Y207500D02*
X416276D01*
X454982Y62656D02*
Y65553D01*
X451400Y69135D02*
X454982Y65553D01*
X449057Y45490D02*
X450670D01*
X443785Y40218D02*
X449057Y45490D01*
X485000Y230000D02*
X497140Y217860D01*
X487860Y143993D02*
X497140Y153273D01*
Y217860D01*
X115360Y326942D02*
Y341493D01*
X145601Y221700D02*
Y255970D01*
X115360Y341493D02*
X140264Y366396D01*
X150000Y180000D02*
Y217301D01*
X140264Y366396D02*
X194966D01*
X139401Y316528D02*
X140360Y317487D01*
X145601Y221700D02*
X150000Y217301D01*
X194966Y366396D02*
X219870Y391300D01*
X144129Y183238D02*
X150000Y180000D01*
X332500Y40218D02*
X443785D01*
X332425Y40293D02*
Y59800D01*
Y40293D02*
X332500Y40218D01*
X172483Y40700D02*
X277500D01*
X487860Y81883D02*
Y143993D01*
X451471Y45494D02*
X487860Y81883D01*
X453964Y378149D02*
X479431Y357987D01*
X480000Y231401D02*
Y357432D01*
X479499Y357933D02*
X480000Y357432D01*
X479431Y357987D02*
X479499Y357933D01*
X72500Y192500D02*
X74987Y190013D01*
X84987D01*
X102500Y172500D01*
X72500Y192500D02*
Y242500D01*
X200000Y355000D02*
X205000Y350000D01*
Y330051D02*
Y350000D01*
X210000Y330051D02*
Y345000D01*
Y330051D02*
X210000Y330051D01*
X257551D02*
X259645Y332145D01*
X125000Y337500D02*
X127029Y335471D01*
Y328900D02*
Y335471D01*
X143705Y183662D02*
X144129Y183238D01*
X442821Y389448D02*
X455552D01*
X455685Y389315D02*
X495783D01*
X455552Y389448D02*
X455685Y389315D01*
X496745Y388879D02*
X497500Y388124D01*
X496346Y389278D02*
X496745Y388879D01*
X495783Y389315D02*
X496346Y389278D01*
X497500Y277500D02*
Y388124D01*
X437250Y396621D02*
X441708Y401079D01*
X463908D01*
X437250Y395000D02*
Y396621D01*
X451400Y69135D02*
Y133900D01*
X289723Y147575D02*
X358495Y207500D01*
X359057Y207500D01*
X369598Y159305D02*
X369659Y159366D01*
X369662Y159369D02*
X370529Y160236D01*
X70851Y301311D02*
X120282Y257311D01*
X70000Y302162D02*
X70851Y301311D01*
X282500Y240000D02*
X282671Y239829D01*
X283781Y230650D01*
X243165Y105665D02*
X244629Y187897D01*
X243600Y261812D02*
X244630Y188204D01*
X197500Y60000D02*
X243165Y105665D01*
X243600Y261812D02*
Y263050D01*
X266506Y373156D02*
X278320Y361386D01*
X243600Y263050D02*
X244039Y263489D01*
X249594Y373156D02*
X266506D01*
X451400Y133900D02*
X460000Y142500D01*
X70000Y302784D02*
X70000Y302162D01*
X222500Y418929D02*
Y431070D01*
X228680Y412250D02*
X241320D01*
X153679Y412250D02*
X154179Y412749D01*
X216320D01*
X222500Y431070D02*
X228680Y437250D01*
X241320D02*
X247749Y430820D01*
Y418680D02*
Y430820D01*
X219870Y391300D02*
Y403440D01*
X228680Y437250D02*
X241320D01*
X247749Y418680D02*
X254179Y412250D01*
X219870Y403440D02*
X228680Y412250D01*
X254179D02*
X316320D01*
X244870Y397820D02*
Y408700D01*
X241320Y412250D02*
X244870Y408700D01*
Y397820D02*
X248130Y394560D01*
X216320Y412749D02*
X222500Y418929D01*
X235000Y387750D02*
Y400000D01*
Y387750D02*
X249594Y373156D01*
X254560Y394560D02*
X260000Y400000D01*
X248130Y394560D02*
X254560D01*
X391320Y387750D02*
X400820Y397250D01*
X328680Y387750D02*
X391320D01*
X400820Y397250D02*
X435000D01*
X437250Y395000D01*
X135000Y413128D02*
Y425000D01*
X322500Y393930D02*
X328680Y387750D01*
X316320Y412250D02*
X322500Y406071D01*
X135000Y413128D02*
X135878Y412250D01*
X153679D01*
X322500Y393930D02*
Y406071D01*
D90*
X41440Y193440D02*
D03*
Y243440D02*
D03*
D91*
X49022Y92456D02*
D03*
X38862Y41656D02*
D03*
X28702Y92456D02*
D03*
D92*
X110000Y70000D02*
D03*
X415000Y375000D02*
D03*
Y70000D02*
D03*
X110000Y375000D02*
D03*
D93*
X385000Y425000D02*
D03*
X385000Y400000D02*
D03*
X360000D02*
D03*
X360000Y425000D02*
D03*
X334999Y424080D02*
D03*
X335000Y400000D02*
D03*
X310000D02*
D03*
X310000Y424999D02*
D03*
X285000D02*
D03*
Y400000D02*
D03*
X260000D02*
D03*
Y424999D02*
D03*
X235000Y425000D02*
D03*
X210000Y400000D02*
D03*
Y424999D02*
D03*
X185000Y425000D02*
D03*
X185000Y400000D02*
D03*
X160000D02*
D03*
Y424999D02*
D03*
X135000Y425000D02*
D03*
Y400000D02*
D03*
X410000Y27500D02*
D03*
X385000D02*
D03*
X360000D02*
D03*
X335000Y27500D02*
D03*
X307500D02*
D03*
X285000D02*
D03*
X260000D02*
D03*
X235000D02*
D03*
X185000D02*
D03*
X160000D02*
D03*
X135000D02*
D03*
X235000Y400000D02*
D03*
X210000Y27500D02*
D03*
D94*
X176224Y244140D02*
D03*
X182884Y263043D02*
D03*
X135167Y241018D02*
D03*
X378460Y50800D02*
D03*
X73660Y353060D02*
D03*
X53340Y347980D02*
D03*
X110490Y26670D02*
D03*
X39370Y107950D02*
D03*
X442500Y310000D02*
D03*
X461017Y311896D02*
D03*
X140000Y265000D02*
D03*
X270000Y355000D02*
D03*
X295933Y357860D02*
D03*
X315000Y355000D02*
D03*
X144456Y68039D02*
D03*
X113097Y249460D02*
D03*
X315575Y314617D02*
D03*
X165080Y214964D02*
D03*
X331780Y77488D02*
D03*
X189967Y320411D02*
D03*
X339743Y217618D02*
D03*
X278178Y215961D02*
D03*
X285889Y53840D02*
D03*
X297260Y67974D02*
D03*
X434610Y174894D02*
D03*
X344553Y125000D02*
D03*
X198199Y294622D02*
D03*
X427140Y204901D02*
D03*
X330000Y95107D02*
D03*
X466594Y230983D02*
D03*
X183501Y213636D02*
D03*
X165147Y317068D02*
D03*
X242471Y310097D02*
D03*
X346371Y272556D02*
D03*
X297644Y190239D02*
D03*
X454982Y62656D02*
D03*
X450670Y45490D02*
D03*
X487500Y202500D02*
D03*
X141834Y286835D02*
D03*
X311717Y291837D02*
D03*
X140360Y317487D02*
D03*
X150000Y180000D02*
D03*
X132500Y172500D02*
D03*
X79459Y39459D02*
D03*
X315640Y51615D02*
D03*
X453964Y378149D02*
D03*
X463908Y401079D02*
D03*
X444529Y28707D02*
D03*
X278140Y119610D02*
D03*
X304267Y118510D02*
D03*
X320986Y157774D02*
D03*
X361950Y168742D02*
D03*
X417500Y190000D02*
D03*
X217190Y296580D02*
D03*
X76725Y120105D02*
D03*
X172500Y167500D02*
D03*
X361816Y69317D02*
D03*
X401890Y177500D02*
D03*
X312500Y80000D02*
D03*
X332425Y59800D02*
D03*
X166994Y283260D02*
D03*
X180776Y297740D02*
D03*
X155241Y251977D02*
D03*
X87500Y255000D02*
D03*
X125000Y337500D02*
D03*
X167500Y377500D02*
D03*
X260000Y250000D02*
D03*
X300199Y239827D02*
D03*
X282500Y240000D02*
D03*
X312500Y335000D02*
D03*
X347500Y355000D02*
D03*
X392500Y342500D02*
D03*
X452150Y189643D02*
D03*
X328639Y270992D02*
D03*
X234991Y188069D02*
D03*
X102500Y172500D02*
D03*
X67225Y167696D02*
D03*
X485000Y230000D02*
D03*
X463860Y257797D02*
D03*
X460015Y275075D02*
D03*
X505000Y260000D02*
D03*
X464873Y294621D02*
D03*
X287500Y379100D02*
D03*
X497500Y277500D02*
D03*
X462484Y122516D02*
D03*
X97500Y237500D02*
D03*
X475000Y110000D02*
D03*
X497500Y122500D02*
D03*
X500000Y142500D02*
D03*
X55957Y120621D02*
D03*
X460000Y142500D02*
D03*
X102500Y337500D02*
D03*
X217500Y60000D02*
D03*
X197500D02*
D03*
M02*
