G04*
G04 #@! TF.GenerationSoftware,Altium Limited,Altium Designer,23.4.1 (23)*
G04*
G04 Layer_Color=128*
%FSLAX44Y44*%
%MOMM*%
G71*
G04*
G04 #@! TF.SameCoordinates,85AF0129-C820-498D-97AF-9D942E21B237*
G04*
G04*
G04 #@! TF.FilePolarity,Positive*
G04*
G01*
G75*
%ADD29R,1.5500X0.6000*%
%ADD30R,1.8000X1.2000*%
%ADD37R,0.7500X1.0000*%
%ADD38R,1.1000X2.0500*%
%ADD52R,0.7000X1.3000*%
%ADD53R,0.5000X0.4000*%
%ADD54R,0.4000X0.5000*%
%ADD93R,1.7000X1.5000*%
%ADD94R,1.5000X1.7000*%
%ADD95R,1.6800X0.8000*%
%ADD96R,1.5000X1.6000*%
%ADD97R,1.4000X1.2900*%
%ADD98R,1.3000X1.2900*%
%ADD99R,0.8500X0.7000*%
%ADD100R,1.0000X0.7500*%
%ADD101R,1.4000X0.3800*%
%ADD102R,2.4000X1.9000*%
D29*
X370500Y-40000D02*
D03*
Y-30000D02*
D03*
Y-20000D02*
D03*
Y0D02*
D03*
Y10000D02*
D03*
Y-10000D02*
D03*
X370500Y345000D02*
D03*
Y325000D02*
D03*
Y335000D02*
D03*
Y55000D02*
D03*
Y65000D02*
D03*
Y75000D02*
D03*
Y95000D02*
D03*
Y105000D02*
D03*
Y85000D02*
D03*
D30*
X409250Y-53000D02*
D03*
Y23000D02*
D03*
X409250Y312000D02*
D03*
Y358000D02*
D03*
Y42000D02*
D03*
Y118000D02*
D03*
D37*
X147500Y84999D02*
D03*
X162500D02*
D03*
X147500Y70000D02*
D03*
X162500D02*
D03*
D38*
X128500Y-15000D02*
D03*
X161499D02*
D03*
D52*
X137999Y15000D02*
D03*
X156999D02*
D03*
D53*
X120000Y56000D02*
D03*
Y64000D02*
D03*
X120000Y28500D02*
D03*
Y36500D02*
D03*
X30000Y21000D02*
D03*
Y29000D02*
D03*
D54*
X131000Y45000D02*
D03*
X139000D02*
D03*
D93*
X410000Y280000D02*
D03*
Y145000D02*
D03*
D94*
X261500Y277000D02*
D03*
D95*
X262400Y186500D02*
D03*
Y164500D02*
D03*
Y175500D02*
D03*
Y197500D02*
D03*
Y208500D02*
D03*
Y219500D02*
D03*
Y230500D02*
D03*
Y241500D02*
D03*
D96*
X261500Y150400D02*
D03*
D97*
X352000Y143950D02*
D03*
D98*
X278000D02*
D03*
D99*
X155000Y46250D02*
D03*
Y33750D02*
D03*
X192500Y-16250D02*
D03*
Y-28750D02*
D03*
D100*
X27500Y80000D02*
D03*
Y95000D02*
D03*
D101*
X99300Y40250D02*
D03*
Y66250D02*
D03*
Y59750D02*
D03*
X45700Y7750D02*
D03*
Y14250D02*
D03*
Y85750D02*
D03*
Y92250D02*
D03*
X99300D02*
D03*
Y85750D02*
D03*
Y14250D02*
D03*
Y7750D02*
D03*
Y20750D02*
D03*
Y27250D02*
D03*
Y33750D02*
D03*
Y46750D02*
D03*
Y53250D02*
D03*
Y72750D02*
D03*
Y79250D02*
D03*
X45700D02*
D03*
Y72750D02*
D03*
Y66250D02*
D03*
Y59750D02*
D03*
Y53250D02*
D03*
Y46750D02*
D03*
Y40250D02*
D03*
Y33750D02*
D03*
Y27250D02*
D03*
Y20750D02*
D03*
D102*
X1Y39500D02*
D03*
Y80501D02*
D03*
M02*
