G04*
G04 #@! TF.GenerationSoftware,Altium Limited,Altium Designer,23.4.1 (23)*
G04*
G04 Layer_Color=8421504*
%FSLAX44Y44*%
%MOMM*%
G71*
G04*
G04 #@! TF.SameCoordinates,E8E7B276-8895-4430-90FA-F2E57970A6A3*
G04*
G04*
G04 #@! TF.FilePolarity,Positive*
G04*
G01*
G75*
%ADD11C,0.5000*%
%ADD14R,0.6000X0.5000*%
%ADD15R,0.6000X0.5000*%
%ADD16R,1.0000X1.7500*%
%ADD17C,0.5000*%
%ADD18R,0.5725X0.5682*%
%ADD19R,0.8000X0.9500*%
%ADD20R,1.8000X0.6000*%
G04:AMPARAMS|DCode=21|XSize=1.9mm|YSize=3.2mm|CornerRadius=0mm|HoleSize=0mm|Usage=FLASHONLY|Rotation=270.000|XOffset=0mm|YOffset=0mm|HoleType=Round|Shape=Octagon|*
%AMOCTAGOND21*
4,1,8,1.6000,0.4750,1.6000,-0.4750,1.1250,-0.9500,-1.1250,-0.9500,-1.6000,-0.4750,-1.6000,0.4750,-1.1250,0.9500,1.1250,0.9500,1.6000,0.4750,0.0*
%
%ADD21OCTAGOND21*%

%ADD22R,1.4000X0.6000*%
G04:AMPARAMS|DCode=23|XSize=0.3125mm|YSize=1.7883mm|CornerRadius=0.1562mm|HoleSize=0mm|Usage=FLASHONLY|Rotation=180.000|XOffset=0mm|YOffset=0mm|HoleType=Round|Shape=RoundedRectangle|*
%AMROUNDEDRECTD23*
21,1,0.3125,1.4758,0,0,180.0*
21,1,0.0000,1.7883,0,0,180.0*
1,1,0.3125,0.0000,0.7379*
1,1,0.3125,0.0000,0.7379*
1,1,0.3125,0.0000,-0.7379*
1,1,0.3125,0.0000,-0.7379*
%
%ADD23ROUNDEDRECTD23*%
G04:AMPARAMS|DCode=24|XSize=1.7883mm|YSize=0.3125mm|CornerRadius=0.1562mm|HoleSize=0mm|Usage=FLASHONLY|Rotation=180.000|XOffset=0mm|YOffset=0mm|HoleType=Round|Shape=RoundedRectangle|*
%AMROUNDEDRECTD24*
21,1,1.7883,0.0000,0,0,180.0*
21,1,1.4758,0.3125,0,0,180.0*
1,1,0.3125,-0.7379,0.0000*
1,1,0.3125,0.7379,0.0000*
1,1,0.3125,0.7379,0.0000*
1,1,0.3125,-0.7379,0.0000*
%
%ADD24ROUNDEDRECTD24*%
%ADD25R,1.7883X0.3125*%
%ADD26R,1.3500X0.4000*%
%ADD27R,1.9000X1.5000*%
%ADD28R,0.8000X1.7000*%
%ADD29R,1.5500X0.6000*%
%ADD30R,1.8000X1.2000*%
%ADD31R,0.9000X2.1000*%
%ADD32R,3.2000X2.1000*%
%ADD33R,2.8400X6.8000*%
%ADD34R,1.0121X1.2084*%
%ADD35R,0.5200X0.5200*%
%ADD36R,0.5200X0.5200*%
%ADD37R,0.7500X1.0000*%
%ADD38R,1.1000X2.0500*%
%ADD39R,0.9500X0.8000*%
%ADD40R,0.8500X0.9500*%
%ADD41R,0.9000X1.0500*%
%ADD42R,0.4500X0.4500*%
%ADD43R,1.2500X1.1000*%
%ADD44R,0.5000X0.3500*%
%ADD45R,0.9500X0.8500*%
%ADD46R,0.3500X0.8000*%
%ADD47R,0.8500X0.3500*%
%ADD48R,2.6000X2.7000*%
%ADD49R,2.0000X0.4000*%
G04:AMPARAMS|DCode=50|XSize=0.7311mm|YSize=0.3025mm|CornerRadius=0.1512mm|HoleSize=0mm|Usage=FLASHONLY|Rotation=180.000|XOffset=0mm|YOffset=0mm|HoleType=Round|Shape=RoundedRectangle|*
%AMROUNDEDRECTD50*
21,1,0.7311,0.0000,0,0,180.0*
21,1,0.4286,0.3025,0,0,180.0*
1,1,0.3025,-0.2143,0.0000*
1,1,0.3025,0.2143,0.0000*
1,1,0.3025,0.2143,0.0000*
1,1,0.3025,-0.2143,0.0000*
%
%ADD50ROUNDEDRECTD50*%
%ADD51R,0.9121X0.9587*%
%ADD52R,0.7000X1.3000*%
%ADD53R,0.5000X0.4000*%
%ADD54R,0.4000X0.5000*%
%ADD55R,0.7311X0.3025*%
G36*
X-55000Y111500D02*
X-74000D01*
Y124500D01*
X-55000D01*
Y111500D01*
D02*
G37*
G36*
X-60000Y106500D02*
X-69000Y106500D01*
Y111500D01*
X-60000D01*
Y106500D01*
D02*
G37*
G36*
X-60000Y183500D02*
X-69000D01*
Y188500D01*
X-60000Y188500D01*
Y183500D01*
D02*
G37*
G36*
X-55000Y170500D02*
X-74000D01*
Y183500D01*
X-55000D01*
Y170500D01*
D02*
G37*
D11*
X-58724Y113650D02*
G03*
X-62291Y112500I-1276J-2150D01*
G01*
X-57709D02*
G03*
X-58724Y113650I-2291J-1000D01*
G01*
D02*
G03*
X-62291Y112500I-1276J-2150D01*
G01*
X-57709D02*
G03*
X-58724Y113650I-2291J-1000D01*
G01*
Y109350D02*
G03*
X-57709Y112500I-1276J2150D01*
G01*
X-62500Y111500D02*
G03*
X-58724Y109350I2500J0D01*
G01*
D02*
G03*
X-57709Y112500I-1276J2150D01*
G01*
X-62500Y111500D02*
G03*
X-58724Y109350I2500J0D01*
G01*
X-69909Y109171D02*
G03*
X-69771Y109122I909J2329D01*
G01*
X-69909Y109171D02*
G03*
X-69771Y109122I909J2329D01*
G01*
X-69771Y109122D02*
G03*
X-69229Y109011I771J2378D01*
G01*
X-69771Y109122D02*
G03*
X-69229Y109011I771J2378D01*
G01*
X-69771Y109122D02*
G03*
X-69229Y109011I771J2378D01*
G01*
X-69771Y109122D02*
G03*
X-69229Y109011I771J2378D01*
G01*
X-69228Y109010D02*
G03*
X-69000Y109000I228J2490D01*
G01*
X-69228Y109010D02*
G03*
X-69000Y109000I228J2490D01*
G01*
X-69228Y109010D02*
G03*
X-69000Y109000I228J2490D01*
G01*
X-69228Y109010D02*
G03*
X-69000Y109000I228J2490D01*
G01*
X-71291Y110500D02*
G03*
X-69910Y109171I2291J1000D01*
G01*
X-71291Y110500D02*
G03*
X-69910Y109171I2291J1000D01*
G01*
X-69909Y109171D02*
G03*
X-69771Y109122I909J2329D01*
G01*
X-69909Y109171D02*
G03*
X-69771Y109122I909J2329D01*
G01*
X-71291Y110500D02*
G03*
X-69910Y109171I2291J1000D01*
G01*
X-71291Y110500D02*
G03*
X-69910Y109171I2291J1000D01*
G01*
X-69000Y109000D02*
G03*
X-67255Y109710I0J2500D01*
G01*
X-69000Y109000D02*
G03*
X-67255Y109710I0J2500D01*
G01*
X-69000Y109000D02*
G03*
X-67255Y109710I0J2500D01*
G01*
X-69000Y109000D02*
G03*
X-67255Y109710I0J2500D01*
G01*
X-71489Y111269D02*
G03*
X-71489Y111268I2489J231D01*
G01*
X-71490Y111271D02*
G03*
X-71489Y111269I2490J229D01*
G01*
Y111269D02*
G03*
X-71489Y111268I2489J231D01*
G01*
X-71490Y111271D02*
G03*
X-71489Y111269I2490J229D01*
G01*
X-71490Y111271D02*
G03*
X-71489Y111269I2490J229D01*
G01*
Y111269D02*
G03*
X-71489Y111268I2489J231D01*
G01*
X-71489Y111269D02*
G03*
X-71489Y111268I2489J231D01*
G01*
X-71500Y111500D02*
G03*
X-71496Y111362I2500J0D01*
G01*
X-71500Y111500D02*
G03*
X-71496Y111362I2500J0D01*
G01*
X-71496Y111361D02*
G03*
X-71490Y111272I2496J139D01*
G01*
X-71496Y111362D02*
G03*
X-71496Y111361I2496J138D01*
G01*
X-71500Y111500D02*
G03*
X-71496Y111362I2500J0D01*
G01*
X-71500Y111500D02*
G03*
X-71496Y111362I2500J0D01*
G01*
X-71496Y111361D02*
G03*
X-71490Y111272I2496J139D01*
G01*
X-71496Y111362D02*
G03*
X-71496Y111361I2496J138D01*
G01*
X-71490Y111271D02*
G03*
X-71489Y111269I2490J229D01*
G01*
X-71496Y111361D02*
G03*
X-71490Y111272I2496J139D01*
G01*
X-71496Y111362D02*
G03*
X-71496Y111361I2496J138D01*
G01*
D02*
G03*
X-71490Y111272I2496J139D01*
G01*
X-71496Y111362D02*
G03*
X-71496Y111361I2496J138D01*
G01*
X-71384Y110747D02*
G03*
X-71329Y110591I2384J753D01*
G01*
X-71384Y110747D02*
G03*
X-71329Y110591I2384J753D01*
G01*
X-71384Y110747D02*
G03*
X-71329Y110591I2384J753D01*
G01*
X-71426Y110897D02*
G03*
X-71384Y110748I2426J603D01*
G01*
X-71426Y110897D02*
G03*
X-71384Y110748I2426J603D01*
G01*
X-71329Y110591D02*
G03*
X-71291Y110500I2329J909D01*
G01*
X-71329Y110591D02*
G03*
X-71291Y110500I2329J909D01*
G01*
X-71329Y110591D02*
G03*
X-71291Y110500I2329J909D01*
G01*
X-71384Y110747D02*
G03*
X-71329Y110591I2384J753D01*
G01*
X-71329Y110591D02*
G03*
X-71291Y110500I2329J909D01*
G01*
X-71426Y110897D02*
G03*
X-71384Y110748I2426J603D01*
G01*
X-71500Y111501D02*
G03*
X-71500Y111500I2500J-1D01*
G01*
X-71318Y112436D02*
G03*
X-71500Y111501I2318J-936D01*
G01*
X-71426Y110897D02*
G03*
X-71384Y110748I2426J603D01*
G01*
X-71500Y111501D02*
G03*
X-71500Y111500I2500J-1D01*
G01*
X-71318Y112436D02*
G03*
X-71500Y111501I2318J-936D01*
G01*
X-71291Y112500D02*
G03*
X-71318Y112437I2291J-1000D01*
G01*
X-71291Y112500D02*
G03*
X-71318Y112437I2291J-1000D01*
G01*
X-71291Y112500D02*
G03*
X-71318Y112437I2291J-1000D01*
G01*
X-71291Y112500D02*
G03*
X-71318Y112437I2291J-1000D01*
G01*
X-67484Y181512D02*
G03*
X-66834Y182253I-1516J1988D01*
G01*
X-67484Y181512D02*
G03*
X-66834Y182253I-1516J1988D01*
G01*
X-62291Y112500D02*
G03*
X-62428Y112096I2291J-1000D01*
G01*
X-62291Y112500D02*
G03*
X-62428Y112096I2291J-1000D01*
G01*
X-66834Y182253D02*
G03*
X-66558Y182964I-2166J1247D01*
G01*
X-66834Y182253D02*
G03*
X-66558Y182964I-2166J1247D01*
G01*
X-66558Y182965D02*
G03*
X-66509Y183290I-2442J536D01*
G01*
X-66558Y182965D02*
G03*
X-66509Y183290I-2442J536D01*
G01*
Y183290D02*
G03*
X-66500Y183468I-2491J210D01*
G01*
Y183468D02*
G03*
X-66500Y183487I-2500J32D01*
G01*
X-66500Y183468D02*
G03*
X-66500Y183487I-2500J32D01*
G01*
D02*
G03*
X-66500Y183490I-2500J14D01*
G01*
Y183490D02*
Y183491D01*
Y183487D02*
G03*
X-66500Y183490I-2500J14D01*
G01*
Y183490D02*
Y183491D01*
Y183491D02*
G03*
X-66500Y183495I-2500J9D01*
G01*
X-66500Y183491D02*
G03*
X-66500Y183495I-2500J9D01*
G01*
X-66999Y110002D02*
G03*
X-66998Y110003I-2001J1498D01*
G01*
X-66999Y110002D02*
G03*
X-66998Y110003I-2001J1498D01*
G01*
X-71489Y111268D02*
G03*
X-71427Y110900I2489J232D01*
G01*
X-71489Y111268D02*
G03*
X-71427Y110900I2489J232D01*
G01*
X-71489Y111268D02*
G03*
X-71427Y110900I2489J232D01*
G01*
X-71489Y111268D02*
G03*
X-71427Y110900I2489J232D01*
G01*
X-66709Y112501D02*
G03*
X-71291Y112500I-2291J-1001D01*
G01*
X-66997Y110003D02*
G03*
X-66709Y112500I-2003J1497D01*
G01*
X-66709Y112501D02*
G03*
X-71291Y112500I-2291J-1001D01*
G01*
X-66709Y112501D02*
G03*
X-71291Y112500I-2291J-1001D01*
G01*
X-66709Y112501D02*
G03*
X-71291Y112500I-2291J-1001D01*
G01*
X-66997Y110003D02*
G03*
X-66709Y112500I-2003J1497D01*
G01*
X-66709Y112500D02*
X-66709Y112501D01*
X-66709Y112500D02*
X-66709Y112501D01*
X-66500Y183495D02*
G03*
X-66500Y183500I-2500J5D01*
G01*
Y183495D02*
G03*
X-66500Y183500I-2500J5D01*
G01*
X-70106Y181258D02*
G03*
X-69907Y181171I1106J2242D01*
G01*
X-70106Y181258D02*
G03*
X-69907Y181171I1106J2242D01*
G01*
X-71130Y182192D02*
G03*
X-70106Y181258I2130J1309D01*
G01*
X-71500Y183500D02*
G03*
X-71130Y182192I2500J0D01*
G01*
X-67907Y181252D02*
G03*
X-67753Y181334I-1094J2248D01*
G01*
X-69907Y181170D02*
G03*
X-67907Y181252I907J2330D01*
G01*
X-71500Y183500D02*
G03*
X-71130Y182192I2500J0D01*
G01*
D02*
G03*
X-70106Y181258I2130J1309D01*
G01*
X-67907Y181252D02*
G03*
X-67753Y181334I-1094J2248D01*
G01*
X-67752Y181334D02*
G03*
X-67484Y181512I-1248J2166D01*
G01*
X-67752Y181334D02*
G03*
X-67484Y181512I-1248J2166D01*
G01*
X-69907Y181170D02*
G03*
X-67907Y181252I907J2330D01*
G01*
X-66500Y183500D02*
G03*
X-71500Y183500I-2500J0D01*
G01*
X-71427Y110900D02*
X-71427Y110899D01*
X-71427Y110900D02*
X-71427Y110899D01*
X-67254Y109711D02*
G03*
X-67253Y109712I-1746J1789D01*
G01*
X-67254Y109711D02*
G03*
X-67253Y109712I-1746J1789D01*
G01*
X-67253Y109712D02*
G03*
X-67190Y109776I-1748J1788D01*
G01*
X-67253Y109712D02*
G03*
X-67190Y109776I-1748J1788D01*
G01*
X-67190Y109776D02*
G03*
X-67189Y109777I-1810J1724D01*
G01*
X-67190Y109776D02*
G03*
X-67189Y109777I-1810J1724D01*
G01*
X-62500Y183500D02*
G03*
X-60001Y186000I2500J0D01*
G01*
X-61675Y185356D02*
G03*
X-62500Y183501I1675J-1856D01*
G01*
X-61675Y185356D02*
G03*
X-62500Y183501I1675J-1856D01*
G01*
X-60001Y186000D02*
G03*
X-61675Y185356I0J-2500D01*
G01*
X-60001Y186000D02*
G03*
X-61675Y185356I0J-2500D01*
G01*
X-67255Y109711D02*
X-67254Y109711D01*
X-67255Y109711D02*
X-67254Y109711D01*
X-67188Y109778D02*
G03*
X-66999Y110001I-1812J1723D01*
G01*
X-67188Y109778D02*
G03*
X-66999Y110001I-1812J1723D01*
G01*
X-62428Y112096D02*
G03*
X-62500Y111500I2428J-596D01*
G01*
X-62500Y183501D02*
Y183500D01*
Y183500D02*
G03*
X-60000Y186000I2500J0D01*
G01*
D14*
X340000Y170000D02*
D03*
X320000Y179500D02*
D03*
D15*
Y160500D02*
D03*
D16*
X309999Y260001D02*
D03*
D17*
X-71318Y112436D02*
D03*
D03*
X-66500Y183491D02*
D03*
D03*
X-71427Y110898D02*
D03*
D03*
X-67253Y109712D02*
D03*
D03*
X-67255Y109710D02*
D03*
D03*
X-61675Y185356D02*
D03*
D03*
D18*
X142500Y222978D02*
D03*
Y232022D02*
D03*
D19*
X256500Y155000D02*
D03*
X243500D02*
D03*
X183750Y22500D02*
D03*
X171250D02*
D03*
X148500Y32500D02*
D03*
X201250Y35000D02*
D03*
X188750D02*
D03*
X161500Y32500D02*
D03*
D20*
X324499Y217500D02*
D03*
D21*
X299500D02*
D03*
D22*
X326499Y232501D02*
D03*
Y202501D02*
D03*
D23*
X182500Y88088D02*
D03*
X177499D02*
D03*
X172500D02*
D03*
X167500D02*
D03*
X162500D02*
D03*
X157500D02*
D03*
X152500D02*
D03*
X147500D02*
D03*
X142500D02*
D03*
X137500D02*
D03*
X132500D02*
D03*
X127500D02*
D03*
X122500D02*
D03*
X117500D02*
D03*
X127500Y201912D02*
D03*
X132500D02*
D03*
X137500D02*
D03*
X142500D02*
D03*
X147500Y201912D02*
D03*
X152500Y201912D02*
D03*
X157500D02*
D03*
X162500D02*
D03*
X167500Y201912D02*
D03*
X172500D02*
D03*
X192500Y201912D02*
D03*
X117500Y201912D02*
D03*
X192500Y88088D02*
D03*
X177500Y201912D02*
D03*
X182500D02*
D03*
X187500Y88088D02*
D03*
X122500Y201912D02*
D03*
X187500Y201912D02*
D03*
D24*
X98088Y117499D02*
D03*
Y122500D02*
D03*
Y127500D02*
D03*
Y132500D02*
D03*
Y137500D02*
D03*
Y142500D02*
D03*
Y147500D02*
D03*
Y152500D02*
D03*
Y157500D02*
D03*
Y162500D02*
D03*
Y167500D02*
D03*
Y172500D02*
D03*
Y177500D02*
D03*
Y182500D02*
D03*
X211912D02*
D03*
Y177500D02*
D03*
Y172500D02*
D03*
Y167500D02*
D03*
Y157499D02*
D03*
Y152500D02*
D03*
Y147500D02*
D03*
Y142500D02*
D03*
X211912Y137500D02*
D03*
X211912Y132500D02*
D03*
Y127500D02*
D03*
Y122500D02*
D03*
Y117500D02*
D03*
Y112500D02*
D03*
X98088Y107500D02*
D03*
Y112500D02*
D03*
X211912Y162499D02*
D03*
D25*
Y107499D02*
D03*
D26*
X-37500Y134500D02*
D03*
Y141000D02*
D03*
Y147500D02*
D03*
Y154000D02*
D03*
Y160500D02*
D03*
D27*
X-64500Y137500D02*
D03*
Y157500D02*
D03*
D28*
X-53000Y85000D02*
D03*
X-87001D02*
D03*
D29*
X370500Y257500D02*
D03*
Y247500D02*
D03*
Y187500D02*
D03*
Y197500D02*
D03*
Y207500D02*
D03*
Y217500D02*
D03*
Y227500D02*
D03*
Y237500D02*
D03*
D30*
X409250Y174500D02*
D03*
Y270500D02*
D03*
D31*
X283000Y73500D02*
D03*
X260000D02*
D03*
X237000D02*
D03*
D32*
X260000Y16500D02*
D03*
D33*
X72500Y50000D02*
D03*
D34*
X345000Y28019D02*
D03*
Y11982D02*
D03*
X215000Y68018D02*
D03*
Y51981D02*
D03*
X185000Y268019D02*
D03*
X300000Y161981D02*
D03*
X185000Y251981D02*
D03*
X300000Y178018D02*
D03*
D35*
X232500Y161000D02*
D03*
Y169000D02*
D03*
X-8150Y233149D02*
D03*
Y225149D02*
D03*
X75925Y108427D02*
D03*
X-7500Y241000D02*
D03*
X75925Y100427D02*
D03*
X-7500Y249000D02*
D03*
D36*
X239000Y107500D02*
D03*
X231000D02*
D03*
X343500Y255000D02*
D03*
X351500D02*
D03*
X251500Y137499D02*
D03*
X189000Y235000D02*
D03*
X121501Y222500D02*
D03*
X186000Y60000D02*
D03*
X113501Y222500D02*
D03*
X181000Y235000D02*
D03*
X194000Y60000D02*
D03*
X243500Y137499D02*
D03*
D37*
X-45000Y222500D02*
D03*
X-30000D02*
D03*
X38591Y167499D02*
D03*
X53590D02*
D03*
X-45000Y202500D02*
D03*
X-30000D02*
D03*
D38*
X306000Y95000D02*
D03*
X339000D02*
D03*
D39*
X160000Y236000D02*
D03*
Y249000D02*
D03*
X35000Y291500D02*
D03*
Y278500D02*
D03*
D40*
X149250Y285000D02*
D03*
X135750D02*
D03*
D41*
X-41750Y262500D02*
D03*
X-28250D02*
D03*
X5750Y202500D02*
D03*
X19250D02*
D03*
X-41750Y242500D02*
D03*
X-28250D02*
D03*
D42*
X71000Y120000D02*
D03*
X79000D02*
D03*
X71000Y132500D02*
D03*
X79000D02*
D03*
D43*
X-60750Y242500D02*
D03*
X-84250D02*
D03*
Y202500D02*
D03*
Y262500D02*
D03*
Y222500D02*
D03*
X-60750Y202500D02*
D03*
Y222500D02*
D03*
Y262500D02*
D03*
D44*
X20500Y247250D02*
D03*
Y240750D02*
D03*
Y234250D02*
D03*
Y227750D02*
D03*
X4500D02*
D03*
Y234250D02*
D03*
Y240750D02*
D03*
Y247250D02*
D03*
D45*
X142500Y251500D02*
D03*
Y265000D02*
D03*
D46*
X102500Y305000D02*
D03*
X97500D02*
D03*
X92500D02*
D03*
X87500D02*
D03*
X82500D02*
D03*
X77500D02*
D03*
Y265000D02*
D03*
X82500D02*
D03*
X87500D02*
D03*
X92500D02*
D03*
X97500D02*
D03*
X102500D02*
D03*
D47*
X70250Y297500D02*
D03*
Y292500D02*
D03*
Y287500D02*
D03*
Y282500D02*
D03*
Y277500D02*
D03*
Y272500D02*
D03*
X109750D02*
D03*
Y277500D02*
D03*
Y282500D02*
D03*
Y287500D02*
D03*
Y292500D02*
D03*
Y297500D02*
D03*
D48*
X90000Y285000D02*
D03*
D49*
X270000Y117500D02*
D03*
Y105500D02*
D03*
Y129500D02*
D03*
D50*
X296095Y263251D02*
D03*
X323905Y269750D02*
D03*
X296095Y250250D02*
D03*
Y256750D02*
D03*
Y269750D02*
D03*
X323905Y263251D02*
D03*
Y256750D02*
D03*
D51*
X260000Y280233D02*
D03*
Y294767D02*
D03*
D52*
X367000Y280000D02*
D03*
X348000D02*
D03*
D53*
X55000Y281500D02*
D03*
Y273500D02*
D03*
D54*
X86000Y252500D02*
D03*
X94000D02*
D03*
D55*
X323905Y250250D02*
D03*
M02*
