G04*
G04 #@! TF.GenerationSoftware,Altium Limited,Altium Designer,23.4.1 (23)*
G04*
G04 Layer_Color=32896*
%FSLAX44Y44*%
%MOMM*%
G71*
G04*
G04 #@! TF.SameCoordinates,9DE4E05F-C8E7-4F3F-A45E-6430895F1302*
G04*
G04*
G04 #@! TF.FilePolarity,Positive*
G04*
G01*
G75*
%ADD11C,0.2500*%
%ADD14C,0.2000*%
%ADD124C,0.1000*%
%ADD125C,0.2540*%
D11*
X359750Y311500D02*
G03*
X359750Y311500I-1250J0D01*
G01*
X468500Y80000D02*
G03*
X468500Y80000I-1250J0D01*
G01*
Y175000D02*
G03*
X468500Y175000I-1250J0D01*
G01*
X143750Y78000D02*
G03*
X143750Y78000I-1250J0D01*
G01*
D14*
X521251Y324769D02*
G03*
X525057Y226521I153012J-43269D01*
G01*
X85680Y80440D02*
Y102440D01*
X64180Y80440D02*
Y102440D01*
X65450Y135050D02*
Y157050D01*
X86950Y135050D02*
Y157050D01*
X383000Y354000D02*
X507500D01*
X398500Y211000D02*
X451000D01*
X473000D02*
X507500D01*
X521250Y324770D02*
Y336600D01*
X526250Y27000D02*
Y83000D01*
X483750Y95000D02*
X506250D01*
X483750Y87000D02*
Y95000D01*
Y15000D02*
Y23000D01*
Y15000D02*
X506250D01*
X483750Y380000D02*
X506250D01*
X483750D02*
Y388000D01*
Y422000D02*
Y430000D01*
X506250D01*
X526250Y392000D02*
Y418000D01*
Y122000D02*
Y178000D01*
X483750Y190000D02*
X506250D01*
X483750Y182000D02*
Y190000D01*
Y110000D02*
Y118000D01*
Y110000D02*
X506250D01*
X255249Y78000D02*
X259749D01*
X255249Y92000D02*
X259749D01*
X247750Y41500D02*
X262250D01*
X247750Y68500D02*
X262250D01*
X257000Y146000D02*
X273000D01*
X257000Y164000D02*
X273000D01*
X146500Y149500D02*
Y165500D01*
X128500Y149500D02*
Y165500D01*
X257000Y131000D02*
X272999D01*
X257000Y149000D02*
X272999D01*
X239750Y108750D02*
X250250D01*
X239750Y121250D02*
X250250D01*
X236250Y124749D02*
Y135250D01*
X223750Y124749D02*
Y135250D01*
X236250Y97250D02*
Y107750D01*
X223750Y97250D02*
Y107750D01*
X160000Y71000D02*
X205000D01*
Y167900D02*
Y169000D01*
Y71000D02*
Y72100D01*
X160000Y169000D02*
X205000D01*
X160000Y167900D02*
Y169000D01*
Y71000D02*
Y72100D01*
X127001Y104000D02*
Y156001D01*
X93001D02*
X94251D01*
X125751D02*
X127001D01*
X93001Y104000D02*
Y156001D01*
Y104000D02*
X94251D01*
X125751D02*
X127001D01*
X146250Y89750D02*
Y100250D01*
X133750Y89750D02*
Y100250D01*
D124*
X469250Y415000D02*
G03*
X469250Y415000I-500J0D01*
G01*
D125*
X147049Y131920D02*
X149588Y134459D01*
X154667D01*
X157206Y131920D01*
Y121763D01*
X154667Y119224D01*
X149588D01*
X147049Y121763D01*
X141971Y119224D02*
X136893D01*
X139432D01*
Y134459D01*
X141971Y131920D01*
X129275D02*
X126736Y134459D01*
X121657D01*
X119118Y131920D01*
Y129381D01*
X121657Y126842D01*
X119118Y124302D01*
Y121763D01*
X121657Y119224D01*
X126736D01*
X129275Y121763D01*
Y124302D01*
X126736Y126842D01*
X129275Y129381D01*
Y131920D01*
X126736Y126842D02*
X121657D01*
X114040Y114146D02*
Y129381D01*
X106422D01*
X103883Y126842D01*
Y121763D01*
X106422Y119224D01*
X114040D01*
X96266D02*
Y131920D01*
Y126842D01*
X98805D01*
X93727D01*
X96266D01*
Y131920D01*
X93727Y134459D01*
X86109Y116685D02*
X75952D01*
X70874Y119224D02*
X65796D01*
X68335D01*
Y134459D01*
X70874Y131920D01*
X168639Y186530D02*
X171178Y189069D01*
X176257D01*
X178796Y186530D01*
Y176373D01*
X176257Y173834D01*
X171178D01*
X168639Y176373D01*
X153404Y186530D02*
X155943Y189069D01*
X161022D01*
X163561Y186530D01*
Y176373D01*
X161022Y173834D01*
X155943D01*
X153404Y176373D01*
X148326Y173834D02*
X143247D01*
X145787D01*
Y189069D01*
X148326Y186530D01*
X135630D02*
X133091Y189069D01*
X128012D01*
X125473Y186530D01*
Y183991D01*
X128012Y181452D01*
X125473Y178912D01*
Y176373D01*
X128012Y173834D01*
X133091D01*
X135630Y176373D01*
Y178912D01*
X133091Y181452D01*
X135630Y183991D01*
Y186530D01*
X133091Y181452D02*
X128012D01*
X120395Y168756D02*
Y183991D01*
X112777D01*
X110238Y181452D01*
Y176373D01*
X112777Y173834D01*
X120395D01*
X102621D02*
Y186530D01*
Y181452D01*
X105160D01*
X100082D01*
X102621D01*
Y186530D01*
X100082Y189069D01*
X92464Y171295D02*
X82307D01*
X67072Y173834D02*
X77229D01*
X67072Y183991D01*
Y186530D01*
X69611Y189069D01*
X74690D01*
X77229Y186530D01*
M02*
