%TF.GenerationSoftware,Altium Limited,Altium Designer,23.4.1 (23)*%
G04 Layer_Color=16711935*
%FSLAX45Y45*%
%MOMM*%
%TF.SameCoordinates,23A6EF31-BC3A-4AE1-B3CE-C8081D6B100D*%
%TF.FilePolarity,Negative*%
%TF.FileFunction,Soldermask,Bot*%
%TF.Part,Single*%
G01*
G75*
%TA.AperFunction,SMDPad,CuDef*%
%ADD12R,0.75000X1.00000*%
G04:AMPARAMS|DCode=28|XSize=0.73107mm|YSize=0.30247mm|CornerRadius=0.15124mm|HoleSize=0mm|Usage=FLASHONLY|Rotation=90.000|XOffset=0mm|YOffset=0mm|HoleType=Round|Shape=RoundedRectangle|*
%AMROUNDEDRECTD28*
21,1,0.73107,0.00000,0,0,90.0*
21,1,0.42859,0.30247,0,0,90.0*
1,1,0.30247,0.00000,0.21430*
1,1,0.30247,0.00000,-0.21430*
1,1,0.30247,0.00000,-0.21430*
1,1,0.30247,0.00000,0.21430*
%
%ADD28ROUNDEDRECTD28*%
%ADD29R,2.50000X1.75000*%
%ADD31R,0.50000X0.40000*%
%ADD39R,1.01213X1.20840*%
%ADD49R,0.30247X0.73107*%
%TA.AperFunction,ComponentPad*%
%ADD57C,0.75000*%
%TA.AperFunction,SMDPad,CuDef*%
%ADD65R,0.38000X1.40000*%
%ADD66R,0.91213X0.95872*%
%ADD67R,2.05000X1.10000*%
%ADD69R,1.30000X0.70000*%
%ADD72R,0.56818X0.57247*%
%ADD74R,1.00000X0.75000*%
%ADD97R,1.15320X1.00320*%
%ADD101R,1.05320X0.90320*%
%TA.AperFunction,ComponentPad*%
%ADD102C,1.65320*%
%TA.AperFunction,ViaPad*%
G04:AMPARAMS|DCode=103|XSize=1.7272mm|YSize=2.2032mm|CornerRadius=0.4826mm|HoleSize=0mm|Usage=FLASHONLY|Rotation=0.000|XOffset=0mm|YOffset=0mm|HoleType=Round|Shape=RoundedRectangle|*
%AMROUNDEDRECTD103*
21,1,1.72720,1.23800,0,0,0.0*
21,1,0.76200,2.20320,0,0,0.0*
1,1,0.96520,0.38100,-0.61900*
1,1,0.96520,-0.38100,-0.61900*
1,1,0.96520,-0.38100,0.61900*
1,1,0.96520,0.38100,0.61900*
%
%ADD103ROUNDEDRECTD103*%
%ADD104C,1.72720*%
%ADD105C,0.70320*%
%TA.AperFunction,SMDPad,CuDef*%
G04:AMPARAMS|DCode=106|XSize=2.1032mm|YSize=3.4032mm|CornerRadius=0mm|HoleSize=0mm|Usage=FLASHONLY|Rotation=90.000|XOffset=0mm|YOffset=0mm|HoleType=Round|Shape=Octagon|*
%AMOCTAGOND106*
4,1,8,-1.70160,-0.52580,-1.70160,0.52580,-1.17580,1.05160,1.17580,1.05160,1.70160,0.52580,1.70160,-0.52580,1.17580,-1.05160,-1.17580,-1.05160,-1.70160,-0.52580,0.0*
%
%ADD106OCTAGOND106*%

%ADD107R,1.90320X1.70320*%
%ADD108R,1.70320X1.90320*%
%ADD109R,1.88320X1.00320*%
%ADD110R,1.70320X1.80320*%
%ADD111R,2.30320X1.10320*%
%ADD112R,1.60320X1.49320*%
%ADD113R,1.50320X1.49320*%
%ADD114R,2.30320X3.40320*%
D12*
X2044442Y1548923D02*
D03*
X2194439D02*
D03*
X1648415Y1518256D02*
D03*
X1798418D02*
D03*
D28*
X1917503Y2789053D02*
D03*
X1852499Y2510948D02*
D03*
X2047500Y2789053D02*
D03*
X1982501D02*
D03*
X1852499D02*
D03*
X1917503Y2510948D02*
D03*
X1982501D02*
D03*
D29*
X1950000Y2649998D02*
D03*
D31*
X2400001Y1490001D02*
D03*
Y1410001D02*
D03*
X3750001Y1190001D02*
D03*
X3850001Y999999D02*
D03*
X3750001Y789997D02*
D03*
X3399999Y790002D02*
D03*
Y1190001D02*
D03*
Y1110001D02*
D03*
Y710002D02*
D03*
X3850001Y919999D02*
D03*
X3750001Y1110001D02*
D03*
Y709997D02*
D03*
D39*
X2000002Y1910376D02*
D03*
Y1750000D02*
D03*
D49*
X2047500Y2510948D02*
D03*
D57*
X3700400Y2278000D02*
D03*
D65*
X2247505Y1218002D02*
D03*
X1987505D02*
D03*
X2052504D02*
D03*
X2572503Y682001D02*
D03*
X2507504D02*
D03*
X1792504D02*
D03*
X1727506D02*
D03*
Y1218002D02*
D03*
X1792504D02*
D03*
X2507504D02*
D03*
X2572503D02*
D03*
X2442506D02*
D03*
X2377507D02*
D03*
X2312503D02*
D03*
X2182506D02*
D03*
X2117502D02*
D03*
X1922507D02*
D03*
X1857503D02*
D03*
Y682001D02*
D03*
X1922507D02*
D03*
X1987505D02*
D03*
X2052504D02*
D03*
X2117502D02*
D03*
X2182506D02*
D03*
X2247505D02*
D03*
X2312503D02*
D03*
X2377507D02*
D03*
X2442506D02*
D03*
D66*
X1200004Y3172674D02*
D03*
Y3027336D02*
D03*
D67*
X850002Y2580001D02*
D03*
Y2249999D02*
D03*
X3000000Y1014995D02*
D03*
Y684998D02*
D03*
D69*
X1379983Y755016D02*
D03*
Y565019D02*
D03*
X2749998Y1355005D02*
D03*
Y1545007D02*
D03*
D72*
X779786Y710820D02*
D03*
X870220D02*
D03*
D74*
X1550000Y475001D02*
D03*
Y324999D02*
D03*
D97*
X1999997Y334997D02*
D03*
Y464999D02*
D03*
D101*
X1150001Y1087502D02*
D03*
Y1212500D02*
D03*
X2749998Y474996D02*
D03*
D102*
X3829996Y1749995D02*
D03*
Y1249996D02*
D03*
D103*
X2500001Y3799998D02*
D03*
X899999Y-50001D02*
D03*
X1150001D02*
D03*
X3250002Y3550002D02*
D03*
X3000000D02*
D03*
X2749998D02*
D03*
X2500001D02*
D03*
X2249999D02*
D03*
X2000002D02*
D03*
X1750000D02*
D03*
X1499998D02*
D03*
X1250001D02*
D03*
X1650000Y-50001D02*
D03*
X3399999D02*
D03*
X3150002D02*
D03*
X2900000D02*
D03*
X2649998D02*
D03*
X2400001D02*
D03*
X2149999D02*
D03*
X650002D02*
D03*
X1900002D02*
D03*
X1399998D02*
D03*
X750002Y3799998D02*
D03*
X999999D02*
D03*
X1250001D02*
D03*
X1499998D02*
D03*
X999999Y3550002D02*
D03*
X750002D02*
D03*
X2000002Y3799998D02*
D03*
X1750000D02*
D03*
X2249999D02*
D03*
X2749998D02*
D03*
X3000000D02*
D03*
X3250002D02*
D03*
D104*
X450003Y3550002D02*
D03*
X3550002D02*
D03*
X3650001Y349998D02*
D03*
X450003Y450003D02*
D03*
D105*
X167260Y1550000D02*
D03*
X322200Y1549020D02*
D03*
X990220Y1731900D02*
D03*
X3230500Y644780D02*
D03*
X1844417Y2168780D02*
D03*
X832080Y1368680D02*
D03*
X1718174Y2184020D02*
D03*
X1497661Y1246760D02*
D03*
X1185800Y2460880D02*
D03*
X1808100Y461900D02*
D03*
X3530662Y790002D02*
D03*
X3136520Y596520D02*
D03*
X3845180Y1104520D02*
D03*
X3540659Y799999D02*
D03*
X3686638Y1190001D02*
D03*
X3630758D02*
D03*
X829682Y2706742D02*
D03*
X992760Y2542160D02*
D03*
X992501Y2543923D02*
D03*
X1828420Y3103500D02*
D03*
X3230500Y3243200D02*
D03*
X3096063Y3131257D02*
D03*
X2984120Y3243200D02*
D03*
X1541400Y1703960D02*
D03*
X2732660Y1160400D02*
D03*
X774320Y1973200D02*
D03*
X1777620Y398400D02*
D03*
X1239140Y2544700D02*
D03*
X96140Y281560D02*
D03*
X2130680Y484760D02*
D03*
X929260Y431420D02*
D03*
X1681100Y2559940D02*
D03*
X370460Y1866037D02*
D03*
X3103500Y3027300D02*
D03*
X3245740Y1110001D02*
D03*
X3108580Y3022220D02*
D03*
X384654Y850002D02*
D03*
X3261386Y500000D02*
D03*
X2034160Y2102740D02*
D03*
X748920Y624181D02*
D03*
X1663320Y1897000D02*
D03*
X3136520Y2498980D02*
D03*
X424999Y1402142D02*
D03*
X732019Y2344116D02*
D03*
X1829477Y398400D02*
D03*
X1730630Y2281810D02*
D03*
X215845Y719319D02*
D03*
X1432180Y2044117D02*
D03*
X726060Y1872834D02*
D03*
X319660Y713360D02*
D03*
X599060Y1495680D02*
D03*
X497460Y1274700D02*
D03*
X172340Y449998D02*
D03*
X675260Y2001140D02*
D03*
X764196Y2060002D02*
D03*
X1427100Y494920D02*
D03*
X588900Y1922400D02*
D03*
X1335660Y1188340D02*
D03*
X1650620D02*
D03*
X1486912Y1344672D02*
D03*
X989814Y1732306D02*
D03*
X2054480Y1328040D02*
D03*
X1569340Y2344040D02*
D03*
X2951100Y2525132D02*
D03*
X2491360Y2595500D02*
D03*
X3172502Y2266057D02*
D03*
X1909700Y1919860D02*
D03*
X-214797Y3419202D02*
D03*
X-213740Y3469260D02*
D03*
X1909700Y3243200D02*
D03*
X3817240Y2659000D02*
D03*
X3870402Y2400702D02*
D03*
X-70205Y1650000D02*
D03*
X-214797Y1980002D02*
D03*
Y2219997D02*
D03*
X160204Y2349999D02*
D03*
X385700Y2748814D02*
D03*
X-214797Y3180000D02*
D03*
X1553790Y2561119D02*
D03*
X1041691Y3299999D02*
D03*
X-214797Y3930001D02*
D03*
X3085415Y2597283D02*
D03*
X303368Y3972180D02*
D03*
X2181480Y533020D02*
D03*
X2252600Y535560D02*
D03*
X2778319Y2194119D02*
D03*
X1483290Y1424250D02*
D03*
X2775840Y2730877D02*
D03*
X2239900Y3210180D02*
D03*
X3456560Y1819494D02*
D03*
X3316860Y2016380D02*
D03*
X1416940Y422017D02*
D03*
X2331340Y1345820D02*
D03*
X2709800Y939420D02*
D03*
X3186538Y1061340D02*
D03*
X2468500Y2924745D02*
D03*
X-94578Y2549998D02*
D03*
X1752220Y2453260D02*
D03*
X-68960Y2649998D02*
D03*
X1569340Y2496440D02*
D03*
X225680Y2883018D02*
D03*
X1145160Y2694560D02*
D03*
X2244980Y393320D02*
D03*
X2633600Y727228D02*
D03*
X1778387Y1841120D02*
D03*
X1903787Y1793617D02*
D03*
X883540Y1922400D02*
D03*
X308327Y2641510D02*
D03*
X1023240Y2265300D02*
D03*
X199838Y2749998D02*
D03*
X111380Y2044320D02*
D03*
X230714Y1750000D02*
D03*
X2547240Y2559940D02*
D03*
X2631060Y2460880D02*
D03*
X2824100Y2394119D02*
D03*
X1830960Y1731900D02*
D03*
X995300Y2336420D02*
D03*
X544531Y3198831D02*
D03*
X1782700Y3372740D02*
D03*
X1312800Y3067940D02*
D03*
X2465960Y1490600D02*
D03*
X1197042Y748920D02*
D03*
X1988440Y1419480D02*
D03*
X3317038Y1897000D02*
D03*
X1183260Y1844112D02*
D03*
X1655700Y1772540D02*
D03*
X724998Y1102498D02*
D03*
X824998D02*
D03*
X924998D02*
D03*
X724998Y1002498D02*
D03*
X824998D02*
D03*
X924998D02*
D03*
X724998Y902499D02*
D03*
X824998D02*
D03*
X924998D02*
D03*
X2989200Y2082420D02*
D03*
D106*
X3200000Y799999D02*
D03*
D107*
X3835000Y3030003D02*
D03*
Y1680003D02*
D03*
D108*
X2349999Y3000000D02*
D03*
D109*
X2359001Y2095003D02*
D03*
Y1875004D02*
D03*
Y1985001D02*
D03*
Y2205000D02*
D03*
Y2315003D02*
D03*
Y2425000D02*
D03*
Y2535002D02*
D03*
Y2645000D02*
D03*
D110*
X2349999Y1734003D02*
D03*
D111*
X1135000Y1930000D02*
D03*
Y1699998D02*
D03*
Y1470001D02*
D03*
D112*
X3254996Y1669502D02*
D03*
D113*
X2514997D02*
D03*
D114*
X564999Y1699998D02*
D03*
%TF.MD5,fabd3ec2d872d6b48c2a7345c81a1967*%
M02*
