%TF.GenerationSoftware,Altium Limited,Altium Designer,23.4.1 (23)*%
G04 Layer_Color=65535*
%FSLAX45Y45*%
%MOMM*%
%TF.SameCoordinates,48A87055-20E1-44AA-943F-EC830DB2746A*%
%TF.FilePolarity,Positive*%
%TF.FileFunction,Legend,Top*%
%TF.Part,Single*%
G01*
G75*
%TA.AperFunction,NonConductor*%
%ADD71C,0.25000*%
%ADD72C,0.50000*%
%ADD73C,0.20000*%
%ADD74C,0.25400*%
G36*
X-212601Y1124603D02*
X-211687Y1124533D01*
X-210631Y1124462D01*
X-209365Y1124251D01*
X-207958Y1124040D01*
X-206480Y1123759D01*
X-204932Y1123337D01*
X-203314Y1122914D01*
X-201696Y1122281D01*
X-200078Y1121578D01*
X-198459Y1120733D01*
X-196911Y1119748D01*
X-195434Y1118623D01*
X-194097Y1117356D01*
X-194027Y1117286D01*
X-193816Y1117004D01*
X-193464Y1116582D01*
X-193042Y1115949D01*
X-192549Y1115175D01*
X-191986Y1114260D01*
X-191353Y1113135D01*
X-190790Y1111868D01*
X-190157Y1110391D01*
X-189524Y1108772D01*
X-189031Y1106943D01*
X-188539Y1104973D01*
X-188117Y1102862D01*
X-187835Y1100541D01*
X-187624Y1098078D01*
Y1095475D01*
X-199233Y1093857D01*
Y1093997D01*
Y1094349D01*
X-199304Y1094912D01*
X-199374Y1095686D01*
X-199444Y1096601D01*
X-199585Y1097586D01*
X-199726Y1098711D01*
X-199937Y1099978D01*
X-200429Y1102511D01*
X-201133Y1105044D01*
X-201625Y1106169D01*
X-202118Y1107295D01*
X-202751Y1108280D01*
X-203384Y1109124D01*
X-203455Y1109195D01*
X-203525Y1109265D01*
X-203807Y1109476D01*
X-204088Y1109757D01*
X-204440Y1110039D01*
X-204932Y1110391D01*
X-205425Y1110813D01*
X-206058Y1111165D01*
X-206762Y1111516D01*
X-207536Y1111939D01*
X-208380Y1112290D01*
X-209294Y1112572D01*
X-210350Y1112853D01*
X-211405Y1112994D01*
X-212531Y1113135D01*
X-213727Y1113205D01*
X-214220D01*
X-214571Y1113135D01*
X-214993D01*
X-215486Y1113064D01*
X-216612Y1112924D01*
X-217878Y1112642D01*
X-219285Y1112290D01*
X-220763Y1111728D01*
X-222100Y1111024D01*
X-222170D01*
X-222240Y1110883D01*
X-222662Y1110602D01*
X-223296Y1110109D01*
X-223999Y1109406D01*
X-224844Y1108561D01*
X-225618Y1107506D01*
X-226391Y1106310D01*
X-226954Y1104973D01*
Y1104903D01*
X-227025Y1104762D01*
X-227095Y1104551D01*
X-227165Y1104270D01*
X-227236Y1103847D01*
X-227376Y1103355D01*
X-227517Y1102722D01*
X-227658Y1102018D01*
X-227728Y1101244D01*
X-227869Y1100330D01*
X-228010Y1099345D01*
X-228080Y1098219D01*
X-228150Y1097023D01*
X-228221Y1095756D01*
X-228291Y1094349D01*
Y1092801D01*
Y1025680D01*
X-241167D01*
Y1092027D01*
Y1092168D01*
Y1092590D01*
Y1093223D01*
X-241096Y1094068D01*
Y1095053D01*
X-241026Y1096249D01*
X-240885Y1097586D01*
X-240815Y1098993D01*
X-240604Y1100470D01*
X-240463Y1102018D01*
X-239900Y1105184D01*
X-239548Y1106732D01*
X-239126Y1108210D01*
X-238704Y1109617D01*
X-238141Y1110954D01*
Y1111024D01*
X-238001Y1111235D01*
X-237860Y1111587D01*
X-237578Y1112079D01*
X-237297Y1112642D01*
X-236875Y1113275D01*
X-236382Y1113979D01*
X-235890Y1114753D01*
X-235257Y1115527D01*
X-234553Y1116371D01*
X-233779Y1117215D01*
X-232935Y1118060D01*
X-232020Y1118904D01*
X-231035Y1119678D01*
X-229980Y1120452D01*
X-228784Y1121155D01*
X-228713Y1121226D01*
X-228502Y1121296D01*
X-228150Y1121507D01*
X-227658Y1121718D01*
X-227025Y1122000D01*
X-226321Y1122281D01*
X-225477Y1122563D01*
X-224492Y1122914D01*
X-223436Y1123266D01*
X-222311Y1123548D01*
X-221044Y1123829D01*
X-219778Y1124111D01*
X-218371Y1124322D01*
X-216893Y1124533D01*
X-215416Y1124603D01*
X-213797Y1124673D01*
X-213235D01*
X-212601Y1124603D01*
D02*
G37*
G36*
X-290417Y1046928D02*
X-290347Y1046998D01*
X-290206Y1047139D01*
X-289995Y1047350D01*
X-289643Y1047631D01*
X-289221Y1047983D01*
X-288658Y1048476D01*
X-288025Y1048968D01*
X-287392Y1049531D01*
X-286548Y1050094D01*
X-285703Y1050797D01*
X-284789Y1051431D01*
X-283804Y1052205D01*
X-282678Y1052908D01*
X-281552Y1053682D01*
X-279019Y1055230D01*
X-278949Y1055300D01*
X-278738Y1055441D01*
X-278316Y1055652D01*
X-277823Y1055863D01*
X-277260Y1056215D01*
X-276557Y1056637D01*
X-275712Y1057059D01*
X-274868Y1057552D01*
X-272898Y1058537D01*
X-270787Y1059522D01*
X-268606Y1060507D01*
X-266496Y1061351D01*
Y1049812D01*
X-266636Y1049742D01*
X-266918Y1049601D01*
X-267481Y1049320D01*
X-268184Y1048968D01*
X-269028Y1048546D01*
X-270084Y1047983D01*
X-271210Y1047350D01*
X-272406Y1046646D01*
X-273742Y1045802D01*
X-275150Y1044958D01*
X-278105Y1042988D01*
X-281130Y1040807D01*
X-284015Y1038414D01*
X-284085Y1038344D01*
X-284366Y1038133D01*
X-284718Y1037781D01*
X-285211Y1037289D01*
X-285844Y1036656D01*
X-286548Y1035952D01*
X-287321Y1035108D01*
X-288166Y1034263D01*
X-289010Y1033278D01*
X-289925Y1032223D01*
X-291684Y1030042D01*
X-293302Y1027720D01*
X-294006Y1026524D01*
X-294639Y1025328D01*
X-302378D01*
Y1123055D01*
X-290417D01*
Y1046928D01*
D02*
G37*
G36*
X2548871Y1133431D02*
X2472744D01*
X2472814Y1133361D01*
X2472955Y1133220D01*
X2473166Y1133009D01*
X2473447Y1132657D01*
X2473799Y1132235D01*
X2474292Y1131672D01*
X2474784Y1131039D01*
X2475347Y1130406D01*
X2475910Y1129561D01*
X2476614Y1128717D01*
X2477247Y1127802D01*
X2478021Y1126817D01*
X2478724Y1125692D01*
X2479498Y1124566D01*
X2481046Y1122033D01*
X2481116Y1121963D01*
X2481257Y1121752D01*
X2481468Y1121329D01*
X2481679Y1120837D01*
X2482031Y1120274D01*
X2482453Y1119571D01*
X2482875Y1118726D01*
X2483368Y1117882D01*
X2484353Y1115912D01*
X2485338Y1113801D01*
X2486323Y1111620D01*
X2487167Y1109509D01*
X2475629D01*
X2475558Y1109650D01*
X2475417Y1109931D01*
X2475136Y1110494D01*
X2474784Y1111198D01*
X2474362Y1112042D01*
X2473799Y1113098D01*
X2473166Y1114223D01*
X2472462Y1115419D01*
X2471618Y1116756D01*
X2470774Y1118163D01*
X2468804Y1121118D01*
X2466623Y1124144D01*
X2464231Y1127028D01*
X2464160Y1127099D01*
X2463949Y1127380D01*
X2463597Y1127732D01*
X2463105Y1128225D01*
X2462472Y1128858D01*
X2461768Y1129561D01*
X2460924Y1130335D01*
X2460079Y1131180D01*
X2459094Y1132024D01*
X2458039Y1132939D01*
X2455858Y1134698D01*
X2453536Y1136316D01*
X2452340Y1137019D01*
X2451144Y1137653D01*
Y1145392D01*
X2548871D01*
Y1133431D01*
D02*
G37*
G36*
Y1077919D02*
X2514185Y1053364D01*
X2514044Y1053293D01*
X2513692Y1053012D01*
X2513059Y1052590D01*
X2512355Y1052097D01*
X2511441Y1051464D01*
X2510456Y1050831D01*
X2508275Y1049353D01*
X2508345D01*
X2508486Y1049213D01*
X2508767Y1049072D01*
X2509049Y1048861D01*
X2509963Y1048298D01*
X2510948Y1047594D01*
X2512144Y1046820D01*
X2513270Y1046117D01*
X2514325Y1045413D01*
X2515170Y1044780D01*
X2548871Y1020084D01*
Y1004606D01*
X2498425Y1042247D01*
X2451496Y1009038D01*
Y1024447D01*
X2476402Y1042177D01*
X2476473Y1042247D01*
X2476754Y1042388D01*
X2477176Y1042740D01*
X2477669Y1043091D01*
X2478302Y1043514D01*
X2479076Y1044076D01*
X2479920Y1044639D01*
X2480765Y1045272D01*
X2482735Y1046539D01*
X2484705Y1047805D01*
X2486604Y1049001D01*
X2487519Y1049564D01*
X2488363Y1049986D01*
X2488293Y1050057D01*
X2488152Y1050127D01*
X2487871Y1050338D01*
X2487449Y1050549D01*
X2487027Y1050901D01*
X2486464Y1051253D01*
X2485760Y1051675D01*
X2485056Y1052168D01*
X2483438Y1053293D01*
X2481609Y1054560D01*
X2479569Y1056037D01*
X2477458Y1057655D01*
X2451496Y1077145D01*
Y1091216D01*
X2497791Y1057444D01*
X2548871Y1093890D01*
Y1077919D01*
D02*
G37*
G36*
X1299320Y3065118D02*
X1243104D01*
X1242963D01*
X1242541D01*
X1241908D01*
X1241063Y3065048D01*
X1240008D01*
X1238812Y3064978D01*
X1237475Y3064907D01*
X1235998Y3064837D01*
X1234520Y3064696D01*
X1232972Y3064555D01*
X1229876Y3064133D01*
X1228399Y3063852D01*
X1226921Y3063570D01*
X1225585Y3063219D01*
X1224388Y3062797D01*
X1224318D01*
X1224107Y3062656D01*
X1223826Y3062515D01*
X1223403Y3062304D01*
X1222911Y3062093D01*
X1222348Y3061741D01*
X1221011Y3060897D01*
X1219534Y3059771D01*
X1218760Y3059138D01*
X1217986Y3058364D01*
X1217212Y3057590D01*
X1216508Y3056675D01*
X1215805Y3055761D01*
X1215172Y3054705D01*
Y3054635D01*
X1215031Y3054424D01*
X1214890Y3054142D01*
X1214679Y3053650D01*
X1214398Y3053087D01*
X1214116Y3052454D01*
X1213835Y3051680D01*
X1213553Y3050765D01*
X1213272Y3049780D01*
X1212990Y3048725D01*
X1212709Y3047599D01*
X1212428Y3046333D01*
X1212217Y3044996D01*
X1212076Y3043589D01*
X1212005Y3042182D01*
X1211935Y3040634D01*
Y3040001D01*
X1212005Y3039297D01*
Y3038312D01*
X1212146Y3037116D01*
X1212287Y3035849D01*
X1212498Y3034372D01*
X1212709Y3032754D01*
X1213061Y3031135D01*
X1213483Y3029447D01*
X1214046Y3027758D01*
X1214609Y3026070D01*
X1215383Y3024451D01*
X1216227Y3022974D01*
X1217212Y3021567D01*
X1218338Y3020371D01*
X1218408Y3020300D01*
X1218619Y3020089D01*
X1219041Y3019808D01*
X1219604Y3019456D01*
X1220378Y3018963D01*
X1221363Y3018471D01*
X1222489Y3017908D01*
X1223896Y3017345D01*
X1225444Y3016782D01*
X1227203Y3016220D01*
X1229243Y3015727D01*
X1231495Y3015235D01*
X1234028Y3014883D01*
X1236771Y3014601D01*
X1239797Y3014390D01*
X1243104Y3014320D01*
X1299320D01*
Y3001444D01*
X1243033D01*
X1242963D01*
X1242893D01*
X1242682D01*
X1242400D01*
X1242048D01*
X1241626D01*
X1240641Y3001515D01*
X1239375D01*
X1237968Y3001585D01*
X1236349Y3001726D01*
X1234661Y3001866D01*
X1232831Y3002078D01*
X1230932Y3002289D01*
X1227062Y3002851D01*
X1225092Y3003274D01*
X1223263Y3003696D01*
X1221433Y3004259D01*
X1219745Y3004822D01*
X1219674Y3004892D01*
X1219393Y3004962D01*
X1218901Y3005173D01*
X1218338Y3005455D01*
X1217564Y3005877D01*
X1216719Y3006299D01*
X1215805Y3006862D01*
X1214749Y3007565D01*
X1213624Y3008339D01*
X1212498Y3009184D01*
X1211372Y3010169D01*
X1210176Y3011294D01*
X1208980Y3012491D01*
X1207854Y3013757D01*
X1206729Y3015235D01*
X1205673Y3016782D01*
X1205603Y3016853D01*
X1205462Y3017205D01*
X1205181Y3017697D01*
X1204829Y3018330D01*
X1204407Y3019245D01*
X1203985Y3020230D01*
X1203492Y3021496D01*
X1203000Y3022833D01*
X1202507Y3024451D01*
X1202015Y3026140D01*
X1201592Y3027969D01*
X1201170Y3030010D01*
X1200819Y3032191D01*
X1200537Y3034513D01*
X1200396Y3036905D01*
X1200326Y3039508D01*
Y3040845D01*
X1200396Y3041759D01*
X1200467Y3042956D01*
X1200607Y3044292D01*
X1200748Y3045840D01*
X1200889Y3047458D01*
X1201170Y3049217D01*
X1201452Y3051047D01*
X1201874Y3052876D01*
X1202296Y3054776D01*
X1202859Y3056605D01*
X1203492Y3058505D01*
X1204196Y3060264D01*
X1205040Y3061952D01*
X1205110Y3062023D01*
X1205251Y3062304D01*
X1205533Y3062797D01*
X1205884Y3063359D01*
X1206377Y3064063D01*
X1207010Y3064907D01*
X1207714Y3065752D01*
X1208488Y3066737D01*
X1209402Y3067722D01*
X1210458Y3068777D01*
X1211513Y3069832D01*
X1212779Y3070817D01*
X1214046Y3071802D01*
X1215523Y3072717D01*
X1217001Y3073561D01*
X1218619Y3074335D01*
X1218760Y3074406D01*
X1219041Y3074476D01*
X1219534Y3074687D01*
X1220237Y3074898D01*
X1221152Y3075180D01*
X1222278Y3075461D01*
X1223544Y3075813D01*
X1225022Y3076165D01*
X1226710Y3076516D01*
X1228540Y3076868D01*
X1230510Y3077150D01*
X1232691Y3077431D01*
X1235013Y3077642D01*
X1237545Y3077853D01*
X1240219Y3077923D01*
X1243033Y3077994D01*
X1299320D01*
Y3065118D01*
D02*
G37*
G36*
X1203492Y2986247D02*
X1204618Y2986177D01*
X1205814Y2986036D01*
X1207221Y2985825D01*
X1208699Y2985473D01*
X1210176Y2984981D01*
X1210246D01*
X1210458Y2984840D01*
X1210809Y2984699D01*
X1211302Y2984488D01*
X1211935Y2984277D01*
X1212639Y2983925D01*
X1213413Y2983503D01*
X1214257Y2983081D01*
X1215242Y2982588D01*
X1216227Y2981955D01*
X1218408Y2980618D01*
X1220730Y2979000D01*
X1223122Y2977100D01*
X1223192Y2977030D01*
X1223403Y2976819D01*
X1223755Y2976538D01*
X1224248Y2976115D01*
X1224881Y2975553D01*
X1225585Y2974849D01*
X1226429Y2974075D01*
X1227343Y2973090D01*
X1228399Y2972035D01*
X1229525Y2970909D01*
X1230721Y2969643D01*
X1232057Y2968235D01*
X1233394Y2966687D01*
X1234801Y2965069D01*
X1236279Y2963310D01*
X1237827Y2961481D01*
X1237897Y2961411D01*
X1237968Y2961270D01*
X1238179Y2961059D01*
X1238390Y2960777D01*
X1238741Y2960426D01*
X1239093Y2960003D01*
X1240008Y2958948D01*
X1241063Y2957611D01*
X1242400Y2956204D01*
X1243807Y2954586D01*
X1245355Y2952897D01*
X1246973Y2951068D01*
X1248662Y2949309D01*
X1250351Y2947480D01*
X1252110Y2945791D01*
X1253798Y2944103D01*
X1255416Y2942625D01*
X1257035Y2941218D01*
X1258512Y2940092D01*
X1258582Y2940022D01*
X1258864Y2939881D01*
X1259286Y2939600D01*
X1259779Y2939178D01*
X1260482Y2938755D01*
X1261256Y2938333D01*
X1262171Y2937770D01*
X1263156Y2937278D01*
X1264211Y2936785D01*
X1265337Y2936222D01*
X1267799Y2935308D01*
X1269066Y2934956D01*
X1270332Y2934675D01*
X1271599Y2934534D01*
X1272865Y2934464D01*
X1272935D01*
X1273217D01*
X1273569D01*
X1274061Y2934534D01*
X1274694Y2934604D01*
X1275398Y2934745D01*
X1276172Y2934886D01*
X1277016Y2935097D01*
X1277931Y2935378D01*
X1278916Y2935730D01*
X1279901Y2936152D01*
X1280886Y2936645D01*
X1281941Y2937207D01*
X1282926Y2937911D01*
X1283911Y2938685D01*
X1284826Y2939600D01*
X1284896Y2939670D01*
X1285037Y2939811D01*
X1285248Y2940092D01*
X1285600Y2940514D01*
X1285952Y2941007D01*
X1286374Y2941640D01*
X1286866Y2942344D01*
X1287289Y2943118D01*
X1287781Y2944032D01*
X1288203Y2945017D01*
X1288625Y2946143D01*
X1288977Y2947269D01*
X1289329Y2948535D01*
X1289540Y2949872D01*
X1289681Y2951279D01*
X1289751Y2952757D01*
Y2953601D01*
X1289681Y2954164D01*
X1289610Y2954938D01*
X1289470Y2955782D01*
X1289329Y2956697D01*
X1289118Y2957752D01*
X1288836Y2958807D01*
X1288485Y2959933D01*
X1288062Y2961059D01*
X1287570Y2962255D01*
X1286937Y2963381D01*
X1286233Y2964506D01*
X1285459Y2965632D01*
X1284545Y2966617D01*
X1284474Y2966687D01*
X1284333Y2966828D01*
X1283982Y2967110D01*
X1283630Y2967391D01*
X1283067Y2967813D01*
X1282434Y2968235D01*
X1281660Y2968728D01*
X1280816Y2969150D01*
X1279901Y2969643D01*
X1278775Y2970135D01*
X1277649Y2970557D01*
X1276383Y2970979D01*
X1274976Y2971261D01*
X1273498Y2971542D01*
X1271950Y2971683D01*
X1270262Y2971753D01*
X1271528Y2984066D01*
X1271599D01*
X1271669D01*
X1271880Y2983996D01*
X1272162D01*
X1272865Y2983925D01*
X1273780Y2983714D01*
X1274906Y2983503D01*
X1276242Y2983222D01*
X1277720Y2982870D01*
X1279268Y2982448D01*
X1280956Y2981885D01*
X1282645Y2981252D01*
X1284404Y2980478D01*
X1286163Y2979563D01*
X1287851Y2978578D01*
X1289470Y2977382D01*
X1291017Y2976115D01*
X1292425Y2974638D01*
X1292495Y2974568D01*
X1292706Y2974286D01*
X1293128Y2973794D01*
X1293550Y2973160D01*
X1294113Y2972316D01*
X1294746Y2971331D01*
X1295380Y2970135D01*
X1296083Y2968798D01*
X1296716Y2967250D01*
X1297350Y2965632D01*
X1297983Y2963803D01*
X1298546Y2961833D01*
X1299038Y2959722D01*
X1299390Y2957471D01*
X1299601Y2955078D01*
X1299672Y2952546D01*
Y2951912D01*
X1299601Y2951209D01*
X1299531Y2950224D01*
X1299460Y2949028D01*
X1299249Y2947691D01*
X1299038Y2946143D01*
X1298687Y2944525D01*
X1298264Y2942766D01*
X1297772Y2941007D01*
X1297139Y2939107D01*
X1296365Y2937278D01*
X1295450Y2935449D01*
X1294465Y2933690D01*
X1293269Y2932001D01*
X1291862Y2930383D01*
X1291791Y2930312D01*
X1291510Y2930031D01*
X1291088Y2929609D01*
X1290455Y2929116D01*
X1289751Y2928483D01*
X1288836Y2927780D01*
X1287781Y2927006D01*
X1286585Y2926232D01*
X1285248Y2925528D01*
X1283771Y2924754D01*
X1282152Y2924051D01*
X1280464Y2923417D01*
X1278634Y2922925D01*
X1276735Y2922503D01*
X1274694Y2922221D01*
X1272584Y2922151D01*
X1272513D01*
X1272302D01*
X1272021D01*
X1271599D01*
X1271036Y2922221D01*
X1270473Y2922292D01*
X1269769Y2922362D01*
X1268995Y2922432D01*
X1267236Y2922714D01*
X1265266Y2923136D01*
X1263226Y2923769D01*
X1261115Y2924543D01*
X1261045D01*
X1260834Y2924684D01*
X1260552Y2924824D01*
X1260130Y2925036D01*
X1259638Y2925247D01*
X1259005Y2925598D01*
X1258301Y2925950D01*
X1257527Y2926443D01*
X1256683Y2926935D01*
X1255768Y2927498D01*
X1253728Y2928905D01*
X1252672Y2929679D01*
X1251547Y2930523D01*
X1250421Y2931508D01*
X1249225Y2932493D01*
X1249154Y2932564D01*
X1248943Y2932775D01*
X1248592Y2933056D01*
X1248099Y2933549D01*
X1247466Y2934182D01*
X1246692Y2934956D01*
X1245777Y2935800D01*
X1244722Y2936856D01*
X1243596Y2938052D01*
X1242330Y2939459D01*
X1240923Y2940936D01*
X1239375Y2942625D01*
X1237756Y2944454D01*
X1235998Y2946424D01*
X1234098Y2948605D01*
X1232128Y2950927D01*
X1232057Y2951068D01*
X1231706Y2951420D01*
X1231284Y2951912D01*
X1230650Y2952616D01*
X1229947Y2953531D01*
X1229102Y2954445D01*
X1228188Y2955501D01*
X1227203Y2956626D01*
X1225162Y2959018D01*
X1224107Y2960144D01*
X1223122Y2961270D01*
X1222137Y2962325D01*
X1221293Y2963240D01*
X1220519Y2964084D01*
X1219815Y2964717D01*
X1219674Y2964858D01*
X1219252Y2965210D01*
X1218619Y2965773D01*
X1217845Y2966476D01*
X1216860Y2967250D01*
X1215805Y2968095D01*
X1214609Y2968939D01*
X1213413Y2969713D01*
Y2922010D01*
X1201944D01*
Y2986317D01*
X1202015D01*
X1202155D01*
X1202366D01*
X1202648D01*
X1203070D01*
X1203492Y2986247D01*
D02*
G37*
D71*
X-327500Y-177000D02*
G03*
X-327500Y-177000I-12500J0D01*
G01*
X3282500Y1940000D02*
G03*
X3282500Y1940000I-12500J0D01*
G01*
X2131621Y1004000D02*
G03*
X2131621Y1004000I-12500J0D01*
G01*
X-240001Y1605001D02*
G03*
X-240001Y1605001I-12500J0D01*
G01*
X3584999Y1875000D02*
G03*
X3584999Y1875000I-12500J0D01*
G01*
X2942500Y735000D02*
G03*
X2942500Y735000I-12500J0D01*
G01*
X-947500Y2425000D02*
G03*
X-947500Y2425000I-12500J0D01*
G01*
X300000Y2472500D02*
G03*
X300000Y2472500I-12500J0D01*
G01*
X1117499Y3135002D02*
G03*
X1117499Y3135002I-12500J0D01*
G01*
X3328107Y2502500D02*
G03*
X3328107Y2502500I-12500J0D01*
G01*
X2712508Y979999D02*
G03*
X2712508Y979999I-12500J0D01*
G01*
X-947500Y2025000D02*
G03*
X-947500Y2025000I-12500J0D01*
G01*
Y2225000D02*
G03*
X-947500Y2225000I-12500J0D01*
G01*
Y2625000D02*
G03*
X-947500Y2625000I-12500J0D01*
G01*
D72*
X1915000Y1110000D02*
G03*
X1915000Y1110000I-25000J0D01*
G01*
D73*
X-1004800Y-545300D02*
X-395200D01*
Y445300D01*
X-1004800D02*
X-395200D01*
X-1004800Y-545300D02*
Y445300D01*
X1493628Y2201376D02*
Y2348624D01*
X1356381Y2201376D02*
Y2348624D01*
X2944994Y2310006D02*
Y2405007D01*
X3204993D01*
X2944994Y1945008D02*
Y2040004D01*
Y1945008D02*
X3204993D01*
X1974998Y1024995D02*
Y1874996D01*
X1125008D02*
X1974998D01*
X1125003Y1024990D02*
X1125008Y1874996D01*
X1125003Y1024990D02*
X1974998Y1024995D01*
X-859993Y1100499D02*
Y1849500D01*
X-860003Y1100469D02*
X-778799D01*
X-511200D02*
X-390001D01*
Y1113499D01*
X-390469Y1836398D02*
Y1849530D01*
X-511200D02*
X-390469D01*
X-859993Y1849500D02*
X-778799D01*
X-860003Y714999D02*
X-540004D01*
X-860003Y972499D02*
Y985001D01*
Y714999D02*
Y727501D01*
Y985001D02*
X-540004D01*
Y972499D02*
Y985001D01*
Y714999D02*
Y727501D01*
X3737503Y2725002D02*
X3962502D01*
X3737503Y2645002D02*
Y2725002D01*
Y1724999D02*
Y1804998D01*
Y1724999D02*
X3962502D01*
X4162501Y1844998D02*
Y2605002D01*
X3272501Y1850002D02*
X3370002D01*
Y1550003D02*
Y1632502D01*
Y1767503D02*
Y1850002D01*
X3272501Y1550003D02*
X3370002D01*
X3230002Y1672502D02*
Y1727503D01*
X2265005Y599997D02*
X2935001D01*
X2265005Y299998D02*
X2935001D01*
Y599997D01*
X2265005Y299998D02*
Y599997D01*
X3359395Y59394D02*
Y340607D01*
X3540609Y59394D02*
Y340607D01*
X2261497Y1599999D02*
Y1699999D01*
X2388497Y1599999D02*
Y1699999D01*
X2300002Y1011498D02*
X2400002D01*
X2300002Y1138498D02*
X2400002D01*
X-454999Y2315000D02*
X-295000D01*
X-454999Y2135000D02*
X-295000D01*
X3152502Y1084995D02*
X3297500D01*
X3152502Y814998D02*
X3297500D01*
X2059397Y459393D02*
Y740601D01*
X2240611Y459393D02*
Y740601D01*
X380904Y1764983D02*
X540909D01*
X380904Y1584984D02*
X540909D01*
X-17997Y2241492D02*
Y2341492D01*
X-144997Y2241492D02*
Y2341492D01*
X-742502Y2492500D02*
X-707501D01*
X-742502Y2357499D02*
X-707501D01*
X3424998Y2613496D02*
X3524998D01*
X3424998Y2486496D02*
X3524998D01*
X20001Y2532500D02*
X230003D01*
X20001Y2217505D02*
X230003D01*
X1082498Y3059997D02*
X1109996D01*
Y3032499D02*
Y3059997D01*
Y2639998D02*
Y2667501D01*
X1082498Y2639998D02*
X1109996D01*
X689997D02*
X717500D01*
X689997D02*
Y2667501D01*
Y3059997D02*
X717500D01*
X689997Y3032499D02*
Y3059997D01*
X-454999Y2115000D02*
X-295000D01*
X-454999Y1935001D02*
X-295000D01*
X1759393Y2459394D02*
Y2740607D01*
X1940607Y2459394D02*
Y2740607D01*
X2950003Y2450001D02*
X3250002D01*
X2950003Y2750000D02*
X3250002D01*
X2685609Y2754395D02*
Y2995608D01*
X2514393Y2754395D02*
Y2995608D01*
X3552501Y2730000D02*
X3597500D01*
X3552501Y2870000D02*
X3597500D01*
X3090607Y1559386D02*
Y1840599D01*
X2909393Y1559386D02*
Y1840599D01*
X-138500Y2399999D02*
Y2499998D01*
X-11500Y2399999D02*
Y2499998D01*
X1799997Y2413496D02*
X1899997D01*
X1799997Y2286496D02*
X1899997D01*
X612497Y2722497D02*
Y2827501D01*
X487498Y2722497D02*
Y2827501D01*
X847502Y2462498D02*
X952506D01*
X847502Y2587501D02*
X952506D01*
X1849995Y663497D02*
X1949995D01*
X1849995Y536497D02*
X1949995D01*
X822745Y994263D02*
Y1094263D01*
X695745Y994263D02*
Y1094263D01*
X2425004Y1311492D02*
X2525003D01*
X2425004Y1438492D02*
X2525003D01*
X1125007Y2161497D02*
X1225007D01*
X1125007Y2288497D02*
X1225007D01*
X-742502Y1957500D02*
X-707501D01*
X-742502Y2092501D02*
X-707501D01*
X-742502Y2157495D02*
X-707501D01*
X-742502Y2292496D02*
X-707501D01*
X-742502Y2557499D02*
X-707501D01*
X-742502Y2692500D02*
X-707501D01*
D74*
X-896883Y692901D02*
X-947667D01*
X-922275D01*
Y565942D01*
X-947667Y540550D01*
X-973058D01*
X-998450Y565942D01*
X-744532Y540550D02*
X-846099D01*
X-744532Y642117D01*
Y667509D01*
X-769924Y692901D01*
X-820708D01*
X-846099Y667509D01*
%TF.MD5,e86027893f4ab8d71785525b69214ef4*%
M02*
