%TF.GenerationSoftware,Altium Limited,Altium Designer,23.4.1 (23)*%
G04 Layer_Color=128*
%FSLAX45Y45*%
%MOMM*%
%TF.SameCoordinates,5EDC85C4-919B-4C78-8AD9-5EEEAC21EBF9*%
%TF.FilePolarity,Positive*%
%TF.FileFunction,Paste,Bot*%
%TF.Part,Single*%
G01*
G75*
%TA.AperFunction,SMDPad,CuDef*%
%ADD24R,1.55000X0.60000*%
%ADD25R,1.80000X1.20000*%
%ADD33R,0.75000X1.00000*%
%ADD34R,1.10000X2.05000*%
%ADD49R,0.70000X1.30000*%
%ADD50R,0.50000X0.40000*%
%ADD51R,0.40000X0.50000*%
%ADD61R,1.70000X1.50000*%
%ADD62R,1.50000X1.70000*%
%ADD63R,1.68000X0.80000*%
%ADD64R,1.50000X1.60000*%
%ADD65R,1.40000X1.29000*%
%ADD66R,1.30000X1.29000*%
%ADD67R,0.85000X0.70000*%
%ADD68R,1.00000X0.75000*%
%ADD69R,1.40000X0.38000*%
%ADD70R,2.40000X1.90000*%
D24*
X3705002Y-400000D02*
D03*
Y-300000D02*
D03*
Y-200000D02*
D03*
Y4D02*
D03*
Y100004D02*
D03*
Y-100001D02*
D03*
X3705002Y3450001D02*
D03*
Y3250001D02*
D03*
Y3350001D02*
D03*
Y550001D02*
D03*
Y650001D02*
D03*
Y750001D02*
D03*
Y950000D02*
D03*
Y1050000D02*
D03*
Y850000D02*
D03*
D25*
X4092500Y-529997D02*
D03*
Y230001D02*
D03*
X4092500Y3120004D02*
D03*
Y3580003D02*
D03*
Y419999D02*
D03*
Y1180002D02*
D03*
D33*
X1474999Y849994D02*
D03*
X1625002D02*
D03*
X1474999Y699997D02*
D03*
X1624996D02*
D03*
D34*
X1284997Y-149999D02*
D03*
X1614994D02*
D03*
D49*
X1379988Y149995D02*
D03*
X1569990D02*
D03*
D50*
X1199999Y559997D02*
D03*
Y639997D02*
D03*
X1200004Y285001D02*
D03*
Y365001D02*
D03*
X300000Y210000D02*
D03*
Y290000D02*
D03*
D51*
X1310001Y450000D02*
D03*
X1390001D02*
D03*
D61*
X4100000Y2800000D02*
D03*
Y1450000D02*
D03*
D62*
X2614999Y2769997D02*
D03*
D63*
X2624001Y1865000D02*
D03*
Y1645001D02*
D03*
Y1754998D02*
D03*
Y1974998D02*
D03*
Y2085000D02*
D03*
Y2194997D02*
D03*
Y2304999D02*
D03*
Y2414997D02*
D03*
D64*
X2614999Y1504000D02*
D03*
D65*
X3519996Y1439500D02*
D03*
D66*
X2779997D02*
D03*
D67*
X1550000Y462502D02*
D03*
Y337503D02*
D03*
X1925001Y-162501D02*
D03*
Y-287499D02*
D03*
D68*
X275002Y799997D02*
D03*
Y949999D02*
D03*
D69*
X992999Y402502D02*
D03*
Y662501D02*
D03*
Y597503D02*
D03*
X456998Y77504D02*
D03*
Y142502D02*
D03*
Y857502D02*
D03*
Y922501D02*
D03*
X992999D02*
D03*
Y857502D02*
D03*
Y142502D02*
D03*
Y77504D02*
D03*
Y207501D02*
D03*
Y272500D02*
D03*
Y337503D02*
D03*
Y467500D02*
D03*
Y532504D02*
D03*
Y727500D02*
D03*
Y792504D02*
D03*
X456998D02*
D03*
Y727500D02*
D03*
Y662501D02*
D03*
Y597503D02*
D03*
Y532504D02*
D03*
Y467500D02*
D03*
Y402502D02*
D03*
Y337503D02*
D03*
Y272500D02*
D03*
Y207501D02*
D03*
D70*
X11Y395004D02*
D03*
Y805006D02*
D03*
%TF.MD5,4be532005e39d3a0e0d0f06dab0f0b97*%
M02*
