%TF.GenerationSoftware,Altium Limited,Altium Designer,23.4.1 (23)*%
G04 Layer_Color=128*
%FSLAX45Y45*%
%MOMM*%
%TF.SameCoordinates,4A4EADC6-D63E-4973-9290-F54A389017C5*%
%TF.FilePolarity,Positive*%
%TF.FileFunction,Paste,Bot*%
%TF.Part,Single*%
G01*
G75*
%TA.AperFunction,SMDPad,CuDef*%
G04:AMPARAMS|DCode=18|XSize=0.73107mm|YSize=0.30247mm|CornerRadius=0.15124mm|HoleSize=0mm|Usage=FLASHONLY|Rotation=90.000|XOffset=0mm|YOffset=0mm|HoleType=Round|Shape=RoundedRectangle|*
%AMROUNDEDRECTD18*
21,1,0.73107,0.00000,0,0,90.0*
21,1,0.42859,0.30247,0,0,90.0*
1,1,0.30247,0.00000,0.21430*
1,1,0.30247,0.00000,-0.21430*
1,1,0.30247,0.00000,-0.21430*
1,1,0.30247,0.00000,0.21430*
%
%ADD18ROUNDEDRECTD18*%
%ADD21R,0.95000X0.80000*%
%ADD22R,0.50000X0.40000*%
%ADD33R,1.01213X1.20840*%
%ADD35R,0.75000X1.00000*%
%ADD45R,0.30247X0.73107*%
%ADD46R,0.95000X0.85000*%
%ADD49R,0.85000X0.70000*%
%ADD56R,1.70000X1.50000*%
%ADD57R,1.50000X1.70000*%
G04:AMPARAMS|DCode=58|XSize=1.9mm|YSize=3.2mm|CornerRadius=0mm|HoleSize=0mm|Usage=FLASHONLY|Rotation=90.000|XOffset=0mm|YOffset=0mm|HoleType=Round|Shape=Octagon|*
%AMOCTAGOND58*
4,1,8,-1.60000,-0.47500,-1.60000,0.47500,-1.12500,0.95000,1.12500,0.95000,1.60000,0.47500,1.60000,-0.47500,1.12500,-0.95000,-1.12500,-0.95000,-1.60000,-0.47500,0.0*
%
%ADD58OCTAGOND58*%

%ADD59R,1.68000X0.80000*%
%ADD60R,1.50000X1.60000*%
%ADD61R,0.38000X1.40000*%
%ADD62R,0.91213X0.95872*%
%ADD63R,2.05000X1.10000*%
%ADD64R,2.10000X0.90000*%
%ADD65R,1.30000X0.70000*%
%ADD66R,1.45000X0.95000*%
%ADD67R,1.40000X1.29000*%
%ADD68R,1.30000X1.29000*%
%ADD69R,0.56818X0.57247*%
%ADD70R,2.10000X3.20000*%
%ADD71R,1.00000X0.75000*%
%TA.AperFunction,NonConductor*%
%ADD112R,1.75001X1.00000*%
D18*
X1917503Y2789053D02*
D03*
X1852499Y2510948D02*
D03*
X2047500Y2789053D02*
D03*
X1982501D02*
D03*
X1852499D02*
D03*
X1917503Y2510948D02*
D03*
X1982501D02*
D03*
D21*
X1999997Y334997D02*
D03*
Y464999D02*
D03*
D22*
X3750001Y1190001D02*
D03*
X3850001Y999999D02*
D03*
X3750001Y789997D02*
D03*
X3399999Y790002D02*
D03*
Y1190001D02*
D03*
Y1110001D02*
D03*
Y710002D02*
D03*
X1743650Y542504D02*
D03*
Y462505D02*
D03*
X3850001Y919999D02*
D03*
X3750001Y1110001D02*
D03*
Y709997D02*
D03*
D33*
X2000002Y1910376D02*
D03*
Y1750000D02*
D03*
D35*
X2044442Y1548923D02*
D03*
X2194439D02*
D03*
X1648415Y1518256D02*
D03*
X1798418D02*
D03*
D45*
X2047500Y2510948D02*
D03*
D46*
X899999Y1467501D02*
D03*
D49*
X1150001Y1087502D02*
D03*
Y1212500D02*
D03*
X2749998Y474996D02*
D03*
D56*
X3835000Y3030003D02*
D03*
Y1680003D02*
D03*
D57*
X2349999Y3000000D02*
D03*
D58*
X3330002Y1550000D02*
D03*
D59*
X2359001Y2095003D02*
D03*
Y1875004D02*
D03*
Y1985001D02*
D03*
Y2205000D02*
D03*
Y2315003D02*
D03*
Y2425000D02*
D03*
Y2535002D02*
D03*
Y2645000D02*
D03*
D60*
X2349999Y1734003D02*
D03*
D61*
X2247505Y1218002D02*
D03*
X1987505D02*
D03*
X2052504D02*
D03*
X2572503Y682001D02*
D03*
X2507504D02*
D03*
X1792504D02*
D03*
X1727506D02*
D03*
Y1218002D02*
D03*
X1792504D02*
D03*
X2507504D02*
D03*
X2572503D02*
D03*
X2442506D02*
D03*
X2377507D02*
D03*
X2312503D02*
D03*
X2182506D02*
D03*
X2117502D02*
D03*
X1922507D02*
D03*
X1857503D02*
D03*
Y682001D02*
D03*
X1922507D02*
D03*
X1987505D02*
D03*
X2052504D02*
D03*
X2117502D02*
D03*
X2182506D02*
D03*
X2247505D02*
D03*
X2312503D02*
D03*
X2377507D02*
D03*
X2442506D02*
D03*
D62*
X1200004Y3172674D02*
D03*
Y3027336D02*
D03*
D63*
X850002Y2580001D02*
D03*
Y2249999D02*
D03*
X3000000Y1014995D02*
D03*
Y684998D02*
D03*
D64*
X1135000Y1930000D02*
D03*
Y1699998D02*
D03*
Y1470001D02*
D03*
D65*
X1379983Y755016D02*
D03*
Y565019D02*
D03*
X2749998Y1590000D02*
D03*
Y1399998D02*
D03*
D66*
X1099999Y552502D02*
D03*
Y747503D02*
D03*
D67*
X3254996Y1669502D02*
D03*
D68*
X2514997D02*
D03*
D69*
X779786Y710820D02*
D03*
X870220D02*
D03*
D70*
X564999Y1699998D02*
D03*
D71*
X3000000Y475001D02*
D03*
Y324999D02*
D03*
D112*
X1950002Y2650001D02*
D03*
%TF.MD5,67bc2ef21e5010859bf5ee4c8b57ff78*%
M02*
