%TF.GenerationSoftware,Altium Limited,Altium Designer,23.4.1 (23)*%
G04 Layer_Physical_Order=1*
G04 Layer_Color=255*
%FSLAX45Y45*%
%MOMM*%
%TF.SameCoordinates,9EBB4E2D-B9AE-48B2-BE03-C18F5659661E*%
%TF.FilePolarity,Positive*%
%TF.FileFunction,Copper,L1,Top,Signal*%
%TF.Part,Single*%
G01*
G75*
%TA.AperFunction,Conductor*%
%ADD10C,0.15000*%
%ADD11C,0.50000*%
%TA.AperFunction,ConnectorPad*%
%ADD12R,1.35000X0.40000*%
%ADD13R,1.90000X1.50000*%
%TA.AperFunction,SMDPad,CuDef*%
%ADD14C,0.78699*%
G04:AMPARAMS|DCode=15|XSize=0.31247mm|YSize=1.78828mm|CornerRadius=0.15624mm|HoleSize=0mm|Usage=FLASHONLY|Rotation=180.000|XOffset=0mm|YOffset=0mm|HoleType=Round|Shape=RoundedRectangle|*
%AMROUNDEDRECTD15*
21,1,0.31247,1.47581,0,0,180.0*
21,1,0.00000,1.78828,0,0,180.0*
1,1,0.31247,0.00000,0.73791*
1,1,0.31247,0.00000,0.73791*
1,1,0.31247,0.00000,-0.73791*
1,1,0.31247,0.00000,-0.73791*
%
%ADD15ROUNDEDRECTD15*%
G04:AMPARAMS|DCode=16|XSize=1.78828mm|YSize=0.31247mm|CornerRadius=0.15624mm|HoleSize=0mm|Usage=FLASHONLY|Rotation=180.000|XOffset=0mm|YOffset=0mm|HoleType=Round|Shape=RoundedRectangle|*
%AMROUNDEDRECTD16*
21,1,1.78828,0.00000,0,0,180.0*
21,1,1.47581,0.31247,0,0,180.0*
1,1,0.31247,-0.73791,0.00000*
1,1,0.31247,0.73791,0.00000*
1,1,0.31247,0.73791,0.00000*
1,1,0.31247,-0.73791,0.00000*
%
%ADD16ROUNDEDRECTD16*%
%ADD17R,1.78828X0.31247*%
%ADD18R,0.57247X0.56818*%
%ADD19R,0.80000X0.95000*%
%ADD20R,1.80000X0.60000*%
G04:AMPARAMS|DCode=21|XSize=1.9mm|YSize=3.2mm|CornerRadius=0mm|HoleSize=0mm|Usage=FLASHONLY|Rotation=270.000|XOffset=0mm|YOffset=0mm|HoleType=Round|Shape=Octagon|*
%AMOCTAGOND21*
4,1,8,1.60000,0.47500,1.60000,-0.47500,1.12500,-0.95000,-1.12500,-0.95000,-1.60000,-0.47500,-1.60000,0.47500,-1.12500,0.95000,1.12500,0.95000,1.60000,0.47500,0.0*
%
%ADD21OCTAGOND21*%

%ADD22R,1.40000X0.60000*%
%ADD23R,0.80000X1.70000*%
%ADD24R,1.55000X0.60000*%
%ADD25R,1.80000X1.20000*%
%ADD26R,0.70000X0.60000*%
%ADD27R,0.90000X2.10000*%
%ADD28R,3.20000X2.10000*%
%ADD29R,2.84000X6.80000*%
%ADD30R,1.01213X1.20840*%
%ADD31R,0.52000X0.52000*%
%ADD32R,0.52000X0.52000*%
%ADD33R,0.75000X1.00000*%
%ADD34R,1.10000X2.05000*%
%ADD35R,0.95000X0.80000*%
%ADD36R,0.85000X0.95000*%
%ADD37R,0.90000X1.05000*%
%ADD38R,0.45000X0.45000*%
%ADD39R,1.25000X1.10000*%
%ADD40R,0.50000X0.35000*%
%ADD41R,0.95000X0.85000*%
%ADD42R,0.35000X0.80000*%
%ADD43R,0.85000X0.35000*%
%ADD44R,2.60000X2.70000*%
%ADD45R,2.00000X0.40000*%
G04:AMPARAMS|DCode=46|XSize=0.73107mm|YSize=0.30247mm|CornerRadius=0.15124mm|HoleSize=0mm|Usage=FLASHONLY|Rotation=180.000|XOffset=0mm|YOffset=0mm|HoleType=Round|Shape=RoundedRectangle|*
%AMROUNDEDRECTD46*
21,1,0.73107,0.00000,0,0,180.0*
21,1,0.42859,0.30247,0,0,180.0*
1,1,0.30247,-0.21430,0.00000*
1,1,0.30247,0.21430,0.00000*
1,1,0.30247,0.21430,0.00000*
1,1,0.30247,-0.21430,0.00000*
%
%ADD46ROUNDEDRECTD46*%
%ADD47R,1.75000X2.50000*%
%ADD48R,0.91213X0.95872*%
%ADD49R,0.70000X1.30000*%
%ADD50R,0.50000X0.40000*%
%ADD51R,0.40000X0.50000*%
%ADD52R,0.73107X0.30247*%
%TA.AperFunction,Conductor*%
%ADD53C,0.38100*%
%ADD54C,0.50800*%
%ADD55C,0.63500*%
%TA.AperFunction,ComponentPad*%
%ADD56C,1.45000*%
%TA.AperFunction,ViaPad*%
%ADD57C,0.99101*%
%TA.AperFunction,ComponentPad*%
%ADD58C,0.75000*%
%TA.AperFunction,ViaPad*%
%ADD59C,4.00000*%
G04:AMPARAMS|DCode=60|XSize=1.524mm|YSize=2mm|CornerRadius=0.381mm|HoleSize=0mm|Usage=FLASHONLY|Rotation=0.000|XOffset=0mm|YOffset=0mm|HoleType=Round|Shape=RoundedRectangle|*
%AMROUNDEDRECTD60*
21,1,1.52400,1.23800,0,0,0.0*
21,1,0.76200,2.00000,0,0,0.0*
1,1,0.76200,0.38100,-0.61900*
1,1,0.76200,-0.38100,-0.61900*
1,1,0.76200,-0.38100,0.61900*
1,1,0.76200,0.38100,0.61900*
%
%ADD60ROUNDEDRECTD60*%
%ADD61C,1.27000*%
%ADD62C,0.50000*%
G36*
X239400Y1954400D02*
X49400D01*
Y1824400D01*
X239400D01*
Y1954400D01*
D02*
G37*
G36*
X189403Y1824399D02*
X99400D01*
Y1774400D01*
X189403Y1774402D01*
Y1824399D01*
D02*
G37*
G36*
X99397Y2544400D02*
X189400D01*
Y2594400D01*
X99397Y2594398D01*
Y2544400D01*
D02*
G37*
G36*
X49400Y2414400D02*
X239400D01*
Y2544400D01*
X49400D01*
Y2414400D01*
D02*
G37*
D10*
X1197532Y2350158D02*
G03*
X1207628Y2341291I13898J5643D01*
G01*
X1832124Y2507842D02*
G03*
X1834430Y2505983I10523J10691D01*
G01*
X1702034Y2523376D02*
G03*
X1712279Y2527766I-362J14996D01*
G01*
X3581400Y1299860D02*
G03*
X3581242Y1302035I-15001J0D01*
G01*
X3580188Y1310031D02*
G03*
X3580343Y1308167I14997J311D01*
G01*
X2797062Y3680269D02*
G03*
X2798993Y3680107I2216J14836D01*
G01*
X2790591Y3681235D02*
G03*
X2788375Y3681400I-2216J-14836D01*
G01*
X2640753Y3680528D02*
G03*
X2645572Y3681400I-226J14999D01*
G01*
X3191089Y3670603D02*
G03*
X3191087Y3670606I-10609J-10604D01*
G01*
X3188867Y3242567D02*
G03*
X3202783Y3252123I-62J15000D01*
G01*
X3414200Y747781D02*
G03*
X3414219Y747037I15001J0D01*
G01*
X3410394Y824076D02*
G03*
X3411168Y820081I14978J831D01*
G01*
X3414200Y808679D02*
G03*
X3413403Y813505I-15001J-0D01*
G01*
X3154172Y2729506D02*
G03*
X3154986Y2734382I-14186J4876D01*
G01*
X1925472Y3075000D02*
G03*
X1922987Y3074793I0J-15000D01*
G01*
X1878771Y3110000D02*
G03*
X1920564Y3110000I20897J94108D01*
G01*
X1876620Y3074745D02*
G03*
X1873863Y3075000I-2757J-14745D01*
G01*
X1876963Y3074684D02*
G03*
X1922454Y3074698I22705J129424D01*
G01*
X2987585Y846445D02*
G03*
X2987788Y846444I203J14999D01*
G01*
X3580551Y1139052D02*
G03*
X3577107Y1130107I11543J-9580D01*
G01*
X740000Y612193D02*
G03*
X739652Y615407I-15001J-0D01*
G01*
X879997Y439957D02*
G03*
X881131Y437217I14360J4337D01*
G01*
X878686Y444298D02*
G03*
X874994Y450507I-14360J-4337D01*
G01*
X3069305Y679545D02*
G03*
X2972906Y776444I-96399J499D01*
G01*
X1831082Y2232726D02*
G03*
X1795735Y2227486I-3782J-96326D01*
G01*
X1857925Y2230002D02*
G03*
X1859558Y2229710I3459J14596D01*
G01*
X1831176Y2232722D02*
G03*
X1832029Y2232718I495J14992D01*
G01*
X1857925Y2230002D02*
G03*
X1832029Y2232718I-22910J-93638D01*
G01*
X3013975Y3192450D02*
G03*
X2985739Y3138346I94259J-83613D01*
G01*
X2424734Y3197371D02*
G03*
X2328449Y3106117I-23J-96400D01*
G01*
X2892306Y1855327D02*
G03*
X2925924Y1820284I84132J47062D01*
G01*
X958508Y1794794D02*
G03*
X954296Y1790523I66494J-69796D01*
G01*
X939015Y229232D02*
G03*
X947661Y422357I-730802J129472D01*
G01*
D02*
G03*
X947169Y427830I-739448J-63653D01*
G01*
X3132223Y1149412D02*
G03*
X3073492Y1276437I-89552J35685D01*
G01*
X3135551Y1639149D02*
G03*
X3202250Y1481640I74310J-61409D01*
G01*
X908996Y356543D02*
G03*
X910643Y382833I-83996J18457D01*
G01*
X1755070Y3198332D02*
G03*
X1756000Y3188691I96299J4418D01*
G01*
X4115301Y1775000D02*
G03*
X4100999Y1825526I-96400J0D01*
G01*
X3415124Y565784D02*
G03*
X3421278Y604863I-90124J34216D01*
G01*
X1684434Y3870937D02*
G03*
X1645752Y3866856I-9434J-95937D01*
G01*
X3007254Y2926291D02*
G03*
X3005868Y2879213I92746J-26291D01*
G01*
X2968790Y2907053D02*
G03*
X2968853Y2891854I131211J-7053D01*
G01*
X4014654Y3460429D02*
G03*
X3981857Y3502847I-89654J-35429D01*
G01*
X3538499Y1739678D02*
G03*
X3526335Y1662667I81005J-52261D01*
G01*
X3425576Y1134002D02*
G03*
X3427566Y1134036I-576J90998D01*
G01*
X3385604Y2060146D02*
G03*
X3400743Y2059003I14396J89854D01*
G01*
X1460895Y2998248D02*
G03*
X1465535Y2998198I3293J90940D01*
G01*
X3036898Y397501D02*
G03*
X2976298Y336901I0J-60600D01*
G01*
X3305329Y2883787D02*
Y3670300D01*
X3286793Y4363299D02*
X3413195D01*
X3251294Y3724335D02*
X3305329Y3670300D01*
X3251294Y3724335D02*
Y4327800D01*
X3286793Y4363299D01*
X3413195D02*
X3472096Y4304399D01*
X3545596D01*
X3599996Y4249999D01*
X257498Y2924998D02*
Y3124997D01*
X878488Y496511D02*
X947169Y427830D01*
X878488Y496511D02*
Y506157D01*
X819322Y565322D02*
X878488Y506157D01*
X819322Y793922D02*
X863645Y838245D01*
X819322Y565322D02*
Y793922D01*
X861826Y1690744D02*
X954296Y1790523D01*
X863645Y838245D02*
Y1688925D01*
X861826Y1690744D02*
X863645Y1688925D01*
X319100Y2424699D02*
X419100D01*
X498152Y2350649D02*
X785000D01*
X414401Y2314398D02*
X461901D01*
X498152Y2350649D01*
X319095Y1924700D02*
X414401D01*
Y1934399D02*
Y2054398D01*
X199095Y2044700D02*
X319095Y1924700D01*
X189095Y2044700D02*
X199095D01*
X159098Y2074697D02*
X189095Y2044700D01*
X1627503Y2383388D02*
X1635906Y2374986D01*
X1665895Y2344996D01*
X1817744D01*
X1847744Y2374996D01*
X2080878D01*
X1196430Y2352870D02*
X1197531Y2350158D01*
X1207628Y2341291D02*
X1246432Y2302486D01*
X1694031D01*
X1987689Y2309996D02*
X2002691Y2324999D01*
X1694031Y2302486D02*
X1701542Y2309996D01*
X1987689D01*
X1687080Y2246038D02*
X1716039Y2274996D01*
X2002691Y2324999D02*
X2080878D01*
X1716039Y2274996D02*
X2043983D01*
X1333231Y2246038D02*
X1687080D01*
X1834431Y2505982D02*
X1881772Y2474996D01*
X1712279Y2527766D02*
X1722310Y2537797D01*
X1769456Y2761833D02*
X1883268D01*
X2032482Y2563122D02*
X2170460D01*
X1832040Y2507926D02*
X1832124Y2507842D01*
X1775529Y2428107D02*
X2077769D01*
X1711354Y2937474D02*
X1885132Y2763697D01*
X1681909Y2619831D02*
X1788911Y2726834D01*
X1822643Y2603546D02*
Y2624235D01*
X1743820Y2736197D02*
X1769456Y2761833D01*
X1762240Y2441396D02*
X1775529Y2428107D01*
X1630007Y2736197D02*
X1743820D01*
X1802170Y2537797D02*
X1832040Y2507926D01*
X1552407Y2519770D02*
X1702034Y2523376D01*
X1885132Y2763697D02*
X1895968Y2752860D01*
X1834430Y2505983D02*
X1834431Y2505982D01*
X1822643Y2624235D02*
X1828841Y2630433D01*
X1572621Y2750996D02*
X1615209D01*
X1565810Y2757807D02*
X1572621Y2750996D01*
X1283010Y2195817D02*
X1333231Y2246038D01*
X1722310Y2537797D02*
X1802170D01*
X1615209Y2750996D02*
X1630007Y2736197D01*
X1513619Y2619831D02*
X1681909D01*
X1788911Y2726834D02*
X1868771D01*
X2032482Y2563122D01*
X1455908Y2410178D02*
X1485908Y2374986D01*
X1351665Y2410178D02*
X1455908D01*
X1196430Y2355801D02*
X1196430Y2352870D01*
X1196430Y2355801D02*
Y2403570D01*
X1041000Y2309000D02*
X1169827D01*
X1283010Y2195817D01*
X149098Y2274697D02*
X169098D01*
X319100Y2424699D01*
X3580343Y1308167D02*
X3581242Y1302035D01*
X3580188Y1310031D02*
X3580188Y1310032D01*
X3581400Y1140075D02*
Y1299860D01*
X3517501Y584200D02*
Y1091213D01*
X3593701Y508000D02*
X3784600D01*
X3517501Y584200D02*
X3593701Y508000D01*
X381000Y3025000D02*
X819319D01*
X355600Y3044087D02*
Y3337423D01*
Y3044087D02*
X364387Y3035300D01*
X370700D01*
X381000Y3025000D01*
X355600Y3337423D02*
X442023Y3423846D01*
X467732D01*
X523687Y3479800D01*
X533400D01*
X780002Y3362497D02*
Y3456891D01*
X736600Y3500293D02*
Y3530600D01*
Y3500293D02*
X780002Y3456891D01*
X257498Y3325002D02*
X260513D01*
X308013Y3372502D01*
X266700Y485140D02*
X325120Y543560D01*
X266700Y355600D02*
Y485140D01*
Y355600D02*
X347300Y275000D01*
X725000Y682201D02*
Y1140804D01*
X462280Y787400D02*
X593351D01*
X638100Y832149D01*
Y1038300D01*
X452120Y797560D02*
X462280Y787400D01*
X609600Y1066800D02*
X638100Y1038300D01*
X406400Y1066800D02*
X609600D01*
X393700Y1079500D02*
X406400Y1066800D01*
X581660Y670560D02*
X673100Y762000D01*
Y1101900D01*
X452120Y670560D02*
X581660D01*
X564181Y1210819D02*
X673100Y1101900D01*
X1130300Y150000D02*
X1660701D01*
X1104900Y175400D02*
Y266700D01*
Y175400D02*
X1130300Y150000D01*
X230000Y575440D02*
X325120Y670560D01*
X205480Y797560D02*
X325120D01*
X452120Y543560D02*
X645612D01*
X794586Y394586D01*
X175000Y828040D02*
Y1197419D01*
Y828040D02*
X205480Y797560D01*
X347300Y275000D02*
X875000D01*
X4696921Y3105000D02*
X4704422Y3097500D01*
X4610166Y3118962D02*
X4624127Y3105000D01*
X4696921D01*
X1285457Y2864902D02*
Y2884547D01*
X1392553Y2757807D02*
X1565810D01*
X1285457Y2864902D02*
X1392553Y2757807D01*
X2950000Y3380186D02*
Y3389999D01*
X3088571Y3528570D01*
X3128570D01*
X3150000Y3550000D01*
X2197500Y3625001D02*
X2638671D01*
X2660070Y3646400D01*
X2778599D01*
X2826500Y3598499D01*
X2640752Y3680528D02*
X2640753Y3680528D01*
X2790591Y3681235D02*
X2797062Y3680269D01*
X2645573Y3681400D02*
X2788375D01*
X2645572Y3681399D02*
X2645573Y3681400D01*
X2271214Y3674999D02*
X2640752Y3680528D01*
X2798993Y3680107D02*
X3186693Y3674999D01*
X2250000D02*
X2271214Y3674999D01*
X2592500Y3549995D02*
X2627500Y3550000D01*
X2700000D02*
X2720161Y3456500D01*
X2725000Y3451661D01*
X2627500Y3550000D02*
X2700000D01*
X3186693Y3674999D02*
X3191086Y3670605D01*
X2725000Y3431211D02*
Y3451661D01*
X2826500Y3000179D02*
Y3598499D01*
X2861500Y3461500D02*
X2902851Y3502851D01*
X2959333Y3578599D01*
X3191878Y3669814D02*
X3266337Y3569072D01*
X3154986Y2782942D02*
X3266337Y2894292D01*
Y3569072D01*
X3191089Y3670603D02*
X3191878Y3669814D01*
X3189986Y2768445D02*
X3305329Y2883787D01*
X1895968Y2752860D02*
X1922973D01*
X2077710Y2598122D01*
X2184957D01*
X1711354Y2937474D02*
Y2974466D01*
X1555073Y3130747D02*
X1711354Y2974466D01*
X1555073Y3130747D02*
Y3137365D01*
X1551752Y3140687D02*
X1555073Y3137365D01*
X1145000Y2977505D02*
X1192500D01*
X1285457Y2884547D01*
X1443787Y2550000D02*
X1513619Y2619831D01*
X1111898Y2649997D02*
X1211895Y2550000D01*
X1443787D01*
X1822643Y2603546D02*
X1905702Y2540917D01*
X1881772Y2474996D02*
X2080878D01*
X1905702Y2540917D02*
X1914489Y2532130D01*
X755679Y2649997D02*
X1111898D01*
X1130968Y2494597D02*
X1134961Y2490603D01*
X1138762D01*
X3115821Y3242567D02*
X3188806D01*
X3059350Y3119347D02*
Y3186097D01*
X3188806Y3242567D02*
X3188867Y3242567D01*
X3059350Y3186097D02*
X3115821Y3242567D01*
X2990000Y3049996D02*
X3059350Y3119347D01*
X3202783Y3252123D02*
X3231337Y3325429D01*
X3152908Y3143347D02*
X3155729Y3146167D01*
X3155751D01*
X1650796Y2149638D02*
X1745421Y2210049D01*
X3414200Y747781D02*
Y808679D01*
X3316262Y774884D02*
X3317800D01*
X3194745Y896400D02*
X3316262Y774884D01*
X3399614Y1041213D02*
X3410394Y824076D01*
X3414200Y808679D02*
X3414200D01*
X3414219Y747037D02*
X3421277Y604863D01*
X3411168Y820081D02*
X3413403Y813505D01*
X3018856Y3380186D02*
X3085070Y3446400D01*
X3164930D01*
X3231337Y3379994D01*
X2950000Y3380186D02*
X3018856D01*
X3231337Y3325429D02*
Y3379994D01*
X2974999Y3034995D02*
X2990000Y3049996D01*
X3032384Y3208628D02*
X3043567Y3219810D01*
X3023710Y3202247D02*
X3032384Y3208628D01*
X2950000Y3219810D02*
X3043567D01*
X3052274Y3228518D02*
X3052331Y3228598D01*
X3043567Y3219810D02*
X3052274Y3228518D01*
X2197500Y3674999D02*
X2250000D01*
X3219123Y2524999D02*
Y2626610D01*
X3189986Y2655747D02*
X3219123Y2626610D01*
X3189986Y2655747D02*
Y2768445D01*
X3154986Y2734382D02*
Y2782942D01*
X3126261Y2648307D02*
X3154171Y2729506D01*
X1920564Y3110000D02*
X2038353Y3111061D01*
X1922454Y3074698D02*
X1922987Y3074792D01*
X1907498Y3211938D02*
Y3242503D01*
X1897639Y3206137D02*
X1899668Y3204108D01*
X1893548Y3202046D02*
X1897639Y3206137D01*
X1925472Y3075000D02*
X2200000D01*
X1675000D02*
X1873863D01*
X2038353Y3111061D02*
X2325000Y3225000D01*
X1876620Y3074744D02*
X1876963Y3074684D01*
X1814591Y3113372D02*
X1821704Y3110858D01*
X1878771Y3110000D01*
X1899668Y3204108D02*
X1907498Y3211938D01*
X3395650Y2176178D02*
X3397430D01*
X3308705Y2263123D02*
X3395650Y2176178D01*
X2781779Y2159606D02*
X2795417D01*
X2800000Y2164189D01*
X2858894Y533615D02*
Y538404D01*
X2972296Y680044D02*
X2972601Y679739D01*
X2567458Y680044D02*
X2972296D01*
X2315010Y2924997D02*
X2325002Y2915005D01*
X2200000Y3075000D02*
X2296510Y2978490D01*
X1661000Y3089000D02*
X1675000Y3075000D01*
X2296510Y2943497D02*
X2315010Y2924997D01*
X2296510Y2943497D02*
Y2978490D01*
X3078460Y1401167D02*
Y1671535D01*
X3061733Y1688263D02*
X3078460Y1671535D01*
X3250004Y1219809D02*
Y1229623D01*
X3078460Y1401167D02*
X3250004Y1229623D01*
X2987506Y1042500D02*
Y1050000D01*
Y1042500D02*
X3050006Y980000D01*
X3164930D02*
X3184930Y1000000D01*
Y1050000D01*
X2652504Y929317D02*
Y1125000D01*
X2674999Y1147495D01*
Y1580875D01*
X2522502Y1177111D02*
X2625002Y1279612D01*
X3113556Y811444D02*
X3125000Y800000D01*
X2770377Y811444D02*
X3113556D01*
X2890704Y849831D02*
X2892805Y847730D01*
X2987585Y846445D01*
X2652504Y929317D02*
X2770377Y811444D01*
X2875000Y865534D02*
Y916213D01*
X3004616Y846444D02*
X3054573Y896400D01*
X2875000Y865534D02*
X2890704Y849831D01*
X2987788Y846444D02*
X3004616D01*
X2613715Y775437D02*
X2931969D01*
X2597426Y791726D02*
X2613715Y775437D01*
X2931969D02*
X2932976Y776444D01*
X2522502Y725000D02*
Y1177111D01*
Y725000D02*
X2567458Y680044D01*
X3725000Y1800000D02*
X3906818D01*
X3692503Y1832497D02*
X3725000Y1800000D01*
X3906818D02*
X3922501Y1784317D01*
X3707501Y1767498D02*
X3708084Y1767419D01*
X3725982Y1765000D02*
X3800001Y1754998D01*
X3708084Y1767419D02*
X3710503Y1765000D01*
Y1765000D02*
X3725982D01*
X3675000Y1843190D02*
X3679988D01*
X3690681Y1832497D01*
X3692503D01*
X3884240Y1687417D02*
X3922501Y1725678D01*
X3619504Y1687417D02*
X3884240D01*
X3675000Y1843190D02*
Y1925000D01*
X3648588Y1801915D02*
X3707501Y1767498D01*
X3618118Y1832384D02*
X3648588Y1801915D01*
X3615000Y1835503D02*
X3618118Y1832384D01*
X3445527Y1250000D02*
Y1375712D01*
X3541927Y1150099D02*
Y1401201D01*
X3445527Y1375712D02*
X3450000Y1380185D01*
X3533111Y1141283D02*
X3541927Y1150099D01*
X3427566Y1134036D02*
X3528717Y1136890D01*
X3537504Y1549318D02*
X3541927Y1401201D01*
X3580551Y1139052D02*
X3581400Y1140075D01*
X3575000Y1561319D02*
X3580188Y1310032D01*
X3576006Y1099963D02*
X3577107Y1130107D01*
X3517501Y1091213D02*
X3526288Y1100000D01*
X3575969D01*
X3576006Y1099963D01*
X1380049Y1628600D02*
X1475029D01*
X1380049Y1628600D02*
X1380049Y1628600D01*
X1475029D02*
X1630694Y1784266D01*
X1125809Y1628600D02*
X1380049D01*
X1119545Y1634864D02*
X1125809Y1628600D01*
X725000Y682201D02*
X739652Y615407D01*
X874933Y450568D02*
X874994Y450507D01*
X740000Y585502D02*
Y612193D01*
X740000D02*
X740000D01*
X878686Y444298D02*
X879997Y439957D01*
X881131Y437217D02*
X881131Y437216D01*
X862918Y462584D02*
Y462584D01*
X740000Y585502D02*
X862918Y462584D01*
X881131Y437216D02*
X910643Y382833D01*
X862918Y462584D02*
X874933Y450568D01*
X725000Y1140804D02*
X776246Y1192050D01*
X438327Y1341965D02*
X626331D01*
X767245Y1201051D01*
X229994Y1505000D02*
Y1550000D01*
Y1505000D02*
X262494Y1472500D01*
X307792D01*
X438327Y1341965D01*
X183787Y1206206D02*
X559569D01*
X175000Y1197419D02*
X183787Y1206206D01*
X3033675Y925000D02*
X3053675Y945000D01*
X3293930D01*
X2937500Y925000D02*
X3033675D01*
X3293930Y945000D02*
X3300000Y951070D01*
X3054573Y896400D02*
X3194745D01*
X2932976Y776444D02*
X2972906D01*
X3069205Y660258D02*
X3069305Y679545D01*
X3069205Y603347D02*
Y660258D01*
Y603347D02*
X3156401Y516152D01*
X1981985Y2946218D02*
X2153557Y2771444D01*
X1859558Y2229710D02*
X1859659Y2229698D01*
X1831082Y2232725D02*
X1831176Y2232722D01*
X1745421Y2210049D02*
X1795735Y2227486D01*
X1190194Y2409806D02*
X1196430Y2403570D01*
X1138762Y2490603D02*
X1184887Y2415114D01*
X1190194Y2409806D01*
X4649004Y2309832D02*
X4665941D01*
X4581336Y2377500D02*
X4649004Y2309832D01*
X1928516Y2161077D02*
X2007087Y2174996D01*
X1859659Y2229698D02*
X1900257Y2224999D01*
X1835015Y2136364D02*
X1928516Y2161077D01*
X1900257Y2224999D02*
X2080878D01*
X2800000Y2020340D02*
Y2164189D01*
Y2175000D02*
X2821430Y2153570D01*
X3013975Y3192450D02*
X3023710Y3202247D01*
X1650000Y3172150D02*
Y3434997D01*
Y3172150D02*
X1651473Y3170677D01*
X1893548Y3195165D02*
Y3202046D01*
Y3195165D02*
X1938790Y3170376D01*
X2495091Y3049914D02*
X2503878Y3041126D01*
X2325355Y3048247D02*
X2328449Y3106117D01*
X2485002Y3197370D02*
X2525002Y3215000D01*
X2424734Y3197370D02*
X2485002D01*
X2324654Y3045450D02*
X2325355Y3048247D01*
X2424712Y3100970D02*
X2495091Y3049914D01*
X2503878Y3041126D02*
X2525002Y3020217D01*
X3470979Y2725560D02*
X3521101Y2675438D01*
X3463714Y2725560D02*
X3470979D01*
X2800000Y2020340D02*
X2892306Y1855327D01*
X2976438Y1902389D02*
X3100005Y1824995D01*
X3121435Y1700000D02*
X3150000D01*
X2925924Y1820284D02*
X3121435Y1700000D01*
X4549820Y626565D02*
Y819634D01*
X4550002Y819815D01*
X4865805Y2025000D02*
X4875000D01*
X4529999Y2075000D02*
X4815805D01*
X4865805Y2025000D01*
X1649997Y3434999D02*
X1650000Y3434997D01*
X1371386Y2943007D02*
X1418345Y2896048D01*
Y2868345D02*
Y2896048D01*
X3090252Y3073774D02*
X3095031Y3078553D01*
X3083570Y3068005D02*
X3090252Y3073774D01*
X3087910Y2806646D02*
X3093622Y2824866D01*
X3095031Y3078553D02*
X3152908Y3143347D01*
X3093622Y2824866D02*
X3117175Y2918367D01*
X3052331Y3228598D02*
X3125000Y3350000D01*
X1329455Y3271271D02*
X1507965D01*
X1516752Y3280057D01*
Y3432431D01*
X1305005Y3172500D02*
X1306189Y3173685D01*
X1402415D01*
X1403600Y3174870D01*
X1257504Y3199320D02*
X1329455Y3271271D01*
X939015Y229231D02*
X939015Y229232D01*
X909783Y200000D02*
X939015Y229231D01*
X1483691Y1800000D02*
X1500000D01*
X1616197Y1819266D01*
X1016456Y1850000D02*
X1433691D01*
X1613816Y475000D02*
X1995000Y856184D01*
X1407104Y475000D02*
X1613816D01*
X1588714Y388713D02*
X2030000Y830000D01*
X1661000Y3089000D02*
Y3166142D01*
X1347496Y2977505D02*
X1371386Y2953615D01*
Y2943007D02*
Y2953615D01*
X3296831Y2424999D02*
X3468071Y2596238D01*
X3521101Y2675438D01*
X2790421Y469859D02*
X2858894Y533615D01*
X2789582Y469098D02*
X2790421Y469859D01*
X2777448Y456964D02*
X2789582Y469098D01*
X2709999Y1261001D02*
X2731213D01*
X2740001Y1252214D02*
X2781401Y1196097D01*
X2731213Y1261001D02*
X2740001Y1252214D01*
X3112504Y1050000D02*
X3112504Y1090000D01*
Y1099929D02*
X3132223Y1149412D01*
X2978497Y1281497D02*
X3042671Y1185097D01*
X3058497Y1281497D02*
X3073492Y1276437D01*
X3112504Y1090000D02*
Y1099929D01*
X3039997Y1299997D02*
X3058497Y1281497D01*
X2709999Y1030001D02*
Y1261001D01*
Y1419753D01*
X2959997Y1299997D02*
X2978497Y1281497D01*
X3209860Y1577740D02*
X3303361Y1595683D01*
X2876497Y1236003D02*
X2895001Y1217499D01*
Y1100491D02*
Y1217499D01*
X2876497Y1236003D02*
Y1430488D01*
X2812497Y1017986D02*
X2895001Y1100491D01*
X3202250Y1481640D02*
X3234710Y1479090D01*
X3303361Y1595683D02*
X3318501Y1599679D01*
X3056213Y1693784D02*
X3061733Y1688263D01*
X3135551Y1639149D02*
X3164000Y1673574D01*
Y1686000D01*
X3922501Y1965677D02*
Y2024317D01*
X3909321Y2037497D02*
X3922501Y2024317D01*
X3535001Y2074992D02*
X3550735Y2059258D01*
X1433691Y1850000D02*
X1483691Y1800000D01*
X958508Y1794794D02*
X1012110Y1845860D01*
X1016456Y1850000D01*
X3624999Y3425002D02*
X3625001Y3424999D01*
X3624999Y3425002D02*
Y3543302D01*
X3624999Y3547195D02*
X3626891Y3550596D01*
X3631894Y3559585D01*
X3624999Y3543302D02*
X3624999Y3547195D01*
X3625001Y3374976D02*
Y3424999D01*
X3631894Y3559585D02*
X3661894Y3607237D01*
X3625001Y3374976D02*
X3797474Y3202503D01*
X4060950D01*
X2597426Y791726D02*
Y1012573D01*
X2585002Y1024996D02*
X2597426Y1012573D01*
X3922501Y1725678D02*
Y1784317D01*
X3675000Y1925000D02*
X3881824D01*
X3922501Y1965677D01*
X3505755Y1974997D02*
X3514542Y1966210D01*
X3219123Y1974997D02*
X3505755D01*
X3514542Y1966210D02*
X3615000Y1835503D01*
X3550735Y2036907D02*
Y2059258D01*
Y2036907D02*
X3561155Y2026487D01*
X3679671D01*
X3535001Y2074997D02*
X3544990D01*
X3545000Y2074987D01*
X3520252Y2009997D02*
X3555249Y1975000D01*
X3311829Y2009997D02*
X3520252D01*
X3545000Y2074987D02*
Y2240000D01*
X2385001Y3285001D02*
X2616213D01*
X2625000Y3276214D01*
Y3145679D02*
Y3276214D01*
Y3145679D02*
X2643178Y3127501D01*
X1786927Y3127149D02*
X1814591Y3113372D01*
X2325000Y3225000D02*
X2385001Y3285001D01*
X2040004Y3230002D02*
X2052504Y3242502D01*
X2322502Y3350001D02*
X2525002D01*
X2215004Y3242502D02*
X2322502Y3350001D01*
X2040004Y3225002D02*
Y3230002D01*
X2052504Y3242502D02*
X2215004D01*
X2216510Y2943498D02*
X2253510Y2906498D01*
X2171901Y2965796D02*
X2216510Y2943498D01*
X3916211Y1874997D02*
X3947307Y1843901D01*
X3950000D01*
X4018901Y1775000D01*
X4052225Y1904777D02*
X4100999Y1825526D01*
X4050000Y1912639D02*
Y2025003D01*
X4050000Y1908394D02*
X4052225Y1904777D01*
X4050000Y1912639D02*
X4050000Y1908394D01*
X3865003Y2209998D02*
X3969663Y2105337D01*
X3969665D01*
X4050000Y2025003D01*
X3921318Y2074997D02*
X3957501Y2038814D01*
Y1916287D02*
Y2038814D01*
X3690681Y2037497D02*
X3909321D01*
X3100001Y2224999D02*
X3219123D01*
X3063357Y2261643D02*
X3063357D01*
X3100001Y2224999D01*
X3060238Y2266196D02*
X3063357Y2261643D01*
X3001991Y2398274D02*
X3060238Y2266196D01*
X2924473Y2183729D02*
X2933205Y2174997D01*
X2825000Y2400000D02*
X2924473Y2183729D01*
X2938101Y2174997D02*
X3219123D01*
X2933205Y2174997D02*
X2938101Y2174997D01*
X767245Y1201051D02*
X776246Y1192050D01*
X875000Y275000D02*
X895607Y295607D01*
X908996Y356543D01*
X350000Y200000D02*
X909783D01*
X1725000Y1675000D02*
X1735447Y1664553D01*
X1819532D01*
X3618165Y693165D02*
Y783161D01*
X3700001Y864997D01*
X1756000Y3188691D02*
X1759875Y3162812D01*
X1750003Y3311837D02*
X1755070Y3198332D01*
X1759875Y3162812D02*
X1763699Y3151127D01*
X1750003Y3311837D02*
Y3323747D01*
X3626890Y2074997D02*
X3921318D01*
X3697502Y2209998D02*
X3865003D01*
X3916211Y1874997D02*
X3957501Y1916287D01*
X4115301Y1744999D02*
Y1775000D01*
Y1744999D02*
X4160000Y1649999D01*
X2709999Y1419753D02*
X2759207Y1468961D01*
X2709999Y1030001D02*
X2715004Y1024996D01*
X3390827Y514231D02*
X3392607Y515352D01*
X3398190Y520935D02*
X3415124Y565784D01*
X3390827Y1050000D02*
X3399614Y1041213D01*
X3392607Y515352D02*
X3398190Y520935D01*
X1551752Y3140687D02*
Y3417933D01*
X1599663Y3000000D02*
X1608450Y2991213D01*
X2153557Y2771444D02*
X2162305Y2762694D01*
X1587236Y3000000D02*
X1599663D01*
X1763699Y3151127D02*
X1786927Y3127149D01*
X1608450Y2991213D02*
X1669937Y2832598D01*
X2162305Y2762694D02*
X2204543Y2720457D01*
X1914489Y2532130D02*
X1921620Y2524999D01*
X875000Y2440649D02*
Y2550000D01*
X785000Y2350649D02*
X875000Y2440649D01*
X1250000Y3345488D02*
Y3375000D01*
X1203945Y3299433D02*
X1250000Y3345488D01*
X1203945Y3157126D02*
Y3299433D01*
X1604165Y3853614D02*
X1645752Y3866856D01*
X1520658Y3804974D02*
X1604165Y3853614D01*
X1578146Y3721496D02*
X1675000Y3775000D01*
X1935428Y3846255D02*
X1946255D01*
X1684434Y3870937D02*
X1935428Y3846255D01*
X1375000Y3659316D02*
X1520658Y3804974D01*
X2600000Y2500000D02*
X2621430Y2521430D01*
Y2576737D02*
X2625002Y2580309D01*
X2621430Y2521430D02*
Y2576737D01*
X3086735Y2797569D02*
X3087910Y2806646D01*
X3025001Y2792911D02*
X3025001Y2719121D01*
X3078364Y3062798D02*
X3083570Y3068005D01*
X3005868Y2879213D02*
X3025001Y2792911D01*
X3054547Y3030295D02*
X3078364Y3062798D01*
X3007254Y2926291D02*
X3029395Y3004395D01*
X2974999Y3022568D02*
Y3034995D01*
X2974998Y2792911D02*
X2974999Y2719121D01*
X2968789Y2907053D02*
X2974999Y3022568D01*
X3063125Y2629539D02*
X3086735Y2797569D01*
X3029395Y3004395D02*
X3052497Y3027497D01*
X2968853Y2891854D02*
X2974998Y2792911D01*
X2941500Y3085316D02*
X2983085Y3134175D01*
X2985739Y3138346D01*
X2861500Y3014676D02*
Y3461500D01*
X4014653Y3460429D02*
X4014673Y3460380D01*
X3661894Y3607237D02*
X3700001Y3647673D01*
X4014673Y3460380D02*
X4039520Y3397504D01*
X3954793Y3522655D02*
X3981857Y3502847D01*
X3925000Y3425000D02*
X3958708Y3341293D01*
X3916213Y3416213D02*
X3925000Y3425000D01*
X3810363Y3404393D02*
X3916213Y3416213D01*
X3789351Y3647673D02*
X3954793Y3522655D01*
X3797937Y3404393D02*
X3810363D01*
X3958708Y3341293D02*
X3965126Y3334874D01*
X3967495Y3332505D01*
X4039520Y3397504D02*
X4060950D01*
X3539000Y1797455D02*
Y1809817D01*
X3545392Y1590926D02*
X3546929Y1589391D01*
X3526335Y1662667D02*
X3545392Y1590926D01*
X3538499Y1739678D02*
X3539000Y1797455D01*
X3546929Y1589391D02*
X3575000Y1561319D01*
X3524324Y1562498D02*
X3537504Y1549318D01*
X3187500Y1132496D02*
X3425576Y1134002D01*
X3528717Y1136890D02*
X3533111Y1141283D01*
X3112504Y1057500D02*
X3187500Y1132496D01*
X2959997Y1299997D02*
Y1414993D01*
X3336995Y1493394D02*
X3406100Y1562498D01*
X3332602Y1489000D02*
X3336995Y1493394D01*
X3318501Y1599679D02*
X3458500Y1739678D01*
X3234710Y1479090D02*
X3332602Y1489000D01*
X3316037Y2616610D02*
X3331037Y2540505D01*
X3286386Y2709923D02*
X3316037Y2616610D01*
X3061554Y2550000D02*
X3126261Y2648307D01*
X3100005Y1824995D02*
X3106218D01*
X2350000Y1880783D02*
Y2000000D01*
X2349907Y1880690D02*
X2350000Y1880783D01*
X1819532Y1664553D02*
X1890745Y1735766D01*
X1025002Y1724998D02*
X1119545Y1634864D01*
X651962Y1676964D02*
X672254D01*
X569999Y1595000D02*
X651962Y1676964D01*
X4544319Y2452500D02*
X4697500D01*
X4850000Y2300000D01*
X4600155Y2750748D02*
X4600748D01*
X4638602Y2577974D02*
X4654655Y2594027D01*
Y2663974D01*
X4600748Y2750748D02*
X4625000Y2775000D01*
X4654655Y2663974D02*
X4705002Y2714320D01*
X4735001Y2752500D02*
X4805002Y2775001D01*
X4705002Y2714320D02*
X4735001Y2752500D01*
X4704422Y3097500D02*
X4782502D01*
X4805002Y3075000D01*
X4655018Y2952500D02*
X4782502D01*
X4648732Y2946214D02*
X4655018Y2952500D01*
X2625002Y2580309D02*
Y2719121D01*
X2716215Y2400000D02*
X2725002Y2408787D01*
Y2719121D01*
X2227792Y2408787D02*
Y2555287D01*
Y2408787D02*
X2236579Y2400000D01*
X2716215D01*
X2192792Y2382208D02*
Y2540790D01*
Y2382208D02*
X2725002Y1849999D01*
X2170460Y2563122D02*
X2192792Y2540790D01*
X2184957Y2598122D02*
X2227792Y2555287D01*
X3331037Y2509207D02*
Y2540505D01*
X3308705Y2486875D02*
X3331037Y2509207D01*
X3219118Y2074997D02*
X3292909Y2074997D01*
X3385604Y2060146D01*
X3400743Y2059003D02*
X3516501D01*
X4402273Y3527500D02*
X4499773Y3625000D01*
X4776819D02*
X4905002Y3496818D01*
X4499773Y3625000D02*
X4776819D01*
X2204543Y2720457D02*
X2208008Y2652853D01*
X2212078Y2648782D01*
X2272337Y2588523D01*
X1894564Y1735766D02*
X1907745Y1748946D01*
Y1752766D02*
X1929976Y1774997D01*
X1616197Y1819266D02*
X1921821Y1855000D01*
X1941814Y1874992D01*
X1890745Y1735766D02*
X1894564D01*
X1929976Y1774997D02*
X2080878D01*
X1907745Y1748946D02*
Y1752766D01*
X1877745Y1802766D02*
X2007087Y1824995D01*
X1941814Y1874992D02*
X2080878D01*
X2007087Y1824995D02*
X2080878Y1824995D01*
X1859245Y1784266D02*
X1877745Y1802766D01*
X2222792Y2010286D02*
X2227792Y2005286D01*
X2222792Y1739709D02*
X2227792Y1744709D01*
X2030000Y830000D02*
Y1691213D01*
X2038787Y1700000D01*
X2222792Y1722792D02*
Y1739709D01*
X2038787Y1700000D02*
X2200000D01*
X2227792Y1744709D02*
Y2005286D01*
X2222792Y2010286D02*
Y2010790D01*
X2170460Y1736874D02*
X2192792Y1759206D01*
Y1990789D01*
X2200000Y1700000D02*
X2222792Y1722792D01*
X2080878Y2025000D02*
X2158581D01*
X2192792Y1990789D01*
X1995000Y856184D02*
Y1723087D01*
X2008787Y1736874D01*
X2170460D01*
X908787Y3158496D02*
X993500D01*
X900000Y3084921D02*
Y3149709D01*
X908787Y3158496D01*
X900000Y3084921D02*
X934999Y3049922D01*
Y2981671D02*
X939999Y2976671D01*
Y2946174D02*
Y2976671D01*
X934999Y2981671D02*
Y3049922D01*
X817497Y3124997D02*
X854998Y3087497D01*
Y3038819D02*
Y3087497D01*
X948127Y2851873D02*
X1038127D01*
X895002Y2904998D02*
Y2998815D01*
Y2904998D02*
X948127Y2851873D01*
X983183Y2902990D02*
X1053822D01*
X939999Y2946174D02*
X983183Y2902990D01*
X1145000Y3172500D02*
X1152500D01*
X1410003Y3452505D02*
X1442500Y3485002D01*
X854998Y3038819D02*
X895002Y2998815D01*
X860002Y2797498D02*
Y2984318D01*
X800002Y2737498D02*
X860002Y2797498D01*
X819319Y3025000D02*
X860002Y2984318D01*
X2363510Y2808797D02*
X2375000Y2797307D01*
Y2719121D02*
Y2797307D01*
X2363510Y2808797D02*
Y2998371D01*
X3010208Y1693784D02*
X3056213D01*
X1551752Y3552070D02*
Y3566212D01*
X1520003Y3435682D02*
Y3534322D01*
X1516752Y3432431D02*
X1520003Y3435682D01*
X1551752Y3566212D02*
X1560539Y3574999D01*
X1501826Y3552499D02*
X1520003Y3534322D01*
X1560539Y3574999D02*
X1802499D01*
X1555003Y3421184D02*
Y3548819D01*
X1551752Y3417933D02*
X1555003Y3421184D01*
X1551752Y3552070D02*
X1555003Y3548819D01*
X2324654Y3043441D02*
Y3045450D01*
X2530001Y3350001D02*
X2591214Y3411210D01*
X2745002D01*
X2725000Y3431211D02*
X2745002Y3411210D01*
X2250000Y3674999D02*
Y4050000D01*
X2928500Y3068496D02*
X2941500Y3085316D01*
X2910000Y3049996D02*
X2928500Y3068496D01*
X3052497Y3027497D02*
X3054547Y3030295D01*
X2874999Y2797307D02*
X2885000Y2807309D01*
X2874999Y2719121D02*
Y2797307D01*
X2825001Y2796829D02*
X2850000Y2821827D01*
X2861500Y3014676D02*
X2885000Y2991176D01*
X2850000Y2821827D02*
Y2976679D01*
X2885000Y2807309D02*
Y2991176D01*
X2826500Y3000179D02*
X2850000Y2976679D01*
X2774999Y2641412D02*
X2866411Y2550000D01*
X3061554D01*
X3040792Y2607206D02*
X3063125Y2629539D01*
X2825001Y2641412D02*
X2859207Y2607206D01*
X3040792D01*
X3679671Y2026487D02*
X3690681Y2037497D01*
X3720001Y1994997D02*
X3800001D01*
X3700004Y1975000D02*
X3720001Y1994997D01*
X3555249Y1975000D02*
X3700004D01*
X3219123Y2025000D02*
X3296826D01*
X3311829Y2009997D01*
X3650000Y2265003D02*
X3665005Y2249998D01*
X3641213Y2381465D02*
X3650000Y2372678D01*
X3433533Y2381465D02*
X3641213D01*
X3650000Y2265003D02*
Y2372678D01*
X3602505Y2193178D02*
Y2301816D01*
X3584323Y2319998D02*
X3602505Y2301816D01*
Y2193178D02*
X3615685Y2179998D01*
X3039997Y1299997D02*
Y1490175D01*
X3025001Y1505171D02*
X3039997Y1490175D01*
X3025001Y1505171D02*
Y1580875D01*
X2911497Y1250500D02*
X2930001Y1231996D01*
X2886877Y1491294D02*
X2890001Y1488170D01*
X2987506Y1050000D02*
Y1057500D01*
X2930001Y1115004D02*
X2987506Y1057500D01*
X2930001Y1115004D02*
Y1231996D01*
X2911497Y1250500D02*
Y1415990D01*
X2876497Y1430488D02*
X2890001Y1443992D01*
X2925001Y1429494D02*
Y1580875D01*
X2911497Y1415990D02*
X2925001Y1429494D01*
X2890001Y1443992D02*
Y1488170D01*
X3546929Y1589391D02*
X3546929D01*
X3406100Y1562498D02*
X3524324D01*
X3036898Y397501D02*
X3196374D01*
X3390827Y514231D01*
X2310000Y735000D02*
Y1261593D01*
X2175000Y600000D02*
X2310000Y735000D01*
X2374995Y1277091D02*
Y1580875D01*
X2382502Y582497D02*
Y1235101D01*
X2487502Y1191609D02*
X2574999Y1279106D01*
X2099999Y299994D02*
X2382502Y582497D01*
X2150002Y399999D02*
X2347502Y597499D01*
X2417502Y1220603D02*
X2475000Y1278101D01*
X2417502Y431805D02*
X2430951Y418355D01*
X2425002Y1277601D02*
Y1580875D01*
X2475000Y1278101D02*
Y1580875D01*
X2538934Y456964D02*
X2777448D01*
X2347502Y597499D02*
Y1249598D01*
X2452502Y1206106D02*
X2525002Y1278606D01*
X2452502Y446302D02*
X2600003Y298801D01*
X2347502Y1249598D02*
X2374995Y1277091D01*
X2325002Y1276596D02*
Y1580875D01*
X2487502Y508396D02*
X2538934Y456964D01*
X2417502Y431805D02*
Y1220603D01*
X2310000Y1261593D02*
X2325002Y1276596D01*
X2452502Y446302D02*
Y1206106D01*
X2487502Y508396D02*
Y1191609D01*
X2430951Y379751D02*
Y418355D01*
X2382502Y1235101D02*
X2425002Y1277601D01*
X2525002Y1278606D02*
Y1580875D01*
X1588714Y346140D02*
Y388713D01*
X1558787Y316213D02*
X1588714Y346140D01*
X230000Y320000D02*
Y575440D01*
Y320000D02*
X350000Y200000D01*
X1660701Y150000D02*
X1751302Y240601D01*
X3423822Y1924995D02*
X3539000Y1809817D01*
X3516501Y2059003D02*
X3535001Y2074992D01*
X3219123Y2274991D02*
X3292914Y2274991D01*
X3308705Y2263123D01*
X3106218Y1824995D02*
X3106219Y1824995D01*
X2007087Y2174996D02*
X2080878Y2174997D01*
X1921620Y2524999D02*
X2080878D01*
X2077769Y2428107D02*
X2080878Y2424999D01*
X1946255Y3846255D02*
X1975000Y3875000D01*
X1564000Y3721496D02*
X1578146D01*
X1465535Y2998198D02*
X1587236Y3000000D01*
X1352505Y3060002D02*
X1408113Y3004394D01*
X1412506Y3000000D01*
X1460895Y2998248D01*
X3740437Y3461894D02*
X3797937Y3404393D01*
X4953570Y2703570D02*
Y2753570D01*
X4925000Y2675000D02*
X4953570Y2703570D01*
Y2753570D02*
X4975000Y2775000D01*
X4550002Y1147164D02*
X4550002Y1153377D01*
X3150000Y1700000D02*
X3164000Y1686000D01*
X4550002Y1153377D02*
X4558789Y1162164D01*
X4550002Y980186D02*
Y1147164D01*
X4558789Y1162164D02*
X4624842Y1225158D01*
X3184930Y1050000D02*
X3390827D01*
X4625000Y2775000D02*
X4735001Y2852500D01*
X4327500Y2472501D02*
X4544319Y2452500D01*
X4304999Y2495001D02*
X4327500Y2472501D01*
X5047501Y2597501D02*
X5050000Y2600000D01*
X4827501Y2597501D02*
X5047501D01*
X2099999Y4249994D02*
Y4273794D01*
X2866213Y925000D02*
X2875000Y916213D01*
X2812497Y925000D02*
X2866213D01*
X2324654Y3037227D02*
Y3043441D01*
X4522499Y2377500D02*
X4581336D01*
X975000Y2375000D02*
X1041000Y2309000D01*
X3615685Y2075676D02*
Y2179998D01*
X3615001Y2074992D02*
X3615685Y2075676D01*
X3475686Y2310001D02*
X3485683Y2319998D01*
X3584323D01*
X3424997Y2310001D02*
X3475686D01*
X3800001Y1874997D02*
X3916211D01*
X3219123Y2324994D02*
X3410005D01*
X3424997Y2310001D01*
X3930003Y1387505D02*
X3953750Y1411248D01*
X3967504Y1425001D01*
X3409992Y2374996D02*
X3424997Y2390001D01*
X3219123Y2374996D02*
X3409992D01*
X3700001Y3500000D02*
X3738108Y3461894D01*
X3700001Y3500000D02*
Y3502330D01*
X3738108Y3461894D02*
X3740437D01*
X4060950Y3332505D02*
X4167498D01*
X3967495D02*
X4060950D01*
X4112500Y2875005D02*
X4344993D01*
X4094996D02*
X4112500D01*
X1890002Y2025000D02*
X1940005Y1974997D01*
X2080878D01*
X1900000Y1924995D02*
X2080878D01*
X1890002Y1900001D02*
X1900000Y1909999D01*
Y1924995D01*
X1630694Y1784266D02*
X1859245D01*
X2643178Y3127501D02*
X2766212D01*
X2774999Y2896824D02*
Y3118714D01*
X2766212Y3127501D02*
X2774999Y3118714D01*
X2324654Y3037227D02*
X2363510Y2998371D01*
X2272337Y2588523D02*
X2522110D01*
X2574999Y2641412D01*
X2725002Y1580875D02*
Y1849999D01*
X1383787Y3552499D02*
X1501826D01*
X1375000Y3561285D02*
X1383787Y3552499D01*
X1375000Y3561285D02*
Y3659316D01*
X4579999Y3368746D02*
Y3499998D01*
X4553500Y3342247D02*
X4579999Y3368746D01*
X4553500Y3268496D02*
Y3342247D01*
X4535001Y3249996D02*
X4553500Y3268496D01*
X2225001Y2124999D02*
X2350000Y2000000D01*
X3106219Y1824995D02*
X3219123D01*
X2800000Y2164189D02*
Y2175000D01*
X2080878Y2124999D02*
X2225001D01*
X3700001Y864997D02*
Y1434998D01*
X4805002Y2575001D02*
X4827501Y2597501D01*
X4805002Y2675000D02*
X4925000D01*
X4805002Y2675001D02*
X4805002Y2675000D01*
X2812497Y925000D02*
Y1017986D01*
X4339055Y3332505D02*
X4452491D01*
X4535001Y3249996D01*
X4553500Y3443504D02*
X4566248Y3456251D01*
X4200000Y3317504D02*
Y3337503D01*
Y3300003D02*
Y3317504D01*
X4280000Y3417503D02*
X4365684D01*
X4535679Y3587498D02*
X4624319D01*
X4637499Y3574318D01*
X4615000Y3403179D02*
X4637499Y3425678D01*
X4200000Y3337503D02*
X4280000Y3417503D01*
X4365684D02*
X4535679Y3587498D01*
X4615000Y3249996D02*
Y3403179D01*
X4637499Y3425678D02*
Y3574318D01*
X4280000Y3397504D02*
X4339055D01*
X4200000Y3317504D02*
X4280000Y3397504D01*
X3789351Y3647673D02*
X3930050D01*
X3700001D02*
X3789351D01*
X4805002Y3175000D02*
X4852502D01*
X4905002Y3227500D01*
X4050223Y3527500D02*
X4402273D01*
X3930050Y3647673D02*
X4050223Y3527500D01*
X4905002Y3227500D02*
Y3496818D01*
X4307498Y2727503D02*
X4329997Y2750002D01*
X4100000Y2489997D02*
X4307498Y2697495D01*
Y2727503D01*
X4100000Y2480183D02*
Y2489997D01*
Y2319807D02*
Y2326893D01*
X3995000Y2387574D02*
X4012574Y2370000D01*
X4056894D01*
X4100000Y2326893D01*
X3995000Y2387574D02*
Y2560455D01*
X4094996Y2660452D02*
Y2875005D01*
X3995000Y2560455D02*
X4094996Y2660452D01*
X4732501Y3249996D02*
X4757505Y3275000D01*
X4615000Y3249996D02*
X4732501D01*
X4757505Y3275000D02*
X4792501D01*
X4300000Y2495001D02*
X4304999D01*
X4735001Y2852500D02*
X4805002Y2875000D01*
X3250004Y1380185D02*
X3450000D01*
Y1414994D01*
X3470004Y1434998D01*
X4499999Y2400000D02*
X4522499Y2377500D01*
X4300000Y2304999D02*
X4529999Y2075000D01*
X4490002Y1602499D02*
Y1649999D01*
Y1602499D02*
X4581501Y1511000D01*
Y1443499D02*
Y1511000D01*
Y1443499D02*
X4600000Y1425000D01*
X4167498Y3332505D02*
X4200000Y3300003D01*
Y2962505D02*
Y3300003D01*
X4112500Y2875005D02*
X4200000Y2962505D01*
X2825001Y2641412D02*
Y2796829D01*
X4782502Y2952500D02*
X4805002Y2975000D01*
X569999Y1550000D02*
Y1595000D01*
X2874994Y1568992D02*
X2886877D01*
X2874994Y1580875D02*
X2874994Y1568992D01*
X2886877Y1491294D02*
Y1568992D01*
X2124998Y3750000D02*
Y3975003D01*
X2099999Y4000002D02*
X2124998Y3975003D01*
X2000000Y4125000D02*
X2175000D01*
X2250000Y4050000D01*
X1975000Y3875000D02*
Y4100000D01*
X2000000Y4125000D01*
X3292914Y2474996D02*
X3308705Y2486875D01*
X3219123Y2474996D02*
X3292914Y2474996D01*
X5192499Y3405002D02*
X5192500Y3405001D01*
X2574999Y1279106D02*
Y1580875D01*
X2625002Y1279612D02*
Y1580875D01*
X2759207Y1468961D02*
X2790789D01*
X2825001Y1503174D01*
Y1580875D01*
X3150000Y1700000D02*
X3335002D01*
X2974999Y1580875D02*
Y1658579D01*
Y1502689D02*
Y1580875D01*
Y1658579D02*
X3010208Y1693784D01*
X3335002Y1700000D02*
X3410000Y1774998D01*
X3145333Y1774992D02*
X3219123D01*
X3458500Y1743498D02*
X3489999Y1774998D01*
X3458500Y1739678D02*
Y1743498D01*
X3050006Y980000D02*
X3164930D01*
X780002Y3362497D02*
X817502Y3324997D01*
X1145000Y3107502D02*
X1152500D01*
X1177498Y3132500D01*
X1179319D01*
X1203945Y3157126D01*
X1135002Y3485002D02*
X1442500D01*
X1025000Y3189996D02*
Y3375000D01*
X1135002Y3485002D01*
X987002Y2982986D02*
X1018503Y2951490D01*
X969999Y2996169D02*
Y3066806D01*
Y2996169D02*
X983181Y2982986D01*
X969999Y3066806D02*
X994688Y3091495D01*
X983181Y2982986D02*
X987002D01*
X994688Y3091495D02*
X1006499D01*
X1025000Y3109996D01*
X1067003Y2916170D02*
Y2986810D01*
X1040822Y3012990D02*
X1067003Y2986810D01*
X993500Y3158496D02*
X1025000Y3189996D01*
X1038127Y2851873D02*
X1157502Y2732498D01*
X1018503Y3031490D02*
X1037002Y3012990D01*
X1053822Y2902990D02*
X1067003Y2916170D01*
X1037002Y3012990D02*
X1040822D01*
X1442500Y3485002D02*
X1450003D01*
X1754396Y3328141D02*
X1767503Y3341248D01*
X1750003Y3323747D02*
X1754396Y3328141D01*
X1352505Y3060002D02*
Y3069323D01*
X1339324Y3082503D02*
X1352505Y3069323D01*
X1305005Y3107502D02*
X1312504D01*
X1322504Y3097502D01*
X1331291Y3082503D02*
X1339324D01*
X1322504Y3091290D02*
X1331291Y3082503D01*
X1322504Y3091290D02*
Y3097502D01*
X1272506Y3067502D02*
X1297505Y3042503D01*
X1270686Y3067502D02*
X1272506D01*
X1257504Y3080683D02*
X1270686Y3067502D01*
X1257504Y3080683D02*
Y3199320D01*
X817502Y3324997D02*
Y3782163D01*
X1035336Y3999997D01*
X1349998D01*
X2850000Y275000D02*
X2967511D01*
X2976298Y283787D02*
Y336901D01*
X2967511Y275000D02*
X2971905Y279394D01*
X2971905Y279394D02*
X2976298Y283787D01*
X2350001Y275000D02*
Y298801D01*
X2430951Y379751D01*
X257498Y3124997D02*
Y3325002D01*
Y2724998D02*
Y2924998D01*
X1751302Y240601D02*
Y376302D01*
X1975000Y600000D01*
X4100000Y275000D02*
Y282240D01*
X4166371Y348610D01*
X4176097D01*
X4177487Y350000D01*
X3850000Y275000D02*
Y298800D01*
X3219123Y2424999D02*
X3296831D01*
X2600003Y275000D02*
Y298801D01*
X2275000Y900000D02*
Y1580875D01*
X1975000Y600000D02*
X2275000Y900000D01*
X2080878Y2074997D02*
X2158585D01*
X2222792Y2010790D01*
X1297505Y3042503D02*
X1305005D01*
X1467505Y3625001D02*
X1564000Y3721496D01*
X1305005Y2977505D02*
X1347496D01*
X2574999Y2641412D02*
Y2719115D01*
X1467505Y3625001D02*
X1802499D01*
X1460000D02*
X1467505D01*
X1558787Y316213D02*
X1600000Y275000D01*
X1350003D02*
Y417899D01*
X1407104Y475000D01*
X1914396Y389392D02*
X1925003Y399999D01*
X2150002D01*
X1850002Y275000D02*
Y315361D01*
X1914396Y379755D01*
Y389392D01*
X1157502Y2724998D02*
Y2732498D01*
X800002Y2724998D02*
Y2737498D01*
X3219123Y1924995D02*
X3423822D01*
X3424997Y2390001D02*
X3433533Y2381465D01*
X2325002Y2719115D02*
Y2915005D01*
X2275000Y2719115D02*
Y2842709D01*
X2253510Y2864200D02*
X2275000Y2842709D01*
X2253510Y2864200D02*
Y2906498D01*
X1649997Y3434999D02*
X1700000D01*
X2525002Y2719121D02*
Y2929778D01*
Y2929783D01*
X4369997Y2560000D02*
Y2750002D01*
X4329997D02*
X4369997D01*
X1649997Y3514999D02*
X1700000D01*
X1029516Y3042503D02*
X1145000D01*
X1018503Y3031490D02*
X1029516Y3042503D01*
X1704999Y3519998D02*
X1797500D01*
X1700000Y3514999D02*
X1704999Y3519998D01*
X1700000Y3434999D02*
X1740000Y3474999D01*
X1802499D01*
X4310002Y2500000D02*
X4369997Y2560000D01*
X4304999Y2495001D02*
X4310002Y2500000D01*
X3349994Y4216999D02*
Y4240799D01*
Y4216999D02*
X3468302Y4098696D01*
Y3945996D02*
Y4098696D01*
Y3945996D02*
X3582247Y3832052D01*
X3586057D01*
X3700001Y3718113D01*
Y3647673D02*
Y3718113D01*
X4245944Y3320943D02*
X4261285Y3336290D01*
X4550002Y819815D02*
Y829625D01*
X4466212Y913414D02*
X4550002Y829625D01*
X4466212Y913414D02*
Y1425001D01*
X3930003Y1387505D02*
Y1434998D01*
X3700001Y1450004D02*
X3900001Y1649999D01*
X4160000D01*
X4550002Y819815D02*
X4575001Y794811D01*
X3665005Y2242500D02*
X3697502Y2209998D01*
X3665005Y2242500D02*
Y2249998D01*
X3535003D02*
X3545000Y2240000D01*
X2092506Y3242503D02*
X2115000Y3264997D01*
Y3340003D01*
X1884998Y3265002D02*
Y3339998D01*
X1907498Y3242503D02*
X1947508D01*
X1884998Y3265002D02*
X1907498Y3242503D01*
X1947508D02*
X1960004Y3230001D01*
X2115000Y3340003D02*
X2124998Y3350001D01*
X1874996D02*
X1884998Y3339998D01*
X1027494Y3107502D02*
X1145000D01*
X1025000Y3109996D02*
X1027494Y3107502D01*
X1042496Y3172500D02*
X1145000D01*
X1025000Y3189996D02*
X1042496Y3172500D01*
X800002Y2912501D02*
Y2924998D01*
X740002Y2852501D02*
X800002Y2912501D01*
X740002Y2665674D02*
Y2852501D01*
Y2665674D02*
X755679Y2649997D01*
X492499Y2924998D02*
X650005D01*
X492499Y3124997D02*
X682501D01*
X492499Y3325002D02*
X682501D01*
Y3324997D02*
Y3325002D01*
X817502Y3299998D02*
Y3307496D01*
X492499Y2724998D02*
X649999D01*
X3967504Y1425001D02*
X4466212D01*
X3219123Y1774992D02*
X3395008D01*
X4770001Y3297499D02*
X4792501Y3275000D01*
X4770001Y3297499D02*
Y3499998D01*
X1797500Y3519998D02*
X1802499Y3525002D01*
X2099999Y275000D02*
Y299994D01*
X1450003Y3614999D02*
X1460000Y3625001D01*
X2745002Y3199998D02*
Y3411210D01*
X2525002Y3350001D02*
X2530001D01*
X2525002Y2929783D02*
X2525215D01*
X2622934Y3027497D01*
X2667496D01*
X2699998Y3059999D01*
X2674999Y2719121D02*
Y2796824D01*
X2774999Y2896824D01*
X2425002Y3517498D02*
X2457499Y3549995D01*
X2425002Y3499998D02*
Y3517498D01*
X2399999Y3474999D02*
X2425002Y3499998D01*
X2197500Y3474999D02*
X2399999D01*
X2774999Y2641412D02*
Y2719115D01*
X1777500Y3424997D02*
X1802499D01*
X1767503Y3414994D02*
X1777500Y3424997D01*
X1767503Y3341248D02*
Y3414994D01*
X2172501Y3674994D02*
X2172506Y3674999D01*
X2974999Y1502689D02*
X2995004Y1482684D01*
Y1449999D02*
Y1482684D01*
X2959997Y1414993D02*
X2995004Y1449999D01*
X2925001Y2719121D02*
Y3035000D01*
X2910000Y3049996D02*
X2925001Y3035000D01*
D11*
X164400Y2544398D02*
G03*
X189397Y2569400I25000J2D01*
G01*
X164400Y2544404D02*
G03*
X164400Y2544400I25000J-5D01*
G01*
X165120Y1830356D02*
G03*
X164400Y1824400I24280J-5956D01*
G01*
X117519Y1807175D02*
G03*
X119410Y1809413I-18119J17225D01*
G01*
X117519Y1807175D02*
G03*
X119410Y1809413I-18119J17225D01*
G01*
X116857Y1806504D02*
G03*
X116860Y1806507I-17456J17896D01*
G01*
X116857Y1806504D02*
G03*
X116860Y1806507I-17456J17896D01*
G01*
X189395Y2569400D02*
G03*
X172653Y2562961I5J-25000D01*
G01*
X189395Y2569400D02*
G03*
X172653Y2562961I5J-25000D01*
G01*
X172653D02*
G03*
X172649Y2562958I16747J-18562D01*
G01*
X172653Y2562961D02*
G03*
X172649Y2562958I16747J-18562D01*
G01*
X172649Y2562958D02*
G03*
X164400Y2544404I16751J-18558D01*
G01*
X172649Y2562958D02*
G03*
X164400Y2544404I16751J-18558D01*
G01*
Y2544398D02*
G03*
X189396Y2569400I25000J2D01*
G01*
X116851Y1806498D02*
G03*
X116854Y1806501I-17451J17902D01*
G01*
X116851Y1806498D02*
G03*
X116854Y1806501I-17451J17902D01*
G01*
X117503Y1807158D02*
G03*
X117514Y1807170I-18103J17242D01*
G01*
X117503Y1807158D02*
G03*
X117514Y1807170I-18103J17242D01*
G01*
X116875Y1806521D02*
G03*
X117503Y1807158I-17475J17878D01*
G01*
X116875Y1806521D02*
G03*
X117503Y1807158I-17475J17878D01*
G01*
X116870Y1806516D02*
G03*
X116874Y1806520I-17470J17883D01*
G01*
X116870Y1806516D02*
G03*
X116874Y1806520I-17470J17883D01*
G01*
X116860Y1806507D02*
G03*
X116870Y1806516I-17460J17892D01*
G01*
X116860Y1806507D02*
G03*
X116870Y1806516I-17460J17892D01*
G01*
X75131Y1818398D02*
G03*
X75132Y1818393I24269J6002D01*
G01*
X75131Y1818398D02*
G03*
X75132Y1818393I24269J6002D01*
G01*
X124400Y2544399D02*
G03*
X74400Y2544400I-25000J1D01*
G01*
X90333Y2521102D02*
G03*
X110330Y2521916I9067J23298D01*
G01*
X75135Y1818382D02*
G03*
X75137Y1818377I24265J6017D01*
G01*
X75135Y1818382D02*
G03*
X75137Y1818377I24265J6017D01*
G01*
X111876Y2522735D02*
G03*
X114557Y2524519I-12476J21664D01*
G01*
X111876Y2522735D02*
G03*
X114557Y2524519I-12476J21664D01*
G01*
X110335Y2521918D02*
G03*
X111874Y2522734I-10935J22482D01*
G01*
X78099Y2531313D02*
G03*
X88341Y2521979I21301J13087D01*
G01*
X74400Y2544397D02*
G03*
X78099Y2531313I25000J3D01*
G01*
X90333Y2521102D02*
G03*
X110332Y2521917I9067J23298D01*
G01*
X110335Y2521918D02*
G03*
X111874Y2522734I-10935J22482D01*
G01*
X74400Y2544397D02*
G03*
X78099Y2531313I25000J3D01*
G01*
D02*
G03*
X88341Y2521979I21301J13087D01*
G01*
D02*
G03*
X90329Y2521103I11059J22421D01*
G01*
X88341Y2521979D02*
G03*
X90329Y2521103I11059J22421D01*
G01*
X124400Y2544353D02*
G03*
X124400Y2544397I-25000J47D01*
G01*
Y2544353D02*
G03*
X124400Y2544397I-25000J47D01*
G01*
X122312Y1834402D02*
G03*
X122309Y1834409I-22912J-10003D01*
G01*
X122312Y1834402D02*
G03*
X122309Y1834409I-22912J-10003D01*
G01*
X119426Y1809434D02*
G03*
X122313Y1834400I-20026J14966D01*
G01*
X122308Y1834411D02*
G03*
X76489Y1834403I-22908J-10011D01*
G01*
X122308Y1834411D02*
G03*
X76489Y1834403I-22908J-10011D01*
G01*
X122308Y1834411D02*
G03*
X76489Y1834403I-22908J-10011D01*
G01*
X119426Y1809434D02*
G03*
X122312Y1834401I-20026J14966D01*
G01*
X122308Y1834411D02*
G03*
X76489Y1834403I-22908J-10011D01*
G01*
X74508Y1822081D02*
G03*
X75130Y1818404I24892J2319D01*
G01*
X74508Y1822081D02*
G03*
X75130Y1818404I24892J2319D01*
G01*
X74508Y1822081D02*
G03*
X75130Y1818404I24892J2319D01*
G01*
X74508Y1822081D02*
G03*
X75130Y1818404I24892J2319D01*
G01*
X119412Y1809415D02*
G03*
X119425Y1809433I-20012J14984D01*
G01*
X119412Y1809415D02*
G03*
X119425Y1809433I-20012J14984D01*
G01*
X124400Y2544311D02*
G03*
X124400Y2544351I-25000J89D01*
G01*
X124400Y2544311D02*
G03*
X124400Y2544351I-25000J89D01*
G01*
X124400Y2544306D02*
G03*
X124400Y2544311I-25000J94D01*
G01*
Y2544306D02*
G03*
X124400Y2544311I-25000J94D01*
G01*
Y2544301D02*
G03*
X124400Y2544306I-25000J99D01*
G01*
Y2544265D02*
G03*
X124400Y2544300I-25000J135D01*
G01*
Y2544301D02*
G03*
X124400Y2544306I-25000J99D01*
G01*
Y2544265D02*
G03*
X124400Y2544300I-25000J135D01*
G01*
X124398Y2544082D02*
G03*
X124400Y2544265I-24998J318D01*
G01*
X124398Y2544082D02*
G03*
X124400Y2544265I-24998J318D01*
G01*
X124311Y2542299D02*
G03*
X124398Y2544081I-24912J2100D01*
G01*
X123819Y2539044D02*
G03*
X124311Y2542299I-24420J5356D01*
G01*
X123819Y2539044D02*
G03*
X124311Y2542299I-24420J5356D01*
G01*
X121065Y2531926D02*
G03*
X123819Y2539041I-21665J12474D01*
G01*
X121065Y2531926D02*
G03*
X123819Y2539041I-21665J12474D01*
G01*
X166488Y1834401D02*
G03*
X165120Y1830356I22912J-10001D01*
G01*
X166488Y1834401D02*
G03*
X165120Y1830356I22912J-10001D01*
G01*
X114557Y2524519D02*
G03*
X121065Y2531926I-15157J19881D01*
G01*
X114557Y2524519D02*
G03*
X121065Y2531926I-15157J19881D01*
G01*
X76488Y1834402D02*
G03*
X76221Y1833765I22912J-10002D01*
G01*
X76488Y1834402D02*
G03*
X76221Y1833765I22912J-10002D01*
G01*
X76488Y1834402D02*
G03*
X76221Y1833765I22912J-10002D01*
G01*
X76488Y1834402D02*
G03*
X76221Y1833765I22912J-10002D01*
G01*
X76219Y1833761D02*
G03*
X76218Y1833757I23181J-9362D01*
G01*
X76219Y1833761D02*
G03*
X76218Y1833757I23181J-9362D01*
G01*
X76217Y1833757D02*
G03*
X74400Y1824408I23183J-9357D01*
G01*
D02*
G03*
X74400Y1824400I25000J-8D01*
G01*
X75138Y1818372D02*
G03*
X75558Y1816878I24263J6027D01*
G01*
X76217Y1833757D02*
G03*
X74400Y1824408I23183J-9357D01*
G01*
D02*
G03*
X74400Y1824400I25000J-8D01*
G01*
X75138Y1818372D02*
G03*
X75558Y1816878I24263J6027D01*
G01*
X76113Y1815304D02*
G03*
X76488Y1814397I23287J9095D01*
G01*
X75560Y1816873D02*
G03*
X76112Y1815307I23840J7527D01*
G01*
X76113Y1815304D02*
G03*
X76488Y1814397I23287J9095D01*
G01*
X76113Y1815304D02*
G03*
X76488Y1814397I23287J9095D01*
G01*
X76113Y1815304D02*
G03*
X76488Y1814397I23287J9095D01*
G01*
X75138Y1818372D02*
G03*
X75558Y1816878I24263J6027D01*
G01*
X75138Y1818372D02*
G03*
X75558Y1816878I24263J6027D01*
G01*
X75560Y1816873D02*
G03*
X76112Y1815307I23840J7527D01*
G01*
X75560Y1816873D02*
G03*
X76112Y1815307I23840J7527D01*
G01*
X75560Y1816873D02*
G03*
X76112Y1815307I23840J7527D01*
G01*
X74438Y1823020D02*
G03*
X74439Y1823010I24962J1380D01*
G01*
D02*
G03*
X74505Y1822119I24961J1389D01*
G01*
X74438Y1823020D02*
G03*
X74439Y1823010I24962J1380D01*
G01*
D02*
G03*
X74505Y1822119I24961J1389D01*
G01*
X74505Y1822112D02*
G03*
X74507Y1822093I24895J2288D01*
G01*
X74438Y1823020D02*
G03*
X74439Y1823010I24962J1380D01*
G01*
D02*
G03*
X74505Y1822119I24961J1389D01*
G01*
X74400Y1824397D02*
G03*
X74438Y1823022I25000J2D01*
G01*
X74400Y1824397D02*
G03*
X74438Y1823022I25000J2D01*
G01*
Y1823020D02*
G03*
X74439Y1823010I24962J1380D01*
G01*
D02*
G03*
X74505Y1822119I24961J1389D01*
G01*
X74400Y1824397D02*
G03*
X74438Y1823022I25000J2D01*
G01*
X74400Y1824397D02*
G03*
X74438Y1823022I25000J2D01*
G01*
X74507Y1822092D02*
G03*
X74508Y1822082I24893J2307D01*
G01*
X74507Y1822092D02*
G03*
X74508Y1822082I24893J2307D01*
G01*
X74505Y1822112D02*
G03*
X74507Y1822093I24895J2288D01*
G01*
X74505Y1822112D02*
G03*
X74507Y1822093I24895J2288D01*
G01*
Y1822092D02*
G03*
X74508Y1822082I24893J2307D01*
G01*
X74505Y1822112D02*
G03*
X74507Y1822093I24895J2288D01*
G01*
Y1822092D02*
G03*
X74508Y1822082I24893J2307D01*
G01*
X99399Y1799400D02*
G03*
X116851Y1806498I1J25000D01*
G01*
X99399Y1799400D02*
G03*
X116851Y1806498I1J25000D01*
G01*
X99399Y1799400D02*
G03*
X116851Y1806498I1J25000D01*
G01*
X99399Y1799400D02*
G03*
X116851Y1806498I1J25000D01*
G01*
X76488Y1814397D02*
G03*
X90305Y1801113I22912J10002D01*
G01*
X76488Y1814397D02*
G03*
X90305Y1801113I22912J10002D01*
G01*
X90310Y1801111D02*
G03*
X91687Y1800619I9090J23289D01*
G01*
X90310Y1801111D02*
G03*
X91687Y1800619I9090J23289D01*
G01*
X76488Y1814397D02*
G03*
X90305Y1801113I22912J10002D01*
G01*
X76488Y1814397D02*
G03*
X90305Y1801113I22912J10002D01*
G01*
X97121Y1799504D02*
G03*
X99399Y1799400I2279J24896D01*
G01*
X97121Y1799504D02*
G03*
X99399Y1799400I2279J24896D01*
G01*
X97121Y1799504D02*
G03*
X99399Y1799400I2279J24896D01*
G01*
X97121Y1799504D02*
G03*
X99399Y1799400I2279J24896D01*
G01*
X91688Y1800619D02*
G03*
X97113Y1799505I7712J23781D01*
G01*
X91688Y1800619D02*
G03*
X97113Y1799505I7712J23781D01*
G01*
X91688Y1800619D02*
G03*
X97113Y1799505I7712J23781D01*
G01*
X91688Y1800619D02*
G03*
X97113Y1799505I7712J23781D01*
G01*
X90310Y1801111D02*
G03*
X91687Y1800619I9090J23289D01*
G01*
X90310Y1801111D02*
G03*
X91687Y1800619I9090J23289D01*
G01*
X164400Y1824399D02*
G03*
X202160Y1802901I25000J0D01*
G01*
D02*
G03*
X212313Y1834401I-12760J21498D01*
G01*
X164400Y1824399D02*
G03*
X202160Y1802901I25000J0D01*
G01*
D02*
G03*
X212313Y1834401I-12760J21498D01*
G01*
D02*
G03*
X202160Y1845898I-22912J-10001D01*
G01*
D02*
G03*
X166488Y1834401I-12760J-21498D01*
G01*
X212313D02*
G03*
X202160Y1845898I-22912J-10001D01*
G01*
D02*
G03*
X166488Y1834401I-12760J-21498D01*
G01*
X400923Y2442876D02*
X419100Y2424699D01*
X376034Y2541053D02*
X400923Y2516164D01*
Y2442876D02*
Y2516164D01*
X257498Y2724998D02*
X264998D01*
X376034Y2613963D01*
Y2541053D02*
Y2613963D01*
D12*
X414401Y2314398D02*
D03*
Y2249394D02*
D03*
Y2184396D02*
D03*
Y2119397D02*
D03*
Y2054398D02*
D03*
D13*
X144399Y2284395D02*
D03*
Y2084396D02*
D03*
D14*
X452120Y543560D02*
D03*
X325120D02*
D03*
X452120Y670560D02*
D03*
X325120D02*
D03*
X452120Y797560D02*
D03*
X325120D02*
D03*
D15*
X2925001Y1580875D02*
D03*
X2874994D02*
D03*
X2825001D02*
D03*
X2774999D02*
D03*
X2725002D02*
D03*
X2674999D02*
D03*
X2625002D02*
D03*
X2574999D02*
D03*
X2525002D02*
D03*
X2475000D02*
D03*
X2425002D02*
D03*
X2374995D02*
D03*
X2325002D02*
D03*
X2275000D02*
D03*
X2375000Y2719121D02*
D03*
X2425002D02*
D03*
X2475000D02*
D03*
X2525002D02*
D03*
X2574999Y2719115D02*
D03*
X2625002Y2719121D02*
D03*
X2674999D02*
D03*
X2725002D02*
D03*
X2774999Y2719115D02*
D03*
X2825001D02*
D03*
X3025001Y2719121D02*
D03*
X2275000Y2719115D02*
D03*
X3025001Y1580875D02*
D03*
X2874999Y2719121D02*
D03*
X2925001D02*
D03*
X2974999Y1580875D02*
D03*
X2325002Y2719115D02*
D03*
X2974999Y2719121D02*
D03*
D16*
X2080878Y1874992D02*
D03*
Y1924995D02*
D03*
Y1974997D02*
D03*
Y2025000D02*
D03*
Y2074997D02*
D03*
Y2124999D02*
D03*
Y2174997D02*
D03*
Y2224999D02*
D03*
Y2274996D02*
D03*
Y2324999D02*
D03*
Y2374996D02*
D03*
Y2424999D02*
D03*
Y2474996D02*
D03*
Y2524999D02*
D03*
X3219123D02*
D03*
Y2474996D02*
D03*
Y2424999D02*
D03*
Y2374996D02*
D03*
Y2274991D02*
D03*
Y2224999D02*
D03*
Y2174997D02*
D03*
Y2124999D02*
D03*
X3219118Y2074997D02*
D03*
X3219123Y2025000D02*
D03*
Y1974997D02*
D03*
Y1924995D02*
D03*
Y1874997D02*
D03*
Y1824995D02*
D03*
X2080878Y1774997D02*
D03*
Y1824995D02*
D03*
X3219123Y2324994D02*
D03*
D17*
Y1774992D02*
D03*
D18*
X2525002Y2929783D02*
D03*
Y3020217D02*
D03*
D19*
X3665005Y2249998D02*
D03*
X3535003D02*
D03*
X2937500Y925000D02*
D03*
X2812497D02*
D03*
X2585002Y1024996D02*
D03*
X3112504Y1050000D02*
D03*
X2987506D02*
D03*
X2715004Y1024996D02*
D03*
D20*
X4344993Y2875005D02*
D03*
D21*
X4094996D02*
D03*
D22*
X4364993Y3025008D02*
D03*
Y2725008D02*
D03*
D23*
X569999Y1550000D02*
D03*
X229994D02*
D03*
D24*
X4805002Y3275000D02*
D03*
Y3175000D02*
D03*
Y2575001D02*
D03*
Y2675001D02*
D03*
Y2775001D02*
D03*
Y2875000D02*
D03*
Y2975000D02*
D03*
Y3075000D02*
D03*
D25*
X5192499Y2444999D02*
D03*
Y3405002D02*
D03*
D26*
X4300000Y2495001D02*
D03*
Y2304999D02*
D03*
X4499999Y2400000D02*
D03*
D27*
X3930003Y1434998D02*
D03*
X3700001D02*
D03*
X3470004D02*
D03*
D28*
X3700001Y864997D02*
D03*
D29*
X1824998Y1200002D02*
D03*
D30*
X4550002Y980186D02*
D03*
Y819815D02*
D03*
X3250004Y1380185D02*
D03*
Y1219809D02*
D03*
X2950000Y3380186D02*
D03*
X4100000Y2319807D02*
D03*
X2950000Y3219810D02*
D03*
X4100000Y2480183D02*
D03*
D31*
X3424997Y2310001D02*
D03*
Y2390001D02*
D03*
X1018503Y3031490D02*
D03*
Y2951490D02*
D03*
X1859245Y1784266D02*
D03*
X1025000Y3109996D02*
D03*
X1859245Y1704266D02*
D03*
X1025000Y3189996D02*
D03*
D32*
X3489999Y1774998D02*
D03*
X3410000D02*
D03*
X4535001Y3249996D02*
D03*
X4615000D02*
D03*
X3615001Y2074992D02*
D03*
X2990000Y3049996D02*
D03*
X2315010Y2924997D02*
D03*
X2959997Y1299997D02*
D03*
X2235010Y2924997D02*
D03*
X2910000Y3049996D02*
D03*
X3039997Y1299997D02*
D03*
X3535001Y2074992D02*
D03*
D33*
X650005Y2924998D02*
D03*
X800002D02*
D03*
X1485908Y2374986D02*
D03*
X1635906D02*
D03*
X649999Y2724998D02*
D03*
X800002D02*
D03*
D34*
X4160000Y1649999D02*
D03*
X4490002D02*
D03*
D35*
X2699998Y3059999D02*
D03*
Y3190001D02*
D03*
X1450003Y3614999D02*
D03*
Y3485002D02*
D03*
D36*
X2592500Y3549995D02*
D03*
X2457499D02*
D03*
D37*
X682501Y3324997D02*
D03*
X817502D02*
D03*
X1157502Y2724998D02*
D03*
X1292503D02*
D03*
X682501Y3124997D02*
D03*
X817497D02*
D03*
D38*
X1810002Y1900001D02*
D03*
X1890002D02*
D03*
X1810002Y2025000D02*
D03*
X1890002D02*
D03*
D39*
X492499Y3124997D02*
D03*
X257498D02*
D03*
Y2724998D02*
D03*
Y3325002D02*
D03*
Y2924998D02*
D03*
X492499Y2724998D02*
D03*
Y2924998D02*
D03*
Y3325002D02*
D03*
D40*
X1305005Y3172500D02*
D03*
Y3107502D02*
D03*
Y3042503D02*
D03*
Y2977505D02*
D03*
X1145000D02*
D03*
Y3042503D02*
D03*
Y3107502D02*
D03*
Y3172500D02*
D03*
D41*
X2525002Y3215000D02*
D03*
Y3350001D02*
D03*
D42*
X2124998Y3750000D02*
D03*
X2075000D02*
D03*
X2024998D02*
D03*
X1974996D02*
D03*
X1924998D02*
D03*
X1874996D02*
D03*
Y3350001D02*
D03*
X1924998D02*
D03*
X1974996D02*
D03*
X2024998D02*
D03*
X2075000D02*
D03*
X2124998D02*
D03*
D43*
X1802499Y3674999D02*
D03*
Y3625001D02*
D03*
Y3574999D02*
D03*
Y3525002D02*
D03*
Y3474999D02*
D03*
Y3424997D02*
D03*
X2197500D02*
D03*
Y3474999D02*
D03*
Y3525002D02*
D03*
Y3574999D02*
D03*
Y3625001D02*
D03*
Y3674999D02*
D03*
D44*
X1999999Y3550000D02*
D03*
D45*
X3800001Y1874997D02*
D03*
Y1754998D02*
D03*
Y1994997D02*
D03*
D46*
X4060950Y3332505D02*
D03*
X4339055Y3397504D02*
D03*
X4060950Y3202503D02*
D03*
Y3267501D02*
D03*
Y3397504D02*
D03*
X4339055Y3332505D02*
D03*
Y3267501D02*
D03*
D47*
X4200000Y3300003D02*
D03*
D48*
X3700001Y3502330D02*
D03*
Y3647673D02*
D03*
D49*
X4770001Y3499998D02*
D03*
X4579999D02*
D03*
D50*
X1649997Y3514999D02*
D03*
Y3434999D02*
D03*
D51*
X1960004Y3225002D02*
D03*
X2040004D02*
D03*
D52*
X4339055Y3202503D02*
D03*
D53*
X419100Y2239696D02*
X795604D01*
X419100Y2174697D02*
X761730D01*
X900250Y2135050D02*
X1304275D01*
X795604Y2239696D02*
X900250Y2135050D01*
X761730Y2174697D02*
X864877Y2071550D01*
X1277973D01*
X1418773Y1930750D01*
X1789250D01*
X1460856Y1994250D02*
X1789250D01*
X1304275Y2135050D02*
X1445075Y1994251D01*
X1460856Y1994250D01*
X1789250Y2004248D02*
X1810002Y2025000D01*
X1789250Y1994250D02*
Y2004248D01*
Y1920752D02*
X1810002Y1900001D01*
X1789250Y1920752D02*
Y1930750D01*
D54*
X4364993Y3025008D02*
X4404993D01*
X4409593Y3029608D01*
Y3063974D01*
X4425000Y3079380D01*
Y3100000D01*
X4339055Y3202503D02*
X4487508D01*
X4535001Y3249996D01*
X4439580Y3154575D02*
X4487508Y3202503D01*
X4439580Y3114580D02*
Y3154575D01*
X4425000Y3100000D02*
X4439580Y3114580D01*
D55*
X1292503Y2717498D02*
X1347851Y2662150D01*
X1292503Y2717498D02*
Y2724998D01*
D56*
X414401Y1934399D02*
D03*
Y2434398D02*
D03*
D57*
X490220Y924560D02*
D03*
X388620Y416560D02*
D03*
X287020Y924560D02*
D03*
D58*
X399996Y1550000D02*
D03*
D59*
X1100001Y699998D02*
D03*
X4150003Y3750000D02*
D03*
Y699998D02*
D03*
X1100001Y3750000D02*
D03*
D60*
X3850000Y4250000D02*
D03*
X3849998Y4000002D02*
D03*
X3600001D02*
D03*
X3599996Y4249999D02*
D03*
X3349994Y4240799D02*
D03*
X3349999Y4000002D02*
D03*
X3100002D02*
D03*
X3099997Y4249994D02*
D03*
X2850000D02*
D03*
Y4000002D02*
D03*
X2599998D02*
D03*
Y4249994D02*
D03*
X2349996Y4249999D02*
D03*
X2099999Y4000002D02*
D03*
Y4249994D02*
D03*
X1849997Y4249999D02*
D03*
X1850002Y4000002D02*
D03*
X1600000D02*
D03*
Y4249994D02*
D03*
X1349998Y4249999D02*
D03*
Y3999997D02*
D03*
X4100000Y275000D02*
D03*
X3850000D02*
D03*
X3600000D02*
D03*
X3349999Y275000D02*
D03*
X3074998D02*
D03*
X2850000D02*
D03*
X2600003D02*
D03*
X2350001D02*
D03*
X1850002D02*
D03*
X1600000D02*
D03*
X1350003D02*
D03*
X2350001Y4000002D02*
D03*
X2099999Y275000D02*
D03*
D61*
X1762240Y2441396D02*
D03*
X1828841Y2630433D02*
D03*
X1351665Y2410178D02*
D03*
X3784600Y508000D02*
D03*
X736600Y3530600D02*
D03*
X533400Y3479800D02*
D03*
X1104900Y266700D02*
D03*
X393700Y1079500D02*
D03*
X4425000Y3100000D02*
D03*
X4610166Y3118962D02*
D03*
X1400000Y2650000D02*
D03*
X2700000Y3550000D02*
D03*
X2959333Y3578599D02*
D03*
X3150000Y3550000D02*
D03*
X1444560Y680387D02*
D03*
X1130968Y2494597D02*
D03*
X3155751Y3146167D02*
D03*
X1650796Y2149638D02*
D03*
X3317800Y774884D02*
D03*
X1899668Y3204108D02*
D03*
X3397430Y2176178D02*
D03*
X2781779Y2159606D02*
D03*
X2858894Y538404D02*
D03*
X2972601Y679739D02*
D03*
X4346102Y1748944D02*
D03*
X3445527Y1250000D02*
D03*
X1981985Y2946218D02*
D03*
X4271400Y2049011D02*
D03*
X3300000Y951070D02*
D03*
X4665941Y2309832D02*
D03*
X1835015Y2136364D02*
D03*
X1651473Y3170677D02*
D03*
X2424712Y3100970D02*
D03*
X3463714Y2725560D02*
D03*
X2976438Y1902389D02*
D03*
X4549820Y626565D02*
D03*
X4506695Y454899D02*
D03*
X4875000Y2025000D02*
D03*
X1418345Y2868345D02*
D03*
X3117175Y2918367D02*
D03*
X1403600Y3174870D02*
D03*
X1500000Y1800000D02*
D03*
X1325000Y1725000D02*
D03*
X794586Y394586D02*
D03*
X3156401Y516152D02*
D03*
X4539641Y3781488D02*
D03*
X4639081Y4010786D02*
D03*
X4445295Y287069D02*
D03*
X2781401Y1196097D02*
D03*
X3042671Y1185097D02*
D03*
X3209860Y1577740D02*
D03*
X3619504Y1687417D02*
D03*
X4175000Y1900000D02*
D03*
X2171901Y2965796D02*
D03*
X767245Y1201051D02*
D03*
X1725000Y1675000D02*
D03*
X3618165Y693165D02*
D03*
X4018901Y1775000D02*
D03*
X3125000Y800000D02*
D03*
X3324247Y598002D02*
D03*
X1669937Y2832598D02*
D03*
X1807755Y2977404D02*
D03*
X1552407Y2519770D02*
D03*
X875000Y2550000D02*
D03*
X1250000Y3375000D02*
D03*
X1675000Y3775000D02*
D03*
X2600000Y2500000D02*
D03*
X3001991Y2398274D02*
D03*
X2825000Y2400000D02*
D03*
X3125000Y3350000D02*
D03*
X3475000Y3550000D02*
D03*
X3925000Y3425000D02*
D03*
X4521500Y1896428D02*
D03*
X3286386Y2709923D02*
D03*
X2349907Y1880690D02*
D03*
X1025002Y1724998D02*
D03*
X672254Y1676964D02*
D03*
X4850000Y2300000D02*
D03*
X4638602Y2577974D02*
D03*
X4600155Y2750748D02*
D03*
X5050000Y2600000D02*
D03*
X4648732Y2946214D02*
D03*
X2875000Y3791000D02*
D03*
X4975000Y2775000D02*
D03*
X4624842Y1225158D02*
D03*
X975000Y2375000D02*
D03*
X4750000Y1100000D02*
D03*
X4975000Y1225000D02*
D03*
X5000000Y1425000D02*
D03*
X559569Y1206206D02*
D03*
X4600000Y1425000D02*
D03*
X1025000Y3375000D02*
D03*
X2175000Y600000D02*
D03*
X1975000D02*
D03*
D62*
X2099999Y3450000D02*
D03*
X1999999Y3550000D02*
D03*
Y3450000D02*
D03*
X1900000Y3550000D02*
D03*
Y3450000D02*
D03*
%TF.MD5,afc1aaf688545903a02b6e0af3a8e1ca*%
M02*
