%TF.GenerationSoftware,Altium Limited,Altium Designer,23.4.1 (23)*%
G04 Layer_Color=0*
%FSLAX45Y45*%
%MOMM*%
%TF.SameCoordinates,CCA20B2C-2D51-4D5F-8D0C-A6767DA9E69A*%
%TF.FilePolarity,Positive*%
%TF.FileFunction,Plated,1,6,PTH,Drill*%
%TF.Part,Single*%
G01*
G75*
%TA.AperFunction,OtherDrill,Pad Free-67 (4.902mm,9.246mm)*%
%ADD131C,0.99101*%
%TA.AperFunction,OtherDrill,Pad Free-67 (3.886mm,4.166mm)*%
%ADD132C,0.99101*%
%TA.AperFunction,OtherDrill,Pad Free-67 (2.87mm,9.246mm)*%
%ADD133C,0.99101*%
%TA.AperFunction,ComponentDrill*%
%ADD134O,1.30000X0.60000*%
%ADD135C,0.85000*%
%TA.AperFunction,OtherDrill,Pad Free-56 (11mm,7mm)*%
%ADD136C,4.00000*%
%TA.AperFunction,OtherDrill,Pad Free-57 (41.5mm,37.5mm)*%
%ADD137C,4.00000*%
%TA.AperFunction,OtherDrill,Pad Free-60 (41.5mm,7mm)*%
%ADD138C,4.00000*%
%TA.AperFunction,OtherDrill,Pad Free-59 (11mm,37.5mm)*%
%ADD139C,4.00000*%
%TA.AperFunction,OtherDrill,Pad Free-5 (38.5mm,42.5mm)*%
%ADD140C,0.76200*%
%TA.AperFunction,OtherDrill,Pad Free-55 (38.5mm,40mm)*%
%ADD141C,0.76200*%
%TA.AperFunction,OtherDrill,Pad Free-54 (36mm,40mm)*%
%ADD142C,0.76200*%
%TA.AperFunction,OtherDrill,Pad Free-6 (36mm,42.5mm)*%
%ADD143C,0.76200*%
%TA.AperFunction,OtherDrill,Pad Free-7 (33.5mm,42.408mm)*%
%ADD144C,0.76200*%
%TA.AperFunction,OtherDrill,Pad Free-53 (33.5mm,40mm)*%
%ADD145C,0.76200*%
%TA.AperFunction,OtherDrill,Pad Free-51 (31mm,40mm)*%
%ADD146C,0.76200*%
%TA.AperFunction,OtherDrill,Pad Free-8 (31mm,42.5mm)*%
%ADD147C,0.76200*%
%TA.AperFunction,OtherDrill,Pad Free-9 (28.5mm,42.5mm)*%
%ADD148C,0.76200*%
%TA.AperFunction,OtherDrill,Pad Free-50 (28.5mm,40mm)*%
%ADD149C,0.76200*%
%TA.AperFunction,OtherDrill,Pad Free-48 (26mm,40mm)*%
%ADD150C,0.76200*%
%TA.AperFunction,OtherDrill,Pad Free-11 (26mm,42.5mm)*%
%ADD151C,0.76200*%
%TA.AperFunction,OtherDrill,Pad Free-10 (23.5mm,42.5mm)*%
%ADD152C,0.76200*%
%TA.AperFunction,OtherDrill,Pad Free-44 (21mm,40mm)*%
%ADD153C,0.76200*%
%TA.AperFunction,OtherDrill,Pad Free-14 (21mm,42.5mm)*%
%ADD154C,0.76200*%
%TA.AperFunction,OtherDrill,Pad Free-15 (18.5mm,42.5mm)*%
%ADD155C,0.76200*%
%TA.AperFunction,OtherDrill,Pad Free-43 (18.5mm,40mm)*%
%ADD156C,0.76200*%
%TA.AperFunction,OtherDrill,Pad Free-13 (16mm,40mm)*%
%ADD157C,0.76200*%
%TA.AperFunction,OtherDrill,Pad Free-16 (16mm,42.5mm)*%
%ADD158C,0.76200*%
%TA.AperFunction,OtherDrill,Pad Free-17 (13.5mm,42.5mm)*%
%ADD159C,0.76200*%
%TA.AperFunction,OtherDrill,Pad Free-12 (13.5mm,40mm)*%
%ADD160C,0.76200*%
%TA.AperFunction,OtherDrill,Pad Free-32 (41mm,2.75mm)*%
%ADD161C,0.76200*%
%TA.AperFunction,OtherDrill,Pad Free-42 (38.5mm,2.75mm)*%
%ADD162C,0.76200*%
%TA.AperFunction,OtherDrill,Pad Free-41 (36mm,2.75mm)*%
%ADD163C,0.76200*%
%TA.AperFunction,OtherDrill,Pad Free-39 (33.5mm,2.75mm)*%
%ADD164C,0.76200*%
%TA.AperFunction,OtherDrill,Pad Free-38 (30.75mm,2.75mm)*%
%ADD165C,0.76200*%
%TA.AperFunction,OtherDrill,Pad Free-37 (28.5mm,2.75mm)*%
%ADD166C,0.76200*%
%TA.AperFunction,OtherDrill,Pad Free-35 (26mm,2.75mm)*%
%ADD167C,0.76200*%
%TA.AperFunction,OtherDrill,Pad Free-40 (23.5mm,2.75mm)*%
%ADD168C,0.76200*%
%TA.AperFunction,OtherDrill,Pad Free-34 (18.5mm,2.75mm)*%
%ADD169C,0.76200*%
%TA.AperFunction,OtherDrill,Pad Free-31 (16mm,2.75mm)*%
%ADD170C,0.76200*%
%TA.AperFunction,OtherDrill,Pad Free-36 (13.5mm,2.75mm)*%
%ADD171C,0.76200*%
%TA.AperFunction,OtherDrill,Pad Free-46 (23.5mm,40mm)*%
%ADD172C,0.76200*%
%TA.AperFunction,OtherDrill,Pad Free-33 (21mm,2.75mm)*%
%ADD173C,0.76200*%
%TA.AperFunction,ViaDrill,NotFilled*%
%ADD174C,0.71120*%
%ADD175C,0.20000*%
D131*
X490220Y924560D02*
D03*
D132*
X388620Y416560D02*
D03*
D133*
X287020Y924560D02*
D03*
D134*
X454998Y2524999D02*
D03*
Y1825000D02*
D03*
D135*
X725000Y2424999D02*
D03*
Y1925000D02*
D03*
D136*
X1100001Y699998D02*
D03*
D137*
X4150003Y3750000D02*
D03*
D138*
Y699998D02*
D03*
D139*
X1100001Y3750000D02*
D03*
D140*
X3850000Y4250000D02*
D03*
D141*
X3849998Y4000002D02*
D03*
D142*
X3600001D02*
D03*
D143*
X3599996Y4249999D02*
D03*
D144*
X3349994Y4240799D02*
D03*
D145*
X3349999Y4000002D02*
D03*
D146*
X3100002D02*
D03*
D147*
X3099997Y4249994D02*
D03*
D148*
X2850000D02*
D03*
D149*
Y4000002D02*
D03*
D150*
X2599998D02*
D03*
D151*
Y4249994D02*
D03*
D152*
X2349996Y4249999D02*
D03*
D153*
X2099999Y4000002D02*
D03*
D154*
Y4249994D02*
D03*
D155*
X1849997Y4249999D02*
D03*
D156*
X1850002Y4000002D02*
D03*
D157*
X1600000D02*
D03*
D158*
Y4249994D02*
D03*
D159*
X1349998Y4249999D02*
D03*
D160*
Y3999997D02*
D03*
D161*
X4100000Y275000D02*
D03*
D162*
X3850000D02*
D03*
D163*
X3600000D02*
D03*
D164*
X3349999Y275000D02*
D03*
D165*
X3074998D02*
D03*
D166*
X2850000D02*
D03*
D167*
X2600003D02*
D03*
D168*
X2350001D02*
D03*
D169*
X1850002D02*
D03*
D170*
X1600000D02*
D03*
D171*
X1350003D02*
D03*
D172*
X2350001Y4000002D02*
D03*
D173*
X2099999Y275000D02*
D03*
D174*
X4425000Y3100000D02*
D03*
X4610166Y3118962D02*
D03*
X1400000Y2650000D02*
D03*
X2700000Y3550000D02*
D03*
X2959333Y3578599D02*
D03*
X3150000Y3550000D02*
D03*
X1444560Y680387D02*
D03*
X1824030Y2613724D02*
D03*
X1130968Y2494597D02*
D03*
X3155751Y3146167D02*
D03*
X1650796Y2149638D02*
D03*
X3317800Y774884D02*
D03*
X1899668Y3204108D02*
D03*
X3397430Y2176178D02*
D03*
X2781779Y2159606D02*
D03*
X2858894Y538404D02*
D03*
X2972601Y679739D02*
D03*
X4346102Y1748944D02*
D03*
X3445527Y1250000D02*
D03*
X1981985Y2946218D02*
D03*
X4271400Y2049011D02*
D03*
X3300000Y951070D02*
D03*
X4665941Y2309832D02*
D03*
X1835015Y2136364D02*
D03*
X1651473Y3170677D02*
D03*
X2424712Y3100970D02*
D03*
X3463714Y2725560D02*
D03*
X2976438Y1902389D02*
D03*
X4549820Y626565D02*
D03*
X4506695Y454899D02*
D03*
X4875000Y2025000D02*
D03*
X1418345Y2868345D02*
D03*
X3117175Y2918367D02*
D03*
X1403600Y3174870D02*
D03*
X1500000Y1800000D02*
D03*
X1325000Y1725000D02*
D03*
X794586Y394586D02*
D03*
X3156401Y516152D02*
D03*
X4539641Y3781488D02*
D03*
X4639081Y4010786D02*
D03*
X4445295Y287069D02*
D03*
X2781401Y1196097D02*
D03*
X3042671Y1185097D02*
D03*
X3209860Y1577740D02*
D03*
X3619504Y1687417D02*
D03*
X4175000Y1900000D02*
D03*
X2171901Y2965796D02*
D03*
X767245Y1201051D02*
D03*
X1725000Y1675000D02*
D03*
X3618165Y693165D02*
D03*
X1762240Y2428400D02*
D03*
X4018901Y1775000D02*
D03*
X3125000Y800000D02*
D03*
X3324247Y598002D02*
D03*
X1669937Y2832598D02*
D03*
X1807755Y2977404D02*
D03*
X1552407Y2519770D02*
D03*
X1350000Y2400000D02*
D03*
X875000Y2550000D02*
D03*
X1250000Y3375000D02*
D03*
X1675000Y3775000D02*
D03*
X2600000Y2500000D02*
D03*
X3001991Y2398274D02*
D03*
X2825000Y2400000D02*
D03*
X3125000Y3350000D02*
D03*
X3475000Y3550000D02*
D03*
X3925000Y3425000D02*
D03*
X4521500Y1896428D02*
D03*
X3286386Y2709923D02*
D03*
X2349907Y1880690D02*
D03*
X1025002Y1724998D02*
D03*
X672254Y1676964D02*
D03*
X4850000Y2300000D02*
D03*
X4638602Y2577974D02*
D03*
X4600155Y2750748D02*
D03*
X5050000Y2600000D02*
D03*
X4648732Y2946214D02*
D03*
X2875000Y3791000D02*
D03*
X4975000Y2775000D02*
D03*
X4624842Y1225158D02*
D03*
X975000Y2375000D02*
D03*
X4750000Y1100000D02*
D03*
X4975000Y1225000D02*
D03*
X5000000Y1425000D02*
D03*
X559569Y1206206D02*
D03*
X4600000Y1425000D02*
D03*
X700000Y3500000D02*
D03*
X1025000Y3375000D02*
D03*
X2175000Y600000D02*
D03*
X1975000D02*
D03*
D175*
X2099999Y3450000D02*
D03*
X1999999Y3550000D02*
D03*
Y3450000D02*
D03*
X1900000Y3550000D02*
D03*
Y3450000D02*
D03*
%TF.MD5,dfabfab0044ad965b0a393c288862e69*%
M02*
