%TF.GenerationSoftware,Altium Limited,Altium Designer,23.4.1 (23)*%
G04 Layer_Physical_Order=6*
G04 Layer_Color=16711680*
%FSLAX45Y45*%
%MOMM*%
%TF.SameCoordinates,8FC0B902-BD77-4088-8A25-808A508E6D72*%
%TF.FilePolarity,Positive*%
%TF.FileFunction,Copper,L6,Bot,Signal*%
%TF.Part,Single*%
G01*
G75*
%TA.AperFunction,Conductor*%
%ADD10C,0.15000*%
%TA.AperFunction,SMDPad,CuDef*%
%ADD25R,1.55000X0.60000*%
%ADD26R,1.80000X1.20000*%
%ADD34R,0.75000X1.00000*%
%ADD35R,1.10000X2.05000*%
%ADD50R,0.70000X1.30000*%
%ADD51R,0.50000X0.40000*%
%ADD52R,0.40000X0.50000*%
%TA.AperFunction,ComponentPad*%
%ADD54C,0.99100*%
%ADD55C,1.45000*%
%ADD56C,0.75000*%
%TA.AperFunction,ViaPad*%
%ADD57C,4.00000*%
G04:AMPARAMS|DCode=58|XSize=1.524mm|YSize=2mm|CornerRadius=0.381mm|HoleSize=0mm|Usage=FLASHONLY|Rotation=0.000|XOffset=0mm|YOffset=0mm|HoleType=Round|Shape=RoundedRectangle|*
%AMROUNDEDRECTD58*
21,1,1.52400,1.23800,0,0,0.0*
21,1,0.76200,2.00000,0,0,0.0*
1,1,0.76200,0.38100,-0.61900*
1,1,0.76200,-0.38100,-0.61900*
1,1,0.76200,-0.38100,0.61900*
1,1,0.76200,0.38100,0.61900*
%
%ADD58ROUNDEDRECTD58*%
%ADD59C,1.27000*%
%ADD60C,0.50000*%
%TA.AperFunction,SMDPad,CuDef*%
%ADD61R,1.70000X1.50000*%
%ADD62R,1.50000X1.70000*%
%ADD63R,1.68000X0.80000*%
%ADD64R,1.50000X1.60000*%
%ADD65R,1.40000X1.29000*%
%ADD66R,1.30000X1.29000*%
%ADD67R,0.85000X0.70000*%
%ADD68R,1.00000X0.75000*%
%ADD69R,1.40000X0.38000*%
%ADD70R,2.40000X1.90000*%
D10*
X1989898Y3192064D02*
G03*
X1933819Y3282750I-96350J3101D01*
G01*
X4134118Y2141396D02*
G03*
X4103952Y2200277I-95670J-11845D01*
G01*
X3215108Y734053D02*
G03*
X3219591Y725948I86499J42554D01*
G01*
X3220682Y788253D02*
G03*
X3179325Y879636I-95682J11748D01*
G01*
X3060289Y962300D02*
G03*
X3060291Y962299I10608J10607D01*
G01*
X3694770Y634644D02*
G03*
X3712863Y711204I-76605J58521D01*
G01*
X3038605Y1088783D02*
G03*
X3057235Y1089804I4066J96314D01*
G01*
X2261121Y3018315D02*
G03*
X2258824Y3022608I-86121J-43315D01*
G01*
X4000458Y3484993D02*
G03*
X3976137Y3506719I-75458J-59993D01*
G01*
X4368171Y2145280D02*
G03*
X4351783Y2166624I-111870J-68928D01*
G01*
X4349428Y2051445D02*
G03*
X4326028Y2142918I-93127J24907D01*
G01*
X1585726Y3811374D02*
G03*
X1590541Y3728528I89275J-36374D01*
G01*
X1468316Y3918571D02*
G03*
X1469010Y3915502I93584J19531D01*
G01*
X1811662Y2345633D02*
G03*
X1845699Y2380156I-49422J82767D01*
G01*
X1600803Y2252154D02*
G03*
X1560550Y2137846I50592J-82057D01*
G01*
X2208928Y2687362D02*
G03*
X2231297Y2721950I-58928J62638D01*
G01*
X1841255Y2323412D02*
G03*
X1854903Y2335236I-79015J104988D01*
G01*
X1642655Y2483888D02*
G03*
X1634810Y2573212I-88935J37196D01*
G01*
X1530514Y2221610D02*
G03*
X1523157Y2141445I120881J-51513D01*
G01*
X1406465Y2969601D02*
G03*
X1349492Y2934930I18535J-94601D01*
G01*
X1542392Y3790906D02*
G03*
X1556451Y3714449I124908J-16554D01*
G01*
X1256145Y1645189D02*
G03*
X1255985Y1645349I-24827J-24671D01*
G01*
X1312811Y2488938D02*
G03*
X1271930Y2456552I37189J-88938D01*
G01*
X1902593Y4407498D02*
G03*
X1907349Y4405541I8001J12688D01*
G01*
X1542561Y4405517D02*
G03*
X1547403Y4407493I-3160J14663D01*
G01*
X990854Y2605292D02*
G03*
X986100Y2610504I-65862J-55301D01*
G01*
X1916625Y4403143D02*
G03*
X1907349Y4405540I-28528J-91244D01*
G01*
X1792558Y4405523D02*
G03*
X1797400Y4407498I-3160J14663D01*
G01*
X2292557Y4405523D02*
G03*
X2297399Y4407498I-3160J14663D01*
G01*
X2542559Y4405517D02*
G03*
X2547401Y4407493I-3160J14663D01*
G01*
X1542561Y4405517D02*
G03*
X1533394Y4403145I19339J-93624D01*
G01*
X2152595Y4407493D02*
G03*
X2157352Y4405536I8001J12688D01*
G01*
X1009334Y2636767D02*
G03*
X1009323Y2636778I-10598J-10617D01*
G01*
X1416620Y4403145D02*
G03*
X1407350Y4405540I-28522J-91246D01*
G01*
X1292559Y4405523D02*
G03*
X1282305Y4402803I19339J-93624D01*
G01*
X1009263Y2636838D02*
G03*
X991560Y2651049I-84262J-86838D01*
G01*
X2402592Y4407498D02*
G03*
X2407348Y4405541I8001J12688D01*
G01*
X1010967Y2579810D02*
G03*
X1009979Y2582521I-85976J-29819D01*
G01*
X1666346Y4403226D02*
G03*
X1670803Y4402499I4616J14273D01*
G01*
X2681068Y4354625D02*
G03*
X2638098Y4372494I-42970J-42731D01*
G01*
X2666344Y4403226D02*
G03*
X2670801Y4402499I4616J14273D01*
G01*
X2666344Y4403226D02*
G03*
X2657350Y4405535I-28246J-91332D01*
G01*
X1013490Y2528802D02*
G03*
X1010967Y2579810I-88499J21190D01*
G01*
X2542559Y4405517D02*
G03*
X2533392Y4403145I19339J-93624D01*
G01*
X2166345Y4403226D02*
G03*
X2157351Y4405535I-28246J-91332D01*
G01*
X1008286Y2584538D02*
G03*
X1008243Y2584588I-11490J-9643D01*
G01*
X2292557Y4405523D02*
G03*
X2283467Y4403174I19339J-93624D01*
G01*
X2042560Y4405517D02*
G03*
X2033393Y4403145I19339J-93624D01*
G01*
X1666346Y4403226D02*
G03*
X1657352Y4405535I-28246J-91332D01*
G01*
X1792558Y4405523D02*
G03*
X1783468Y4403174I19339J-93624D01*
G01*
X2166345Y4403226D02*
G03*
X2170802Y4402499I4616J14273D01*
G01*
X2042560Y4405517D02*
G03*
X2047402Y4407493I-3160J14663D01*
G01*
X2416624Y4403143D02*
G03*
X2407348Y4405540I-28528J-91244D01*
G01*
X984706Y2611897D02*
G03*
X972448Y2621727I-59706J-61897D01*
G01*
X1292559Y4405523D02*
G03*
X1297401Y4407498I-3160J14663D01*
G01*
X1402594Y4407498D02*
G03*
X1407350Y4405541I8001J12688D01*
G01*
X1652596Y4407493D02*
G03*
X1657353Y4405536I8001J12688D01*
G01*
X2652594Y4407493D02*
G03*
X2657351Y4405536I8001J12688D01*
G01*
X1729903Y3146070D02*
G03*
X1624610Y3292996I-79903J53931D01*
G01*
X1501300Y3938102D02*
G03*
X1504674Y3918162I60600J0D01*
G01*
X2696242Y3644031D02*
G03*
X2649342Y3642923I-21242J-94031D01*
G01*
X3131576Y2376505D02*
G03*
X3132893Y2409709I-129584J21769D01*
G01*
X3210678Y2876547D02*
G03*
X3021978Y2884810I-93504J23453D01*
G01*
X3096369Y2378633D02*
G03*
X3097187Y2413463I-94378J19641D01*
G01*
X3169354Y3020595D02*
G03*
X3054599Y3015544I-52180J-120595D01*
G01*
X4617323Y1986338D02*
G03*
X4607592Y1995696I-95823J-89911D01*
G01*
X3964997Y3513691D02*
G03*
X3962327Y3516306I-64997J-63691D01*
G01*
X4598609Y1954283D02*
G03*
X4582816Y1970814I-77109J-57855D01*
G01*
X3513676Y2123213D02*
G03*
X3523529Y2219463I-116609J60567D01*
G01*
X3384632Y2714298D02*
G03*
X3385454Y2708797I90369J10702D01*
G01*
X3551872Y2122751D02*
G03*
X3558266Y2225060I-154804J61029D01*
G01*
X3190544Y2720273D02*
G03*
X3189986Y2709784I95843J-10350D01*
G01*
X4375849Y472749D02*
G03*
X4374524Y458718I129968J-19348D01*
G01*
X4392709Y367863D02*
G03*
X4371653Y349278I52586J-80794D01*
G01*
X3590176Y2126587D02*
G03*
X3594235Y2224850I-193108J57193D01*
G01*
X3480640Y2135732D02*
G03*
X3463312Y2253813I-83573J48048D01*
G01*
X2835409Y436686D02*
G03*
X2918059Y454073I23485J93496D01*
G01*
X3313911Y1084262D02*
G03*
X3310915Y1084546I-13911J-130662D01*
G01*
X2740486Y1108879D02*
G03*
X2781020Y1099698I41062J87218D01*
G01*
X3314572Y1048892D02*
G03*
X3299904Y1050000I-14572J-95292D01*
G01*
X3224167Y1671397D02*
G03*
X3217925Y1671140I833J-96397D01*
G01*
X3324881Y1525779D02*
G03*
X3261639Y1671723I-58857J61170D01*
G01*
X2983472Y1835245D02*
G03*
X3030751Y1852137I-7676J96094D01*
G01*
X2986548Y1800380D02*
G03*
X3049635Y1822648I-10753J130959D01*
G01*
X3441789Y2089057D02*
G03*
X3452310Y2097195I-50266J75857D01*
G01*
X2339283Y1784877D02*
G03*
X2358551Y1784678I10624J95813D01*
G01*
X2338670Y1784947D02*
G03*
X2339283Y1784877I11236J95743D01*
G01*
X3616154Y2659379D02*
G03*
X3616149Y2691526I-95053J16059D01*
G01*
X2336356Y1749990D02*
G03*
X2361609Y1749812I13550J130700D01*
G01*
X2351963Y1714302D02*
G03*
X2353632Y1714331I-2057J166387D01*
G01*
X806279Y496196D02*
G03*
X760683Y311982I-6278J-96195D01*
G01*
X1109362Y477696D02*
G03*
X1203655Y503118I-9361J222303D01*
G01*
X1085510Y477971D02*
G03*
X1109362Y477696I14491J222027D01*
G01*
X4372768Y421735D02*
G03*
X4373063Y422112I-11656J9443D01*
G01*
X4412599Y477965D02*
G03*
X4417227Y415389I93218J-24565D01*
G01*
X4371322Y677108D02*
G03*
X4334133Y824907I-221319J22890D01*
G01*
X4371322Y676354D02*
G03*
X4371322Y676334I15000J-5D01*
G01*
X4550240Y722965D02*
G03*
X4549561Y722964I-240J-96400D01*
G01*
X2416624Y4403143D02*
G03*
X2420843Y4402499I4351J14356D01*
G01*
X2029124D02*
G03*
X2033393Y4403145I-87J15000D01*
G01*
X1811897Y4372499D02*
G03*
X1787793Y4367499I0J-60600D01*
G01*
X1662192D02*
G03*
X1638100Y4372494I-24092J-55605D01*
G01*
X921384Y3882673D02*
G03*
X882501Y3703096I178617J-132673D01*
G01*
X2529123Y4402499D02*
G03*
X2533392Y4403145I-87J15000D01*
G01*
X1274263Y4399779D02*
G03*
X1223640Y4348640I37635J-87880D01*
G01*
X1280664Y4402382D02*
G03*
X1282305Y4402803I-2900J14717D01*
G01*
X1311898Y4372499D02*
G03*
X1253873Y4329375I0J-60600D01*
G01*
X1416620Y4403145D02*
G03*
X1420845Y4402499I4357J14354D01*
G01*
X1280664Y4402382D02*
G03*
X1275782Y4400548I2755J-14745D01*
G01*
X1916625Y4403143D02*
G03*
X1920844Y4402499I4351J14356D01*
G01*
X1529125D02*
G03*
X1533394Y4403145I-87J15000D01*
G01*
X2311896Y4372499D02*
G03*
X2287792Y4367499I0J-60600D01*
G01*
X847243Y3799189D02*
G03*
X847501Y3699502I252758J-49189D01*
G01*
X2162191Y4367499D02*
G03*
X2138099Y4372494I-24092J-55605D01*
G01*
X1779105Y4402499D02*
G03*
X1783468Y4403174I-87J15000D01*
G01*
X847243Y3799189D02*
G03*
X847501Y3801961I-14742J2772D01*
G01*
X2412200Y4367499D02*
G03*
X2388096Y4372499I-24104J-55600D01*
G01*
X1561900Y4372494D02*
G03*
X1537808Y4367499I0J-60600D01*
G01*
X1274263Y4399779D02*
G03*
X1275782Y4400548I-6003J13747D01*
G01*
X2561898Y4372494D02*
G03*
X2537806Y4367499I0J-60600D01*
G01*
X2279104Y4402499D02*
G03*
X2283467Y4403174I-87J15000D01*
G01*
X1412202Y4367499D02*
G03*
X1388098Y4372499I-24104J-55600D01*
G01*
X1912201Y4367499D02*
G03*
X1888097Y4372499I-24104J-55600D01*
G01*
X2061899Y4372494D02*
G03*
X2037807Y4367499I0J-60600D01*
G01*
X1468316Y3918571D02*
G03*
X1468097Y3919503I-14704J-2968D01*
G01*
X1466757Y3922830D02*
G03*
X1466300Y3923605I-13144J-7228D01*
G01*
X1470011Y4088277D02*
G03*
X1468282Y4081266I91890J-26375D01*
G01*
X1470011Y4088277D02*
G03*
X1470577Y4092287I-14433J4085D01*
G01*
X1466300Y4076399D02*
G03*
X1468282Y4081266I-12688J8002D01*
G01*
X1519108Y4104811D02*
G03*
X1501300Y4061902I42792J-42909D01*
G01*
X2237575Y2666503D02*
G03*
X2237800Y2666740I-87575J83497D01*
G01*
X2236553Y2664605D02*
G03*
X2237575Y2666503I-803875J433878D01*
G01*
X2245727Y2675991D02*
G03*
X2260489Y2700673I-95727J74010D01*
G01*
X2264207Y2710028D02*
G03*
X2264427Y2710662I-114207J39972D01*
G01*
X2060232Y2434675D02*
G03*
X2060297Y2434737I-627554J663808D01*
G01*
D02*
G03*
X2236553Y2664605I-627620J663746D01*
G01*
X2245727Y2675991D02*
G03*
X2243864Y2672805I11919J-9107D01*
G01*
X2261738Y2702894D02*
G03*
X2260489Y2700673I12404J-8435D01*
G01*
X1290059Y431081D02*
G03*
X1289837Y430920I8713J-12210D01*
G01*
X1303113Y396860D02*
G03*
X1282699Y389999I8790J-59959D01*
G01*
X1287884Y429489D02*
G03*
X1287766Y429403I8745J-12187D01*
G01*
D02*
G03*
X1274784Y425000I24137J-92503D01*
G01*
X3042047Y978252D02*
G03*
X3041841Y978251I-1J-15000D01*
G01*
X3056106Y970405D02*
G03*
X3056836Y965754I195131J28246D01*
G01*
X3052700Y973811D02*
G03*
X3052606Y973905I-10654J-10560D01*
G01*
X1559026Y2827194D02*
G03*
X1569919Y2781779I90974J-2194D01*
G01*
X2714728Y2350941D02*
G03*
X2722844Y2306434I90772J-6441D01*
G01*
X1225200Y2458276D02*
G03*
X1231897Y2526246I-75201J41724D01*
G01*
X1551347Y2888344D02*
G03*
X1535712Y2910154I-76858J-38586D01*
G01*
X1216927Y1633039D02*
G03*
X1231318Y1620519I83073J80961D01*
G01*
X1848229Y3322104D02*
X1933819Y3282750D01*
X1548134Y3555901D02*
X1737418Y3378839D01*
X1848229Y3322104D01*
X1981985Y2946218D02*
X1989898Y3192064D01*
X4325567Y1770145D02*
Y1930874D01*
X4175000Y1900000D02*
Y2006017D01*
X4325567Y1770145D02*
X4346102Y1749610D01*
X4325567Y1930874D02*
X4343139Y1948446D01*
X3966874Y2214143D02*
X4175000Y2006017D01*
X4139102Y2124524D02*
X4142146Y2121481D01*
X4135778Y2127985D02*
X4139102Y2124524D01*
X3839289Y2445395D02*
X4103952Y2200277D01*
X4134118Y2141396D02*
X4135778Y2127985D01*
X3830501Y2454183D02*
X3839289Y2445395D01*
X3830501Y2394321D02*
X3966874Y2214143D01*
X3830501Y2454183D02*
Y2614320D01*
X4142146Y2121481D02*
X4256301Y2076352D01*
X3957753Y1836148D02*
Y1892248D01*
X4018901Y1775000D02*
X4035607D01*
X3957753Y1836148D02*
X4018901Y1775000D01*
X4035607Y1764393D02*
Y1775000D01*
Y1764393D02*
X4250000Y1550000D01*
X3918035Y1931966D02*
X3957753Y1892248D01*
X3215108Y737699D02*
X3215108Y742858D01*
X3060291Y962299D02*
X3064894Y957697D01*
X3179325Y879636D01*
X3215108Y734053D02*
Y737699D01*
X3056836Y965754D02*
X3060289Y962300D01*
X3215108Y742858D02*
X3220682Y788253D01*
X3325000Y598755D02*
Y600000D01*
X3324247Y598002D02*
X3325000Y598755D01*
X3219591Y725948D02*
X3325000Y600000D01*
X3249478Y466984D02*
X3403329D01*
X3155984Y493901D02*
X3249478Y466984D01*
X2781020Y1099698D02*
X3038605Y1088783D01*
X3646383Y1044829D02*
X3650000Y1041212D01*
X3646192Y1045021D02*
X3646383Y1044829D01*
X3646640Y571642D02*
X3694770Y634644D01*
X3057235Y1089804D02*
X3122468Y1099736D01*
X3650000Y1041212D02*
X3712863Y711204D01*
X3457670Y1020113D02*
X3480676Y694714D01*
X3480714Y694187D01*
X3403329Y466984D02*
X3410274Y473928D01*
X3480714Y691286D01*
Y694187D01*
X2261126Y3018304D02*
X2275000Y2990720D01*
X1951185Y3314891D02*
X2127292Y3242288D01*
X1562400Y3703411D02*
X1798445Y3418413D01*
X1829681Y3385341D02*
X1861515Y3357104D01*
X1807627Y3407395D02*
X1829681Y3385341D01*
X1597426Y3716054D02*
X1842188Y3422419D01*
X1798445Y3418413D02*
X1807627Y3407395D01*
X2127292Y3242288D02*
X2144620Y3224960D01*
X1854757Y3413359D02*
X1876016Y3392100D01*
X1927525Y3384954D02*
X1930166Y3382483D01*
X1876016Y3392100D02*
X1902577Y3392100D01*
X1844178Y3420341D02*
X1854757Y3413359D01*
X1842188Y3422419D02*
X1842623Y3421896D01*
X2152361Y3210441D02*
X2258824Y3022607D01*
X1902577Y3392100D02*
X1927525Y3384954D01*
X1842623Y3421896D02*
X1844178Y3420341D01*
X1930166Y3382483D02*
X1965004Y3349891D01*
X2261121Y3018315D02*
X2261126Y3018304D01*
X1861515Y3357104D02*
X1951185Y3314891D01*
X3638096Y4188099D02*
X3675201Y4160000D01*
X3599996Y4249999D02*
X3638096Y4188099D01*
X3976069Y3506761D02*
X3976137Y3506719D01*
X3675201Y4160000D02*
X3735000Y4100202D01*
X3700000Y3547498D02*
X3714999Y3469997D01*
X3735000Y4100202D02*
X3751298Y4076833D01*
Y3586284D02*
Y4076833D01*
X4000458Y3484992D02*
X4050000Y3422839D01*
X3660704Y4125000D02*
X3700000Y4085705D01*
Y3547498D02*
Y4085705D01*
X3964996Y3513690D02*
X3976069Y3506761D01*
X4058660Y2422980D02*
Y2441340D01*
X4368171Y2145280D02*
X4521500Y1896428D01*
X4094353Y2440885D02*
X4095285Y2437924D01*
X4058660Y2422980D02*
X4326028Y2142918D01*
X4343139Y1948446D02*
Y2027932D01*
X4095285Y2437924D02*
X4351783Y2166624D01*
X4343139Y2027932D02*
X4349428Y2051445D01*
X1590541Y3728528D02*
X1597426Y3716054D01*
X1843665Y2229900D02*
X2060232Y2434675D01*
X1827300Y2136400D02*
X1839124Y2225359D01*
X1843665Y2229900D01*
X1585726Y3811374D02*
X1585894Y3811785D01*
X1590728Y3823523D01*
X1711752Y3013247D02*
X1715326Y3011654D01*
X1466459Y3265197D02*
X1469669Y3909938D01*
X1871622Y2700000D02*
Y2764331D01*
X1469010Y3915502D02*
X1469669Y3909938D01*
X1715326Y3011654D02*
X1807755Y2977404D01*
X1862835Y2773118D02*
X1871622Y2764331D01*
X1669937Y2832598D02*
X1862835Y2773118D01*
X2181503Y3234104D02*
Y3237575D01*
X2144620Y3224960D02*
X2146503Y3223077D01*
X2275000Y2775001D02*
Y2990720D01*
X1590728Y3823523D02*
X1609552Y3852893D01*
X2181503Y3234104D02*
X2310000Y3005218D01*
Y2760503D02*
Y3005218D01*
X2146503Y3223077D02*
X2152361Y3210441D01*
X1663767Y3061233D02*
X1711752Y3013247D01*
X1805858Y2616202D02*
X1805859Y2628389D01*
X1715384Y2513754D02*
X1762240Y2428400D01*
X1845699Y2380156D02*
X1871622Y2425001D01*
X1600803Y2252154D02*
X1678379Y2300000D01*
X1871622Y2425001D02*
Y2506500D01*
X1800000Y2619693D02*
X1805858Y2616202D01*
X1854903Y2335236D02*
X2208928Y2687362D01*
X1805858Y2616202D02*
X1864122Y2554662D01*
X1753943Y2257700D02*
X1841255Y2323412D01*
X1560725Y2137357D02*
X1571813Y2106564D01*
X1711114Y2520745D02*
X1715384Y2513754D01*
X1678379Y2300000D02*
X1735242D01*
X1864122Y2514000D02*
Y2554662D01*
X1651395Y2170097D02*
X1753943Y2257700D01*
X1735242Y2300000D02*
X1811662Y2345633D01*
X1805859Y2628389D02*
X1871622Y2700000D01*
X1560550Y2137846D02*
X1560725Y2137357D01*
X1571813Y2106564D02*
X1653378Y2025000D01*
X1530514Y2221610D02*
X1642655Y2483888D01*
X1533394Y2095487D02*
X1536990Y2091890D01*
X1638880Y1990000D01*
X1523157Y2141445D02*
X1533394Y2095487D01*
X1406465Y2969601D02*
X1433788Y2975000D01*
X1471622D01*
X1425000Y2875000D02*
X1634810Y2573212D01*
X1175000Y2716213D02*
X1179362Y2720575D01*
X1349492Y2934930D01*
X1435436Y2536992D02*
X1552407Y2519770D01*
X1427213Y2536992D02*
X1435436Y2536992D01*
X1569919Y2781779D02*
X1711114Y2520745D01*
X1312811Y2488938D02*
X1427213Y2536992D01*
X1556450Y3714449D02*
X1562400Y3703411D01*
X1248091Y2423642D02*
X1271930Y2456552D01*
X1245815Y1655518D02*
X1255857Y1645477D01*
X1256241Y1645092D02*
X1277511Y1623823D01*
X1256145Y1645189D02*
X1256241Y1645092D01*
X1255857Y1645477D02*
X1255985Y1645349D01*
X1138726Y2501101D02*
Y2506733D01*
X1010552Y2635552D02*
X1017645Y2628458D01*
Y2627814D02*
X1138726Y2506733D01*
X1010476Y2635627D02*
X1010552Y2635552D01*
X1017645Y2627814D02*
Y2628458D01*
X1010476Y2635627D02*
X1010476D01*
X1407350Y4405540D02*
X1407350Y4405541D01*
X2157351Y4405535D02*
X2157352Y4405536D01*
X870430Y2686286D02*
X874435D01*
X2407348Y4405540D02*
X2407348Y4405541D01*
X1008286Y2584538D02*
X1009979Y2582521D01*
X883778Y2723911D02*
X889250Y2718439D01*
X990854Y2605292D02*
X1008243Y2584588D01*
X2547401Y4407493D02*
X2652594Y4407493D01*
X1907349Y4405540D02*
X1907349Y4405541D01*
X1297401Y4407498D02*
X1402594Y4407498D01*
X2657350Y4405535D02*
X2657351Y4405536D01*
X1547403Y4407493D02*
X1652596Y4407493D01*
X874435Y2686286D02*
X972448Y2621727D01*
X2670801Y4402499D02*
X2747501D01*
X2681068Y4354625D02*
X2727555Y4308138D01*
X1009263Y2636838D02*
X1009323Y2636778D01*
X1009334Y2636767D02*
X1010476Y2635627D01*
X984706Y2611897D02*
X986100Y2610504D01*
X2297399Y4407498D02*
X2402592Y4407498D01*
X1013276Y2527901D02*
X1013490Y2528802D01*
X1657352Y4405535D02*
X1657353Y4405536D01*
X2170802Y4402499D02*
X2279104D01*
X975000Y2375000D02*
X1013276Y2527901D01*
X1670803Y4402499D02*
X1779105D01*
X2047402Y4407493D02*
X2152595Y4407493D01*
X889250Y2718439D02*
X991559Y2651049D01*
X1797400Y4407498D02*
X1902593Y4407498D01*
X1470096Y3089189D02*
X1582975D01*
X1464254Y3095031D02*
X1470096Y3089189D01*
X1470853Y3254515D02*
X1483279Y3254516D01*
X1487674Y3255610D02*
X1624610Y3292996D01*
X1672554Y3082448D02*
X1696723Y3096911D01*
X1483279Y3254516D02*
X1487674Y3255610D01*
X1696723Y3096911D02*
X1729903Y3146070D01*
X1582975Y3089189D02*
X1591763Y3097976D01*
X1650000Y3200000D01*
X1466459Y3258909D02*
X1470853Y3254515D01*
X2209199Y3775000D02*
X2235124Y3749075D01*
X1675000Y3775000D02*
X2209199D01*
X1542392Y3790906D02*
X1561900Y3938102D01*
X1511163Y3592872D02*
X1548134Y3555901D01*
X1609552Y3852893D02*
X1616115Y3859456D01*
X1811902Y3938102D01*
X2235124Y3749075D02*
X2404199Y3580000D01*
X1466459Y3258909D02*
X1466459Y3265197D01*
X1508185Y3595850D02*
X1511163Y3592872D01*
X1561900Y3938102D02*
X1600000Y4000002D01*
X1504674Y3918162D02*
X1508185Y3595850D01*
X1811902Y3938102D02*
X1850002Y4000002D01*
X2743904Y3633263D02*
X2966469Y3584061D01*
X2099999Y3450000D02*
X2612574D01*
X2696242Y3644031D02*
X2743904Y3633263D01*
X2404199Y3580000D02*
X2421458D01*
X2649342Y3642923D01*
X2621802Y3458788D02*
X2675000Y3550000D01*
X2613014Y3450001D02*
X2621802Y3458788D01*
X2612574Y3450000D02*
X2613014Y3450001D01*
X3001193Y2986621D02*
X3054599Y3015544D01*
X3100000Y2786220D02*
X3132893Y2409709D01*
X3100000Y2818927D02*
X3117174Y2900000D01*
X3203053Y3046177D02*
X3203229Y3046000D01*
X2801664Y2759187D02*
X3001193Y2986621D01*
X3194443Y3054788D02*
X3203053Y3046177D01*
X2748461Y2251072D02*
X2785373Y2159510D01*
X3169354Y3020595D02*
X3191606Y3010967D01*
X2722844Y2306434D02*
X2748461Y2251072D01*
X3190543Y2720273D02*
X3205435Y2855646D01*
X3107209Y2231453D02*
X3131576Y2376505D01*
X3100000Y2798475D02*
Y2806500D01*
X3100000Y2818927D01*
X3100000Y2786220D02*
Y2798475D01*
X3103787Y2216213D02*
X3107209Y2231453D01*
X3191606Y3010967D02*
X3467151Y3007849D01*
X3205435Y2855646D02*
X3210678Y2876547D01*
X2850000Y2025000D02*
X3068181Y2243180D01*
X3096369Y2378633D01*
X3021978Y2884810D02*
X3097187Y2413463D01*
X3150060Y3125414D02*
X3194443Y3054788D01*
X2716006Y2368466D02*
X2801664Y2759187D01*
X3467151Y3007849D02*
X3471479Y3003521D01*
X3617501Y2857499D01*
X3203229Y3046000D02*
X3591214D01*
X3450000Y3550000D02*
X3475000D01*
X3349999Y3650001D02*
X3450000Y3550000D01*
X4606375Y1996752D02*
X4607592Y1995696D01*
X3714999Y3469997D02*
X3782499Y3425000D01*
X4050000Y2699673D02*
Y3422839D01*
X4617322Y1986338D02*
X4781939Y1811237D01*
X3782499Y3425000D02*
X3925000D01*
X4735002Y1772500D02*
X4805002Y1750000D01*
X4540676Y2052500D02*
X4606375Y1996752D01*
X4014967Y2685220D02*
X4492496Y2051183D01*
X4598609Y1954283D02*
X4735002Y1772500D01*
X4781939Y1811237D02*
X4790676Y1802500D01*
X4526179Y2017500D02*
X4582816Y1970813D01*
X4492496Y2051183D02*
X4526179Y2017500D01*
X4360000Y2389673D02*
X4527496Y2065680D01*
X3900501Y2838379D02*
X4014967Y2685220D01*
X4527496Y2065680D02*
X4540676Y2052500D01*
X4050000Y2699673D02*
X4358352Y2391321D01*
X4360000Y2389673D01*
X3900501Y2843212D02*
Y2863315D01*
Y2843212D02*
X3900501Y2838379D01*
X3190394Y2512442D02*
Y2530689D01*
X3510205Y2060784D02*
X3510985Y2111491D01*
X3030751Y1852137D02*
X3349600Y2073685D01*
X3531086Y2582415D02*
X3547642Y2266545D01*
X3472357Y2115276D02*
X3475687Y2118636D01*
X3385454Y2708797D02*
X3523529Y2219463D01*
X3471297Y2114216D02*
X3472357Y2115276D01*
X3354940Y2079025D02*
X3397067Y2183780D01*
X3199181Y2503655D02*
X3463312Y2253813D01*
X3547607Y2111934D02*
X3551872Y2122751D01*
X3189986Y2709784D02*
X3190394Y2530689D01*
X3510985Y2111491D02*
X3513676Y2123213D01*
X3580393Y2497236D02*
X3582501Y2281184D01*
X3580393Y2497236D02*
Y2509637D01*
X3190394Y2512442D02*
X3199181Y2503655D01*
X3546000Y2097150D02*
X3546094Y2098827D01*
X3581094Y2095923D02*
X3590176Y2126587D01*
X4373063Y422112D02*
X4374524Y458718D01*
X3547642Y2266545D02*
X3558265Y2225060D01*
X3521101Y2675438D02*
X3531086Y2582415D01*
X3546094Y2098827D02*
X3547607Y2111934D01*
X4261716Y219290D02*
X4371653Y349278D01*
X3582501Y2281184D02*
X3594235Y2224850D01*
X3349600Y2073685D02*
X3354940Y2079025D01*
X3475687Y2118636D02*
X3480640Y2135732D01*
X3546000Y2055875D02*
Y2097150D01*
X3589197Y1687417D02*
X3619504D01*
X3120621Y1732072D02*
X3544541D01*
X3589197Y1687417D01*
X2762494Y455001D02*
X2835409Y436686D01*
X2918059Y454073D02*
X2990001Y509999D01*
X3025001Y537499D01*
X2714994Y550001D02*
X2762494Y455001D01*
X3645016Y1046197D02*
X3645173Y1046040D01*
X3128682Y1099736D02*
X3310915Y1084546D01*
X3453163Y1024619D02*
X3457670Y1020113D01*
X2650001Y1037503D02*
X2685001Y1050000D01*
X3449315Y1028467D02*
X3453163Y1024619D01*
X3641213Y1050000D02*
X3645016Y1046197D01*
X2685001Y1050000D02*
X3299904D01*
X3122468Y1099736D02*
X3128682D01*
X3313911Y1084261D02*
X3641213Y1050000D01*
X3314572Y1048892D02*
X3449315Y1028467D01*
X2685001Y1135002D02*
X2740486Y1108879D01*
X2650001Y1162502D02*
X2685001Y1135002D01*
X3261589Y1671720D02*
X3261639Y1671723D01*
X3168840Y1498931D02*
X3175312Y1505403D01*
X2779320Y1335000D02*
X3168840Y1498931D01*
X3224167Y1671396D02*
X3261589Y1671720D01*
X3175312Y1505403D02*
X3225000Y1575000D01*
X2724997Y1412497D02*
X2965030Y1652531D01*
X3217925Y1671140D01*
X3090505Y1300000D02*
X3094861Y1304197D01*
X2353632Y1714331D02*
X3120621Y1732072D01*
X2793817Y1300000D02*
X3090505D01*
X3094861Y1304197D02*
X3324881Y1525779D01*
X2358551Y1784678D02*
X2370290Y1785729D01*
X3582501Y2518815D02*
X3594419Y2530733D01*
X2373515Y1750876D02*
X2986548Y1800380D01*
X3594419Y2530733D02*
X3616154Y2659379D01*
X2361609Y1749812D02*
X2373515Y1750876D01*
X3286386Y2709923D02*
X3351801Y2776801D01*
X4375849Y472749D02*
X4378148Y488202D01*
X2370290Y1785729D02*
X2371953Y1785876D01*
X2193608Y1787756D02*
X2228732Y1787756D01*
X2371953Y1785876D02*
X2983472Y1835245D01*
X3351801Y2776801D02*
X3356500Y2781500D01*
X3529539Y2891213D02*
X3602377Y2772893D01*
X2228732Y1787756D02*
X2338670Y1784946D01*
X3049635Y1822648D02*
X3441789Y2089057D01*
X3602377Y2772893D02*
X3616149Y2691526D01*
X2187335Y1787756D02*
X2193608Y1787756D01*
X2214427Y1752755D02*
X2336356Y1749990D01*
X2060377Y1710698D02*
X2351963Y1714302D01*
X2208160Y1752756D02*
X2214427Y1752755D01*
X1848785Y1499106D02*
X2060377Y1710698D01*
X2071378Y1751777D02*
X2208160Y1752756D01*
X2864497Y1990000D02*
X2886967Y1999394D01*
X1638880Y1990000D02*
X2864497D01*
X1653378Y2025000D02*
X2850000D01*
X1325000Y1687501D02*
X1362502Y1649999D01*
X1325000Y1687501D02*
Y1725000D01*
X1243978Y1655518D02*
X1245815D01*
X1180000Y1721072D02*
X1240554Y1658941D01*
X1180000Y1721072D02*
Y2322929D01*
X1277511Y1478167D02*
X1393177Y1362501D01*
X1240554Y1658941D02*
X1243978Y1655518D01*
X1277511Y1478167D02*
Y1623823D01*
X1400000Y650000D02*
Y902501D01*
Y650000D02*
X1425000Y625000D01*
Y619999D02*
Y625000D01*
X1400000Y902501D02*
X1406250Y908751D01*
X896622Y425000D02*
X1274784D01*
X822456Y284394D02*
X845769Y286567D01*
X800000Y400000D02*
X896622Y425000D01*
X760683Y311982D02*
X822456Y284394D01*
X806279Y496196D02*
X1085510Y477971D01*
X3645877Y1045336D02*
X3646192Y1045021D01*
X4506705Y454941D02*
X4616393Y498248D01*
X4392709Y367863D02*
X4412414Y380689D01*
X4417227Y415389D02*
X4421727Y394930D01*
X4188713Y152500D02*
X4232426Y190000D01*
X4445295Y287069D02*
X4735002Y377500D01*
X3972500Y152500D02*
X4188713D01*
X4506705Y454941D02*
Y454941D01*
X4735002Y377500D02*
X4805003Y400000D01*
X4616393Y498248D02*
X4628820D01*
X4421201Y389476D02*
X4421727Y394930D01*
X4211716Y225000D02*
X4220503Y233788D01*
X4372768Y421735D01*
X4412414Y380689D02*
X4421201Y389476D01*
X4232426Y190000D02*
X4261716Y219290D01*
X4150000Y225000D02*
X4211716D01*
X4427500Y713318D02*
Y725000D01*
X4628820Y498248D02*
X4630503Y496564D01*
X4412599Y477965D02*
X4427500Y713318D01*
X4378148Y488202D02*
Y488485D01*
X4371322Y676334D02*
X4371322Y676081D01*
X4378148Y488485D01*
X4371322Y676354D02*
X4371322Y677108D01*
X4448714Y722505D02*
X4549561Y722964D01*
X4550240Y722964D02*
X4735002Y722505D01*
X4805003Y700004D01*
X4429996Y722505D02*
X4448714D01*
X4693461Y535958D02*
X4757503Y600000D01*
X4681034Y535958D02*
X4693461Y535958D01*
X4427500Y725000D02*
X4429996Y722505D01*
X4550000Y626565D02*
X4681034Y535958D01*
X4693621Y3903451D02*
X4710952D01*
X4525000Y3802385D02*
Y4025000D01*
Y3802385D02*
X4538693Y3788693D01*
X4710952Y3903451D02*
X4757502Y3950001D01*
X4707000Y500000D02*
X4805003D01*
X4703565Y496564D02*
X4707000Y500000D01*
X4630503Y496564D02*
X4703565D01*
X3511000Y2041378D02*
X4334133Y824907D01*
X1242511Y1400686D02*
X1345695Y1297503D01*
X1556998D01*
X1242511Y1400686D02*
Y1609325D01*
X1198380Y1243452D02*
Y1431635D01*
X1100011Y1505006D02*
X1125010D01*
X1198380Y1431635D01*
Y1243452D02*
X1242510Y1199322D01*
X847501Y3801961D02*
Y3972501D01*
X1561900Y4372494D02*
X1638100D01*
X2727555Y4146247D02*
Y4308138D01*
X1311898Y4372499D02*
X1388098D01*
X882501Y3703096D02*
X883778Y2723911D01*
X2162191Y4367499D02*
X2287792D01*
X2420843Y4402499D02*
X2529123D01*
X847501Y2709215D02*
X870430Y2686286D01*
X2061899Y4372494D02*
X2138099D01*
X2311896Y4372499D02*
X2388096D01*
X1811897D02*
X1888097D01*
X2412200Y4367499D02*
X2537806D01*
X1420845Y4402499D02*
X1529125D01*
X847501Y2709215D02*
Y3699502D01*
Y3972501D02*
X1223640Y4348640D01*
X1912201Y4367499D02*
X2037807D01*
X921384Y3882673D02*
X1253873Y4329375D01*
X1412202Y4367499D02*
X1537808D01*
X2561898Y4372494D02*
X2638098D01*
X1662192Y4367499D02*
X1787793D01*
X1920844Y4402499D02*
X2029124D01*
X1466757Y3922830D02*
X1467617Y3921285D01*
X1541791Y4127494D02*
X1663201D01*
X1470577Y4092287D02*
X1471300Y4237513D01*
X1467617Y3921285D02*
X1468097Y3919503D01*
X1466300Y3923605D02*
X1466300Y4076399D01*
X1501300Y3938102D02*
Y4061902D01*
X1519108Y4104811D02*
X1541791Y4127494D01*
X1471300Y4237513D02*
X1475694Y4241907D01*
X1483787Y4250000D01*
X3099394Y2211820D02*
X3103787Y2216213D01*
X2886967Y1999394D02*
X3099394Y2211820D01*
X3368927Y2781500D02*
X3377714Y2772712D01*
X3356500Y2781500D02*
X3368927D01*
X3377714Y2772712D02*
X3384631Y2714298D01*
X3582501Y2511744D02*
Y2518815D01*
X3630681Y2517498D02*
X3647501Y2532500D01*
X3580393Y2509637D02*
X3582501Y2511744D01*
X3617501Y2504318D02*
X3630681Y2517498D01*
X3617501Y2295681D02*
Y2504318D01*
X3630681Y2282501D02*
X3647499Y2276501D01*
X3647501Y2532500D02*
X3702001Y2565000D01*
X3647499Y2276501D02*
X3714999Y2209000D01*
X3617501Y2295681D02*
X3630681Y2282501D01*
X3654090Y2817500D02*
Y2820911D01*
X3617501Y2845677D02*
X3630681Y2832497D01*
X3642503D02*
X3654090Y2820911D01*
X3433787Y2900000D02*
X3520752D01*
X3617501Y2845677D02*
Y2857499D01*
X3630681Y2832497D02*
X3642503D01*
X3654090Y2817500D02*
X3724001Y2785000D01*
X3520752Y2900000D02*
X3529539Y2891213D01*
X3356500Y2822713D02*
X3433787Y2900000D01*
X3600001Y3054787D02*
Y3776815D01*
X3591214Y3046000D02*
X3600001Y3054787D01*
X3817321Y2627501D02*
X3830501Y2614320D01*
X3800501Y2422498D02*
X3817321Y2407501D01*
X3830501Y2394321D01*
X3768001Y2454998D02*
X3800501Y2422498D01*
X3724001Y2454998D02*
X3768001D01*
X4093660Y2455837D02*
X4094353Y2440885D01*
X3830501Y2669499D02*
Y2834320D01*
Y2669499D02*
X4058660Y2441340D01*
X3865501Y2823882D02*
X4093660Y2455837D01*
X3865501Y2823882D02*
Y2848817D01*
X3800501Y2636288D02*
Y2642498D01*
X3768001Y2674998D02*
X3800501Y2642498D01*
Y2636288D02*
X3809288Y2627501D01*
X3817321D01*
X3724001Y3005000D02*
X3800501Y2972499D01*
X3817321Y2957498D01*
X3724001Y2894997D02*
X3800501Y2862497D01*
X3817321Y2847500D01*
X3830501Y2834320D01*
X3890501Y2873315D02*
Y3104317D01*
Y2873315D02*
X3900501Y2863315D01*
X3830501Y2944317D02*
X3855501Y2858817D01*
X3817321Y2957498D02*
X3830501Y2944317D01*
X3855501Y2858817D02*
X3865501Y2848817D01*
X2264427Y2710662D02*
X2266686Y2717189D01*
X2310000Y2760503D01*
X2132293Y3279363D02*
X2139715D01*
X1965004Y3349891D02*
X2132293Y3279363D01*
X2139715D02*
X2181503Y3237575D01*
X2237800Y2666740D02*
X2243864Y2672805D01*
X2261738Y2702894D02*
X2264207Y2710028D01*
X1180000Y2322929D02*
X1210000Y2352929D01*
X1231939Y2398104D02*
X1232175Y2398477D01*
X1210000Y2358400D02*
X1231939Y2398104D01*
X1232175Y2398477D02*
X1248091Y2423642D01*
X1210000Y2352929D02*
Y2358400D01*
X1287884Y429489D02*
X1289837Y430920D01*
X1472886Y519419D02*
X1967044Y892044D01*
X1458396Y554418D02*
X1459260Y555282D01*
X1290059Y431081D02*
X1458396Y554418D01*
X1303113Y396860D02*
X1472886Y519419D01*
X845769Y286567D02*
X1282699Y389999D01*
X1967044Y892044D02*
X1975000Y900001D01*
X1459260Y555282D02*
X1848785Y948473D01*
X1686114Y1427500D02*
X1694901Y1436288D01*
X1778786Y1528101D01*
X1556998Y1232504D02*
X1619498Y1244004D01*
X1813786Y1513604D02*
X2050172Y1749990D01*
X2055363Y1790535D02*
X2067615D01*
X3452310Y2097195D02*
X3471297Y2114216D01*
X1778786Y1528101D02*
X2035675Y1784990D01*
X2067615Y1790535D02*
X2187335Y1787756D01*
X2050172Y1749990D02*
X2059030Y1751777D01*
X2071378D01*
X1636318Y1256003D02*
X1649498Y1269183D01*
X2035675Y1784990D02*
X2055363Y1790535D01*
X1619498Y1244004D02*
X1636318Y1256003D01*
X1649498Y1269183D02*
X1813786Y1513604D01*
X1556998Y1427500D02*
X1686114D01*
X2584997Y1259997D02*
X2617496Y1292497D01*
X2678177Y1327497D02*
X2771816D01*
X2617496Y1292497D02*
X2636317D01*
X2786314D02*
X2793817Y1300000D01*
X2528180Y1327497D02*
X2621819D01*
X2629288Y1334965D02*
X2670708D01*
X2643785Y1299965D02*
X2656211D01*
X2636317Y1292497D02*
X2643785Y1299965D01*
X2656211D02*
X2663679Y1292497D01*
X2670708Y1334965D02*
X2678177Y1327497D01*
X2515679Y1339997D02*
X2528180Y1327497D01*
X2621819D02*
X2629288Y1334965D01*
X2771816Y1327497D02*
X2779320Y1335000D01*
X2663679Y1292497D02*
X2786314D01*
X2317504Y972501D02*
X2331349Y958656D01*
X2337772D02*
X3041841Y978251D01*
X2331349Y958656D02*
X2337772D01*
X2300004Y985002D02*
X2317504Y972501D01*
X3042047Y978252D02*
X3048260D01*
X3052606Y973905D01*
X3052700Y973811D02*
X3056106Y970405D01*
X4466111Y1183048D02*
X4735003Y914156D01*
X3510205Y2053270D02*
Y2060784D01*
X4735003Y822504D02*
X4805003Y800004D01*
X3546000Y2055875D02*
X4427500Y1174375D01*
X4735003Y822504D02*
Y914156D01*
X3510205Y2053270D02*
X3511000Y2041378D01*
X3581139Y2070234D02*
X4462500Y1188872D01*
X3581094Y2095923D02*
X3581128Y2076431D01*
X4462500Y1188872D02*
X4462500Y1186659D01*
X3581128Y2076431D02*
X3581139Y2070234D01*
X4462500Y1186659D02*
X4466111Y1183048D01*
X3468700Y220601D02*
X3589300Y100000D01*
X4693713D02*
X4735003Y141290D01*
X3589300Y100000D02*
X4693713D01*
X3850000Y267761D02*
Y275000D01*
X3916371Y201390D02*
X3923610D01*
X3850000Y267761D02*
X3916371Y201390D01*
X3923610D02*
X3972500Y152500D01*
X1864122Y2514000D02*
X1871622Y2506500D01*
X1559026Y2827194D02*
X1559033Y2827467D01*
X1553576Y2878953D02*
X1559033Y2833862D01*
X1551346Y2888343D02*
X1553576Y2878953D01*
X1559033Y2833862D02*
X1559033Y2827467D01*
X2875000Y3791000D02*
Y3975002D01*
X3645607Y570608D02*
X3646640Y571642D01*
X3645606Y1045606D02*
X3645877Y1045336D01*
X1203655Y503118D02*
X1203969Y503283D01*
X1425000Y619999D01*
X1975000Y900001D02*
Y1050000D01*
X1848785Y948473D02*
Y1499106D01*
X3349999Y275000D02*
X3645607Y570608D01*
X3645173Y1046040D02*
X3645606Y1045606D01*
X4796889Y1802500D02*
X4891822D01*
X4790676Y1802500D02*
X4796889Y1802500D01*
X3868034Y1931966D02*
X3918035D01*
X3782499Y2017501D02*
X3868034Y1931966D01*
X2714728Y2350941D02*
X2716006Y2368466D01*
X1175000Y2703787D02*
Y2716213D01*
Y2703787D02*
X1231897Y2526246D01*
X1175000Y2367427D02*
X1225200Y2458276D01*
X1170607Y2363033D02*
X1175000Y2367427D01*
X1663767Y3073661D02*
X1672554Y3082448D01*
X1663767Y3061233D02*
X1663767Y3073661D01*
X1471622Y2975000D02*
X1480410Y2966213D01*
X1535712Y2910154D01*
X4544902Y4044902D02*
Y4119902D01*
X4525000Y4025000D02*
X4544902Y4044902D01*
X4757502Y3950001D02*
X4805002D01*
X3897503Y3577498D02*
X3962327Y3516305D01*
X3760085Y3577498D02*
X3897503D01*
X2725002Y1412502D02*
Y1549994D01*
X3925000Y4416213D02*
X5056290D01*
X3580509D02*
X3925000D01*
Y4425000D01*
Y4360701D02*
Y4416213D01*
X3850000Y4250000D02*
Y4285701D01*
X3925000Y4360701D01*
X5056290Y4416213D02*
X5192500Y4280003D01*
X3501296Y4337000D02*
X3580509Y4416213D01*
X3501296Y4162998D02*
Y4337000D01*
Y4162998D02*
X3539293Y4125000D01*
X3660704D01*
X1145000Y2337426D02*
X1170607Y2363033D01*
X1900000Y3450000D02*
X1999999D01*
X2099999D01*
X1900000Y3550000D02*
X1999999D01*
X1900000Y3450000D02*
Y3550000D01*
X3782499Y2017501D02*
Y2141500D01*
X4250000Y1550000D02*
X4308177D01*
X3717499Y2206501D02*
X3782499Y2141500D01*
X4308177Y1550000D02*
X4433177Y1425000D01*
X4600000D01*
X2231297Y2721950D02*
X2236245Y2736245D01*
X2118003Y1102497D02*
X2219938D01*
X2299999Y1339997D02*
X2515679D01*
X2724997Y1399997D02*
Y1412497D01*
X2236245Y2736245D02*
X2275000Y2775001D01*
X1231318Y1620518D02*
X1242511Y1609325D01*
X1145000Y1706837D02*
X1216926Y1633038D01*
X1145000Y1706837D02*
Y2337426D01*
X3349999Y3650001D02*
Y4000002D01*
X4805002Y1166620D02*
Y1250001D01*
X4750000Y1111618D02*
X4805002Y1166620D01*
X4750000Y1100000D02*
Y1111618D01*
X4805002Y1350001D02*
X4852502D01*
X4975000Y1227503D01*
Y1225000D02*
Y1227503D01*
X2850000Y4000002D02*
X2875000Y3975002D01*
X4544902Y4119902D02*
X4575001Y4150001D01*
X4805002D01*
Y1450001D02*
X4827502Y1427501D01*
X4997500D01*
X5000000Y1425000D01*
X2800190Y4299804D02*
X2850000Y4249994D01*
X2800190Y4299804D02*
Y4349810D01*
X2747501Y4402499D02*
X2800190Y4349810D01*
X2637499Y1150000D02*
X2650001Y1162502D01*
X538139Y1227636D02*
X559569Y1206206D01*
X538139Y1227636D02*
Y1286568D01*
X525000Y1299707D02*
X538139Y1286568D01*
X525000Y1299707D02*
Y1725000D01*
X4805002Y1550000D02*
X5192500D01*
Y1880002D01*
Y1119999D02*
Y1550000D01*
X3751298Y3586284D02*
X3760085Y3577498D01*
X3356500Y2781500D02*
Y2822713D01*
X5200000Y1887503D02*
Y2150000D01*
X5192500Y1880002D02*
X5200000Y1887503D01*
X4308177Y1550000D02*
X4805002D01*
X5192500Y930002D02*
Y1119999D01*
Y930002D02*
X5192500Y930001D01*
X4757503Y600000D02*
X4805003D01*
X2299999Y1259997D02*
X2584997D01*
X1975000Y1050000D02*
Y1241213D01*
X1987497Y1037503D02*
X2092999D01*
X1975000Y1050000D02*
X1987497Y1037503D01*
X2081499Y1244004D02*
X2092999Y1232504D01*
X2004783Y1244004D02*
X2081499D01*
X1998787Y1250000D02*
X2004783Y1244004D01*
X1983787Y1250000D02*
X1998787D01*
X1975000Y1241213D02*
X1983787Y1250000D01*
X1100001Y699998D02*
Y725001D01*
X1387501Y977501D02*
X1400001Y990000D01*
X1352501Y977501D02*
X1387501D01*
X1100001Y725001D02*
X1352501Y977501D01*
X1405000Y910000D02*
X1406250Y908751D01*
X1555748D01*
X1400001Y910000D02*
X1405000D01*
X1362502Y1649999D02*
X1375002D01*
X2714994Y550001D02*
Y774994D01*
X5192500Y170003D02*
Y930001D01*
X5200000Y2150000D02*
Y3500000D01*
X4805002Y4050001D02*
X4932503D01*
X5162500Y3820004D01*
X5192500D01*
Y3507500D02*
Y3820004D01*
Y3507500D02*
X5200000Y3500000D01*
X5192500Y3820004D02*
Y4280003D01*
X725000Y1925000D02*
Y2424999D01*
X525000Y1725000D02*
X725000Y1925000D01*
X3817321Y3177497D02*
X3890501Y3104317D01*
X3724001Y2674998D02*
X3768001D01*
X1393177Y1362501D02*
X1556998D01*
X3617499Y3375678D02*
X3682579Y3310598D01*
Y3242577D02*
Y3310598D01*
Y3242577D02*
X3747659Y3177497D01*
X4891822Y1802500D02*
X4905002Y1789320D01*
X3747659Y3177497D02*
X3817321D01*
X3617499Y3375678D02*
Y3564317D01*
X4905002Y1702500D02*
Y1789320D01*
X3600001Y3776815D02*
X3630001Y3746815D01*
X3617499Y3564317D02*
X3630001Y3576819D01*
Y3746815D01*
X4852502Y1650000D02*
X4905002Y1702500D01*
X3600001Y3776815D02*
Y4000002D01*
X4805002Y1650000D02*
X4852502D01*
X4427500Y725000D02*
Y1174375D01*
X4735003Y141290D02*
Y277500D01*
X4757503Y300000D02*
X4805003D01*
X4735003Y277500D02*
X4757503Y300000D01*
X3349999Y275000D02*
X3404399Y220601D01*
X3468700D01*
X4100000Y275000D02*
X4150000Y225000D01*
X2727555Y4146247D02*
X2850000Y4023802D01*
Y4000002D02*
Y4023802D01*
X1663201Y4127494D02*
X1731307Y4195599D01*
X1795597D02*
X1849997Y4249999D01*
X1731307Y4195599D02*
X1795597D01*
X1599994Y4250000D02*
X1600000Y4249994D01*
X1483787Y4250000D02*
X1599994D01*
X2099999Y275000D02*
Y282240D01*
X2033629Y348610D02*
X2099999Y282240D01*
X2026389Y348610D02*
X2033629D01*
X1850002Y267761D02*
X1916373Y201391D01*
X1850002Y267761D02*
Y275000D01*
X1916373Y201391D02*
X1923612D01*
X1432502Y1492499D02*
X1582002D01*
X1242510Y1111285D02*
Y1199322D01*
Y1111285D02*
X1251299Y1102502D01*
X1556998D01*
X1157512Y1037503D02*
X1556998D01*
X1100011Y1095004D02*
X1157512Y1037503D01*
X1422510Y972500D02*
X1556998D01*
X1405004Y990000D02*
X1422510Y972500D01*
X1400001Y990000D02*
X1405004D01*
X1555748Y908751D02*
X1556998Y907501D01*
X3025001Y412501D02*
X3032504D01*
X3060002Y385003D01*
Y289997D02*
Y385003D01*
Y289997D02*
X3074998Y275000D01*
X2118003Y907496D02*
X2169006D01*
X2192506Y883996D01*
X2197327D01*
X2300690Y907496D02*
X2452490D01*
X2479988Y849996D02*
Y879998D01*
X2452490Y907496D02*
X2479988Y879998D01*
X2669990Y819998D02*
X2714994Y774994D01*
X2669990Y819998D02*
Y849996D01*
X2197327Y883996D02*
X2384997Y696320D01*
Y550001D02*
Y696320D01*
X2118003Y1297498D02*
X2252496D01*
X2295000Y1339997D02*
X2299999D01*
X2547506Y1427495D02*
X2574999Y1399997D01*
X2118003Y1362496D02*
X2272506D01*
X2118003Y1427495D02*
X2547506D01*
X2252496Y1297498D02*
X2295000Y1339997D01*
X2272506Y1362496D02*
X2295000Y1339997D01*
X2118003Y1492499D02*
X2530001D01*
X2574999Y1537497D01*
Y1549994D01*
X1375002Y1499997D02*
X1424999D01*
X1432502Y1492499D01*
X2118003Y972495D02*
X2235696D01*
X2622503Y1065001D02*
X2650001Y1037503D01*
X2300004Y1065001D02*
X2622503D01*
X2212003Y1232499D02*
X2239501Y1259997D01*
X2299999D01*
X2490001Y1150000D02*
X2637499D01*
X2118003Y1232499D02*
X2212003D01*
X2397504Y1167496D02*
X2410001Y1154994D01*
X2118003Y1167496D02*
X2397504D01*
X2410001Y1150000D02*
Y1154994D01*
X2257433Y1065001D02*
X2300004D01*
X2219938Y1102497D02*
X2257433Y1065001D01*
X2235696Y972495D02*
X2300690Y907496D01*
X1580752Y908751D02*
X1582002Y907496D01*
D25*
X4805003Y300000D02*
D03*
Y400000D02*
D03*
Y500000D02*
D03*
Y700004D02*
D03*
Y800004D02*
D03*
Y600000D02*
D03*
X4805002Y4150001D02*
D03*
Y3950001D02*
D03*
Y4050001D02*
D03*
Y1250001D02*
D03*
Y1350001D02*
D03*
Y1450001D02*
D03*
Y1650000D02*
D03*
Y1750000D02*
D03*
Y1550000D02*
D03*
D26*
X5192500Y170003D02*
D03*
Y930001D02*
D03*
X5192500Y3820004D02*
D03*
Y4280003D02*
D03*
Y1119999D02*
D03*
Y1880002D02*
D03*
D34*
X2574999Y1549994D02*
D03*
X2725002D02*
D03*
X2574999Y1399997D02*
D03*
X2724997D02*
D03*
D35*
X2384997Y550001D02*
D03*
X2714994D02*
D03*
D50*
X2479988Y849996D02*
D03*
X2669990D02*
D03*
D51*
X2299999Y1259997D02*
D03*
Y1339997D02*
D03*
X2300004Y985002D02*
D03*
Y1065001D02*
D03*
X1400001Y910000D02*
D03*
Y990000D02*
D03*
D52*
X2410001Y1150000D02*
D03*
X2490001D02*
D03*
D54*
X400000Y396000D02*
D03*
X501600Y904000D02*
D03*
X298400D02*
D03*
D55*
X725000Y2424999D02*
D03*
Y1925000D02*
D03*
D56*
X399996Y1550000D02*
D03*
D57*
X1100001Y699998D02*
D03*
X4150003Y3750000D02*
D03*
Y699998D02*
D03*
X1100001Y3750000D02*
D03*
D58*
X3850000Y4250000D02*
D03*
X3849998Y4000002D02*
D03*
X3600001D02*
D03*
X3599996Y4249999D02*
D03*
X3349994Y4240799D02*
D03*
X3349999Y4000002D02*
D03*
X3100002D02*
D03*
X3099997Y4249994D02*
D03*
X2850000D02*
D03*
Y4000002D02*
D03*
X2599998D02*
D03*
Y4249994D02*
D03*
X2349996Y4249999D02*
D03*
X2099999Y4000002D02*
D03*
Y4249994D02*
D03*
X1849997Y4249999D02*
D03*
X1850002Y4000002D02*
D03*
X1600000D02*
D03*
Y4249994D02*
D03*
X1349998Y4249999D02*
D03*
Y3999997D02*
D03*
X4100000Y275000D02*
D03*
X3850000D02*
D03*
X3600000D02*
D03*
X3349999Y275000D02*
D03*
X3074998D02*
D03*
X2850000D02*
D03*
X2600003D02*
D03*
X2350001D02*
D03*
X1850002D02*
D03*
X1600000D02*
D03*
X1350003D02*
D03*
X2350001Y4000002D02*
D03*
X2099999Y275000D02*
D03*
D59*
X1893548Y3195165D02*
D03*
X4346102Y1749610D02*
D03*
X4175000Y1900000D02*
D03*
X4018901Y1775000D02*
D03*
X2953075Y680044D02*
D03*
X3125000Y800000D02*
D03*
X3316322Y774824D02*
D03*
X3324247Y598002D02*
D03*
X3155984Y493901D02*
D03*
X3618165Y693165D02*
D03*
X4256301Y2076352D02*
D03*
X1827300Y2136400D02*
D03*
X1981985Y2946218D02*
D03*
X1669937Y2832598D02*
D03*
X1807755Y2977404D02*
D03*
X2175000Y2975000D02*
D03*
X1762240Y2428400D02*
D03*
X1805858Y2616202D02*
D03*
X1651395Y2170097D02*
D03*
X1552407Y2519770D02*
D03*
X1425000Y2875000D02*
D03*
X1398663Y2661407D02*
D03*
X1350000Y2400000D02*
D03*
X1138726Y2501101D02*
D03*
X875000Y2550000D02*
D03*
X1250000Y3375000D02*
D03*
X1464254Y3095031D02*
D03*
X1650000Y3200000D02*
D03*
X1675000Y3775000D02*
D03*
X2675000Y3550000D02*
D03*
X2468154Y3075233D02*
D03*
X2600000Y2500000D02*
D03*
X3150060Y3125414D02*
D03*
X2785373Y2159510D02*
D03*
X3001991Y2398274D02*
D03*
X3117174Y2900000D02*
D03*
X2825000Y2400000D02*
D03*
X3125000Y3350000D02*
D03*
X3150068Y3525216D02*
D03*
X2966469Y3584061D02*
D03*
X3475000Y3550000D02*
D03*
X3925000Y3425000D02*
D03*
X4650000Y2300000D02*
D03*
X4521500Y1896428D02*
D03*
X3397067Y2183780D02*
D03*
X3619504Y1687417D02*
D03*
X2858894Y530182D02*
D03*
X3300000Y953600D02*
D03*
X3450000Y1250000D02*
D03*
X3042671Y1185097D02*
D03*
X2781548Y1196097D02*
D03*
X3225000Y1575000D02*
D03*
X3521101Y2675438D02*
D03*
X3286386Y2709923D02*
D03*
X2975796Y1931339D02*
D03*
X2349907Y1880690D02*
D03*
X1725000Y1675000D02*
D03*
X1325000Y1725000D02*
D03*
X1025002Y1724998D02*
D03*
X672254Y1676964D02*
D03*
X1400000Y650000D02*
D03*
X800000Y400000D02*
D03*
X4506705Y454941D02*
D03*
X4445295Y287069D02*
D03*
X4550000Y626565D02*
D03*
X4875000Y2025000D02*
D03*
X4850000Y2300000D02*
D03*
X4638602Y2577974D02*
D03*
X4600155Y2750748D02*
D03*
X5050000Y2600000D02*
D03*
X4610921Y3120018D02*
D03*
X4475104Y3006517D02*
D03*
X4648732Y2946214D02*
D03*
X4538693Y3788693D02*
D03*
X4693621Y3903451D02*
D03*
X2875000Y3791000D02*
D03*
X775000Y1200000D02*
D03*
X4975000Y2775000D02*
D03*
X4624842Y1225158D02*
D03*
X975000Y2375000D02*
D03*
X1500000Y1800000D02*
D03*
X4750000Y1100000D02*
D03*
X4975000Y1225000D02*
D03*
X5000000Y1425000D02*
D03*
X559569Y1206206D02*
D03*
X4600000Y1425000D02*
D03*
X700000Y3500000D02*
D03*
X1025000Y3375000D02*
D03*
X2175000Y600000D02*
D03*
X1975000D02*
D03*
D60*
X2099999Y3450000D02*
D03*
X1999999Y3550000D02*
D03*
Y3450000D02*
D03*
X1900000Y3550000D02*
D03*
Y3450000D02*
D03*
D61*
X5200000Y3500000D02*
D03*
Y2150000D02*
D03*
D62*
X3714999Y3469997D02*
D03*
D63*
X3724001Y2565000D02*
D03*
Y2345001D02*
D03*
Y2454998D02*
D03*
Y2674998D02*
D03*
Y2785000D02*
D03*
Y2894997D02*
D03*
Y3005000D02*
D03*
Y3114997D02*
D03*
D64*
X3714999Y2204000D02*
D03*
D65*
X4619996Y2139500D02*
D03*
D66*
X3879998D02*
D03*
D67*
X2650001Y1162502D02*
D03*
Y1037503D02*
D03*
X3025001Y537499D02*
D03*
Y412501D02*
D03*
D68*
X1375002Y1499997D02*
D03*
Y1649999D02*
D03*
D69*
X2092999Y1102502D02*
D03*
Y1362501D02*
D03*
Y1297503D02*
D03*
X1556998Y777504D02*
D03*
Y842503D02*
D03*
Y1557502D02*
D03*
Y1622501D02*
D03*
X2092999D02*
D03*
Y1557502D02*
D03*
Y842503D02*
D03*
Y777504D02*
D03*
Y907501D02*
D03*
Y972500D02*
D03*
Y1037503D02*
D03*
Y1167501D02*
D03*
Y1232504D02*
D03*
Y1427500D02*
D03*
Y1492504D02*
D03*
X1556998D02*
D03*
Y1427500D02*
D03*
Y1362501D02*
D03*
Y1297503D02*
D03*
Y1232504D02*
D03*
Y1167501D02*
D03*
Y1102502D02*
D03*
Y1037503D02*
D03*
Y972500D02*
D03*
Y907501D02*
D03*
D70*
X1100011Y1095004D02*
D03*
Y1505006D02*
D03*
%TF.MD5,4cc05033ba6c7b7f00ed38822ad82993*%
M02*
