%TF.GenerationSoftware,Altium Limited,Altium Designer,23.4.1 (23)*%
G04 Layer_Color=0*
%FSLAX45Y45*%
%MOMM*%
%TF.SameCoordinates,2ABB9494-C5B4-4C01-9411-B7C80C6C87EF*%
%TF.FilePolarity,Positive*%
%TF.FileFunction,Plated,1,8,PTH,Drill*%
%TF.Part,Single*%
G01*
G75*
%TA.AperFunction,OtherDrill,Pad Free-55 (32.5mm,35.5mm)*%
%ADD112C,0.76200*%
%TA.AperFunction,OtherDrill,Pad Free-54 (30mm,35.5mm)*%
%ADD113C,0.76200*%
%TA.AperFunction,OtherDrill,Pad Free-53 (27.5mm,35.5mm)*%
%ADD114C,0.76200*%
%TA.AperFunction,OtherDrill,Pad Free-51 (25mm,35.5mm)*%
%ADD115C,0.76200*%
%TA.AperFunction,OtherDrill,Pad Free-50 (22.5mm,35.5mm)*%
%ADD116C,0.76200*%
%TA.AperFunction,OtherDrill,Pad Free-48 (20mm,35.5mm)*%
%ADD117C,0.76200*%
%TA.AperFunction,OtherDrill,Pad Free-46 (17.5mm,35.5mm)*%
%ADD118C,0.76200*%
%TA.AperFunction,OtherDrill,Pad Free-44 (15mm,35.5mm)*%
%ADD119C,0.76200*%
%TA.AperFunction,OtherDrill,Pad Free-43 (12.5mm,35.5mm)*%
%ADD120C,0.76200*%
%TA.AperFunction,OtherDrill,Pad Free-31 (9mm,1.5mm)*%
%ADD121C,0.76200*%
%TA.AperFunction,ComponentDrill*%
%ADD122O,1.30000X0.60000*%
%ADD123C,0.85000*%
%TA.AperFunction,OtherDrill,Pad Free-40 (16.5mm,1.5mm)*%
%ADD124C,0.76200*%
%TA.AperFunction,OtherDrill,Pad Free-32 (34mm,1.5mm)*%
%ADD125C,0.76200*%
%TA.AperFunction,OtherDrill,Pad Free-42 (31.5mm,1.5mm)*%
%ADD126C,0.76200*%
%TA.AperFunction,OtherDrill,Pad Free-41 (29mm,1.5mm)*%
%ADD127C,0.76200*%
%TA.AperFunction,OtherDrill,Pad Free-39 (26.5mm,1.5mm)*%
%ADD128C,0.76200*%
%TA.AperFunction,OtherDrill,Pad Free-38 (24mm,1.5mm)*%
%ADD129C,0.76200*%
%TA.AperFunction,OtherDrill,Pad Free-37 (21.5mm,1.5mm)*%
%ADD130C,0.76200*%
%TA.AperFunction,OtherDrill,Pad Free-36 (6.5mm,1.5mm)*%
%ADD131C,0.76200*%
%TA.AperFunction,OtherDrill,Pad Free-35 (19mm,1.5mm)*%
%ADD132C,0.76200*%
%TA.AperFunction,OtherDrill,Pad Free-34 (11.5mm,1.5mm)*%
%ADD133C,0.76200*%
%TA.AperFunction,OtherDrill,Pad Free-33 (14mm,1.5mm)*%
%ADD134C,0.76200*%
%TA.AperFunction,OtherDrill,Pad Free-17 (7.5mm,38mm)*%
%ADD135C,0.76200*%
%TA.AperFunction,OtherDrill,Pad Free-16 (10mm,38mm)*%
%ADD136C,0.76200*%
%TA.AperFunction,OtherDrill,Pad Free-15 (12.5mm,38mm)*%
%ADD137C,0.76200*%
%TA.AperFunction,OtherDrill,Pad Free-14 (15mm,38mm)*%
%ADD138C,0.76200*%
%TA.AperFunction,OtherDrill,Pad Free-13 (10mm,35.5mm)*%
%ADD139C,0.76200*%
%TA.AperFunction,OtherDrill,Pad Free-12 (7.5mm,35.5mm)*%
%ADD140C,0.76200*%
%TA.AperFunction,OtherDrill,Pad Free-11 (20mm,38mm)*%
%ADD141C,0.76200*%
%TA.AperFunction,OtherDrill,Pad Free-10 (17.5mm,38mm)*%
%ADD142C,0.76200*%
%TA.AperFunction,OtherDrill,Pad Free-9 (22.5mm,38mm)*%
%ADD143C,0.76200*%
%TA.AperFunction,OtherDrill,Pad Free-8 (25mm,38mm)*%
%ADD144C,0.76200*%
%TA.AperFunction,OtherDrill,Pad Free-7 (27.5mm,38mm)*%
%ADD145C,0.76200*%
%TA.AperFunction,OtherDrill,Pad Free-6 (30mm,38mm)*%
%ADD146C,0.76200*%
%TA.AperFunction,OtherDrill,Pad Free-5 (32.5mm,38mm)*%
%ADD147C,0.76200*%
%TA.AperFunction,OtherDrill,Pad Free-4 (4.5mm,35.5mm)*%
%ADD148C,4.00000*%
%TA.AperFunction,OtherDrill,Pad Free-3 (35.5mm,35.5mm)*%
%ADD149C,4.00000*%
%TA.AperFunction,OtherDrill,Pad Free-2 (35.5mm,4.5mm)*%
%ADD150C,4.00000*%
%TA.AperFunction,OtherDrill,Pad Free-1 (4.5mm,4.5mm)*%
%ADD151C,4.00000*%
%TA.AperFunction,ViaDrill,NotFilled*%
%ADD152C,0.20000*%
D112*
X3250002Y3550002D02*
D03*
D113*
X3000000D02*
D03*
D114*
X2749998D02*
D03*
D115*
X2500001D02*
D03*
D116*
X2249999D02*
D03*
D117*
X2000002D02*
D03*
D118*
X1750000D02*
D03*
D119*
X1499998D02*
D03*
D120*
X1250001D02*
D03*
D121*
X899999Y149998D02*
D03*
D122*
X3850001Y799999D02*
D03*
Y1499998D02*
D03*
D123*
X3579999Y899999D02*
D03*
Y1399998D02*
D03*
D124*
X1650000Y149998D02*
D03*
D125*
X3399999D02*
D03*
D126*
X3150002D02*
D03*
D127*
X2900000D02*
D03*
D128*
X2649998D02*
D03*
D129*
X2400001D02*
D03*
D130*
X2149999D02*
D03*
D131*
X650002D02*
D03*
D132*
X1900002D02*
D03*
D133*
X1150001D02*
D03*
D134*
X1399998D02*
D03*
D135*
X750002Y3799998D02*
D03*
D136*
X999999D02*
D03*
D137*
X1250001D02*
D03*
D138*
X1499998D02*
D03*
D139*
X999999Y3550002D02*
D03*
D140*
X750002D02*
D03*
D141*
X2000002Y3799998D02*
D03*
D142*
X1750000D02*
D03*
D143*
X2249999D02*
D03*
D144*
X2500001D02*
D03*
D145*
X2749998D02*
D03*
D146*
X3000000D02*
D03*
D147*
X3250002D02*
D03*
D148*
X450003Y3550002D02*
D03*
D149*
X3550002D02*
D03*
D150*
Y450003D02*
D03*
D151*
X450003D02*
D03*
D152*
X472060Y799720D02*
D03*
X1422020Y474600D02*
D03*
X1180720Y2659838D02*
D03*
X1335660Y3172080D02*
D03*
X380178Y2749998D02*
D03*
X3448940Y2093916D02*
D03*
X2572640Y1444880D02*
D03*
X24802Y500000D02*
D03*
X1676020Y2161160D02*
D03*
X1975740Y3253360D02*
D03*
X1899540Y997840D02*
D03*
X1658240Y375540D02*
D03*
X1277240Y2321180D02*
D03*
X931800Y1411860D02*
D03*
X2029080Y459360D02*
D03*
X2074800Y1264337D02*
D03*
X2239900Y2440560D02*
D03*
X1758910Y3334640D02*
D03*
X1869060Y860680D02*
D03*
X388240Y2303400D02*
D03*
X1239140Y2737740D02*
D03*
X1952880Y2427860D02*
D03*
X1945260Y459360D02*
D03*
X3634360Y1711580D02*
D03*
X12320Y2501520D02*
D03*
X2006220Y2104726D02*
D03*
X3690240Y1279998D02*
D03*
X3466502Y1272160D02*
D03*
X2643760Y450003D02*
D03*
X2178940Y2115440D02*
D03*
X378080Y1942720D02*
D03*
X1452500Y2768936D02*
D03*
X3166177Y2552320D02*
D03*
X1401700Y2791080D02*
D03*
X1750158Y1744122D02*
D03*
X2778380Y2176400D02*
D03*
X2127302Y909062D02*
D03*
X3494660Y1871600D02*
D03*
X1597280Y1300100D02*
D03*
X1546480Y1533780D02*
D03*
X1460120Y2610740D02*
D03*
X1513460Y2504060D02*
D03*
X1869060Y1241680D02*
D03*
X1670940Y1640460D02*
D03*
X3220340Y1127380D02*
D03*
X1780160Y1907160D02*
D03*
X2650064Y3206080D02*
D03*
X3428620Y1399160D02*
D03*
X1701420Y1942720D02*
D03*
X493884Y2034160D02*
D03*
X1028320Y1803020D02*
D03*
X2847554Y2234104D02*
D03*
X634620Y2801240D02*
D03*
X1264540Y2140840D02*
D03*
X1886840Y3149220D02*
D03*
X2006220Y2257680D02*
D03*
X2005666Y2104726D02*
D03*
X2267840Y3182240D02*
D03*
X2697100Y1541400D02*
D03*
X2148460Y2018920D02*
D03*
X2156080Y2252600D02*
D03*
X2095120Y2415160D02*
D03*
X1350900Y2384680D02*
D03*
X2191640Y1218820D02*
D03*
X1743762Y3260142D02*
D03*
X1086740Y1170560D02*
D03*
X1234060Y347600D02*
D03*
X464440Y1061340D02*
D03*
X362840Y2923160D02*
D03*
X-168020Y3685160D02*
D03*
X820040Y3070480D02*
D03*
X1790320Y431420D02*
D03*
X1747140Y1195960D02*
D03*
X672720Y2468500D02*
D03*
X1766190Y3064130D02*
D03*
X1666673Y1244322D02*
D03*
X-86740Y3743580D02*
D03*
X2836800Y566040D02*
D03*
X2006962Y842900D02*
D03*
X139320Y2257680D02*
D03*
X27560Y3570860D02*
D03*
X395860Y3939160D02*
D03*
X2849200Y1694120D02*
D03*
X1193420Y2051940D02*
D03*
X1604900Y972440D02*
D03*
X2742820Y591440D02*
D03*
X1137540Y900797D02*
D03*
X1510920Y2686940D02*
D03*
X3159380Y2630201D02*
D03*
X1098424Y2223075D02*
D03*
X3448940Y2244980D02*
D03*
X3159380Y2951100D02*
D03*
X3045080Y1541400D02*
D03*
X3078100Y1510920D02*
D03*
X1081660Y748920D02*
D03*
X3065400Y1747140D02*
D03*
X2267840Y1965580D02*
D03*
X2679320Y2491360D02*
D03*
X2129898Y3150002D02*
D03*
X2834260Y3040000D02*
D03*
X3019680Y1904620D02*
D03*
X2234820Y914020D02*
D03*
X2907920Y1836040D02*
D03*
X1876680Y3847720D02*
D03*
X2778380Y2034160D02*
D03*
X1742060Y2826640D02*
D03*
X4700Y3647060D02*
D03*
X1582040Y1206958D02*
D03*
X736997Y1345043D02*
D03*
X1871600Y433960D02*
D03*
X625004Y1437260D02*
D03*
X1691260Y1145160D02*
D03*
X2219580Y1703960D02*
D03*
X1289940Y1681100D02*
D03*
X-228980Y1900800D02*
D03*
X901320Y3255900D02*
D03*
X9780Y931800D02*
D03*
X197740Y3250820D02*
D03*
X309500Y858140D02*
D03*
Y2981580D02*
D03*
X2542160Y2671700D02*
D03*
X1922400Y1584580D02*
D03*
X-104520Y1617600D02*
D03*
X1222899Y3169540D02*
D03*
X1803020Y2877333D02*
D03*
X3245740Y944500D02*
D03*
X3874019Y2656724D02*
D03*
X3119238Y2247022D02*
D03*
X505080Y2123060D02*
D03*
X944500Y578740D02*
D03*
X886080Y1533780D02*
D03*
X1150001Y337440D02*
D03*
X1985900Y1188340D02*
D03*
X3774060Y634620D02*
D03*
X1414400Y797180D02*
D03*
X3050003Y2331000D02*
D03*
X1678560Y997840D02*
D03*
X3281300Y1269620D02*
D03*
X2918080Y3215260D02*
D03*
X2211960Y746380D02*
D03*
X3235580Y416180D02*
D03*
X850002Y875001D02*
D03*
X750002D02*
D03*
X650002D02*
D03*
X850002Y975000D02*
D03*
X750002D02*
D03*
X650002D02*
D03*
X850002Y1075000D02*
D03*
X750002D02*
D03*
X650002D02*
D03*
%TF.MD5,a643cdb2a4951735e7edd810306c20fa*%
M02*
