%TF.GenerationSoftware,Altium Limited,Altium Designer,23.4.1 (23)*%
G04 Layer_Color=128*
%FSLAX45Y45*%
%MOMM*%
%TF.SameCoordinates,C9BBA984-B0C4-4836-938B-120E292B3470*%
%TF.FilePolarity,Positive*%
%TF.FileFunction,Paste,Bot*%
%TF.Part,Single*%
G01*
G75*
%TA.AperFunction,SMDPad,CuDef*%
%ADD24R,1.55000X0.60000*%
%ADD25R,1.80000X1.20000*%
%ADD33R,0.75000X1.00000*%
%ADD34R,1.10000X2.05000*%
%ADD49R,0.70000X1.30000*%
%ADD50R,0.50000X0.40000*%
%ADD51R,0.40000X0.50000*%
%ADD78R,1.68000X0.80000*%
%ADD79R,1.30000X1.29000*%
%ADD80R,1.40000X1.29000*%
%ADD81R,1.50000X1.60000*%
%ADD82R,1.70000X1.50000*%
%ADD83R,1.50000X1.70000*%
%ADD84R,0.85000X0.70000*%
%ADD85R,1.00000X0.75000*%
%ADD86R,1.40000X0.38000*%
%ADD87R,2.40000X1.90000*%
D24*
X4805003Y300000D02*
D03*
Y400000D02*
D03*
Y500000D02*
D03*
Y700004D02*
D03*
Y800004D02*
D03*
Y600000D02*
D03*
X4805002Y4150001D02*
D03*
Y3950001D02*
D03*
Y4050001D02*
D03*
Y1250001D02*
D03*
Y1350001D02*
D03*
Y1450001D02*
D03*
Y1650000D02*
D03*
Y1750000D02*
D03*
Y1550000D02*
D03*
D25*
X5192500Y170003D02*
D03*
Y930001D02*
D03*
X5192500Y3820004D02*
D03*
Y4280003D02*
D03*
Y1119999D02*
D03*
Y1880002D02*
D03*
D33*
X2574999Y1549994D02*
D03*
X2725002D02*
D03*
X2574999Y1399997D02*
D03*
X2724997D02*
D03*
D34*
X2384997Y550001D02*
D03*
X2714994D02*
D03*
D49*
X2479988Y849996D02*
D03*
X2669990D02*
D03*
D50*
X2299999Y1259997D02*
D03*
Y1339997D02*
D03*
X2300004Y985002D02*
D03*
Y1065001D02*
D03*
X1400001Y910000D02*
D03*
Y990000D02*
D03*
D51*
X2410001Y1150000D02*
D03*
X2490001D02*
D03*
D78*
X3724001Y3114997D02*
D03*
Y3005000D02*
D03*
Y2894997D02*
D03*
Y2785000D02*
D03*
Y2674998D02*
D03*
Y2454998D02*
D03*
Y2345001D02*
D03*
Y2565000D02*
D03*
D79*
X3879998Y2139500D02*
D03*
D80*
X4619996D02*
D03*
D81*
X3714999Y2204000D02*
D03*
D82*
X5200000Y2150000D02*
D03*
Y3500000D02*
D03*
D83*
X3714999Y3469997D02*
D03*
D84*
X2650001Y1162502D02*
D03*
Y1037503D02*
D03*
X3025001Y537499D02*
D03*
Y412501D02*
D03*
D85*
X1375002Y1499997D02*
D03*
Y1649999D02*
D03*
D86*
X2092999Y1102502D02*
D03*
Y1362501D02*
D03*
Y1297503D02*
D03*
X1556998Y777504D02*
D03*
Y842503D02*
D03*
Y1557502D02*
D03*
Y1622501D02*
D03*
X2092999D02*
D03*
Y1557502D02*
D03*
Y842503D02*
D03*
Y777504D02*
D03*
Y907501D02*
D03*
Y972500D02*
D03*
Y1037503D02*
D03*
Y1167501D02*
D03*
Y1232504D02*
D03*
Y1427500D02*
D03*
Y1492504D02*
D03*
X1556998D02*
D03*
Y1427500D02*
D03*
Y1362501D02*
D03*
Y1297503D02*
D03*
Y1232504D02*
D03*
Y1167501D02*
D03*
Y1102502D02*
D03*
Y1037503D02*
D03*
Y972500D02*
D03*
Y907501D02*
D03*
D87*
X1100011Y1095004D02*
D03*
Y1505006D02*
D03*
%TF.MD5,2ebea022d0894f2fc057445ede6c99f8*%
M02*
