%TF.GenerationSoftware,Altium Limited,Altium Designer,23.4.1 (23)*%
G04 Layer_Physical_Order=8*
G04 Layer_Color=16711680*
%FSLAX45Y45*%
%MOMM*%
%TF.SameCoordinates,2ABB9494-C5B4-4C01-9411-B7C80C6C87EF*%
%TF.FilePolarity,Positive*%
%TF.FileFunction,Copper,L8,Bot,Signal*%
%TF.Part,Single*%
G01*
G75*
%TA.AperFunction,SMDPad,CuDef*%
G04:AMPARAMS|DCode=11|XSize=0.73107mm|YSize=0.30247mm|CornerRadius=0.15124mm|HoleSize=0mm|Usage=FLASHONLY|Rotation=90.000|XOffset=0mm|YOffset=0mm|HoleType=Round|Shape=RoundedRectangle|*
%AMROUNDEDRECTD11*
21,1,0.73107,0.00000,0,0,90.0*
21,1,0.42859,0.30247,0,0,90.0*
1,1,0.30247,0.00000,0.21430*
1,1,0.30247,0.00000,-0.21430*
1,1,0.30247,0.00000,-0.21430*
1,1,0.30247,0.00000,0.21430*
%
%ADD11ROUNDEDRECTD11*%
%ADD12R,0.30247X0.73107*%
%ADD13R,2.50000X1.75000*%
%ADD16R,1.01213X1.20840*%
%ADD27R,0.95000X0.80000*%
%ADD29R,0.95000X0.85000*%
%ADD36R,0.85000X0.70000*%
%ADD39R,0.50000X0.40000*%
%TA.AperFunction,Conductor*%
%ADD46C,0.15000*%
%TA.AperFunction,ViaPad*%
G04:AMPARAMS|DCode=47|XSize=1.524mm|YSize=2mm|CornerRadius=0.381mm|HoleSize=0mm|Usage=FLASHONLY|Rotation=0.000|XOffset=0mm|YOffset=0mm|HoleType=Round|Shape=RoundedRectangle|*
%AMROUNDEDRECTD47*
21,1,1.52400,1.23800,0,0,0.0*
21,1,0.76200,2.00000,0,0,0.0*
1,1,0.76200,0.38100,-0.61900*
1,1,0.76200,-0.38100,-0.61900*
1,1,0.76200,-0.38100,0.61900*
1,1,0.76200,0.38100,0.61900*
%
%ADD47ROUNDEDRECTD47*%
%TA.AperFunction,ComponentPad*%
%ADD48C,1.45000*%
%ADD49C,0.75000*%
%TA.AperFunction,ViaPad*%
%ADD50C,1.52400*%
%ADD51C,0.60000*%
%ADD52C,0.50000*%
%TA.AperFunction,SMDPad,CuDef*%
%ADD54R,0.56818X0.57247*%
%ADD55R,2.05000X1.10000*%
%ADD56R,2.10000X0.90000*%
%ADD57R,2.10000X3.20000*%
%ADD58R,1.00000X0.75000*%
%ADD59R,0.38000X1.40000*%
%ADD60R,1.45000X0.95000*%
%ADD61R,0.91213X0.95872*%
%ADD62R,1.30000X0.70000*%
G04:AMPARAMS|DCode=63|XSize=1.9mm|YSize=3.2mm|CornerRadius=0mm|HoleSize=0mm|Usage=FLASHONLY|Rotation=90.000|XOffset=0mm|YOffset=0mm|HoleType=Round|Shape=Octagon|*
%AMOCTAGOND63*
4,1,8,-1.60000,-0.47500,-1.60000,0.47500,-1.12500,0.95000,1.12500,0.95000,1.60000,0.47500,1.60000,-0.47500,1.12500,-0.95000,-1.12500,-0.95000,-1.60000,-0.47500,0.0*
%
%ADD63OCTAGOND63*%

%ADD64R,1.50000X1.70000*%
%ADD65R,1.68000X0.80000*%
%ADD66R,1.50000X1.60000*%
%ADD67R,1.30000X1.29000*%
%ADD68R,1.40000X1.29000*%
%ADD69R,1.70000X1.50000*%
%TA.AperFunction,NonConductor*%
%ADD70C,0.15000*%
G36*
X2776754Y162221D02*
X2764793D01*
Y175941D01*
X2776754D01*
Y162221D01*
D02*
G37*
G36*
X2531134Y176222D02*
X2533527Y176011D01*
X2535778Y175659D01*
X2537889Y175167D01*
X2539859Y174604D01*
X2541688Y173971D01*
X2543306Y173337D01*
X2544854Y172704D01*
X2546191Y172001D01*
X2547387Y171367D01*
X2548372Y170734D01*
X2549216Y170171D01*
X2549850Y169749D01*
X2550342Y169327D01*
X2550624Y169116D01*
X2550694Y169046D01*
X2552171Y167638D01*
X2553438Y166091D01*
X2554634Y164472D01*
X2555619Y162784D01*
X2556534Y161025D01*
X2557308Y159266D01*
X2557941Y157577D01*
X2558504Y155889D01*
X2558926Y154341D01*
X2559278Y152863D01*
X2559559Y151526D01*
X2559770Y150401D01*
X2559981Y149486D01*
X2560052Y148783D01*
Y148501D01*
X2560122Y148290D01*
Y148220D01*
Y148149D01*
X2547809Y146883D01*
X2547739Y148571D01*
X2547598Y150119D01*
X2547317Y151597D01*
X2547035Y153004D01*
X2546613Y154270D01*
X2546191Y155396D01*
X2545698Y156522D01*
X2545206Y157437D01*
X2544784Y158281D01*
X2544291Y159055D01*
X2543869Y159688D01*
X2543447Y160251D01*
X2543166Y160603D01*
X2542884Y160954D01*
X2542743Y161095D01*
X2542673Y161166D01*
X2541688Y162080D01*
X2540562Y162854D01*
X2539437Y163558D01*
X2538311Y164191D01*
X2537115Y164683D01*
X2535989Y165106D01*
X2534863Y165457D01*
X2533808Y165739D01*
X2532753Y165950D01*
X2531838Y166091D01*
X2530994Y166231D01*
X2530220Y166302D01*
X2529657Y166372D01*
X2528813D01*
X2527335Y166302D01*
X2525928Y166161D01*
X2524591Y165950D01*
X2523325Y165598D01*
X2522199Y165246D01*
X2521073Y164824D01*
X2520088Y164402D01*
X2519174Y163910D01*
X2518400Y163487D01*
X2517696Y162995D01*
X2517063Y162573D01*
X2516570Y162221D01*
X2516148Y161869D01*
X2515867Y161658D01*
X2515726Y161517D01*
X2515656Y161447D01*
X2514741Y160532D01*
X2513967Y159547D01*
X2513263Y158562D01*
X2512701Y157507D01*
X2512208Y156522D01*
X2511786Y155537D01*
X2511434Y154552D01*
X2511153Y153637D01*
X2510942Y152793D01*
X2510801Y152019D01*
X2510660Y151315D01*
X2510590Y150682D01*
X2510519Y150190D01*
Y149838D01*
Y149556D01*
Y149486D01*
X2510590Y148220D01*
X2510731Y146953D01*
X2511012Y145687D01*
X2511364Y144420D01*
X2512278Y141958D01*
X2512841Y140832D01*
X2513334Y139777D01*
X2513826Y138792D01*
X2514389Y137877D01*
X2514811Y137103D01*
X2515233Y136400D01*
X2515656Y135907D01*
X2515937Y135485D01*
X2516078Y135203D01*
X2516148Y135133D01*
X2517274Y133656D01*
X2518681Y132037D01*
X2520159Y130419D01*
X2521847Y128731D01*
X2523536Y126972D01*
X2525365Y125283D01*
X2527124Y123594D01*
X2528953Y121976D01*
X2530642Y120428D01*
X2532260Y119021D01*
X2533667Y117684D01*
X2535004Y116629D01*
X2536059Y115714D01*
X2536482Y115362D01*
X2536833Y115011D01*
X2537115Y114800D01*
X2537326Y114589D01*
X2537467Y114518D01*
X2537537Y114448D01*
X2539366Y112900D01*
X2541125Y111422D01*
X2542743Y110015D01*
X2544291Y108678D01*
X2545698Y107342D01*
X2546965Y106146D01*
X2548091Y105020D01*
X2549146Y103964D01*
X2550131Y103050D01*
X2550905Y102206D01*
X2551609Y101502D01*
X2552171Y100869D01*
X2552594Y100376D01*
X2552875Y100024D01*
X2553086Y99813D01*
X2553156Y99743D01*
X2555056Y97351D01*
X2556674Y95029D01*
X2558011Y92848D01*
X2558644Y91863D01*
X2559137Y90878D01*
X2559559Y90034D01*
X2559981Y89260D01*
X2560333Y88556D01*
X2560544Y87923D01*
X2560755Y87430D01*
X2560896Y87079D01*
X2561037Y86867D01*
Y86797D01*
X2561529Y85320D01*
X2561881Y83842D01*
X2562092Y82435D01*
X2562233Y81239D01*
X2562303Y80113D01*
X2562373Y79691D01*
Y79269D01*
Y78987D01*
Y78776D01*
Y78636D01*
Y78565D01*
X2498066D01*
Y90034D01*
X2545769D01*
X2544995Y91230D01*
X2544151Y92426D01*
X2543306Y93481D01*
X2542532Y94466D01*
X2541829Y95240D01*
X2541266Y95873D01*
X2540914Y96295D01*
X2540773Y96436D01*
X2540140Y97140D01*
X2539296Y97914D01*
X2538381Y98758D01*
X2537326Y99743D01*
X2536200Y100728D01*
X2535074Y101783D01*
X2532682Y103824D01*
X2531557Y104809D01*
X2530501Y105723D01*
X2529587Y106568D01*
X2528672Y107271D01*
X2527968Y107905D01*
X2527476Y108327D01*
X2527124Y108678D01*
X2526983Y108749D01*
X2524661Y110719D01*
X2522480Y112619D01*
X2520510Y114377D01*
X2518681Y115996D01*
X2516992Y117544D01*
X2515515Y118951D01*
X2514108Y120217D01*
X2512912Y121343D01*
X2511856Y122398D01*
X2511012Y123313D01*
X2510238Y124087D01*
X2509605Y124720D01*
X2509112Y125213D01*
X2508831Y125564D01*
X2508620Y125775D01*
X2508549Y125846D01*
X2507564Y127042D01*
X2506579Y128168D01*
X2505735Y129293D01*
X2504961Y130349D01*
X2503554Y132389D01*
X2502991Y133304D01*
X2502499Y134148D01*
X2502006Y134922D01*
X2501654Y135626D01*
X2501303Y136259D01*
X2501092Y136751D01*
X2500880Y137173D01*
X2500740Y137455D01*
X2500599Y137666D01*
Y137736D01*
X2499825Y139847D01*
X2499192Y141887D01*
X2498770Y143857D01*
X2498488Y145616D01*
X2498418Y146390D01*
X2498348Y147094D01*
X2498277Y147657D01*
X2498207Y148220D01*
Y148642D01*
Y148923D01*
Y149134D01*
Y149205D01*
X2498277Y151315D01*
X2498559Y153356D01*
X2498981Y155255D01*
X2499473Y157085D01*
X2500107Y158773D01*
X2500810Y160392D01*
X2501584Y161869D01*
X2502288Y163206D01*
X2503062Y164402D01*
X2503835Y165457D01*
X2504539Y166372D01*
X2505172Y167076D01*
X2505665Y167709D01*
X2506087Y168131D01*
X2506368Y168412D01*
X2506439Y168483D01*
X2508057Y169890D01*
X2509746Y171086D01*
X2511505Y172071D01*
X2513334Y172986D01*
X2515163Y173760D01*
X2517063Y174393D01*
X2518822Y174885D01*
X2520581Y175307D01*
X2522199Y175659D01*
X2523747Y175870D01*
X2525084Y176081D01*
X2526280Y176152D01*
X2527265Y176222D01*
X2527968Y176293D01*
X2528601D01*
X2531134Y176222D01*
D02*
G37*
G36*
X2671006Y78565D02*
X2659045D01*
Y117121D01*
Y118669D01*
X2658975Y120076D01*
X2658834Y121413D01*
X2658764Y122680D01*
X2658553Y123805D01*
X2658412Y124861D01*
X2658271Y125846D01*
X2658060Y126760D01*
X2657849Y127534D01*
X2657708Y128238D01*
X2657497Y128801D01*
X2657357Y129293D01*
X2657286Y129645D01*
X2657146Y129927D01*
X2657075Y130067D01*
Y130138D01*
X2656231Y131826D01*
X2655176Y133304D01*
X2654120Y134570D01*
X2652994Y135626D01*
X2652009Y136470D01*
X2651235Y137103D01*
X2650884Y137314D01*
X2650673Y137455D01*
X2650532Y137596D01*
X2650462D01*
X2648703Y138510D01*
X2646873Y139214D01*
X2645185Y139706D01*
X2643637Y140058D01*
X2642933Y140199D01*
X2642370Y140269D01*
X2641808Y140340D01*
X2641315D01*
X2640893Y140410D01*
X2640400D01*
X2639134Y140340D01*
X2637867Y140199D01*
X2636742Y140058D01*
X2635686Y139777D01*
X2634701Y139425D01*
X2633787Y139073D01*
X2633013Y138721D01*
X2632239Y138370D01*
X2631606Y137947D01*
X2631043Y137596D01*
X2630550Y137244D01*
X2630128Y136892D01*
X2629847Y136611D01*
X2629636Y136470D01*
X2629495Y136329D01*
X2629425Y136259D01*
X2628721Y135415D01*
X2628088Y134500D01*
X2627595Y133515D01*
X2627173Y132530D01*
X2626469Y130349D01*
X2625977Y128238D01*
X2625836Y127253D01*
X2625696Y126268D01*
X2625625Y125424D01*
X2625555Y124720D01*
X2625484Y124087D01*
Y123665D01*
Y123313D01*
Y123243D01*
Y78565D01*
X2613524D01*
Y123243D01*
Y125142D01*
X2613664Y126901D01*
X2613735Y128519D01*
X2613946Y130067D01*
X2614086Y131474D01*
X2614298Y132811D01*
X2614579Y133937D01*
X2614790Y134992D01*
X2615001Y135907D01*
X2615283Y136751D01*
X2615494Y137455D01*
X2615634Y138018D01*
X2615845Y138440D01*
X2615916Y138721D01*
X2616056Y138932D01*
Y139003D01*
X2616549Y139988D01*
X2617112Y140973D01*
X2618378Y142661D01*
X2619785Y144139D01*
X2621122Y145335D01*
X2622389Y146320D01*
X2622952Y146672D01*
X2623374Y147024D01*
X2623796Y147235D01*
X2624077Y147446D01*
X2624288Y147586D01*
X2624359D01*
X2625484Y148149D01*
X2626610Y148642D01*
X2628932Y149345D01*
X2631183Y149908D01*
X2633294Y150330D01*
X2634279Y150401D01*
X2635194Y150541D01*
X2635968Y150612D01*
X2636601D01*
X2637164Y150682D01*
X2637938D01*
X2640260Y150541D01*
X2642511Y150260D01*
X2644622Y149768D01*
X2646592Y149134D01*
X2648492Y148431D01*
X2650180Y147586D01*
X2651798Y146742D01*
X2653276Y145827D01*
X2654542Y144913D01*
X2655738Y144069D01*
X2656723Y143224D01*
X2657568Y142521D01*
X2658201Y141887D01*
X2658693Y141395D01*
X2658975Y141114D01*
X2659045Y140973D01*
Y175941D01*
X2671006D01*
Y78565D01*
D02*
G37*
G36*
X2722438Y150612D02*
X2724126Y150471D01*
X2725674Y150260D01*
X2727222Y149979D01*
X2728629Y149556D01*
X2729966Y149205D01*
X2731233Y148783D01*
X2732358Y148360D01*
X2733414Y147868D01*
X2734328Y147446D01*
X2735102Y147094D01*
X2735735Y146742D01*
X2736298Y146390D01*
X2736650Y146179D01*
X2736932Y146039D01*
X2737002Y145968D01*
X2738268Y145054D01*
X2739464Y144069D01*
X2740590Y143013D01*
X2741575Y141958D01*
X2742560Y140832D01*
X2743404Y139777D01*
X2744178Y138721D01*
X2744952Y137666D01*
X2745586Y136681D01*
X2746078Y135766D01*
X2746571Y134922D01*
X2746922Y134218D01*
X2747274Y133656D01*
X2747485Y133163D01*
X2747556Y132882D01*
X2747626Y132811D01*
X2748259Y131193D01*
X2748822Y129575D01*
X2749315Y127957D01*
X2749666Y126338D01*
X2750370Y123172D01*
X2750581Y121695D01*
X2750792Y120288D01*
X2750933Y119021D01*
X2751003Y117825D01*
X2751073Y116770D01*
X2751144Y115855D01*
X2751214Y115151D01*
Y114589D01*
Y114307D01*
Y114166D01*
X2751144Y111493D01*
X2750862Y108890D01*
X2750511Y106427D01*
X2749948Y104105D01*
X2749385Y101854D01*
X2748681Y99813D01*
X2747978Y97843D01*
X2747204Y96155D01*
X2746500Y94537D01*
X2745797Y93129D01*
X2745093Y91933D01*
X2744530Y90948D01*
X2743967Y90104D01*
X2743616Y89541D01*
X2743334Y89189D01*
X2743264Y89049D01*
X2741716Y87219D01*
X2740027Y85601D01*
X2738198Y84194D01*
X2736369Y82998D01*
X2734539Y81942D01*
X2732640Y81098D01*
X2730810Y80465D01*
X2729051Y79902D01*
X2727363Y79480D01*
X2725745Y79128D01*
X2724337Y78917D01*
X2723141Y78706D01*
X2722156Y78636D01*
X2721382Y78565D01*
X2720749D01*
X2718638Y78706D01*
X2716528Y78987D01*
X2714628Y79410D01*
X2712799Y80043D01*
X2711040Y80676D01*
X2709422Y81450D01*
X2707944Y82294D01*
X2706607Y83209D01*
X2705411Y84053D01*
X2704356Y84897D01*
X2703441Y85671D01*
X2702667Y86375D01*
X2702034Y86938D01*
X2701612Y87360D01*
X2701330Y87712D01*
X2701260Y87782D01*
Y85671D01*
Y83772D01*
X2701330Y82083D01*
Y80535D01*
X2701401Y79128D01*
X2701471Y77862D01*
X2701541Y76736D01*
X2701682Y75821D01*
X2701753Y74977D01*
X2701823Y74273D01*
X2701893Y73711D01*
X2701964Y73288D01*
X2702034Y72937D01*
Y72726D01*
X2702104Y72585D01*
Y72514D01*
X2702808Y70404D01*
X2703723Y68574D01*
X2704778Y67027D01*
X2705763Y65690D01*
X2706255Y65127D01*
X2706748Y64634D01*
X2707100Y64212D01*
X2707522Y63931D01*
X2707803Y63649D01*
X2708014Y63438D01*
X2708155Y63368D01*
X2708225Y63298D01*
X2709140Y62735D01*
X2710055Y62172D01*
X2712095Y61328D01*
X2714276Y60765D01*
X2716317Y60343D01*
X2717302Y60202D01*
X2718146Y60131D01*
X2718990Y59991D01*
X2719694D01*
X2720257Y59920D01*
X2721031D01*
X2722438Y59991D01*
X2723775Y60061D01*
X2725041Y60202D01*
X2726167Y60483D01*
X2727292Y60694D01*
X2728278Y60976D01*
X2729192Y61328D01*
X2730036Y61609D01*
X2730740Y61961D01*
X2731373Y62242D01*
X2731936Y62524D01*
X2732358Y62805D01*
X2732710Y63016D01*
X2732991Y63157D01*
X2733132Y63227D01*
X2733203Y63298D01*
X2734328Y64353D01*
X2735243Y65549D01*
X2735947Y66815D01*
X2736439Y68082D01*
X2736791Y69208D01*
X2736932Y69700D01*
X2737072Y70193D01*
X2737143Y70544D01*
Y70826D01*
X2737213Y70967D01*
Y71037D01*
X2748822Y72796D01*
X2748752Y70756D01*
X2748611Y68785D01*
X2748259Y66956D01*
X2747767Y65338D01*
X2747204Y63790D01*
X2746571Y62383D01*
X2745937Y61116D01*
X2745163Y59991D01*
X2744460Y59006D01*
X2743827Y58091D01*
X2743123Y57387D01*
X2742560Y56754D01*
X2742068Y56332D01*
X2741716Y55980D01*
X2741434Y55769D01*
X2741364Y55699D01*
X2739816Y54714D01*
X2738268Y53799D01*
X2736580Y53025D01*
X2734891Y52392D01*
X2733203Y51829D01*
X2731444Y51407D01*
X2729825Y50985D01*
X2728207Y50703D01*
X2726730Y50492D01*
X2725322Y50281D01*
X2724126Y50211D01*
X2723071Y50070D01*
X2722156D01*
X2721523Y50000D01*
X2720960D01*
X2718990Y50070D01*
X2717161Y50141D01*
X2715332Y50352D01*
X2713713Y50633D01*
X2712095Y50915D01*
X2710618Y51266D01*
X2709281Y51618D01*
X2708014Y52040D01*
X2706959Y52392D01*
X2705974Y52744D01*
X2705059Y53096D01*
X2704356Y53377D01*
X2703793Y53659D01*
X2703441Y53870D01*
X2703160Y53940D01*
X2703089Y54010D01*
X2701753Y54784D01*
X2700556Y55629D01*
X2699431Y56543D01*
X2698375Y57387D01*
X2697390Y58302D01*
X2696546Y59217D01*
X2695772Y60131D01*
X2695069Y60976D01*
X2694435Y61750D01*
X2693943Y62524D01*
X2693450Y63227D01*
X2693098Y63790D01*
X2692817Y64283D01*
X2692606Y64634D01*
X2692536Y64845D01*
X2692465Y64916D01*
X2691902Y66323D01*
X2691340Y67871D01*
X2690917Y69630D01*
X2690495Y71459D01*
X2690214Y73359D01*
X2689932Y75258D01*
X2689721Y77228D01*
X2689510Y79058D01*
X2689370Y80887D01*
X2689229Y82576D01*
X2689158Y84124D01*
Y85460D01*
X2689088Y86586D01*
Y87008D01*
Y87430D01*
Y87712D01*
Y87923D01*
Y88064D01*
Y88134D01*
Y149134D01*
X2700134D01*
Y140621D01*
X2701682Y142380D01*
X2703371Y143928D01*
X2705059Y145265D01*
X2706748Y146461D01*
X2708507Y147446D01*
X2710195Y148220D01*
X2711884Y148923D01*
X2713502Y149416D01*
X2714980Y149838D01*
X2716387Y150119D01*
X2717583Y150401D01*
X2718638Y150541D01*
X2719553Y150612D01*
X2720186Y150682D01*
X2720749D01*
X2722438Y150612D01*
D02*
G37*
G36*
X1602057Y175096D02*
X1602761Y173900D01*
X1604379Y171579D01*
X1606138Y169397D01*
X1607052Y168342D01*
X1607897Y167357D01*
X1608741Y166513D01*
X1609515Y165668D01*
X1610219Y164965D01*
X1610852Y164332D01*
X1611344Y163839D01*
X1611696Y163487D01*
X1611977Y163276D01*
X1612048Y163206D01*
X1614933Y160814D01*
X1617958Y158633D01*
X1620913Y156663D01*
X1622320Y155818D01*
X1623657Y154974D01*
X1624853Y154270D01*
X1625979Y153637D01*
X1627034Y153074D01*
X1627878Y152652D01*
X1628582Y152300D01*
X1629145Y152019D01*
X1629426Y151878D01*
X1629567Y151808D01*
Y140269D01*
X1627456Y141114D01*
X1625275Y142099D01*
X1623164Y143084D01*
X1621194Y144069D01*
X1620350Y144561D01*
X1619506Y144983D01*
X1618802Y145405D01*
X1618239Y145757D01*
X1617747Y145968D01*
X1617325Y146179D01*
X1617114Y146320D01*
X1617043Y146390D01*
X1614510Y147938D01*
X1613385Y148712D01*
X1612259Y149416D01*
X1611274Y150190D01*
X1610359Y150823D01*
X1609515Y151526D01*
X1608671Y152089D01*
X1608037Y152652D01*
X1607404Y153145D01*
X1606841Y153637D01*
X1606419Y153989D01*
X1606067Y154270D01*
X1605856Y154482D01*
X1605716Y154622D01*
X1605645Y154693D01*
Y78565D01*
X1593684D01*
Y176293D01*
X1601424D01*
X1602057Y175096D01*
D02*
G37*
G36*
X2044046Y150541D02*
X2046438Y150190D01*
X2047564Y149979D01*
X2048619Y149697D01*
X2049534Y149416D01*
X2050449Y149134D01*
X2051222Y148783D01*
X2051996Y148501D01*
X2052630Y148220D01*
X2053122Y148009D01*
X2053544Y147798D01*
X2053826Y147657D01*
X2054037Y147586D01*
X2054107Y147516D01*
X2056077Y146250D01*
X2057766Y144842D01*
X2059314Y143506D01*
X2060580Y142169D01*
X2061565Y140973D01*
X2061987Y140480D01*
X2062269Y139988D01*
X2062550Y139636D01*
X2062761Y139355D01*
X2062832Y139214D01*
X2062902Y139143D01*
Y149134D01*
X2073596D01*
Y78565D01*
X2061635D01*
Y115151D01*
Y116910D01*
X2061565Y118529D01*
X2061424Y120076D01*
X2061354Y121484D01*
X2061213Y122820D01*
X2061002Y124017D01*
X2060862Y125142D01*
X2060650Y126127D01*
X2060510Y126972D01*
X2060369Y127745D01*
X2060158Y128379D01*
X2060017Y128942D01*
X2059877Y129293D01*
X2059806Y129645D01*
X2059736Y129786D01*
Y129856D01*
X2058891Y131686D01*
X2057906Y133233D01*
X2056921Y134570D01*
X2055866Y135696D01*
X2054951Y136540D01*
X2054178Y137173D01*
X2053896Y137385D01*
X2053685Y137525D01*
X2053544Y137666D01*
X2053474D01*
X2051856Y138581D01*
X2050237Y139214D01*
X2048619Y139706D01*
X2047212Y139988D01*
X2046016Y140199D01*
X2045453Y140269D01*
X2045031D01*
X2044679Y140340D01*
X2044187D01*
X2042991Y140269D01*
X2041865Y140199D01*
X2040809Y139988D01*
X2039895Y139706D01*
X2038980Y139425D01*
X2038206Y139073D01*
X2037503Y138721D01*
X2036869Y138370D01*
X2036377Y137947D01*
X2035884Y137596D01*
X2035462Y137244D01*
X2035181Y136962D01*
X2034899Y136681D01*
X2034759Y136470D01*
X2034618Y136400D01*
Y136329D01*
X2034125Y135555D01*
X2033633Y134641D01*
X2032929Y132741D01*
X2032367Y130771D01*
X2032015Y128871D01*
X2031874Y127957D01*
X2031804Y127112D01*
X2031733Y126338D01*
Y125705D01*
X2031663Y125142D01*
Y124720D01*
Y124439D01*
Y124368D01*
Y78565D01*
X2019702D01*
Y119514D01*
X2019632Y121484D01*
X2019491Y123313D01*
X2019280Y125002D01*
X2018928Y126620D01*
X2018576Y128027D01*
X2018154Y129293D01*
X2017662Y130489D01*
X2017240Y131545D01*
X2016747Y132459D01*
X2016325Y133233D01*
X2015903Y133867D01*
X2015551Y134429D01*
X2015199Y134852D01*
X2014988Y135133D01*
X2014847Y135274D01*
X2014777Y135344D01*
X2013792Y136259D01*
X2012807Y136962D01*
X2011822Y137666D01*
X2010767Y138229D01*
X2009711Y138721D01*
X2008726Y139143D01*
X2007741Y139425D01*
X2006756Y139706D01*
X2005912Y139917D01*
X2005068Y140058D01*
X2004294Y140199D01*
X2003660Y140269D01*
X2003168Y140340D01*
X2002464D01*
X2000987Y140269D01*
X1999580Y140058D01*
X1998384Y139706D01*
X1997328Y139355D01*
X1996484Y139003D01*
X1995851Y138651D01*
X1995429Y138440D01*
X1995288Y138370D01*
X1994232Y137596D01*
X1993318Y136751D01*
X1992614Y135907D01*
X1991981Y135133D01*
X1991559Y134429D01*
X1991277Y133796D01*
X1991137Y133444D01*
X1991066Y133374D01*
Y133304D01*
X1990855Y132671D01*
X1990644Y131967D01*
X1990363Y130349D01*
X1990152Y128660D01*
X1990011Y126972D01*
X1989941Y125424D01*
X1989870Y124720D01*
Y124157D01*
Y123665D01*
Y123313D01*
Y123032D01*
Y122961D01*
Y78565D01*
X1977909D01*
Y126972D01*
X1977980Y129153D01*
X1978121Y131193D01*
X1978402Y133093D01*
X1978824Y134852D01*
X1979246Y136470D01*
X1979739Y137947D01*
X1980231Y139214D01*
X1980724Y140410D01*
X1981287Y141465D01*
X1981779Y142380D01*
X1982272Y143154D01*
X1982694Y143717D01*
X1983046Y144209D01*
X1983327Y144561D01*
X1983538Y144772D01*
X1983608Y144842D01*
X1984734Y145898D01*
X1985930Y146742D01*
X1987197Y147586D01*
X1988463Y148220D01*
X1989870Y148783D01*
X1991207Y149275D01*
X1992474Y149627D01*
X1993740Y149979D01*
X1995006Y150190D01*
X1996132Y150401D01*
X1997117Y150471D01*
X1997961Y150612D01*
X1998735D01*
X1999228Y150682D01*
X2000987D01*
X2002183Y150541D01*
X2004505Y150119D01*
X2006756Y149556D01*
X2008797Y148783D01*
X2010767Y147798D01*
X2012526Y146742D01*
X2014214Y145616D01*
X2015692Y144491D01*
X2017028Y143365D01*
X2018225Y142239D01*
X2019210Y141184D01*
X2020054Y140269D01*
X2020757Y139425D01*
X2021180Y138862D01*
X2021531Y138440D01*
X2021602Y138370D01*
Y138299D01*
X2022516Y140340D01*
X2023572Y142169D01*
X2024697Y143717D01*
X2025894Y145054D01*
X2026949Y146039D01*
X2027441Y146461D01*
X2027793Y146813D01*
X2028145Y147024D01*
X2028426Y147235D01*
X2028567Y147305D01*
X2028638Y147375D01*
X2029623Y147938D01*
X2030608Y148501D01*
X2032789Y149275D01*
X2034899Y149908D01*
X2036940Y150260D01*
X2037854Y150401D01*
X2038769Y150541D01*
X2039543Y150612D01*
X2040176D01*
X2040739Y150682D01*
X2042780D01*
X2044046Y150541D01*
D02*
G37*
G36*
X2969465D02*
X2971013Y150471D01*
X2972490Y150260D01*
X2973897Y150119D01*
X2975234Y149908D01*
X2976501Y149627D01*
X2977626Y149416D01*
X2978611Y149205D01*
X2979526Y148923D01*
X2980300Y148712D01*
X2981003Y148571D01*
X2981496Y148360D01*
X2981918Y148290D01*
X2982129Y148149D01*
X2982200D01*
X2983466Y147657D01*
X2984662Y147164D01*
X2985717Y146601D01*
X2986773Y145968D01*
X2987687Y145405D01*
X2988532Y144842D01*
X2989376Y144209D01*
X2990080Y143646D01*
X2990713Y143154D01*
X2991205Y142661D01*
X2991698Y142169D01*
X2992050Y141817D01*
X2992401Y141465D01*
X2992613Y141254D01*
X2992683Y141114D01*
X2992753Y141043D01*
X2994020Y139214D01*
X2995075Y137173D01*
X2995990Y135203D01*
X2996693Y133233D01*
X2997045Y132389D01*
X2997256Y131545D01*
X2997467Y130841D01*
X2997678Y130208D01*
X2997819Y129645D01*
X2997889Y129293D01*
X2997960Y129012D01*
Y128942D01*
X2986280Y127323D01*
X2985928Y128660D01*
X2985506Y129927D01*
X2985014Y131052D01*
X2984521Y132108D01*
X2984099Y133022D01*
X2983607Y133867D01*
X2983114Y134641D01*
X2982622Y135344D01*
X2982129Y135907D01*
X2981707Y136400D01*
X2981355Y136822D01*
X2981003Y137173D01*
X2980722Y137385D01*
X2980511Y137596D01*
X2980441Y137736D01*
X2980370D01*
X2979596Y138299D01*
X2978682Y138721D01*
X2976712Y139495D01*
X2974671Y140058D01*
X2972631Y140410D01*
X2971716Y140480D01*
X2970802Y140621D01*
X2970028Y140691D01*
X2969324D01*
X2968691Y140762D01*
X2967917D01*
X2966299Y140691D01*
X2964751Y140621D01*
X2963344Y140410D01*
X2962007Y140128D01*
X2960740Y139847D01*
X2959685Y139495D01*
X2958630Y139073D01*
X2957715Y138721D01*
X2956941Y138370D01*
X2956237Y137947D01*
X2955675Y137596D01*
X2955182Y137314D01*
X2954830Y137033D01*
X2954549Y136892D01*
X2954408Y136751D01*
X2954338Y136681D01*
X2953705Y136048D01*
X2953212Y135415D01*
X2952720Y134641D01*
X2952368Y133867D01*
X2951735Y132108D01*
X2951312Y130419D01*
X2951101Y128871D01*
X2950961Y128168D01*
Y127605D01*
X2950890Y127112D01*
Y126760D01*
Y126479D01*
Y126409D01*
Y126057D01*
Y125635D01*
Y124579D01*
X2950961Y124087D01*
Y123735D01*
Y123454D01*
Y123313D01*
X2952368Y122891D01*
X2953845Y122469D01*
X2955463Y122046D01*
X2957222Y121624D01*
X2960740Y120921D01*
X2962499Y120639D01*
X2964188Y120358D01*
X2965806Y120076D01*
X2967354Y119865D01*
X2968691Y119654D01*
X2969887Y119443D01*
X2970872Y119373D01*
X2971646Y119232D01*
X2971927D01*
X2972138Y119162D01*
X2972279D01*
X2973545Y119021D01*
X2974742Y118880D01*
X2975867Y118669D01*
X2976923Y118529D01*
X2977908Y118388D01*
X2978752Y118247D01*
X2979526Y118106D01*
X2980229Y117966D01*
X2980863Y117825D01*
X2981426Y117755D01*
X2981848Y117614D01*
X2982270Y117544D01*
X2982551Y117473D01*
X2982762D01*
X2982833Y117403D01*
X2982903D01*
X2984662Y116840D01*
X2986280Y116207D01*
X2987758Y115574D01*
X2989024Y114940D01*
X2990080Y114377D01*
X2990502Y114096D01*
X2990854Y113885D01*
X2991135Y113744D01*
X2991346Y113604D01*
X2991487Y113463D01*
X2991557D01*
X2992894Y112407D01*
X2994090Y111282D01*
X2995145Y110156D01*
X2996060Y109030D01*
X2996764Y108045D01*
X2997256Y107271D01*
X2997467Y106990D01*
X2997538Y106779D01*
X2997678Y106638D01*
Y106568D01*
X2998452Y104949D01*
X2999015Y103331D01*
X2999437Y101713D01*
X2999719Y100306D01*
X2999859Y99039D01*
X2999930Y98477D01*
Y98054D01*
X3000000Y97632D01*
Y97351D01*
Y97210D01*
Y97140D01*
X2999930Y95522D01*
X2999719Y93974D01*
X2999437Y92566D01*
X2999015Y91159D01*
X2998593Y89893D01*
X2998030Y88697D01*
X2997467Y87571D01*
X2996904Y86586D01*
X2996341Y85671D01*
X2995779Y84897D01*
X2995216Y84264D01*
X2994794Y83701D01*
X2994371Y83209D01*
X2994090Y82927D01*
X2993879Y82716D01*
X2993809Y82646D01*
X2992542Y81661D01*
X2991276Y80817D01*
X2989798Y80043D01*
X2988391Y79410D01*
X2986914Y78847D01*
X2985366Y78425D01*
X2983958Y78002D01*
X2982551Y77721D01*
X2981215Y77510D01*
X2979948Y77299D01*
X2978822Y77158D01*
X2977837Y77088D01*
X2977063D01*
X2976430Y77017D01*
X2975938D01*
X2973334Y77088D01*
X2970942Y77369D01*
X2968691Y77721D01*
X2967635Y77932D01*
X2966721Y78143D01*
X2965876Y78354D01*
X2965103Y78565D01*
X2964399Y78776D01*
X2963836Y78917D01*
X2963414Y79058D01*
X2963062Y79198D01*
X2962851Y79269D01*
X2962781D01*
X2961655Y79761D01*
X2960459Y80254D01*
X2958207Y81520D01*
X2956026Y82857D01*
X2955041Y83490D01*
X2954056Y84124D01*
X2953212Y84757D01*
X2952438Y85390D01*
X2951735Y85882D01*
X2951101Y86375D01*
X2950609Y86727D01*
X2950257Y87008D01*
X2950046Y87219D01*
X2949976Y87290D01*
X2949694Y85460D01*
X2949413Y83842D01*
X2948991Y82365D01*
X2948568Y81028D01*
X2948146Y80043D01*
X2948006Y79550D01*
X2947794Y79198D01*
X2947724Y78917D01*
X2947583Y78706D01*
X2947513Y78636D01*
Y78565D01*
X2935060D01*
X2935834Y80113D01*
X2936537Y81591D01*
X2937030Y82998D01*
X2937452Y84264D01*
X2937804Y85390D01*
X2937874Y85882D01*
X2938015Y86234D01*
X2938085Y86586D01*
Y86797D01*
X2938155Y86938D01*
Y87008D01*
X2938226Y87430D01*
X2938296Y87993D01*
X2938366Y89189D01*
X2938507Y90596D01*
X2938578Y92144D01*
X2938648Y93903D01*
X2938718Y95662D01*
X2938789Y99250D01*
Y100939D01*
Y102628D01*
X2938859Y104105D01*
Y105442D01*
Y106568D01*
Y106990D01*
Y107412D01*
Y107693D01*
Y107905D01*
Y108045D01*
Y108116D01*
Y124017D01*
Y125424D01*
Y126760D01*
X2938929Y127957D01*
Y129082D01*
X2939000Y130067D01*
X2939070Y130982D01*
X2939140Y131756D01*
Y132459D01*
X2939211Y133093D01*
X2939281Y133585D01*
X2939351Y134078D01*
X2939422Y134429D01*
Y134641D01*
X2939492Y134852D01*
Y134992D01*
X2939985Y136751D01*
X2940548Y138370D01*
X2941110Y139706D01*
X2941744Y140902D01*
X2942307Y141887D01*
X2942799Y142591D01*
X2942940Y142802D01*
X2943080Y143013D01*
X2943221Y143084D01*
Y143154D01*
X2944347Y144350D01*
X2945613Y145335D01*
X2947021Y146250D01*
X2948357Y147024D01*
X2949624Y147657D01*
X2950116Y147938D01*
X2950609Y148149D01*
X2950961Y148290D01*
X2951242Y148431D01*
X2951453Y148501D01*
X2951523D01*
X2952579Y148853D01*
X2953775Y149205D01*
X2956167Y149768D01*
X2958630Y150119D01*
X2960951Y150401D01*
X2962007Y150471D01*
X2962992Y150541D01*
X2963906Y150612D01*
X2964680Y150682D01*
X2966158D01*
X2969465Y150541D01*
D02*
G37*
G36*
X2305778Y176222D02*
X2308100Y175870D01*
X2310281Y175448D01*
X2312321Y174885D01*
X2314291Y174182D01*
X2316120Y173408D01*
X2317739Y172634D01*
X2319286Y171790D01*
X2320623Y170945D01*
X2321819Y170101D01*
X2322875Y169327D01*
X2323719Y168623D01*
X2324352Y168061D01*
X2324845Y167638D01*
X2325197Y167287D01*
X2325267Y167216D01*
X2326815Y165457D01*
X2328152Y163628D01*
X2329277Y161658D01*
X2330333Y159688D01*
X2331177Y157718D01*
X2331881Y155748D01*
X2332443Y153778D01*
X2332866Y151949D01*
X2333288Y150190D01*
X2333499Y148571D01*
X2333710Y147094D01*
X2333851Y145827D01*
X2333921Y144772D01*
Y144350D01*
X2333991Y143998D01*
Y143717D01*
Y143506D01*
Y143435D01*
Y143365D01*
X2333921Y140762D01*
X2333639Y138299D01*
X2333217Y135907D01*
X2332725Y133726D01*
X2332092Y131686D01*
X2331388Y129786D01*
X2330614Y128027D01*
X2329840Y126479D01*
X2329066Y125072D01*
X2328292Y123805D01*
X2327589Y122750D01*
X2326955Y121906D01*
X2326463Y121202D01*
X2326041Y120710D01*
X2325759Y120358D01*
X2325689Y120288D01*
X2324071Y118740D01*
X2322382Y117403D01*
X2320694Y116277D01*
X2318935Y115222D01*
X2317246Y114377D01*
X2315557Y113674D01*
X2313869Y113111D01*
X2312321Y112689D01*
X2310843Y112267D01*
X2309507Y112056D01*
X2308240Y111845D01*
X2307255Y111704D01*
X2306411Y111634D01*
X2305778Y111563D01*
X2305215D01*
X2303878Y111634D01*
X2302541Y111704D01*
X2300079Y112126D01*
X2297757Y112689D01*
X2296772Y112970D01*
X2295787Y113322D01*
X2294872Y113674D01*
X2294098Y113955D01*
X2293465Y114237D01*
X2292832Y114518D01*
X2292410Y114729D01*
X2292058Y114940D01*
X2291847Y115011D01*
X2291776Y115081D01*
X2289525Y116488D01*
X2287625Y118036D01*
X2286711Y118810D01*
X2285937Y119584D01*
X2285163Y120288D01*
X2284530Y121061D01*
X2283896Y121695D01*
X2283404Y122328D01*
X2282982Y122891D01*
X2282560Y123383D01*
X2282278Y123805D01*
X2282067Y124087D01*
X2281997Y124298D01*
X2281926Y124368D01*
Y123805D01*
Y123313D01*
Y122891D01*
Y122539D01*
Y122328D01*
Y122117D01*
Y122046D01*
Y121976D01*
X2281997Y119232D01*
X2282208Y116559D01*
X2282489Y114096D01*
X2282700Y112900D01*
X2282841Y111845D01*
X2282982Y110860D01*
X2283193Y110015D01*
X2283334Y109241D01*
X2283474Y108608D01*
X2283615Y108045D01*
X2283685Y107693D01*
X2283756Y107412D01*
Y107342D01*
X2284107Y106075D01*
X2284459Y104809D01*
X2284811Y103683D01*
X2285163Y102557D01*
X2285585Y101572D01*
X2285937Y100658D01*
X2286289Y99813D01*
X2286640Y99039D01*
X2286922Y98336D01*
X2287274Y97703D01*
X2287485Y97210D01*
X2287766Y96788D01*
X2287907Y96436D01*
X2288047Y96225D01*
X2288188Y96084D01*
Y96014D01*
X2289244Y94537D01*
X2290369Y93200D01*
X2291495Y92004D01*
X2292550Y91089D01*
X2293465Y90315D01*
X2294239Y89752D01*
X2294520Y89541D01*
X2294732Y89400D01*
X2294872Y89260D01*
X2294943D01*
X2296561Y88415D01*
X2298179Y87853D01*
X2299868Y87430D01*
X2301345Y87079D01*
X2302682Y86938D01*
X2303245Y86867D01*
X2303737D01*
X2304089Y86797D01*
X2304652D01*
X2305848Y86867D01*
X2306974Y86938D01*
X2309014Y87360D01*
X2310773Y87923D01*
X2311617Y88275D01*
X2312321Y88626D01*
X2312954Y88908D01*
X2313587Y89260D01*
X2314080Y89541D01*
X2314432Y89823D01*
X2314784Y90034D01*
X2314995Y90245D01*
X2315135Y90315D01*
X2315206Y90385D01*
X2315980Y91089D01*
X2316613Y91933D01*
X2317809Y93763D01*
X2318794Y95733D01*
X2319568Y97703D01*
X2319849Y98547D01*
X2320131Y99462D01*
X2320342Y100236D01*
X2320483Y100869D01*
X2320623Y101432D01*
X2320694Y101854D01*
X2320764Y102135D01*
Y102206D01*
X2332232Y101150D01*
X2331881Y99039D01*
X2331458Y97069D01*
X2330896Y95240D01*
X2330262Y93481D01*
X2329629Y91863D01*
X2328855Y90456D01*
X2328152Y89119D01*
X2327378Y87923D01*
X2326674Y86797D01*
X2325970Y85882D01*
X2325267Y85109D01*
X2324704Y84475D01*
X2324282Y83912D01*
X2323860Y83561D01*
X2323649Y83350D01*
X2323578Y83279D01*
X2322171Y82154D01*
X2320694Y81168D01*
X2319146Y80324D01*
X2317598Y79621D01*
X2316050Y78987D01*
X2314502Y78495D01*
X2312954Y78073D01*
X2311477Y77721D01*
X2310140Y77510D01*
X2308873Y77299D01*
X2307748Y77158D01*
X2306763Y77017D01*
X2305989D01*
X2305356Y76947D01*
X2304863D01*
X2302893Y77017D01*
X2300993Y77228D01*
X2299164Y77510D01*
X2297405Y77862D01*
X2295717Y78284D01*
X2294239Y78776D01*
X2292761Y79269D01*
X2291495Y79832D01*
X2290299Y80395D01*
X2289244Y80887D01*
X2288329Y81380D01*
X2287555Y81802D01*
X2286922Y82154D01*
X2286500Y82505D01*
X2286218Y82646D01*
X2286148Y82716D01*
X2284670Y83842D01*
X2283334Y85109D01*
X2282067Y86445D01*
X2280871Y87782D01*
X2279816Y89189D01*
X2278760Y90596D01*
X2277916Y91933D01*
X2277072Y93270D01*
X2276368Y94537D01*
X2275735Y95733D01*
X2275242Y96788D01*
X2274820Y97703D01*
X2274468Y98477D01*
X2274257Y99039D01*
X2274117Y99391D01*
X2274046Y99532D01*
X2273343Y101713D01*
X2272709Y103964D01*
X2272147Y106357D01*
X2271654Y108819D01*
X2271302Y111282D01*
X2270950Y113815D01*
X2270669Y116207D01*
X2270458Y118529D01*
X2270317Y120710D01*
X2270177Y122750D01*
X2270106Y124579D01*
X2270036Y125353D01*
Y126127D01*
Y126831D01*
X2269965Y127464D01*
Y127957D01*
Y128379D01*
Y128731D01*
Y129012D01*
Y129153D01*
Y129223D01*
X2270036Y132459D01*
X2270177Y135555D01*
X2270317Y138370D01*
X2270599Y141043D01*
X2270950Y143506D01*
X2271302Y145687D01*
X2271654Y147727D01*
X2272006Y149556D01*
X2272428Y151175D01*
X2272780Y152582D01*
X2273132Y153778D01*
X2273483Y154763D01*
X2273765Y155537D01*
X2273906Y156100D01*
X2274046Y156381D01*
X2274117Y156522D01*
X2274891Y158281D01*
X2275805Y159899D01*
X2276720Y161377D01*
X2277705Y162784D01*
X2278690Y164121D01*
X2279675Y165317D01*
X2280660Y166442D01*
X2281645Y167427D01*
X2282560Y168272D01*
X2283334Y169046D01*
X2284107Y169679D01*
X2284811Y170242D01*
X2285304Y170594D01*
X2285726Y170945D01*
X2286007Y171086D01*
X2286077Y171156D01*
X2287555Y172071D01*
X2289033Y172845D01*
X2290580Y173549D01*
X2292058Y174111D01*
X2293535Y174604D01*
X2295013Y175026D01*
X2296350Y175378D01*
X2297687Y175659D01*
X2298883Y175870D01*
X2299938Y176011D01*
X2300923Y176152D01*
X2301767Y176222D01*
X2302471Y176293D01*
X2303386D01*
X2305778Y176222D01*
D02*
G37*
G36*
X2907409Y78565D02*
X2895026D01*
X2880603Y132811D01*
X2877788Y120780D01*
X2866601Y78565D01*
X2854218D01*
X2832126Y149134D01*
X2843735D01*
X2855907Y108256D01*
X2859917Y94677D01*
X2863365Y108186D01*
X2873989Y149134D01*
X2886231D01*
X2897488Y107764D01*
X2897770Y106568D01*
X2898122Y105372D01*
X2898614Y103261D01*
X2899107Y101432D01*
X2899529Y99813D01*
X2899881Y98406D01*
X2900162Y97280D01*
X2900444Y96295D01*
X2900655Y95451D01*
X2900795Y94818D01*
X2900936Y94255D01*
X2901077Y93903D01*
X2901147Y93622D01*
Y93411D01*
X2901217Y93270D01*
Y93200D01*
X2905298Y108327D01*
X2916556Y149134D01*
X2928939D01*
X2907409Y78565D01*
D02*
G37*
G36*
X1683883D02*
X1672696D01*
X1645960Y149134D01*
X1658273D01*
X1673963Y106075D01*
X1674948Y103261D01*
X1675440Y101924D01*
X1675863Y100658D01*
X1676214Y99462D01*
X1676566Y98336D01*
X1676918Y97351D01*
X1677199Y96436D01*
X1677481Y95592D01*
X1677762Y94818D01*
X1677903Y94185D01*
X1678114Y93622D01*
X1678255Y93200D01*
X1678325Y92918D01*
X1678395Y92707D01*
Y92637D01*
X1679169Y95381D01*
X1679943Y97984D01*
X1680717Y100376D01*
X1681069Y101502D01*
X1681421Y102487D01*
X1681702Y103472D01*
X1681984Y104316D01*
X1682265Y105020D01*
X1682476Y105653D01*
X1682687Y106146D01*
X1682758Y106568D01*
X1682898Y106779D01*
Y106849D01*
X1698025Y149134D01*
X1710619D01*
X1683883Y78565D01*
D02*
G37*
G36*
X2593120Y166583D02*
Y149134D01*
X2601985D01*
Y139847D01*
X2593120D01*
Y99180D01*
Y97280D01*
X2593049Y95451D01*
X2592979Y93903D01*
X2592909Y92426D01*
X2592768Y91159D01*
X2592698Y89963D01*
X2592557Y88978D01*
X2592416Y88064D01*
X2592275Y87290D01*
X2592135Y86656D01*
X2592064Y86164D01*
X2591924Y85742D01*
X2591853Y85390D01*
X2591783Y85179D01*
X2591713Y85109D01*
Y85038D01*
X2591079Y83842D01*
X2590305Y82787D01*
X2589461Y81872D01*
X2588617Y81098D01*
X2587843Y80535D01*
X2587210Y80043D01*
X2586788Y79761D01*
X2586717Y79691D01*
X2586647D01*
X2585169Y78987D01*
X2583551Y78495D01*
X2581863Y78143D01*
X2580244Y77932D01*
X2578837Y77791D01*
X2578204Y77721D01*
X2577641Y77651D01*
X2576586D01*
X2575038Y77721D01*
X2573490Y77791D01*
X2571942Y78002D01*
X2570535Y78213D01*
X2569339Y78354D01*
X2568776Y78495D01*
X2568354Y78565D01*
X2568002Y78636D01*
X2567721D01*
X2567580Y78706D01*
X2567509D01*
X2569268Y89260D01*
X2570394Y89119D01*
X2571450Y89049D01*
X2572364Y88908D01*
X2573068D01*
X2573701Y88838D01*
X2574475D01*
X2575390Y88908D01*
X2576234Y88978D01*
X2576937Y89119D01*
X2577500Y89260D01*
X2577993Y89400D01*
X2578274Y89541D01*
X2578485Y89682D01*
X2578556D01*
X2579048Y90034D01*
X2579470Y90385D01*
X2580104Y91159D01*
X2580315Y91511D01*
X2580455Y91793D01*
X2580596Y91933D01*
Y92004D01*
X2580666Y92355D01*
X2580807Y92707D01*
X2580948Y93622D01*
X2581018Y94748D01*
X2581089Y95803D01*
X2581159Y96858D01*
Y97703D01*
Y98054D01*
Y98336D01*
Y98477D01*
Y98547D01*
Y139847D01*
X2569268D01*
Y149134D01*
X2581159D01*
Y173760D01*
X2593120Y166583D01*
D02*
G37*
G36*
X1798074Y177559D02*
X1800396Y177348D01*
X1802648Y177066D01*
X1804829Y176715D01*
X1806869Y176293D01*
X1808839Y175730D01*
X1810668Y175237D01*
X1812357Y174674D01*
X1813835Y174111D01*
X1815242Y173619D01*
X1816438Y173126D01*
X1817423Y172634D01*
X1818267Y172282D01*
X1818830Y172001D01*
X1819182Y171790D01*
X1819322Y171719D01*
X1821293Y170523D01*
X1823122Y169257D01*
X1824810Y167920D01*
X1826429Y166513D01*
X1827906Y165106D01*
X1829243Y163698D01*
X1830509Y162221D01*
X1831565Y160884D01*
X1832550Y159618D01*
X1833464Y158351D01*
X1834168Y157296D01*
X1834801Y156381D01*
X1835223Y155537D01*
X1835575Y154974D01*
X1835786Y154622D01*
X1835857Y154482D01*
X1836842Y152300D01*
X1837756Y150119D01*
X1838530Y147868D01*
X1839163Y145616D01*
X1839726Y143365D01*
X1840219Y141114D01*
X1840571Y139003D01*
X1840922Y137033D01*
X1841133Y135133D01*
X1841345Y133374D01*
X1841415Y131826D01*
X1841556Y130489D01*
Y129434D01*
X1841626Y129012D01*
Y128660D01*
Y128379D01*
Y128168D01*
Y128027D01*
Y127957D01*
X1841556Y125353D01*
X1841415Y122820D01*
X1841133Y120358D01*
X1840852Y118036D01*
X1840430Y115714D01*
X1840008Y113604D01*
X1839515Y111563D01*
X1839023Y109663D01*
X1838601Y107975D01*
X1838108Y106427D01*
X1837686Y105090D01*
X1837264Y103964D01*
X1836982Y103050D01*
X1836701Y102417D01*
X1836560Y101994D01*
X1836490Y101924D01*
Y101854D01*
X1835505Y99673D01*
X1834379Y97562D01*
X1833183Y95662D01*
X1831987Y93833D01*
X1830720Y92215D01*
X1829454Y90667D01*
X1828258Y89330D01*
X1827062Y88064D01*
X1825936Y86938D01*
X1824881Y86023D01*
X1823966Y85179D01*
X1823122Y84546D01*
X1822418Y84053D01*
X1821926Y83631D01*
X1821644Y83420D01*
X1821504Y83350D01*
X1819604Y82224D01*
X1817564Y81239D01*
X1815453Y80395D01*
X1813342Y79621D01*
X1811231Y79058D01*
X1809050Y78495D01*
X1807010Y78073D01*
X1804969Y77721D01*
X1803140Y77510D01*
X1801381Y77299D01*
X1799833Y77158D01*
X1798497Y77017D01*
X1797441D01*
X1796949Y76947D01*
X1795893D01*
X1793079Y77017D01*
X1790405Y77299D01*
X1787872Y77721D01*
X1785410Y78213D01*
X1783158Y78847D01*
X1781048Y79550D01*
X1779078Y80324D01*
X1777319Y81098D01*
X1775701Y81872D01*
X1774293Y82646D01*
X1773027Y83350D01*
X1772042Y83983D01*
X1771198Y84475D01*
X1770635Y84897D01*
X1770283Y85179D01*
X1770142Y85249D01*
X1768243Y86938D01*
X1766484Y88697D01*
X1764865Y90596D01*
X1763388Y92566D01*
X1762051Y94607D01*
X1760855Y96577D01*
X1759800Y98547D01*
X1758885Y100517D01*
X1758041Y102346D01*
X1757337Y104035D01*
X1756774Y105512D01*
X1756282Y106849D01*
X1755930Y107905D01*
X1755789Y108397D01*
X1755719Y108749D01*
X1755649Y109030D01*
X1755578Y109241D01*
X1755508Y109382D01*
Y109452D01*
X1768383Y112689D01*
X1768946Y110437D01*
X1769579Y108397D01*
X1770283Y106427D01*
X1771127Y104668D01*
X1771901Y102979D01*
X1772816Y101432D01*
X1773660Y100095D01*
X1774504Y98828D01*
X1775278Y97773D01*
X1776052Y96788D01*
X1776756Y96014D01*
X1777389Y95381D01*
X1777882Y94818D01*
X1778233Y94466D01*
X1778515Y94255D01*
X1778585Y94185D01*
X1780063Y93129D01*
X1781540Y92144D01*
X1783088Y91300D01*
X1784636Y90596D01*
X1786184Y90034D01*
X1787732Y89541D01*
X1789209Y89119D01*
X1790616Y88767D01*
X1791883Y88486D01*
X1793149Y88345D01*
X1794205Y88204D01*
X1795119Y88064D01*
X1795893D01*
X1796456Y87993D01*
X1796949D01*
X1798567Y88064D01*
X1800185Y88204D01*
X1801733Y88415D01*
X1803281Y88697D01*
X1804688Y89049D01*
X1806095Y89471D01*
X1807362Y89823D01*
X1808558Y90315D01*
X1809613Y90737D01*
X1810598Y91089D01*
X1811442Y91511D01*
X1812146Y91863D01*
X1812709Y92144D01*
X1813131Y92355D01*
X1813412Y92496D01*
X1813483Y92566D01*
X1814890Y93481D01*
X1816156Y94466D01*
X1817352Y95522D01*
X1818478Y96647D01*
X1819463Y97773D01*
X1820378Y98969D01*
X1821222Y100095D01*
X1821996Y101150D01*
X1822629Y102206D01*
X1823192Y103191D01*
X1823685Y104105D01*
X1824036Y104879D01*
X1824388Y105512D01*
X1824599Y105935D01*
X1824670Y106286D01*
X1824740Y106357D01*
X1825373Y108116D01*
X1825936Y109945D01*
X1826429Y111774D01*
X1826780Y113674D01*
X1827484Y117262D01*
X1827695Y119021D01*
X1827906Y120710D01*
X1828047Y122187D01*
X1828117Y123594D01*
X1828188Y124861D01*
X1828258Y125916D01*
X1828328Y126831D01*
Y127464D01*
Y127886D01*
Y128027D01*
X1828258Y129856D01*
X1828188Y131615D01*
X1827836Y134992D01*
X1827625Y136611D01*
X1827343Y138158D01*
X1827062Y139636D01*
X1826780Y140973D01*
X1826499Y142239D01*
X1826288Y143365D01*
X1826007Y144350D01*
X1825795Y145194D01*
X1825584Y145827D01*
X1825444Y146320D01*
X1825303Y146672D01*
Y146742D01*
X1824670Y148431D01*
X1823966Y149979D01*
X1823192Y151456D01*
X1822348Y152793D01*
X1821504Y154130D01*
X1820659Y155326D01*
X1819745Y156381D01*
X1818900Y157366D01*
X1818056Y158211D01*
X1817282Y158984D01*
X1816579Y159618D01*
X1815945Y160181D01*
X1815453Y160603D01*
X1815101Y160954D01*
X1814820Y161095D01*
X1814749Y161166D01*
X1813272Y162151D01*
X1811724Y162924D01*
X1810176Y163698D01*
X1808628Y164332D01*
X1807010Y164824D01*
X1805462Y165246D01*
X1803984Y165598D01*
X1802507Y165880D01*
X1801170Y166161D01*
X1799904Y166302D01*
X1798778Y166442D01*
X1797793Y166513D01*
X1797019Y166583D01*
X1795964D01*
X1794134Y166513D01*
X1792446Y166372D01*
X1790828Y166161D01*
X1789280Y165809D01*
X1787872Y165457D01*
X1786536Y165035D01*
X1785340Y164613D01*
X1784214Y164191D01*
X1783229Y163698D01*
X1782314Y163276D01*
X1781540Y162854D01*
X1780907Y162502D01*
X1780415Y162151D01*
X1780063Y161939D01*
X1779852Y161799D01*
X1779781Y161728D01*
X1778585Y160743D01*
X1777459Y159688D01*
X1776474Y158492D01*
X1775489Y157296D01*
X1774575Y155959D01*
X1773801Y154693D01*
X1773027Y153426D01*
X1772394Y152160D01*
X1771831Y150964D01*
X1771268Y149838D01*
X1770846Y148853D01*
X1770494Y148009D01*
X1770213Y147235D01*
X1770002Y146742D01*
X1769931Y146390D01*
X1769861Y146250D01*
X1757196Y149205D01*
X1757970Y151667D01*
X1758955Y153989D01*
X1759940Y156170D01*
X1761066Y158211D01*
X1762192Y160040D01*
X1763318Y161799D01*
X1764514Y163347D01*
X1765639Y164754D01*
X1766765Y166020D01*
X1767750Y167076D01*
X1768665Y168061D01*
X1769509Y168764D01*
X1770142Y169397D01*
X1770705Y169820D01*
X1770987Y170101D01*
X1771127Y170171D01*
X1773027Y171508D01*
X1774997Y172634D01*
X1777108Y173619D01*
X1779148Y174463D01*
X1781188Y175237D01*
X1783229Y175800D01*
X1785199Y176293D01*
X1787099Y176715D01*
X1788928Y176996D01*
X1790546Y177207D01*
X1791953Y177418D01*
X1793220Y177489D01*
X1794275Y177559D01*
X1794697Y177629D01*
X1795682D01*
X1798074Y177559D01*
D02*
G37*
G36*
X2190461Y150612D02*
X2192079Y150471D01*
X2193697Y150260D01*
X2195245Y150049D01*
X2196723Y149697D01*
X2198060Y149345D01*
X2199396Y148923D01*
X2200593Y148571D01*
X2201648Y148149D01*
X2202633Y147727D01*
X2203548Y147375D01*
X2204251Y147094D01*
X2204814Y146813D01*
X2205236Y146601D01*
X2205518Y146461D01*
X2205588Y146390D01*
X2206995Y145546D01*
X2208332Y144631D01*
X2209528Y143576D01*
X2210654Y142591D01*
X2211709Y141536D01*
X2212624Y140410D01*
X2213468Y139355D01*
X2214242Y138370D01*
X2214946Y137385D01*
X2215508Y136470D01*
X2216001Y135626D01*
X2216423Y134922D01*
X2216704Y134359D01*
X2216916Y133867D01*
X2217056Y133585D01*
X2217127Y133515D01*
X2217760Y131897D01*
X2218323Y130208D01*
X2218886Y128519D01*
X2219308Y126760D01*
X2219941Y123454D01*
X2220222Y121835D01*
X2220363Y120288D01*
X2220574Y118880D01*
X2220645Y117614D01*
X2220715Y116418D01*
X2220785Y115433D01*
X2220856Y114659D01*
Y114026D01*
Y113674D01*
Y113533D01*
X2220785Y110297D01*
X2220504Y107271D01*
X2220011Y104457D01*
X2219448Y101854D01*
X2218815Y99462D01*
X2218041Y97210D01*
X2217267Y95170D01*
X2216423Y93340D01*
X2215649Y91793D01*
X2214875Y90385D01*
X2214101Y89189D01*
X2213398Y88204D01*
X2212905Y87430D01*
X2212413Y86867D01*
X2212131Y86586D01*
X2212061Y86445D01*
X2210372Y84757D01*
X2208543Y83350D01*
X2206643Y82083D01*
X2204744Y81028D01*
X2202774Y80113D01*
X2200874Y79339D01*
X2198974Y78706D01*
X2197145Y78213D01*
X2195456Y77791D01*
X2193838Y77510D01*
X2192431Y77299D01*
X2191235Y77158D01*
X2190250Y77088D01*
X2189476Y77017D01*
X2188843D01*
X2186732Y77088D01*
X2184692Y77299D01*
X2182722Y77651D01*
X2180892Y78073D01*
X2179204Y78636D01*
X2177585Y79198D01*
X2176108Y79761D01*
X2174771Y80465D01*
X2173505Y81098D01*
X2172449Y81661D01*
X2171535Y82294D01*
X2170761Y82787D01*
X2170127Y83209D01*
X2169705Y83561D01*
X2169424Y83772D01*
X2169354Y83842D01*
X2167946Y85179D01*
X2166610Y86586D01*
X2165484Y88134D01*
X2164428Y89682D01*
X2163514Y91300D01*
X2162740Y92848D01*
X2162036Y94396D01*
X2161403Y95873D01*
X2160911Y97351D01*
X2160488Y98617D01*
X2160137Y99813D01*
X2159855Y100798D01*
X2159644Y101643D01*
X2159503Y102276D01*
X2159433Y102698D01*
Y102839D01*
X2171183Y104457D01*
X2171464Y102839D01*
X2171816Y101291D01*
X2172168Y99884D01*
X2172660Y98617D01*
X2173153Y97351D01*
X2173645Y96295D01*
X2174138Y95310D01*
X2174630Y94466D01*
X2175123Y93692D01*
X2175615Y92989D01*
X2176038Y92426D01*
X2176389Y92004D01*
X2176741Y91652D01*
X2176952Y91370D01*
X2177093Y91230D01*
X2177163Y91159D01*
X2178078Y90385D01*
X2178993Y89752D01*
X2179978Y89189D01*
X2180963Y88697D01*
X2181948Y88275D01*
X2182933Y87923D01*
X2184832Y87430D01*
X2185677Y87219D01*
X2186451Y87079D01*
X2187154Y87008D01*
X2187717Y86938D01*
X2188209Y86867D01*
X2188913D01*
X2190531Y86938D01*
X2192079Y87149D01*
X2193486Y87430D01*
X2194823Y87853D01*
X2196090Y88345D01*
X2197286Y88908D01*
X2198341Y89471D01*
X2199326Y90104D01*
X2200170Y90667D01*
X2200944Y91230D01*
X2201578Y91793D01*
X2202140Y92285D01*
X2202563Y92707D01*
X2202844Y92989D01*
X2203055Y93200D01*
X2203125Y93270D01*
X2204110Y94537D01*
X2204884Y96014D01*
X2205658Y97562D01*
X2206221Y99180D01*
X2206784Y100869D01*
X2207206Y102628D01*
X2207558Y104316D01*
X2207839Y106005D01*
X2208121Y107553D01*
X2208262Y109030D01*
X2208402Y110367D01*
X2208473Y111563D01*
Y112548D01*
X2208543Y113252D01*
Y113533D01*
Y113744D01*
Y113815D01*
Y113885D01*
X2208473Y116418D01*
X2208332Y118810D01*
X2208050Y120991D01*
X2207628Y122961D01*
X2207206Y124861D01*
X2206784Y126549D01*
X2206221Y128027D01*
X2205729Y129364D01*
X2205236Y130560D01*
X2204673Y131545D01*
X2204251Y132459D01*
X2203759Y133163D01*
X2203407Y133656D01*
X2203125Y134078D01*
X2202985Y134289D01*
X2202914Y134359D01*
X2201789Y135485D01*
X2200663Y136470D01*
X2199467Y137385D01*
X2198271Y138088D01*
X2197004Y138721D01*
X2195808Y139284D01*
X2194612Y139706D01*
X2193486Y140058D01*
X2192431Y140269D01*
X2191446Y140480D01*
X2190531Y140621D01*
X2189757Y140762D01*
X2189124D01*
X2188702Y140832D01*
X2188280D01*
X2187154Y140762D01*
X2186099Y140691D01*
X2184129Y140269D01*
X2182440Y139706D01*
X2180963Y139073D01*
X2180259Y138721D01*
X2179696Y138370D01*
X2179204Y138088D01*
X2178852Y137807D01*
X2178500Y137596D01*
X2178289Y137385D01*
X2178148Y137314D01*
X2178078Y137244D01*
X2177304Y136540D01*
X2176600Y135766D01*
X2175404Y134078D01*
X2174349Y132319D01*
X2173505Y130560D01*
X2173223Y129786D01*
X2172942Y129012D01*
X2172660Y128379D01*
X2172520Y127745D01*
X2172379Y127323D01*
X2172238Y126901D01*
X2172168Y126690D01*
Y126620D01*
X2160559Y128379D01*
X2160981Y130349D01*
X2161544Y132108D01*
X2162177Y133867D01*
X2162951Y135415D01*
X2163655Y136892D01*
X2164499Y138229D01*
X2165273Y139495D01*
X2166047Y140621D01*
X2166821Y141606D01*
X2167524Y142450D01*
X2168228Y143154D01*
X2168791Y143787D01*
X2169283Y144209D01*
X2169635Y144561D01*
X2169916Y144772D01*
X2169987Y144842D01*
X2171394Y145898D01*
X2172871Y146742D01*
X2174419Y147586D01*
X2175967Y148220D01*
X2177585Y148783D01*
X2179133Y149275D01*
X2180611Y149627D01*
X2182088Y149979D01*
X2183496Y150190D01*
X2184762Y150401D01*
X2185888Y150471D01*
X2186873Y150612D01*
X2187647D01*
X2188280Y150682D01*
X2188772D01*
X2190461Y150612D01*
D02*
G37*
G36*
X2797791D02*
X2799198Y150330D01*
X2800465Y149908D01*
X2801661Y149486D01*
X2802576Y148994D01*
X2803279Y148642D01*
X2803561Y148431D01*
X2803772Y148360D01*
X2803842Y148220D01*
X2803912D01*
X2804546Y147727D01*
X2805249Y147094D01*
X2805882Y146390D01*
X2806516Y145687D01*
X2807782Y143998D01*
X2808978Y142380D01*
X2809963Y140832D01*
X2810385Y140128D01*
X2810737Y139495D01*
X2811019Y139003D01*
X2811230Y138651D01*
X2811370Y138370D01*
X2811441Y138299D01*
Y149134D01*
X2822205D01*
Y78565D01*
X2810245D01*
Y115433D01*
X2810174Y118247D01*
X2809963Y120850D01*
X2809752Y122046D01*
X2809611Y123172D01*
X2809471Y124228D01*
X2809260Y125283D01*
X2809048Y126127D01*
X2808908Y126972D01*
X2808697Y127675D01*
X2808556Y128238D01*
X2808486Y128731D01*
X2808345Y129082D01*
X2808275Y129293D01*
Y129364D01*
X2807712Y130841D01*
X2807008Y132178D01*
X2806305Y133304D01*
X2805531Y134218D01*
X2804897Y134922D01*
X2804334Y135485D01*
X2803983Y135766D01*
X2803842Y135907D01*
X2802646Y136681D01*
X2801450Y137314D01*
X2800254Y137736D01*
X2799198Y138018D01*
X2798284Y138158D01*
X2797510Y138299D01*
X2796877D01*
X2795258Y138158D01*
X2793640Y137877D01*
X2792163Y137525D01*
X2790896Y137033D01*
X2789770Y136540D01*
X2789278Y136329D01*
X2788926Y136188D01*
X2788574Y135977D01*
X2788363Y135907D01*
X2788223Y135766D01*
X2788152D01*
X2783931Y146813D01*
X2785127Y147516D01*
X2786252Y148079D01*
X2787378Y148642D01*
X2788504Y149064D01*
X2790544Y149768D01*
X2791529Y149979D01*
X2792444Y150190D01*
X2793288Y150330D01*
X2793992Y150471D01*
X2794625Y150541D01*
X2795188Y150612D01*
X2795610Y150682D01*
X2796243D01*
X2797791Y150612D01*
D02*
G37*
G36*
X2776754Y78565D02*
X2764793D01*
Y149134D01*
X2776754D01*
Y78565D01*
D02*
G37*
G36*
X2251602D02*
X2238023D01*
Y92144D01*
X2251602D01*
Y78565D01*
D02*
G37*
G36*
X1920286D02*
X1907411D01*
Y122820D01*
X1861748D01*
Y134289D01*
X1907411D01*
Y164472D01*
X1854642D01*
Y175941D01*
X1920286D01*
Y78565D01*
D02*
G37*
G36*
X1556324D02*
X1542745D01*
Y92144D01*
X1556324D01*
Y78565D01*
D02*
G37*
G36*
X2123058Y150612D02*
X2125380Y150330D01*
X2127561Y149979D01*
X2129601Y149486D01*
X2131571Y148853D01*
X2133401Y148220D01*
X2135089Y147446D01*
X2136637Y146742D01*
X2138044Y146039D01*
X2139240Y145265D01*
X2140296Y144631D01*
X2141210Y144069D01*
X2141914Y143506D01*
X2142406Y143154D01*
X2142688Y142872D01*
X2142829Y142802D01*
X2144728Y140902D01*
X2146417Y138862D01*
X2147824Y136611D01*
X2149090Y134289D01*
X2150146Y131897D01*
X2150990Y129504D01*
X2151764Y127112D01*
X2152327Y124790D01*
X2152749Y122539D01*
X2153101Y120499D01*
X2153312Y118669D01*
X2153453Y117825D01*
X2153523Y117051D01*
Y116347D01*
X2153593Y115714D01*
Y115151D01*
X2153664Y114659D01*
Y114307D01*
Y114026D01*
Y113885D01*
Y113815D01*
X2153593Y110578D01*
X2153242Y107482D01*
X2152819Y104668D01*
X2152257Y101994D01*
X2151553Y99532D01*
X2150779Y97280D01*
X2149935Y95240D01*
X2149090Y93411D01*
X2148246Y91793D01*
X2147472Y90385D01*
X2146698Y89189D01*
X2145995Y88204D01*
X2145432Y87430D01*
X2145010Y86867D01*
X2144658Y86586D01*
X2144588Y86445D01*
X2142829Y84757D01*
X2140929Y83350D01*
X2138959Y82083D01*
X2136989Y81028D01*
X2135019Y80113D01*
X2132978Y79339D01*
X2131079Y78706D01*
X2129179Y78213D01*
X2127420Y77791D01*
X2125802Y77510D01*
X2124395Y77299D01*
X2123128Y77158D01*
X2122073Y77088D01*
X2121651D01*
X2121299Y77017D01*
X2120666D01*
X2118907Y77088D01*
X2117289Y77228D01*
X2115670Y77440D01*
X2114052Y77721D01*
X2112575Y78002D01*
X2111167Y78354D01*
X2109901Y78776D01*
X2108635Y79198D01*
X2107579Y79550D01*
X2106594Y79972D01*
X2105750Y80324D01*
X2104976Y80676D01*
X2104413Y80887D01*
X2103991Y81098D01*
X2103710Y81239D01*
X2103639Y81309D01*
X2102232Y82154D01*
X2100895Y83068D01*
X2099629Y84053D01*
X2098503Y85038D01*
X2097448Y86023D01*
X2096463Y87008D01*
X2095548Y87993D01*
X2094774Y88978D01*
X2094070Y89893D01*
X2093437Y90737D01*
X2092945Y91441D01*
X2092523Y92144D01*
X2092171Y92637D01*
X2091960Y93059D01*
X2091819Y93340D01*
X2091749Y93411D01*
X2091045Y94959D01*
X2090342Y96577D01*
X2089849Y98265D01*
X2089357Y100024D01*
X2088934Y101854D01*
X2088583Y103613D01*
X2088301Y105372D01*
X2088090Y107060D01*
X2087949Y108608D01*
X2087809Y110086D01*
X2087738Y111422D01*
X2087668Y112548D01*
X2087598Y113463D01*
Y114237D01*
Y114448D01*
Y114659D01*
Y114729D01*
Y114800D01*
X2087668Y117895D01*
X2088020Y120780D01*
X2088442Y123454D01*
X2089075Y125987D01*
X2089779Y128379D01*
X2090553Y130489D01*
X2091397Y132459D01*
X2092241Y134289D01*
X2093085Y135837D01*
X2093930Y137244D01*
X2094704Y138370D01*
X2095407Y139355D01*
X2096041Y140128D01*
X2096463Y140691D01*
X2096744Y140973D01*
X2096885Y141114D01*
X2098644Y142802D01*
X2100543Y144280D01*
X2102513Y145546D01*
X2104483Y146672D01*
X2106453Y147586D01*
X2108424Y148360D01*
X2110394Y148994D01*
X2112223Y149486D01*
X2113982Y149908D01*
X2115600Y150190D01*
X2117007Y150401D01*
X2118274Y150541D01*
X2119259Y150612D01*
X2119681Y150682D01*
X2120666D01*
X2123058Y150612D01*
D02*
G37*
G36*
X2455500Y176222D02*
X2457329Y176081D01*
X2459088Y175800D01*
X2460776Y175378D01*
X2462324Y174956D01*
X2463802Y174463D01*
X2465139Y173971D01*
X2466335Y173478D01*
X2467460Y172915D01*
X2468375Y172423D01*
X2469219Y171930D01*
X2469923Y171508D01*
X2470486Y171156D01*
X2470838Y170875D01*
X2471119Y170664D01*
X2471189Y170594D01*
X2472456Y169468D01*
X2473652Y168272D01*
X2474778Y167005D01*
X2475833Y165668D01*
X2476748Y164332D01*
X2477592Y162924D01*
X2478436Y161588D01*
X2479069Y160321D01*
X2479703Y159125D01*
X2480266Y157999D01*
X2480688Y156944D01*
X2481110Y156100D01*
X2481391Y155326D01*
X2481602Y154833D01*
X2481673Y154482D01*
X2481743Y154341D01*
X2482376Y152300D01*
X2482869Y150119D01*
X2483361Y147868D01*
X2483783Y145546D01*
X2484417Y140902D01*
X2484628Y138651D01*
X2484839Y136470D01*
X2484980Y134429D01*
X2485050Y132530D01*
X2485120Y130841D01*
X2485191Y129434D01*
Y128801D01*
X2485261Y128238D01*
Y127745D01*
Y127323D01*
Y126972D01*
Y126760D01*
Y126620D01*
Y126549D01*
Y124017D01*
X2485120Y121554D01*
X2485050Y119232D01*
X2484839Y116981D01*
X2484628Y114800D01*
X2484346Y112689D01*
X2484065Y110719D01*
X2483783Y108819D01*
X2483432Y106920D01*
X2483010Y105231D01*
X2482658Y103542D01*
X2482236Y101994D01*
X2481813Y100447D01*
X2481391Y99039D01*
X2480899Y97703D01*
X2480477Y96436D01*
X2480054Y95310D01*
X2479562Y94185D01*
X2479140Y93200D01*
X2478718Y92215D01*
X2478296Y91370D01*
X2477944Y90596D01*
X2477522Y89893D01*
X2477170Y89260D01*
X2476888Y88697D01*
X2476607Y88275D01*
X2476326Y87853D01*
X2476114Y87501D01*
X2475903Y87290D01*
X2475763Y87079D01*
X2475692Y87008D01*
Y86938D01*
X2474144Y85179D01*
X2472456Y83631D01*
X2470697Y82294D01*
X2468868Y81168D01*
X2466968Y80183D01*
X2465139Y79410D01*
X2463380Y78706D01*
X2461621Y78213D01*
X2459932Y77791D01*
X2458455Y77510D01*
X2457047Y77228D01*
X2455851Y77088D01*
X2454866Y77017D01*
X2454163Y76947D01*
X2453530D01*
X2451559Y77017D01*
X2449730Y77228D01*
X2447971Y77510D01*
X2446283Y77862D01*
X2444735Y78284D01*
X2443328Y78776D01*
X2441991Y79269D01*
X2440724Y79832D01*
X2439669Y80324D01*
X2438684Y80817D01*
X2437910Y81309D01*
X2437206Y81731D01*
X2436644Y82154D01*
X2436292Y82435D01*
X2436010Y82576D01*
X2435940Y82646D01*
X2434674Y83772D01*
X2433477Y84968D01*
X2432352Y86234D01*
X2431296Y87571D01*
X2430382Y88978D01*
X2429537Y90315D01*
X2428693Y91652D01*
X2427990Y92918D01*
X2427427Y94114D01*
X2426864Y95240D01*
X2426442Y96295D01*
X2426020Y97140D01*
X2425738Y97914D01*
X2425527Y98406D01*
X2425457Y98758D01*
X2425386Y98899D01*
X2424753Y100939D01*
X2424190Y103120D01*
X2423698Y105372D01*
X2423276Y107693D01*
X2422642Y112267D01*
X2422431Y114518D01*
X2422220Y116699D01*
X2422079Y118740D01*
X2422009Y120569D01*
X2421939Y122258D01*
X2421868Y123735D01*
Y124368D01*
X2421798Y124931D01*
Y125424D01*
Y125775D01*
Y126127D01*
Y126338D01*
Y126479D01*
Y126549D01*
Y129223D01*
X2421868Y131686D01*
X2422009Y134078D01*
X2422150Y136259D01*
X2422291Y138299D01*
X2422502Y140199D01*
X2422713Y141958D01*
X2422924Y143506D01*
X2423135Y144913D01*
X2423346Y146109D01*
X2423557Y147164D01*
X2423698Y148009D01*
X2423838Y148712D01*
X2423979Y149134D01*
X2424050Y149486D01*
Y149556D01*
X2424472Y151104D01*
X2424964Y152652D01*
X2425386Y154059D01*
X2425879Y155396D01*
X2426442Y156663D01*
X2426934Y157859D01*
X2427427Y158984D01*
X2427919Y159969D01*
X2428341Y160884D01*
X2428763Y161658D01*
X2429115Y162362D01*
X2429467Y162924D01*
X2429749Y163347D01*
X2429960Y163698D01*
X2430030Y163910D01*
X2430100Y163980D01*
X2431578Y166091D01*
X2433196Y167920D01*
X2434814Y169538D01*
X2436362Y170805D01*
X2437066Y171367D01*
X2437769Y171790D01*
X2438332Y172212D01*
X2438825Y172564D01*
X2439247Y172775D01*
X2439528Y172986D01*
X2439739Y173126D01*
X2439810D01*
X2440935Y173689D01*
X2442061Y174182D01*
X2444453Y174956D01*
X2446775Y175519D01*
X2448886Y175870D01*
X2449871Y176011D01*
X2450715Y176152D01*
X2451559Y176222D01*
X2452193D01*
X2452756Y176293D01*
X2453530D01*
X2455500Y176222D01*
D02*
G37*
G36*
X2379865D02*
X2381694Y176081D01*
X2383453Y175800D01*
X2385142Y175378D01*
X2386689Y174956D01*
X2388167Y174463D01*
X2389504Y173971D01*
X2390700Y173478D01*
X2391826Y172915D01*
X2392740Y172423D01*
X2393584Y171930D01*
X2394288Y171508D01*
X2394851Y171156D01*
X2395203Y170875D01*
X2395484Y170664D01*
X2395555Y170594D01*
X2396821Y169468D01*
X2398017Y168272D01*
X2399143Y167005D01*
X2400198Y165668D01*
X2401113Y164332D01*
X2401957Y162924D01*
X2402801Y161588D01*
X2403435Y160321D01*
X2404068Y159125D01*
X2404631Y157999D01*
X2405053Y156944D01*
X2405475Y156100D01*
X2405756Y155326D01*
X2405968Y154833D01*
X2406038Y154482D01*
X2406108Y154341D01*
X2406741Y152300D01*
X2407234Y150119D01*
X2407726Y147868D01*
X2408149Y145546D01*
X2408782Y140902D01*
X2408993Y138651D01*
X2409204Y136470D01*
X2409345Y134429D01*
X2409415Y132530D01*
X2409485Y130841D01*
X2409556Y129434D01*
Y128801D01*
X2409626Y128238D01*
Y127745D01*
Y127323D01*
Y126972D01*
Y126760D01*
Y126620D01*
Y126549D01*
Y124017D01*
X2409485Y121554D01*
X2409415Y119232D01*
X2409204Y116981D01*
X2408993Y114800D01*
X2408711Y112689D01*
X2408430Y110719D01*
X2408149Y108819D01*
X2407797Y106920D01*
X2407375Y105231D01*
X2407023Y103542D01*
X2406601Y101994D01*
X2406179Y100447D01*
X2405756Y99039D01*
X2405264Y97703D01*
X2404842Y96436D01*
X2404420Y95310D01*
X2403927Y94185D01*
X2403505Y93200D01*
X2403083Y92215D01*
X2402661Y91370D01*
X2402309Y90596D01*
X2401887Y89893D01*
X2401535Y89260D01*
X2401254Y88697D01*
X2400972Y88275D01*
X2400691Y87853D01*
X2400480Y87501D01*
X2400269Y87290D01*
X2400128Y87079D01*
X2400057Y87008D01*
Y86938D01*
X2398510Y85179D01*
X2396821Y83631D01*
X2395062Y82294D01*
X2393233Y81168D01*
X2391333Y80183D01*
X2389504Y79410D01*
X2387745Y78706D01*
X2385986Y78213D01*
X2384297Y77791D01*
X2382820Y77510D01*
X2381413Y77228D01*
X2380216Y77088D01*
X2379231Y77017D01*
X2378528Y76947D01*
X2377895D01*
X2375925Y77017D01*
X2374095Y77228D01*
X2372336Y77510D01*
X2370648Y77862D01*
X2369100Y78284D01*
X2367693Y78776D01*
X2366356Y79269D01*
X2365090Y79832D01*
X2364034Y80324D01*
X2363049Y80817D01*
X2362275Y81309D01*
X2361572Y81731D01*
X2361009Y82154D01*
X2360657Y82435D01*
X2360376Y82576D01*
X2360305Y82646D01*
X2359039Y83772D01*
X2357843Y84968D01*
X2356717Y86234D01*
X2355662Y87571D01*
X2354747Y88978D01*
X2353903Y90315D01*
X2353058Y91652D01*
X2352355Y92918D01*
X2351792Y94114D01*
X2351229Y95240D01*
X2350807Y96295D01*
X2350385Y97140D01*
X2350103Y97914D01*
X2349892Y98406D01*
X2349822Y98758D01*
X2349751Y98899D01*
X2349118Y100939D01*
X2348555Y103120D01*
X2348063Y105372D01*
X2347641Y107693D01*
X2347007Y112267D01*
X2346796Y114518D01*
X2346585Y116699D01*
X2346445Y118740D01*
X2346374Y120569D01*
X2346304Y122258D01*
X2346234Y123735D01*
Y124368D01*
X2346163Y124931D01*
Y125424D01*
Y125775D01*
Y126127D01*
Y126338D01*
Y126479D01*
Y126549D01*
Y129223D01*
X2346234Y131686D01*
X2346374Y134078D01*
X2346515Y136259D01*
X2346656Y138299D01*
X2346867Y140199D01*
X2347078Y141958D01*
X2347289Y143506D01*
X2347500Y144913D01*
X2347711Y146109D01*
X2347922Y147164D01*
X2348063Y148009D01*
X2348204Y148712D01*
X2348344Y149134D01*
X2348415Y149486D01*
Y149556D01*
X2348837Y151104D01*
X2349329Y152652D01*
X2349751Y154059D01*
X2350244Y155396D01*
X2350807Y156663D01*
X2351299Y157859D01*
X2351792Y158984D01*
X2352284Y159969D01*
X2352706Y160884D01*
X2353129Y161658D01*
X2353480Y162362D01*
X2353832Y162924D01*
X2354114Y163347D01*
X2354325Y163698D01*
X2354395Y163910D01*
X2354465Y163980D01*
X2355943Y166091D01*
X2357561Y167920D01*
X2359179Y169538D01*
X2360727Y170805D01*
X2361431Y171367D01*
X2362134Y171790D01*
X2362697Y172212D01*
X2363190Y172564D01*
X2363612Y172775D01*
X2363893Y172986D01*
X2364104Y173126D01*
X2364175D01*
X2365301Y173689D01*
X2366426Y174182D01*
X2368818Y174956D01*
X2371140Y175519D01*
X2373251Y175870D01*
X2374236Y176011D01*
X2375080Y176152D01*
X2375925Y176222D01*
X2376558D01*
X2377121Y176293D01*
X2377895D01*
X2379865Y176222D01*
D02*
G37*
G36*
X1495535D02*
X1497364Y176081D01*
X1499123Y175800D01*
X1500812Y175378D01*
X1502360Y174956D01*
X1503837Y174463D01*
X1505174Y173971D01*
X1506370Y173478D01*
X1507496Y172915D01*
X1508410Y172423D01*
X1509255Y171930D01*
X1509958Y171508D01*
X1510521Y171156D01*
X1510873Y170875D01*
X1511154Y170664D01*
X1511225Y170594D01*
X1512491Y169468D01*
X1513687Y168272D01*
X1514813Y167005D01*
X1515868Y165668D01*
X1516783Y164332D01*
X1517627Y162924D01*
X1518472Y161588D01*
X1519105Y160321D01*
X1519738Y159125D01*
X1520301Y157999D01*
X1520723Y156944D01*
X1521145Y156100D01*
X1521427Y155326D01*
X1521638Y154833D01*
X1521708Y154482D01*
X1521779Y154341D01*
X1522412Y152300D01*
X1522904Y150119D01*
X1523397Y147868D01*
X1523819Y145546D01*
X1524452Y140902D01*
X1524663Y138651D01*
X1524874Y136470D01*
X1525015Y134429D01*
X1525085Y132530D01*
X1525156Y130841D01*
X1525226Y129434D01*
Y128801D01*
X1525296Y128238D01*
Y127745D01*
Y127323D01*
Y126972D01*
Y126760D01*
Y126620D01*
Y126549D01*
Y124017D01*
X1525156Y121554D01*
X1525085Y119232D01*
X1524874Y116981D01*
X1524663Y114800D01*
X1524382Y112689D01*
X1524100Y110719D01*
X1523819Y108819D01*
X1523467Y106920D01*
X1523045Y105231D01*
X1522693Y103542D01*
X1522271Y101994D01*
X1521849Y100447D01*
X1521427Y99039D01*
X1520934Y97703D01*
X1520512Y96436D01*
X1520090Y95310D01*
X1519597Y94185D01*
X1519175Y93200D01*
X1518753Y92215D01*
X1518331Y91370D01*
X1517979Y90596D01*
X1517557Y89893D01*
X1517205Y89260D01*
X1516924Y88697D01*
X1516642Y88275D01*
X1516361Y87853D01*
X1516150Y87501D01*
X1515939Y87290D01*
X1515798Y87079D01*
X1515728Y87008D01*
Y86938D01*
X1514180Y85179D01*
X1512491Y83631D01*
X1510732Y82294D01*
X1508903Y81168D01*
X1507003Y80183D01*
X1505174Y79410D01*
X1503415Y78706D01*
X1501656Y78213D01*
X1499968Y77791D01*
X1498490Y77510D01*
X1497083Y77228D01*
X1495887Y77088D01*
X1494902Y77017D01*
X1494198Y76947D01*
X1493565D01*
X1491595Y77017D01*
X1489766Y77228D01*
X1488007Y77510D01*
X1486318Y77862D01*
X1484770Y78284D01*
X1483363Y78776D01*
X1482026Y79269D01*
X1480760Y79832D01*
X1479704Y80324D01*
X1478719Y80817D01*
X1477945Y81309D01*
X1477242Y81731D01*
X1476679Y82154D01*
X1476327Y82435D01*
X1476046Y82576D01*
X1475975Y82646D01*
X1474709Y83772D01*
X1473513Y84968D01*
X1472387Y86234D01*
X1471332Y87571D01*
X1470417Y88978D01*
X1469573Y90315D01*
X1468729Y91652D01*
X1468025Y92918D01*
X1467462Y94114D01*
X1466899Y95240D01*
X1466477Y96295D01*
X1466055Y97140D01*
X1465774Y97914D01*
X1465562Y98406D01*
X1465492Y98758D01*
X1465422Y98899D01*
X1464789Y100939D01*
X1464226Y103120D01*
X1463733Y105372D01*
X1463311Y107693D01*
X1462678Y112267D01*
X1462467Y114518D01*
X1462256Y116699D01*
X1462115Y118740D01*
X1462045Y120569D01*
X1461974Y122258D01*
X1461904Y123735D01*
Y124368D01*
X1461834Y124931D01*
Y125424D01*
Y125775D01*
Y126127D01*
Y126338D01*
Y126479D01*
Y126549D01*
Y129223D01*
X1461904Y131686D01*
X1462045Y134078D01*
X1462185Y136259D01*
X1462326Y138299D01*
X1462537Y140199D01*
X1462748Y141958D01*
X1462959Y143506D01*
X1463170Y144913D01*
X1463381Y146109D01*
X1463592Y147164D01*
X1463733Y148009D01*
X1463874Y148712D01*
X1464015Y149134D01*
X1464085Y149486D01*
Y149556D01*
X1464507Y151104D01*
X1465000Y152652D01*
X1465422Y154059D01*
X1465914Y155396D01*
X1466477Y156663D01*
X1466970Y157859D01*
X1467462Y158984D01*
X1467955Y159969D01*
X1468377Y160884D01*
X1468799Y161658D01*
X1469151Y162362D01*
X1469503Y162924D01*
X1469784Y163347D01*
X1469995Y163698D01*
X1470065Y163910D01*
X1470136Y163980D01*
X1471613Y166091D01*
X1473231Y167920D01*
X1474850Y169538D01*
X1476398Y170805D01*
X1477101Y171367D01*
X1477805Y171790D01*
X1478368Y172212D01*
X1478860Y172564D01*
X1479282Y172775D01*
X1479564Y172986D01*
X1479775Y173126D01*
X1479845D01*
X1480971Y173689D01*
X1482097Y174182D01*
X1484489Y174956D01*
X1486811Y175519D01*
X1488921Y175870D01*
X1489906Y176011D01*
X1490751Y176152D01*
X1491595Y176222D01*
X1492228D01*
X1492791Y176293D01*
X1493565D01*
X1495535Y176222D01*
D02*
G37*
%LPC*%
G36*
X2720186Y140762D02*
X2719835D01*
X2718357Y140691D01*
X2716950Y140480D01*
X2715543Y140128D01*
X2714276Y139706D01*
X2713080Y139214D01*
X2711884Y138651D01*
X2710829Y138088D01*
X2709914Y137455D01*
X2709070Y136822D01*
X2708296Y136259D01*
X2707592Y135696D01*
X2707029Y135203D01*
X2706607Y134781D01*
X2706326Y134429D01*
X2706115Y134218D01*
X2706044Y134148D01*
X2705059Y132882D01*
X2704145Y131404D01*
X2703371Y129927D01*
X2702738Y128379D01*
X2702175Y126760D01*
X2701682Y125142D01*
X2701330Y123524D01*
X2700979Y121976D01*
X2700768Y120499D01*
X2700556Y119091D01*
X2700416Y117895D01*
X2700345Y116770D01*
Y115925D01*
X2700275Y115222D01*
Y114800D01*
Y114729D01*
Y114659D01*
X2700345Y112196D01*
X2700486Y109945D01*
X2700768Y107834D01*
X2701119Y105864D01*
X2701541Y104105D01*
X2702034Y102417D01*
X2702526Y101009D01*
X2703019Y99673D01*
X2703582Y98547D01*
X2704074Y97562D01*
X2704567Y96718D01*
X2704989Y96014D01*
X2705341Y95522D01*
X2705622Y95099D01*
X2705763Y94888D01*
X2705833Y94818D01*
X2706889Y93692D01*
X2708014Y92707D01*
X2709140Y91863D01*
X2710336Y91159D01*
X2711462Y90526D01*
X2712658Y90034D01*
X2713713Y89611D01*
X2714839Y89260D01*
X2715824Y89049D01*
X2716739Y88838D01*
X2717513Y88697D01*
X2718216Y88556D01*
X2718850D01*
X2719272Y88486D01*
X2719623D01*
X2721171Y88556D01*
X2722579Y88767D01*
X2723986Y89049D01*
X2725252Y89471D01*
X2726519Y89963D01*
X2727644Y90526D01*
X2728700Y91089D01*
X2729614Y91652D01*
X2730459Y92215D01*
X2731233Y92848D01*
X2731866Y93340D01*
X2732429Y93833D01*
X2732851Y94255D01*
X2733132Y94537D01*
X2733343Y94748D01*
X2733414Y94818D01*
X2734399Y96084D01*
X2735243Y97562D01*
X2735947Y99039D01*
X2736580Y100658D01*
X2737143Y102346D01*
X2737565Y104035D01*
X2737917Y105723D01*
X2738198Y107342D01*
X2738409Y108890D01*
X2738620Y110367D01*
X2738761Y111704D01*
X2738831Y112830D01*
Y113744D01*
X2738902Y114448D01*
Y114729D01*
Y114940D01*
Y115011D01*
Y115081D01*
X2738831Y117403D01*
X2738690Y119584D01*
X2738409Y121554D01*
X2738057Y123454D01*
X2737635Y125213D01*
X2737143Y126760D01*
X2736650Y128168D01*
X2736087Y129434D01*
X2735595Y130560D01*
X2735102Y131545D01*
X2734610Y132389D01*
X2734188Y133093D01*
X2733836Y133585D01*
X2733554Y134007D01*
X2733414Y134218D01*
X2733343Y134289D01*
X2732288Y135415D01*
X2731162Y136400D01*
X2730036Y137314D01*
X2728911Y138018D01*
X2727715Y138651D01*
X2726659Y139214D01*
X2725534Y139636D01*
X2724478Y139988D01*
X2723564Y140199D01*
X2722649Y140410D01*
X2721875Y140551D01*
X2721171Y140691D01*
X2720608D01*
X2720186Y140762D01*
D02*
G37*
G36*
X2951031Y113955D02*
X2950961D01*
Y109523D01*
Y108116D01*
X2951031Y106779D01*
X2951172Y105512D01*
X2951242Y104316D01*
X2951383Y103261D01*
X2951594Y102276D01*
X2951735Y101432D01*
X2951946Y100658D01*
X2952157Y99954D01*
X2952297Y99321D01*
X2952438Y98828D01*
X2952649Y98406D01*
X2952720Y98054D01*
X2952860Y97843D01*
X2952931Y97703D01*
Y97632D01*
X2953986Y95733D01*
X2955252Y94114D01*
X2956519Y92707D01*
X2957785Y91511D01*
X2958981Y90596D01*
X2959474Y90174D01*
X2959966Y89893D01*
X2960318Y89611D01*
X2960600Y89471D01*
X2960740Y89400D01*
X2960811Y89330D01*
X2962851Y88345D01*
X2964962Y87641D01*
X2967073Y87079D01*
X2968972Y86727D01*
X2969817Y86656D01*
X2970661Y86516D01*
X2971364Y86445D01*
X2971927D01*
X2972420Y86375D01*
X2973123D01*
X2974390Y86445D01*
X2975586Y86516D01*
X2976712Y86656D01*
X2977697Y86867D01*
X2978682Y87079D01*
X2979526Y87360D01*
X2980300Y87641D01*
X2981003Y87993D01*
X2981637Y88275D01*
X2982200Y88556D01*
X2982622Y88838D01*
X2982973Y89049D01*
X2983325Y89260D01*
X2983536Y89400D01*
X2983607Y89541D01*
X2983677D01*
X2984310Y90174D01*
X2984873Y90808D01*
X2985366Y91441D01*
X2985717Y92144D01*
X2986421Y93481D01*
X2986843Y94677D01*
X2987054Y95803D01*
X2987125Y96295D01*
X2987195Y96718D01*
X2987265Y96999D01*
Y97280D01*
Y97421D01*
Y97492D01*
X2987195Y98617D01*
X2986984Y99673D01*
X2986773Y100658D01*
X2986421Y101502D01*
X2986140Y102135D01*
X2985928Y102698D01*
X2985717Y102979D01*
X2985647Y103120D01*
X2984943Y104035D01*
X2984170Y104809D01*
X2983396Y105512D01*
X2982622Y106005D01*
X2981988Y106427D01*
X2981426Y106779D01*
X2981074Y106920D01*
X2980933Y106990D01*
X2980300Y107271D01*
X2979596Y107482D01*
X2978048Y107905D01*
X2976289Y108327D01*
X2974601Y108678D01*
X2972983Y108960D01*
X2972349Y109101D01*
X2971716Y109171D01*
X2971224Y109312D01*
X2970872D01*
X2970590Y109382D01*
X2970520D01*
X2968128Y109734D01*
X2965947Y110156D01*
X2963906Y110508D01*
X2961936Y110930D01*
X2960248Y111282D01*
X2958630Y111634D01*
X2957152Y112056D01*
X2955886Y112407D01*
X2954690Y112689D01*
X2953705Y113041D01*
X2952860Y113252D01*
X2952157Y113533D01*
X2951664Y113674D01*
X2951242Y113815D01*
X2951031Y113955D01*
D02*
G37*
G36*
X2302260Y166372D02*
X2301908D01*
X2300501Y166302D01*
X2299164Y166091D01*
X2297827Y165809D01*
X2296631Y165457D01*
X2295435Y164965D01*
X2294380Y164472D01*
X2293395Y163910D01*
X2292480Y163347D01*
X2291636Y162784D01*
X2290862Y162221D01*
X2290229Y161728D01*
X2289736Y161236D01*
X2289314Y160884D01*
X2289033Y160603D01*
X2288821Y160392D01*
X2288751Y160321D01*
X2287766Y159125D01*
X2286922Y157859D01*
X2286218Y156592D01*
X2285585Y155255D01*
X2285022Y153848D01*
X2284600Y152512D01*
X2284248Y151175D01*
X2283967Y149908D01*
X2283756Y148712D01*
X2283545Y147586D01*
X2283404Y146601D01*
X2283334Y145687D01*
X2283263Y144983D01*
Y144420D01*
Y144139D01*
Y143998D01*
X2283334Y142099D01*
X2283474Y140340D01*
X2283756Y138721D01*
X2284107Y137173D01*
X2284530Y135696D01*
X2284952Y134359D01*
X2285444Y133163D01*
X2285937Y132108D01*
X2286429Y131123D01*
X2286922Y130278D01*
X2287344Y129575D01*
X2287766Y128942D01*
X2288118Y128519D01*
X2288399Y128168D01*
X2288540Y127957D01*
X2288610Y127886D01*
X2289666Y126901D01*
X2290721Y125987D01*
X2291847Y125213D01*
X2292973Y124579D01*
X2294169Y124017D01*
X2295294Y123524D01*
X2296350Y123172D01*
X2297405Y122820D01*
X2298460Y122609D01*
X2299375Y122398D01*
X2300149Y122328D01*
X2300853Y122187D01*
X2301486D01*
X2301908Y122117D01*
X2302260D01*
X2303808Y122187D01*
X2305215Y122398D01*
X2306622Y122680D01*
X2307959Y123032D01*
X2309155Y123454D01*
X2310281Y123946D01*
X2311336Y124439D01*
X2312321Y125002D01*
X2313165Y125564D01*
X2313939Y126057D01*
X2314572Y126549D01*
X2315135Y126972D01*
X2315557Y127323D01*
X2315839Y127675D01*
X2316050Y127816D01*
X2316120Y127886D01*
X2317105Y129012D01*
X2317950Y130208D01*
X2318724Y131474D01*
X2319357Y132741D01*
X2319849Y134007D01*
X2320342Y135274D01*
X2320694Y136470D01*
X2320975Y137666D01*
X2321186Y138721D01*
X2321397Y139777D01*
X2321538Y140691D01*
X2321608Y141465D01*
Y142099D01*
X2321679Y142591D01*
Y142943D01*
Y143013D01*
X2321608Y144913D01*
X2321397Y146742D01*
X2321116Y148431D01*
X2320764Y149979D01*
X2320342Y151526D01*
X2319849Y152863D01*
X2319286Y154130D01*
X2318724Y155326D01*
X2318231Y156311D01*
X2317668Y157225D01*
X2317176Y157999D01*
X2316754Y158633D01*
X2316402Y159196D01*
X2316120Y159547D01*
X2315909Y159758D01*
X2315839Y159829D01*
X2314713Y160954D01*
X2313517Y162010D01*
X2312391Y162854D01*
X2311195Y163628D01*
X2309999Y164261D01*
X2308803Y164754D01*
X2307748Y165176D01*
X2306622Y165528D01*
X2305637Y165809D01*
X2304722Y166020D01*
X2303948Y166161D01*
X2303245Y166302D01*
X2302682D01*
X2302260Y166372D01*
D02*
G37*
G36*
X2121088Y140762D02*
X2120666D01*
X2119048Y140691D01*
X2117500Y140480D01*
X2116022Y140128D01*
X2114615Y139706D01*
X2113278Y139214D01*
X2112082Y138651D01*
X2110956Y138018D01*
X2109971Y137385D01*
X2109057Y136751D01*
X2108212Y136118D01*
X2107509Y135555D01*
X2106946Y135063D01*
X2106524Y134641D01*
X2106172Y134289D01*
X2105961Y134078D01*
X2105891Y134007D01*
X2104835Y132671D01*
X2103921Y131193D01*
X2103147Y129645D01*
X2102443Y128097D01*
X2101880Y126409D01*
X2101388Y124790D01*
X2100966Y123172D01*
X2100684Y121624D01*
X2100403Y120076D01*
X2100192Y118740D01*
X2100121Y117473D01*
X2099981Y116347D01*
Y115503D01*
X2099910Y114800D01*
Y114377D01*
Y114307D01*
Y114237D01*
X2099981Y111704D01*
X2100192Y109382D01*
X2100473Y107201D01*
X2100825Y105161D01*
X2101247Y103331D01*
X2101810Y101643D01*
X2102302Y100095D01*
X2102865Y98758D01*
X2103428Y97562D01*
X2103921Y96507D01*
X2104413Y95592D01*
X2104906Y94888D01*
X2105257Y94325D01*
X2105539Y93974D01*
X2105750Y93692D01*
X2105820Y93622D01*
X2106946Y92426D01*
X2108142Y91370D01*
X2109409Y90526D01*
X2110605Y89752D01*
X2111871Y89049D01*
X2113138Y88486D01*
X2114334Y88064D01*
X2115459Y87712D01*
X2116515Y87430D01*
X2117500Y87219D01*
X2118414Y87079D01*
X2119188Y87008D01*
X2119822Y86938D01*
X2120244Y86867D01*
X2120666D01*
X2122284Y86938D01*
X2123832Y87149D01*
X2125380Y87501D01*
X2126787Y87923D01*
X2128053Y88415D01*
X2129320Y88978D01*
X2130446Y89611D01*
X2131431Y90245D01*
X2132345Y90808D01*
X2133190Y91441D01*
X2133893Y92004D01*
X2134456Y92496D01*
X2134878Y92918D01*
X2135230Y93270D01*
X2135441Y93481D01*
X2135511Y93552D01*
X2136567Y94888D01*
X2137411Y96366D01*
X2138185Y97914D01*
X2138889Y99602D01*
X2139451Y101221D01*
X2139944Y102909D01*
X2140296Y104598D01*
X2140647Y106216D01*
X2140859Y107764D01*
X2141070Y109171D01*
X2141140Y110508D01*
X2141281Y111634D01*
Y112548D01*
X2141351Y113252D01*
Y113463D01*
Y113674D01*
Y113744D01*
Y113815D01*
X2141281Y116277D01*
X2141070Y118529D01*
X2140788Y120710D01*
X2140436Y122680D01*
X2140014Y124509D01*
X2139522Y126127D01*
X2138959Y127605D01*
X2138396Y129012D01*
X2137904Y130138D01*
X2137341Y131193D01*
X2136848Y132037D01*
X2136426Y132741D01*
X2136074Y133304D01*
X2135793Y133726D01*
X2135582Y133937D01*
X2135511Y134007D01*
X2134386Y135203D01*
X2133190Y136259D01*
X2131923Y137173D01*
X2130727Y137947D01*
X2129461Y138581D01*
X2128194Y139143D01*
X2126998Y139566D01*
X2125872Y139917D01*
X2124817Y140199D01*
X2123832Y140410D01*
X2122917Y140551D01*
X2122143Y140691D01*
X2121510D01*
X2121088Y140762D01*
D02*
G37*
G36*
X2454022Y166372D02*
X2453670D01*
X2452122Y166302D01*
X2450645Y166020D01*
X2449308Y165668D01*
X2447971Y165106D01*
X2446705Y164543D01*
X2445579Y163839D01*
X2444524Y163136D01*
X2443539Y162432D01*
X2442694Y161658D01*
X2441920Y160954D01*
X2441287Y160251D01*
X2440724Y159688D01*
X2440302Y159125D01*
X2440021Y158773D01*
X2439810Y158492D01*
X2439739Y158422D01*
X2439247Y157648D01*
X2438754Y156733D01*
X2438332Y155818D01*
X2437910Y154763D01*
X2437136Y152582D01*
X2436503Y150119D01*
X2435940Y147516D01*
X2435448Y144842D01*
X2435096Y142169D01*
X2434814Y139566D01*
X2434603Y136962D01*
X2434392Y134570D01*
X2434251Y132389D01*
Y131334D01*
X2434181Y130419D01*
Y129575D01*
X2434111Y128801D01*
Y128168D01*
Y127605D01*
Y127183D01*
Y126831D01*
Y126620D01*
Y126549D01*
Y124368D01*
X2434181Y122258D01*
X2434251Y120217D01*
X2434322Y118318D01*
X2434462Y116488D01*
X2434603Y114729D01*
X2434814Y113041D01*
X2434955Y111493D01*
X2435166Y109945D01*
X2435448Y108538D01*
X2435659Y107201D01*
X2435870Y105935D01*
X2436151Y104738D01*
X2436433Y103683D01*
X2436644Y102628D01*
X2436925Y101643D01*
X2437418Y99884D01*
X2437980Y98477D01*
X2438403Y97280D01*
X2438825Y96295D01*
X2439247Y95592D01*
X2439528Y95099D01*
X2439669Y94748D01*
X2439739Y94677D01*
X2440795Y93270D01*
X2441920Y92074D01*
X2443117Y91019D01*
X2444242Y90104D01*
X2445438Y89330D01*
X2446564Y88697D01*
X2447690Y88204D01*
X2448745Y87782D01*
X2449730Y87430D01*
X2450645Y87219D01*
X2451489Y87008D01*
X2452193Y86938D01*
X2452756Y86867D01*
X2453178Y86797D01*
X2453530D01*
X2455007Y86867D01*
X2456485Y87149D01*
X2457892Y87501D01*
X2459158Y88064D01*
X2460425Y88626D01*
X2461550Y89260D01*
X2462606Y90034D01*
X2463520Y90737D01*
X2464435Y91441D01*
X2465139Y92215D01*
X2465842Y92848D01*
X2466405Y93481D01*
X2466827Y93974D01*
X2467109Y94325D01*
X2467320Y94607D01*
X2467390Y94677D01*
X2467883Y95451D01*
X2468375Y96366D01*
X2468797Y97280D01*
X2469219Y98336D01*
X2469993Y100517D01*
X2470627Y102979D01*
X2471119Y105583D01*
X2471612Y108256D01*
X2471963Y110930D01*
X2472245Y113604D01*
X2472456Y116136D01*
X2472667Y118529D01*
X2472808Y120780D01*
Y121765D01*
X2472878Y122680D01*
Y123524D01*
Y124298D01*
X2472948Y124931D01*
Y125494D01*
Y125987D01*
Y126268D01*
Y126479D01*
Y126549D01*
Y128731D01*
X2472878Y130841D01*
X2472808Y132882D01*
X2472667Y134852D01*
X2472526Y136681D01*
X2472385Y138440D01*
X2472174Y140128D01*
X2471963Y141747D01*
X2471752Y143295D01*
X2471541Y144772D01*
X2471260Y146179D01*
X2470978Y147446D01*
X2470767Y148712D01*
X2470486Y149838D01*
X2470204Y150964D01*
X2469853Y151949D01*
X2469290Y153778D01*
X2468727Y155326D01*
X2468234Y156592D01*
X2467812Y157648D01*
X2467390Y158422D01*
X2467109Y158984D01*
X2466898Y159336D01*
X2466827Y159407D01*
X2465842Y160603D01*
X2464857Y161728D01*
X2463802Y162643D01*
X2462676Y163417D01*
X2461621Y164121D01*
X2460495Y164683D01*
X2459440Y165106D01*
X2458384Y165528D01*
X2457399Y165809D01*
X2456555Y166020D01*
X2455711Y166161D01*
X2455007Y166231D01*
X2454444Y166302D01*
X2454022Y166372D01*
D02*
G37*
G36*
X2378387D02*
X2378035D01*
X2376488Y166302D01*
X2375010Y166020D01*
X2373673Y165668D01*
X2372336Y165106D01*
X2371070Y164543D01*
X2369944Y163839D01*
X2368889Y163136D01*
X2367904Y162432D01*
X2367060Y161658D01*
X2366286Y160954D01*
X2365652Y160251D01*
X2365090Y159688D01*
X2364667Y159125D01*
X2364386Y158773D01*
X2364175Y158492D01*
X2364104Y158422D01*
X2363612Y157648D01*
X2363119Y156733D01*
X2362697Y155818D01*
X2362275Y154763D01*
X2361501Y152582D01*
X2360868Y150119D01*
X2360305Y147516D01*
X2359813Y144842D01*
X2359461Y142169D01*
X2359179Y139566D01*
X2358968Y136962D01*
X2358757Y134570D01*
X2358617Y132389D01*
Y131334D01*
X2358546Y130419D01*
Y129575D01*
X2358476Y128801D01*
Y128168D01*
Y127605D01*
Y127183D01*
Y126831D01*
Y126620D01*
Y126549D01*
Y124368D01*
X2358546Y122258D01*
X2358617Y120217D01*
X2358687Y118318D01*
X2358828Y116488D01*
X2358968Y114729D01*
X2359179Y113041D01*
X2359320Y111493D01*
X2359531Y109945D01*
X2359813Y108538D01*
X2360024Y107201D01*
X2360235Y105935D01*
X2360516Y104738D01*
X2360798Y103683D01*
X2361009Y102628D01*
X2361290Y101643D01*
X2361783Y99884D01*
X2362346Y98477D01*
X2362768Y97280D01*
X2363190Y96295D01*
X2363612Y95592D01*
X2363893Y95099D01*
X2364034Y94748D01*
X2364104Y94677D01*
X2365160Y93270D01*
X2366286Y92074D01*
X2367482Y91019D01*
X2368607Y90104D01*
X2369803Y89330D01*
X2370929Y88697D01*
X2372055Y88204D01*
X2373110Y87782D01*
X2374095Y87430D01*
X2375010Y87219D01*
X2375854Y87008D01*
X2376558Y86938D01*
X2377121Y86867D01*
X2377543Y86797D01*
X2377895D01*
X2379372Y86867D01*
X2380850Y87149D01*
X2382257Y87501D01*
X2383523Y88064D01*
X2384790Y88626D01*
X2385915Y89260D01*
X2386971Y90034D01*
X2387885Y90737D01*
X2388800Y91441D01*
X2389504Y92215D01*
X2390207Y92848D01*
X2390770Y93481D01*
X2391192Y93974D01*
X2391474Y94325D01*
X2391685Y94607D01*
X2391755Y94677D01*
X2392248Y95451D01*
X2392740Y96366D01*
X2393162Y97280D01*
X2393584Y98336D01*
X2394358Y100517D01*
X2394992Y102979D01*
X2395484Y105583D01*
X2395977Y108256D01*
X2396328Y110930D01*
X2396610Y113604D01*
X2396821Y116136D01*
X2397032Y118529D01*
X2397173Y120780D01*
Y121765D01*
X2397243Y122680D01*
Y123524D01*
Y124298D01*
X2397313Y124931D01*
Y125494D01*
Y125987D01*
Y126268D01*
Y126479D01*
Y126549D01*
Y128731D01*
X2397243Y130841D01*
X2397173Y132882D01*
X2397032Y134852D01*
X2396891Y136681D01*
X2396751Y138440D01*
X2396540Y140128D01*
X2396328Y141747D01*
X2396117Y143295D01*
X2395906Y144772D01*
X2395625Y146179D01*
X2395343Y147446D01*
X2395132Y148712D01*
X2394851Y149838D01*
X2394570Y150964D01*
X2394218Y151949D01*
X2393655Y153778D01*
X2393092Y155326D01*
X2392599Y156592D01*
X2392177Y157648D01*
X2391755Y158422D01*
X2391474Y158984D01*
X2391263Y159336D01*
X2391192Y159407D01*
X2390207Y160603D01*
X2389222Y161728D01*
X2388167Y162643D01*
X2387041Y163417D01*
X2385986Y164121D01*
X2384860Y164683D01*
X2383805Y165106D01*
X2382749Y165528D01*
X2381764Y165809D01*
X2380920Y166020D01*
X2380076Y166161D01*
X2379372Y166231D01*
X2378809Y166302D01*
X2378387Y166372D01*
D02*
G37*
G36*
X1494057D02*
X1493706D01*
X1492158Y166302D01*
X1490680Y166020D01*
X1489343Y165668D01*
X1488007Y165106D01*
X1486740Y164543D01*
X1485615Y163839D01*
X1484559Y163136D01*
X1483574Y162432D01*
X1482730Y161658D01*
X1481956Y160954D01*
X1481323Y160251D01*
X1480760Y159688D01*
X1480338Y159125D01*
X1480056Y158773D01*
X1479845Y158492D01*
X1479775Y158422D01*
X1479282Y157648D01*
X1478790Y156733D01*
X1478368Y155818D01*
X1477945Y154763D01*
X1477172Y152582D01*
X1476538Y150119D01*
X1475975Y147516D01*
X1475483Y144842D01*
X1475131Y142169D01*
X1474850Y139566D01*
X1474639Y136962D01*
X1474428Y134570D01*
X1474287Y132389D01*
Y131334D01*
X1474217Y130419D01*
Y129575D01*
X1474146Y128801D01*
Y128168D01*
Y127605D01*
Y127183D01*
Y126831D01*
Y126620D01*
Y126549D01*
Y124368D01*
X1474217Y122258D01*
X1474287Y120217D01*
X1474357Y118318D01*
X1474498Y116488D01*
X1474639Y114729D01*
X1474850Y113041D01*
X1474990Y111493D01*
X1475202Y109945D01*
X1475483Y108538D01*
X1475694Y107201D01*
X1475905Y105935D01*
X1476187Y104738D01*
X1476468Y103683D01*
X1476679Y102628D01*
X1476960Y101643D01*
X1477453Y99884D01*
X1478016Y98477D01*
X1478438Y97280D01*
X1478860Y96295D01*
X1479282Y95592D01*
X1479564Y95099D01*
X1479704Y94748D01*
X1479775Y94677D01*
X1480830Y93270D01*
X1481956Y92074D01*
X1483152Y91019D01*
X1484278Y90104D01*
X1485474Y89330D01*
X1486600Y88697D01*
X1487725Y88204D01*
X1488781Y87782D01*
X1489766Y87430D01*
X1490680Y87219D01*
X1491525Y87008D01*
X1492228Y86938D01*
X1492791Y86867D01*
X1493213Y86797D01*
X1493565D01*
X1495042Y86867D01*
X1496520Y87149D01*
X1497927Y87501D01*
X1499194Y88064D01*
X1500460Y88626D01*
X1501586Y89260D01*
X1502641Y90034D01*
X1503556Y90737D01*
X1504470Y91441D01*
X1505174Y92215D01*
X1505878Y92848D01*
X1506440Y93481D01*
X1506863Y93974D01*
X1507144Y94325D01*
X1507355Y94607D01*
X1507425Y94677D01*
X1507918Y95451D01*
X1508410Y96366D01*
X1508833Y97280D01*
X1509255Y98336D01*
X1510029Y100517D01*
X1510662Y102979D01*
X1511154Y105583D01*
X1511647Y108256D01*
X1511999Y110930D01*
X1512280Y113604D01*
X1512491Y116136D01*
X1512702Y118529D01*
X1512843Y120780D01*
Y121765D01*
X1512913Y122680D01*
Y123524D01*
Y124298D01*
X1512984Y124931D01*
Y125494D01*
Y125987D01*
Y126268D01*
Y126479D01*
Y126549D01*
Y128731D01*
X1512913Y130841D01*
X1512843Y132882D01*
X1512702Y134852D01*
X1512562Y136681D01*
X1512421Y138440D01*
X1512210Y140128D01*
X1511999Y141747D01*
X1511788Y143295D01*
X1511577Y144772D01*
X1511295Y146179D01*
X1511014Y147446D01*
X1510803Y148712D01*
X1510521Y149838D01*
X1510240Y150964D01*
X1509888Y151949D01*
X1509325Y153778D01*
X1508762Y155326D01*
X1508270Y156592D01*
X1507848Y157648D01*
X1507425Y158422D01*
X1507144Y158984D01*
X1506933Y159336D01*
X1506863Y159407D01*
X1505878Y160603D01*
X1504893Y161728D01*
X1503837Y162643D01*
X1502711Y163417D01*
X1501656Y164121D01*
X1500530Y164683D01*
X1499475Y165106D01*
X1498420Y165528D01*
X1497435Y165809D01*
X1496590Y166020D01*
X1495746Y166161D01*
X1495042Y166231D01*
X1494480Y166302D01*
X1494057Y166372D01*
D02*
G37*
%LPD*%
D11*
X1197499Y3089052D02*
D03*
X1132501D02*
D03*
X1067502D02*
D03*
X1002498D02*
D03*
Y2810948D02*
D03*
X1067502D02*
D03*
X1132501D02*
D03*
D12*
X1197499D02*
D03*
D13*
X1099999Y2949998D02*
D03*
D16*
X2000002Y1910376D02*
D03*
Y1750000D02*
D03*
D27*
X2249999Y349998D02*
D03*
Y480000D02*
D03*
D29*
X1150001Y600005D02*
D03*
D36*
X1450001Y1950000D02*
D03*
Y2074998D02*
D03*
X3050003Y3275001D02*
D03*
D39*
X3850001Y999999D02*
D03*
X3399999Y1190001D02*
D03*
Y1110001D02*
D03*
Y790002D02*
D03*
Y710002D02*
D03*
X3399994Y999999D02*
D03*
Y919999D02*
D03*
X3850001D02*
D03*
X3750001Y1190001D02*
D03*
Y1110001D02*
D03*
Y789997D02*
D03*
Y709997D02*
D03*
D46*
X2600580Y3403220D02*
X2648840Y3451480D01*
X2595500Y3398140D02*
X2600580Y3403220D01*
X1680358Y603190D02*
Y704998D01*
X1180720Y2659838D02*
Y2815642D01*
X1197499D01*
X3159380Y2630201D02*
Y2951100D01*
Y3164460D01*
X3850001Y910002D02*
X3866978D01*
X3750001D02*
X3850001D01*
X3306700Y521372D02*
Y550800D01*
Y402428D02*
Y521372D01*
X2927503Y731140D02*
X2961260D01*
X2555739Y997840D02*
X2667499D01*
X1899540D02*
X2555739D01*
X2006220Y2105280D02*
X2098950Y2198010D01*
X2005666Y2104726D02*
X2006220Y2105280D01*
Y2257680D01*
Y2104726D02*
Y2105280D01*
X2005666Y2104726D02*
Y2257126D01*
X1886840Y3149220D02*
X1900002Y3136058D01*
X2011300Y3024760D02*
X2036060Y3000000D01*
X1900002Y3136058D02*
X2011300Y3024760D01*
X3908680Y1350021D02*
Y2622063D01*
X3748660Y1190001D02*
Y1618240D01*
Y1190001D02*
X3908680Y1350021D01*
X3690240Y1190001D02*
Y1279998D01*
Y790002D02*
Y1190001D01*
X3466502Y1222803D02*
Y1272160D01*
Y822804D02*
Y1095803D01*
X3850260Y999999D02*
Y1129041D01*
X3690240Y1190001D02*
X3748660D01*
X2722500Y1361060D02*
X2774641D01*
X2582800D02*
X2722500D01*
X2507022D02*
X2582800D01*
X2507022D02*
X2537502Y1330580D01*
X1750000Y3525140D02*
X1825880D01*
X1599820Y2110319D02*
Y2400001D01*
X1002498Y2810948D02*
Y2949998D01*
X1780160Y894995D02*
X1803020D01*
Y1008000D01*
X1780160Y841828D02*
Y894995D01*
X1033400Y1135000D02*
Y1470001D01*
X3268600Y2260220D02*
Y3104999D01*
X1436899Y819679D02*
Y914995D01*
X1680358Y704998D02*
X1750000D01*
X1551768Y474600D02*
X1680358Y603190D01*
X1422020Y474600D02*
X1551768D01*
X2992502Y652400D02*
Y732004D01*
Y652400D02*
X3019055Y625847D01*
X3231653D01*
X3306700Y550800D01*
X3229271Y324999D02*
X3306700Y402428D01*
X3000000Y324999D02*
X3229271D01*
X2927503Y732004D02*
Y884277D01*
X2874900Y936880D02*
X2927503Y884277D01*
X2728459Y936880D02*
X2874900D01*
X2667499Y997840D02*
X2728459Y936880D01*
X2862505Y1473125D02*
X2961260Y1571880D01*
X2049999Y575001D02*
X2123060Y648062D01*
Y787020D01*
X1960500D02*
X2123060D01*
X1932128Y815392D02*
X1960500Y787020D01*
X1932128Y815392D02*
Y965252D01*
X1899540Y997840D02*
X1932128Y965252D01*
X2961260Y1571880D02*
Y2913000D01*
X2862500Y1268005D02*
X2862505Y1473125D01*
X2667499Y1109600D02*
Y1268005D01*
X2555739Y997840D02*
X2667499Y1109600D01*
X2834260Y3040000D02*
X2961260Y2913000D01*
X3750001Y709997D02*
X3890900D01*
X3959480Y778577D01*
Y817500D01*
X3866978Y910002D02*
X3959480Y817500D01*
X3750001Y910002D02*
Y1110001D01*
X3850001Y910002D02*
Y919999D01*
X939420Y1983360D02*
X1277240Y2321180D01*
X939420Y1419480D02*
Y1983360D01*
X931800Y1411860D02*
X939420Y1419480D01*
X2029080Y459360D02*
X2067180D01*
X2158620Y550800D01*
Y769240D01*
X2214500Y825120D01*
X2519300D01*
X2537502Y806918D01*
Y732004D02*
Y806918D01*
X2239900Y2440560D02*
X2301983Y2378477D01*
X2398020D01*
X779786Y563114D02*
Y710820D01*
Y563114D02*
X817500Y525400D01*
X1208660D01*
X1221360Y538100D01*
Y1035940D01*
X1889380Y1703960D01*
Y2364360D01*
X1952880Y2427860D01*
X1945260Y459360D02*
X1998600Y406020D01*
X2056288D01*
X2130269Y480000D01*
X2249999D01*
X3352420Y1429640D02*
X3634360Y1711580D01*
X3352420Y1127781D02*
Y1429640D01*
Y1127781D02*
X3370200Y1110001D01*
X3399999D01*
X3245740Y944500D02*
X3270241Y919999D01*
X2500001Y3687700D02*
Y3799998D01*
X2487301Y3675000D02*
X2500001Y3687700D01*
X1925402Y3675000D02*
X2487301D01*
X1886840Y3636438D02*
X1925402Y3675000D01*
X1886840Y3149220D02*
Y3636438D01*
X1599998Y2400001D02*
X1688801D01*
X2011300Y2722500D01*
Y3024760D01*
X2036060Y3000000D02*
X2280002D01*
X1099999Y2949998D02*
X1291698D01*
X1490920Y3149220D01*
X1886840D01*
X1900002Y3022672D02*
Y3136058D01*
X3690240Y790002D02*
X3750001Y789997D01*
X3399999Y790002D02*
X3433700D01*
X3466502Y822804D01*
X2797501Y1155320D02*
Y1268005D01*
Y1155320D02*
X2894021Y1058800D01*
X3429499D01*
X3466502Y1095803D01*
Y1222803D01*
X1750000Y894995D02*
X1780160D01*
Y841828D02*
X1837508Y784480D01*
Y647320D02*
Y784480D01*
X1736980Y576200D02*
X1837508Y647320D01*
X1736980Y398400D02*
Y576200D01*
Y398400D02*
X1785382Y349998D01*
X2249999D01*
X2549998Y450003D02*
X2643760D01*
X2178940Y2115440D02*
X2200962Y2093418D01*
Y1966418D02*
Y2093418D01*
X2166240Y1931696D02*
X2200962Y1966418D01*
X2166240Y1594740D02*
Y1931696D01*
Y1594740D02*
X2407499Y1353481D01*
Y1268005D02*
Y1353481D01*
X1546480Y1533780D02*
X1566343Y1553643D01*
Y1931966D01*
X1771458Y2137081D01*
Y2438269D01*
X1843553Y2510364D01*
X2270517D01*
X2292402Y2488480D01*
X2398020D01*
X1033400Y1470001D02*
X1135000D01*
X1033400Y1135000D02*
X1066420Y1101980D01*
X1244972D01*
X1858062Y1715070D01*
Y2416024D01*
X1922400Y2480362D01*
X2001978D01*
X2031620Y2450720D01*
Y2405000D02*
Y2450720D01*
X2001140Y2374520D02*
X2031620Y2405000D01*
X1970081Y2374520D02*
X2001140D01*
X1919382Y2323822D02*
X1970081Y2374520D01*
X1919382Y1765718D02*
Y2323822D01*
Y1765718D02*
X1935100Y1750000D01*
X2000002D01*
X2398020Y2158478D02*
X2570100D01*
X2625980Y2214358D01*
Y3181996D01*
X2650064Y3206080D01*
X1750000Y3525140D02*
Y3550002D01*
X1825880Y3210180D02*
Y3525140D01*
Y3210180D02*
X1886840Y3149220D01*
X2005666Y2257126D02*
X2006220Y2257680D01*
X2337339Y2048481D02*
X2398020D01*
X2187810Y2198010D02*
X2337339Y2048481D01*
X2098950Y2198010D02*
X2187810D01*
X711079Y2580001D02*
X850002D01*
X2071422Y2337258D02*
X2156080Y2252600D01*
X1986738Y2337258D02*
X2071422D01*
X1949385Y2299905D02*
X1986738Y2337258D01*
X1949385Y2051757D02*
Y2299905D01*
Y2051757D02*
X2000002Y2001140D01*
Y1910376D02*
Y2001140D01*
X3270241Y919999D02*
X3399994D01*
X1135000Y1699998D02*
X1150128D01*
X1300100Y1550026D01*
Y1383920D02*
Y1550026D01*
X1086740Y1170560D02*
X1300100Y1383920D01*
X464440Y992760D02*
Y1061340D01*
Y992760D02*
X680340Y776860D01*
X842900D01*
X870220Y749540D01*
Y710820D02*
Y749540D01*
X1909700Y724998D02*
X2049999D01*
X1867511Y682809D02*
X1909700Y724998D01*
X1867511Y508611D02*
Y682809D01*
X1790320Y431420D02*
X1867511Y508611D01*
X1747140Y1195960D02*
X1820439Y1122661D01*
X2414632D01*
X2472503Y1180532D01*
Y1268005D01*
X3750001Y1190001D02*
X3789300D01*
X3850260Y1129041D01*
X3850001Y999999D02*
X3850260D01*
X-86740Y3418460D02*
Y3743580D01*
Y3418460D02*
X4700Y3327020D01*
X842900D01*
X898780Y3382900D01*
Y3906140D01*
X919100Y3926460D01*
X2570100D01*
X2600580Y3895980D01*
Y3403220D02*
Y3895980D01*
X2398020Y2268480D02*
X2535180D01*
X3250002Y3799998D02*
Y3903600D01*
X3211902Y3941700D02*
X3250002Y3903600D01*
X2686940Y3941700D02*
X3211902D01*
X2648840Y3903600D02*
X2686940Y3941700D01*
X2648840Y3451480D02*
Y3903600D01*
X2595500Y2328800D02*
Y3398140D01*
X2535180Y2268480D02*
X2595500Y2328800D01*
X1067502Y2760600D02*
Y2810948D01*
X990596Y2747900D02*
X1067502Y2760600D01*
X952496Y2786000D02*
X990596Y2747900D01*
X952496Y2786000D02*
Y3116576D01*
X1087964Y3252044D01*
X1281456D01*
X1315701Y3217800D01*
X1335660Y3172080D01*
X1197499Y2810948D02*
Y2815642D01*
X2797501Y605339D02*
X2836800Y566040D01*
X2797501Y605339D02*
Y732004D01*
X2006962Y842900D02*
X2181480D01*
X2198457Y859877D01*
X2807422D01*
X2862500Y804800D01*
Y732004D02*
Y804800D01*
X2667504Y666756D02*
X2742820Y591440D01*
X2667499Y732004D02*
X2667504Y666756D01*
X1429640Y2686940D02*
X1510920D01*
X1098424Y2355724D02*
X1429640Y2686940D01*
X1098424Y2223075D02*
Y2355724D01*
X850002Y2249999D02*
X1071500D01*
X1098424Y2223075D01*
X3159380Y3164460D02*
X3332100D01*
X3448940Y2244980D02*
Y3047620D01*
X3332100Y3164460D02*
X3448940Y3047620D01*
X2927503Y731140D02*
Y732004D01*
X2961260Y731140D02*
X2962124Y732004D01*
X2992502D01*
X3495325Y709997D02*
X3750001D01*
X3306700Y521372D02*
X3495325Y709997D01*
X2810999Y324999D02*
X3000000D01*
X2786000Y300000D02*
X2810999Y324999D01*
X2549998Y300000D02*
X2786000D01*
X1002498Y3089052D02*
Y3111120D01*
X1113420Y3222042D01*
X1249300D01*
X1277240Y3194102D01*
Y3141600D02*
Y3194102D01*
Y3141600D02*
X1300100Y3118740D01*
X1389000D01*
X1650620Y3380360D01*
Y3649600D01*
X1676020Y3675000D01*
X1851280D01*
X1876680Y3700400D01*
Y3847720D01*
X2219580Y1703960D02*
X2227200Y1711580D01*
Y1844158D01*
X2321520Y1938478D01*
X2398020D01*
X999999Y3354579D02*
Y3550002D01*
X901320Y3255900D02*
X999999Y3354579D01*
X1803020Y2877333D02*
X1900002D01*
X1197499Y3089052D02*
Y3144140D01*
X1222899Y3169540D01*
X1527364Y2595002D02*
X1599998D01*
X1350900Y2418538D02*
X1527364Y2595002D01*
X1350900Y2384680D02*
Y2418538D01*
X1450001Y2074998D02*
Y2285579D01*
X1350900Y2384680D02*
X1450001Y2285579D01*
X1150001Y600005D02*
Y652400D01*
X1137301Y665100D02*
X1150001Y652400D01*
X1046100Y665100D02*
X1137301D01*
X985140Y726060D02*
X1046100Y665100D01*
X985140Y726060D02*
Y1739520D01*
X974980Y1749680D02*
X985140Y1739520D01*
X974980Y1749680D02*
Y1846200D01*
X1058780Y1930000D01*
X1135000D01*
X1282320D01*
X1302320Y1950000D01*
X1450001D01*
Y1960500D01*
X1599820Y2110319D01*
Y2400001D02*
X1599998D01*
X2280002Y3000000D02*
X2311020D01*
X2357543Y2953477D01*
X2389018D01*
X1002498Y2949998D02*
X1099999D01*
X1067502Y2982494D02*
X1099999Y2949998D01*
X1067502Y2982494D02*
Y3089052D01*
X2398020Y2048481D02*
X2493900D01*
X2774641Y1767739D01*
Y1413201D02*
Y1767739D01*
X2722500Y1361060D02*
X2774641Y1413201D01*
X2797501Y1268005D02*
Y1338200D01*
X2774641Y1361060D02*
X2797501Y1338200D01*
X2389018Y1479063D02*
X2507022Y1361060D01*
X2602500Y1268005D02*
Y1341360D01*
X2582800Y1361060D02*
X2602500Y1341360D01*
X2389018Y1479063D02*
Y1687480D01*
X2537502Y1268005D02*
Y1330580D01*
X2602500Y1142000D02*
Y1268005D01*
X2519300Y1058800D02*
X2602500Y1142000D01*
X1853820Y1058800D02*
X2519300D01*
X1803020Y1008000D02*
X1853820Y1058800D01*
X3748660Y1618240D02*
X3763900Y1633480D01*
X3874019D01*
X3399999Y1190001D02*
X3433700D01*
X3466502Y1222803D01*
X3748660Y1190001D02*
X3750001D01*
X3874019Y2656724D02*
X3908680Y2622063D01*
X3874019Y2656724D02*
Y2983480D01*
X2732503Y1058800D02*
Y1268005D01*
Y1058800D02*
X2791304Y999999D01*
X3399994D01*
X2000002Y1202442D02*
Y1750000D01*
X1985900Y1188340D02*
X2000002Y1202442D01*
X2927503Y1268005D02*
Y1338200D01*
X2952903Y1363600D01*
X3103500D01*
X3187320Y1447420D01*
Y2178940D01*
X3268600Y2260220D01*
X3250002Y3104999D02*
X3268600D01*
X1436899Y914995D02*
X1450001D01*
X1414400Y797180D02*
X1436899Y819679D01*
X3050003Y2331000D02*
Y3275001D01*
X3157160D01*
X3177160Y3295001D01*
X3250002D01*
X1450001Y584999D02*
X1473999D01*
X1660780Y771780D01*
Y980060D01*
X1678560Y997840D01*
X3263520Y1269620D02*
X3281300D01*
X3167000Y1173100D02*
X3263520Y1269620D01*
X3005202Y1173100D02*
X3167000D01*
X2992502Y1185800D02*
X3005202Y1173100D01*
X2992502Y1185800D02*
Y1268005D01*
X2407499Y649819D02*
Y732004D01*
X2392300Y634620D02*
X2407499Y649819D01*
X2252600Y634620D02*
X2392300D01*
X2211960Y675260D02*
X2252600Y634620D01*
X2211960Y675260D02*
Y746380D01*
X3176759Y475001D02*
X3235580Y416180D01*
X3000000Y475001D02*
X3176759D01*
D47*
X3250002Y3550002D02*
D03*
X3000000D02*
D03*
X2749998D02*
D03*
X2500001D02*
D03*
X2249999D02*
D03*
X2000002D02*
D03*
X1750000D02*
D03*
X1499998D02*
D03*
X1250001D02*
D03*
X899999Y149998D02*
D03*
X1650000D02*
D03*
X3399999D02*
D03*
X3150002D02*
D03*
X2900000D02*
D03*
X2649998D02*
D03*
X2400001D02*
D03*
X2149999D02*
D03*
X650002D02*
D03*
X1900002D02*
D03*
X1150001D02*
D03*
X1399998D02*
D03*
X750002Y3799998D02*
D03*
X999999D02*
D03*
X1250001D02*
D03*
X1499998D02*
D03*
X999999Y3550002D02*
D03*
X750002D02*
D03*
X2000002Y3799998D02*
D03*
X1750000D02*
D03*
X2249999D02*
D03*
X2500001D02*
D03*
X2749998D02*
D03*
X3000000D02*
D03*
X3250002D02*
D03*
D48*
X3579999Y899999D02*
D03*
Y1399998D02*
D03*
D49*
X3770001Y2300001D02*
D03*
X3750001Y1950000D02*
D03*
D50*
X450003Y3550002D02*
D03*
X3550002D02*
D03*
Y450003D02*
D03*
X450003D02*
D03*
D51*
X472060Y799720D02*
D03*
X1422020Y474600D02*
D03*
X1180720Y2659838D02*
D03*
X1335660Y3172080D02*
D03*
X380178Y2749998D02*
D03*
X3448940Y2093916D02*
D03*
X2572640Y1444880D02*
D03*
X24802Y500000D02*
D03*
X1676020Y2161160D02*
D03*
X1975740Y3253360D02*
D03*
X1899540Y997840D02*
D03*
X1658240Y375540D02*
D03*
X1277240Y2321180D02*
D03*
X931800Y1411860D02*
D03*
X2029080Y459360D02*
D03*
X2074800Y1264337D02*
D03*
X2239900Y2440560D02*
D03*
X1758910Y3334640D02*
D03*
X1869060Y860680D02*
D03*
X388240Y2303400D02*
D03*
X1239140Y2737740D02*
D03*
X1952880Y2427860D02*
D03*
X1945260Y459360D02*
D03*
X3634360Y1711580D02*
D03*
X12320Y2501520D02*
D03*
X2006220Y2104726D02*
D03*
X3690240Y1279998D02*
D03*
X3466502Y1272160D02*
D03*
X2643760Y450003D02*
D03*
X2178940Y2115440D02*
D03*
X378080Y1942720D02*
D03*
X1452500Y2768936D02*
D03*
X3166177Y2552320D02*
D03*
X1401700Y2791080D02*
D03*
X1750158Y1744122D02*
D03*
X2778380Y2176400D02*
D03*
X2127302Y909062D02*
D03*
X3494660Y1871600D02*
D03*
X1597280Y1300100D02*
D03*
X1546480Y1533780D02*
D03*
X1460120Y2610740D02*
D03*
X1513460Y2504060D02*
D03*
X1869060Y1241680D02*
D03*
X1670940Y1640460D02*
D03*
X3220340Y1127380D02*
D03*
X1780160Y1907160D02*
D03*
X2650064Y3206080D02*
D03*
X3428620Y1399160D02*
D03*
X1701420Y1942720D02*
D03*
X493884Y2034160D02*
D03*
X1028320Y1803020D02*
D03*
X2847554Y2234104D02*
D03*
X634620Y2801240D02*
D03*
X1264540Y2140840D02*
D03*
X1886840Y3149220D02*
D03*
X2006220Y2257680D02*
D03*
X2005666Y2104726D02*
D03*
X2267840Y3182240D02*
D03*
X2697100Y1541400D02*
D03*
X2148460Y2018920D02*
D03*
X2156080Y2252600D02*
D03*
X2095120Y2415160D02*
D03*
X1350900Y2384680D02*
D03*
X2191640Y1218820D02*
D03*
X1743762Y3260142D02*
D03*
X1086740Y1170560D02*
D03*
X1234060Y347600D02*
D03*
X464440Y1061340D02*
D03*
X362840Y2923160D02*
D03*
X-168020Y3685160D02*
D03*
X820040Y3070480D02*
D03*
X1790320Y431420D02*
D03*
X1747140Y1195960D02*
D03*
X672720Y2468500D02*
D03*
X1766190Y3064130D02*
D03*
X1666673Y1244322D02*
D03*
X-86740Y3743580D02*
D03*
X2836800Y566040D02*
D03*
X2006962Y842900D02*
D03*
X139320Y2257680D02*
D03*
X27560Y3570860D02*
D03*
X395860Y3939160D02*
D03*
X2849200Y1694120D02*
D03*
X1193420Y2051940D02*
D03*
X1604900Y972440D02*
D03*
X2742820Y591440D02*
D03*
X1137540Y900797D02*
D03*
X1510920Y2686940D02*
D03*
X3159380Y2630201D02*
D03*
X1098424Y2223075D02*
D03*
X3448940Y2244980D02*
D03*
X3159380Y2951100D02*
D03*
X3045080Y1541400D02*
D03*
X3078100Y1510920D02*
D03*
X1081660Y748920D02*
D03*
X3065400Y1747140D02*
D03*
X2267840Y1965580D02*
D03*
X2679320Y2491360D02*
D03*
X2129898Y3150002D02*
D03*
X2834260Y3040000D02*
D03*
X3019680Y1904620D02*
D03*
X2234820Y914020D02*
D03*
X2907920Y1836040D02*
D03*
X1876680Y3847720D02*
D03*
X2778380Y2034160D02*
D03*
X1742060Y2826640D02*
D03*
X4700Y3647060D02*
D03*
X1582040Y1206958D02*
D03*
X736997Y1345043D02*
D03*
X1871600Y433960D02*
D03*
X625004Y1437260D02*
D03*
X1691260Y1145160D02*
D03*
X2219580Y1703960D02*
D03*
X1289940Y1681100D02*
D03*
X-228980Y1900800D02*
D03*
X901320Y3255900D02*
D03*
X9780Y931800D02*
D03*
X197740Y3250820D02*
D03*
X309500Y858140D02*
D03*
Y2981580D02*
D03*
X2542160Y2671700D02*
D03*
X1922400Y1584580D02*
D03*
X-104520Y1617600D02*
D03*
X1222899Y3169540D02*
D03*
X1803020Y2877333D02*
D03*
X3245740Y944500D02*
D03*
X3874019Y2656724D02*
D03*
X3119238Y2247022D02*
D03*
X505080Y2123060D02*
D03*
X944500Y578740D02*
D03*
X886080Y1533780D02*
D03*
X1150001Y337440D02*
D03*
X1985900Y1188340D02*
D03*
X3774060Y634620D02*
D03*
X1414400Y797180D02*
D03*
X3050003Y2331000D02*
D03*
X1678560Y997840D02*
D03*
X3281300Y1269620D02*
D03*
X2918080Y3215260D02*
D03*
X2211960Y746380D02*
D03*
X3235580Y416180D02*
D03*
D52*
X850002Y875001D02*
D03*
X750002D02*
D03*
X650002D02*
D03*
X850002Y975000D02*
D03*
X750002D02*
D03*
X650002D02*
D03*
X850002Y1075000D02*
D03*
X750002D02*
D03*
X650002D02*
D03*
D54*
X779786Y710820D02*
D03*
X870220D02*
D03*
D55*
X850002Y2580001D02*
D03*
Y2249999D02*
D03*
X1450001Y914995D02*
D03*
Y584999D02*
D03*
D56*
X1135000Y1930000D02*
D03*
Y1699998D02*
D03*
Y1470001D02*
D03*
D57*
X564999Y1699998D02*
D03*
D58*
X2049999Y724998D02*
D03*
Y575001D02*
D03*
X2549998Y450003D02*
D03*
Y300000D02*
D03*
X3000000Y475001D02*
D03*
Y324999D02*
D03*
D59*
X2992502Y732004D02*
D03*
X2927503D02*
D03*
X2862500D02*
D03*
X2797501D02*
D03*
X2732503D02*
D03*
X2667499D02*
D03*
X2602500D02*
D03*
X2537502D02*
D03*
X2472503D02*
D03*
X2407499D02*
D03*
Y1268005D02*
D03*
X2472503D02*
D03*
X2602500D02*
D03*
X2667499D02*
D03*
X2732503D02*
D03*
X2797501D02*
D03*
X2862500D02*
D03*
X2927503D02*
D03*
X2992502D02*
D03*
X2537502D02*
D03*
X3122499D02*
D03*
X3057501D02*
D03*
X2342501D02*
D03*
X2277502D02*
D03*
Y732004D02*
D03*
X2342501D02*
D03*
X3057501D02*
D03*
X3122499D02*
D03*
D60*
X1599998Y2595002D02*
D03*
Y2400001D02*
D03*
D61*
X1900002Y3022672D02*
D03*
Y2877333D02*
D03*
D62*
X1750000Y894995D02*
D03*
Y704998D02*
D03*
X3250002Y3295001D02*
D03*
Y3104999D02*
D03*
D63*
X2280002Y3000000D02*
D03*
D64*
X2389018Y2953477D02*
D03*
D65*
X2398020Y2598477D02*
D03*
Y2488480D02*
D03*
Y2378477D02*
D03*
Y2268480D02*
D03*
Y2158478D02*
D03*
Y2048481D02*
D03*
Y1938478D02*
D03*
Y1828481D02*
D03*
D66*
X2389018Y1687480D02*
D03*
D67*
X2554017Y1622980D02*
D03*
D68*
X3294015D02*
D03*
D69*
X3874019Y1633480D02*
D03*
Y2983480D02*
D03*
D70*
X2507499Y632080D02*
Y732004D01*
Y632080D02*
X2509140Y630439D01*
Y571120D02*
Y630439D01*
Y571120D02*
X2570100Y510160D01*
X2884755D01*
X2899995Y525400D01*
Y595087D01*
X2507499Y1173100D02*
Y1268005D01*
X2427057Y1092658D02*
X2507499Y1173100D01*
X1594740Y1092658D02*
X2427057D01*
X1494842Y992760D02*
X1594740Y1092658D01*
X1325500Y992760D02*
X1494842D01*
X1292480Y959740D02*
X1325500Y992760D01*
X1292480Y459360D02*
Y959740D01*
Y459360D02*
X1477900Y273940D01*
X2224660D01*
X2298320Y347600D01*
Y474600D01*
X2333880Y510160D01*
X2620900D01*
X2651380Y540640D01*
X2649998Y595087D02*
X2651380D01*
Y540640D02*
Y595087D01*
%TF.MD5,0424a013778246d73610d3bd719ae696*%
M02*
