%TF.GenerationSoftware,Altium Limited,Altium Designer,23.4.1 (23)*%
G04 Layer_Color=8421504*
%FSLAX45Y45*%
%MOMM*%
%TF.SameCoordinates,4B653CE8-BB44-4D49-BB7E-E91C04CCEB60*%
%TF.FilePolarity,Positive*%
%TF.FileFunction,Paste,Top*%
%TF.Part,Single*%
G01*
G75*
%TA.AperFunction,Conductor*%
%ADD12C,0.50000*%
%TA.AperFunction,SMDPad,CuDef*%
%ADD13C,0.78699*%
G04:AMPARAMS|DCode=14|XSize=0.31247mm|YSize=1.78828mm|CornerRadius=0.15624mm|HoleSize=0mm|Usage=FLASHONLY|Rotation=180.000|XOffset=0mm|YOffset=0mm|HoleType=Round|Shape=RoundedRectangle|*
%AMROUNDEDRECTD14*
21,1,0.31247,1.47581,0,0,180.0*
21,1,0.00000,1.78828,0,0,180.0*
1,1,0.31247,0.00000,0.73791*
1,1,0.31247,0.00000,0.73791*
1,1,0.31247,0.00000,-0.73791*
1,1,0.31247,0.00000,-0.73791*
%
%ADD14ROUNDEDRECTD14*%
G04:AMPARAMS|DCode=15|XSize=1.78828mm|YSize=0.31247mm|CornerRadius=0.15624mm|HoleSize=0mm|Usage=FLASHONLY|Rotation=180.000|XOffset=0mm|YOffset=0mm|HoleType=Round|Shape=RoundedRectangle|*
%AMROUNDEDRECTD15*
21,1,1.78828,0.00000,0,0,180.0*
21,1,1.47581,0.31247,0,0,180.0*
1,1,0.31247,-0.73791,0.00000*
1,1,0.31247,0.73791,0.00000*
1,1,0.31247,0.73791,0.00000*
1,1,0.31247,-0.73791,0.00000*
%
%ADD15ROUNDEDRECTD15*%
%ADD16R,1.78828X0.31247*%
%ADD17R,0.57247X0.56818*%
%ADD18R,0.80000X0.95000*%
%ADD19R,1.80000X0.60000*%
G04:AMPARAMS|DCode=20|XSize=1.9mm|YSize=3.2mm|CornerRadius=0mm|HoleSize=0mm|Usage=FLASHONLY|Rotation=270.000|XOffset=0mm|YOffset=0mm|HoleType=Round|Shape=Octagon|*
%AMOCTAGOND20*
4,1,8,1.60000,0.47500,1.60000,-0.47500,1.12500,-0.95000,-1.12500,-0.95000,-1.60000,-0.47500,-1.60000,0.47500,-1.12500,0.95000,1.12500,0.95000,1.60000,0.47500,0.0*
%
%ADD20OCTAGOND20*%

%ADD21R,1.40000X0.60000*%
%ADD22R,1.35000X0.40000*%
%ADD23R,1.90000X1.50000*%
%ADD24R,0.80000X1.70000*%
%ADD25R,1.55000X0.60000*%
%ADD26R,1.80000X1.20000*%
%ADD28R,0.90000X2.10000*%
%ADD29R,3.20000X2.10000*%
%ADD30R,2.84000X6.80000*%
%ADD31R,1.01213X1.20840*%
%ADD32R,0.52000X0.52000*%
%ADD33R,0.52000X0.52000*%
%ADD34R,0.75000X1.00000*%
%ADD35R,1.10000X2.05000*%
%ADD36R,0.95000X0.80000*%
%ADD37R,0.85000X0.95000*%
%ADD38R,0.90000X1.05000*%
%ADD39R,0.45000X0.45000*%
%ADD40R,1.25000X1.10000*%
%ADD41R,0.50000X0.35000*%
%ADD42R,0.95000X0.85000*%
%ADD43R,0.35000X0.80000*%
%ADD44R,0.85000X0.35000*%
%ADD45R,2.60000X2.70000*%
%ADD46R,2.00000X0.40000*%
G04:AMPARAMS|DCode=47|XSize=0.73107mm|YSize=0.30247mm|CornerRadius=0.15124mm|HoleSize=0mm|Usage=FLASHONLY|Rotation=180.000|XOffset=0mm|YOffset=0mm|HoleType=Round|Shape=RoundedRectangle|*
%AMROUNDEDRECTD47*
21,1,0.73107,0.00000,0,0,180.0*
21,1,0.42859,0.30247,0,0,180.0*
1,1,0.30247,-0.21430,0.00000*
1,1,0.30247,0.21430,0.00000*
1,1,0.30247,0.21430,0.00000*
1,1,0.30247,-0.21430,0.00000*
%
%ADD47ROUNDEDRECTD47*%
%ADD49R,0.91213X0.95872*%
%ADD50R,0.70000X1.30000*%
%ADD51R,0.50000X0.40000*%
%ADD52R,0.40000X0.50000*%
%ADD53R,0.73107X0.30247*%
%TA.AperFunction,NonConductor*%
%ADD126R,0.60000X0.49997*%
%ADD127R,0.60000X0.50002*%
%ADD128R,1.00000X1.75001*%
G36*
X549999Y1815001D02*
X359999D01*
Y1945001D01*
X549999D01*
Y1815001D01*
D02*
G37*
G36*
X500002Y1765003D02*
X409999Y1765001D01*
Y1815001D01*
X500002D01*
Y1765003D01*
D02*
G37*
G36*
X499999Y2535002D02*
X409996D01*
Y2584999D01*
X499999Y2585001D01*
Y2535002D01*
D02*
G37*
G36*
X549999Y2405001D02*
X359999D01*
Y2535001D01*
X549999D01*
Y2405001D01*
D02*
G37*
D12*
X512759Y1836500D02*
G03*
X477087Y1825002I-12760J-21498D01*
G01*
X522912D02*
G03*
X512759Y1836500I-22912J-10001D01*
G01*
D02*
G03*
X477087Y1825002I-12760J-21498D01*
G01*
X522912D02*
G03*
X512759Y1836500I-22912J-10001D01*
G01*
Y1793503D02*
G03*
X522912Y1825002I-12760J21498D01*
G01*
X474999Y1815001D02*
G03*
X512759Y1793503I25000J0D01*
G01*
D02*
G03*
X522912Y1825002I-12760J21498D01*
G01*
X474999Y1815001D02*
G03*
X512759Y1793503I25000J0D01*
G01*
X400910Y1791712D02*
G03*
X402286Y1791221I9090J23289D01*
G01*
X400910Y1791712D02*
G03*
X402286Y1791221I9090J23289D01*
G01*
X402287Y1791220D02*
G03*
X407712Y1790106I7712J23781D01*
G01*
X402287Y1791220D02*
G03*
X407712Y1790106I7712J23781D01*
G01*
X402287Y1791220D02*
G03*
X407712Y1790106I7712J23781D01*
G01*
X402287Y1791220D02*
G03*
X407712Y1790106I7712J23781D01*
G01*
X407720Y1790105D02*
G03*
X409998Y1790001I2279J24896D01*
G01*
X407720Y1790105D02*
G03*
X409998Y1790001I2279J24896D01*
G01*
X407720Y1790105D02*
G03*
X409998Y1790001I2279J24896D01*
G01*
X407720Y1790105D02*
G03*
X409998Y1790001I2279J24896D01*
G01*
X387087Y1804999D02*
G03*
X400904Y1791714I22912J10002D01*
G01*
X387087Y1804999D02*
G03*
X400904Y1791714I22912J10002D01*
G01*
X400910Y1791712D02*
G03*
X402286Y1791221I9090J23289D01*
G01*
X400910Y1791712D02*
G03*
X402286Y1791221I9090J23289D01*
G01*
X387087Y1804999D02*
G03*
X400904Y1791714I22912J10002D01*
G01*
X387087Y1804999D02*
G03*
X400904Y1791714I22912J10002D01*
G01*
X409998Y1790001D02*
G03*
X427450Y1797100I1J25000D01*
G01*
X409998Y1790001D02*
G03*
X427450Y1797100I1J25000D01*
G01*
X409998Y1790001D02*
G03*
X427450Y1797100I1J25000D01*
G01*
X409998Y1790001D02*
G03*
X427450Y1797100I1J25000D01*
G01*
X385106Y1812694D02*
G03*
X385107Y1812684I24893J2307D01*
G01*
X385104Y1812713D02*
G03*
X385106Y1812695I24895J2288D01*
G01*
Y1812694D02*
G03*
X385107Y1812684I24893J2307D01*
G01*
X385104Y1812713D02*
G03*
X385106Y1812695I24895J2288D01*
G01*
X385104Y1812713D02*
G03*
X385106Y1812695I24895J2288D01*
G01*
Y1812694D02*
G03*
X385107Y1812684I24893J2307D01*
G01*
X385106Y1812694D02*
G03*
X385107Y1812684I24893J2307D01*
G01*
X384999Y1814999D02*
G03*
X385037Y1813623I25000J2D01*
G01*
X384999Y1814999D02*
G03*
X385037Y1813623I25000J2D01*
G01*
X385038Y1813612D02*
G03*
X385104Y1812720I24961J1389D01*
G01*
X385037Y1813621D02*
G03*
X385038Y1813612I24962J1380D01*
G01*
X384999Y1814999D02*
G03*
X385037Y1813623I25000J2D01*
G01*
X384999Y1814999D02*
G03*
X385037Y1813623I25000J2D01*
G01*
X385038Y1813612D02*
G03*
X385104Y1812720I24961J1389D01*
G01*
X385037Y1813621D02*
G03*
X385038Y1813612I24962J1380D01*
G01*
X385104Y1812713D02*
G03*
X385106Y1812695I24895J2288D01*
G01*
X385038Y1813612D02*
G03*
X385104Y1812720I24961J1389D01*
G01*
X385037Y1813621D02*
G03*
X385038Y1813612I24962J1380D01*
G01*
D02*
G03*
X385104Y1812720I24961J1389D01*
G01*
X385037Y1813621D02*
G03*
X385038Y1813612I24962J1380D01*
G01*
X386159Y1807474D02*
G03*
X386711Y1805909I23840J7527D01*
G01*
X386159Y1807474D02*
G03*
X386711Y1805909I23840J7527D01*
G01*
X386159Y1807474D02*
G03*
X386711Y1805909I23840J7527D01*
G01*
X385737Y1808974D02*
G03*
X386157Y1807480I24263J6027D01*
G01*
X385737Y1808974D02*
G03*
X386157Y1807480I24263J6027D01*
G01*
X386712Y1805906D02*
G03*
X387087Y1804999I23287J9095D01*
G01*
X386712Y1805906D02*
G03*
X387087Y1804999I23287J9095D01*
G01*
X386712Y1805906D02*
G03*
X387087Y1804999I23287J9095D01*
G01*
X386159Y1807474D02*
G03*
X386711Y1805909I23840J7527D01*
G01*
X386712Y1805906D02*
G03*
X387087Y1804999I23287J9095D01*
G01*
X385737Y1808974D02*
G03*
X386157Y1807480I24263J6027D01*
G01*
X384999Y1815009D02*
G03*
X384999Y1815001I25000J-8D01*
G01*
X386816Y1824358D02*
G03*
X384999Y1815009I23183J-9357D01*
G01*
X385737Y1808974D02*
G03*
X386157Y1807480I24263J6027D01*
G01*
X384999Y1815009D02*
G03*
X384999Y1815001I25000J-8D01*
G01*
X386816Y1824358D02*
G03*
X384999Y1815009I23183J-9357D01*
G01*
X386818Y1824363D02*
G03*
X386817Y1824359I23181J-9362D01*
G01*
X386818Y1824363D02*
G03*
X386817Y1824359I23181J-9362D01*
G01*
X387087Y1825003D02*
G03*
X386820Y1824367I22912J-10002D01*
G01*
X387087Y1825003D02*
G03*
X386820Y1824367I22912J-10002D01*
G01*
X387087Y1825003D02*
G03*
X386820Y1824367I22912J-10002D01*
G01*
X387087Y1825003D02*
G03*
X386820Y1824367I22912J-10002D01*
G01*
X425156Y2515120D02*
G03*
X431664Y2522527I-15157J19881D01*
G01*
X425156Y2515120D02*
G03*
X431664Y2522527I-15157J19881D01*
G01*
X477087Y1825002D02*
G03*
X475719Y1820957I22912J-10001D01*
G01*
X477087Y1825002D02*
G03*
X475719Y1820957I22912J-10001D01*
G01*
X431664Y2522527D02*
G03*
X434418Y2529642I-21665J12474D01*
G01*
X431664Y2522527D02*
G03*
X434418Y2529642I-21665J12474D01*
G01*
X434418Y2529646D02*
G03*
X434910Y2532900I-24420J5356D01*
G01*
X434418Y2529646D02*
G03*
X434910Y2532900I-24420J5356D01*
G01*
Y2532901D02*
G03*
X434997Y2534683I-24912J2100D01*
G01*
Y2534684D02*
G03*
X434999Y2534866I-24998J318D01*
G01*
X434997Y2534684D02*
G03*
X434999Y2534866I-24998J318D01*
G01*
D02*
G03*
X434999Y2534902I-25000J135D01*
G01*
Y2534902D02*
G03*
X434999Y2534907I-25000J99D01*
G01*
Y2534866D02*
G03*
X434999Y2534902I-25000J135D01*
G01*
Y2534902D02*
G03*
X434999Y2534907I-25000J99D01*
G01*
Y2534907D02*
G03*
X434999Y2534912I-25000J94D01*
G01*
Y2534907D02*
G03*
X434999Y2534912I-25000J94D01*
G01*
D02*
G03*
X434999Y2534953I-25000J89D01*
G01*
X434999Y2534912D02*
G03*
X434999Y2534953I-25000J89D01*
G01*
X430011Y1800017D02*
G03*
X430024Y1800034I-20012J14984D01*
G01*
X430011Y1800017D02*
G03*
X430024Y1800034I-20012J14984D01*
G01*
X385107Y1812682D02*
G03*
X385729Y1809005I24892J2319D01*
G01*
X385107Y1812682D02*
G03*
X385729Y1809005I24892J2319D01*
G01*
X385107Y1812682D02*
G03*
X385729Y1809005I24892J2319D01*
G01*
X385107Y1812682D02*
G03*
X385729Y1809005I24892J2319D01*
G01*
X432907Y1825013D02*
G03*
X387088Y1825004I-22908J-10011D01*
G01*
X430025Y1800036D02*
G03*
X432912Y1825002I-20026J14966D01*
G01*
X432907Y1825013D02*
G03*
X387088Y1825004I-22908J-10011D01*
G01*
X432907Y1825013D02*
G03*
X387088Y1825004I-22908J-10011D01*
G01*
X432907Y1825013D02*
G03*
X387088Y1825004I-22908J-10011D01*
G01*
X430025Y1800036D02*
G03*
X432912Y1825002I-20026J14966D01*
G01*
X432911Y1825004D02*
G03*
X432908Y1825011I-22912J-10003D01*
G01*
X432911Y1825004D02*
G03*
X432908Y1825011I-22912J-10003D01*
G01*
X434999Y2534954D02*
G03*
X434999Y2534998I-25000J47D01*
G01*
Y2534954D02*
G03*
X434999Y2534998I-25000J47D01*
G01*
X398940Y2512580D02*
G03*
X400928Y2511705I11059J22421D01*
G01*
X398940Y2512580D02*
G03*
X400928Y2511705I11059J22421D01*
G01*
X388698Y2521915D02*
G03*
X398940Y2512580I21301J13087D01*
G01*
X384999Y2534998D02*
G03*
X388698Y2521915I25000J3D01*
G01*
X420934Y2512520D02*
G03*
X422473Y2513336I-10935J22482D01*
G01*
X400932Y2511704D02*
G03*
X420931Y2512518I9067J23298D01*
G01*
X384999Y2534998D02*
G03*
X388698Y2521915I25000J3D01*
G01*
D02*
G03*
X398940Y2512580I21301J13087D01*
G01*
X420934Y2512520D02*
G03*
X422473Y2513336I-10935J22482D01*
G01*
X422475Y2513337D02*
G03*
X425156Y2515120I-12476J21664D01*
G01*
X422475Y2513337D02*
G03*
X425156Y2515120I-12476J21664D01*
G01*
X385734Y1808984D02*
G03*
X385736Y1808978I24265J6017D01*
G01*
X385734Y1808984D02*
G03*
X385736Y1808978I24265J6017D01*
G01*
X400932Y2511704D02*
G03*
X420930Y2512517I9067J23298D01*
G01*
X434999Y2535000D02*
G03*
X384999Y2535001I-25000J1D01*
G01*
X385730Y1808999D02*
G03*
X385732Y1808995I24269J6002D01*
G01*
X385730Y1808999D02*
G03*
X385732Y1808995I24269J6002D01*
G01*
X427459Y1797109D02*
G03*
X427469Y1797118I-17460J17892D01*
G01*
X427459Y1797109D02*
G03*
X427469Y1797118I-17460J17892D01*
G01*
D02*
G03*
X427473Y1797122I-17470J17883D01*
G01*
X427469Y1797118D02*
G03*
X427473Y1797122I-17470J17883D01*
G01*
X427474Y1797123D02*
G03*
X428102Y1797759I-17475J17878D01*
G01*
X427474Y1797123D02*
G03*
X428102Y1797759I-17475J17878D01*
G01*
X428102Y1797759D02*
G03*
X428113Y1797771I-18103J17242D01*
G01*
X428102Y1797759D02*
G03*
X428113Y1797771I-18103J17242D01*
G01*
X427450Y1797100D02*
G03*
X427453Y1797103I-17451J17902D01*
G01*
X427450Y1797100D02*
G03*
X427453Y1797103I-17451J17902D01*
G01*
X474999Y2535000D02*
G03*
X499995Y2560001I25000J2D01*
G01*
X483248Y2553559D02*
G03*
X474999Y2535006I16751J-18558D01*
G01*
X483248Y2553559D02*
G03*
X474999Y2535006I16751J-18558D01*
G01*
X483252Y2553563D02*
G03*
X483248Y2553560I16747J-18562D01*
G01*
X483252Y2553563D02*
G03*
X483248Y2553560I16747J-18562D01*
G01*
X499994Y2560001D02*
G03*
X483252Y2553563I5J-25000D01*
G01*
X499994Y2560001D02*
G03*
X483252Y2553563I5J-25000D01*
G01*
X427456Y1797105D02*
G03*
X427459Y1797108I-17456J17896D01*
G01*
X427456Y1797105D02*
G03*
X427459Y1797108I-17456J17896D01*
G01*
X428118Y1797776D02*
G03*
X430009Y1800015I-18119J17225D01*
G01*
X428118Y1797776D02*
G03*
X430009Y1800015I-18119J17225D01*
G01*
X475719Y1820957D02*
G03*
X474999Y1815001I24280J-5956D01*
G01*
X474999Y2535006D02*
G03*
X474999Y2535001I25000J-5D01*
G01*
Y2535000D02*
G03*
X499996Y2560001I25000J2D01*
G01*
D13*
X452120Y543560D02*
D03*
X325120D02*
D03*
X452120Y670560D02*
D03*
X325120D02*
D03*
X452120Y797560D02*
D03*
X325120D02*
D03*
D14*
X2925001Y1580875D02*
D03*
X2874994D02*
D03*
X2825001D02*
D03*
X2774999D02*
D03*
X2725002D02*
D03*
X2674999D02*
D03*
X2625002D02*
D03*
X2574999D02*
D03*
X2525002D02*
D03*
X2475000D02*
D03*
X2425002D02*
D03*
X2374995D02*
D03*
X2325002D02*
D03*
X2275000D02*
D03*
X2375000Y2719121D02*
D03*
X2425002D02*
D03*
X2475000D02*
D03*
X2525002D02*
D03*
X2574999Y2719115D02*
D03*
X2625002Y2719121D02*
D03*
X2674999D02*
D03*
X2725002D02*
D03*
X2774999Y2719115D02*
D03*
X2825001D02*
D03*
X3025001Y2719121D02*
D03*
X2275000Y2719115D02*
D03*
X3025001Y1580875D02*
D03*
X2874999Y2719121D02*
D03*
X2925001D02*
D03*
X2974999Y1580875D02*
D03*
X2325002Y2719115D02*
D03*
X2974999Y2719121D02*
D03*
D15*
X2080878Y1874992D02*
D03*
Y1924995D02*
D03*
Y1974997D02*
D03*
Y2025000D02*
D03*
Y2074997D02*
D03*
Y2124999D02*
D03*
Y2174997D02*
D03*
Y2224999D02*
D03*
Y2274996D02*
D03*
Y2324999D02*
D03*
Y2374996D02*
D03*
Y2424999D02*
D03*
Y2474996D02*
D03*
Y2524999D02*
D03*
X3219123D02*
D03*
Y2474996D02*
D03*
Y2424999D02*
D03*
Y2374996D02*
D03*
Y2274991D02*
D03*
Y2224999D02*
D03*
Y2174997D02*
D03*
Y2124999D02*
D03*
X3219118Y2074997D02*
D03*
X3219123Y2025000D02*
D03*
Y1974997D02*
D03*
Y1924995D02*
D03*
Y1874997D02*
D03*
Y1824995D02*
D03*
X2080878Y1774997D02*
D03*
Y1824995D02*
D03*
X3219123Y2324994D02*
D03*
D16*
Y1774992D02*
D03*
D17*
X2525002Y2929783D02*
D03*
Y3020217D02*
D03*
D18*
X3665005Y2249998D02*
D03*
X3535003D02*
D03*
X2937500Y925000D02*
D03*
X2812497D02*
D03*
X2585002Y1024996D02*
D03*
X3112504Y1050000D02*
D03*
X2987506D02*
D03*
X2715004Y1024996D02*
D03*
D19*
X4344993Y2875005D02*
D03*
D20*
X4094996D02*
D03*
D21*
X4364993Y3025008D02*
D03*
Y2725008D02*
D03*
D22*
X725000Y2045000D02*
D03*
Y2109999D02*
D03*
Y2174997D02*
D03*
Y2239996D02*
D03*
Y2304999D02*
D03*
D23*
X454998Y2074997D02*
D03*
Y2274997D02*
D03*
D24*
X569999Y1550000D02*
D03*
X229994D02*
D03*
D25*
X4805002Y3275000D02*
D03*
Y3175000D02*
D03*
Y2575001D02*
D03*
Y2675001D02*
D03*
Y2775001D02*
D03*
Y2875000D02*
D03*
Y2975000D02*
D03*
Y3075000D02*
D03*
D26*
X5192499Y2444999D02*
D03*
Y3405002D02*
D03*
D28*
X3930003Y1434998D02*
D03*
X3700001D02*
D03*
X3470004D02*
D03*
D29*
X3700001Y864997D02*
D03*
D30*
X1824998Y1200002D02*
D03*
D31*
X4550002Y980186D02*
D03*
Y819815D02*
D03*
X3250004Y1380185D02*
D03*
Y1219809D02*
D03*
X2950000Y3380186D02*
D03*
X4100000Y2319807D02*
D03*
X2950000Y3219810D02*
D03*
X4100000Y2480183D02*
D03*
D32*
X3424997Y2310001D02*
D03*
Y2390001D02*
D03*
X1018503Y3031490D02*
D03*
Y2951490D02*
D03*
X1859245Y1784266D02*
D03*
X1025000Y3109996D02*
D03*
X1859245Y1704266D02*
D03*
X1025000Y3189996D02*
D03*
D33*
X3489999Y1774998D02*
D03*
X3410000D02*
D03*
X4535001Y3249996D02*
D03*
X4615000D02*
D03*
X3615001Y2074992D02*
D03*
X2990000Y3049996D02*
D03*
X2315010Y2924997D02*
D03*
X2959997Y1299997D02*
D03*
X2235010Y2924997D02*
D03*
X2910000Y3049996D02*
D03*
X3039997Y1299997D02*
D03*
X3535001Y2074992D02*
D03*
D34*
X650005Y2924998D02*
D03*
X800002D02*
D03*
X1485908Y2374986D02*
D03*
X1635906D02*
D03*
X649999Y2724998D02*
D03*
X800002D02*
D03*
D35*
X4160000Y1649999D02*
D03*
X4490002D02*
D03*
D36*
X2699998Y3059999D02*
D03*
Y3190001D02*
D03*
X1450003Y3614999D02*
D03*
Y3485002D02*
D03*
D37*
X2592500Y3549995D02*
D03*
X2457499D02*
D03*
D38*
X682501Y3324997D02*
D03*
X817502D02*
D03*
X1157502Y2724998D02*
D03*
X1292503D02*
D03*
X682501Y3124997D02*
D03*
X817497D02*
D03*
D39*
X1810002Y1900001D02*
D03*
X1890002D02*
D03*
X1810002Y2025000D02*
D03*
X1890002D02*
D03*
D40*
X492499Y3124997D02*
D03*
X257498D02*
D03*
Y2724998D02*
D03*
Y3325002D02*
D03*
Y2924998D02*
D03*
X492499Y2724998D02*
D03*
Y2924998D02*
D03*
Y3325002D02*
D03*
D41*
X1305005Y3172500D02*
D03*
Y3107502D02*
D03*
Y3042503D02*
D03*
Y2977505D02*
D03*
X1145000D02*
D03*
Y3042503D02*
D03*
Y3107502D02*
D03*
Y3172500D02*
D03*
D42*
X2525002Y3215000D02*
D03*
Y3350001D02*
D03*
D43*
X2124998Y3750000D02*
D03*
X2075000D02*
D03*
X2024998D02*
D03*
X1974996D02*
D03*
X1924998D02*
D03*
X1874996D02*
D03*
Y3350001D02*
D03*
X1924998D02*
D03*
X1974996D02*
D03*
X2024998D02*
D03*
X2075000D02*
D03*
X2124998D02*
D03*
D44*
X1802499Y3674999D02*
D03*
Y3625001D02*
D03*
Y3574999D02*
D03*
Y3525002D02*
D03*
Y3474999D02*
D03*
Y3424997D02*
D03*
X2197500D02*
D03*
Y3474999D02*
D03*
Y3525002D02*
D03*
Y3574999D02*
D03*
Y3625001D02*
D03*
Y3674999D02*
D03*
D45*
X1999999Y3550000D02*
D03*
D46*
X3800001Y1874997D02*
D03*
Y1754998D02*
D03*
Y1994997D02*
D03*
D47*
X4060950Y3332505D02*
D03*
X4339055Y3397504D02*
D03*
X4060950Y3202503D02*
D03*
Y3267501D02*
D03*
Y3397504D02*
D03*
X4339055Y3332505D02*
D03*
Y3267501D02*
D03*
D49*
X3700001Y3502330D02*
D03*
Y3647673D02*
D03*
D50*
X4770001Y3499998D02*
D03*
X4579999D02*
D03*
D51*
X1649997Y3514999D02*
D03*
Y3434999D02*
D03*
D52*
X1960004Y3225002D02*
D03*
X2040004D02*
D03*
D53*
X4339055Y3202503D02*
D03*
D126*
X4500002Y2400000D02*
D03*
X4300002Y2495001D02*
D03*
D127*
Y2305001D02*
D03*
D128*
X4199987Y3300006D02*
D03*
%TF.MD5,492eeda0c1f27f0f9da60f14884bb9bf*%
M02*
