%TF.GenerationSoftware,Altium Limited,Altium Designer,23.4.1 (23)*%
G04 Layer_Color=128*
%FSLAX45Y45*%
%MOMM*%
%TF.SameCoordinates,23A6EF31-BC3A-4AE1-B3CE-C8081D6B100D*%
%TF.FilePolarity,Positive*%
%TF.FileFunction,Paste,Bot*%
%TF.Part,Single*%
G01*
G75*
%TA.AperFunction,SMDPad,CuDef*%
%ADD12R,0.75000X1.00000*%
G04:AMPARAMS|DCode=28|XSize=0.73107mm|YSize=0.30247mm|CornerRadius=0.15124mm|HoleSize=0mm|Usage=FLASHONLY|Rotation=90.000|XOffset=0mm|YOffset=0mm|HoleType=Round|Shape=RoundedRectangle|*
%AMROUNDEDRECTD28*
21,1,0.73107,0.00000,0,0,90.0*
21,1,0.42859,0.30247,0,0,90.0*
1,1,0.30247,0.00000,0.21430*
1,1,0.30247,0.00000,-0.21430*
1,1,0.30247,0.00000,-0.21430*
1,1,0.30247,0.00000,0.21430*
%
%ADD28ROUNDEDRECTD28*%
%ADD31R,0.50000X0.40000*%
%ADD39R,1.01213X1.20840*%
%ADD44R,0.95000X0.80000*%
%ADD49R,0.30247X0.73107*%
%ADD51R,0.85000X0.70000*%
G04:AMPARAMS|DCode=60|XSize=1.9mm|YSize=3.2mm|CornerRadius=0mm|HoleSize=0mm|Usage=FLASHONLY|Rotation=90.000|XOffset=0mm|YOffset=0mm|HoleType=Round|Shape=Octagon|*
%AMOCTAGOND60*
4,1,8,-1.60000,-0.47500,-1.60000,0.47500,-1.12500,0.95000,1.12500,0.95000,1.60000,0.47500,1.60000,-0.47500,1.12500,-0.95000,-1.12500,-0.95000,-1.60000,-0.47500,0.0*
%
%ADD60OCTAGOND60*%

%ADD61R,1.70000X1.50000*%
%ADD62R,1.50000X1.70000*%
%ADD63R,1.68000X0.80000*%
%ADD64R,1.50000X1.60000*%
%ADD65R,0.38000X1.40000*%
%ADD66R,0.91213X0.95872*%
%ADD67R,2.05000X1.10000*%
%ADD68R,2.10000X0.90000*%
%ADD69R,1.30000X0.70000*%
%ADD70R,1.40000X1.29000*%
%ADD71R,1.30000X1.29000*%
%ADD72R,0.56818X0.57247*%
%ADD73R,2.10000X3.20000*%
%ADD74R,1.00000X0.75000*%
%TA.AperFunction,NonConductor*%
%ADD115R,1.75001X1.00000*%
D12*
X2044442Y1548923D02*
D03*
X2194439D02*
D03*
X1648415Y1518256D02*
D03*
X1798418D02*
D03*
D28*
X1917503Y2789053D02*
D03*
X1852499Y2510948D02*
D03*
X2047500Y2789053D02*
D03*
X1982501D02*
D03*
X1852499D02*
D03*
X1917503Y2510948D02*
D03*
X1982501D02*
D03*
D31*
X2400001Y1490001D02*
D03*
Y1410001D02*
D03*
X3750001Y1190001D02*
D03*
X3850001Y999999D02*
D03*
X3750001Y789997D02*
D03*
X3399999Y790002D02*
D03*
Y1190001D02*
D03*
Y1110001D02*
D03*
Y710002D02*
D03*
X3850001Y919999D02*
D03*
X3750001Y1110001D02*
D03*
Y709997D02*
D03*
D39*
X2000002Y1910376D02*
D03*
Y1750000D02*
D03*
D44*
X1999997Y334997D02*
D03*
Y464999D02*
D03*
D49*
X2047500Y2510948D02*
D03*
D51*
X1150001Y1087502D02*
D03*
Y1212500D02*
D03*
X2749998Y474996D02*
D03*
D60*
X3200000Y799999D02*
D03*
D61*
X3835000Y3030003D02*
D03*
Y1680003D02*
D03*
D62*
X2349999Y3000000D02*
D03*
D63*
X2359001Y2095003D02*
D03*
Y1875004D02*
D03*
Y1985001D02*
D03*
Y2205000D02*
D03*
Y2315003D02*
D03*
Y2425000D02*
D03*
Y2535002D02*
D03*
Y2645000D02*
D03*
D64*
X2349999Y1734003D02*
D03*
D65*
X2247505Y1218002D02*
D03*
X1987505D02*
D03*
X2052504D02*
D03*
X2572503Y682001D02*
D03*
X2507504D02*
D03*
X1792504D02*
D03*
X1727506D02*
D03*
Y1218002D02*
D03*
X1792504D02*
D03*
X2507504D02*
D03*
X2572503D02*
D03*
X2442506D02*
D03*
X2377507D02*
D03*
X2312503D02*
D03*
X2182506D02*
D03*
X2117502D02*
D03*
X1922507D02*
D03*
X1857503D02*
D03*
Y682001D02*
D03*
X1922507D02*
D03*
X1987505D02*
D03*
X2052504D02*
D03*
X2117502D02*
D03*
X2182506D02*
D03*
X2247505D02*
D03*
X2312503D02*
D03*
X2377507D02*
D03*
X2442506D02*
D03*
D66*
X1200004Y3172674D02*
D03*
Y3027336D02*
D03*
D67*
X850002Y2580001D02*
D03*
Y2249999D02*
D03*
X3000000Y1014995D02*
D03*
Y684998D02*
D03*
D68*
X1135000Y1930000D02*
D03*
Y1699998D02*
D03*
Y1470001D02*
D03*
D69*
X1379983Y755016D02*
D03*
Y565019D02*
D03*
X2749998Y1355005D02*
D03*
Y1545007D02*
D03*
D70*
X3254996Y1669502D02*
D03*
D71*
X2514997D02*
D03*
D72*
X779786Y710820D02*
D03*
X870220D02*
D03*
D73*
X564999Y1699998D02*
D03*
D74*
X1550000Y475001D02*
D03*
Y324999D02*
D03*
D115*
X1950002Y2650001D02*
D03*
%TF.MD5,ecb581333538354ac680d7bb63326ba8*%
M02*
