%TF.GenerationSoftware,Altium Limited,Altium Designer,23.4.1 (23)*%
G04 Layer_Color=8388736*
%FSLAX45Y45*%
%MOMM*%
%TF.SameCoordinates,23A6EF31-BC3A-4AE1-B3CE-C8081D6B100D*%
%TF.FilePolarity,Negative*%
%TF.FileFunction,Soldermask,Top*%
%TF.Part,Single*%
G01*
G75*
%TA.AperFunction,SMDPad,CuDef*%
%ADD11R,0.52000X0.52000*%
%ADD12R,0.75000X1.00000*%
%ADD13R,0.50000X0.35000*%
%ADD25R,1.25000X1.10000*%
%ADD26R,1.20840X1.01213*%
G04:AMPARAMS|DCode=28|XSize=0.73107mm|YSize=0.30247mm|CornerRadius=0.15124mm|HoleSize=0mm|Usage=FLASHONLY|Rotation=90.000|XOffset=0mm|YOffset=0mm|HoleType=Round|Shape=RoundedRectangle|*
%AMROUNDEDRECTD28*
21,1,0.73107,0.00000,0,0,90.0*
21,1,0.42859,0.30247,0,0,90.0*
1,1,0.30247,0.00000,0.21430*
1,1,0.30247,0.00000,-0.21430*
1,1,0.30247,0.00000,-0.21430*
1,1,0.30247,0.00000,0.21430*
%
%ADD28ROUNDEDRECTD28*%
%ADD29R,2.50000X1.75000*%
G04:AMPARAMS|DCode=30|XSize=0.31247mm|YSize=1.78828mm|CornerRadius=0.15624mm|HoleSize=0mm|Usage=FLASHONLY|Rotation=180.000|XOffset=0mm|YOffset=0mm|HoleType=Round|Shape=RoundedRectangle|*
%AMROUNDEDRECTD30*
21,1,0.31247,1.47581,0,0,180.0*
21,1,0.00000,1.78828,0,0,180.0*
1,1,0.31247,0.00000,0.73791*
1,1,0.31247,0.00000,0.73791*
1,1,0.31247,0.00000,-0.73791*
1,1,0.31247,0.00000,-0.73791*
%
%ADD30ROUNDEDRECTD30*%
%ADD31R,0.50000X0.40000*%
G04:AMPARAMS|DCode=32|XSize=1.78828mm|YSize=0.31247mm|CornerRadius=0.15624mm|HoleSize=0mm|Usage=FLASHONLY|Rotation=180.000|XOffset=0mm|YOffset=0mm|HoleType=Round|Shape=RoundedRectangle|*
%AMROUNDEDRECTD32*
21,1,1.78828,0.00000,0,0,180.0*
21,1,1.47581,0.31247,0,0,180.0*
1,1,0.31247,-0.73791,0.00000*
1,1,0.31247,0.73791,0.00000*
1,1,0.31247,0.73791,0.00000*
1,1,0.31247,-0.73791,0.00000*
%
%ADD32ROUNDEDRECTD32*%
%ADD33R,0.52000X0.52000*%
%ADD34R,0.95872X0.91213*%
%ADD38R,0.70000X1.30000*%
%ADD39R,1.01213X1.20840*%
%ADD41R,0.80000X1.70000*%
%ADD43R,1.78828X0.31247*%
%ADD46R,1.90000X2.40000*%
%ADD48R,6.80000X2.84000*%
%ADD49R,0.30247X0.73107*%
%TA.AperFunction,ComponentPad*%
%ADD57C,0.75000*%
%TA.AperFunction,NonConductor*%
%ADD79C,0.70320*%
%TA.AperFunction,SMDPad,CuDef*%
%ADD80R,1.00320X1.15320*%
%ADD81R,1.15320X1.05320*%
%ADD82R,2.00320X0.80320*%
%ADD83R,1.60320X0.80320*%
%TA.AperFunction,ConnectorPad*%
%ADD84R,1.55320X0.60320*%
%ADD85R,2.10320X1.70320*%
%TA.AperFunction,SMDPad,CuDef*%
%ADD86R,1.25320X1.15320*%
%ADD87R,1.05320X1.15320*%
%ADD88R,1.00320X0.55320*%
%ADD89R,0.55320X1.05320*%
%ADD90R,2.90320X2.80320*%
%ADD91R,0.60320X2.20320*%
%ADD92R,0.80320X2.00320*%
G04:AMPARAMS|DCode=93|XSize=2.1032mm|YSize=3.4032mm|CornerRadius=0mm|HoleSize=0mm|Usage=FLASHONLY|Rotation=180.000|XOffset=0mm|YOffset=0mm|HoleType=Round|Shape=Octagon|*
%AMOCTAGOND93*
4,1,8,0.52580,-1.70160,-0.52580,-1.70160,-1.05160,-1.17580,-1.05160,1.17580,-0.52580,1.70160,0.52580,1.70160,1.05160,1.17580,1.05160,-1.17580,0.52580,-1.70160,0.0*
%
%ADD93OCTAGOND93*%

%ADD94R,1.75320X0.80320*%
%ADD95R,2.00320X1.40320*%
%ADD96R,1.05320X0.90320*%
%ADD97R,1.15320X1.00320*%
%ADD98R,0.65320X0.65320*%
%ADD99R,0.80320X0.90320*%
%ADD100R,0.80320X1.60320*%
%ADD101R,1.05320X0.90320*%
%TA.AperFunction,ComponentPad*%
%ADD102C,1.65320*%
%TA.AperFunction,ViaPad*%
G04:AMPARAMS|DCode=103|XSize=1.7272mm|YSize=2.2032mm|CornerRadius=0.4826mm|HoleSize=0mm|Usage=FLASHONLY|Rotation=0.000|XOffset=0mm|YOffset=0mm|HoleType=Round|Shape=RoundedRectangle|*
%AMROUNDEDRECTD103*
21,1,1.72720,1.23800,0,0,0.0*
21,1,0.76200,2.20320,0,0,0.0*
1,1,0.96520,0.38100,-0.61900*
1,1,0.96520,-0.38100,-0.61900*
1,1,0.96520,-0.38100,0.61900*
1,1,0.96520,0.38100,0.61900*
%
%ADD103ROUNDEDRECTD103*%
%ADD104C,1.72720*%
%ADD105C,0.70320*%
G36*
X4196328Y1280094D02*
X4197635Y1279834D01*
X4198896Y1279406D01*
X4200090Y1278817D01*
X4201198Y1278077D01*
X4202199Y1277199D01*
X4203077Y1276198D01*
X4203817Y1275090D01*
X4204406Y1273896D01*
X4204834Y1272635D01*
X4205094Y1271328D01*
X4205181Y1269999D01*
Y1139999D01*
X4205094Y1138671D01*
X4204834Y1137364D01*
X4204406Y1136103D01*
X4203817Y1134909D01*
X4203077Y1133801D01*
X4202199Y1132800D01*
X4201198Y1131922D01*
X4200090Y1131182D01*
X4198896Y1130593D01*
X4197635Y1130165D01*
X4196328Y1129905D01*
X4194999Y1129818D01*
X4155184D01*
Y1090002D01*
X4155097Y1088673D01*
X4154837Y1087366D01*
X4154409Y1086105D01*
X4154118Y1085516D01*
X4153820Y1084911D01*
X4153080Y1083804D01*
X4152202Y1082802D01*
X4152202D01*
Y1082802D01*
X4151200Y1081924D01*
X4150093Y1081184D01*
X4149488Y1080886D01*
X4148899Y1080595D01*
X4147638Y1080167D01*
X4146331Y1079907D01*
X4145002Y1079820D01*
X4055000Y1079818D01*
D01*
X4055000D01*
X4053671Y1079905D01*
X4052364Y1080164D01*
X4051103Y1080592D01*
X4050514Y1080883D01*
X4049909Y1081181D01*
X4048801Y1081921D01*
X4047800Y1082799D01*
Y1082800D01*
X4047800D01*
X4046922Y1083801D01*
X4046182Y1084908D01*
X4045883Y1085513D01*
X4045593Y1086103D01*
X4045165Y1087364D01*
X4044905Y1088670D01*
X4044818Y1089999D01*
Y1089999D01*
D01*
Y1129818D01*
X4004999D01*
X4003670Y1129905D01*
X4002364Y1130165D01*
X4001103Y1130593D01*
X3999908Y1131182D01*
X3998801Y1131922D01*
X3997800Y1132800D01*
X3996922Y1133801D01*
X3996182Y1134909D01*
X3995592Y1136103D01*
X3995164Y1137364D01*
X3994905Y1138671D01*
X3994818Y1139999D01*
Y1269999D01*
X3994905Y1271328D01*
X3995164Y1272635D01*
X3995592Y1273896D01*
X3996182Y1275090D01*
X3996922Y1276198D01*
X3997800Y1277199D01*
X3998801Y1278077D01*
X3999908Y1278817D01*
X4001103Y1279406D01*
X4002364Y1279834D01*
X4003670Y1280094D01*
X4004999Y1280181D01*
X4194999D01*
X4196328Y1280094D01*
D02*
G37*
G36*
X4146328Y1920094D02*
X4147635Y1919835D01*
X4148896Y1919407D01*
X4149485Y1919116D01*
X4150090Y1918818D01*
X4151197Y1918078D01*
X4152199Y1917200D01*
Y1917199D01*
X4152199D01*
X4153077Y1916198D01*
X4153817Y1915091D01*
X4154115Y1914486D01*
X4154406Y1913896D01*
X4154834Y1912635D01*
X4155094Y1911329D01*
X4155181Y1910000D01*
Y1910000D01*
D01*
Y1870181D01*
X4194999D01*
X4196328Y1870094D01*
X4197635Y1869834D01*
X4198896Y1869406D01*
X4200090Y1868817D01*
X4201198Y1868077D01*
X4202199Y1867199D01*
X4203077Y1866198D01*
X4203817Y1865091D01*
X4204406Y1863896D01*
X4204834Y1862635D01*
X4205094Y1861329D01*
X4205181Y1860000D01*
Y1730000D01*
X4205094Y1728671D01*
X4204834Y1727364D01*
X4204406Y1726103D01*
X4203817Y1724909D01*
X4203077Y1723801D01*
X4202199Y1722800D01*
X4201198Y1721922D01*
X4200090Y1721182D01*
X4198896Y1720593D01*
X4197635Y1720165D01*
X4196328Y1719905D01*
X4194999Y1719818D01*
X4004999D01*
X4003670Y1719905D01*
X4002364Y1720165D01*
X4001103Y1720593D01*
X3999908Y1721182D01*
X3998801Y1721922D01*
X3997800Y1722800D01*
X3996922Y1723801D01*
X3996182Y1724909D01*
X3995592Y1726103D01*
X3995164Y1727364D01*
X3994905Y1728671D01*
X3994818Y1730000D01*
Y1860000D01*
X3994905Y1861329D01*
X3995164Y1862635D01*
X3995592Y1863896D01*
X3996182Y1865091D01*
X3996922Y1866198D01*
X3997800Y1867199D01*
X3998801Y1868077D01*
X3999908Y1868817D01*
X4001103Y1869406D01*
X4002364Y1869834D01*
X4003670Y1870094D01*
X4004999Y1870181D01*
X4044815D01*
Y1909997D01*
X4044902Y1911326D01*
X4045162Y1912633D01*
X4045590Y1913894D01*
X4045880Y1914483D01*
X4046179Y1915088D01*
X4046919Y1916196D01*
X4047797Y1917197D01*
X4047797D01*
Y1917197D01*
X4048798Y1918075D01*
X4049906Y1918815D01*
X4050511Y1919114D01*
X4051100Y1919404D01*
X4052361Y1919832D01*
X4053668Y1920092D01*
X4054996Y1920179D01*
X4144999Y1920182D01*
D01*
X4144999D01*
X4146328Y1920094D01*
D02*
G37*
D11*
X450003Y1810000D02*
D03*
Y1890000D02*
D03*
X2700006Y2589998D02*
D03*
X1350001Y690002D02*
D03*
Y490003D02*
D03*
Y610002D02*
D03*
Y410003D02*
D03*
X2700006Y2509999D02*
D03*
D12*
X3424998Y2750003D02*
D03*
X3275001D02*
D03*
Y2549998D02*
D03*
X424999Y1150001D02*
D03*
X275002D02*
D03*
X3425003Y3150002D02*
D03*
X3275001D02*
D03*
X3424998Y2549998D02*
D03*
X3274996Y2950003D02*
D03*
X3424998D02*
D03*
D13*
X1730005Y697500D02*
D03*
Y632502D02*
D03*
Y567503D02*
D03*
Y502504D02*
D03*
X1570000D02*
D03*
Y567503D02*
D03*
Y632502D02*
D03*
Y697500D02*
D03*
D25*
X3817504Y3150002D02*
D03*
Y2950003D02*
D03*
Y2749998D02*
D03*
Y2549998D02*
D03*
X3582503Y3150002D02*
D03*
Y2549998D02*
D03*
Y2749998D02*
D03*
Y2950003D02*
D03*
D26*
X2030187Y2900000D02*
D03*
X460371Y950002D02*
D03*
X1869812Y2900000D02*
D03*
X300000Y950002D02*
D03*
D28*
X1632500Y3289057D02*
D03*
X1697498Y3010953D02*
D03*
X1502497Y3289057D02*
D03*
X1567496D02*
D03*
X1697498D02*
D03*
X1632500Y3010953D02*
D03*
X1567496D02*
D03*
D29*
X1599998Y3150007D02*
D03*
D30*
X2203786Y2688240D02*
D03*
X1553790Y2688235D02*
D03*
X2203786Y1549995D02*
D03*
X2153789Y2688240D02*
D03*
X2103786D02*
D03*
X2253789Y1549995D02*
D03*
X1503788Y2688235D02*
D03*
X2253789Y2688240D02*
D03*
X2053789Y2688235D02*
D03*
X2003787D02*
D03*
X1953789Y2688240D02*
D03*
X1903787D02*
D03*
X1853790D02*
D03*
X1803787Y2688235D02*
D03*
X1753790Y2688240D02*
D03*
X1703787D02*
D03*
X1653790D02*
D03*
X1603787D02*
D03*
X1503788Y1549995D02*
D03*
X1553790D02*
D03*
X1603782D02*
D03*
X1653790D02*
D03*
X1703787D02*
D03*
X1753790D02*
D03*
X1803787D02*
D03*
X1853790D02*
D03*
X1903787D02*
D03*
X1953789D02*
D03*
X2003787D02*
D03*
X2053789D02*
D03*
X2103781D02*
D03*
X2153789D02*
D03*
D31*
X2700001Y2259996D02*
D03*
Y2060002D02*
D03*
X588900Y1726180D02*
D03*
X2700001Y2140002D02*
D03*
X600000Y2020002D02*
D03*
X2700001Y2339996D02*
D03*
X588900Y1646180D02*
D03*
X600000Y2100002D02*
D03*
D32*
X2447911Y2294114D02*
D03*
X1309666Y1794115D02*
D03*
Y1744117D02*
D03*
X2447911Y1794115D02*
D03*
Y1844117D02*
D03*
Y1894115D02*
D03*
Y1944117D02*
D03*
Y1994119D02*
D03*
X2447906Y2044117D02*
D03*
X2447911Y2094119D02*
D03*
Y2144117D02*
D03*
Y2194119D02*
D03*
Y2244111D02*
D03*
Y2344116D02*
D03*
Y2394119D02*
D03*
Y2444116D02*
D03*
Y2494118D02*
D03*
X1309666D02*
D03*
Y2444116D02*
D03*
Y2394119D02*
D03*
Y2344116D02*
D03*
Y2294119D02*
D03*
Y2244116D02*
D03*
Y2194119D02*
D03*
Y2144117D02*
D03*
Y2094119D02*
D03*
Y2044117D02*
D03*
Y1994119D02*
D03*
Y1944117D02*
D03*
Y1894115D02*
D03*
Y1844112D02*
D03*
D33*
X1610000Y2900000D02*
D03*
X2490009Y2750003D02*
D03*
X1259993D02*
D03*
X2159997Y1250001D02*
D03*
X1339993Y2750003D02*
D03*
X2410009D02*
D03*
X1690000Y2900000D02*
D03*
X2239997Y1250001D02*
D03*
D34*
X1127329Y3299999D02*
D03*
X1272673D02*
D03*
D38*
X704998Y2500001D02*
D03*
X895000D02*
D03*
D39*
X450003Y2600001D02*
D03*
Y2439625D02*
D03*
D41*
X3870402Y2278000D02*
D03*
X3530398D02*
D03*
D43*
X2447911Y1744112D02*
D03*
D46*
X1995003Y500010D02*
D03*
X2405005D02*
D03*
D48*
X2150004Y950002D02*
D03*
D49*
X1502497Y3010953D02*
D03*
D57*
X3700400Y2278000D02*
D03*
D79*
X4079999Y1140001D02*
G03*
X4055002Y1115000I-25000J-2D01*
G01*
X4079999Y1139995D02*
G03*
X4079999Y1139999I-25000J5D01*
G01*
X4079279Y1854044D02*
G03*
X4079999Y1860000I-24280J5956D01*
G01*
X4126880Y1877225D02*
G03*
X4124989Y1874986I18119J-17225D01*
G01*
X4126880Y1877225D02*
G03*
X4124989Y1874986I18119J-17225D01*
G01*
X4127543Y1877896D02*
G03*
X4127539Y1877892I17456J-17896D01*
G01*
X4127543Y1877896D02*
G03*
X4127539Y1877892I17456J-17896D01*
G01*
X4055004Y1115000D02*
G03*
X4071746Y1121438I-5J25000D01*
G01*
X4055004Y1115000D02*
G03*
X4071746Y1121438I-5J25000D01*
G01*
X4071747D02*
G03*
X4071750Y1121441I-16747J18562D01*
G01*
X4071747Y1121438D02*
G03*
X4071750Y1121441I-16747J18562D01*
G01*
X4071751Y1121441D02*
G03*
X4079999Y1139995I-16751J18558D01*
G01*
X4071751Y1121441D02*
G03*
X4079999Y1139995I-16751J18558D01*
G01*
Y1140001D02*
G03*
X4055003Y1115000I-25000J-2D01*
G01*
X4127549Y1877901D02*
G03*
X4127545Y1877898I17451J-17902D01*
G01*
X4127549Y1877901D02*
G03*
X4127545Y1877898I17451J-17902D01*
G01*
X4126896Y1877241D02*
G03*
X4126885Y1877229I18103J-17242D01*
G01*
X4126896Y1877241D02*
G03*
X4126885Y1877229I18103J-17242D01*
G01*
X4127525Y1877878D02*
G03*
X4126897Y1877242I17475J-17878D01*
G01*
X4127525Y1877878D02*
G03*
X4126897Y1877242I17475J-17878D01*
G01*
X4127530Y1877883D02*
G03*
X4127526Y1877879I17470J-17883D01*
G01*
X4127530Y1877883D02*
G03*
X4127526Y1877879I17470J-17883D01*
G01*
X4127539Y1877892D02*
G03*
X4127530Y1877883I17460J-17892D01*
G01*
X4127539Y1877892D02*
G03*
X4127530Y1877883I17460J-17892D01*
G01*
X4169268Y1866002D02*
G03*
X4169267Y1866006I-24269J-6002D01*
G01*
X4169268Y1866002D02*
G03*
X4169267Y1866006I-24269J-6002D01*
G01*
X4120000Y1140001D02*
G03*
X4170000Y1139999I25000J-1D01*
G01*
X4154067Y1163297D02*
G03*
X4134069Y1162483I-9067J-23298D01*
G01*
X4169264Y1866017D02*
G03*
X4169263Y1866022I-24265J-6017D01*
G01*
X4169264Y1866017D02*
G03*
X4169263Y1866022I-24265J-6017D01*
G01*
X4132524Y1161664D02*
G03*
X4129842Y1159880I12476J-21664D01*
G01*
X4132524Y1161664D02*
G03*
X4129842Y1159880I12476J-21664D01*
G01*
X4134065Y1162481D02*
G03*
X4132525Y1161665I10935J-22482D01*
G01*
X4166301Y1153086D02*
G03*
X4156059Y1162420I-21301J-13087D01*
G01*
X4170000Y1140002D02*
G03*
X4166301Y1153086I-25000J-3D01*
G01*
X4154067Y1163297D02*
G03*
X4134068Y1162483I-9067J-23298D01*
G01*
X4134065Y1162481D02*
G03*
X4132525Y1161665I10935J-22482D01*
G01*
X4170000Y1140002D02*
G03*
X4166301Y1153086I-25000J-3D01*
G01*
D02*
G03*
X4156059Y1162420I-21301J-13087D01*
G01*
D02*
G03*
X4154070Y1163296I-11059J-22421D01*
G01*
X4156059Y1162420D02*
G03*
X4154070Y1163296I-11059J-22421D01*
G01*
X4120000Y1140046D02*
G03*
X4120000Y1140002I25000J-47D01*
G01*
Y1140046D02*
G03*
X4120000Y1140002I25000J-47D01*
G01*
X4122088Y1849997D02*
G03*
X4122091Y1849990I22912J10003D01*
G01*
X4122088Y1849997D02*
G03*
X4122091Y1849990I22912J10003D01*
G01*
X4124974Y1874965D02*
G03*
X4122087Y1849999I20026J-14966D01*
G01*
X4122092Y1849988D02*
G03*
X4167911Y1849996I22908J10011D01*
G01*
X4122092Y1849988D02*
G03*
X4167911Y1849996I22908J10011D01*
G01*
X4122092Y1849988D02*
G03*
X4167911Y1849996I22908J10011D01*
G01*
X4124974Y1874965D02*
G03*
X4122087Y1849998I20026J-14966D01*
G01*
X4122092Y1849988D02*
G03*
X4167911Y1849996I22908J10011D01*
G01*
X4169892Y1862319D02*
G03*
X4169270Y1865996I-24892J-2319D01*
G01*
X4169892Y1862319D02*
G03*
X4169270Y1865996I-24892J-2319D01*
G01*
X4169892Y1862319D02*
G03*
X4169270Y1865996I-24892J-2319D01*
G01*
X4169892Y1862319D02*
G03*
X4169270Y1865996I-24892J-2319D01*
G01*
X4124988Y1874984D02*
G03*
X4124975Y1874967I20012J-14984D01*
G01*
X4124988Y1874984D02*
G03*
X4124975Y1874967I20012J-14984D01*
G01*
X4120000Y1140089D02*
G03*
X4120000Y1140048I25000J-89D01*
G01*
X4120000Y1140089D02*
G03*
X4120000Y1140048I25000J-89D01*
G01*
X4120000Y1140093D02*
G03*
X4120000Y1140089I25000J-94D01*
G01*
Y1140093D02*
G03*
X4120000Y1140089I25000J-94D01*
G01*
Y1140098D02*
G03*
X4120000Y1140094I25000J-99D01*
G01*
Y1140134D02*
G03*
X4120000Y1140099I25000J-135D01*
G01*
Y1140098D02*
G03*
X4120000Y1140094I25000J-99D01*
G01*
Y1140134D02*
G03*
X4120000Y1140099I25000J-135D01*
G01*
X4120002Y1140317D02*
G03*
X4120000Y1140134I24998J-318D01*
G01*
X4120002Y1140317D02*
G03*
X4120000Y1140134I24998J-318D01*
G01*
X4120088Y1142100D02*
G03*
X4120002Y1140318I24912J-2100D01*
G01*
X4120580Y1145355D02*
G03*
X4120088Y1142100I24420J-5356D01*
G01*
X4120580Y1145355D02*
G03*
X4120088Y1142100I24420J-5356D01*
G01*
X4123334Y1152474D02*
G03*
X4120581Y1145359I21665J-12474D01*
G01*
X4123334Y1152474D02*
G03*
X4120581Y1145359I21665J-12474D01*
G01*
X4079999Y1860000D02*
G03*
X4032087Y1849998I-25000J-0D01*
G01*
D02*
G03*
X4077912Y1849998I22912J10001D01*
G01*
D02*
G03*
X4079279Y1854044I-22912J10001D01*
G01*
X4079999Y1860000D02*
G03*
X4032087Y1849998I-25000J-0D01*
G01*
D02*
G03*
X4077912Y1849998I22912J10001D01*
G01*
D02*
G03*
X4079279Y1854044I-22912J10001D01*
G01*
X4129842Y1159880D02*
G03*
X4123334Y1152474I15157J-19881D01*
G01*
X4129842Y1159880D02*
G03*
X4123334Y1152474I15157J-19881D01*
G01*
X4167911Y1849997D02*
G03*
X4168179Y1850634I-22912J10002D01*
G01*
X4167911Y1849997D02*
G03*
X4168179Y1850634I-22912J10002D01*
G01*
X4167911Y1849997D02*
G03*
X4168179Y1850634I-22912J10002D01*
G01*
X4167911Y1849997D02*
G03*
X4168179Y1850634I-22912J10002D01*
G01*
X4168180Y1850638D02*
G03*
X4168182Y1850642I-23181J9362D01*
G01*
X4168180Y1850638D02*
G03*
X4168182Y1850642I-23181J9362D01*
G01*
X4168182Y1850643D02*
G03*
X4169999Y1859992I-23183J9357D01*
G01*
D02*
G03*
X4169999Y1860000I-25000J8D01*
G01*
X4169262Y1866027D02*
G03*
X4168841Y1867521I-24263J-6027D01*
G01*
X4168182Y1850643D02*
G03*
X4169999Y1859992I-23183J9357D01*
G01*
D02*
G03*
X4169999Y1860000I-25000J8D01*
G01*
X4169262Y1866027D02*
G03*
X4168841Y1867521I-24263J-6027D01*
G01*
X4168286Y1869095D02*
G03*
X4167911Y1870002I-23287J-9095D01*
G01*
X4168839Y1867527D02*
G03*
X4168287Y1869092I-23840J-7527D01*
G01*
X4168286Y1869095D02*
G03*
X4167911Y1870002I-23287J-9095D01*
G01*
X4168286Y1869095D02*
G03*
X4167911Y1870002I-23287J-9095D01*
G01*
X4168286Y1869095D02*
G03*
X4167911Y1870002I-23287J-9095D01*
G01*
X4169262Y1866027D02*
G03*
X4168841Y1867521I-24263J-6027D01*
G01*
X4169262Y1866027D02*
G03*
X4168841Y1867521I-24263J-6027D01*
G01*
X4168839Y1867527D02*
G03*
X4168287Y1869092I-23840J-7527D01*
G01*
X4168839Y1867527D02*
G03*
X4168287Y1869092I-23840J-7527D01*
G01*
X4168839Y1867527D02*
G03*
X4168287Y1869092I-23840J-7527D01*
G01*
X4169961Y1861380D02*
G03*
X4169961Y1861389I-24962J-1380D01*
G01*
D02*
G03*
X4169895Y1862281I-24961J-1389D01*
G01*
X4169961Y1861380D02*
G03*
X4169961Y1861389I-24962J-1380D01*
G01*
D02*
G03*
X4169895Y1862281I-24961J-1389D01*
G01*
X4169894Y1862288D02*
G03*
X4169893Y1862306I-24895J-2288D01*
G01*
X4169961Y1861380D02*
G03*
X4169961Y1861389I-24962J-1380D01*
G01*
D02*
G03*
X4169895Y1862281I-24961J-1389D01*
G01*
X4169999Y1860002D02*
G03*
X4169961Y1861378I-25000J-2D01*
G01*
X4169999Y1860002D02*
G03*
X4169961Y1861378I-25000J-2D01*
G01*
Y1861380D02*
G03*
X4169961Y1861389I-24962J-1380D01*
G01*
D02*
G03*
X4169895Y1862281I-24961J-1389D01*
G01*
X4169999Y1860002D02*
G03*
X4169961Y1861378I-25000J-2D01*
G01*
X4169999Y1860002D02*
G03*
X4169961Y1861378I-25000J-2D01*
G01*
X4169893Y1862307D02*
G03*
X4169892Y1862317I-24893J-2307D01*
G01*
X4169893Y1862307D02*
G03*
X4169892Y1862317I-24893J-2307D01*
G01*
X4169894Y1862288D02*
G03*
X4169893Y1862306I-24895J-2288D01*
G01*
X4169894Y1862288D02*
G03*
X4169893Y1862306I-24895J-2288D01*
G01*
Y1862307D02*
G03*
X4169892Y1862317I-24893J-2307D01*
G01*
X4169894Y1862288D02*
G03*
X4169893Y1862306I-24895J-2288D01*
G01*
Y1862307D02*
G03*
X4169892Y1862317I-24893J-2307D01*
G01*
X4145000Y1885000D02*
G03*
X4127549Y1877901I-1J-25000D01*
G01*
X4145000Y1885000D02*
G03*
X4127549Y1877901I-1J-25000D01*
G01*
X4145000Y1885000D02*
G03*
X4127549Y1877901I-1J-25000D01*
G01*
X4145000Y1885000D02*
G03*
X4127549Y1877901I-1J-25000D01*
G01*
X4167911Y1870002D02*
G03*
X4154095Y1883286I-22912J-10002D01*
G01*
X4167911Y1870002D02*
G03*
X4154095Y1883286I-22912J-10002D01*
G01*
X4154089Y1883289D02*
G03*
X4152712Y1883780I-9090J-23289D01*
G01*
X4154089Y1883289D02*
G03*
X4152712Y1883780I-9090J-23289D01*
G01*
X4167911Y1870002D02*
G03*
X4154095Y1883286I-22912J-10002D01*
G01*
X4167911Y1870002D02*
G03*
X4154095Y1883286I-22912J-10002D01*
G01*
X4147278Y1884895D02*
G03*
X4145000Y1885000I-2279J-24896D01*
G01*
X4147278Y1884895D02*
G03*
X4145000Y1885000I-2279J-24896D01*
G01*
X4147278Y1884895D02*
G03*
X4145000Y1885000I-2279J-24896D01*
G01*
X4147278Y1884895D02*
G03*
X4145000Y1885000I-2279J-24896D01*
G01*
X4152711Y1883780D02*
G03*
X4147287Y1884895I-7712J-23781D01*
G01*
X4152711Y1883780D02*
G03*
X4147287Y1884895I-7712J-23781D01*
G01*
X4152711Y1883780D02*
G03*
X4147287Y1884895I-7712J-23781D01*
G01*
X4152711Y1883780D02*
G03*
X4147287Y1884895I-7712J-23781D01*
G01*
X4154089Y1883289D02*
G03*
X4152712Y1883780I-9090J-23289D01*
G01*
X4154089Y1883289D02*
G03*
X4152712Y1883780I-9090J-23289D01*
G01*
D80*
X2687499Y1450001D02*
D03*
X2812502D02*
D03*
X3100000Y2049999D02*
D03*
X3230002D02*
D03*
X1834999Y1249996D02*
D03*
X2612493Y1250001D02*
D03*
X2737491D02*
D03*
X1965001Y1249996D02*
D03*
D81*
X1199999Y1067502D02*
D03*
Y932501D02*
D03*
D82*
X2949998Y799999D02*
D03*
D83*
X2929998Y649997D02*
D03*
Y950002D02*
D03*
D84*
X3829996Y1369996D02*
D03*
Y1434999D02*
D03*
Y1499998D02*
D03*
Y1564997D02*
D03*
Y1629995D02*
D03*
D85*
X4099998Y1399998D02*
D03*
Y1599998D02*
D03*
D86*
X2949998Y2372498D02*
D03*
Y2227500D02*
D03*
D87*
X1367501Y2849998D02*
D03*
X1232500D02*
D03*
D88*
X624998Y1127497D02*
D03*
Y1077499D02*
D03*
Y1027497D02*
D03*
Y977495D02*
D03*
Y927497D02*
D03*
Y877495D02*
D03*
X1024998D02*
D03*
Y927497D02*
D03*
Y977495D02*
D03*
Y1027497D02*
D03*
Y1077499D02*
D03*
Y1127497D02*
D03*
D89*
X700000Y804998D02*
D03*
X749997D02*
D03*
X799999D02*
D03*
X849997D02*
D03*
X899999D02*
D03*
X950002D02*
D03*
Y1199999D02*
D03*
X899999D02*
D03*
X849997D02*
D03*
X799999D02*
D03*
X749997D02*
D03*
X700000D02*
D03*
D90*
X824998Y1002498D02*
D03*
D91*
X2300001Y3050008D02*
D03*
X2180002D02*
D03*
X2420001D02*
D03*
D92*
X800004Y2830008D02*
D03*
D93*
Y3080005D02*
D03*
D94*
X45000Y3699999D02*
D03*
Y2349999D02*
D03*
Y1650000D02*
D03*
Y649997D02*
D03*
Y850002D02*
D03*
Y750002D02*
D03*
Y549997D02*
D03*
Y449998D02*
D03*
Y349998D02*
D03*
Y2449999D02*
D03*
Y3049997D02*
D03*
Y2949998D02*
D03*
Y2849998D02*
D03*
Y2749998D02*
D03*
Y2649998D02*
D03*
Y2549998D02*
D03*
Y1850000D02*
D03*
Y1750000D02*
D03*
Y1550000D02*
D03*
Y1450001D02*
D03*
Y1350001D02*
D03*
Y3599999D02*
D03*
Y3799998D02*
D03*
D95*
X-342498Y3930001D02*
D03*
Y3180000D02*
D03*
Y3470002D02*
D03*
Y2219997D02*
D03*
Y1980002D02*
D03*
Y1219999D02*
D03*
Y979999D02*
D03*
Y220001D02*
D03*
D96*
X3327503Y2349999D02*
D03*
X3172502D02*
D03*
D97*
X1350001Y935005D02*
D03*
Y1065003D02*
D03*
D98*
X3399999Y959999D02*
D03*
Y1039999D02*
D03*
Y1190001D02*
D03*
Y1110001D02*
D03*
D99*
X1045003Y450003D02*
D03*
X855001D02*
D03*
X950002Y650002D02*
D03*
D100*
X950007Y2810008D02*
D03*
X650007D02*
D03*
D101*
X2749998Y349998D02*
D03*
D102*
X3829996Y1749995D02*
D03*
Y1249996D02*
D03*
D103*
X2500001Y3799998D02*
D03*
X899999Y-50001D02*
D03*
X1150001D02*
D03*
X3250002Y3550002D02*
D03*
X3000000D02*
D03*
X2749998D02*
D03*
X2500001D02*
D03*
X2249999D02*
D03*
X2000002D02*
D03*
X1750000D02*
D03*
X1499998D02*
D03*
X1250001D02*
D03*
X1650000Y-50001D02*
D03*
X3399999D02*
D03*
X3150002D02*
D03*
X2900000D02*
D03*
X2649998D02*
D03*
X2400001D02*
D03*
X2149999D02*
D03*
X650002D02*
D03*
X1900002D02*
D03*
X1399998D02*
D03*
X750002Y3799998D02*
D03*
X999999D02*
D03*
X1250001D02*
D03*
X1499998D02*
D03*
X999999Y3550002D02*
D03*
X750002D02*
D03*
X2000002Y3799998D02*
D03*
X1750000D02*
D03*
X2249999D02*
D03*
X2749998D02*
D03*
X3000000D02*
D03*
X3250002D02*
D03*
D104*
X450003Y3550002D02*
D03*
X3550002D02*
D03*
X3650001Y349998D02*
D03*
X450003Y450003D02*
D03*
D105*
X167260Y1550000D02*
D03*
X322200Y1549020D02*
D03*
X990220Y1731900D02*
D03*
X3230500Y644780D02*
D03*
X1844417Y2168780D02*
D03*
X832080Y1368680D02*
D03*
X1718174Y2184020D02*
D03*
X1497661Y1246760D02*
D03*
X1185800Y2460880D02*
D03*
X1808100Y461900D02*
D03*
X3530662Y790002D02*
D03*
X3136520Y596520D02*
D03*
X3845180Y1104520D02*
D03*
X3540659Y799999D02*
D03*
X3686638Y1190001D02*
D03*
X3630758D02*
D03*
X829682Y2706742D02*
D03*
X992760Y2542160D02*
D03*
X992501Y2543923D02*
D03*
X1828420Y3103500D02*
D03*
X3230500Y3243200D02*
D03*
X3096063Y3131257D02*
D03*
X2984120Y3243200D02*
D03*
X1541400Y1703960D02*
D03*
X2732660Y1160400D02*
D03*
X774320Y1973200D02*
D03*
X1777620Y398400D02*
D03*
X1239140Y2544700D02*
D03*
X96140Y281560D02*
D03*
X2130680Y484760D02*
D03*
X929260Y431420D02*
D03*
X1681100Y2559940D02*
D03*
X370460Y1866037D02*
D03*
X3103500Y3027300D02*
D03*
X3245740Y1110001D02*
D03*
X3108580Y3022220D02*
D03*
X384654Y850002D02*
D03*
X3261386Y500000D02*
D03*
X2034160Y2102740D02*
D03*
X748920Y624181D02*
D03*
X1663320Y1897000D02*
D03*
X3136520Y2498980D02*
D03*
X424999Y1402142D02*
D03*
X732019Y2344116D02*
D03*
X1829477Y398400D02*
D03*
X1730630Y2281810D02*
D03*
X215845Y719319D02*
D03*
X1432180Y2044117D02*
D03*
X726060Y1872834D02*
D03*
X319660Y713360D02*
D03*
X599060Y1495680D02*
D03*
X497460Y1274700D02*
D03*
X172340Y449998D02*
D03*
X675260Y2001140D02*
D03*
X764196Y2060002D02*
D03*
X1427100Y494920D02*
D03*
X588900Y1922400D02*
D03*
X1335660Y1188340D02*
D03*
X1650620D02*
D03*
X1486912Y1344672D02*
D03*
X989814Y1732306D02*
D03*
X2054480Y1328040D02*
D03*
X1569340Y2344040D02*
D03*
X2951100Y2525132D02*
D03*
X2491360Y2595500D02*
D03*
X3172502Y2266057D02*
D03*
X1909700Y1919860D02*
D03*
X-214797Y3419202D02*
D03*
X-213740Y3469260D02*
D03*
X1909700Y3243200D02*
D03*
X3817240Y2659000D02*
D03*
X3870402Y2400702D02*
D03*
X-70205Y1650000D02*
D03*
X-214797Y1980002D02*
D03*
Y2219997D02*
D03*
X160204Y2349999D02*
D03*
X385700Y2748814D02*
D03*
X-214797Y3180000D02*
D03*
X1553790Y2561119D02*
D03*
X1041691Y3299999D02*
D03*
X-214797Y3930001D02*
D03*
X3085415Y2597283D02*
D03*
X303368Y3972180D02*
D03*
X2181480Y533020D02*
D03*
X2252600Y535560D02*
D03*
X2778319Y2194119D02*
D03*
X1483290Y1424250D02*
D03*
X2775840Y2730877D02*
D03*
X2239900Y3210180D02*
D03*
X3456560Y1819494D02*
D03*
X3316860Y2016380D02*
D03*
X1416940Y422017D02*
D03*
X2331340Y1345820D02*
D03*
X2709800Y939420D02*
D03*
X3186538Y1061340D02*
D03*
X2468500Y2924745D02*
D03*
X-94578Y2549998D02*
D03*
X1752220Y2453260D02*
D03*
X-68960Y2649998D02*
D03*
X1569340Y2496440D02*
D03*
X225680Y2883018D02*
D03*
X1145160Y2694560D02*
D03*
X2244980Y393320D02*
D03*
X2633600Y727228D02*
D03*
X1778387Y1841120D02*
D03*
X1903787Y1793617D02*
D03*
X883540Y1922400D02*
D03*
X308327Y2641510D02*
D03*
X1023240Y2265300D02*
D03*
X199838Y2749998D02*
D03*
X111380Y2044320D02*
D03*
X230714Y1750000D02*
D03*
X2547240Y2559940D02*
D03*
X2631060Y2460880D02*
D03*
X2824100Y2394119D02*
D03*
X1830960Y1731900D02*
D03*
X995300Y2336420D02*
D03*
X544531Y3198831D02*
D03*
X1782700Y3372740D02*
D03*
X1312800Y3067940D02*
D03*
X2465960Y1490600D02*
D03*
X1197042Y748920D02*
D03*
X1988440Y1419480D02*
D03*
X3317038Y1897000D02*
D03*
X1183260Y1844112D02*
D03*
X1655700Y1772540D02*
D03*
X724998Y1102498D02*
D03*
X824998D02*
D03*
X924998D02*
D03*
X724998Y1002498D02*
D03*
X824998D02*
D03*
X924998D02*
D03*
X724998Y902499D02*
D03*
X824998D02*
D03*
X924998D02*
D03*
X2989200Y2082420D02*
D03*
%TF.MD5,3dee7b7265bab66f1f18903ed89f31a7*%
M02*
