%TF.GenerationSoftware,Altium Limited,Altium Designer,23.4.1 (23)*%
G04 Layer_Physical_Order=3*
G04 Layer_Color=36540*
%FSLAX45Y45*%
%MOMM*%
%TF.SameCoordinates,23A6EF31-BC3A-4AE1-B3CE-C8081D6B100D*%
%TF.FilePolarity,Positive*%
%TF.FileFunction,Copper,L3,Inr,Signal*%
%TF.Part,Single*%
G01*
G75*
%TA.AperFunction,Conductor*%
%ADD52C,0.15000*%
%TA.AperFunction,NonConductor*%
%ADD54C,0.15000*%
%TA.AperFunction,ComponentPad*%
%ADD55C,1.45000*%
%TA.AperFunction,ViaPad*%
G04:AMPARAMS|DCode=56|XSize=1.524mm|YSize=2mm|CornerRadius=0.381mm|HoleSize=0mm|Usage=FLASHONLY|Rotation=0.000|XOffset=0mm|YOffset=0mm|HoleType=Round|Shape=RoundedRectangle|*
%AMROUNDEDRECTD56*
21,1,1.52400,1.23800,0,0,0.0*
21,1,0.76200,2.00000,0,0,0.0*
1,1,0.76200,0.38100,-0.61900*
1,1,0.76200,-0.38100,-0.61900*
1,1,0.76200,-0.38100,0.61900*
1,1,0.76200,0.38100,0.61900*
%
%ADD56ROUNDEDRECTD56*%
%TA.AperFunction,ComponentPad*%
%ADD57C,0.75000*%
%TA.AperFunction,ViaPad*%
%ADD58C,1.52400*%
%ADD59C,0.50000*%
D52*
X673802Y3649600D02*
X826202D01*
X673802D02*
X750002Y3573400D01*
X999999Y3895980D02*
X1074040D01*
X2939985Y2863785D02*
X3103500Y3027300D01*
X1497661Y1246760D02*
X1534415Y1283514D01*
Y1469645D01*
X1384677Y1619383D02*
Y2253357D01*
X1608954Y2184020D02*
X1718174D01*
X1471794Y2321180D02*
X1608954Y2184020D01*
X1452500Y2321180D02*
X1471794D01*
X1384677Y2253357D02*
X1452500Y2321180D01*
X1384677Y1619383D02*
X1534415Y1469645D01*
X944500Y2460880D02*
X1185800D01*
X474600Y1990980D02*
X944500Y2460880D01*
X474600Y1368680D02*
Y1990980D01*
X45340Y939420D02*
X474600Y1368680D01*
X45340Y163547D02*
Y939420D01*
Y163547D02*
X409927Y-201040D01*
X1452500D01*
X1526160Y-127380D01*
Y296800D01*
X1691260Y461900D01*
X1808100D01*
X2732660Y1160400D02*
X2758060Y1135000D01*
Y763159D02*
Y1135000D01*
X2149999Y155098D02*
X2758060Y763159D01*
X2149999Y-50001D02*
Y155098D01*
X96140Y235840D02*
Y281560D01*
Y235840D02*
X131700Y200280D01*
X1344118D01*
X1399998Y144400D01*
Y-50001D02*
Y144400D01*
X2106037Y509403D02*
X2130680Y484760D01*
X1682883Y509403D02*
X2106037D01*
X1504057Y330577D02*
X1682883Y509403D01*
X1030103Y330577D02*
X1504057D01*
X929260Y431420D02*
X1030103Y330577D01*
X370460Y1866037D02*
Y2081897D01*
X1152348Y2863785D01*
X2939985D01*
X3261386Y500000D02*
X3364541Y603154D01*
Y1950726D01*
X3361407Y1953860D02*
X3364541Y1950726D01*
X2183040Y1953860D02*
X3361407D01*
X2034160Y2102740D02*
X2183040Y1953860D01*
X1663320Y1897000D02*
X1916563Y2150243D01*
X2056263D01*
X2081663Y2124843D01*
X2787783D01*
X3136520Y2473580D01*
Y2498980D01*
X2123060Y2229740D02*
X2312046D01*
X2727092Y2644786D01*
X3165486D01*
X3832510Y3311810D01*
Y3893410D01*
X3700400Y4025520D02*
X3832510Y3893410D01*
X821122Y4025520D02*
X3700400D01*
X750002Y3954400D02*
X821122Y4025520D01*
X750002Y3799998D02*
Y3954400D01*
X424999Y1402142D02*
Y2037096D01*
X732019Y2344116D01*
X215845Y719319D02*
X269307Y665857D01*
X360300D01*
X367163Y672720D01*
X1000146D01*
X1589426Y1262000D01*
Y1498454D01*
X1432180Y1655700D02*
X1589426Y1498454D01*
X1432180Y1655700D02*
Y2044117D01*
X319660Y713360D02*
Y947040D01*
X599060Y1226440D01*
Y1495680D01*
X384654Y850002D02*
X879324Y1344672D01*
X1486912D01*
X3275001Y2855901D02*
X3692780Y3273680D01*
X3726145D01*
X3802508Y3350043D01*
Y3783671D01*
X3598678Y3987501D02*
X3802508Y3783671D01*
X1000461Y3987501D02*
X3598678D01*
X865760Y3852800D02*
X1000461Y3987501D01*
X865760Y3689158D02*
Y3852800D01*
X826202Y3649600D02*
X865760Y3689158D01*
X351222Y3972180D02*
X673802Y3649600D01*
X750002Y3550002D02*
Y3573400D01*
X303368Y3972180D02*
X351222D01*
X2500001Y3326212D02*
Y3550002D01*
X2150289Y2976500D02*
X2500001Y3326212D01*
X159640Y2976500D02*
X2150289D01*
X1327044Y1580496D02*
X1483290Y1424250D01*
X1327044Y1580496D02*
Y2424909D01*
X1633013Y2730877D01*
X2775840D01*
X3456560Y1819494D02*
Y1927861D01*
X3368041Y2016380D02*
X3456560Y1927861D01*
X3316860Y2016380D02*
X3368041D01*
X1416940Y422017D02*
X1476117D01*
X1897000Y842900D01*
X2613280D01*
X2709800Y939420D01*
X2331340Y1317880D02*
Y1345820D01*
Y1317880D02*
X2709800Y939420D01*
X999999Y3799998D02*
Y3895980D01*
X1074040D02*
X1101980Y3923920D01*
X3548986D01*
X3772506Y3700400D01*
Y3383886D02*
Y3700400D01*
X3692780Y3304160D02*
X3772506Y3383886D01*
X3527680Y3304160D02*
X3692780D01*
X2905380Y2681860D02*
X3527680Y3304160D01*
X1983360Y2681860D02*
X2905380D01*
X1813180Y2511680D02*
X1983360Y2681860D01*
X1584580Y2511680D02*
X1813180D01*
X1569340Y2496440D02*
X1584580Y2511680D01*
X1900002Y-50001D02*
Y258700D01*
X2034622Y393320D01*
X2244980D01*
X1462660Y2280540D02*
X1588903Y2154297D01*
Y1654054D02*
Y2154297D01*
Y1654054D02*
X2359417Y883540D01*
X2534540D01*
X883540Y1922400D02*
X1292480Y2331340D01*
Y2537080D01*
X1589182Y2833782D01*
X2991740D01*
X3278003Y3120046D01*
Y3290703D01*
X3250002Y3318704D02*
X3278003Y3290703D01*
X3250002Y3318704D02*
Y3550002D01*
X111380Y2044320D02*
Y3034920D01*
X218060Y3141600D01*
X1347598D01*
X1499998Y3294000D01*
Y3550002D01*
X1830960Y1485520D02*
Y1731900D01*
Y1485520D02*
X1960500Y1355980D01*
X2008760D01*
X2046860Y1394080D01*
X2734900D01*
X2900000Y1228980D01*
Y-50001D02*
Y1228980D01*
X544531Y3198831D02*
X1123651D01*
X2125001Y3675000D02*
X2249999Y3550002D01*
X1123651Y3198831D02*
X1366140Y3441320D01*
Y3649600D01*
X1391540Y3675000D01*
X2125001D01*
X2400001Y190201D02*
X2559798Y349998D01*
X2400001Y-50001D02*
Y190201D01*
X1988440Y1419480D02*
X2465960Y1897000D01*
X3317038D01*
X710820Y1607440D02*
X921640Y1396620D01*
X1279780D01*
D54*
X2989200Y2082420D02*
X3542580D01*
D55*
X3829996Y1749995D02*
D03*
Y1249996D02*
D03*
D56*
X2500001Y3799998D02*
D03*
X899999Y-50001D02*
D03*
X1150001D02*
D03*
X3250002Y3550002D02*
D03*
X3000000D02*
D03*
X2749998D02*
D03*
X2500001D02*
D03*
X2249999D02*
D03*
X2000002D02*
D03*
X1750000D02*
D03*
X1499998D02*
D03*
X1250001D02*
D03*
X1650000Y-50001D02*
D03*
X3399999D02*
D03*
X3150002D02*
D03*
X2900000D02*
D03*
X2649998D02*
D03*
X2400001D02*
D03*
X2149999D02*
D03*
X650002D02*
D03*
X1900002D02*
D03*
X1399998D02*
D03*
X750002Y3799998D02*
D03*
X999999D02*
D03*
X1250001D02*
D03*
X1499998D02*
D03*
X999999Y3550002D02*
D03*
X750002D02*
D03*
X2000002Y3799998D02*
D03*
X1750000D02*
D03*
X2249999D02*
D03*
X2749998D02*
D03*
X3000000D02*
D03*
X3250002D02*
D03*
D57*
X3700400Y2278000D02*
D03*
D58*
X450003Y3550002D02*
D03*
X3550002D02*
D03*
X3650001Y349998D02*
D03*
X450003Y450003D02*
D03*
D59*
X167260Y1550000D02*
D03*
X322200Y1549020D02*
D03*
X990220Y1731900D02*
D03*
X3230500Y644780D02*
D03*
X1844417Y2168780D02*
D03*
X832080Y1368680D02*
D03*
X1718174Y2184020D02*
D03*
X1497661Y1246760D02*
D03*
X1185800Y2460880D02*
D03*
X1808100Y461900D02*
D03*
X3530662Y790002D02*
D03*
X3136520Y596520D02*
D03*
X3845180Y1104520D02*
D03*
X3540659Y799999D02*
D03*
X3686638Y1190001D02*
D03*
X3630758D02*
D03*
X829682Y2706742D02*
D03*
X992760Y2542160D02*
D03*
X992501Y2543923D02*
D03*
X1828420Y3103500D02*
D03*
X3230500Y3243200D02*
D03*
X3096063Y3131257D02*
D03*
X2984120Y3243200D02*
D03*
X1541400Y1703960D02*
D03*
X2732660Y1160400D02*
D03*
X774320Y1973200D02*
D03*
X1777620Y398400D02*
D03*
X1239140Y2544700D02*
D03*
X96140Y281560D02*
D03*
X2130680Y484760D02*
D03*
X929260Y431420D02*
D03*
X1681100Y2559940D02*
D03*
X370460Y1866037D02*
D03*
X3103500Y3027300D02*
D03*
X3245740Y1110001D02*
D03*
X3108580Y3022220D02*
D03*
X384654Y850002D02*
D03*
X3261386Y500000D02*
D03*
X2034160Y2102740D02*
D03*
X748920Y624181D02*
D03*
X1663320Y1897000D02*
D03*
X3136520Y2498980D02*
D03*
X424999Y1402142D02*
D03*
X732019Y2344116D02*
D03*
X1829477Y398400D02*
D03*
X1730630Y2281810D02*
D03*
X215845Y719319D02*
D03*
X1432180Y2044117D02*
D03*
X726060Y1872834D02*
D03*
X319660Y713360D02*
D03*
X599060Y1495680D02*
D03*
X497460Y1274700D02*
D03*
X172340Y449998D02*
D03*
X675260Y2001140D02*
D03*
X764196Y2060002D02*
D03*
X1427100Y494920D02*
D03*
X588900Y1922400D02*
D03*
X1335660Y1188340D02*
D03*
X1650620D02*
D03*
X1486912Y1344672D02*
D03*
X989814Y1732306D02*
D03*
X2054480Y1328040D02*
D03*
X1569340Y2344040D02*
D03*
X2951100Y2525132D02*
D03*
X2491360Y2595500D02*
D03*
X3172502Y2266057D02*
D03*
X1909700Y1919860D02*
D03*
X-214797Y3419202D02*
D03*
X-213740Y3469260D02*
D03*
X1909700Y3243200D02*
D03*
X3817240Y2659000D02*
D03*
X3870402Y2400702D02*
D03*
X-70205Y1650000D02*
D03*
X-214797Y1980002D02*
D03*
Y2219997D02*
D03*
X160204Y2349999D02*
D03*
X385700Y2748814D02*
D03*
X-214797Y3180000D02*
D03*
X1553790Y2561119D02*
D03*
X1041691Y3299999D02*
D03*
X-214797Y3930001D02*
D03*
X3085415Y2597283D02*
D03*
X303368Y3972180D02*
D03*
X2181480Y533020D02*
D03*
X2252600Y535560D02*
D03*
X2778319Y2194119D02*
D03*
X1483290Y1424250D02*
D03*
X2775840Y2730877D02*
D03*
X2239900Y3210180D02*
D03*
X3456560Y1819494D02*
D03*
X3316860Y2016380D02*
D03*
X1416940Y422017D02*
D03*
X2331340Y1345820D02*
D03*
X2709800Y939420D02*
D03*
X3186538Y1061340D02*
D03*
X2468500Y2924745D02*
D03*
X-94578Y2549998D02*
D03*
X1752220Y2453260D02*
D03*
X-68960Y2649998D02*
D03*
X1569340Y2496440D02*
D03*
X225680Y2883018D02*
D03*
X1145160Y2694560D02*
D03*
X2244980Y393320D02*
D03*
X2633600Y727228D02*
D03*
X1778387Y1841120D02*
D03*
X1903787Y1793617D02*
D03*
X883540Y1922400D02*
D03*
X308327Y2641510D02*
D03*
X1023240Y2265300D02*
D03*
X199838Y2749998D02*
D03*
X111380Y2044320D02*
D03*
X230714Y1750000D02*
D03*
X2547240Y2559940D02*
D03*
X2631060Y2460880D02*
D03*
X2824100Y2394119D02*
D03*
X1830960Y1731900D02*
D03*
X995300Y2336420D02*
D03*
X544531Y3198831D02*
D03*
X1782700Y3372740D02*
D03*
X1312800Y3067940D02*
D03*
X2465960Y1490600D02*
D03*
X1197042Y748920D02*
D03*
X1988440Y1419480D02*
D03*
X3317038Y1897000D02*
D03*
X1183260Y1844112D02*
D03*
X1655700Y1772540D02*
D03*
X724998Y1102498D02*
D03*
X824998D02*
D03*
X924998D02*
D03*
X724998Y1002498D02*
D03*
X824998D02*
D03*
X924998D02*
D03*
X724998Y902499D02*
D03*
X824998D02*
D03*
X924998D02*
D03*
X2989200Y2082420D02*
D03*
%TF.MD5,c189339708c4b5efc650b912f9c6a5e0*%
M02*
