%TF.GenerationSoftware,Altium Limited,Altium Designer,23.4.1 (23)*%
G04 Layer_Color=16711935*
%FSLAX45Y45*%
%MOMM*%
%TF.SameCoordinates,2ABB9494-C5B4-4C01-9411-B7C80C6C87EF*%
%TF.FilePolarity,Negative*%
%TF.FileFunction,Soldermask,Bot*%
%TF.Part,Single*%
G01*
G75*
%TA.AperFunction,SMDPad,CuDef*%
G04:AMPARAMS|DCode=11|XSize=0.73107mm|YSize=0.30247mm|CornerRadius=0.15124mm|HoleSize=0mm|Usage=FLASHONLY|Rotation=90.000|XOffset=0mm|YOffset=0mm|HoleType=Round|Shape=RoundedRectangle|*
%AMROUNDEDRECTD11*
21,1,0.73107,0.00000,0,0,90.0*
21,1,0.42859,0.30247,0,0,90.0*
1,1,0.30247,0.00000,0.21430*
1,1,0.30247,0.00000,-0.21430*
1,1,0.30247,0.00000,-0.21430*
1,1,0.30247,0.00000,0.21430*
%
%ADD11ROUNDEDRECTD11*%
%ADD12R,0.30247X0.73107*%
%ADD13R,2.50000X1.75000*%
%ADD16R,1.01213X1.20840*%
%ADD39R,0.50000X0.40000*%
%TA.AperFunction,ComponentPad*%
%ADD49C,0.75000*%
%TA.AperFunction,SMDPad,CuDef*%
%ADD54R,0.56818X0.57247*%
%ADD55R,2.05000X1.10000*%
%ADD58R,1.00000X0.75000*%
%ADD59R,0.38000X1.40000*%
%ADD60R,1.45000X0.95000*%
%ADD61R,0.91213X0.95872*%
%ADD62R,1.30000X0.70000*%
%ADD80R,1.15320X1.00320*%
%ADD81R,1.15320X1.05320*%
%ADD87R,1.05320X0.90320*%
%TA.AperFunction,ViaPad*%
G04:AMPARAMS|DCode=94|XSize=1.7272mm|YSize=2.2032mm|CornerRadius=0.4826mm|HoleSize=0mm|Usage=FLASHONLY|Rotation=0.000|XOffset=0mm|YOffset=0mm|HoleType=Round|Shape=RoundedRectangle|*
%AMROUNDEDRECTD94*
21,1,1.72720,1.23800,0,0,0.0*
21,1,0.76200,2.20320,0,0,0.0*
1,1,0.96520,0.38100,-0.61900*
1,1,0.96520,-0.38100,-0.61900*
1,1,0.96520,-0.38100,0.61900*
1,1,0.96520,0.38100,0.61900*
%
%ADD94ROUNDEDRECTD94*%
%TA.AperFunction,ComponentPad*%
%ADD95C,1.65320*%
%TA.AperFunction,ViaPad*%
%ADD96C,1.72720*%
%ADD97C,0.80320*%
%ADD98C,0.70320*%
%TA.AperFunction,SMDPad,CuDef*%
%ADD99R,2.30320X1.10320*%
%ADD100R,2.30320X3.40320*%
G04:AMPARAMS|DCode=101|XSize=2.1032mm|YSize=3.4032mm|CornerRadius=0mm|HoleSize=0mm|Usage=FLASHONLY|Rotation=90.000|XOffset=0mm|YOffset=0mm|HoleType=Round|Shape=Octagon|*
%AMOCTAGOND101*
4,1,8,-1.70160,-0.52580,-1.70160,0.52580,-1.17580,1.05160,1.17580,1.05160,1.70160,0.52580,1.70160,-0.52580,1.17580,-1.05160,-1.17580,-1.05160,-1.70160,-0.52580,0.0*
%
%ADD101OCTAGOND101*%

%ADD102R,1.70320X1.90320*%
%ADD103R,1.88320X1.00320*%
%ADD104R,1.70320X1.80320*%
%ADD105R,1.50320X1.49320*%
%ADD106R,1.60320X1.49320*%
%ADD107R,1.90320X1.70320*%
D11*
X1197499Y3089052D02*
D03*
X1132501D02*
D03*
X1067502D02*
D03*
X1002498D02*
D03*
Y2810948D02*
D03*
X1067502D02*
D03*
X1132501D02*
D03*
D12*
X1197499D02*
D03*
D13*
X1099999Y2949998D02*
D03*
D16*
X2000002Y1910376D02*
D03*
Y1750000D02*
D03*
D39*
X3850001Y999999D02*
D03*
X3399999Y1190001D02*
D03*
Y1110001D02*
D03*
Y790002D02*
D03*
Y710002D02*
D03*
X3399994Y999999D02*
D03*
Y919999D02*
D03*
X3850001D02*
D03*
X3750001Y1190001D02*
D03*
Y1110001D02*
D03*
Y789997D02*
D03*
Y709997D02*
D03*
D49*
X3770001Y2300001D02*
D03*
X3750001Y1950000D02*
D03*
D54*
X779786Y710820D02*
D03*
X870220D02*
D03*
D55*
X850002Y2580001D02*
D03*
Y2249999D02*
D03*
X1450001Y914995D02*
D03*
Y584999D02*
D03*
D58*
X2049999Y724998D02*
D03*
Y575001D02*
D03*
X2549998Y450003D02*
D03*
Y300000D02*
D03*
X3000000Y475001D02*
D03*
Y324999D02*
D03*
D59*
X2992502Y732004D02*
D03*
X2927503D02*
D03*
X2862500D02*
D03*
X2797501D02*
D03*
X2732503D02*
D03*
X2667499D02*
D03*
X2602500D02*
D03*
X2537502D02*
D03*
X2472503D02*
D03*
X2407499D02*
D03*
Y1268005D02*
D03*
X2472503D02*
D03*
X2602500D02*
D03*
X2667499D02*
D03*
X2732503D02*
D03*
X2797501D02*
D03*
X2862500D02*
D03*
X2927503D02*
D03*
X2992502D02*
D03*
X2537502D02*
D03*
X3122499D02*
D03*
X3057501D02*
D03*
X2342501D02*
D03*
X2277502D02*
D03*
Y732004D02*
D03*
X2342501D02*
D03*
X3057501D02*
D03*
X3122499D02*
D03*
D60*
X1599998Y2595002D02*
D03*
Y2400001D02*
D03*
D61*
X1900002Y3022672D02*
D03*
Y2877333D02*
D03*
D62*
X1750000Y894995D02*
D03*
Y704998D02*
D03*
X3250002Y3295001D02*
D03*
Y3104999D02*
D03*
D80*
X2249999Y349998D02*
D03*
Y480000D02*
D03*
D81*
X1150001Y600005D02*
D03*
D87*
X1450001Y1950000D02*
D03*
Y2074998D02*
D03*
X3050003Y3275001D02*
D03*
D94*
X3250002Y3550002D02*
D03*
X3000000D02*
D03*
X2749998D02*
D03*
X2500001D02*
D03*
X2249999D02*
D03*
X2000002D02*
D03*
X1750000D02*
D03*
X1499998D02*
D03*
X1250001D02*
D03*
X899999Y149998D02*
D03*
X1650000D02*
D03*
X3399999D02*
D03*
X3150002D02*
D03*
X2900000D02*
D03*
X2649998D02*
D03*
X2400001D02*
D03*
X2149999D02*
D03*
X650002D02*
D03*
X1900002D02*
D03*
X1150001D02*
D03*
X1399998D02*
D03*
X750002Y3799998D02*
D03*
X999999D02*
D03*
X1250001D02*
D03*
X1499998D02*
D03*
X999999Y3550002D02*
D03*
X750002D02*
D03*
X2000002Y3799998D02*
D03*
X1750000D02*
D03*
X2249999D02*
D03*
X2500001D02*
D03*
X2749998D02*
D03*
X3000000D02*
D03*
X3250002D02*
D03*
D95*
X3579999Y899999D02*
D03*
Y1399998D02*
D03*
D96*
X450003Y3550002D02*
D03*
X3550002D02*
D03*
Y450003D02*
D03*
X450003D02*
D03*
D97*
X472060Y799720D02*
D03*
X1422020Y474600D02*
D03*
X1180720Y2659838D02*
D03*
X1335660Y3172080D02*
D03*
X380178Y2749998D02*
D03*
X3448940Y2093916D02*
D03*
X2572640Y1444880D02*
D03*
X24802Y500000D02*
D03*
X1676020Y2161160D02*
D03*
X1975740Y3253360D02*
D03*
X1899540Y997840D02*
D03*
X1658240Y375540D02*
D03*
X1277240Y2321180D02*
D03*
X931800Y1411860D02*
D03*
X2029080Y459360D02*
D03*
X2074800Y1264337D02*
D03*
X2239900Y2440560D02*
D03*
X1758910Y3334640D02*
D03*
X1869060Y860680D02*
D03*
X388240Y2303400D02*
D03*
X1239140Y2737740D02*
D03*
X1952880Y2427860D02*
D03*
X1945260Y459360D02*
D03*
X3634360Y1711580D02*
D03*
X12320Y2501520D02*
D03*
X2006220Y2104726D02*
D03*
X3690240Y1279998D02*
D03*
X3466502Y1272160D02*
D03*
X2643760Y450003D02*
D03*
X2178940Y2115440D02*
D03*
X378080Y1942720D02*
D03*
X1452500Y2768936D02*
D03*
X3166177Y2552320D02*
D03*
X1401700Y2791080D02*
D03*
X1750158Y1744122D02*
D03*
X2778380Y2176400D02*
D03*
X2127302Y909062D02*
D03*
X3494660Y1871600D02*
D03*
X1597280Y1300100D02*
D03*
X1546480Y1533780D02*
D03*
X1460120Y2610740D02*
D03*
X1513460Y2504060D02*
D03*
X1869060Y1241680D02*
D03*
X1670940Y1640460D02*
D03*
X3220340Y1127380D02*
D03*
X1780160Y1907160D02*
D03*
X2650064Y3206080D02*
D03*
X3428620Y1399160D02*
D03*
X1701420Y1942720D02*
D03*
X493884Y2034160D02*
D03*
X1028320Y1803020D02*
D03*
X2847554Y2234104D02*
D03*
X634620Y2801240D02*
D03*
X1264540Y2140840D02*
D03*
X1886840Y3149220D02*
D03*
X2006220Y2257680D02*
D03*
X2005666Y2104726D02*
D03*
X2267840Y3182240D02*
D03*
X2697100Y1541400D02*
D03*
X2148460Y2018920D02*
D03*
X2156080Y2252600D02*
D03*
X2095120Y2415160D02*
D03*
X1350900Y2384680D02*
D03*
X2191640Y1218820D02*
D03*
X1743762Y3260142D02*
D03*
X1086740Y1170560D02*
D03*
X1234060Y347600D02*
D03*
X464440Y1061340D02*
D03*
X362840Y2923160D02*
D03*
X-168020Y3685160D02*
D03*
X820040Y3070480D02*
D03*
X1790320Y431420D02*
D03*
X1747140Y1195960D02*
D03*
X672720Y2468500D02*
D03*
X1766190Y3064130D02*
D03*
X1666673Y1244322D02*
D03*
X-86740Y3743580D02*
D03*
X2836800Y566040D02*
D03*
X2006962Y842900D02*
D03*
X139320Y2257680D02*
D03*
X27560Y3570860D02*
D03*
X395860Y3939160D02*
D03*
X2849200Y1694120D02*
D03*
X1193420Y2051940D02*
D03*
X1604900Y972440D02*
D03*
X2742820Y591440D02*
D03*
X1137540Y900797D02*
D03*
X1510920Y2686940D02*
D03*
X3159380Y2630201D02*
D03*
X1098424Y2223075D02*
D03*
X3448940Y2244980D02*
D03*
X3159380Y2951100D02*
D03*
X3045080Y1541400D02*
D03*
X3078100Y1510920D02*
D03*
X1081660Y748920D02*
D03*
X3065400Y1747140D02*
D03*
X2267840Y1965580D02*
D03*
X2679320Y2491360D02*
D03*
X2129898Y3150002D02*
D03*
X2834260Y3040000D02*
D03*
X3019680Y1904620D02*
D03*
X2234820Y914020D02*
D03*
X2907920Y1836040D02*
D03*
X1876680Y3847720D02*
D03*
X2778380Y2034160D02*
D03*
X1742060Y2826640D02*
D03*
X4700Y3647060D02*
D03*
X1582040Y1206958D02*
D03*
X736997Y1345043D02*
D03*
X1871600Y433960D02*
D03*
X625004Y1437260D02*
D03*
X1691260Y1145160D02*
D03*
X2219580Y1703960D02*
D03*
X1289940Y1681100D02*
D03*
X-228980Y1900800D02*
D03*
X901320Y3255900D02*
D03*
X9780Y931800D02*
D03*
X197740Y3250820D02*
D03*
X309500Y858140D02*
D03*
Y2981580D02*
D03*
X2542160Y2671700D02*
D03*
X1922400Y1584580D02*
D03*
X-104520Y1617600D02*
D03*
X1222899Y3169540D02*
D03*
X1803020Y2877333D02*
D03*
X3245740Y944500D02*
D03*
X3874019Y2656724D02*
D03*
X3119238Y2247022D02*
D03*
X505080Y2123060D02*
D03*
X944500Y578740D02*
D03*
X886080Y1533780D02*
D03*
X1150001Y337440D02*
D03*
X1985900Y1188340D02*
D03*
X3774060Y634620D02*
D03*
X1414400Y797180D02*
D03*
X3050003Y2331000D02*
D03*
X1678560Y997840D02*
D03*
X3281300Y1269620D02*
D03*
X2918080Y3215260D02*
D03*
X2211960Y746380D02*
D03*
X3235580Y416180D02*
D03*
D98*
X850002Y875001D02*
D03*
X750002D02*
D03*
X650002D02*
D03*
X850002Y975000D02*
D03*
X750002D02*
D03*
X650002D02*
D03*
X850002Y1075000D02*
D03*
X750002D02*
D03*
X650002D02*
D03*
D99*
X1135000Y1930000D02*
D03*
Y1699998D02*
D03*
Y1470001D02*
D03*
D100*
X564999Y1699998D02*
D03*
D101*
X2280002Y3000000D02*
D03*
D102*
X2389018Y2953477D02*
D03*
D103*
X2398020Y2598477D02*
D03*
Y2488480D02*
D03*
Y2378477D02*
D03*
Y2268480D02*
D03*
Y2158478D02*
D03*
Y2048481D02*
D03*
Y1938478D02*
D03*
Y1828481D02*
D03*
D104*
X2389018Y1687480D02*
D03*
D105*
X2554017Y1622980D02*
D03*
D106*
X3294015D02*
D03*
D107*
X3874019Y1633480D02*
D03*
Y2983480D02*
D03*
%TF.MD5,4ee5c7d846bcb9ea5c642df03117da8d*%
M02*
