%TF.GenerationSoftware,Altium Limited,Altium Designer,23.4.1 (23)*%
G04 Layer_Physical_Order=4*
G04 Layer_Color=16440176*
%FSLAX45Y45*%
%MOMM*%
%TF.SameCoordinates,23A6EF31-BC3A-4AE1-B3CE-C8081D6B100D*%
%TF.FilePolarity,Positive*%
%TF.FileFunction,Copper,L4,Inr,Signal*%
%TF.Part,Single*%
G01*
G75*
%TA.AperFunction,Conductor*%
%ADD52C,0.15000*%
%TA.AperFunction,ComponentPad*%
%ADD55C,1.45000*%
%TA.AperFunction,ViaPad*%
G04:AMPARAMS|DCode=56|XSize=1.524mm|YSize=2mm|CornerRadius=0.381mm|HoleSize=0mm|Usage=FLASHONLY|Rotation=0.000|XOffset=0mm|YOffset=0mm|HoleType=Round|Shape=RoundedRectangle|*
%AMROUNDEDRECTD56*
21,1,1.52400,1.23800,0,0,0.0*
21,1,0.76200,2.00000,0,0,0.0*
1,1,0.76200,0.38100,-0.61900*
1,1,0.76200,-0.38100,-0.61900*
1,1,0.76200,-0.38100,0.61900*
1,1,0.76200,0.38100,0.61900*
%
%ADD56ROUNDEDRECTD56*%
%TA.AperFunction,ComponentPad*%
%ADD57C,0.75000*%
%TA.AperFunction,ViaPad*%
%ADD58C,1.52400*%
%ADD59C,0.50000*%
D52*
X497460Y-43560D02*
X650002D01*
X1862197Y1854577D02*
X1874582Y1866962D01*
X308327Y2641510D02*
X684536Y2265300D01*
X199838Y2749998D02*
X308327Y2641510D01*
X380620Y3936620D02*
X1533018D01*
X899999Y-50001D02*
Y239599D01*
X977520Y317120D01*
Y500000D01*
X900842Y576678D02*
X977520Y500000D01*
X715900Y576678D02*
X900842D01*
X701417Y591161D02*
X715900Y576678D01*
X701417Y591161D02*
Y1306953D01*
X1062864Y1668400D01*
X1381380D01*
X1432180Y1719200D01*
Y2044117D01*
X1703787Y1241507D02*
Y1846200D01*
X1832194Y1974607D02*
Y2156558D01*
X832080Y1368680D02*
X890500Y1427100D01*
X1317321D01*
X1497661Y1246760D01*
X3399999Y-50001D02*
Y226361D01*
X3075560Y550800D02*
X3399999Y226361D01*
X3075560Y550800D02*
Y1465200D01*
X2209420Y2331340D02*
X3075560Y1465200D01*
X1702446Y2331340D02*
X2209420D01*
X1541400Y2170294D02*
X1702446Y2331340D01*
X1541400Y1703960D02*
Y2170294D01*
X650002Y-50001D02*
Y-43560D01*
X225680Y228220D02*
X497460Y-43560D01*
X225680Y228220D02*
Y548260D01*
X545720Y868300D01*
Y1371220D01*
X774320Y1599820D01*
Y1973200D01*
X1777620Y-160400D02*
Y398400D01*
X1719200Y-218820D02*
X1777620Y-160400D01*
X103760Y-218820D02*
X1719200D01*
X45340Y-160400D02*
X103760Y-218820D01*
X45340Y-160400D02*
Y1119760D01*
X418720Y1493140D01*
Y2148460D01*
X487300Y2217040D01*
X1046100D01*
X1239140Y2410080D01*
Y2544700D01*
X671414Y494249D02*
Y1319379D01*
X931043Y2038854D02*
X1520709Y2628520D01*
X1612520D01*
X734244Y431420D02*
X929260D01*
X671414Y494249D02*
X734244Y431420D01*
X671414Y1319379D02*
X931043Y1579007D01*
Y2038854D01*
X1612520Y2628520D02*
X1681100Y2559940D01*
X2034160Y1935984D02*
Y2102740D01*
X1965138Y1866962D02*
X2034160Y1935984D01*
X1874582Y1866962D02*
X1965138D01*
X1757300Y718440D02*
Y1749680D01*
X1730630Y2281810D02*
X1833602D01*
X1891920Y2223492D01*
Y1999626D02*
Y2223492D01*
X1862197Y1969903D02*
X1891920Y1999626D01*
X1862197Y1854577D02*
Y1969903D01*
X1757300Y1749680D02*
X1862197Y1854577D01*
X1645540Y606680D02*
X1757300Y718440D01*
X766421Y606680D02*
X1645540D01*
X748920Y624181D02*
X766421Y606680D01*
X1650000Y-160400D02*
Y-50001D01*
X1634760Y-175640D02*
X1650000Y-160400D01*
X538100Y-175640D02*
X1634760D01*
X172340Y190120D02*
X538100Y-175640D01*
X172340Y190120D02*
Y449998D01*
X1370981Y494920D02*
X1427100D01*
X1150001Y273940D02*
X1370981Y494920D01*
X1150001Y-50001D02*
Y273940D01*
X1650620Y1188340D02*
X1703787Y1241507D01*
Y1846200D02*
X1832194Y1974607D01*
Y2156558D02*
X1844417Y2168780D01*
X2054480Y1120451D02*
Y1328040D01*
Y1120451D02*
X2649998Y524933D01*
Y-50001D02*
Y524933D01*
X3245740Y1110001D02*
Y2885060D01*
X3108580Y3022220D02*
X3245740Y2885060D01*
X1569340Y2344040D02*
X1594740Y2369440D01*
X2191640D01*
X2311020Y2488820D01*
Y3250820D01*
X2151000Y3410840D02*
X2311020Y3250820D01*
X2151000Y3410840D02*
Y3677601D01*
X2249999Y3776600D01*
Y3799998D01*
X2491360Y2403156D02*
Y2595500D01*
Y2403156D02*
X2628459Y2266057D01*
X3172502D01*
X2383491Y2352849D02*
X2582800Y2153540D01*
X2383491Y2352849D02*
Y3215590D01*
X2500001Y3332100D01*
Y3550002D01*
X2239900Y2471040D02*
Y3210180D01*
X2173860Y2405000D02*
X2239900Y2471040D01*
X1516000Y2405000D02*
X2173860D01*
X1493140Y2382140D02*
X1516000Y2405000D01*
X1493140Y1564260D02*
Y2382140D01*
Y1564260D02*
X1546480Y1510920D01*
Y1211200D02*
Y1510920D01*
X1061762Y726482D02*
X1546480Y1211200D01*
X950002Y726482D02*
X1061762D01*
X2590420Y2029080D02*
X2630516Y2069176D01*
Y2201978D01*
X2418457Y2414037D02*
X2630516Y2201978D01*
X2418457Y2414037D02*
Y2874702D01*
X2468500Y2924745D01*
X1250001Y3687700D02*
Y3799998D01*
Y3687700D02*
X1262701Y3675000D01*
X2074800D01*
X2100200Y3649600D01*
Y2532000D02*
Y3649600D01*
X2021460Y2453260D02*
X2100200Y2532000D01*
X1752220Y2453260D02*
X2021460D01*
X225680Y2883018D02*
Y3715640D01*
X284100Y3774060D01*
X540615D01*
X639675Y3675000D01*
X1095061D01*
X1145160Y3624901D01*
Y2694560D02*
Y3624901D01*
X1250001Y2799401D02*
Y3550002D01*
X1145160Y2694560D02*
X1250001Y2799401D01*
X2234820Y1126008D02*
Y2239900D01*
Y1126008D02*
X2633600Y727228D01*
X684536Y2265300D02*
X1023240D01*
X230714Y1750000D02*
Y2599600D01*
X142617Y2687697D02*
X230714Y2599600D01*
X142617Y2687697D02*
Y3698617D01*
X380620Y3936620D01*
X2570100D02*
X2600580Y3906140D01*
Y2613280D02*
Y3906140D01*
X2547240Y2559940D02*
X2600580Y2613280D01*
X1499998Y3799998D02*
Y3903600D01*
X1533018Y3936620D01*
X2570100D01*
X2631060Y2460880D02*
Y3885820D01*
X2699640Y3954400D01*
X3299080D01*
X3349880Y3903600D01*
Y3700400D02*
Y3903600D01*
X3324480Y3675000D02*
X3349880Y3700400D01*
X3012700Y3675000D02*
X3324480D01*
X3000000Y3662300D02*
X3012700Y3675000D01*
X3000000Y3550002D02*
Y3662300D01*
X2824100Y2394119D02*
X2900300Y2470319D01*
Y3649600D01*
X3000000Y3749300D01*
Y3799998D01*
X544531Y2787189D02*
X995300Y2336420D01*
X544531Y2787189D02*
Y3198831D01*
X1399998Y-50001D02*
Y267996D01*
X1935100Y803098D01*
Y1284860D01*
X2026540Y1376300D01*
X2115440D01*
X2178940Y1312800D01*
Y1074040D02*
Y1312800D01*
Y1074040D02*
X2575180Y677800D01*
X2661540D01*
X2681860Y698120D01*
Y814960D01*
X2422780Y1074040D02*
X2681860Y814960D01*
X2422780Y1074040D02*
Y1447420D01*
X2465960Y1490600D01*
X2480606Y1338200D02*
X2746594D01*
X2852040Y1232754D01*
Y684998D02*
Y1232754D01*
X1183260Y1844112D02*
Y2182801D01*
X1447898Y2447438D01*
X1616462D01*
X1669797Y2500773D01*
X1968775D01*
X2000002Y2532000D01*
Y3550002D01*
X1279780Y1155300D02*
Y1396620D01*
X898043Y773563D02*
X1279780Y1155300D01*
X898043Y677063D02*
Y773563D01*
X860680Y639700D02*
X898043Y677063D01*
D55*
X3829996Y1749995D02*
D03*
Y1249996D02*
D03*
D56*
X2500001Y3799998D02*
D03*
X899999Y-50001D02*
D03*
X1150001D02*
D03*
X3250002Y3550002D02*
D03*
X3000000D02*
D03*
X2749998D02*
D03*
X2500001D02*
D03*
X2249999D02*
D03*
X2000002D02*
D03*
X1750000D02*
D03*
X1499998D02*
D03*
X1250001D02*
D03*
X1650000Y-50001D02*
D03*
X3399999D02*
D03*
X3150002D02*
D03*
X2900000D02*
D03*
X2649998D02*
D03*
X2400001D02*
D03*
X2149999D02*
D03*
X650002D02*
D03*
X1900002D02*
D03*
X1399998D02*
D03*
X750002Y3799998D02*
D03*
X999999D02*
D03*
X1250001D02*
D03*
X1499998D02*
D03*
X999999Y3550002D02*
D03*
X750002D02*
D03*
X2000002Y3799998D02*
D03*
X1750000D02*
D03*
X2249999D02*
D03*
X2749998D02*
D03*
X3000000D02*
D03*
X3250002D02*
D03*
D57*
X3700400Y2278000D02*
D03*
D58*
X450003Y3550002D02*
D03*
X3550002D02*
D03*
X3650001Y349998D02*
D03*
X450003Y450003D02*
D03*
D59*
X167260Y1550000D02*
D03*
X322200Y1549020D02*
D03*
X990220Y1731900D02*
D03*
X3230500Y644780D02*
D03*
X1844417Y2168780D02*
D03*
X832080Y1368680D02*
D03*
X1718174Y2184020D02*
D03*
X1497661Y1246760D02*
D03*
X1185800Y2460880D02*
D03*
X1808100Y461900D02*
D03*
X3530662Y790002D02*
D03*
X3136520Y596520D02*
D03*
X3845180Y1104520D02*
D03*
X3540659Y799999D02*
D03*
X3686638Y1190001D02*
D03*
X3630758D02*
D03*
X829682Y2706742D02*
D03*
X992760Y2542160D02*
D03*
X992501Y2543923D02*
D03*
X1828420Y3103500D02*
D03*
X3230500Y3243200D02*
D03*
X3096063Y3131257D02*
D03*
X2984120Y3243200D02*
D03*
X1541400Y1703960D02*
D03*
X2732660Y1160400D02*
D03*
X774320Y1973200D02*
D03*
X1777620Y398400D02*
D03*
X1239140Y2544700D02*
D03*
X96140Y281560D02*
D03*
X2130680Y484760D02*
D03*
X929260Y431420D02*
D03*
X1681100Y2559940D02*
D03*
X370460Y1866037D02*
D03*
X3103500Y3027300D02*
D03*
X3245740Y1110001D02*
D03*
X3108580Y3022220D02*
D03*
X384654Y850002D02*
D03*
X3261386Y500000D02*
D03*
X2034160Y2102740D02*
D03*
X748920Y624181D02*
D03*
X1663320Y1897000D02*
D03*
X3136520Y2498980D02*
D03*
X424999Y1402142D02*
D03*
X732019Y2344116D02*
D03*
X1829477Y398400D02*
D03*
X1730630Y2281810D02*
D03*
X215845Y719319D02*
D03*
X1432180Y2044117D02*
D03*
X726060Y1872834D02*
D03*
X319660Y713360D02*
D03*
X599060Y1495680D02*
D03*
X497460Y1274700D02*
D03*
X172340Y449998D02*
D03*
X675260Y2001140D02*
D03*
X764196Y2060002D02*
D03*
X1427100Y494920D02*
D03*
X588900Y1922400D02*
D03*
X1335660Y1188340D02*
D03*
X1650620D02*
D03*
X1486912Y1344672D02*
D03*
X989814Y1732306D02*
D03*
X2054480Y1328040D02*
D03*
X1569340Y2344040D02*
D03*
X2951100Y2525132D02*
D03*
X2491360Y2595500D02*
D03*
X3172502Y2266057D02*
D03*
X1909700Y1919860D02*
D03*
X-214797Y3419202D02*
D03*
X-213740Y3469260D02*
D03*
X1909700Y3243200D02*
D03*
X3817240Y2659000D02*
D03*
X3870402Y2400702D02*
D03*
X-70205Y1650000D02*
D03*
X-214797Y1980002D02*
D03*
Y2219997D02*
D03*
X160204Y2349999D02*
D03*
X385700Y2748814D02*
D03*
X-214797Y3180000D02*
D03*
X1553790Y2561119D02*
D03*
X1041691Y3299999D02*
D03*
X-214797Y3930001D02*
D03*
X3085415Y2597283D02*
D03*
X303368Y3972180D02*
D03*
X2181480Y533020D02*
D03*
X2252600Y535560D02*
D03*
X2778319Y2194119D02*
D03*
X1483290Y1424250D02*
D03*
X2775840Y2730877D02*
D03*
X2239900Y3210180D02*
D03*
X3456560Y1819494D02*
D03*
X3316860Y2016380D02*
D03*
X1416940Y422017D02*
D03*
X2331340Y1345820D02*
D03*
X2709800Y939420D02*
D03*
X3186538Y1061340D02*
D03*
X2468500Y2924745D02*
D03*
X-94578Y2549998D02*
D03*
X1752220Y2453260D02*
D03*
X-68960Y2649998D02*
D03*
X1569340Y2496440D02*
D03*
X225680Y2883018D02*
D03*
X1145160Y2694560D02*
D03*
X2244980Y393320D02*
D03*
X2633600Y727228D02*
D03*
X1778387Y1841120D02*
D03*
X1903787Y1793617D02*
D03*
X883540Y1922400D02*
D03*
X308327Y2641510D02*
D03*
X1023240Y2265300D02*
D03*
X199838Y2749998D02*
D03*
X111380Y2044320D02*
D03*
X230714Y1750000D02*
D03*
X2547240Y2559940D02*
D03*
X2631060Y2460880D02*
D03*
X2824100Y2394119D02*
D03*
X1830960Y1731900D02*
D03*
X995300Y2336420D02*
D03*
X544531Y3198831D02*
D03*
X1782700Y3372740D02*
D03*
X1312800Y3067940D02*
D03*
X2465960Y1490600D02*
D03*
X1197042Y748920D02*
D03*
X1988440Y1419480D02*
D03*
X3317038Y1897000D02*
D03*
X1183260Y1844112D02*
D03*
X1655700Y1772540D02*
D03*
X724998Y1102498D02*
D03*
X824998D02*
D03*
X924998D02*
D03*
X724998Y1002498D02*
D03*
X824998D02*
D03*
X924998D02*
D03*
X724998Y902499D02*
D03*
X824998D02*
D03*
X924998D02*
D03*
X2989200Y2082420D02*
D03*
%TF.MD5,f533c2522d2fec5041d74c176844bed4*%
M02*
