%TF.GenerationSoftware,Altium Limited,Altium Designer,23.4.1 (23)*%
G04 Layer_Physical_Order=4*
G04 Layer_Color=16440176*
%FSLAX45Y45*%
%MOMM*%
%TF.SameCoordinates,A4303C6D-D794-49A8-9BB0-83848C8DDD0F*%
%TF.FilePolarity,Positive*%
%TF.FileFunction,Copper,L4,Inr,Signal*%
%TF.Part,Single*%
G01*
G75*
%TA.AperFunction,Conductor*%
%ADD10C,0.15000*%
%TA.AperFunction,ComponentPad*%
%ADD56C,1.45000*%
%TA.AperFunction,ViaPad*%
%ADD57C,0.99101*%
%TA.AperFunction,ComponentPad*%
%ADD58C,0.75000*%
%TA.AperFunction,ViaPad*%
%ADD59C,4.00000*%
G04:AMPARAMS|DCode=60|XSize=1.524mm|YSize=2mm|CornerRadius=0.381mm|HoleSize=0mm|Usage=FLASHONLY|Rotation=0.000|XOffset=0mm|YOffset=0mm|HoleType=Round|Shape=RoundedRectangle|*
%AMROUNDEDRECTD60*
21,1,1.52400,1.23800,0,0,0.0*
21,1,0.76200,2.00000,0,0,0.0*
1,1,0.76200,0.38100,-0.61900*
1,1,0.76200,-0.38100,-0.61900*
1,1,0.76200,-0.38100,0.61900*
1,1,0.76200,0.38100,0.61900*
%
%ADD60ROUNDEDRECTD60*%
%ADD61C,1.27000*%
%ADD62C,0.50000*%
D10*
X1422218Y2475869D02*
G03*
X1412121Y2485265I-70553J-65691D01*
G01*
X4580367Y2878250D02*
G03*
X4587813Y2871503I68365J67965D01*
G01*
X4466266Y3187121D02*
G03*
X4350823Y3161569I-41266J-87121D01*
G01*
X1959341Y1976257D02*
G03*
X1959587Y1976259I1J15000D01*
G01*
X3224082Y1478604D02*
G03*
X3225893Y1478604I918J96396D01*
G01*
X1580469Y2083705D02*
G03*
X1583414Y2080698I70327J65933D01*
G01*
X1916199Y2873610D02*
G03*
X1928357Y2865636I58802J76390D01*
G01*
X2581754Y2405342D02*
G03*
X2644475Y2414472I18246J94658D01*
G01*
X2793216Y2491010D02*
G03*
X2780373Y2485448I31784J-91010D01*
G01*
X2827135Y2496377D02*
G03*
X2793216Y2491010I-2135J-96376D01*
G01*
X3003524Y2494662D02*
G03*
X3002926Y2494669I-1532J-96388D01*
G01*
X2976496Y2494925D02*
G03*
X2958254Y2493472I-1496J-96388D01*
G01*
X1483648Y2708648D02*
X1501834Y2726834D01*
X1923166D02*
X2164163Y2485837D01*
X1501834Y2726834D02*
X1923166D01*
X1291118Y2582691D02*
X1412121Y2485264D01*
X1351665Y2410178D02*
X1366559Y2311819D01*
X1371846Y2306532D01*
X1422217Y2475869D02*
X1605424Y2279103D01*
X4361000Y1489000D02*
X4646220Y1203780D01*
X1282387Y2590996D02*
X1287198Y2586219D01*
X1605424Y2279103D02*
X1611949Y2272578D01*
X1287198Y2586219D02*
X1291118Y2582691D01*
X965970Y2590996D02*
X1282387D01*
X1578230Y1308100D02*
X3251097D01*
X587630Y2298700D02*
X1578230Y1308100D01*
X4348573Y1489000D02*
X4361000D01*
X3784600Y508000D02*
Y774597D01*
X3251097Y1308100D02*
X3784600Y774597D01*
X533400Y3466638D02*
Y3479800D01*
Y3466638D02*
X587630Y3412408D01*
Y2298700D02*
Y3412408D01*
X2185047Y1493331D02*
X3224082Y1478604D01*
X4646220Y621141D02*
Y1203780D01*
X3398393Y776607D02*
X3569400Y605600D01*
Y305600D02*
Y605600D01*
Y305600D02*
X3600000Y275000D01*
X3317800Y774884D02*
X3319523Y776607D01*
X3398393D01*
X4587813Y2871503D02*
X4617681Y2847148D01*
X3984900Y2821976D02*
X4040077Y2824539D01*
X4048578Y2833041D02*
X4260937Y3053278D01*
X3977694Y2483705D02*
X3986482Y2492492D01*
X4425000Y3021190D02*
Y3033616D01*
X4260937Y3053278D02*
X4350823Y3161569D01*
X4040077Y2824539D02*
X4048578Y2833041D01*
X4466266Y3187121D02*
X4610166Y3118962D01*
X4425000Y3033616D02*
Y3100000D01*
Y3033616D02*
X4580367Y2878249D01*
X3973335Y2479345D02*
X3977694Y2483705D01*
X3986482Y2492492D02*
X4425000Y3021190D01*
X3966881Y2479345D02*
X3973335Y2479345D01*
X4617681Y2847148D02*
X4617682Y2847148D01*
X3003524Y2494662D02*
X3966881Y2479345D01*
X4233787Y3250000D02*
X4615458D01*
X4714341Y3151117D01*
X4617682Y2847148D02*
X4641468D01*
X4648732Y2946214D02*
X4714341Y3011823D01*
Y3151117D01*
X1400000Y2650000D02*
X1425000D01*
X1483648Y2708648D02*
X1483648D01*
X1425000Y2650000D02*
X1483648Y2708648D01*
X3146810Y3546810D02*
X3150000Y3550000D01*
X3064000Y3546810D02*
X3146810D01*
X2700000Y3546626D02*
X2764428Y3482199D01*
X2999389D01*
X2700000Y3546626D02*
Y3550000D01*
X2999389Y3482199D02*
X3064000Y3546810D01*
X4589045Y2739638D02*
X4600155Y2750748D01*
X4589045Y2664748D02*
Y2739638D01*
X4489000Y2564702D02*
X4589045Y2664748D01*
X4489000Y2436000D02*
Y2564702D01*
X4641468Y2847148D02*
X5146553Y2342063D01*
X5175000D01*
X961368Y2586394D02*
X965970Y2590996D01*
X1650796Y2150796D02*
X1732764Y2232764D01*
X1650796Y2149638D02*
Y2150796D01*
X1611949Y2272578D02*
X4477422D01*
X4725000Y2025000D01*
X4700000Y1908787D02*
Y2000502D01*
X3900962Y2145411D02*
X4555091D01*
X4700000Y2000502D01*
X4725000Y2025000D02*
X4875000D01*
X1965408Y3065970D02*
X2280499D01*
X2342488Y3003981D01*
X1824668Y2994317D02*
X1893754D01*
X1965408Y3065970D01*
X1807755Y2977404D02*
X1824668Y2994317D01*
X1981985Y2946218D02*
X2190621Y2833094D01*
X2402409Y3004119D02*
X3674926Y3028818D01*
X4186980D01*
X4225937Y3067775D01*
X4225000Y3241213D02*
X4233787Y3250000D01*
X4225000Y3068713D02*
Y3241213D01*
Y3068713D02*
X4225937Y3067775D01*
X4700000Y1908787D02*
X4708787Y1900000D01*
X3819613Y2064062D02*
X3900962Y2145411D01*
X4708787Y1900000D02*
X5011972D01*
X5020759Y1908787D01*
X4755324Y2425000D02*
X4804999Y2425002D01*
X4861329D01*
X5020759Y2265571D01*
Y1908787D02*
Y2265571D01*
X1959587Y1976259D02*
X3875139Y2018747D01*
X5100000Y1650000D02*
X5125000Y1675000D01*
X3900000Y1650000D02*
X5100000D01*
X3875139Y1674861D02*
Y2018747D01*
Y1674861D02*
X3900000Y1650000D01*
X5125000Y1675000D02*
Y2243323D01*
X4790349Y2577974D02*
X5125000Y2243323D01*
X4638602Y2577974D02*
X4790349D01*
X5002688Y1427136D02*
X5175000Y1599448D01*
Y2342063D01*
X2475000Y1750000D02*
X3259606D01*
X3439934Y1569672D01*
X2413223Y1811777D02*
X2475000Y1750000D01*
X3439934Y1569672D02*
X4594672D01*
X1732764Y2232764D02*
X2492095D01*
X2661749Y2063110D01*
X3135394Y2064062D02*
X3819613D01*
X2661749Y2063110D02*
X3134442D01*
X3135394Y2064062D01*
X941700Y2586394D02*
X961368D01*
X840238Y3025000D02*
X1642126D01*
X1718097Y3100970D01*
X831451Y3016213D02*
X840238Y3025000D01*
X1718097Y3100970D02*
X2424712D01*
X2402199Y3003981D02*
X2402337Y3004119D01*
X2342488Y3003981D02*
X2402199D01*
X3329954Y951070D02*
X3587858Y693165D01*
X3300000Y951070D02*
X3329954D01*
X1835015Y2136364D02*
X1879997Y2049388D01*
X1948735Y1980651D01*
X2402337Y3004119D02*
X2402409Y3004119D01*
X3984552Y2821960D02*
X3984900Y2821976D01*
X2206508Y2821960D02*
X3984552D01*
X1948735Y1980651D02*
X1953128Y1976257D01*
X1959341Y1976257D01*
X4646192Y620226D02*
X4646220Y621141D01*
X4631607Y381607D02*
X4646192Y620226D01*
X4594672Y1569672D02*
X4939344Y1225000D01*
X4975000D01*
X831451Y2614787D02*
Y3016213D01*
X875000Y2550000D02*
Y2571238D01*
X831451Y2614787D02*
X875000Y2571238D01*
X905307Y2550000D02*
X941700Y2586394D01*
X2190621Y2833094D02*
X2206444Y2822024D01*
X2206508Y2821960D01*
X4500000Y2425000D02*
X4755324D01*
X5000000Y1425000D02*
X5002688Y1427136D01*
X4489000Y2436000D02*
X4500000Y2425000D01*
X1583414Y2080698D02*
X2176249Y1502129D01*
X1371846Y2306532D02*
X1380633Y2297744D01*
X1580469Y2083705D01*
X2176249Y1502129D02*
X2185047Y1493331D01*
X4537069Y287069D02*
X4591215Y341216D01*
X4445295Y287069D02*
X4537069D01*
X1165829Y1206497D02*
X2771001D01*
X2781401Y1196097D01*
X3587858Y693165D02*
X3618165D01*
X1871201Y2908621D02*
X1916199Y2873610D01*
X1819818Y2960005D02*
X1871201Y2908621D01*
X2644475Y2414472D02*
X2644700Y2414590D01*
X2164163Y2485837D02*
X2581754Y2405342D01*
X2644700Y2414590D02*
X2780373Y2485448D01*
X875000Y2550000D02*
X905307D01*
X2393129Y2608675D02*
X2600000Y2500000D01*
X1928357Y2865635D02*
X2393129Y2608675D01*
X2976496Y2494925D02*
X3002926Y2494669D01*
X2827135Y2496376D02*
X2958254Y2493472D01*
X3225893Y1478604D02*
X4348573Y1489000D01*
X2349907Y1875093D02*
X2413223Y1811777D01*
X2349907Y1875093D02*
Y1880690D01*
X695362Y1676964D02*
X1165829Y1206497D01*
X672254Y1676964D02*
X695362D01*
X4595609Y345609D02*
X4627451Y377451D01*
X4631607Y381607D01*
X4908483Y3040410D02*
X4908841Y3040057D01*
X4470987Y3458557D02*
X4908483Y3040410D01*
X4908841Y3040057D02*
X5086000Y2857130D01*
Y2666307D02*
Y2857130D01*
X2875000Y3791000D02*
X2891000Y3775000D01*
X3810340D01*
X4126783Y3458557D02*
X4470987D01*
X4591215Y341216D02*
X4595609Y345609D01*
X5050000Y2600000D02*
Y2630307D01*
X5086000Y2666307D01*
X3810340Y3775000D02*
X4126783Y3458557D01*
X4524122Y152500D02*
X4750000Y378378D01*
X3286798Y152500D02*
X4524122D01*
X3129398Y220601D02*
X3218698D01*
X4750000Y378378D02*
Y1100000D01*
X3074998Y275000D02*
X3129398Y220601D01*
X3218698D02*
X3286798Y152500D01*
D56*
X414401Y1934399D02*
D03*
Y2434398D02*
D03*
D57*
X490220Y924560D02*
D03*
X388620Y416560D02*
D03*
X287020Y924560D02*
D03*
D58*
X399996Y1550000D02*
D03*
D59*
X1100001Y699998D02*
D03*
X4150003Y3750000D02*
D03*
Y699998D02*
D03*
X1100001Y3750000D02*
D03*
D60*
X3850000Y4250000D02*
D03*
X3849998Y4000002D02*
D03*
X3600001D02*
D03*
X3599996Y4249999D02*
D03*
X3349994Y4240799D02*
D03*
X3349999Y4000002D02*
D03*
X3100002D02*
D03*
X3099997Y4249994D02*
D03*
X2850000D02*
D03*
Y4000002D02*
D03*
X2599998D02*
D03*
Y4249994D02*
D03*
X2349996Y4249999D02*
D03*
X2099999Y4000002D02*
D03*
Y4249994D02*
D03*
X1849997Y4249999D02*
D03*
X1850002Y4000002D02*
D03*
X1600000D02*
D03*
Y4249994D02*
D03*
X1349998Y4249999D02*
D03*
Y3999997D02*
D03*
X4100000Y275000D02*
D03*
X3850000D02*
D03*
X3600000D02*
D03*
X3349999Y275000D02*
D03*
X3074998D02*
D03*
X2850000D02*
D03*
X2600003D02*
D03*
X2350001D02*
D03*
X1850002D02*
D03*
X1600000D02*
D03*
X1350003D02*
D03*
X2350001Y4000002D02*
D03*
X2099999Y275000D02*
D03*
D61*
X1762240Y2441396D02*
D03*
X1828841Y2630433D02*
D03*
X1351665Y2410178D02*
D03*
X3784600Y508000D02*
D03*
X736600Y3530600D02*
D03*
X533400Y3479800D02*
D03*
X1104900Y266700D02*
D03*
X393700Y1079500D02*
D03*
X4425000Y3100000D02*
D03*
X4610166Y3118962D02*
D03*
X1400000Y2650000D02*
D03*
X2700000Y3550000D02*
D03*
X2959333Y3578599D02*
D03*
X3150000Y3550000D02*
D03*
X1444560Y680387D02*
D03*
X1130968Y2494597D02*
D03*
X3155751Y3146167D02*
D03*
X1650796Y2149638D02*
D03*
X3317800Y774884D02*
D03*
X1899668Y3204108D02*
D03*
X3397430Y2176178D02*
D03*
X2781779Y2159606D02*
D03*
X2858894Y538404D02*
D03*
X2972601Y679739D02*
D03*
X4346102Y1748944D02*
D03*
X3445527Y1250000D02*
D03*
X1981985Y2946218D02*
D03*
X4271400Y2049011D02*
D03*
X3300000Y951070D02*
D03*
X4665941Y2309832D02*
D03*
X1835015Y2136364D02*
D03*
X1651473Y3170677D02*
D03*
X2424712Y3100970D02*
D03*
X3463714Y2725560D02*
D03*
X2976438Y1902389D02*
D03*
X4549820Y626565D02*
D03*
X4506695Y454899D02*
D03*
X4875000Y2025000D02*
D03*
X1418345Y2868345D02*
D03*
X3117175Y2918367D02*
D03*
X1403600Y3174870D02*
D03*
X1500000Y1800000D02*
D03*
X1325000Y1725000D02*
D03*
X794586Y394586D02*
D03*
X3156401Y516152D02*
D03*
X4539641Y3781488D02*
D03*
X4639081Y4010786D02*
D03*
X4445295Y287069D02*
D03*
X2781401Y1196097D02*
D03*
X3042671Y1185097D02*
D03*
X3209860Y1577740D02*
D03*
X3619504Y1687417D02*
D03*
X4175000Y1900000D02*
D03*
X2171901Y2965796D02*
D03*
X767245Y1201051D02*
D03*
X1725000Y1675000D02*
D03*
X3618165Y693165D02*
D03*
X4018901Y1775000D02*
D03*
X3125000Y800000D02*
D03*
X3324247Y598002D02*
D03*
X1669937Y2832598D02*
D03*
X1807755Y2977404D02*
D03*
X1552407Y2519770D02*
D03*
X875000Y2550000D02*
D03*
X1250000Y3375000D02*
D03*
X1675000Y3775000D02*
D03*
X2600000Y2500000D02*
D03*
X3001991Y2398274D02*
D03*
X2825000Y2400000D02*
D03*
X3125000Y3350000D02*
D03*
X3475000Y3550000D02*
D03*
X3925000Y3425000D02*
D03*
X4521500Y1896428D02*
D03*
X3286386Y2709923D02*
D03*
X2349907Y1880690D02*
D03*
X1025002Y1724998D02*
D03*
X672254Y1676964D02*
D03*
X4850000Y2300000D02*
D03*
X4638602Y2577974D02*
D03*
X4600155Y2750748D02*
D03*
X5050000Y2600000D02*
D03*
X4648732Y2946214D02*
D03*
X2875000Y3791000D02*
D03*
X4975000Y2775000D02*
D03*
X4624842Y1225158D02*
D03*
X975000Y2375000D02*
D03*
X4750000Y1100000D02*
D03*
X4975000Y1225000D02*
D03*
X5000000Y1425000D02*
D03*
X559569Y1206206D02*
D03*
X4600000Y1425000D02*
D03*
X1025000Y3375000D02*
D03*
X2175000Y600000D02*
D03*
X1975000D02*
D03*
D62*
X2099999Y3450000D02*
D03*
X1999999Y3550000D02*
D03*
Y3450000D02*
D03*
X1900000Y3550000D02*
D03*
Y3450000D02*
D03*
%TF.MD5,50831d2658b582fb83cf6315c5c6f655*%
M02*
