%TF.GenerationSoftware,Altium Limited,Altium Designer,23.4.1 (23)*%
G04 Layer_Physical_Order=7*
G04 Layer_Color=8388736*
%FSLAX45Y45*%
%MOMM*%
%TF.SameCoordinates,2ABB9494-C5B4-4C01-9411-B7C80C6C87EF*%
%TF.FilePolarity,Positive*%
%TF.FileFunction,Copper,L7,Inr,Signal*%
%TF.Part,Single*%
G01*
G75*
%TA.AperFunction,ViaPad*%
G04:AMPARAMS|DCode=47|XSize=1.524mm|YSize=2mm|CornerRadius=0.381mm|HoleSize=0mm|Usage=FLASHONLY|Rotation=0.000|XOffset=0mm|YOffset=0mm|HoleType=Round|Shape=RoundedRectangle|*
%AMROUNDEDRECTD47*
21,1,1.52400,1.23800,0,0,0.0*
21,1,0.76200,2.00000,0,0,0.0*
1,1,0.76200,0.38100,-0.61900*
1,1,0.76200,-0.38100,-0.61900*
1,1,0.76200,-0.38100,0.61900*
1,1,0.76200,0.38100,0.61900*
%
%ADD47ROUNDEDRECTD47*%
%TA.AperFunction,ComponentPad*%
%ADD48C,1.45000*%
%ADD49C,0.75000*%
%TA.AperFunction,ViaPad*%
%ADD50C,1.52400*%
%ADD51C,0.60000*%
%ADD52C,0.50000*%
%TA.AperFunction,Conductor*%
%ADD53C,0.25400*%
D47*
X3250002Y3550002D02*
D03*
X3000000D02*
D03*
X2749998D02*
D03*
X2500001D02*
D03*
X2249999D02*
D03*
X2000002D02*
D03*
X1750000D02*
D03*
X1499998D02*
D03*
X1250001D02*
D03*
X899999Y149998D02*
D03*
X1650000D02*
D03*
X3399999D02*
D03*
X3150002D02*
D03*
X2900000D02*
D03*
X2649998D02*
D03*
X2400001D02*
D03*
X2149999D02*
D03*
X650002D02*
D03*
X1900002D02*
D03*
X1150001D02*
D03*
X1399998D02*
D03*
X750002Y3799998D02*
D03*
X999999D02*
D03*
X1250001D02*
D03*
X1499998D02*
D03*
X999999Y3550002D02*
D03*
X750002D02*
D03*
X2000002Y3799998D02*
D03*
X1750000D02*
D03*
X2249999D02*
D03*
X2500001D02*
D03*
X2749998D02*
D03*
X3000000D02*
D03*
X3250002D02*
D03*
D48*
X3579999Y899999D02*
D03*
Y1399998D02*
D03*
D49*
X3770001Y2300001D02*
D03*
X3750001Y1950000D02*
D03*
D50*
X450003Y3550002D02*
D03*
X3550002D02*
D03*
Y450003D02*
D03*
X450003D02*
D03*
D51*
X472060Y799720D02*
D03*
X1422020Y474600D02*
D03*
X1180720Y2659838D02*
D03*
X1335660Y3172080D02*
D03*
X380178Y2749998D02*
D03*
X3448940Y2093916D02*
D03*
X2572640Y1444880D02*
D03*
X24802Y500000D02*
D03*
X1676020Y2161160D02*
D03*
X1975740Y3253360D02*
D03*
X1899540Y997840D02*
D03*
X1658240Y375540D02*
D03*
X1277240Y2321180D02*
D03*
X931800Y1411860D02*
D03*
X2029080Y459360D02*
D03*
X2074800Y1264337D02*
D03*
X2239900Y2440560D02*
D03*
X1758910Y3334640D02*
D03*
X1869060Y860680D02*
D03*
X388240Y2303400D02*
D03*
X1239140Y2737740D02*
D03*
X1952880Y2427860D02*
D03*
X1945260Y459360D02*
D03*
X3634360Y1711580D02*
D03*
X12320Y2501520D02*
D03*
X2006220Y2104726D02*
D03*
X3690240Y1279998D02*
D03*
X3466502Y1272160D02*
D03*
X2643760Y450003D02*
D03*
X2178940Y2115440D02*
D03*
X378080Y1942720D02*
D03*
X1452500Y2768936D02*
D03*
X3166177Y2552320D02*
D03*
X1401700Y2791080D02*
D03*
X1750158Y1744122D02*
D03*
X2778380Y2176400D02*
D03*
X2127302Y909062D02*
D03*
X3494660Y1871600D02*
D03*
X1597280Y1300100D02*
D03*
X1546480Y1533780D02*
D03*
X1460120Y2610740D02*
D03*
X1513460Y2504060D02*
D03*
X1869060Y1241680D02*
D03*
X1670940Y1640460D02*
D03*
X3220340Y1127380D02*
D03*
X1780160Y1907160D02*
D03*
X2650064Y3206080D02*
D03*
X3428620Y1399160D02*
D03*
X1701420Y1942720D02*
D03*
X493884Y2034160D02*
D03*
X1028320Y1803020D02*
D03*
X2847554Y2234104D02*
D03*
X634620Y2801240D02*
D03*
X1264540Y2140840D02*
D03*
X1886840Y3149220D02*
D03*
X2006220Y2257680D02*
D03*
X2005666Y2104726D02*
D03*
X2267840Y3182240D02*
D03*
X2697100Y1541400D02*
D03*
X2148460Y2018920D02*
D03*
X2156080Y2252600D02*
D03*
X2095120Y2415160D02*
D03*
X1350900Y2384680D02*
D03*
X2191640Y1218820D02*
D03*
X1743762Y3260142D02*
D03*
X1086740Y1170560D02*
D03*
X1234060Y347600D02*
D03*
X464440Y1061340D02*
D03*
X362840Y2923160D02*
D03*
X-168020Y3685160D02*
D03*
X820040Y3070480D02*
D03*
X1790320Y431420D02*
D03*
X1747140Y1195960D02*
D03*
X672720Y2468500D02*
D03*
X1766190Y3064130D02*
D03*
X1666673Y1244322D02*
D03*
X-86740Y3743580D02*
D03*
X2836800Y566040D02*
D03*
X2006962Y842900D02*
D03*
X139320Y2257680D02*
D03*
X27560Y3570860D02*
D03*
X395860Y3939160D02*
D03*
X2849200Y1694120D02*
D03*
X1193420Y2051940D02*
D03*
X1604900Y972440D02*
D03*
X2742820Y591440D02*
D03*
X1137540Y900797D02*
D03*
X1510920Y2686940D02*
D03*
X3159380Y2630201D02*
D03*
X1098424Y2223075D02*
D03*
X3448940Y2244980D02*
D03*
X3159380Y2951100D02*
D03*
X3045080Y1541400D02*
D03*
X3078100Y1510920D02*
D03*
X1081660Y748920D02*
D03*
X3065400Y1747140D02*
D03*
X2267840Y1965580D02*
D03*
X2679320Y2491360D02*
D03*
X2129898Y3150002D02*
D03*
X2834260Y3040000D02*
D03*
X3019680Y1904620D02*
D03*
X2234820Y914020D02*
D03*
X2907920Y1836040D02*
D03*
X1876680Y3847720D02*
D03*
X2778380Y2034160D02*
D03*
X1742060Y2826640D02*
D03*
X4700Y3647060D02*
D03*
X1582040Y1206958D02*
D03*
X736997Y1345043D02*
D03*
X1871600Y433960D02*
D03*
X625004Y1437260D02*
D03*
X1691260Y1145160D02*
D03*
X2219580Y1703960D02*
D03*
X1289940Y1681100D02*
D03*
X-228980Y1900800D02*
D03*
X901320Y3255900D02*
D03*
X9780Y931800D02*
D03*
X197740Y3250820D02*
D03*
X309500Y858140D02*
D03*
Y2981580D02*
D03*
X2542160Y2671700D02*
D03*
X1922400Y1584580D02*
D03*
X-104520Y1617600D02*
D03*
X1222899Y3169540D02*
D03*
X1803020Y2877333D02*
D03*
X3245740Y944500D02*
D03*
X3874019Y2656724D02*
D03*
X3119238Y2247022D02*
D03*
X505080Y2123060D02*
D03*
X944500Y578740D02*
D03*
X886080Y1533780D02*
D03*
X1150001Y337440D02*
D03*
X1985900Y1188340D02*
D03*
X3774060Y634620D02*
D03*
X1414400Y797180D02*
D03*
X3050003Y2331000D02*
D03*
X1678560Y997840D02*
D03*
X3281300Y1269620D02*
D03*
X2918080Y3215260D02*
D03*
X2211960Y746380D02*
D03*
X3235580Y416180D02*
D03*
D52*
X850002Y875001D02*
D03*
X750002D02*
D03*
X650002D02*
D03*
X850002Y975000D02*
D03*
X750002D02*
D03*
X650002D02*
D03*
X850002Y1075000D02*
D03*
X750002D02*
D03*
X650002D02*
D03*
D53*
X2104498Y3124602D02*
X2189100Y3040000D01*
X1975740Y3253360D02*
X2104498Y3124602D01*
X2189100Y3040000D02*
X2239900D01*
X2834260D01*
X1250001Y3715640D02*
X1325500D01*
X944500Y3697860D02*
X999999D01*
X1300100Y2384680D02*
X1350900Y2333880D01*
Y2384680D01*
X2005943Y2105003D02*
X2006220Y2104726D01*
X1886840Y2377060D02*
Y3149220D01*
Y2224106D02*
Y2377060D01*
Y2224106D02*
X2005943Y2105003D01*
X931800Y1411860D02*
X1076580D01*
X2029080Y459360D01*
X12320Y2501520D02*
X129160Y2384680D01*
X1300100D01*
X1350900Y2191498D02*
Y2333880D01*
X2465960Y1881760D02*
X3220340Y1127380D01*
X1805560Y1881760D02*
X2465960D01*
X1780160Y1907160D02*
X1805560Y1881760D01*
X3027300Y1399160D02*
X3428620D01*
X2402460Y2024000D02*
X3027300Y1399160D01*
X2234820Y2024000D02*
X2402460D01*
X2209420Y1998600D02*
X2234820Y2024000D01*
X2209420Y1973200D02*
Y1998600D01*
X2196720Y1960500D02*
X2209420Y1973200D01*
X2074800Y1960500D02*
X2196720D01*
X2049400Y1985900D02*
X2074800Y1960500D01*
X1744600Y1985900D02*
X2049400D01*
X1701420Y1942720D02*
X1744600Y1985900D01*
X893700Y2140840D02*
X1264540D01*
X827660Y2074800D02*
X893700Y2140840D01*
X827660Y1193420D02*
Y2074800D01*
Y1193420D02*
X1023956Y997124D01*
Y654224D02*
Y997124D01*
Y654224D02*
X1394080Y284100D01*
X1624600D01*
X1650000Y258700D01*
Y149998D02*
Y258700D01*
X1886840Y2377060D02*
X2006220Y2257680D01*
X2742942Y944500D02*
X3245740D01*
X1350900Y2191498D02*
X1715172Y1827226D01*
X1119760Y461900D02*
X1234060Y347600D01*
X779400Y461900D02*
X1119760D01*
X538100Y703200D02*
X779400Y461900D01*
X538100Y703200D02*
Y987680D01*
X464440Y1061340D02*
X538100Y987680D01*
X510160Y3070480D02*
X820040D01*
X362840Y2923160D02*
X510160Y3070480D01*
X27560Y3570860D02*
X395860Y3939160D01*
X1193420Y1383920D02*
Y2051940D01*
Y1383920D02*
X1604900Y972440D01*
X2129898Y3150002D02*
X2239900Y3040000D01*
X1250001Y3715640D02*
Y3799998D01*
X1325500Y3715640D02*
X1391540Y3649600D01*
Y3438780D02*
Y3649600D01*
Y3438780D02*
X1766190Y3064130D01*
X999999Y3697860D02*
Y3799998D01*
X893700Y3647060D02*
X944500Y3697860D01*
X893700Y3389804D02*
Y3647060D01*
Y3389804D02*
X1456864Y2826640D01*
X1742060D01*
X1715172Y1827226D02*
X1860216D01*
X2742942Y944500D01*
X1985900Y1188340D02*
X2115440Y1058800D01*
X2501520D01*
X2854580Y705740D01*
X3702940D01*
X3774060Y634620D01*
X2211960Y746380D02*
X2430400D01*
X2760600Y416180D01*
X3235580D01*
%TF.MD5,90d100dd0931a79820c6dd83ddcff2f9*%
M02*
