%TF.GenerationSoftware,Altium Limited,Altium Designer,23.4.1 (23)*%
G04 Layer_Physical_Order=4*
G04 Layer_Color=16440176*
%FSLAX45Y45*%
%MOMM*%
%TF.SameCoordinates,8FC0B902-BD77-4088-8A25-808A508E6D72*%
%TF.FilePolarity,Positive*%
%TF.FileFunction,Copper,L4,Inr,Signal*%
%TF.Part,Single*%
G01*
G75*
%TA.AperFunction,Conductor*%
%ADD10C,0.15000*%
%TA.AperFunction,ComponentPad*%
%ADD54C,0.99100*%
%ADD55C,1.45000*%
%ADD56C,0.75000*%
%TA.AperFunction,ViaPad*%
%ADD57C,4.00000*%
G04:AMPARAMS|DCode=58|XSize=1.524mm|YSize=2mm|CornerRadius=0.381mm|HoleSize=0mm|Usage=FLASHONLY|Rotation=0.000|XOffset=0mm|YOffset=0mm|HoleType=Round|Shape=RoundedRectangle|*
%AMROUNDEDRECTD58*
21,1,1.52400,1.23800,0,0,0.0*
21,1,0.76200,2.00000,0,0,0.0*
1,1,0.76200,0.38100,-0.61900*
1,1,0.76200,-0.38100,-0.61900*
1,1,0.76200,-0.38100,0.61900*
1,1,0.76200,0.38100,0.61900*
%
%ADD58ROUNDEDRECTD58*%
%ADD59C,1.27000*%
%ADD60C,0.50000*%
D10*
X4338644Y1653499D02*
G03*
X4431137Y1704201I7458J96111D01*
G01*
X3992938Y1682162D02*
G03*
X4011443Y1678889I25963J92838D01*
G01*
X4049471Y2260487D02*
G03*
X4042379Y2260892I-11023J-130937D01*
G01*
X4937242Y2341010D02*
G03*
X4794652Y2378928I-87242J-41010D01*
G01*
X4034571Y2033229D02*
G03*
X4107282Y2062060I3877J96322D01*
G01*
X4294091Y2238404D02*
G03*
X4260899Y2242688I-37791J-162052D01*
G01*
X3401740Y2280067D02*
G03*
X3390200Y2279935I-4673J-96287D01*
G01*
X4290176Y2203310D02*
G03*
X4246726Y2207402I-33875J-126958D01*
G01*
X4298969Y2162795D02*
G03*
X4236198Y2170632I-42668J-86443D01*
G01*
X4047182Y2225554D02*
G03*
X4023001Y2224705I-8733J-96004D01*
G01*
X4236198Y2170632D02*
G03*
X4187467Y2143842I20103J-94281D01*
G01*
X3645695Y1780191D02*
G03*
X3642345Y1781072I-26191J-92774D01*
G01*
D02*
G03*
X3615771Y1783744I-22841J-93655D01*
G01*
X4817570Y1906815D02*
G03*
X5003428Y1997211I57430J118185D01*
G01*
X4816840Y1907172D02*
G03*
X4817570Y1906815I58160J117828D01*
G01*
X1845829Y2231002D02*
G03*
X1791626Y2225956I-18529J-94603D01*
G01*
X1402828Y2968816D02*
G03*
X1328600Y2875000I22172J-93816D01*
G01*
X1797112Y3073215D02*
G03*
X1782830Y3070526I10642J-95811D01*
G01*
X1981448Y3044826D02*
G03*
X1933509Y3034128I-3667J-96330D01*
G01*
X2404583Y2981981D02*
G03*
X2579462Y2983741I84345J308421D01*
G01*
X2212781Y3063688D02*
G03*
X2161317Y3070424I-37781J-88688D01*
G01*
X1981718Y3044826D02*
G03*
X1983847Y3044977I0J15001D01*
G01*
X1916199Y2873610D02*
G03*
X1928357Y2865636I58802J76390D01*
G01*
X2581754Y2405342D02*
G03*
X2644475Y2414472I18246J94658D01*
G01*
X1418491Y2467837D02*
G03*
X1414490Y2471653I-68491J-67837D01*
G01*
X1139244Y2597500D02*
G03*
X1138394Y2597501I-518J-96399D01*
G01*
X2793216Y2491010D02*
G03*
X2780373Y2485448I31784J-91010D01*
G01*
X2827135Y2496377D02*
G03*
X2793216Y2491010I-2135J-96376D01*
G01*
X3003524Y2494662D02*
G03*
X3002926Y2494669I-1532J-96388D01*
G01*
X2976496Y2494925D02*
G03*
X2958254Y2493472I-1496J-96388D01*
G01*
X2799020Y2254940D02*
G03*
X2791470Y2255717I-13647J-95429D01*
G01*
X2704518Y2107018D02*
G03*
X2789434Y2063196I80855J52493D01*
G01*
X3135672Y2803127D02*
G03*
X3145184Y2805782I-19671J88848D01*
G01*
X3110000Y3017854D02*
G03*
X3124800Y3019357I-1766J90983D01*
G01*
X4674122Y2393334D02*
G03*
X4581848Y2368178I-24122J-93333D01*
G01*
X3224022Y1478605D02*
G03*
X3225893Y1478604I978J96395D01*
G01*
X2973658Y2027716D02*
G03*
X2971586Y2027647I2138J-96376D01*
G01*
X4646221Y620683D02*
G03*
X4646176Y633131I-96221J5882D01*
G01*
X4778703Y2029455D02*
G03*
X4969485Y2005879I96297J-4455D01*
G01*
X4968281Y2357234D02*
G03*
X4916977Y2413050I-118280J-57234D01*
G01*
X4569614Y2891139D02*
G03*
X4598735Y2863793I79118J55075D01*
G01*
D02*
G03*
X4599221Y2863500I49997J82421D01*
G01*
X4665431Y2821684D02*
G03*
X4649476Y2833575I-65276J-70937D01*
G01*
X4663378Y3200897D02*
G03*
X4606703Y3216326I-52457J-80878D01*
G01*
X3396560Y2064062D02*
G03*
X3415256Y2065377I2997J90951D01*
G01*
X5081054Y2133403D02*
G03*
X5078122Y2183427I-145054J16597D01*
G01*
X4493394Y2734976D02*
G03*
X4493392Y2734975I10606J-10607D01*
G01*
X3645695Y1780191D02*
X3992627Y1682249D01*
X3992938Y1682162D01*
X4452407Y1736000D02*
X4464000D01*
X4431137Y1704201D02*
X4443203Y1726796D01*
X4011443Y1678889D02*
X4338644Y1653499D01*
X4443203Y1726796D02*
X4452407Y1736000D01*
X3644710Y2163295D02*
X4023001Y2224705D01*
X3925424Y2027981D02*
X3934211Y2036768D01*
X4107282Y2062060D02*
X4187467Y2143842D01*
X3401740Y2280066D02*
X4042379Y2260892D01*
X3934211Y2036768D02*
X3946638D01*
X4034571Y2033229D01*
X3917122Y2019679D02*
X3925424Y2027981D01*
X4778802Y2367884D02*
X4794652Y2378928D01*
X4047182Y2225554D02*
X4246726Y2207402D01*
X4937242Y2341010D02*
X4937246Y2341002D01*
X4049471Y2260487D02*
X4260899Y2242688D01*
X3398393Y776607D02*
X3569400Y605600D01*
X3318105Y776607D02*
X3398393D01*
X3316322Y774824D02*
X3318105Y776607D01*
X3587858Y693165D02*
X3618165D01*
X3528536Y735765D02*
X3545259D01*
X3310701Y953600D02*
X3528536Y735765D01*
X3569400Y305600D02*
Y605600D01*
X3545259Y735765D02*
X3587858Y693165D01*
X4298969Y2162795D02*
X4816840Y1907172D01*
X4469194Y2197569D02*
X4768610Y2175686D01*
X4290176Y2203310D02*
X4772339Y2075198D01*
X4775221Y2072316D01*
X4779947Y2067590D01*
X4294091Y2238403D02*
X4469194Y2197569D01*
X2627062Y2223667D02*
X2632579Y2218151D01*
X2704518Y2107018D01*
X1878863Y2050523D02*
X1946018Y1983368D01*
X1827300Y2136400D02*
X1878863Y2050523D01*
X1651395Y2170097D02*
X1791626Y2225956D01*
X1845829Y2231002D02*
X2627062Y2223667D01*
X2265099Y3125197D02*
X2340612Y3128632D01*
X1402828Y2968815D02*
X1782830Y3070526D01*
X1871201Y2908621D02*
X1916199Y2873610D01*
X1797112Y3073215D02*
X2265099Y3125197D01*
X1819818Y2960005D02*
X1871201Y2908621D01*
X2190621Y2833094D02*
X2206444Y2822024D01*
X1981985Y2946218D02*
X2190621Y2833094D01*
X1807755Y2977404D02*
X1819818Y2960005D01*
X1981448Y3044826D02*
X1981718D01*
X2212781Y3063688D02*
X2404583Y2981981D01*
X1983847Y3044977D02*
X2161317Y3070424D01*
X1802458Y2972799D02*
X1814885Y2972799D01*
X1933509Y3034128D01*
X1328600Y2846288D02*
Y2875000D01*
X1315896Y2837500D02*
X1319813Y2837500D01*
X1162500Y2837500D02*
X1315896D01*
X1319813Y2837500D02*
X1328600Y2846288D01*
X2644475Y2414472D02*
X2644700Y2414590D01*
X2164163Y2485837D02*
X2581754Y2405342D01*
X1398663Y2661407D02*
X1474861Y2699861D01*
X1925000Y2725000D02*
X2164163Y2485837D01*
X2644700Y2414590D02*
X2780373Y2485448D01*
X1474861Y2699861D02*
X1483648Y2708648D01*
X1500000Y2725000D01*
X1275195Y2597022D02*
X1414489Y2471652D01*
X1363091Y2315287D02*
X1371878Y2306500D01*
X1614160Y2270367D02*
X2629193Y2266002D01*
X1418491Y2467837D02*
X1605373Y2279154D01*
X1614160Y2270367D01*
X1371878Y2306500D02*
X2184984Y1493394D01*
X1350000Y2400000D02*
X1363091Y2315287D01*
X1139244Y2597500D02*
X1275195Y2597022D01*
X972000Y2597000D02*
X993215Y2597001D01*
X1138394Y2597500D01*
X875000Y2550000D02*
X905307D01*
X941700Y2586394D01*
X961394D01*
X972000Y2597000D01*
X2340612Y3128632D02*
X2399931D01*
X2453330Y3075233D01*
X2468154D01*
X2579462Y2983740D02*
X2665362Y3009223D01*
X2393129Y2608675D02*
X2600000Y2500000D01*
X1928357Y2865635D02*
X2393129Y2608675D01*
X3967033Y2479343D02*
X3979343D01*
X3003524Y2494662D02*
X3967033Y2479343D01*
X2976496Y2494925D02*
X3002926Y2494669D01*
X2789434Y2063196D02*
X2970238Y2070990D01*
X2629193Y2266002D02*
X2791470Y2255717D01*
X2970238Y2070990D02*
X2976530Y2070990D01*
X2808694Y2253556D02*
X2808753Y2253558D01*
X2976530Y2070990D02*
X2983412Y2070919D01*
X2799020Y2254939D02*
X2808694Y2253556D01*
X2827135Y2496376D02*
X2958254Y2493472D01*
X3723327Y3000536D02*
X3726659Y3001659D01*
X3811026Y3086026D01*
X2407625Y2643676D02*
X2415477Y2643675D01*
X3124800Y3019357D02*
X3775836Y3139885D01*
X2665362Y3009223D02*
X2667391Y3009263D01*
X3110000Y3017854D01*
X3145184Y2805782D02*
X3723327Y3000536D01*
X2415477Y2643675D02*
X3135672Y2803127D01*
X3775836Y3139885D02*
X3784624Y3148672D01*
X4772592Y2367884D02*
X4778802Y2367884D01*
X4674122Y2393333D02*
X4772592Y2367884D01*
X4545553Y2331874D02*
X4581848Y2368178D01*
X4518211Y2282997D02*
X4545553Y2331874D01*
X4510214Y2275000D02*
X4518211Y2282997D01*
X5003428Y1997211D02*
X5041815Y2174516D01*
X4937246Y2341002D02*
X4999491Y2208999D01*
X3174119Y2266000D02*
X3179434Y2265430D01*
X3187115Y2265430D02*
X3390200Y2279935D01*
X3179434Y2265430D02*
X3187115Y2265430D01*
X2484606Y1740394D02*
X2497026D01*
X3615771Y1783744D01*
X3300000Y953600D02*
X3310701D01*
X1165829Y1206497D02*
X2771148D01*
X2781548Y1196097D01*
X2189378Y1489000D02*
X3224022Y1478605D01*
X3225893Y1478604D02*
X4348573Y1489000D01*
X2184984Y1493394D02*
X2189378Y1489000D01*
X4348573Y1489000D02*
X4361000D01*
X4625000Y1225000D01*
X3979343Y2479343D02*
X4489627Y2989627D01*
X3237460Y2033567D02*
X3237677D01*
X1958446Y1983368D02*
X2971586Y2027647D01*
X2973658Y2027715D02*
X3237460Y2033567D01*
X1946018Y1983368D02*
X1958446Y1983368D01*
X2349907Y1875093D02*
X2413223Y1811777D01*
X2349907Y1875093D02*
Y1880690D01*
X2413223Y1811777D02*
X2484606Y1740394D01*
X695362Y1676964D02*
X1165829Y1206497D01*
X672254Y1676964D02*
X695362D01*
X4445295Y287069D02*
X4537069D01*
X4591215Y341216D01*
X4595609Y345609D02*
X4627451Y377451D01*
X4631607Y381607D01*
X4631801Y790734D02*
X4636000Y786535D01*
X4600000Y822535D02*
X4631801Y790734D01*
X4631607Y381607D02*
X4646220Y620683D01*
X4636000Y786535D02*
X4646176Y633131D01*
X4854605Y2140294D02*
X4875000Y2025000D01*
X5006997Y2190931D02*
Y2197145D01*
X5041815Y2174516D02*
X5041997Y2174698D01*
X4845818Y2149081D02*
X4854605Y2140294D01*
X4778703Y2029455D02*
X4779947Y2055163D01*
X4838700Y2156199D02*
X4845818Y2149081D01*
X4779947Y2055163D02*
Y2067590D01*
X4969485Y2005879D02*
X5003794Y2175547D01*
X5006997Y2190931D01*
X5035668Y2217970D02*
X5041997Y2211642D01*
X4968281Y2357234D02*
X5035668Y2217970D01*
X4638602Y2577974D02*
X4916976Y2413049D01*
X4999491Y2208999D02*
X5006997Y2197145D01*
X4519189Y2745070D02*
X4600155Y2750748D01*
X4665431Y2821684D02*
X4994047Y2519291D01*
X4599221Y2863500D02*
X4649475Y2833575D01*
X4994047Y2519291D02*
X5001074Y2512265D01*
X4506762Y2745070D02*
X4519189Y2745070D01*
X5001074Y2512265D02*
X5076996Y2226139D01*
X2206444Y2822024D02*
X2407625Y2643676D01*
X4517421Y3118370D02*
X4610921Y3120018D01*
X4663378Y3200896D02*
X4728381Y3158736D01*
X3788555Y3152603D02*
X4592880Y3215721D01*
X4499891Y2989627D02*
X4508678Y2980840D01*
X4506152Y3118317D02*
X4517421Y3118370D01*
X4592880Y3215721D02*
X4606703Y3216326D01*
X4473920Y3005334D02*
X4475104Y3006517D01*
X4489627Y2989627D02*
X4499891D01*
X4537741Y2936925D02*
X4569614Y2891139D01*
X4473920Y3005334D02*
X4489627Y2989627D01*
X4728381Y3158736D02*
X4736000Y3151117D01*
X4508678Y2980840D02*
X4537741Y2936925D01*
X4648732Y2946214D02*
X4700664Y3026511D01*
X3816829Y3086296D02*
X4506152Y3118317D01*
X4700664Y3026511D02*
X4736000Y3079874D01*
X3165438Y2266000D02*
X3174119D01*
X3910800Y2019678D02*
X3916843D01*
X3251861Y2068567D02*
X3396560Y2064062D01*
X3237677Y2033567D02*
X3237888Y2033561D01*
X3397882Y2029018D02*
X3910800Y2019678D01*
X3396532Y2029049D02*
X3396794Y2029042D01*
X3397574Y2029024D02*
X3397882Y2029018D01*
X2983412Y2070919D02*
X3251861Y2068567D01*
X3916843Y2019678D02*
X3917122Y2019679D01*
X3396794Y2029042D02*
X3397574Y2029024D01*
X3237888Y2033561D02*
X3396532Y2029049D01*
X3415256Y2065377D02*
X3574722Y2093307D01*
X3784624Y3148672D02*
X3788555Y3152603D01*
X3811026Y3086026D02*
X3816829Y3086296D01*
X4908483Y3040410D02*
X4908841Y3040057D01*
X4470987Y3458557D02*
X4908483Y3040410D01*
X4908841Y3040057D02*
X5086000Y2857130D01*
Y2666307D02*
Y2857130D01*
X4736000Y3079874D02*
Y3151117D01*
X5041997Y2174698D02*
Y2211642D01*
X5076996Y2226139D02*
X5078122Y2183427D01*
X2808753Y2253558D02*
X3165438Y2266000D01*
X2875000Y3791000D02*
X2891000Y3775000D01*
X3810340D01*
X3574722Y2093307D02*
X3574808Y2093394D01*
X972000Y2597000D02*
Y2647001D01*
X1162500Y2837500D01*
X4126783Y3458557D02*
X4470987D01*
X4625000Y1225000D02*
X4625000D01*
X4624842Y1010399D02*
Y1224842D01*
X4625000Y1225000D01*
X4600000Y985557D02*
X4624842Y1010399D01*
X4600000Y822535D02*
Y985557D01*
X4591215Y341216D02*
X4595609Y345609D01*
X3574808Y2093394D02*
X3644710Y2163295D01*
X4500693Y2739000D02*
X4506762Y2745070D01*
X5050000Y2600000D02*
Y2630307D01*
X5086000Y2666307D01*
X3810340Y3775000D02*
X4126783Y3458557D01*
X3569400Y305600D02*
X3600000Y275000D01*
X4768610Y2175686D02*
X4838700Y2156199D01*
X5000000Y1425000D02*
X5081054Y2133403D01*
X4489000Y2290000D02*
Y2730582D01*
X4497788Y2275000D02*
X4510214D01*
X4489000Y2290000D02*
X4489000Y2283788D01*
X4497788Y2275000D01*
X4464000Y1736000D02*
X4975000Y1225000D01*
X4524122Y152500D02*
X4750000Y378378D01*
X3286798Y152500D02*
X4524122D01*
X3129398Y220601D02*
X3218698D01*
X4750000Y378378D02*
Y1100000D01*
X3074998Y275000D02*
X3129398Y220601D01*
X3218698D02*
X3286798Y152500D01*
X1500000Y2725000D02*
X1925000D01*
X4489000Y2730582D02*
X4493392Y2734975D01*
X4493394Y2734976D02*
X4497418Y2739000D01*
X4500693D01*
D54*
X400000Y396000D02*
D03*
X501600Y904000D02*
D03*
X298400D02*
D03*
D55*
X725000Y2424999D02*
D03*
Y1925000D02*
D03*
D56*
X399996Y1550000D02*
D03*
D57*
X1100001Y699998D02*
D03*
X4150003Y3750000D02*
D03*
Y699998D02*
D03*
X1100001Y3750000D02*
D03*
D58*
X3850000Y4250000D02*
D03*
X3849998Y4000002D02*
D03*
X3600001D02*
D03*
X3599996Y4249999D02*
D03*
X3349994Y4240799D02*
D03*
X3349999Y4000002D02*
D03*
X3100002D02*
D03*
X3099997Y4249994D02*
D03*
X2850000D02*
D03*
Y4000002D02*
D03*
X2599998D02*
D03*
Y4249994D02*
D03*
X2349996Y4249999D02*
D03*
X2099999Y4000002D02*
D03*
Y4249994D02*
D03*
X1849997Y4249999D02*
D03*
X1850002Y4000002D02*
D03*
X1600000D02*
D03*
Y4249994D02*
D03*
X1349998Y4249999D02*
D03*
Y3999997D02*
D03*
X4100000Y275000D02*
D03*
X3850000D02*
D03*
X3600000D02*
D03*
X3349999Y275000D02*
D03*
X3074998D02*
D03*
X2850000D02*
D03*
X2600003D02*
D03*
X2350001D02*
D03*
X1850002D02*
D03*
X1600000D02*
D03*
X1350003D02*
D03*
X2350001Y4000002D02*
D03*
X2099999Y275000D02*
D03*
D59*
X1893548Y3195165D02*
D03*
X4346102Y1749610D02*
D03*
X4175000Y1900000D02*
D03*
X4018901Y1775000D02*
D03*
X2953075Y680044D02*
D03*
X3125000Y800000D02*
D03*
X3316322Y774824D02*
D03*
X3324247Y598002D02*
D03*
X3155984Y493901D02*
D03*
X3618165Y693165D02*
D03*
X4256301Y2076352D02*
D03*
X1827300Y2136400D02*
D03*
X1981985Y2946218D02*
D03*
X1669937Y2832598D02*
D03*
X1807755Y2977404D02*
D03*
X2175000Y2975000D02*
D03*
X1762240Y2428400D02*
D03*
X1805858Y2616202D02*
D03*
X1651395Y2170097D02*
D03*
X1552407Y2519770D02*
D03*
X1425000Y2875000D02*
D03*
X1398663Y2661407D02*
D03*
X1350000Y2400000D02*
D03*
X1138726Y2501101D02*
D03*
X875000Y2550000D02*
D03*
X1250000Y3375000D02*
D03*
X1464254Y3095031D02*
D03*
X1650000Y3200000D02*
D03*
X1675000Y3775000D02*
D03*
X2675000Y3550000D02*
D03*
X2468154Y3075233D02*
D03*
X2600000Y2500000D02*
D03*
X3150060Y3125414D02*
D03*
X2785373Y2159510D02*
D03*
X3001991Y2398274D02*
D03*
X3117174Y2900000D02*
D03*
X2825000Y2400000D02*
D03*
X3125000Y3350000D02*
D03*
X3150068Y3525216D02*
D03*
X2966469Y3584061D02*
D03*
X3475000Y3550000D02*
D03*
X3925000Y3425000D02*
D03*
X4650000Y2300000D02*
D03*
X4521500Y1896428D02*
D03*
X3397067Y2183780D02*
D03*
X3619504Y1687417D02*
D03*
X2858894Y530182D02*
D03*
X3300000Y953600D02*
D03*
X3450000Y1250000D02*
D03*
X3042671Y1185097D02*
D03*
X2781548Y1196097D02*
D03*
X3225000Y1575000D02*
D03*
X3521101Y2675438D02*
D03*
X3286386Y2709923D02*
D03*
X2975796Y1931339D02*
D03*
X2349907Y1880690D02*
D03*
X1725000Y1675000D02*
D03*
X1325000Y1725000D02*
D03*
X1025002Y1724998D02*
D03*
X672254Y1676964D02*
D03*
X1400000Y650000D02*
D03*
X800000Y400000D02*
D03*
X4506705Y454941D02*
D03*
X4445295Y287069D02*
D03*
X4550000Y626565D02*
D03*
X4875000Y2025000D02*
D03*
X4850000Y2300000D02*
D03*
X4638602Y2577974D02*
D03*
X4600155Y2750748D02*
D03*
X5050000Y2600000D02*
D03*
X4610921Y3120018D02*
D03*
X4475104Y3006517D02*
D03*
X4648732Y2946214D02*
D03*
X4538693Y3788693D02*
D03*
X4693621Y3903451D02*
D03*
X2875000Y3791000D02*
D03*
X775000Y1200000D02*
D03*
X4975000Y2775000D02*
D03*
X4624842Y1225158D02*
D03*
X975000Y2375000D02*
D03*
X1500000Y1800000D02*
D03*
X4750000Y1100000D02*
D03*
X4975000Y1225000D02*
D03*
X5000000Y1425000D02*
D03*
X559569Y1206206D02*
D03*
X4600000Y1425000D02*
D03*
X700000Y3500000D02*
D03*
X1025000Y3375000D02*
D03*
X2175000Y600000D02*
D03*
X1975000D02*
D03*
D60*
X2099999Y3450000D02*
D03*
X1999999Y3550000D02*
D03*
Y3450000D02*
D03*
X1900000Y3550000D02*
D03*
Y3450000D02*
D03*
%TF.MD5,883314031a015961ed6a6f5fd4b77bc0*%
M02*
