%TF.GenerationSoftware,Altium Limited,Altium Designer,23.4.1 (23)*%
G04 Layer_Color=65535*
%FSLAX45Y45*%
%MOMM*%
%TF.SameCoordinates,CCA20B2C-2D51-4D5F-8D0C-A6767DA9E69A*%
%TF.FilePolarity,Positive*%
%TF.FileFunction,Legend,Top*%
%TF.Part,Single*%
G01*
G75*
%TA.AperFunction,NonConductor*%
%ADD88C,0.50000*%
%ADD89C,0.25000*%
%ADD90C,0.20000*%
G36*
X3648971Y1833595D02*
X3572754D01*
Y1833501D01*
X3572942Y1833407D01*
X3573130Y1833125D01*
X3573411Y1832843D01*
X3574257Y1831810D01*
X3575291Y1830494D01*
X3576513Y1828896D01*
X3577922Y1826923D01*
X3579426Y1824667D01*
X3580930Y1822130D01*
Y1822036D01*
X3581118Y1821848D01*
X3581306Y1821472D01*
X3581588Y1821002D01*
X3581964Y1820344D01*
X3582340Y1819686D01*
X3583279Y1817995D01*
X3584219Y1816021D01*
X3585253Y1813953D01*
X3586287Y1811792D01*
X3587133Y1809630D01*
X3575573D01*
X3575479Y1809724D01*
X3575385Y1810100D01*
X3575103Y1810570D01*
X3574727Y1811322D01*
X3574257Y1812168D01*
X3573693Y1813202D01*
X3573130Y1814329D01*
X3572378Y1815551D01*
X3570686Y1818277D01*
X3568806Y1821190D01*
X3566645Y1824197D01*
X3564201Y1827111D01*
X3564107Y1827205D01*
X3563919Y1827487D01*
X3563544Y1827862D01*
X3563074Y1828332D01*
X3562416Y1828990D01*
X3561758Y1829648D01*
X3560912Y1830400D01*
X3559972Y1831246D01*
X3557999Y1833031D01*
X3555837Y1834817D01*
X3553488Y1836415D01*
X3552266Y1837167D01*
X3551044Y1837824D01*
Y1845531D01*
X3648971D01*
Y1833595D01*
D02*
G37*
G36*
Y1777959D02*
X3614199Y1753336D01*
X3614105Y1753242D01*
X3613729Y1752960D01*
X3613071Y1752585D01*
X3612319Y1752021D01*
X3611473Y1751457D01*
X3610440Y1750799D01*
X3608184Y1749295D01*
X3608278D01*
X3608372Y1749201D01*
X3608654Y1749013D01*
X3609030Y1748731D01*
X3609876Y1748167D01*
X3611003Y1747510D01*
X3612131Y1746758D01*
X3613259Y1746006D01*
X3614387Y1745254D01*
X3615233Y1744690D01*
X3648971Y1719973D01*
Y1704467D01*
X3598410Y1742153D01*
X3551420Y1708978D01*
Y1724484D01*
X3576325Y1742153D01*
X3576419Y1742247D01*
X3576701Y1742435D01*
X3577077Y1742717D01*
X3577641Y1743093D01*
X3578298Y1743468D01*
X3579050Y1744032D01*
X3580742Y1745254D01*
X3582621Y1746476D01*
X3584689Y1747792D01*
X3586569Y1749013D01*
X3588260Y1749953D01*
X3588166D01*
X3588072Y1750141D01*
X3587790Y1750235D01*
X3587414Y1750517D01*
X3586381Y1751175D01*
X3584971Y1752115D01*
X3583373Y1753242D01*
X3581494Y1754558D01*
X3579520Y1756062D01*
X3577359Y1757659D01*
X3551420Y1777207D01*
Y1791304D01*
X3597752Y1757471D01*
X3648971Y1793936D01*
Y1777959D01*
D02*
G37*
G36*
X2399385Y3765271D02*
X2343091D01*
X2342903D01*
X2342527D01*
X2341870D01*
X2341024D01*
X2339990Y3765177D01*
X2338768D01*
X2337453Y3765083D01*
X2336043Y3764989D01*
X2332941Y3764707D01*
X2329840Y3764238D01*
X2328336Y3764050D01*
X2326927Y3763674D01*
X2325611Y3763298D01*
X2324389Y3762922D01*
X2324295D01*
X2324107Y3762828D01*
X2323825Y3762640D01*
X2323356Y3762452D01*
X2322322Y3761888D01*
X2321006Y3761042D01*
X2319502Y3759915D01*
X2317905Y3758505D01*
X2316401Y3756813D01*
X2315085Y3754840D01*
Y3754746D01*
X2314991Y3754558D01*
X2314803Y3754276D01*
X2314615Y3753806D01*
X2314333Y3753242D01*
X2314052Y3752584D01*
X2313770Y3751832D01*
X2313488Y3750892D01*
X2313206Y3749953D01*
X2312924Y3748919D01*
X2312360Y3746475D01*
X2311984Y3743750D01*
X2311890Y3740743D01*
Y3739427D01*
X2311984Y3738393D01*
X2312078Y3737265D01*
X2312266Y3735856D01*
X2312454Y3734446D01*
X2312736Y3732848D01*
X2313488Y3729465D01*
X2313958Y3727773D01*
X2314615Y3726176D01*
X2315367Y3724578D01*
X2316213Y3723074D01*
X2317153Y3721665D01*
X2318281Y3720443D01*
X2318375Y3720349D01*
X2318563Y3720161D01*
X2319032Y3719879D01*
X2319596Y3719503D01*
X2320348Y3719033D01*
X2321288Y3718469D01*
X2322416Y3717999D01*
X2323825Y3717342D01*
X2325423Y3716778D01*
X2327209Y3716308D01*
X2329182Y3715744D01*
X2331532Y3715274D01*
X2333975Y3714898D01*
X2336795Y3714616D01*
X2339802Y3714428D01*
X2343091Y3714334D01*
X2399385D01*
Y3701459D01*
X2342997D01*
X2342809D01*
X2342339D01*
X2341588D01*
X2340554Y3701553D01*
X2339332D01*
X2337922Y3701647D01*
X2336325Y3701741D01*
X2334633Y3701835D01*
X2332754Y3702023D01*
X2330874Y3702305D01*
X2327021Y3702869D01*
X2323168Y3703714D01*
X2321382Y3704278D01*
X2319690Y3704842D01*
X2319596D01*
X2319314Y3705030D01*
X2318844Y3705218D01*
X2318281Y3705500D01*
X2317529Y3705876D01*
X2316683Y3706346D01*
X2315743Y3706910D01*
X2314709Y3707568D01*
X2313582Y3708319D01*
X2312454Y3709259D01*
X2311326Y3710199D01*
X2310104Y3711327D01*
X2308883Y3712549D01*
X2307755Y3713864D01*
X2306627Y3715274D01*
X2305593Y3716872D01*
X2305499Y3716966D01*
X2305405Y3717248D01*
X2305123Y3717717D01*
X2304747Y3718469D01*
X2304372Y3719315D01*
X2303902Y3720349D01*
X2303432Y3721571D01*
X2302962Y3722980D01*
X2302398Y3724484D01*
X2301928Y3726176D01*
X2301458Y3728055D01*
X2301082Y3730123D01*
X2300706Y3732284D01*
X2300424Y3734634D01*
X2300330Y3737077D01*
X2300236Y3739615D01*
Y3740931D01*
X2300330Y3741870D01*
X2300424Y3743092D01*
X2300518Y3744408D01*
X2300612Y3745911D01*
X2300800Y3747603D01*
X2301082Y3749295D01*
X2301364Y3751080D01*
X2302210Y3754840D01*
X2302774Y3756719D01*
X2303432Y3758599D01*
X2304090Y3760384D01*
X2304935Y3762076D01*
X2305029Y3762170D01*
X2305123Y3762452D01*
X2305405Y3762922D01*
X2305781Y3763486D01*
X2306345Y3764238D01*
X2306909Y3764989D01*
X2307567Y3765929D01*
X2308413Y3766869D01*
X2309353Y3767903D01*
X2310292Y3768937D01*
X2311420Y3769970D01*
X2312642Y3770910D01*
X2313958Y3771944D01*
X2315461Y3772884D01*
X2316965Y3773730D01*
X2318563Y3774481D01*
X2318657D01*
X2318938Y3774669D01*
X2319502Y3774857D01*
X2320160Y3775045D01*
X2321100Y3775327D01*
X2322228Y3775609D01*
X2323450Y3775985D01*
X2324953Y3776267D01*
X2326645Y3776643D01*
X2328430Y3777019D01*
X2330498Y3777301D01*
X2332660Y3777583D01*
X2335009Y3777771D01*
X2337453Y3777959D01*
X2340178Y3778147D01*
X2342997D01*
X2399385D01*
Y3765271D01*
D02*
G37*
G36*
X2304466Y3686234D02*
X2305687Y3686046D01*
X2307097Y3685858D01*
X2308601Y3685482D01*
X2310104Y3685012D01*
X2310198D01*
X2310386Y3684918D01*
X2310762Y3684731D01*
X2311232Y3684543D01*
X2311796Y3684261D01*
X2312548Y3683885D01*
X2314145Y3683039D01*
X2316119Y3682005D01*
X2318281Y3680595D01*
X2320630Y3678998D01*
X2322980Y3677118D01*
X2323074Y3677024D01*
X2323262Y3676836D01*
X2323637Y3676554D01*
X2324107Y3676084D01*
X2324765Y3675520D01*
X2325423Y3674863D01*
X2326269Y3674017D01*
X2327209Y3673077D01*
X2328242Y3672043D01*
X2329370Y3670915D01*
X2330686Y3669600D01*
X2331908Y3668190D01*
X2333317Y3666686D01*
X2334727Y3664995D01*
X2336231Y3663303D01*
X2337828Y3661423D01*
X2338016Y3661236D01*
X2338392Y3660766D01*
X2339050Y3659920D01*
X2339990Y3658886D01*
X2341118Y3657570D01*
X2342339Y3656067D01*
X2343749Y3654469D01*
X2345347Y3652777D01*
X2348636Y3649206D01*
X2352019Y3645635D01*
X2353805Y3643943D01*
X2355403Y3642440D01*
X2357000Y3641030D01*
X2358504Y3639902D01*
X2358598Y3639808D01*
X2358880Y3639620D01*
X2359256Y3639338D01*
X2359820Y3639056D01*
X2360478Y3638586D01*
X2361229Y3638116D01*
X2362169Y3637647D01*
X2363203Y3637083D01*
X2365365Y3636049D01*
X2367808Y3635109D01*
X2369030Y3634827D01*
X2370346Y3634545D01*
X2371567Y3634357D01*
X2372883Y3634263D01*
X2372977D01*
X2373165D01*
X2373541D01*
X2374105Y3634357D01*
X2374669Y3634451D01*
X2375420Y3634545D01*
X2377112Y3634921D01*
X2378992Y3635485D01*
X2380965Y3636425D01*
X2381999Y3636989D01*
X2383033Y3637741D01*
X2383973Y3638492D01*
X2384912Y3639432D01*
X2385006Y3639526D01*
X2385100Y3639620D01*
X2385382Y3639996D01*
X2385664Y3640372D01*
X2386040Y3640842D01*
X2386416Y3641500D01*
X2386886Y3642158D01*
X2387356Y3643003D01*
X2387826Y3643849D01*
X2388296Y3644883D01*
X2389048Y3647139D01*
X2389611Y3649770D01*
X2389705Y3651180D01*
X2389799Y3652683D01*
Y3653529D01*
X2389705Y3654093D01*
X2389611Y3654845D01*
X2389517Y3655691D01*
X2389329Y3656630D01*
X2389142Y3657664D01*
X2388578Y3659920D01*
X2387638Y3662175D01*
X2387074Y3663397D01*
X2386322Y3664525D01*
X2385570Y3665559D01*
X2384630Y3666592D01*
X2384537Y3666686D01*
X2384349Y3666780D01*
X2384067Y3667062D01*
X2383691Y3667438D01*
X2383127Y3667814D01*
X2382563Y3668190D01*
X2381811Y3668660D01*
X2380871Y3669130D01*
X2379931Y3669694D01*
X2378898Y3670164D01*
X2377676Y3670540D01*
X2376454Y3670915D01*
X2375045Y3671291D01*
X2373541Y3671573D01*
X2372037Y3671667D01*
X2370346Y3671761D01*
X2371567Y3684073D01*
X2371755D01*
X2372131Y3683979D01*
X2372883Y3683885D01*
X2373823Y3683791D01*
X2374951Y3683509D01*
X2376266Y3683227D01*
X2377770Y3682851D01*
X2379368Y3682381D01*
X2380965Y3681911D01*
X2382751Y3681253D01*
X2384443Y3680407D01*
X2386228Y3679562D01*
X2387920Y3678528D01*
X2389517Y3677400D01*
X2391115Y3676084D01*
X2392525Y3674581D01*
X2392619Y3674487D01*
X2392807Y3674205D01*
X2393183Y3673735D01*
X2393653Y3673077D01*
X2394216Y3672231D01*
X2394780Y3671197D01*
X2395438Y3670070D01*
X2396190Y3668660D01*
X2396848Y3667156D01*
X2397506Y3665559D01*
X2398070Y3663679D01*
X2398634Y3661705D01*
X2399103Y3659638D01*
X2399479Y3657382D01*
X2399667Y3654939D01*
X2399761Y3652401D01*
Y3651744D01*
X2399667Y3651086D01*
Y3650052D01*
X2399479Y3648924D01*
X2399385Y3647514D01*
X2399103Y3646011D01*
X2398821Y3644413D01*
X2398352Y3642627D01*
X2397882Y3640842D01*
X2397224Y3638962D01*
X2396472Y3637177D01*
X2395626Y3635297D01*
X2394498Y3633511D01*
X2393371Y3631820D01*
X2391961Y3630222D01*
X2391867Y3630128D01*
X2391585Y3629846D01*
X2391209Y3629470D01*
X2390551Y3628906D01*
X2389799Y3628343D01*
X2388860Y3627591D01*
X2387826Y3626839D01*
X2386604Y3626087D01*
X2385288Y3625335D01*
X2383785Y3624583D01*
X2382187Y3623831D01*
X2380495Y3623268D01*
X2378710Y3622704D01*
X2376736Y3622328D01*
X2374763Y3622046D01*
X2372601Y3621952D01*
X2372507D01*
X2372319D01*
X2372037D01*
X2371567D01*
X2371097Y3622046D01*
X2370440D01*
X2368936Y3622234D01*
X2367244Y3622516D01*
X2365271Y3622986D01*
X2363203Y3623550D01*
X2361042Y3624395D01*
X2360948D01*
X2360760Y3624489D01*
X2360478Y3624677D01*
X2360102Y3624865D01*
X2359538Y3625147D01*
X2358974Y3625429D01*
X2357470Y3626275D01*
X2355685Y3627403D01*
X2353617Y3628812D01*
X2351456Y3630410D01*
X2349106Y3632384D01*
X2349012Y3632478D01*
X2348824Y3632666D01*
X2348448Y3632948D01*
X2347978Y3633417D01*
X2347320Y3634075D01*
X2346569Y3634827D01*
X2345629Y3635673D01*
X2344689Y3636801D01*
X2343467Y3637928D01*
X2342246Y3639338D01*
X2340836Y3640842D01*
X2339238Y3642533D01*
X2337640Y3644319D01*
X2335855Y3646293D01*
X2333975Y3648454D01*
X2332002Y3650804D01*
X2331908Y3650898D01*
X2331626Y3651274D01*
X2331156Y3651838D01*
X2330498Y3652495D01*
X2329840Y3653435D01*
X2328994Y3654375D01*
X2327115Y3656630D01*
X2325047Y3658980D01*
X2322980Y3661236D01*
X2322040Y3662269D01*
X2321194Y3663209D01*
X2320348Y3664055D01*
X2319690Y3664713D01*
X2319596Y3664807D01*
X2319126Y3665183D01*
X2318469Y3665747D01*
X2317717Y3666498D01*
X2316683Y3667250D01*
X2315649Y3668096D01*
X2314521Y3668942D01*
X2313300Y3669694D01*
Y3621858D01*
X2301834D01*
Y3686328D01*
X2301928D01*
X2302022D01*
X2302586D01*
X2303432D01*
X2304466Y3686234D01*
D02*
G37*
G36*
X887563Y1824670D02*
X888409D01*
X889537Y1824576D01*
X890758Y1824388D01*
X892074Y1824106D01*
X893578Y1823824D01*
X895176Y1823448D01*
X896773Y1822978D01*
X898371Y1822414D01*
X900062Y1821662D01*
X901660Y1820817D01*
X903164Y1819877D01*
X904667Y1818749D01*
X905983Y1817433D01*
X906077Y1817339D01*
X906265Y1817057D01*
X906641Y1816681D01*
X907017Y1816024D01*
X907581Y1815272D01*
X908145Y1814332D01*
X908709Y1813204D01*
X909366Y1811888D01*
X909930Y1810479D01*
X910494Y1808787D01*
X911058Y1807001D01*
X911528Y1805028D01*
X911998Y1802866D01*
X912280Y1800611D01*
X912468Y1798073D01*
Y1795442D01*
X900814Y1793844D01*
Y1793938D01*
Y1794314D01*
X900720Y1794878D01*
Y1795630D01*
X900626Y1796570D01*
X900532Y1797603D01*
X900344Y1798731D01*
X900156Y1799953D01*
X899593Y1802584D01*
X898935Y1805122D01*
X898465Y1806250D01*
X897901Y1807377D01*
X897337Y1808411D01*
X896679Y1809257D01*
X896491Y1809445D01*
X896021Y1809915D01*
X895176Y1810573D01*
X893954Y1811231D01*
X892544Y1811982D01*
X890758Y1812640D01*
X888691Y1813110D01*
X887563Y1813204D01*
X886341Y1813298D01*
X885496D01*
X884650Y1813204D01*
X883522Y1813016D01*
X882206Y1812734D01*
X880797Y1812358D01*
X879387Y1811888D01*
X878071Y1811137D01*
X877883Y1811043D01*
X877507Y1810761D01*
X876849Y1810197D01*
X876098Y1809539D01*
X875346Y1808693D01*
X874500Y1807659D01*
X873748Y1806438D01*
X873184Y1805122D01*
X873090Y1804934D01*
Y1804746D01*
X872996Y1804370D01*
X872808Y1803994D01*
X872714Y1803430D01*
X872620Y1802866D01*
X872432Y1802115D01*
X872338Y1801363D01*
X872244Y1800423D01*
X872056Y1799389D01*
X871962Y1798261D01*
X871868Y1797040D01*
Y1795724D01*
X871774Y1794314D01*
Y1792810D01*
Y1725615D01*
X858899D01*
Y1792059D01*
Y1792153D01*
Y1792623D01*
Y1793280D01*
Y1794126D01*
X858993Y1795160D01*
X859087Y1796288D01*
X859181Y1797603D01*
X859275Y1799013D01*
X859651Y1802115D01*
X860121Y1805216D01*
X860873Y1808317D01*
X861343Y1809727D01*
X861907Y1811043D01*
Y1811137D01*
X862001Y1811325D01*
X862189Y1811700D01*
X862470Y1812170D01*
X862752Y1812734D01*
X863128Y1813298D01*
X864162Y1814802D01*
X865478Y1816493D01*
X867075Y1818185D01*
X869049Y1819783D01*
X871305Y1821286D01*
X871399D01*
X871587Y1821474D01*
X871962Y1821568D01*
X872432Y1821850D01*
X873090Y1822132D01*
X873748Y1822414D01*
X874594Y1822696D01*
X875534Y1822978D01*
X876661Y1823354D01*
X877789Y1823636D01*
X880327Y1824200D01*
X883240Y1824576D01*
X886341Y1824764D01*
X886905D01*
X887563Y1824670D01*
D02*
G37*
G36*
X809466Y1746948D02*
X809560D01*
X809654Y1747136D01*
X809936Y1747324D01*
X810218Y1747606D01*
X811251Y1748452D01*
X812567Y1749486D01*
X814165Y1750707D01*
X816138Y1752117D01*
X818394Y1753621D01*
X820931Y1755125D01*
X821025D01*
X821213Y1755312D01*
X821589Y1755500D01*
X822059Y1755782D01*
X822717Y1756158D01*
X823375Y1756534D01*
X825066Y1757474D01*
X827040Y1758414D01*
X829108Y1759448D01*
X831269Y1760481D01*
X833431Y1761327D01*
Y1749768D01*
X833337Y1749674D01*
X832961Y1749580D01*
X832491Y1749298D01*
X831739Y1748922D01*
X830893Y1748452D01*
X829859Y1747888D01*
X828732Y1747324D01*
X827510Y1746572D01*
X824784Y1744881D01*
X821871Y1743001D01*
X818864Y1740840D01*
X815950Y1738396D01*
X815856Y1738302D01*
X815574Y1738114D01*
X815199Y1737738D01*
X814729Y1737268D01*
X814071Y1736610D01*
X813413Y1735953D01*
X812661Y1735107D01*
X811815Y1734167D01*
X810030Y1732193D01*
X808244Y1730032D01*
X806646Y1727682D01*
X805895Y1726461D01*
X805237Y1725239D01*
X797530D01*
Y1823166D01*
X809466D01*
Y1746948D01*
D02*
G37*
D88*
X3015000Y1810000D02*
G03*
X3015000Y1810000I-25000J0D01*
G01*
D89*
X3231621Y1704000D02*
G03*
X3231621Y1704000I-12500J0D01*
G01*
X4382500Y2640000D02*
G03*
X4382500Y2640000I-12500J0D01*
G01*
X859999Y2305001D02*
G03*
X859999Y2305001I-12500J0D01*
G01*
X4685000Y2575000D02*
G03*
X4685000Y2575000I-12500J0D01*
G01*
X4042500Y1435000D02*
G03*
X4042500Y1435000I-12500J0D01*
G01*
X152500Y3125000D02*
G03*
X152500Y3125000I-12500J0D01*
G01*
X1400001Y3172500D02*
G03*
X1400001Y3172500I-12500J0D01*
G01*
X2217499Y3835002D02*
G03*
X2217499Y3835002I-12500J0D01*
G01*
X4428107Y3202500D02*
G03*
X4428107Y3202500I-12500J0D01*
G01*
X3812508Y1679999D02*
G03*
X3812508Y1679999I-12500J0D01*
G01*
X152500Y2725000D02*
G03*
X152500Y2725000I-12500J0D01*
G01*
Y2925000D02*
G03*
X152500Y2925000I-12500J0D01*
G01*
Y3325000D02*
G03*
X152500Y3325000I-12500J0D01*
G01*
D90*
X3074998Y1724995D02*
Y2574996D01*
X2225008D02*
X3074998D01*
X2225003Y1724990D02*
X2225008Y2574996D01*
X2225003Y1724990D02*
X3074998Y1724995D01*
X2593628Y2901376D02*
Y3048625D01*
X2456381Y2901376D02*
Y3048625D01*
X4044994Y3010006D02*
Y3105008D01*
X4304993D01*
X4044994Y2645008D02*
Y2740004D01*
Y2645008D02*
X4304993D01*
X240007Y1800500D02*
Y2549500D01*
X239997Y1800469D02*
X321201D01*
X588800D02*
X709999D01*
Y1813499D01*
X709531Y2536399D02*
Y2549530D01*
X588800D02*
X709531D01*
X240007Y2549500D02*
X321201D01*
X239997Y1414999D02*
X559996D01*
X239997Y1672499D02*
Y1685001D01*
Y1414999D02*
Y1427501D01*
Y1685001D02*
X559996D01*
Y1672499D02*
Y1685001D01*
Y1414999D02*
Y1427501D01*
X4837503Y3425002D02*
X5062502D01*
X4837503Y3345002D02*
Y3425002D01*
Y2424999D02*
Y2504999D01*
Y2424999D02*
X5062502D01*
X5262501Y2544998D02*
Y3305002D01*
X4372502Y2550002D02*
X4470002D01*
Y2250003D02*
Y2332502D01*
Y2467503D02*
Y2550002D01*
X4372502Y2250003D02*
X4470002D01*
X4330002Y2372502D02*
Y2427503D01*
X3365005Y1299997D02*
X4035002D01*
X3365005Y999998D02*
X4035002D01*
Y1299997D01*
X3365005Y999998D02*
Y1299997D01*
X4459395Y759394D02*
Y1040607D01*
X4640609Y759394D02*
Y1040607D01*
X3361497Y2299999D02*
Y2399999D01*
X3488497Y2299999D02*
Y2399999D01*
X3400002Y1711498D02*
X3500002D01*
X3400002Y1838498D02*
X3500002D01*
X645001Y3015000D02*
X805000D01*
X645001Y2835000D02*
X805000D01*
X4252502Y1784995D02*
X4397500D01*
X4252502Y1514998D02*
X4397500D01*
X3159398Y1159393D02*
Y1440601D01*
X3340611Y1159393D02*
Y1440601D01*
X1480905Y2464983D02*
X1640909D01*
X1480905Y2284984D02*
X1640909D01*
X1082003Y2941492D02*
Y3041492D01*
X955003Y2941492D02*
Y3041492D01*
X357498Y3192500D02*
X392499D01*
X357498Y3057499D02*
X392499D01*
X4524998Y3313496D02*
X4624998D01*
X4524998Y3186496D02*
X4624998D01*
X1120001Y3232500D02*
X1330003D01*
X1120001Y2917505D02*
X1330003D01*
X2182498Y3759997D02*
X2209996D01*
Y3732499D02*
Y3759997D01*
Y3339998D02*
Y3367501D01*
X2182498Y3339998D02*
X2209996D01*
X1789997D02*
X1817500D01*
X1789997D02*
Y3367501D01*
Y3759997D02*
X1817500D01*
X1789997Y3732499D02*
Y3759997D01*
X645001Y2815000D02*
X805000D01*
X645001Y2635001D02*
X805000D01*
X2859393Y3159394D02*
Y3440608D01*
X3040607Y3159394D02*
Y3440608D01*
X4050003Y3150001D02*
X4350002D01*
X4050003Y3450000D02*
X4350002D01*
X3785609Y3454395D02*
Y3695608D01*
X3614393Y3454395D02*
Y3695608D01*
X4652501Y3430001D02*
X4697500D01*
X4652501Y3570000D02*
X4697500D01*
X4190607Y2259386D02*
Y2540599D01*
X4009393Y2259386D02*
Y2540599D01*
X961500Y3099999D02*
Y3199998D01*
X1088500Y3099999D02*
Y3199998D01*
X2899998Y3113496D02*
X2999997D01*
X2899998Y2986496D02*
X2999997D01*
X1712497Y3422497D02*
Y3527501D01*
X1587498Y3422497D02*
Y3527501D01*
X1947503Y3162498D02*
X2052506D01*
X1947503Y3287501D02*
X2052506D01*
X2949995Y1363497D02*
X3049995D01*
X2949995Y1236497D02*
X3049995D01*
X1922745Y1694264D02*
Y1794263D01*
X1795745Y1694264D02*
Y1794263D01*
X3525004Y2011492D02*
X3625003D01*
X3525004Y2138492D02*
X3625003D01*
X2225007Y2861497D02*
X2325007D01*
X2225007Y2988497D02*
X2325007D01*
X357498Y2657500D02*
X392499D01*
X357498Y2792501D02*
X392499D01*
X357498Y2857495D02*
X392499D01*
X357498Y2992496D02*
X392499D01*
X357498Y3257499D02*
X392499D01*
X357498Y3392500D02*
X392499D01*
%TF.MD5,ddb76d417f762de7fcebd2b77b22ddcf*%
M02*
