%TF.GenerationSoftware,Altium Limited,Altium Designer,23.4.1 (23)*%
G04 Layer_Color=32896*
%FSLAX45Y45*%
%MOMM*%
%TF.SameCoordinates,5EDC85C4-919B-4C78-8AD9-5EEEAC21EBF9*%
%TF.FilePolarity,Positive*%
%TF.FileFunction,Legend,Bot*%
%TF.Part,Single*%
G01*
G75*
%TA.AperFunction,NonConductor*%
%ADD71C,0.25000*%
%ADD73C,0.20000*%
%ADD75C,0.10000*%
D71*
X2497503Y2415001D02*
G03*
X2497503Y2415001I-12500J0D01*
G01*
X3585000Y100000D02*
G03*
X3585000Y100000I-12500J0D01*
G01*
Y1050000D02*
G03*
X3585000Y1050000I-12500J0D01*
G01*
X337496Y80004D02*
G03*
X337496Y80004I-12500J0D01*
G01*
D73*
X4112506Y2547694D02*
G03*
X4150573Y1565211I1530123J-432693D01*
G01*
X4112497Y2547696D02*
Y2665999D01*
X3629998Y1410000D02*
X3974996D01*
X2884996D02*
X3409999D01*
X2730000Y2840000D02*
X3974996D01*
X4162502Y-429997D02*
Y130002D01*
X3737504Y250001D02*
X3962503D01*
X3737504Y170001D02*
Y250001D01*
Y-549997D02*
Y-469997D01*
Y-549997D02*
X3962503D01*
X3737504Y3100004D02*
X3962502D01*
X3737504D02*
Y3180004D01*
Y3520003D02*
Y3600003D01*
X3962502D01*
X4162502Y3220004D02*
Y3480003D01*
Y519998D02*
Y1080002D01*
X3737504Y1200002D02*
X3962502D01*
X3737504Y1120002D02*
Y1200002D01*
Y399999D02*
Y479999D01*
Y399999D02*
X3962502D01*
X1452490Y79998D02*
X1497488D01*
X1452490Y219998D02*
X1497488D01*
X1377499Y-285000D02*
X1522497D01*
X1377499Y-14998D02*
X1522497D01*
X1470001Y759997D02*
X1630000D01*
X1470001Y939996D02*
X1630000D01*
X365004Y794998D02*
Y954998D01*
X184999Y794998D02*
Y954998D01*
X1469996Y610000D02*
X1629995D01*
X1469996Y789999D02*
X1629995D01*
X1297504Y387501D02*
X1402503D01*
X1297504Y512499D02*
X1402503D01*
X1262498Y547495D02*
Y652499D01*
X1137499Y547495D02*
Y652499D01*
X1262503Y272500D02*
Y377498D01*
X1137504Y272500D02*
Y377498D01*
X499995Y10001D02*
X949997D01*
Y979001D02*
Y990004D01*
Y10001D02*
Y21004D01*
X499995Y990004D02*
X949997D01*
X499995Y979001D02*
Y990004D01*
Y10001D02*
Y21004D01*
X170008Y340003D02*
Y860007D01*
X-169991D02*
X-157489D01*
X157511D02*
X170008D01*
X-169991Y340003D02*
Y860007D01*
Y340003D02*
X-157489D01*
X157511D02*
X170008D01*
X362505Y197498D02*
Y302497D01*
X237501Y197498D02*
Y302497D01*
D75*
X3592500Y3450000D02*
G03*
X3592500Y3450000I-5000J0D01*
G01*
%TF.MD5,00f0f790dc1d9c223babccec083eee6f*%
M02*
