%TF.GenerationSoftware,Altium Limited,Altium Designer,23.4.1 (23)*%
G04 Layer_Color=8421504*
%FSLAX45Y45*%
%MOMM*%
%TF.SameCoordinates,23A6EF31-BC3A-4AE1-B3CE-C8081D6B100D*%
%TF.FilePolarity,Positive*%
%TF.FileFunction,Paste,Top*%
%TF.Part,Single*%
G01*
G75*
%TA.AperFunction,NonConductor*%
%ADD10C,0.50000*%
%TA.AperFunction,SMDPad,CuDef*%
%ADD11R,0.52000X0.52000*%
%ADD12R,0.75000X1.00000*%
%ADD13R,0.50000X0.35000*%
%ADD14R,0.80000X0.95000*%
%ADD15R,0.95000X0.85000*%
%ADD16R,1.80000X0.60000*%
%ADD17R,1.40000X0.60000*%
%TA.AperFunction,ConnectorPad*%
%ADD18R,1.35000X0.40000*%
%ADD19R,1.90000X1.50000*%
%TA.AperFunction,SMDPad,CuDef*%
%ADD20R,1.05000X0.95000*%
%ADD21R,0.85000X0.95000*%
%ADD22R,0.80000X0.35000*%
%ADD23R,0.35000X0.85000*%
%ADD24R,2.70000X2.60000*%
%ADD25R,1.25000X1.10000*%
%ADD26R,1.20840X1.01213*%
%ADD27R,0.40000X2.00000*%
G04:AMPARAMS|DCode=28|XSize=0.73107mm|YSize=0.30247mm|CornerRadius=0.15124mm|HoleSize=0mm|Usage=FLASHONLY|Rotation=90.000|XOffset=0mm|YOffset=0mm|HoleType=Round|Shape=RoundedRectangle|*
%AMROUNDEDRECTD28*
21,1,0.73107,0.00000,0,0,90.0*
21,1,0.42859,0.30247,0,0,90.0*
1,1,0.30247,0.00000,0.21430*
1,1,0.30247,0.00000,-0.21430*
1,1,0.30247,0.00000,-0.21430*
1,1,0.30247,0.00000,0.21430*
%
%ADD28ROUNDEDRECTD28*%
G04:AMPARAMS|DCode=30|XSize=0.31247mm|YSize=1.78828mm|CornerRadius=0.15624mm|HoleSize=0mm|Usage=FLASHONLY|Rotation=180.000|XOffset=0mm|YOffset=0mm|HoleType=Round|Shape=RoundedRectangle|*
%AMROUNDEDRECTD30*
21,1,0.31247,1.47581,0,0,180.0*
21,1,0.00000,1.78828,0,0,180.0*
1,1,0.31247,0.00000,0.73791*
1,1,0.31247,0.00000,0.73791*
1,1,0.31247,0.00000,-0.73791*
1,1,0.31247,0.00000,-0.73791*
%
%ADD30ROUNDEDRECTD30*%
%ADD31R,0.50000X0.40000*%
G04:AMPARAMS|DCode=32|XSize=1.78828mm|YSize=0.31247mm|CornerRadius=0.15624mm|HoleSize=0mm|Usage=FLASHONLY|Rotation=180.000|XOffset=0mm|YOffset=0mm|HoleType=Round|Shape=RoundedRectangle|*
%AMROUNDEDRECTD32*
21,1,1.78828,0.00000,0,0,180.0*
21,1,1.47581,0.31247,0,0,180.0*
1,1,0.31247,-0.73791,0.00000*
1,1,0.31247,0.73791,0.00000*
1,1,0.31247,0.73791,0.00000*
1,1,0.31247,-0.73791,0.00000*
%
%ADD32ROUNDEDRECTD32*%
%ADD33R,0.52000X0.52000*%
%ADD34R,0.95872X0.91213*%
%ADD35R,0.60000X1.80000*%
G04:AMPARAMS|DCode=36|XSize=1.9mm|YSize=3.2mm|CornerRadius=0mm|HoleSize=0mm|Usage=FLASHONLY|Rotation=180.000|XOffset=0mm|YOffset=0mm|HoleType=Round|Shape=Octagon|*
%AMOCTAGOND36*
4,1,8,0.47500,-1.60000,-0.47500,-1.60000,-0.95000,-1.12500,-0.95000,1.12500,-0.47500,1.60000,0.47500,1.60000,0.95000,1.12500,0.95000,-1.12500,0.47500,-1.60000,0.0*
%
%ADD36OCTAGOND36*%

%ADD37R,1.55000X0.60000*%
%ADD38R,0.70000X1.30000*%
%ADD39R,1.01213X1.20840*%
%ADD40R,1.80000X1.20000*%
%ADD41R,0.80000X1.70000*%
%ADD42R,0.85000X0.70000*%
%ADD43R,1.78828X0.31247*%
%ADD44R,0.95000X0.80000*%
%ADD45R,0.45000X0.45000*%
%ADD46R,1.90000X2.40000*%
%ADD48R,6.80000X2.84000*%
%ADD49R,0.30247X0.73107*%
%ADD50R,0.60000X1.40000*%
%ADD51R,0.85000X0.70000*%
%TA.AperFunction,NonConductor*%
%ADD115R,1.75001X1.00000*%
%TA.AperFunction,SMDPad,CuDef*%
%ADD116R,0.50000X0.60000*%
G36*
X4194999Y1139999D02*
X4004999D01*
Y1269999D01*
X4194999D01*
Y1139999D01*
D02*
G37*
G36*
X4145002Y1090002D02*
X4055000Y1089999D01*
Y1139999D01*
X4145002D01*
Y1090002D01*
D02*
G37*
G36*
X4144999Y1860000D02*
X4054997D01*
Y1909997D01*
X4144999Y1910000D01*
Y1860000D01*
D02*
G37*
G36*
X4194999Y1730000D02*
X4004999D01*
Y1860000D01*
X4194999D01*
Y1730000D01*
D02*
G37*
D10*
X4079999Y1140001D02*
G03*
X4055002Y1115000I-25000J-2D01*
G01*
X4079999Y1139995D02*
G03*
X4079999Y1139999I-25000J5D01*
G01*
X4079279Y1854044D02*
G03*
X4079999Y1860000I-24280J5956D01*
G01*
X4126880Y1877225D02*
G03*
X4124989Y1874986I18119J-17225D01*
G01*
X4126880Y1877225D02*
G03*
X4124989Y1874986I18119J-17225D01*
G01*
X4127543Y1877896D02*
G03*
X4127539Y1877892I17456J-17896D01*
G01*
X4127543Y1877896D02*
G03*
X4127539Y1877892I17456J-17896D01*
G01*
X4055004Y1115000D02*
G03*
X4071746Y1121438I-5J25000D01*
G01*
X4055004Y1115000D02*
G03*
X4071746Y1121438I-5J25000D01*
G01*
X4071747D02*
G03*
X4071750Y1121441I-16747J18562D01*
G01*
X4071747Y1121438D02*
G03*
X4071750Y1121441I-16747J18562D01*
G01*
X4071751Y1121441D02*
G03*
X4079999Y1139995I-16751J18558D01*
G01*
X4071751Y1121441D02*
G03*
X4079999Y1139995I-16751J18558D01*
G01*
Y1140001D02*
G03*
X4055003Y1115000I-25000J-2D01*
G01*
X4127549Y1877901D02*
G03*
X4127545Y1877898I17451J-17902D01*
G01*
X4127549Y1877901D02*
G03*
X4127545Y1877898I17451J-17902D01*
G01*
X4126896Y1877241D02*
G03*
X4126885Y1877229I18103J-17242D01*
G01*
X4126896Y1877241D02*
G03*
X4126885Y1877229I18103J-17242D01*
G01*
X4127525Y1877878D02*
G03*
X4126897Y1877242I17475J-17878D01*
G01*
X4127525Y1877878D02*
G03*
X4126897Y1877242I17475J-17878D01*
G01*
X4127530Y1877883D02*
G03*
X4127526Y1877879I17470J-17883D01*
G01*
X4127530Y1877883D02*
G03*
X4127526Y1877879I17470J-17883D01*
G01*
X4127539Y1877892D02*
G03*
X4127530Y1877883I17460J-17892D01*
G01*
X4127539Y1877892D02*
G03*
X4127530Y1877883I17460J-17892D01*
G01*
X4169268Y1866002D02*
G03*
X4169267Y1866006I-24269J-6002D01*
G01*
X4169268Y1866002D02*
G03*
X4169267Y1866006I-24269J-6002D01*
G01*
X4120000Y1140001D02*
G03*
X4170000Y1139999I25000J-1D01*
G01*
X4154067Y1163297D02*
G03*
X4134069Y1162483I-9067J-23298D01*
G01*
X4169264Y1866017D02*
G03*
X4169263Y1866022I-24265J-6017D01*
G01*
X4169264Y1866017D02*
G03*
X4169263Y1866022I-24265J-6017D01*
G01*
X4132524Y1161664D02*
G03*
X4129842Y1159880I12476J-21664D01*
G01*
X4132524Y1161664D02*
G03*
X4129842Y1159880I12476J-21664D01*
G01*
X4134065Y1162481D02*
G03*
X4132525Y1161665I10935J-22482D01*
G01*
X4166301Y1153086D02*
G03*
X4156059Y1162420I-21301J-13087D01*
G01*
X4170000Y1140002D02*
G03*
X4166301Y1153086I-25000J-3D01*
G01*
X4154067Y1163297D02*
G03*
X4134068Y1162483I-9067J-23298D01*
G01*
X4134065Y1162481D02*
G03*
X4132525Y1161665I10935J-22482D01*
G01*
X4170000Y1140002D02*
G03*
X4166301Y1153086I-25000J-3D01*
G01*
D02*
G03*
X4156059Y1162420I-21301J-13087D01*
G01*
D02*
G03*
X4154070Y1163296I-11059J-22421D01*
G01*
X4156059Y1162420D02*
G03*
X4154070Y1163296I-11059J-22421D01*
G01*
X4120000Y1140046D02*
G03*
X4120000Y1140002I25000J-47D01*
G01*
Y1140046D02*
G03*
X4120000Y1140002I25000J-47D01*
G01*
X4122088Y1849997D02*
G03*
X4122091Y1849990I22912J10003D01*
G01*
X4122088Y1849997D02*
G03*
X4122091Y1849990I22912J10003D01*
G01*
X4124974Y1874965D02*
G03*
X4122087Y1849999I20026J-14966D01*
G01*
X4122092Y1849988D02*
G03*
X4167911Y1849996I22908J10011D01*
G01*
X4122092Y1849988D02*
G03*
X4167911Y1849996I22908J10011D01*
G01*
X4122092Y1849988D02*
G03*
X4167911Y1849996I22908J10011D01*
G01*
X4124974Y1874965D02*
G03*
X4122087Y1849998I20026J-14966D01*
G01*
X4122092Y1849988D02*
G03*
X4167911Y1849996I22908J10011D01*
G01*
X4169892Y1862319D02*
G03*
X4169270Y1865996I-24892J-2319D01*
G01*
X4169892Y1862319D02*
G03*
X4169270Y1865996I-24892J-2319D01*
G01*
X4169892Y1862319D02*
G03*
X4169270Y1865996I-24892J-2319D01*
G01*
X4169892Y1862319D02*
G03*
X4169270Y1865996I-24892J-2319D01*
G01*
X4124988Y1874984D02*
G03*
X4124975Y1874967I20012J-14984D01*
G01*
X4124988Y1874984D02*
G03*
X4124975Y1874967I20012J-14984D01*
G01*
X4120000Y1140089D02*
G03*
X4120000Y1140048I25000J-89D01*
G01*
X4120000Y1140089D02*
G03*
X4120000Y1140048I25000J-89D01*
G01*
X4120000Y1140093D02*
G03*
X4120000Y1140089I25000J-94D01*
G01*
Y1140093D02*
G03*
X4120000Y1140089I25000J-94D01*
G01*
Y1140098D02*
G03*
X4120000Y1140094I25000J-99D01*
G01*
Y1140134D02*
G03*
X4120000Y1140099I25000J-135D01*
G01*
Y1140098D02*
G03*
X4120000Y1140094I25000J-99D01*
G01*
Y1140134D02*
G03*
X4120000Y1140099I25000J-135D01*
G01*
X4120002Y1140317D02*
G03*
X4120000Y1140134I24998J-318D01*
G01*
X4120002Y1140317D02*
G03*
X4120000Y1140134I24998J-318D01*
G01*
X4120088Y1142100D02*
G03*
X4120002Y1140318I24912J-2100D01*
G01*
X4120580Y1145355D02*
G03*
X4120088Y1142100I24420J-5356D01*
G01*
X4120580Y1145355D02*
G03*
X4120088Y1142100I24420J-5356D01*
G01*
X4123334Y1152474D02*
G03*
X4120581Y1145359I21665J-12474D01*
G01*
X4123334Y1152474D02*
G03*
X4120581Y1145359I21665J-12474D01*
G01*
X4079999Y1860000D02*
G03*
X4032087Y1849998I-25000J-0D01*
G01*
D02*
G03*
X4077912Y1849998I22912J10001D01*
G01*
D02*
G03*
X4079279Y1854044I-22912J10001D01*
G01*
X4079999Y1860000D02*
G03*
X4032087Y1849998I-25000J-0D01*
G01*
D02*
G03*
X4077912Y1849998I22912J10001D01*
G01*
D02*
G03*
X4079279Y1854044I-22912J10001D01*
G01*
X4129842Y1159880D02*
G03*
X4123334Y1152474I15157J-19881D01*
G01*
X4129842Y1159880D02*
G03*
X4123334Y1152474I15157J-19881D01*
G01*
X4167911Y1849997D02*
G03*
X4168179Y1850634I-22912J10002D01*
G01*
X4167911Y1849997D02*
G03*
X4168179Y1850634I-22912J10002D01*
G01*
X4167911Y1849997D02*
G03*
X4168179Y1850634I-22912J10002D01*
G01*
X4167911Y1849997D02*
G03*
X4168179Y1850634I-22912J10002D01*
G01*
X4168180Y1850638D02*
G03*
X4168182Y1850642I-23181J9362D01*
G01*
X4168180Y1850638D02*
G03*
X4168182Y1850642I-23181J9362D01*
G01*
X4168182Y1850643D02*
G03*
X4169999Y1859992I-23183J9357D01*
G01*
D02*
G03*
X4169999Y1860000I-25000J8D01*
G01*
X4169262Y1866027D02*
G03*
X4168841Y1867521I-24263J-6027D01*
G01*
X4168182Y1850643D02*
G03*
X4169999Y1859992I-23183J9357D01*
G01*
D02*
G03*
X4169999Y1860000I-25000J8D01*
G01*
X4169262Y1866027D02*
G03*
X4168841Y1867521I-24263J-6027D01*
G01*
X4168286Y1869095D02*
G03*
X4167911Y1870002I-23287J-9095D01*
G01*
X4168839Y1867527D02*
G03*
X4168287Y1869092I-23840J-7527D01*
G01*
X4168286Y1869095D02*
G03*
X4167911Y1870002I-23287J-9095D01*
G01*
X4168286Y1869095D02*
G03*
X4167911Y1870002I-23287J-9095D01*
G01*
X4168286Y1869095D02*
G03*
X4167911Y1870002I-23287J-9095D01*
G01*
X4169262Y1866027D02*
G03*
X4168841Y1867521I-24263J-6027D01*
G01*
X4169262Y1866027D02*
G03*
X4168841Y1867521I-24263J-6027D01*
G01*
X4168839Y1867527D02*
G03*
X4168287Y1869092I-23840J-7527D01*
G01*
X4168839Y1867527D02*
G03*
X4168287Y1869092I-23840J-7527D01*
G01*
X4168839Y1867527D02*
G03*
X4168287Y1869092I-23840J-7527D01*
G01*
X4169961Y1861380D02*
G03*
X4169961Y1861389I-24962J-1380D01*
G01*
D02*
G03*
X4169895Y1862281I-24961J-1389D01*
G01*
X4169961Y1861380D02*
G03*
X4169961Y1861389I-24962J-1380D01*
G01*
D02*
G03*
X4169895Y1862281I-24961J-1389D01*
G01*
X4169894Y1862288D02*
G03*
X4169893Y1862306I-24895J-2288D01*
G01*
X4169961Y1861380D02*
G03*
X4169961Y1861389I-24962J-1380D01*
G01*
D02*
G03*
X4169895Y1862281I-24961J-1389D01*
G01*
X4169999Y1860002D02*
G03*
X4169961Y1861378I-25000J-2D01*
G01*
X4169999Y1860002D02*
G03*
X4169961Y1861378I-25000J-2D01*
G01*
Y1861380D02*
G03*
X4169961Y1861389I-24962J-1380D01*
G01*
D02*
G03*
X4169895Y1862281I-24961J-1389D01*
G01*
X4169999Y1860002D02*
G03*
X4169961Y1861378I-25000J-2D01*
G01*
X4169999Y1860002D02*
G03*
X4169961Y1861378I-25000J-2D01*
G01*
X4169893Y1862307D02*
G03*
X4169892Y1862317I-24893J-2307D01*
G01*
X4169893Y1862307D02*
G03*
X4169892Y1862317I-24893J-2307D01*
G01*
X4169894Y1862288D02*
G03*
X4169893Y1862306I-24895J-2288D01*
G01*
X4169894Y1862288D02*
G03*
X4169893Y1862306I-24895J-2288D01*
G01*
Y1862307D02*
G03*
X4169892Y1862317I-24893J-2307D01*
G01*
X4169894Y1862288D02*
G03*
X4169893Y1862306I-24895J-2288D01*
G01*
Y1862307D02*
G03*
X4169892Y1862317I-24893J-2307D01*
G01*
X4145000Y1885000D02*
G03*
X4127549Y1877901I-1J-25000D01*
G01*
X4145000Y1885000D02*
G03*
X4127549Y1877901I-1J-25000D01*
G01*
X4145000Y1885000D02*
G03*
X4127549Y1877901I-1J-25000D01*
G01*
X4145000Y1885000D02*
G03*
X4127549Y1877901I-1J-25000D01*
G01*
X4167911Y1870002D02*
G03*
X4154095Y1883286I-22912J-10002D01*
G01*
X4167911Y1870002D02*
G03*
X4154095Y1883286I-22912J-10002D01*
G01*
X4154089Y1883289D02*
G03*
X4152712Y1883780I-9090J-23289D01*
G01*
X4154089Y1883289D02*
G03*
X4152712Y1883780I-9090J-23289D01*
G01*
X4167911Y1870002D02*
G03*
X4154095Y1883286I-22912J-10002D01*
G01*
X4167911Y1870002D02*
G03*
X4154095Y1883286I-22912J-10002D01*
G01*
X4147278Y1884895D02*
G03*
X4145000Y1885000I-2279J-24896D01*
G01*
X4147278Y1884895D02*
G03*
X4145000Y1885000I-2279J-24896D01*
G01*
X4147278Y1884895D02*
G03*
X4145000Y1885000I-2279J-24896D01*
G01*
X4147278Y1884895D02*
G03*
X4145000Y1885000I-2279J-24896D01*
G01*
X4152711Y1883780D02*
G03*
X4147287Y1884895I-7712J-23781D01*
G01*
X4152711Y1883780D02*
G03*
X4147287Y1884895I-7712J-23781D01*
G01*
X4152711Y1883780D02*
G03*
X4147287Y1884895I-7712J-23781D01*
G01*
X4152711Y1883780D02*
G03*
X4147287Y1884895I-7712J-23781D01*
G01*
X4154089Y1883289D02*
G03*
X4152712Y1883780I-9090J-23289D01*
G01*
X4154089Y1883289D02*
G03*
X4152712Y1883780I-9090J-23289D01*
G01*
D11*
X450003Y1810000D02*
D03*
Y1890000D02*
D03*
X2700006Y2589998D02*
D03*
X1350001Y690002D02*
D03*
Y490003D02*
D03*
Y610002D02*
D03*
Y410003D02*
D03*
X2700006Y2509999D02*
D03*
D12*
X3424998Y2750003D02*
D03*
X3275001D02*
D03*
Y2549998D02*
D03*
X424999Y1150001D02*
D03*
X275002D02*
D03*
X3425003Y3150002D02*
D03*
X3275001D02*
D03*
X3424998Y2549998D02*
D03*
X3274996Y2950003D02*
D03*
X3424998D02*
D03*
D13*
X1730005Y697500D02*
D03*
Y632502D02*
D03*
Y567503D02*
D03*
Y502504D02*
D03*
X1570000D02*
D03*
Y567503D02*
D03*
Y632502D02*
D03*
Y697500D02*
D03*
D14*
X2687499Y1450001D02*
D03*
X2812502D02*
D03*
X3100000Y2049999D02*
D03*
X3230002D02*
D03*
X1834999Y1249996D02*
D03*
X2612493Y1250001D02*
D03*
X2737491D02*
D03*
X1965001Y1249996D02*
D03*
D15*
X1199999Y1067502D02*
D03*
Y932501D02*
D03*
D16*
X2949998Y799999D02*
D03*
D17*
X2929998Y649997D02*
D03*
Y950002D02*
D03*
D18*
X3829996Y1369996D02*
D03*
Y1434999D02*
D03*
Y1499998D02*
D03*
Y1564997D02*
D03*
Y1629995D02*
D03*
D19*
X4099998Y1399998D02*
D03*
Y1599998D02*
D03*
D20*
X2949998Y2372498D02*
D03*
Y2227500D02*
D03*
D21*
X1367501Y2849998D02*
D03*
X1232500D02*
D03*
D22*
X624998Y1127497D02*
D03*
Y1077499D02*
D03*
Y1027497D02*
D03*
Y977495D02*
D03*
Y927497D02*
D03*
Y877495D02*
D03*
X1024998D02*
D03*
Y927497D02*
D03*
Y977495D02*
D03*
Y1027497D02*
D03*
Y1077499D02*
D03*
Y1127497D02*
D03*
D23*
X700000Y804998D02*
D03*
X749997D02*
D03*
X799999D02*
D03*
X849997D02*
D03*
X899999D02*
D03*
X950002D02*
D03*
Y1199999D02*
D03*
X899999D02*
D03*
X849997D02*
D03*
X799999D02*
D03*
X749997D02*
D03*
X700000D02*
D03*
D24*
X824998Y1002498D02*
D03*
D25*
X3817504Y3150002D02*
D03*
Y2950003D02*
D03*
Y2749998D02*
D03*
Y2549998D02*
D03*
X3582503Y3150002D02*
D03*
Y2549998D02*
D03*
Y2749998D02*
D03*
Y2950003D02*
D03*
D26*
X2030187Y2900000D02*
D03*
X460371Y950002D02*
D03*
X1869812Y2900000D02*
D03*
X300000Y950002D02*
D03*
D27*
X2300001Y3050008D02*
D03*
X2180002D02*
D03*
X2420001D02*
D03*
D28*
X1632500Y3289057D02*
D03*
X1697498Y3010953D02*
D03*
X1502497Y3289057D02*
D03*
X1567496D02*
D03*
X1697498D02*
D03*
X1632500Y3010953D02*
D03*
X1567496D02*
D03*
D30*
X2203786Y2688240D02*
D03*
X1553790Y2688235D02*
D03*
X2203786Y1549995D02*
D03*
X2153789Y2688240D02*
D03*
X2103786D02*
D03*
X2253789Y1549995D02*
D03*
X1503788Y2688235D02*
D03*
X2253789Y2688240D02*
D03*
X2053789Y2688235D02*
D03*
X2003787D02*
D03*
X1953789Y2688240D02*
D03*
X1903787D02*
D03*
X1853790D02*
D03*
X1803787Y2688235D02*
D03*
X1753790Y2688240D02*
D03*
X1703787D02*
D03*
X1653790D02*
D03*
X1603787D02*
D03*
X1503788Y1549995D02*
D03*
X1553790D02*
D03*
X1603782D02*
D03*
X1653790D02*
D03*
X1703787D02*
D03*
X1753790D02*
D03*
X1803787D02*
D03*
X1853790D02*
D03*
X1903787D02*
D03*
X1953789D02*
D03*
X2003787D02*
D03*
X2053789D02*
D03*
X2103781D02*
D03*
X2153789D02*
D03*
D31*
X2700001Y2259996D02*
D03*
Y2060002D02*
D03*
X588900Y1726180D02*
D03*
X2700001Y2140002D02*
D03*
X600000Y2020002D02*
D03*
X2700001Y2339996D02*
D03*
X588900Y1646180D02*
D03*
X600000Y2100002D02*
D03*
D32*
X2447911Y2294114D02*
D03*
X1309666Y1794115D02*
D03*
Y1744117D02*
D03*
X2447911Y1794115D02*
D03*
Y1844117D02*
D03*
Y1894115D02*
D03*
Y1944117D02*
D03*
Y1994119D02*
D03*
X2447906Y2044117D02*
D03*
X2447911Y2094119D02*
D03*
Y2144117D02*
D03*
Y2194119D02*
D03*
Y2244111D02*
D03*
Y2344116D02*
D03*
Y2394119D02*
D03*
Y2444116D02*
D03*
Y2494118D02*
D03*
X1309666D02*
D03*
Y2444116D02*
D03*
Y2394119D02*
D03*
Y2344116D02*
D03*
Y2294119D02*
D03*
Y2244116D02*
D03*
Y2194119D02*
D03*
Y2144117D02*
D03*
Y2094119D02*
D03*
Y2044117D02*
D03*
Y1994119D02*
D03*
Y1944117D02*
D03*
Y1894115D02*
D03*
Y1844112D02*
D03*
D33*
X1610000Y2900000D02*
D03*
X2490009Y2750003D02*
D03*
X1259993D02*
D03*
X2159997Y1250001D02*
D03*
X1339993Y2750003D02*
D03*
X2410009D02*
D03*
X1690000Y2900000D02*
D03*
X2239997Y1250001D02*
D03*
D34*
X1127329Y3299999D02*
D03*
X1272673D02*
D03*
D35*
X800004Y2830008D02*
D03*
D36*
Y3080005D02*
D03*
D37*
X45000Y3699999D02*
D03*
Y2349999D02*
D03*
Y1650000D02*
D03*
Y649997D02*
D03*
Y850002D02*
D03*
Y750002D02*
D03*
Y549997D02*
D03*
Y449998D02*
D03*
Y349998D02*
D03*
Y2449999D02*
D03*
Y3049997D02*
D03*
Y2949998D02*
D03*
Y2849998D02*
D03*
Y2749998D02*
D03*
Y2649998D02*
D03*
Y2549998D02*
D03*
Y1850000D02*
D03*
Y1750000D02*
D03*
Y1550000D02*
D03*
Y1450001D02*
D03*
Y1350001D02*
D03*
Y3599999D02*
D03*
Y3799998D02*
D03*
D38*
X704998Y2500001D02*
D03*
X895000D02*
D03*
D39*
X450003Y2600001D02*
D03*
Y2439625D02*
D03*
D40*
X-342498Y3930001D02*
D03*
Y3180000D02*
D03*
Y3470002D02*
D03*
Y2219997D02*
D03*
Y1980002D02*
D03*
Y1219999D02*
D03*
Y979999D02*
D03*
Y220001D02*
D03*
D41*
X3870402Y2278000D02*
D03*
X3530398D02*
D03*
D42*
X3327503Y2349999D02*
D03*
X3172502D02*
D03*
D43*
X2447911Y1744112D02*
D03*
D44*
X1350001Y935005D02*
D03*
Y1065003D02*
D03*
D45*
X3399999Y959999D02*
D03*
Y1039999D02*
D03*
Y1190001D02*
D03*
Y1110001D02*
D03*
D46*
X1995003Y500010D02*
D03*
X2405005D02*
D03*
D48*
X2150004Y950002D02*
D03*
D49*
X1502497Y3010953D02*
D03*
D50*
X950007Y2810008D02*
D03*
X650007D02*
D03*
D51*
X2749998Y349998D02*
D03*
D115*
X1600000Y3150005D02*
D03*
D116*
X1045003Y450003D02*
D03*
X855001D02*
D03*
X950002Y650002D02*
D03*
%TF.MD5,eb9e1a6cbf85b37cb3a87f92ffe1f64b*%
M02*
