%TF.GenerationSoftware,Altium Limited,Altium Designer,23.4.1 (23)*%
G04 Layer_Physical_Order=4*
G04 Layer_Color=16440176*
%FSLAX45Y45*%
%MOMM*%
%TF.SameCoordinates,48A87055-20E1-44AA-943F-EC830DB2746A*%
%TF.FilePolarity,Positive*%
%TF.FileFunction,Copper,L4,Inr,Signal*%
%TF.Part,Single*%
G01*
G75*
%TA.AperFunction,Conductor*%
%ADD10C,0.15000*%
%TA.AperFunction,ComponentPad*%
%ADD54C,0.99100*%
%ADD55C,1.45000*%
%ADD56C,0.75000*%
%TA.AperFunction,ViaPad*%
%ADD57C,4.00000*%
G04:AMPARAMS|DCode=58|XSize=1.524mm|YSize=2mm|CornerRadius=0.381mm|HoleSize=0mm|Usage=FLASHONLY|Rotation=0.000|XOffset=0mm|YOffset=0mm|HoleType=Round|Shape=RoundedRectangle|*
%AMROUNDEDRECTD58*
21,1,1.52400,1.23800,0,0,0.0*
21,1,0.76200,2.00000,0,0,0.0*
1,1,0.76200,0.38100,-0.61900*
1,1,0.76200,-0.38100,-0.61900*
1,1,0.76200,-0.38100,0.61900*
1,1,0.76200,0.38100,0.61900*
%
%ADD58ROUNDEDRECTD58*%
%ADD59C,1.27000*%
%ADD60C,0.50000*%
D10*
X1314464Y2289648D02*
G03*
X1319944Y2289149I10535J85352D01*
G01*
X1359160Y2286839D02*
G03*
X1417320Y2301206I9748J85446D01*
G01*
X2305310Y1560836D02*
G03*
X2301698Y1560983I-5310J-85836D01*
G01*
X3939104Y1503156D02*
G03*
X3934651Y1511025I-103104J-53156D01*
G01*
X3847237Y1652423D02*
G03*
X3822145Y1681119I-98685J-60970D01*
G01*
X3689000Y1324999D02*
G03*
X3858147Y1303034I86000J1D01*
G01*
X3717782Y1224094D02*
G03*
X3881978Y1280148I57218J100906D01*
G01*
X3981054Y1433403D02*
G03*
X3978102Y1483514I-145054J16597D01*
G01*
X3821702Y1636675D02*
G03*
X3734076Y1676226I-73150J-45222D01*
G01*
X3525383Y1668499D02*
G03*
X3455847Y1633625I-383J-85999D01*
G01*
X2914701Y989619D02*
G03*
X2934524Y989529I10299J85381D01*
G01*
X2535298Y1035381D02*
G03*
X2525000Y1036000I-10298J-85381D01*
G01*
X1001668Y2327797D02*
G03*
X995733Y2327707I-1668J-85984D01*
G01*
X1009882Y2327244D02*
G03*
X1001668Y2327797I-9882J-85430D01*
G01*
X1724572Y1564001D02*
G03*
X1725000Y1564000I428J85999D01*
G01*
X2279632Y2092899D02*
G03*
X2257555Y2092184I-8278J-85601D01*
G01*
X1622723Y1409615D02*
G03*
X1690379Y1378197I66466J54574D01*
G01*
X3545015Y2510826D02*
G03*
X3544062Y2510796I0J-15001D01*
G01*
X3614460Y2358333D02*
G03*
X3611524Y2354177I10607J-10607D01*
G01*
X3393394Y2034976D02*
G03*
X3393392Y2034975I10606J-10607D01*
G01*
X2710340Y3075000D02*
X3026783Y2758557D01*
X3370987D01*
X3986000Y2143544D01*
X1775000Y3075000D02*
X2710340D01*
X2469400Y-394400D02*
X2500000Y-425000D01*
X2469400Y-394400D02*
Y-219400D01*
X2175000Y75000D02*
X2469400Y-219400D01*
X2100000Y200000D02*
X2225000D01*
X1319944Y2289149D02*
X1359160Y2286839D01*
X1247166Y2428631D02*
X1325000Y2375000D01*
X1009882Y2327244D02*
X1314464Y2289648D01*
X2305310Y1560836D02*
X3367566Y1497689D01*
X2225000Y200000D02*
X2450000Y-25000D01*
X3858147Y1303034D02*
X3909104Y1495296D01*
X3738700Y1456199D02*
X3745883Y1449016D01*
X3821702Y1636675D02*
X3909104Y1495296D01*
X3342713Y1437689D02*
X3717782Y1224093D01*
X3355139Y1467689D02*
X3683726Y1372424D01*
X2941067Y1437689D02*
X3342713D01*
X3668610Y1475686D02*
X3738700Y1456199D01*
X3745883Y1449016D02*
X3775000Y1325000D01*
X3683726Y1372424D02*
X3689000Y1365839D01*
X3881978Y1280148D02*
X3885076Y1287536D01*
X3939104Y1482870D01*
X3847237Y1652423D02*
X3934651Y1511025D01*
X3939104Y1482870D02*
Y1503156D01*
X3689000Y1365839D02*
X3689000Y1324999D01*
X3672558Y1667843D02*
X3684984Y1667843D01*
X3900000Y725000D02*
X3981054Y1433403D01*
X3900000Y1816311D02*
X3978101Y1483514D01*
X3560622Y2155689D02*
X3895725Y1820586D01*
X3684984Y1667843D02*
X3734076Y1676226D01*
X3895725Y1820586D02*
X3900000Y1816311D01*
X3525000Y1925000D02*
X3822145Y1681119D01*
X3525383Y1668499D02*
X3672558Y1667843D01*
X3389000Y1590000D02*
Y2030582D01*
X3397787Y1575000D02*
X3410214D01*
X3389000Y1590000D02*
X3389000Y1583788D01*
X3397787Y1575000D01*
X3419002Y1583788D02*
X3455847Y1633625D01*
X3410214Y1575000D02*
X3419002Y1583788D01*
X3367566Y1497689D02*
X3668610Y1475686D01*
X-167426Y1872379D02*
X-100378Y1897000D01*
X181378D01*
X2549103Y1467689D02*
X3355139D01*
X406120Y2309497D02*
X749907D01*
X234122Y2137500D02*
X406120Y2309497D01*
X749907D02*
X896994Y2353420D01*
X-175000Y1872379D02*
X-167426D01*
X-175000Y1850000D02*
Y1872379D01*
X-45535Y1994270D02*
Y2029465D01*
X-167426Y1872379D02*
X-45535Y1994270D01*
Y2029465D02*
X62500Y2137500D01*
X896994Y2353420D02*
X1161092Y2425015D01*
X1240612Y2428631D01*
X888615Y2302615D02*
X909420Y2323420D01*
X1307819Y1939001D02*
X1309026Y1939000D01*
X825000Y2234000D02*
X879828Y2293827D01*
X888615Y2302615D01*
X1309026Y1939000D02*
X1315240D01*
X1000000Y2234000D02*
X1307819Y1939001D01*
X1250000Y1175000D02*
X1384607Y1040393D01*
X1389000Y1036000D02*
X2525000Y1036000D01*
X3351573Y1036000D02*
X3364000D01*
X1384607Y1040393D02*
X1389000Y1036000D01*
X2535298Y1035381D02*
X2914701Y989619D01*
X3364000Y1036000D02*
X3875000Y525000D01*
X2934524Y989529D02*
X3351573Y1036000D01*
X2875000Y1775000D02*
X3407739Y2307739D01*
X-405774Y978099D02*
X-403099D01*
X70427Y504573D01*
X1456385Y2327813D02*
X1468811D01*
X1417320Y2301206D02*
X1456385Y2327813D01*
X909420Y2323420D02*
X995733Y2327707D01*
X1725426Y1564001D02*
X1725593Y1564002D01*
X1724212Y1564003D02*
X1724572Y1564001D01*
X1468811Y2327813D02*
X1488649Y2307976D01*
X1725000Y1564000D02*
X1725426Y1564001D01*
X1240612Y2428631D02*
X1247166Y2428631D01*
X1725593Y1564002D02*
X2065394Y1566000D01*
X2301557Y1560986D02*
X2301698Y1560983D01*
X2078427Y1565394D02*
X2301557Y1560986D01*
X1529804Y1566000D02*
X1724212Y1564003D01*
X2543927Y2307976D02*
X2692558Y2456607D01*
X1488649Y2307976D02*
X2543927D01*
X2364308Y2085930D02*
X2653345Y2374968D01*
X2364290Y2085913D02*
X2364308Y2085930D01*
X2351864Y2085913D02*
X2364290D01*
X2279632Y2092898D02*
X2351864Y2085913D01*
X1315240Y1939000D02*
X2257555Y2092184D01*
X841600Y1294077D02*
X2823056Y1319678D01*
X725000Y1404386D02*
Y1450000D01*
X2823056Y1319678D02*
X2941067Y1437689D01*
X835309Y1294077D02*
X841600D01*
X725000Y1404386D02*
X835309Y1294077D01*
X1526165Y1527213D02*
X1622723Y1409615D01*
X2474808Y1393393D02*
X2549103Y1467689D01*
X1517378Y1536000D02*
X1526165Y1527213D01*
X636000Y1536000D02*
X1517378D01*
X1690379Y1378197D02*
X2470414Y1389000D01*
X2474808Y1393393D01*
X2065394Y1566000D02*
X2077820D01*
X181378Y1897000D02*
X507985Y1570393D01*
X2077820Y1566000D02*
X2078427Y1565394D01*
X507985Y1570393D02*
X1529804Y1566000D01*
X3424122Y-547500D02*
X3650000Y-321622D01*
X2186798Y-547500D02*
X3424122D01*
X2029398Y-479400D02*
X2118698D01*
X3650000Y-321622D02*
Y400000D01*
X1974998Y-425000D02*
X2029398Y-479400D01*
X2118698D02*
X2186798Y-547500D01*
X3986000Y1966307D02*
Y2143544D01*
X3950000Y1900000D02*
Y1930307D01*
X3986000Y1966307D01*
X62500Y2137500D02*
X234122D01*
X3468037Y2207341D02*
X3519689Y2155689D01*
X3407739Y2307739D02*
X3468037Y2247441D01*
X3519689Y2155689D02*
X3560622D01*
X3431500Y2069807D02*
X3524882D01*
X3555311Y2241689D02*
X3557297D01*
X3394955Y2320523D02*
X3407739Y2307739D01*
X3468037Y2207341D02*
Y2247441D01*
X3524882Y2069807D02*
X3525000Y2069689D01*
X3557297Y2241689D02*
X3558541Y2242932D01*
X3611524Y2354177D01*
X3614460Y2358333D02*
X3636000Y2379873D01*
X3545015Y2510826D02*
X3576292D01*
X2662133Y2383755D02*
X3549559Y2424979D01*
X3550000Y2415496D02*
Y2424539D01*
X3576292Y2510826D02*
X3636000Y2451118D01*
X3549559Y2424979D02*
X3550000Y2424539D01*
X2692558Y2456607D02*
X3544062Y2510796D01*
X3636000Y2379873D02*
Y2451118D01*
X325000Y1950000D02*
X400000Y2025000D01*
X825000D01*
X1075000Y1775000D02*
X2875000D01*
X825000Y2025000D02*
X1075000Y1775000D01*
X2653345Y2374968D02*
X2662133Y2383755D01*
X3400693Y2039000D02*
X3431500Y2069807D01*
X3389000Y2030582D02*
X3393392Y2034975D01*
X3393394Y2034976D02*
X3397418Y2039000D01*
X3400693D01*
X1089378Y789000D02*
X3236000D01*
X3500000Y525000D01*
X225000Y1653377D02*
X1089378Y789000D01*
X225000Y1653377D02*
Y1675000D01*
X3425000Y-425000D02*
X3536000Y-314000D01*
Y86535D01*
X3500000Y122535D02*
Y525000D01*
Y122535D02*
X3536000Y86535D01*
X550000Y1450000D02*
X636000Y1536000D01*
X70427Y504573D02*
X1695497D01*
D54*
X-700000Y-304000D02*
D03*
X-598400Y204000D02*
D03*
X-801600D02*
D03*
D55*
X-375000Y1724999D02*
D03*
Y1225000D02*
D03*
D56*
X-700004Y850000D02*
D03*
D57*
X1Y-2D02*
D03*
X3050003Y3050000D02*
D03*
Y-2D02*
D03*
X1Y3050000D02*
D03*
D58*
X2750000Y3550000D02*
D03*
X2749998Y3300002D02*
D03*
X2500001D02*
D03*
X2499996Y3549999D02*
D03*
X2249994Y3540799D02*
D03*
X2249999Y3300002D02*
D03*
X2000002D02*
D03*
X1999997Y3549994D02*
D03*
X1750000D02*
D03*
Y3300002D02*
D03*
X1499998D02*
D03*
Y3549994D02*
D03*
X1249996Y3549999D02*
D03*
X999999Y3300002D02*
D03*
Y3549994D02*
D03*
X749997Y3549999D02*
D03*
X750002Y3300002D02*
D03*
X500000D02*
D03*
Y3549994D02*
D03*
X249998Y3549999D02*
D03*
Y3299997D02*
D03*
X3000000Y-425000D02*
D03*
X2750000D02*
D03*
X2500000D02*
D03*
X2249999Y-425000D02*
D03*
X1974998D02*
D03*
X1750000D02*
D03*
X1500003D02*
D03*
X1250001D02*
D03*
X750002D02*
D03*
X500000D02*
D03*
X250003D02*
D03*
X1250001Y3300002D02*
D03*
X999999Y-425000D02*
D03*
D59*
X2175000Y75000D02*
D03*
X2100000Y200000D02*
D03*
X1822936Y9000D02*
D03*
X2150000Y-75000D02*
D03*
X1325000Y2375000D02*
D03*
X2431501Y2000000D02*
D03*
X2046001Y-175000D02*
D03*
X2000000Y22000D02*
D03*
X1750000Y-175000D02*
D03*
X3775000Y1325000D02*
D03*
X3748552Y1591453D02*
D03*
X3205689Y1178000D02*
D03*
X3525000Y1582500D02*
D03*
X550000Y2125000D02*
D03*
X-175000Y1850000D02*
D03*
X-125000Y1675000D02*
D03*
X50000Y1800000D02*
D03*
X-300000Y525000D02*
D03*
X775000Y2436000D02*
D03*
X825000Y2234000D02*
D03*
X1000000D02*
D03*
X2925000Y1075000D02*
D03*
X2800000Y2748497D02*
D03*
X-275000Y-325000D02*
D03*
X2075000Y2825000D02*
D03*
X2050000Y2600000D02*
D03*
X1050000Y2050000D02*
D03*
X-75000Y1025000D02*
D03*
X-405774Y978099D02*
D03*
X200000Y1014000D02*
D03*
X767797Y1894820D02*
D03*
X2008024Y2393976D02*
D03*
X2000000Y2191976D02*
D03*
X2271354Y2007298D02*
D03*
X2450000Y-25000D02*
D03*
X368503Y2146470D02*
D03*
X400000Y1100000D02*
D03*
X1250000Y1175000D02*
D03*
X1875369Y1221426D02*
D03*
X1875000Y1675000D02*
D03*
X1689189Y1464189D02*
D03*
X1725000Y1650000D02*
D03*
X2325000Y2875000D02*
D03*
X3650000Y400000D02*
D03*
X3875000Y525000D02*
D03*
X1775000Y3075000D02*
D03*
X3900000Y2050000D02*
D03*
X3950000Y1900000D02*
D03*
X3400000Y3332574D02*
D03*
X3525000Y3150000D02*
D03*
X3555311Y2241689D02*
D03*
X3525000Y2069689D02*
D03*
X3394955Y2320523D02*
D03*
X3550000Y2415496D02*
D03*
X3900000Y725000D02*
D03*
X3525000Y1925000D02*
D03*
X325000Y1950000D02*
D03*
X425091Y1803468D02*
D03*
X2315878Y559122D02*
D03*
X225000Y1675000D02*
D03*
X1625000Y2850000D02*
D03*
X1695497Y504573D02*
D03*
X1926504Y479803D02*
D03*
X-540431Y506206D02*
D03*
X604295Y955187D02*
D03*
X578237Y3051532D02*
D03*
X3500000Y725000D02*
D03*
X3450000Y-250000D02*
D03*
Y-75000D02*
D03*
X3425000Y-425000D02*
D03*
X3500000Y525000D02*
D03*
X2150000Y875000D02*
D03*
X325000Y-50000D02*
D03*
X-400000Y2800000D02*
D03*
X150000Y2650000D02*
D03*
X-75000Y2675000D02*
D03*
X573311Y2473311D02*
D03*
X364189Y2389189D02*
D03*
X2525000Y950000D02*
D03*
X3125000Y1350000D02*
D03*
X2976689Y1351689D02*
D03*
X3400000Y1200000D02*
D03*
X2300000Y1475000D02*
D03*
X725000Y1450000D02*
D03*
X1075000Y-100000D02*
D03*
X875000D02*
D03*
X675000Y1750000D02*
D03*
X550000Y1450000D02*
D03*
X1875000Y2875000D02*
D03*
D60*
X999999Y2750000D02*
D03*
X899999Y2850000D02*
D03*
Y2750000D02*
D03*
X799999Y2850000D02*
D03*
Y2750000D02*
D03*
%TF.MD5,dcf364246af20eea496fa8ac41338183*%
M02*
