%TF.GenerationSoftware,Altium Limited,Altium Designer,23.4.1 (23)*%
G04 Layer_Physical_Order=6*
G04 Layer_Color=16737945*
%FSLAX45Y45*%
%MOMM*%
%TF.SameCoordinates,2ABB9494-C5B4-4C01-9411-B7C80C6C87EF*%
%TF.FilePolarity,Positive*%
%TF.FileFunction,Copper,L6,Inr,Signal*%
%TF.Part,Single*%
G01*
G75*
%TA.AperFunction,Conductor*%
%ADD46C,0.15000*%
%TA.AperFunction,ViaPad*%
G04:AMPARAMS|DCode=47|XSize=1.524mm|YSize=2mm|CornerRadius=0.381mm|HoleSize=0mm|Usage=FLASHONLY|Rotation=0.000|XOffset=0mm|YOffset=0mm|HoleType=Round|Shape=RoundedRectangle|*
%AMROUNDEDRECTD47*
21,1,1.52400,1.23800,0,0,0.0*
21,1,0.76200,2.00000,0,0,0.0*
1,1,0.76200,0.38100,-0.61900*
1,1,0.76200,-0.38100,-0.61900*
1,1,0.76200,-0.38100,0.61900*
1,1,0.76200,0.38100,0.61900*
%
%ADD47ROUNDEDRECTD47*%
%TA.AperFunction,ComponentPad*%
%ADD48C,1.45000*%
%ADD49C,0.75000*%
%TA.AperFunction,ViaPad*%
%ADD50C,1.52400*%
%ADD51C,0.60000*%
%ADD52C,0.50000*%
D46*
X1068960Y174880D02*
X1150001D01*
X159640Y3802000D02*
X750002D01*
X3078100Y1510920D02*
X3184780Y1617600D01*
X3041702Y1799642D02*
X3089098D01*
X2686940Y1444880D02*
X3041702Y1799642D01*
X1745636Y3321366D02*
X1758910Y3334640D01*
X1271368Y3321366D02*
X1745636D01*
X200001Y2249999D02*
X1271368Y3321366D01*
X1216280Y2605660D02*
X1401700Y2791080D01*
X667640Y2605660D02*
X1216280D01*
X502540Y2440560D02*
X667640Y2605660D01*
X502540Y2316100D02*
Y2440560D01*
X375540Y2189100D02*
X502540Y2316100D01*
X-71500Y2189100D02*
X375540D01*
X-145160Y2115440D02*
X-71500Y2189100D01*
X-145160Y1676020D02*
Y2115440D01*
X-157860Y1663320D02*
X-145160Y1676020D01*
X-157860Y1556640D02*
Y1663320D01*
Y1556640D02*
X-122300Y1521080D01*
X-43560D01*
X378080Y1942720D01*
X1150001Y149998D02*
Y174880D01*
X1068960D02*
Y411100D01*
X1027004Y453056D02*
X1068960Y411100D01*
X1027004Y453056D02*
Y910164D01*
X1909700Y1792860D01*
X2346417D01*
X2729957Y2176400D01*
X2778380D01*
X380178Y2749998D02*
X431420Y2801240D01*
X634620D01*
X1526160Y2018920D02*
X2148460D01*
X997002Y1489762D02*
X1526160Y2018920D01*
X997002Y546203D02*
Y1489762D01*
X899999Y449200D02*
X997002Y546203D01*
X899999Y149998D02*
Y449200D01*
X200001Y2000002D02*
X428545D01*
X498959Y1929588D01*
X1316519D01*
X2528886Y3141956D01*
X3177516D01*
X3250002Y3214442D01*
Y3550002D01*
X2572640Y1444880D02*
X2686940D01*
X3184780Y1617600D02*
Y1703960D01*
X3089098Y1799642D02*
X3184780Y1703960D01*
X1081660Y748920D02*
X1274700Y555880D01*
X1874140D01*
X2178137Y859877D01*
X2287322D01*
X3065400Y1637956D01*
Y1747140D01*
X2267840Y1965580D02*
Y2079880D01*
X2679320Y2491360D01*
X-175640Y1749680D02*
X-175320Y1750000D01*
X-223900Y1749680D02*
X-175640D01*
X-282320Y1808100D02*
X-223900Y1749680D01*
X-282320Y1808100D02*
Y2719960D01*
X154560Y3156840D01*
X1046100D01*
X1099440Y3210180D01*
Y3677159D01*
X999999Y3776600D02*
X1099440Y3677159D01*
X999999Y3776600D02*
Y3799998D01*
X4700Y3647060D02*
X159640Y3802000D01*
X750002Y3799998D02*
Y3802000D01*
X2195653Y2719960D02*
X2199997Y2715617D01*
X2153540Y2719960D02*
X2195653D01*
X870840Y1437260D02*
X2153540Y2719960D01*
X625004Y1437260D02*
X870840D01*
X-104520Y1617600D02*
Y1985900D01*
X30100Y2120520D01*
X424664D01*
X862382Y2558238D01*
X1561161D01*
X1803020Y2800097D01*
Y2877333D01*
X2749998Y3776600D02*
Y3799998D01*
X2638238Y3664840D02*
X2749998Y3776600D01*
X2638238Y3314320D02*
Y3664840D01*
X2201251Y2877333D02*
X2638238Y3314320D01*
X1803020Y2877333D02*
X2201251D01*
X1414400Y759080D02*
Y797180D01*
Y759080D02*
X1427100Y746380D01*
X1589665D01*
X1781938Y938653D01*
Y1062935D01*
X2718187Y1999184D01*
Y2074800D01*
X2743968Y2100581D01*
X2819584D01*
X3050003Y2331000D01*
D47*
X3250002Y3550002D02*
D03*
X3000000D02*
D03*
X2749998D02*
D03*
X2500001D02*
D03*
X2249999D02*
D03*
X2000002D02*
D03*
X1750000D02*
D03*
X1499998D02*
D03*
X1250001D02*
D03*
X899999Y149998D02*
D03*
X1650000D02*
D03*
X3399999D02*
D03*
X3150002D02*
D03*
X2900000D02*
D03*
X2649998D02*
D03*
X2400001D02*
D03*
X2149999D02*
D03*
X650002D02*
D03*
X1900002D02*
D03*
X1150001D02*
D03*
X1399998D02*
D03*
X750002Y3799998D02*
D03*
X999999D02*
D03*
X1250001D02*
D03*
X1499998D02*
D03*
X999999Y3550002D02*
D03*
X750002D02*
D03*
X2000002Y3799998D02*
D03*
X1750000D02*
D03*
X2249999D02*
D03*
X2500001D02*
D03*
X2749998D02*
D03*
X3000000D02*
D03*
X3250002D02*
D03*
D48*
X3579999Y899999D02*
D03*
Y1399998D02*
D03*
D49*
X3770001Y2300001D02*
D03*
X3750001Y1950000D02*
D03*
D50*
X450003Y3550002D02*
D03*
X3550002D02*
D03*
Y450003D02*
D03*
X450003D02*
D03*
D51*
X472060Y799720D02*
D03*
X1422020Y474600D02*
D03*
X1180720Y2659838D02*
D03*
X1335660Y3172080D02*
D03*
X380178Y2749998D02*
D03*
X3448940Y2093916D02*
D03*
X2572640Y1444880D02*
D03*
X24802Y500000D02*
D03*
X1676020Y2161160D02*
D03*
X1975740Y3253360D02*
D03*
X1899540Y997840D02*
D03*
X1658240Y375540D02*
D03*
X1277240Y2321180D02*
D03*
X931800Y1411860D02*
D03*
X2029080Y459360D02*
D03*
X2074800Y1264337D02*
D03*
X2239900Y2440560D02*
D03*
X1758910Y3334640D02*
D03*
X1869060Y860680D02*
D03*
X388240Y2303400D02*
D03*
X1239140Y2737740D02*
D03*
X1952880Y2427860D02*
D03*
X1945260Y459360D02*
D03*
X3634360Y1711580D02*
D03*
X12320Y2501520D02*
D03*
X2006220Y2104726D02*
D03*
X3690240Y1279998D02*
D03*
X3466502Y1272160D02*
D03*
X2643760Y450003D02*
D03*
X2178940Y2115440D02*
D03*
X378080Y1942720D02*
D03*
X1452500Y2768936D02*
D03*
X3166177Y2552320D02*
D03*
X1401700Y2791080D02*
D03*
X1750158Y1744122D02*
D03*
X2778380Y2176400D02*
D03*
X2127302Y909062D02*
D03*
X3494660Y1871600D02*
D03*
X1597280Y1300100D02*
D03*
X1546480Y1533780D02*
D03*
X1460120Y2610740D02*
D03*
X1513460Y2504060D02*
D03*
X1869060Y1241680D02*
D03*
X1670940Y1640460D02*
D03*
X3220340Y1127380D02*
D03*
X1780160Y1907160D02*
D03*
X2650064Y3206080D02*
D03*
X3428620Y1399160D02*
D03*
X1701420Y1942720D02*
D03*
X493884Y2034160D02*
D03*
X1028320Y1803020D02*
D03*
X2847554Y2234104D02*
D03*
X634620Y2801240D02*
D03*
X1264540Y2140840D02*
D03*
X1886840Y3149220D02*
D03*
X2006220Y2257680D02*
D03*
X2005666Y2104726D02*
D03*
X2267840Y3182240D02*
D03*
X2697100Y1541400D02*
D03*
X2148460Y2018920D02*
D03*
X2156080Y2252600D02*
D03*
X2095120Y2415160D02*
D03*
X1350900Y2384680D02*
D03*
X2191640Y1218820D02*
D03*
X1743762Y3260142D02*
D03*
X1086740Y1170560D02*
D03*
X1234060Y347600D02*
D03*
X464440Y1061340D02*
D03*
X362840Y2923160D02*
D03*
X-168020Y3685160D02*
D03*
X820040Y3070480D02*
D03*
X1790320Y431420D02*
D03*
X1747140Y1195960D02*
D03*
X672720Y2468500D02*
D03*
X1766190Y3064130D02*
D03*
X1666673Y1244322D02*
D03*
X-86740Y3743580D02*
D03*
X2836800Y566040D02*
D03*
X2006962Y842900D02*
D03*
X139320Y2257680D02*
D03*
X27560Y3570860D02*
D03*
X395860Y3939160D02*
D03*
X2849200Y1694120D02*
D03*
X1193420Y2051940D02*
D03*
X1604900Y972440D02*
D03*
X2742820Y591440D02*
D03*
X1137540Y900797D02*
D03*
X1510920Y2686940D02*
D03*
X3159380Y2630201D02*
D03*
X1098424Y2223075D02*
D03*
X3448940Y2244980D02*
D03*
X3159380Y2951100D02*
D03*
X3045080Y1541400D02*
D03*
X3078100Y1510920D02*
D03*
X1081660Y748920D02*
D03*
X3065400Y1747140D02*
D03*
X2267840Y1965580D02*
D03*
X2679320Y2491360D02*
D03*
X2129898Y3150002D02*
D03*
X2834260Y3040000D02*
D03*
X3019680Y1904620D02*
D03*
X2234820Y914020D02*
D03*
X2907920Y1836040D02*
D03*
X1876680Y3847720D02*
D03*
X2778380Y2034160D02*
D03*
X1742060Y2826640D02*
D03*
X4700Y3647060D02*
D03*
X1582040Y1206958D02*
D03*
X736997Y1345043D02*
D03*
X1871600Y433960D02*
D03*
X625004Y1437260D02*
D03*
X1691260Y1145160D02*
D03*
X2219580Y1703960D02*
D03*
X1289940Y1681100D02*
D03*
X-228980Y1900800D02*
D03*
X901320Y3255900D02*
D03*
X9780Y931800D02*
D03*
X197740Y3250820D02*
D03*
X309500Y858140D02*
D03*
Y2981580D02*
D03*
X2542160Y2671700D02*
D03*
X1922400Y1584580D02*
D03*
X-104520Y1617600D02*
D03*
X1222899Y3169540D02*
D03*
X1803020Y2877333D02*
D03*
X3245740Y944500D02*
D03*
X3874019Y2656724D02*
D03*
X3119238Y2247022D02*
D03*
X505080Y2123060D02*
D03*
X944500Y578740D02*
D03*
X886080Y1533780D02*
D03*
X1150001Y337440D02*
D03*
X1985900Y1188340D02*
D03*
X3774060Y634620D02*
D03*
X1414400Y797180D02*
D03*
X3050003Y2331000D02*
D03*
X1678560Y997840D02*
D03*
X3281300Y1269620D02*
D03*
X2918080Y3215260D02*
D03*
X2211960Y746380D02*
D03*
X3235580Y416180D02*
D03*
D52*
X850002Y875001D02*
D03*
X750002D02*
D03*
X650002D02*
D03*
X850002Y975000D02*
D03*
X750002D02*
D03*
X650002D02*
D03*
X850002Y1075000D02*
D03*
X750002D02*
D03*
X650002D02*
D03*
%TF.MD5,856aa040f612582fc74a28517a12ec8c*%
M02*
