%TF.GenerationSoftware,Altium Limited,Altium Designer,23.4.1 (23)*%
G04 Layer_Physical_Order=1*
G04 Layer_Color=255*
%FSLAX45Y45*%
%MOMM*%
%TF.SameCoordinates,4A4EADC6-D63E-4973-9290-F54A389017C5*%
%TF.FilePolarity,Positive*%
%TF.FileFunction,Copper,L1,Top,Signal*%
%TF.Part,Single*%
G01*
G75*
%TA.AperFunction,NonConductor*%
%ADD10C,0.50000*%
%TA.AperFunction,SMDPad,CuDef*%
%ADD11R,0.50000X0.35000*%
%ADD12R,0.80000X0.35000*%
%ADD13R,0.35000X0.85000*%
%ADD14R,2.70000X2.60000*%
%ADD15R,1.25000X1.10000*%
%ADD16R,1.20840X1.01213*%
%ADD17R,0.40000X2.00000*%
G04:AMPARAMS|DCode=18|XSize=0.73107mm|YSize=0.30247mm|CornerRadius=0.15124mm|HoleSize=0mm|Usage=FLASHONLY|Rotation=90.000|XOffset=0mm|YOffset=0mm|HoleType=Round|Shape=RoundedRectangle|*
%AMROUNDEDRECTD18*
21,1,0.73107,0.00000,0,0,90.0*
21,1,0.42859,0.30247,0,0,90.0*
1,1,0.30247,0.00000,0.21430*
1,1,0.30247,0.00000,-0.21430*
1,1,0.30247,0.00000,-0.21430*
1,1,0.30247,0.00000,0.21430*
%
%ADD18ROUNDEDRECTD18*%
%ADD19R,2.50000X1.75000*%
G04:AMPARAMS|DCode=20|XSize=0.31247mm|YSize=1.78828mm|CornerRadius=0.15624mm|HoleSize=0mm|Usage=FLASHONLY|Rotation=180.000|XOffset=0mm|YOffset=0mm|HoleType=Round|Shape=RoundedRectangle|*
%AMROUNDEDRECTD20*
21,1,0.31247,1.47581,0,0,180.0*
21,1,0.00000,1.78828,0,0,180.0*
1,1,0.31247,0.00000,0.73791*
1,1,0.31247,0.00000,0.73791*
1,1,0.31247,0.00000,-0.73791*
1,1,0.31247,0.00000,-0.73791*
%
%ADD20ROUNDEDRECTD20*%
%ADD21R,0.95000X0.80000*%
%ADD22R,0.50000X0.40000*%
%ADD23R,1.05000X0.95000*%
%TA.AperFunction,ConnectorPad*%
%ADD24R,1.35000X0.40000*%
%TA.AperFunction,SMDPad,CuDef*%
%ADD25R,1.80000X0.60000*%
%ADD26R,0.52000X0.52000*%
G04:AMPARAMS|DCode=27|XSize=1.78828mm|YSize=0.31247mm|CornerRadius=0.15624mm|HoleSize=0mm|Usage=FLASHONLY|Rotation=180.000|XOffset=0mm|YOffset=0mm|HoleType=Round|Shape=RoundedRectangle|*
%AMROUNDEDRECTD27*
21,1,1.78828,0.00000,0,0,180.0*
21,1,1.47581,0.31247,0,0,180.0*
1,1,0.31247,-0.73791,0.00000*
1,1,0.31247,0.73791,0.00000*
1,1,0.31247,0.73791,0.00000*
1,1,0.31247,-0.73791,0.00000*
%
%ADD27ROUNDEDRECTD27*%
%TA.AperFunction,ConnectorPad*%
%ADD28R,0.95872X0.91213*%
%TA.AperFunction,SMDPad,CuDef*%
%ADD29R,0.60000X1.80000*%
G04:AMPARAMS|DCode=30|XSize=1.9mm|YSize=3.2mm|CornerRadius=0mm|HoleSize=0mm|Usage=FLASHONLY|Rotation=180.000|XOffset=0mm|YOffset=0mm|HoleType=Round|Shape=Octagon|*
%AMOCTAGOND30*
4,1,8,0.47500,-1.60000,-0.47500,-1.60000,-0.95000,-1.12500,-0.95000,1.12500,-0.47500,1.60000,0.47500,1.60000,0.95000,1.12500,0.95000,-1.12500,0.47500,-1.60000,0.0*
%
%ADD30OCTAGOND30*%

%ADD31R,1.55000X0.60000*%
%ADD32R,0.70000X1.30000*%
%ADD33R,1.01213X1.20840*%
%ADD34R,1.80000X1.20000*%
%ADD35R,0.75000X1.00000*%
%ADD36R,0.80000X1.70000*%
%ADD37R,0.85000X0.70000*%
%ADD38R,1.78828X0.31247*%
%ADD39R,0.80000X0.95000*%
%ADD40R,1.40000X0.60000*%
%ADD41R,0.45000X0.45000*%
%ADD42R,1.90000X2.40000*%
%ADD43R,0.60000X0.70000*%
%ADD44R,6.80000X2.84000*%
%ADD45R,0.30247X0.73107*%
%ADD46R,0.95000X0.85000*%
%TA.AperFunction,ConnectorPad*%
%ADD47R,1.90000X1.50000*%
%TA.AperFunction,SMDPad,CuDef*%
%ADD48R,0.60000X1.40000*%
%ADD49R,0.85000X0.70000*%
%TA.AperFunction,Conductor*%
%ADD50C,0.15000*%
%TA.AperFunction,ViaPad*%
G04:AMPARAMS|DCode=51|XSize=1.524mm|YSize=2mm|CornerRadius=0.381mm|HoleSize=0mm|Usage=FLASHONLY|Rotation=0.000|XOffset=0mm|YOffset=0mm|HoleType=Round|Shape=RoundedRectangle|*
%AMROUNDEDRECTD51*
21,1,1.52400,1.23800,0,0,0.0*
21,1,0.76200,2.00000,0,0,0.0*
1,1,0.76200,0.38100,-0.61900*
1,1,0.76200,-0.38100,-0.61900*
1,1,0.76200,-0.38100,0.61900*
1,1,0.76200,0.38100,0.61900*
%
%ADD51ROUNDEDRECTD51*%
%TA.AperFunction,ComponentPad*%
%ADD52C,0.75000*%
%ADD53C,1.45000*%
%TA.AperFunction,ViaPad*%
%ADD54C,1.52400*%
%ADD55C,0.50000*%
G36*
X3944999Y919999D02*
X3754999D01*
Y789999D01*
X3944999D01*
Y919999D01*
D02*
G37*
G36*
X3895001Y789999D02*
X3804999D01*
Y739999D01*
X3895001Y740001D01*
Y789999D01*
D02*
G37*
G36*
X3804996Y1510000D02*
X3894999D01*
Y1559999D01*
X3804996Y1559997D01*
Y1510000D01*
D02*
G37*
G36*
X3754999Y1379999D02*
X3944999D01*
Y1509999D01*
X3754999D01*
Y1379999D01*
D02*
G37*
D10*
X3904088Y1533288D02*
G03*
X3902712Y1533780I-9090J-23289D01*
G01*
X3904088Y1533288D02*
G03*
X3902712Y1533780I-9090J-23289D01*
G01*
X3902711Y1533780D02*
G03*
X3897286Y1534894I-7712J-23781D01*
G01*
X3902711Y1533780D02*
G03*
X3897286Y1534894I-7712J-23781D01*
G01*
X3902711Y1533780D02*
G03*
X3897286Y1534894I-7712J-23781D01*
G01*
X3902711Y1533780D02*
G03*
X3897286Y1534894I-7712J-23781D01*
G01*
X3897278Y1534895D02*
G03*
X3895000Y1534999I-2279J-24896D01*
G01*
X3897278Y1534895D02*
G03*
X3895000Y1534999I-2279J-24896D01*
G01*
X3897278Y1534895D02*
G03*
X3895000Y1534999I-2279J-24896D01*
G01*
X3897278Y1534895D02*
G03*
X3895000Y1534999I-2279J-24896D01*
G01*
X3917910Y1520002D02*
G03*
X3904094Y1533286I-22912J-10002D01*
G01*
X3917910Y1520002D02*
G03*
X3904094Y1533286I-22912J-10002D01*
G01*
X3904088Y1533288D02*
G03*
X3902712Y1533780I-9090J-23289D01*
G01*
X3904088Y1533288D02*
G03*
X3902712Y1533780I-9090J-23289D01*
G01*
X3917910Y1520002D02*
G03*
X3904094Y1533286I-22912J-10002D01*
G01*
X3917910Y1520002D02*
G03*
X3904094Y1533286I-22912J-10002D01*
G01*
X3895000Y1534999D02*
G03*
X3877548Y1527901I-1J-25000D01*
G01*
X3895000Y1534999D02*
G03*
X3877548Y1527901I-1J-25000D01*
G01*
X3895000Y1534999D02*
G03*
X3877548Y1527901I-1J-25000D01*
G01*
X3895000Y1534999D02*
G03*
X3877548Y1527901I-1J-25000D01*
G01*
X3919892Y1512307D02*
G03*
X3919891Y1512317I-24893J-2307D01*
G01*
X3919894Y1512287D02*
G03*
X3919892Y1512306I-24895J-2288D01*
G01*
Y1512307D02*
G03*
X3919891Y1512317I-24893J-2307D01*
G01*
X3919894Y1512287D02*
G03*
X3919892Y1512306I-24895J-2288D01*
G01*
X3919894Y1512287D02*
G03*
X3919892Y1512306I-24895J-2288D01*
G01*
Y1512307D02*
G03*
X3919891Y1512317I-24893J-2307D01*
G01*
X3919892Y1512307D02*
G03*
X3919891Y1512317I-24893J-2307D01*
G01*
X3919999Y1510002D02*
G03*
X3919960Y1511377I-25000J-2D01*
G01*
X3919999Y1510002D02*
G03*
X3919960Y1511377I-25000J-2D01*
G01*
X3919960Y1511389D02*
G03*
X3919894Y1512280I-24961J-1389D01*
G01*
X3919960Y1511379D02*
G03*
X3919960Y1511389I-24962J-1380D01*
G01*
X3919999Y1510002D02*
G03*
X3919960Y1511377I-25000J-2D01*
G01*
X3919999Y1510002D02*
G03*
X3919960Y1511377I-25000J-2D01*
G01*
X3919960Y1511389D02*
G03*
X3919894Y1512280I-24961J-1389D01*
G01*
X3919960Y1511379D02*
G03*
X3919960Y1511389I-24962J-1380D01*
G01*
X3919894Y1512287D02*
G03*
X3919892Y1512306I-24895J-2288D01*
G01*
X3919960Y1511389D02*
G03*
X3919894Y1512280I-24961J-1389D01*
G01*
X3919960Y1511379D02*
G03*
X3919960Y1511389I-24962J-1380D01*
G01*
D02*
G03*
X3919894Y1512280I-24961J-1389D01*
G01*
X3919960Y1511379D02*
G03*
X3919960Y1511389I-24962J-1380D01*
G01*
X3918838Y1517526D02*
G03*
X3918286Y1519092I-23840J-7527D01*
G01*
X3918838Y1517526D02*
G03*
X3918286Y1519092I-23840J-7527D01*
G01*
X3918838Y1517526D02*
G03*
X3918286Y1519092I-23840J-7527D01*
G01*
X3919261Y1516027D02*
G03*
X3918840Y1517521I-24263J-6027D01*
G01*
X3919261Y1516027D02*
G03*
X3918840Y1517521I-24263J-6027D01*
G01*
X3918285Y1519095D02*
G03*
X3917910Y1520002I-23287J-9095D01*
G01*
X3918285Y1519095D02*
G03*
X3917910Y1520002I-23287J-9095D01*
G01*
X3918285Y1519095D02*
G03*
X3917910Y1520002I-23287J-9095D01*
G01*
X3918838Y1517526D02*
G03*
X3918286Y1519092I-23840J-7527D01*
G01*
X3918285Y1519095D02*
G03*
X3917910Y1520002I-23287J-9095D01*
G01*
X3919261Y1516027D02*
G03*
X3918840Y1517521I-24263J-6027D01*
G01*
X3919999Y1509991D02*
G03*
X3919999Y1509999I-25000J8D01*
G01*
X3918181Y1500642D02*
G03*
X3919999Y1509991I-23183J9357D01*
G01*
X3919261Y1516027D02*
G03*
X3918840Y1517521I-24263J-6027D01*
G01*
X3919999Y1509991D02*
G03*
X3919999Y1509999I-25000J8D01*
G01*
X3918181Y1500642D02*
G03*
X3919999Y1509991I-23183J9357D01*
G01*
X3918180Y1500638D02*
G03*
X3918181Y1500642I-23181J9362D01*
G01*
X3918180Y1500638D02*
G03*
X3918181Y1500642I-23181J9362D01*
G01*
X3917910Y1499997D02*
G03*
X3918178Y1500634I-22912J10002D01*
G01*
X3917910Y1499997D02*
G03*
X3918178Y1500634I-22912J10002D01*
G01*
X3917910Y1499997D02*
G03*
X3918178Y1500634I-22912J10002D01*
G01*
X3917910Y1499997D02*
G03*
X3918178Y1500634I-22912J10002D01*
G01*
X3879841Y809880D02*
G03*
X3873333Y802473I15157J-19881D01*
G01*
X3879841Y809880D02*
G03*
X3873333Y802473I15157J-19881D01*
G01*
X3827911Y1499998D02*
G03*
X3829279Y1504043I-22912J10001D01*
G01*
X3782086Y1499998D02*
G03*
X3827911Y1499998I22912J10001D01*
G01*
X3829998Y1510000D02*
G03*
X3782086Y1499998I-25000J-0D01*
G01*
X3827911D02*
G03*
X3829279Y1504043I-22912J10001D01*
G01*
X3782086Y1499998D02*
G03*
X3827911Y1499998I22912J10001D01*
G01*
X3829998Y1510000D02*
G03*
X3782086Y1499998I-25000J-0D01*
G01*
X3873333Y802473D02*
G03*
X3870580Y795358I21665J-12474D01*
G01*
X3873333Y802473D02*
G03*
X3870580Y795358I21665J-12474D01*
G01*
X3870579Y795355D02*
G03*
X3870087Y792100I24420J-5356D01*
G01*
X3870579Y795355D02*
G03*
X3870087Y792100I24420J-5356D01*
G01*
Y792100D02*
G03*
X3870001Y790318I24912J-2100D01*
G01*
Y790317D02*
G03*
X3869999Y790134I24998J-318D01*
G01*
X3870001Y790317D02*
G03*
X3869999Y790134I24998J-318D01*
G01*
D02*
G03*
X3869999Y790098I25000J-135D01*
G01*
Y790098D02*
G03*
X3869999Y790093I25000J-99D01*
G01*
Y790134D02*
G03*
X3869999Y790098I25000J-135D01*
G01*
Y790098D02*
G03*
X3869999Y790093I25000J-99D01*
G01*
Y790093D02*
G03*
X3869999Y790088I25000J-94D01*
G01*
Y790093D02*
G03*
X3869999Y790088I25000J-94D01*
G01*
D02*
G03*
X3869999Y790048I25000J-89D01*
G01*
X3869999Y790088D02*
G03*
X3869999Y790048I25000J-89D01*
G01*
X3874987Y1524984D02*
G03*
X3874974Y1524966I20012J-14984D01*
G01*
X3874987Y1524984D02*
G03*
X3874974Y1524966I20012J-14984D01*
G01*
X3919891Y1512318D02*
G03*
X3919269Y1515995I-24892J-2319D01*
G01*
X3919891Y1512318D02*
G03*
X3919269Y1515995I-24892J-2319D01*
G01*
X3919891Y1512318D02*
G03*
X3919269Y1515995I-24892J-2319D01*
G01*
X3919891Y1512318D02*
G03*
X3919269Y1515995I-24892J-2319D01*
G01*
X3872091Y1499988D02*
G03*
X3917910Y1499996I22908J10011D01*
G01*
X3874973Y1524965D02*
G03*
X3872086Y1499998I20026J-14966D01*
G01*
X3872091Y1499988D02*
G03*
X3917910Y1499996I22908J10011D01*
G01*
X3872091Y1499988D02*
G03*
X3917910Y1499996I22908J10011D01*
G01*
X3872091Y1499988D02*
G03*
X3917910Y1499996I22908J10011D01*
G01*
X3874973Y1524965D02*
G03*
X3872086Y1499999I20026J-14966D01*
G01*
X3872087Y1499997D02*
G03*
X3872090Y1499990I22912J10003D01*
G01*
X3872087Y1499997D02*
G03*
X3872090Y1499990I22912J10003D01*
G01*
X3869999Y790046D02*
G03*
X3869999Y790002I25000J-47D01*
G01*
Y790046D02*
G03*
X3869999Y790002I25000J-47D01*
G01*
X3906058Y812420D02*
G03*
X3904070Y813296I-11059J-22421D01*
G01*
X3906058Y812420D02*
G03*
X3904070Y813296I-11059J-22421D01*
G01*
X3916300Y803086D02*
G03*
X3906058Y812420I-21301J-13087D01*
G01*
X3919999Y790002D02*
G03*
X3916300Y803086I-25000J-3D01*
G01*
X3884064Y812481D02*
G03*
X3882525Y811665I10935J-22482D01*
G01*
X3904066Y813297D02*
G03*
X3884067Y812482I-9067J-23298D01*
G01*
X3919999Y790002D02*
G03*
X3916300Y803086I-25000J-3D01*
G01*
D02*
G03*
X3906058Y812420I-21301J-13087D01*
G01*
X3884064Y812481D02*
G03*
X3882525Y811665I10935J-22482D01*
G01*
X3882523Y811664D02*
G03*
X3879841Y809880I12476J-21664D01*
G01*
X3882523Y811664D02*
G03*
X3879841Y809880I12476J-21664D01*
G01*
X3919264Y1516017D02*
G03*
X3919262Y1516022I-24265J-6017D01*
G01*
X3919264Y1516017D02*
G03*
X3919262Y1516022I-24265J-6017D01*
G01*
X3904066Y813297D02*
G03*
X3884068Y812483I-9067J-23298D01*
G01*
X3869999Y790000D02*
G03*
X3919999Y789999I25000J-1D01*
G01*
X3919267Y1516001D02*
G03*
X3919266Y1516006I-24269J-6002D01*
G01*
X3919267Y1516001D02*
G03*
X3919266Y1516006I-24269J-6002D01*
G01*
X3877538Y1527892D02*
G03*
X3877529Y1527883I17460J-17892D01*
G01*
X3877538Y1527892D02*
G03*
X3877529Y1527883I17460J-17892D01*
G01*
D02*
G03*
X3877525Y1527879I17470J-17883D01*
G01*
X3877529Y1527883D02*
G03*
X3877525Y1527879I17470J-17883D01*
G01*
X3877524Y1527878D02*
G03*
X3876896Y1527241I17475J-17878D01*
G01*
X3877524Y1527878D02*
G03*
X3876896Y1527241I17475J-17878D01*
G01*
X3876895Y1527241D02*
G03*
X3876884Y1527229I18103J-17242D01*
G01*
X3876895Y1527241D02*
G03*
X3876884Y1527229I18103J-17242D01*
G01*
X3877548Y1527901D02*
G03*
X3877544Y1527898I17451J-17902D01*
G01*
X3877548Y1527901D02*
G03*
X3877544Y1527898I17451J-17902D01*
G01*
X3829999Y790001D02*
G03*
X3805002Y764999I-25000J-2D01*
G01*
X3821750Y771441D02*
G03*
X3829999Y789995I-16751J18558D01*
G01*
X3821750Y771441D02*
G03*
X3829999Y789995I-16751J18558D01*
G01*
X3821746Y771438D02*
G03*
X3821749Y771441I-16747J18562D01*
G01*
X3821746Y771438D02*
G03*
X3821749Y771441I-16747J18562D01*
G01*
X3805003Y764999D02*
G03*
X3821746Y771438I-5J25000D01*
G01*
X3805003Y764999D02*
G03*
X3821746Y771438I-5J25000D01*
G01*
X3877542Y1527895D02*
G03*
X3877539Y1527892I17456J-17896D01*
G01*
X3877542Y1527895D02*
G03*
X3877539Y1527892I17456J-17896D01*
G01*
X3876879Y1527224D02*
G03*
X3874988Y1524986I18119J-17225D01*
G01*
X3876879Y1527224D02*
G03*
X3874988Y1524986I18119J-17225D01*
G01*
X3829279Y1504043D02*
G03*
X3829998Y1509999I-24280J5956D01*
G01*
X3829999Y789995D02*
G03*
X3829999Y789999I-25000J5D01*
G01*
Y790001D02*
G03*
X3805001Y764999I-25000J-2D01*
G01*
D11*
X1570000Y697500D02*
D03*
Y632502D02*
D03*
Y567503D02*
D03*
Y502504D02*
D03*
X1730005D02*
D03*
Y567503D02*
D03*
Y632502D02*
D03*
Y697500D02*
D03*
D12*
X624998Y1127497D02*
D03*
Y1077499D02*
D03*
Y1027497D02*
D03*
Y977495D02*
D03*
Y927497D02*
D03*
Y877495D02*
D03*
X1024998D02*
D03*
Y927497D02*
D03*
Y977495D02*
D03*
Y1027497D02*
D03*
Y1077499D02*
D03*
Y1127497D02*
D03*
D13*
X700000Y804998D02*
D03*
X749997D02*
D03*
X799999D02*
D03*
X849997D02*
D03*
X899999D02*
D03*
X950002D02*
D03*
Y1199999D02*
D03*
X899999D02*
D03*
X849997D02*
D03*
X799999D02*
D03*
X749997D02*
D03*
X700000D02*
D03*
D14*
X824998Y1002498D02*
D03*
D15*
X3817504Y3150002D02*
D03*
Y2950003D02*
D03*
Y2749998D02*
D03*
Y2549998D02*
D03*
X3582503Y3150002D02*
D03*
Y2549998D02*
D03*
Y2749998D02*
D03*
Y2950003D02*
D03*
D16*
X3030185Y2949998D02*
D03*
X460371Y950002D02*
D03*
X2869810Y2949998D02*
D03*
X300000Y950002D02*
D03*
D17*
X2300001Y3050008D02*
D03*
X2180002D02*
D03*
X2420001D02*
D03*
D18*
X1632500Y3289052D02*
D03*
X1697498Y3010947D02*
D03*
X1502497Y3289052D02*
D03*
X1567496D02*
D03*
X1697498D02*
D03*
X1632500Y3010947D02*
D03*
X1567496D02*
D03*
D19*
X1599998Y3150002D02*
D03*
D20*
X2203786Y2688240D02*
D03*
X1553790Y2688235D02*
D03*
X2203786Y1549995D02*
D03*
X2153789Y2688240D02*
D03*
X2103786D02*
D03*
X2253789Y1549995D02*
D03*
X1503788Y2688235D02*
D03*
X2253789Y2688240D02*
D03*
X2053789Y2688235D02*
D03*
X2003787D02*
D03*
X1953789Y2688240D02*
D03*
X1903787D02*
D03*
X1853790D02*
D03*
X1803787Y2688235D02*
D03*
X1753790Y2688240D02*
D03*
X1703787D02*
D03*
X1653790D02*
D03*
X1603787D02*
D03*
X1503788Y1549995D02*
D03*
X1553790D02*
D03*
X1603782D02*
D03*
X1653790D02*
D03*
X1703787D02*
D03*
X1753790D02*
D03*
X1803787D02*
D03*
X1853790D02*
D03*
X1903787D02*
D03*
X1953789D02*
D03*
X2003787D02*
D03*
X2053789D02*
D03*
X2103781D02*
D03*
X2153789D02*
D03*
D21*
X3450002Y1884996D02*
D03*
X1150001Y1335005D02*
D03*
Y1465002D02*
D03*
X3450002Y2014998D02*
D03*
D22*
X3100000Y2340001D02*
D03*
X2854433Y1809853D02*
D03*
X599995Y2209999D02*
D03*
X588900Y1726180D02*
D03*
X2854433Y1729853D02*
D03*
X600000Y2020002D02*
D03*
X3100000Y2260002D02*
D03*
X588900Y1646180D02*
D03*
X600000Y2100002D02*
D03*
X599995Y2289999D02*
D03*
D23*
X2949998Y2227500D02*
D03*
Y2372498D02*
D03*
D24*
X3579999Y1279998D02*
D03*
Y1215000D02*
D03*
Y1150001D02*
D03*
Y1085003D02*
D03*
Y1019999D02*
D03*
D25*
X3080000Y1550000D02*
D03*
D26*
X2700006Y2589998D02*
D03*
X1550000Y1090001D02*
D03*
X1449996Y1090006D02*
D03*
X1049996Y2540001D02*
D03*
X450003Y1890000D02*
D03*
X1350001Y1090006D02*
D03*
X1250001Y1090001D02*
D03*
X1350001Y690002D02*
D03*
Y490003D02*
D03*
Y1010007D02*
D03*
X1449996D02*
D03*
X1550000Y1010002D02*
D03*
X1250001D02*
D03*
X1350001Y610002D02*
D03*
Y410003D02*
D03*
X450003Y1810000D02*
D03*
X1049996Y2460001D02*
D03*
X2700006Y2509999D02*
D03*
D27*
X2447911Y2294114D02*
D03*
X1309666Y1794115D02*
D03*
Y1744117D02*
D03*
X2447911Y1794115D02*
D03*
Y1844117D02*
D03*
Y1894115D02*
D03*
Y1944117D02*
D03*
Y1994119D02*
D03*
X2447906Y2044117D02*
D03*
X2447911Y2094119D02*
D03*
Y2144117D02*
D03*
Y2194119D02*
D03*
Y2244111D02*
D03*
Y2344116D02*
D03*
Y2394119D02*
D03*
Y2444116D02*
D03*
Y2494118D02*
D03*
X1309666D02*
D03*
Y2444116D02*
D03*
Y2394119D02*
D03*
Y2344116D02*
D03*
Y2294119D02*
D03*
Y2244116D02*
D03*
Y2194119D02*
D03*
Y2144117D02*
D03*
Y2094119D02*
D03*
Y2044117D02*
D03*
Y1994119D02*
D03*
Y1944117D02*
D03*
Y1894115D02*
D03*
Y1844112D02*
D03*
D28*
X1127329Y3299999D02*
D03*
X1272673D02*
D03*
D29*
X800004Y2830008D02*
D03*
D30*
Y3080005D02*
D03*
D31*
X45000Y3699999D02*
D03*
Y2349999D02*
D03*
Y1650000D02*
D03*
Y649997D02*
D03*
Y850002D02*
D03*
Y750002D02*
D03*
Y549997D02*
D03*
Y449998D02*
D03*
Y349998D02*
D03*
Y2449999D02*
D03*
Y3049997D02*
D03*
Y2949998D02*
D03*
Y2849998D02*
D03*
Y2749998D02*
D03*
Y2649998D02*
D03*
Y2549998D02*
D03*
Y1850000D02*
D03*
Y1750000D02*
D03*
Y1550000D02*
D03*
Y1450001D02*
D03*
Y1350001D02*
D03*
Y3599999D02*
D03*
Y3799998D02*
D03*
D32*
X704998Y2500001D02*
D03*
X895000D02*
D03*
D33*
X450003Y2600001D02*
D03*
Y2439625D02*
D03*
D34*
X-342498Y3930001D02*
D03*
Y3180000D02*
D03*
Y3470002D02*
D03*
Y2219997D02*
D03*
Y1980002D02*
D03*
Y1219999D02*
D03*
Y979999D02*
D03*
Y220001D02*
D03*
D35*
X3275001Y2549998D02*
D03*
X424999Y1150001D02*
D03*
X275002D02*
D03*
X3425003Y3150002D02*
D03*
X3275001D02*
D03*
X3424998Y2549998D02*
D03*
X3275001Y2750003D02*
D03*
X3424998D02*
D03*
X3274996Y2950003D02*
D03*
X3424998D02*
D03*
D36*
X3870402Y2278000D02*
D03*
X3530398D02*
D03*
D37*
X3327503Y2349999D02*
D03*
X3172502D02*
D03*
D38*
X2447911Y1744112D02*
D03*
D39*
X2687499Y1450001D02*
D03*
X2612493Y1250001D02*
D03*
X2737491D02*
D03*
X2812502Y1450001D02*
D03*
D40*
X3060000Y1399998D02*
D03*
Y1700003D02*
D03*
D41*
X3399999Y959999D02*
D03*
Y1039999D02*
D03*
Y1190001D02*
D03*
Y1110001D02*
D03*
D42*
X1995003Y500010D02*
D03*
X2405005D02*
D03*
D43*
X1045003Y450003D02*
D03*
X855001D02*
D03*
X950002Y650002D02*
D03*
D44*
X2150004Y950002D02*
D03*
D45*
X1502497Y3010947D02*
D03*
D46*
X899999Y1332500D02*
D03*
D47*
X3850001Y1250001D02*
D03*
Y1050001D02*
D03*
D48*
X950007Y2810008D02*
D03*
X650007D02*
D03*
D49*
X2749998Y349998D02*
D03*
D50*
X2226443Y462657D02*
X2405005D01*
X1995003Y618623D02*
X2169537D01*
X93600Y1183260D02*
X275002D01*
X1251840Y2494118D02*
Y2577720D01*
X3275001Y2464639D02*
X3276220Y2463420D01*
X2103786Y2686940D02*
X2153789D01*
X2664080Y1744112D02*
X2700143D01*
X588900Y1922400D02*
Y2020002D01*
X1460062Y499942D02*
X1463872Y496132D01*
X1460062Y499942D02*
X1521080Y560960D01*
X1399160Y439040D02*
X1460062Y499942D01*
X1463872Y496132D02*
X1535243Y567503D01*
X1377743Y410003D02*
X1463872Y496132D01*
X-20700Y149480D02*
X650002D01*
X999999Y3733420D02*
X1096900D01*
X2180738Y1363600D02*
X2399178Y1145160D01*
X2103781Y1440557D02*
X2180738Y1363600D01*
X2513905Y1176514D02*
X2722500D01*
X2484609D02*
X2513905D01*
X1676020Y1302361D02*
Y1328040D01*
Y1302361D02*
X1787501Y1190880D01*
X1670661Y1307720D02*
X1676020Y1302361D01*
X1517981Y1315538D02*
X1646018Y1187502D01*
X1576960Y398400D02*
Y502504D01*
X306960Y2684400D02*
Y2735261D01*
X40260Y1850000D02*
Y1973200D01*
X2521840Y2494118D02*
Y2585340D01*
X375540Y3029840D02*
X395697Y3049997D01*
X3133980Y1251840D02*
Y1399998D01*
X1502497Y3346537D02*
X1528700Y3372740D01*
X1455959Y3299999D02*
X1502497Y3346537D01*
X1725438Y3372740D02*
X1782700D01*
X1528700D02*
X1725438D01*
X93600Y284100D02*
Y349998D01*
X3817240Y2950003D02*
Y3150002D01*
X2801240Y3040000D02*
X3004440Y3243200D01*
X3817240Y2749998D02*
Y2950003D01*
Y2549998D02*
Y2749998D01*
X1917320Y3154153D02*
X1982273Y3219106D01*
X1913170Y3150002D02*
X1917320Y3154153D01*
X1632500Y3268600D02*
X1681994Y3219106D01*
X1773322Y3150002D02*
X1842426Y3219106D01*
X1697498Y3074178D02*
X1773322Y3150002D01*
X1913170D01*
X1599998D02*
X1773322D01*
X1668400Y670602D02*
X1695299Y697500D01*
X1449996Y1091820D02*
X1548182D01*
X810966Y2736485D02*
X865018Y2742820D01*
X800004Y2735200D02*
X810966Y2736485D01*
X800004Y2735200D02*
X857398D01*
X799720Y2830008D02*
Y3014316D01*
X-249300Y3470002D02*
X-214797Y3435498D01*
X1319922Y690002D02*
X1350001D01*
X1299602D02*
X1319922D01*
X497460Y1747140D02*
X555240Y1804920D01*
X675260Y1924940D01*
X400320Y1650000D02*
X497460Y1747140D01*
Y1052709D02*
Y1274700D01*
Y950002D02*
Y1052709D01*
Y906400D02*
Y950002D01*
Y1274700D02*
Y1747140D01*
X-343280Y979999D02*
Y1219999D01*
X896240Y792100D02*
X899999D01*
X-340740Y220001D02*
Y979999D01*
X3424998Y2549780D02*
X3582503D01*
X3424998Y2810318D02*
X3582503D01*
X3424998Y2948560D02*
X3582503D01*
X3385440Y1190001D02*
Y1399160D01*
X3450002Y1973200D02*
X3542920D01*
X3156840Y2287738D02*
Y2366301D01*
Y2287738D02*
X3172502Y2303400D01*
X3080640Y2501520D02*
X3275001Y2695881D01*
Y2750003D01*
X1251840Y2494118D02*
X1309666D01*
X1693719Y415702D02*
X1765677D01*
X1675065Y434356D02*
X1693719Y415702D01*
X1693267Y632502D02*
X1730005D01*
X1675065Y614300D02*
X1693267Y632502D01*
X1675065Y434356D02*
Y614300D01*
X1765677Y415702D02*
X1808379Y373000D01*
X1825880D01*
X1483290Y1424250D02*
X1538240D01*
X1553790Y1549995D01*
X1350001Y610002D02*
X1460062Y499942D01*
X1350001Y410003D02*
X1377743D01*
X3275001Y2464639D02*
Y2549998D01*
X1903787Y2523547D02*
Y2688240D01*
X1681100Y2300860D02*
X1903787Y2523547D01*
X950002Y726060D02*
Y804998D01*
X830271Y2094119D02*
X1309666D01*
X781010Y2143380D02*
X830271Y2094119D01*
X63120Y2143380D02*
X781010D01*
X-56260Y2024000D02*
X63120Y2143380D01*
X-56260Y1465200D02*
Y2024000D01*
Y1465200D02*
X45000Y1450001D01*
X999999Y3733420D02*
Y3799998D01*
X1096900Y3733420D02*
X1150240Y3680080D01*
Y3446400D02*
Y3680080D01*
Y3446400D02*
X1175640Y3421000D01*
X1853820D01*
X2031620Y3243200D01*
Y3052543D02*
Y3243200D01*
X1853790Y2874712D02*
X2031620Y3052543D01*
X1853790Y2688240D02*
Y2874712D01*
X1309666Y2044117D02*
X1414197D01*
X1498220Y2128140D01*
X1528700D01*
X749997Y1199999D02*
Y1312800D01*
X836357Y1399160D01*
X957200D01*
X972440Y1383920D01*
Y1272561D02*
Y1383920D01*
Y1272561D02*
X1087502Y1157499D01*
X1579500D01*
X1655700Y1081299D01*
Y1043560D02*
Y1081299D01*
X1757300Y502504D02*
X1808100Y553304D01*
X1730005Y502504D02*
X1757300D01*
X1808100Y553304D02*
Y771780D01*
X1787501Y792379D02*
X1808100Y771780D01*
X1787501Y792379D02*
Y1190880D01*
X1676020Y2082420D02*
X1960500D01*
X2053789Y2175709D01*
Y2688235D01*
X1777620Y587823D02*
Y735372D01*
X1680993Y2173967D02*
X1950553D01*
X2003787Y2227200D01*
Y2688235D01*
X1309666Y2444116D02*
X1530224D01*
X1566043Y2408297D01*
X980659Y1994119D02*
X1309666D01*
X883540Y1897000D02*
X980659Y1994119D01*
X2465960Y2786000D02*
X2648840Y2968880D01*
X2253789Y2786000D02*
X2465960D01*
X2253789Y2688240D02*
Y2786000D01*
X45000Y850002D02*
X93600D01*
X118482Y825120D01*
X494920D01*
X1309666Y2244116D02*
X1566439D01*
X1719332Y2397009D01*
Y2503435D01*
X1493140Y2360037D02*
X1612520D01*
X1657483Y2405000D01*
Y2531243D01*
X1686180Y2559940D01*
X1718230D01*
X1753790Y2595500D01*
Y2688240D01*
X460371Y950002D02*
Y1015620D01*
X497460Y1052709D01*
X-56260Y665100D02*
X45000Y649997D01*
X-56260Y665100D02*
Y903860D01*
X182500D01*
X210440Y875920D02*
X466980D01*
X45000Y1650000D02*
X400320D01*
X555240Y1726180D02*
X588900D01*
X555240D02*
Y1804920D01*
X487300Y1927297D02*
Y2004391D01*
X450003Y1890000D02*
X487300Y1927297D01*
X1039836Y2568744D02*
X1049996Y2540001D01*
X1010540Y2598040D02*
X1039836Y2568744D01*
X865018Y2742820D02*
X865760D01*
X857398Y2735200D02*
X865018Y2742820D01*
X800004Y2735200D02*
Y2830008D01*
X1632500Y3268600D02*
Y3289052D01*
X1681994Y3219106D02*
X1842426D01*
X1697498Y3010947D02*
Y3074178D01*
X3817504Y3150002D02*
Y3217800D01*
X3792104Y3243200D02*
X3817504Y3217800D01*
X3004440Y3243200D02*
X3792104D01*
X2447911Y2294114D02*
X2712340D01*
X2750440Y2989200D02*
X2801240Y3040000D01*
X2712340Y2294114D02*
X2750440Y2332214D01*
X2801240Y3040000D02*
X2989200D01*
X2750440Y2332214D02*
Y2989200D01*
X2989200Y3040000D02*
X3065400Y3116200D01*
X3509900Y1627760D02*
X3588640D01*
X3327807Y1809853D02*
X3509900Y1627760D01*
X2854433Y1809853D02*
X3327807D01*
X3385440Y1190001D02*
X3399999D01*
X3332100Y1452500D02*
X3385440Y1399160D01*
X3001900Y1452500D02*
X3332100D01*
X2966340Y1488060D02*
X3001900Y1452500D01*
X2966340Y1488060D02*
Y1592200D01*
X3006980Y1632840D01*
X3128900D01*
X3156840Y1660780D01*
Y1739520D01*
X3141600Y1754760D02*
X3156840Y1739520D01*
X2963800Y1754760D02*
X3141600D01*
X2874900Y1665860D02*
X2963800Y1754760D01*
X2059560Y1665860D02*
X2874900D01*
X2006220Y1719200D02*
X2059560Y1665860D01*
X2006220Y1719200D02*
Y1922400D01*
X1919860Y2008760D02*
X2006220Y1922400D01*
X1574765Y2008760D02*
X1919860D01*
X1460120Y1894115D02*
X1574765Y2008760D01*
X1309666Y1894115D02*
X1460120D01*
X2949998Y2372498D02*
X3009124D01*
X3022698Y2386072D01*
X3137069D01*
X3156840Y2366301D01*
X3129103Y2260002D02*
X3156840Y2287738D01*
X2949998Y2372498D02*
Y2458340D01*
X2702180Y2392300D02*
Y2443100D01*
X2653996Y2344116D02*
X2702180Y2392300D01*
X2447911Y2344116D02*
X2653996D01*
X45000Y750002D02*
X182500D01*
X259782Y672720D01*
X1093425Y1465002D02*
X1150001D01*
X1013420Y1545007D02*
X1093425Y1465002D01*
X981127Y1545007D02*
X1013420D01*
X710820Y720980D02*
X749997Y760157D01*
Y804998D01*
X1045003Y328377D02*
Y450003D01*
Y328377D02*
X1096900Y276480D01*
X2722500D01*
X2801296Y197684D01*
Y27494D02*
Y197684D01*
Y27494D02*
X2844410Y-15620D01*
X3768980D01*
X3873120Y88520D01*
Y459360D01*
X3675000Y657480D02*
X3873120Y459360D01*
X3675000Y657480D02*
Y1007299D01*
X3662300Y1019999D02*
X3675000Y1007299D01*
X3579999Y1019999D02*
X3662300D01*
X423963Y1836040D02*
X450003Y1810000D01*
X3131440Y3055240D02*
X3234356D01*
X3274996Y3014600D01*
Y2950003D02*
Y3014600D01*
X950007Y2810008D02*
X1034792D01*
X1035940Y2808860D01*
X370460Y1836040D02*
X423963D01*
X1570000Y502504D02*
X1576960D01*
Y398400D02*
X1650620Y324740D01*
X2493900D01*
X2524380Y355220D01*
Y543180D01*
X2567560Y586360D01*
X3360040D01*
X1719200Y2229740D02*
X1858900D01*
X1957960Y2328800D01*
Y2449089D01*
X1953789Y2453260D02*
X1957960Y2449089D01*
X1953789Y2453260D02*
Y2688240D01*
X1903787Y1549995D02*
Y1858900D01*
X1730005Y567503D02*
X1757300D01*
X1777620Y587823D01*
X1757498Y755494D02*
X1777620Y735372D01*
X1757498Y755494D02*
Y1076021D01*
X1646018Y1187502D02*
X1757498Y1076021D01*
X1117504Y1187502D02*
X1646018D01*
X1005460Y1299546D02*
X1117504Y1187502D01*
X1005460Y1299546D02*
Y1424184D01*
X1000004Y1429640D02*
X1005460Y1424184D01*
X715240Y1429640D02*
X1000004D01*
X700000Y1414400D02*
X715240Y1429640D01*
X700000Y1199999D02*
Y1414400D01*
X2514220Y1114680D02*
X2575180Y1053720D01*
X1967368Y1114680D02*
X2514220D01*
X1653790Y1428258D02*
X1967368Y1114680D01*
X1653790Y1428258D02*
Y1549995D01*
X1550000Y1090001D02*
X1586399D01*
X1608197Y1068203D01*
Y996057D02*
Y1068203D01*
Y996057D02*
X1668400Y935854D01*
Y670602D02*
Y935854D01*
X1630300Y632502D02*
X1668400Y670602D01*
X2700143Y1744112D02*
X2714402Y1729853D01*
X2854433D01*
X2204071Y1744112D02*
X2447911D01*
X2092580Y1855603D02*
X2204071Y1744112D01*
X2092580Y1855603D02*
Y2287114D01*
X2103786Y2688240D01*
X2341500Y1794115D02*
X2447911D01*
X2123060Y2012555D02*
X2341500Y1794115D01*
X2123060Y2012555D02*
Y2229740D01*
X1541400Y1678560D02*
X1568222D01*
X1603782Y1643000D01*
Y1549995D02*
Y1643000D01*
X1695299Y697500D02*
X1730005D01*
X1570000Y632502D02*
X1630300D01*
X1550000Y1010002D02*
X1618006Y941996D01*
Y710607D02*
Y941996D01*
X1604900Y697500D02*
X1618006Y710607D01*
X1570000Y697500D02*
X1604900D01*
X1024998Y1127497D02*
X1212506D01*
X1250001Y1090001D01*
X1753790Y1437260D02*
Y1549995D01*
Y1437260D02*
X1863010Y1328040D01*
X2054480D01*
X2964923Y1700003D02*
X3060000D01*
X2933320Y1668400D02*
X2964923Y1700003D01*
X2933320Y1325500D02*
Y1668400D01*
X1447303Y1839718D02*
X1462071D01*
X1401700Y1794115D02*
X1447303Y1839718D01*
X1309666Y1794115D02*
X1401700D01*
X849997Y650383D02*
Y804998D01*
Y650383D02*
X860680Y639700D01*
X672080Y1646180D02*
X710820Y1607440D01*
X588900Y1646180D02*
X672080D01*
X3080000Y1550000D02*
X3587660D01*
X2933320Y857383D02*
Y1325500D01*
X2239031Y2244111D02*
X2447911D01*
X2234820Y2239900D02*
X2239031Y2244111D01*
X599995Y2289999D02*
X711521D01*
X847980Y2153540D01*
X718526Y2100002D02*
X822580Y1995948D01*
X600000Y2100002D02*
X718526D01*
X-38160Y549997D02*
X45000D01*
X-89092Y600929D02*
X-38160Y549997D01*
X-89092Y600929D02*
Y937068D01*
X124837Y1150997D01*
X45000Y2849998D02*
X276480D01*
X1178180Y2143380D02*
X1178917Y2144117D01*
X1309666D01*
X1027177Y1944117D02*
X1309666D01*
X987680Y1904620D02*
X1027177Y1944117D01*
X3273680Y1109600D02*
Y1180720D01*
Y1109600D02*
X3343281Y1039999D01*
X3399999D01*
X2420001Y2935860D02*
Y3050008D01*
Y2935860D02*
X2443100Y2912761D01*
X2468500D01*
X2555459Y1994119D02*
X2590420Y2029080D01*
X2447911Y1994119D02*
X2555459D01*
X2447911Y2494118D02*
X2521840D01*
X3030185Y2949998D02*
X3153706D01*
X2237375Y2866046D02*
X2335988D01*
X2203786Y2832457D02*
X2237375Y2866046D01*
X2203786Y2688240D02*
Y2832457D01*
X2447911Y2144117D02*
X2573377D01*
X2582800Y2153540D01*
X1703787Y1549995D02*
Y1939489D01*
X1737498Y1973200D01*
X1777102D01*
X1805484Y1944818D01*
Y1781603D02*
Y1944818D01*
X950002Y650002D02*
X1185942D01*
X1244220Y708280D01*
X1462660Y2280540D02*
Y2331340D01*
X1399881Y2394119D02*
X1462660Y2331340D01*
X1309666Y2394119D02*
X1399881D01*
X2814941Y2474581D02*
X2951100Y2610740D01*
X2814941Y2234190D02*
Y2474581D01*
X2811542Y2230792D02*
X2814941Y2234190D01*
X2735708Y2230792D02*
X2811542D01*
X2599036Y2094119D02*
X2735708Y2230792D01*
X2447911Y2094119D02*
X2599036D01*
X1024998Y877495D02*
X1117494D01*
X1250001Y1010002D01*
X1250540Y1010540D01*
X1349467D01*
X1350001Y1010007D01*
X1449996D01*
X1549995D01*
X1550000Y1010002D01*
X1531240Y502504D02*
X1570000D01*
X1383061Y354326D02*
X1531240Y502504D01*
X1303534Y354326D02*
X1383061D01*
X1124840Y533020D02*
X1303534Y354326D01*
X876199Y533020D02*
X1124840D01*
X799999Y609220D02*
X876199Y533020D01*
X799999Y609220D02*
Y804998D01*
X1540780Y697500D02*
X1570000D01*
X1521080Y677800D02*
X1540780Y697500D01*
X1521080Y560960D02*
Y677800D01*
X1379038Y439040D02*
X1399160D01*
X1350001Y410003D02*
X1379038Y439040D01*
X1535243Y567503D02*
X1570000D01*
X588900Y2020002D02*
X600000D01*
X2253789Y1487572D02*
Y1549995D01*
Y1487572D02*
X2491360Y1250001D01*
X2612493D01*
X2687499Y1389559D02*
Y1450001D01*
X2612493Y1314553D02*
X2687499Y1389559D01*
X2612493Y1250001D02*
Y1314553D01*
X2447911Y1894115D02*
X3091852D01*
X3461640Y2263903D01*
Y2379600D01*
X3349880Y2491360D02*
X3461640Y2379600D01*
X3349880Y2491360D02*
Y3021001D01*
X3275001Y3095880D02*
X3349880Y3021001D01*
X3275001Y3095880D02*
Y3150002D01*
X3164460Y1856360D02*
X3230500Y1922400D01*
X2776328Y1856360D02*
X3164460D01*
X2664080Y1744112D02*
X2776328Y1856360D01*
X2447911Y1744112D02*
X2664080D01*
X2103786Y2686940D02*
Y2688240D01*
X2153789Y2686940D02*
Y2688240D01*
X3276220Y2463420D02*
X3327503Y2412137D01*
Y2349999D02*
Y2412137D01*
X-342498Y220001D02*
X-340740D01*
X-342498Y979999D02*
X-340740D01*
X-343280D02*
X-342498D01*
X-343280Y1219999D02*
X-342498D01*
X466980Y875920D02*
X497460Y906400D01*
X182500Y903860D02*
X210440Y875920D01*
X-56260Y665100D02*
X-41157Y649997D01*
X45000D01*
X899999Y792100D02*
Y804998D01*
X896240Y591440D02*
Y792100D01*
Y591440D02*
X1201040D01*
X1299602Y690002D01*
X1300100Y539903D02*
X1350001Y490003D01*
X1300100Y539903D02*
Y670180D01*
X1319922Y690002D01*
X1250001Y1090001D02*
X1251820Y1091820D01*
X1348187D01*
X1350001Y1090006D01*
X1449996D01*
Y1091820D01*
X1548182D02*
X1550000Y1090001D01*
X799720Y2830008D02*
X800004D01*
X799720Y3014316D02*
X800004Y3014600D01*
Y3080005D01*
X1803787Y1549995D02*
Y1664727D01*
X1752987Y1715527D02*
X1803787Y1664727D01*
X1752987Y1715527D02*
Y1917320D01*
X3817240Y3150002D02*
X3817504D01*
X3817240Y2950003D02*
X3817504D01*
X3817240Y2749998D02*
X3817504D01*
X2447911Y2194119D02*
X2557339D01*
X2627331Y2264111D01*
X2747900D01*
X2784893Y2301104D01*
Y2612173D01*
X2806320Y2633600D01*
X3817240Y2549998D02*
X3817504D01*
Y2749998D01*
X-214797Y3419202D02*
Y3435498D01*
X-342498Y3470002D02*
X-249300D01*
X-213740Y3469260D02*
Y3608559D01*
X-122300Y3699999D01*
X45000D01*
X2949998Y2227500D02*
X3027300D01*
X3047620Y2247820D01*
Y2322221D01*
X3065400Y2340001D01*
X3100000D01*
X1064799Y1335005D02*
X1150001D01*
X3870402Y2155298D02*
Y2278000D01*
X-342498Y1980002D02*
X-214797D01*
X-342498Y2219997D02*
X-214797D01*
X45000Y2349999D02*
X160204D01*
X487300Y2873774D02*
Y3053614D01*
X450003Y2836477D02*
X487300Y2873774D01*
X450003Y2600001D02*
Y2836477D01*
X-342498Y3180000D02*
X-214797D01*
X1553790Y2561119D02*
Y2688235D01*
X1041691Y3299999D02*
X1127329D01*
X-342498Y3930001D02*
X-214797D01*
X2300001Y3050008D02*
Y3339999D01*
X3579999Y1279998D02*
X3685201D01*
X3364800Y1884996D02*
X3450002D01*
X973243Y450003D02*
X1045003D01*
X450003Y2439625D02*
X538100D01*
X598146Y2499671D01*
Y2718898D01*
X650007Y2770760D01*
Y2810008D01*
X3275001Y2750003D02*
Y2855901D01*
X45000Y3799998D02*
X131187D01*
Y3835721D01*
X267646Y3972180D01*
X650007Y2810008D02*
Y3348945D01*
X750002Y3448940D01*
Y3550002D01*
X45000Y549997D02*
X228220D01*
X350943Y672720D01*
X569383D01*
X792100Y450003D01*
X855001D01*
X45000Y1550000D02*
X281560D01*
X2405005Y462657D02*
Y500010D01*
X2168780Y520320D02*
X2226443Y462657D01*
X1995003Y500010D02*
Y618623D01*
X2169537D02*
X2252600Y535560D01*
X133138Y2949998D02*
X159640Y2976500D01*
X45000Y2949998D02*
X133138D01*
X45000Y3599999D02*
X131700D01*
X164720Y3633019D01*
Y3756280D01*
X395860Y3987420D01*
X729682D01*
X750002Y3967100D01*
Y3799998D02*
Y3967100D01*
X-71500Y449998D02*
X45000D01*
X-119760Y498258D02*
X-71500Y449998D01*
X-119760Y498258D02*
Y969900D01*
X93600Y1183260D01*
X275002Y1150001D02*
Y1183260D01*
Y1060939D02*
Y1150001D01*
Y1060939D02*
X300000Y1035940D01*
Y950002D02*
Y1035940D01*
X45000Y449998D02*
X172340D01*
X600000Y2020002D02*
X676718D01*
X952603Y1744117D01*
X1309666D01*
X650002Y149480D02*
Y149998D01*
X-149762Y278542D02*
X-20700Y149480D01*
X-149762Y278542D02*
Y983078D01*
X169800Y1302640D01*
Y1414400D01*
X134199Y1450001D02*
X169800Y1414400D01*
X45000Y1450001D02*
X134199D01*
X3399999Y959999D02*
X3450576Y1010576D01*
Y1033400D01*
X3502178Y1085003D01*
X3579999D01*
X3399999Y1110001D02*
X3439999Y1150001D01*
X3579999D01*
X2180002Y2938400D02*
Y3050008D01*
Y2938400D02*
X2192702Y2925700D01*
X2341500D01*
X2354200Y2938400D01*
Y3141600D01*
X2407540Y3194940D01*
X2430400D01*
X2496440Y3128900D01*
Y3050160D02*
Y3128900D01*
X2688723Y2024000D02*
Y2136517D01*
X2608840Y1944117D02*
X2688723Y2024000D01*
X2447911Y1944117D02*
X2608840D01*
X-94578Y2549998D02*
X45000D01*
X1785240Y2557400D02*
X1803787Y2575947D01*
Y2688235D01*
X-68960Y2649998D02*
X45000D01*
X2180738Y1363600D02*
X2189100D01*
X2399178Y1145160D02*
X2773300D01*
X2812502Y1184362D01*
X2103781Y1440557D02*
Y1549995D01*
X2812502Y1184362D02*
Y1450001D01*
X2285620Y1375502D02*
X2484609Y1176514D01*
X2722500D02*
X2737491Y1191505D01*
Y1250001D01*
X2153789Y1439800D02*
Y1549995D01*
Y1439800D02*
X2180677Y1412912D01*
X2277507D01*
X2513905Y1176514D01*
X1853790Y1427130D02*
Y1549995D01*
X306960Y2379600D02*
X362840Y2323720D01*
X563500Y2333880D02*
X776860D01*
X916621Y2194119D01*
X1309666D01*
X45000Y2749998D02*
X241362D01*
X306960Y2684400D01*
Y2379600D02*
Y2684400D01*
X362840Y2323720D02*
X553340D01*
X563500Y2333880D01*
X40260Y1850000D02*
X45000D01*
X40260Y1973200D02*
X111380Y2044320D01*
X45000Y1750000D02*
X228220D01*
X2447911Y2444116D02*
X2614296D01*
X2631060Y2460880D01*
X2447911Y2394119D02*
X2595500D01*
X859801Y2294119D02*
X1309666D01*
X787020Y2366900D02*
X859801Y2294119D01*
X522860Y2366900D02*
X787020D01*
X510160Y2354200D02*
X522860Y2366900D01*
X388240Y2354200D02*
X510160D01*
X375540Y2366900D02*
X388240Y2354200D01*
X375540Y2366900D02*
Y3029840D01*
X45000Y3049997D02*
X395697D01*
X588900Y3243200D01*
X-71500Y2449999D02*
X45000D01*
X-142620Y2521119D02*
X-71500Y2449999D01*
X-142620Y2521119D02*
Y3078100D01*
X225680Y3446400D01*
Y3715640D01*
X284100Y3774060D01*
X540640D01*
X639700Y3675000D01*
X1065348D01*
X1114680Y3625668D01*
Y3421000D02*
Y3625668D01*
Y3421000D02*
X1147700Y3387980D01*
X1254893D01*
X1272673Y3370200D01*
Y3299999D02*
Y3370200D01*
Y3082667D02*
Y3299999D01*
Y3082667D02*
X1287400Y3067940D01*
X1272673Y3299999D02*
X1455959D01*
X1502497Y3289052D02*
Y3346537D01*
X1697498Y3289052D02*
Y3344800D01*
X1725438Y3372740D01*
X3060000Y1399998D02*
X3133980D01*
X45000Y349998D02*
X93600D01*
X599995Y2209999D02*
X700660D01*
X1917320Y3090800D02*
Y3154153D01*
X3424998Y2549780D02*
Y2549998D01*
X3582503Y2549780D02*
Y2549998D01*
X3424998Y2750003D02*
Y2810318D01*
X3582503Y2749998D02*
Y2810318D01*
X3424998Y2948560D02*
Y2950003D01*
X3582503Y2948560D02*
Y2950003D01*
X3425003Y3150002D02*
X3582503D01*
X899999Y1199999D02*
Y1332500D01*
X1049996Y2460001D02*
X1071195Y2481200D01*
X1086740D01*
X1099440Y2493900D01*
Y2913000D01*
X1119760Y2933320D01*
X1456467D01*
X1603787Y2786000D01*
Y2688240D02*
Y2786000D01*
X-27309Y1350001D02*
X45000D01*
X-180720Y1196590D02*
X-27309Y1350001D01*
X-180720Y116460D02*
Y1196590D01*
Y116460D02*
X-61751Y-2509D01*
X2357151D01*
X2400001Y40341D01*
Y149998D01*
X2559798Y349998D02*
X2749998D01*
X895000Y2500001D02*
Y2582800D01*
X950007Y2637806D01*
Y2810008D01*
Y2810862D01*
X1150093Y3010947D01*
X1502497D01*
Y2959523D02*
Y3010947D01*
Y2959523D02*
X1528700Y2933320D01*
X1604900D01*
X1632500Y2960920D01*
Y3010947D01*
X2339163Y2044117D02*
X2447906D01*
X2187866Y2195414D02*
X2339163Y2044117D01*
X2187866Y2195414D02*
Y2487586D01*
X2351939Y2651659D01*
X2546006D01*
X2659000Y2538665D01*
X2671339D01*
X2700006Y2509999D01*
X2053789Y1436569D02*
Y1549995D01*
X2036700Y1419480D02*
X2053789Y1436569D01*
X1988440Y1419480D02*
X2036700D01*
X3450002Y1973200D02*
Y2014998D01*
Y2105280D01*
X3530398Y2185676D01*
Y2278000D01*
X3172502Y2303400D02*
Y2349999D01*
X3100000Y2260002D02*
X3129103D01*
X424999Y1150001D02*
Y1334319D01*
X439040Y1348360D01*
X1147700Y2394916D02*
Y2756815D01*
Y2394916D02*
X1198500Y2344116D01*
X1309666D01*
X3031781Y2125001D02*
X3100000D01*
X2989200Y2082420D02*
X3031781Y2125001D01*
X3542580Y2082420D02*
X3630001Y1994998D01*
D51*
X2500001Y3799998D02*
D03*
X899999Y149998D02*
D03*
X1150001D02*
D03*
X3250002Y3550002D02*
D03*
X3000000D02*
D03*
X2749998D02*
D03*
X2500001D02*
D03*
X2249999D02*
D03*
X2000002D02*
D03*
X1750000D02*
D03*
X1499998D02*
D03*
X1250001D02*
D03*
X1650000Y149998D02*
D03*
X3399999D02*
D03*
X3150002D02*
D03*
X2900000D02*
D03*
X2649998D02*
D03*
X2400001D02*
D03*
X2149999D02*
D03*
X650002D02*
D03*
X1900002D02*
D03*
X1399998D02*
D03*
X750002Y3799998D02*
D03*
X999999D02*
D03*
X1250001D02*
D03*
X1499998D02*
D03*
X999999Y3550002D02*
D03*
X750002D02*
D03*
X2000002Y3799998D02*
D03*
X1750000D02*
D03*
X2249999D02*
D03*
X2749998D02*
D03*
X3000000D02*
D03*
X3250002D02*
D03*
D52*
X3700400Y2278000D02*
D03*
D53*
X3579999Y899999D02*
D03*
Y1399998D02*
D03*
D54*
X450003Y3550002D02*
D03*
X3550002D02*
D03*
X3650001Y349998D02*
D03*
X450003Y450003D02*
D03*
D55*
X3080640Y2501520D02*
D03*
X1251840Y2577720D02*
D03*
X1825880Y373000D02*
D03*
X1483290Y1424250D02*
D03*
X950002Y726060D02*
D03*
X1528700Y2128140D02*
D03*
X1655700Y1043560D02*
D03*
X1670661Y1307720D02*
D03*
X1676020Y1328040D02*
D03*
Y2082420D02*
D03*
X1517981Y1315538D02*
D03*
X1680993Y2173967D02*
D03*
X883540Y1897000D02*
D03*
X1328040Y2689480D02*
D03*
X2648840Y2968880D02*
D03*
X494920Y825120D02*
D03*
X1719332Y2503435D02*
D03*
X675260Y1924940D02*
D03*
X487300Y2004391D02*
D03*
X865760Y2742820D02*
D03*
X3065400Y3116200D02*
D03*
X3588640Y1627760D02*
D03*
X3327807Y1809853D02*
D03*
X3433405Y1277001D02*
D03*
X2949998Y2458340D02*
D03*
X259782Y672720D02*
D03*
X2168780Y446660D02*
D03*
X797180Y530480D02*
D03*
X710820Y720980D02*
D03*
X370460Y1836040D02*
D03*
X3131440Y3055240D02*
D03*
X1035940Y2808860D02*
D03*
X3360040Y586360D02*
D03*
X1719200Y2229740D02*
D03*
X1903787Y1858900D02*
D03*
X1909700Y1947800D02*
D03*
X2575180Y1053720D02*
D03*
X1541400Y1678560D02*
D03*
X1554100Y779400D02*
D03*
X2054480Y1328040D02*
D03*
X985201Y1492901D02*
D03*
X1462071Y1839718D02*
D03*
X2324599Y1590900D02*
D03*
X3712297Y1705403D02*
D03*
X3587660Y1550000D02*
D03*
X2933320Y857383D02*
D03*
Y1325500D02*
D03*
X2633600Y690500D02*
D03*
X1457580Y2011300D02*
D03*
X847980Y2153540D02*
D03*
X822580Y1995948D02*
D03*
X987680Y1904620D02*
D03*
X3273680Y1180720D02*
D03*
X2468500Y2912761D02*
D03*
X2521840Y2585340D02*
D03*
X3153706Y2949998D02*
D03*
X2335988Y2866046D02*
D03*
X1805484Y1781603D02*
D03*
X1244220Y708280D02*
D03*
X3312004Y1251601D02*
D03*
X1609980Y2436735D02*
D03*
X588900Y1922400D02*
D03*
X3230500D02*
D03*
X3276220Y2463420D02*
D03*
X497460Y1274700D02*
D03*
X1010540Y2598040D02*
D03*
X1752987Y1917320D02*
D03*
X1917320Y3090800D02*
D03*
X-214797Y3419202D02*
D03*
X-213740Y3469260D02*
D03*
X1064799Y1335005D02*
D03*
X3870402Y2155298D02*
D03*
X-214797Y1980002D02*
D03*
Y2219997D02*
D03*
X160204Y2349999D02*
D03*
X487300Y3053614D02*
D03*
X-214797Y3180000D02*
D03*
X1553790Y2561119D02*
D03*
X1909700Y2386001D02*
D03*
X1041691Y3299999D02*
D03*
X-214797Y3930001D02*
D03*
X2300001Y3339999D02*
D03*
X3685201Y1279998D02*
D03*
X3364800Y1884996D02*
D03*
X267646Y3972180D02*
D03*
X281560Y1550000D02*
D03*
X2168780Y520320D02*
D03*
X2252600Y535560D02*
D03*
X172340Y449998D02*
D03*
X2496440Y3050160D02*
D03*
X-94578Y2549998D02*
D03*
X-68960Y2649998D02*
D03*
X306960Y2735261D02*
D03*
X111380Y2044320D02*
D03*
X228220Y1750000D02*
D03*
X2631060Y2460880D02*
D03*
X2595500Y2394119D02*
D03*
X588900Y3243200D02*
D03*
X1287400Y3067940D02*
D03*
X1782700Y3372740D02*
D03*
X3133980Y1251840D02*
D03*
X93600Y284100D02*
D03*
X700660Y2209999D02*
D03*
X1982273Y3219106D02*
D03*
X1988440Y1419480D02*
D03*
X439040Y1348360D02*
D03*
X724998Y1102498D02*
D03*
X824998D02*
D03*
X924998D02*
D03*
X724998Y1002498D02*
D03*
X824998D02*
D03*
X924998D02*
D03*
X724998Y902499D02*
D03*
X824998D02*
D03*
X924998D02*
D03*
X2989200Y2082420D02*
D03*
%TF.MD5,649bd806ce78bbf62fec2ec99ce15e5c*%
M02*
