%TF.GenerationSoftware,Altium Limited,Altium Designer,23.4.1 (23)*%
G04 Layer_Color=16711935*
%FSLAX45Y45*%
%MOMM*%
%TF.SameCoordinates,A4303C6D-D794-49A8-9BB0-83848C8DDD0F*%
%TF.FilePolarity,Negative*%
%TF.FileFunction,Soldermask,Bot*%
%TF.Part,Single*%
G01*
G75*
%TA.AperFunction,SMDPad,CuDef*%
%ADD33R,0.75000X1.00000*%
%ADD34R,1.10000X2.05000*%
%ADD49R,0.70000X1.30000*%
%ADD50R,0.50000X0.40000*%
%ADD51R,0.40000X0.50000*%
%TA.AperFunction,ComponentPad*%
%ADD58C,0.75000*%
%TA.AperFunction,SMDPad,CuDef*%
%ADD85R,1.00000X0.75000*%
%ADD86R,1.40000X0.38000*%
%ADD87R,2.40000X1.90000*%
%ADD100R,1.75320X0.80320*%
%ADD101R,2.00320X1.40320*%
%TA.AperFunction,ComponentPad*%
%ADD113C,1.65320*%
%TA.AperFunction,ViaPad*%
%ADD114C,1.19421*%
%ADD115C,4.20320*%
G04:AMPARAMS|DCode=116|XSize=1.7272mm|YSize=2.2032mm|CornerRadius=0.4826mm|HoleSize=0mm|Usage=FLASHONLY|Rotation=0.000|XOffset=0mm|YOffset=0mm|HoleType=Round|Shape=RoundedRectangle|*
%AMROUNDEDRECTD116*
21,1,1.72720,1.23800,0,0,0.0*
21,1,0.76200,2.20320,0,0,0.0*
1,1,0.96520,0.38100,-0.61900*
1,1,0.96520,-0.38100,-0.61900*
1,1,0.96520,-0.38100,0.61900*
1,1,0.96520,0.38100,0.61900*
%
%ADD116ROUNDEDRECTD116*%
%ADD117C,1.47320*%
%ADD118C,0.70320*%
%TA.AperFunction,SMDPad,CuDef*%
%ADD119R,1.88320X1.00320*%
%ADD120R,1.50320X1.49320*%
%ADD121R,1.60320X1.49320*%
%ADD122R,1.70320X1.80320*%
%ADD123R,1.90320X1.70320*%
%ADD124R,1.70320X1.90320*%
%ADD125R,1.05320X0.90320*%
D33*
X2574999Y1549994D02*
D03*
X2725002D02*
D03*
X2574999Y1399997D02*
D03*
X2724997D02*
D03*
D34*
X2384997Y550001D02*
D03*
X2714994D02*
D03*
D49*
X2479988Y849996D02*
D03*
X2669990D02*
D03*
D50*
X2299999Y1259997D02*
D03*
Y1339997D02*
D03*
X2300004Y985002D02*
D03*
Y1065001D02*
D03*
X1400001Y910000D02*
D03*
Y990000D02*
D03*
D51*
X2410001Y1150000D02*
D03*
X2490001D02*
D03*
D58*
X399996Y1550000D02*
D03*
D85*
X1375002Y1499997D02*
D03*
Y1649999D02*
D03*
D86*
X2092999Y1102502D02*
D03*
Y1362501D02*
D03*
Y1297503D02*
D03*
X1556998Y777504D02*
D03*
Y842503D02*
D03*
Y1557502D02*
D03*
Y1622501D02*
D03*
X2092999D02*
D03*
Y1557502D02*
D03*
Y842503D02*
D03*
Y777504D02*
D03*
Y907501D02*
D03*
Y972500D02*
D03*
Y1037503D02*
D03*
Y1167501D02*
D03*
Y1232504D02*
D03*
Y1427500D02*
D03*
Y1492504D02*
D03*
X1556998D02*
D03*
Y1427500D02*
D03*
Y1362501D02*
D03*
Y1297503D02*
D03*
Y1232504D02*
D03*
Y1167501D02*
D03*
Y1102502D02*
D03*
Y1037503D02*
D03*
Y972500D02*
D03*
Y907501D02*
D03*
D87*
X1100011Y1095004D02*
D03*
Y1505006D02*
D03*
D100*
X4805003Y300000D02*
D03*
Y400000D02*
D03*
Y500000D02*
D03*
Y700004D02*
D03*
Y800004D02*
D03*
Y600000D02*
D03*
X4805002Y4150001D02*
D03*
Y3950001D02*
D03*
Y4050001D02*
D03*
Y1250001D02*
D03*
Y1350001D02*
D03*
Y1450001D02*
D03*
Y1650000D02*
D03*
Y1750000D02*
D03*
Y1550000D02*
D03*
D101*
X5192500Y170003D02*
D03*
Y930001D02*
D03*
X5192500Y3820004D02*
D03*
Y4280003D02*
D03*
Y1119999D02*
D03*
Y1880002D02*
D03*
D113*
X414401Y1934399D02*
D03*
Y2434398D02*
D03*
D114*
X490220Y924560D02*
D03*
X388620Y416560D02*
D03*
X287020Y924560D02*
D03*
D115*
X1100001Y699998D02*
D03*
X4150003Y3750000D02*
D03*
Y699998D02*
D03*
X1100001Y3750000D02*
D03*
D116*
X3850000Y4250000D02*
D03*
X3849998Y4000002D02*
D03*
X3600001D02*
D03*
X3599996Y4249999D02*
D03*
X3349994Y4240799D02*
D03*
X3349999Y4000002D02*
D03*
X3100002D02*
D03*
X3099997Y4249994D02*
D03*
X2850000D02*
D03*
Y4000002D02*
D03*
X2599998D02*
D03*
Y4249994D02*
D03*
X2349996Y4249999D02*
D03*
X2099999Y4000002D02*
D03*
Y4249994D02*
D03*
X1849997Y4249999D02*
D03*
X1850002Y4000002D02*
D03*
X1600000D02*
D03*
Y4249994D02*
D03*
X1349998Y4249999D02*
D03*
Y3999997D02*
D03*
X4100000Y275000D02*
D03*
X3850000D02*
D03*
X3600000D02*
D03*
X3349999Y275000D02*
D03*
X3074998D02*
D03*
X2850000D02*
D03*
X2600003D02*
D03*
X2350001D02*
D03*
X1850002D02*
D03*
X1600000D02*
D03*
X1350003D02*
D03*
X2350001Y4000002D02*
D03*
X2099999Y275000D02*
D03*
D117*
X1762240Y2441396D02*
D03*
X1828841Y2630433D02*
D03*
X1351665Y2410178D02*
D03*
X3784600Y508000D02*
D03*
X736600Y3530600D02*
D03*
X533400Y3479800D02*
D03*
X1104900Y266700D02*
D03*
X393700Y1079500D02*
D03*
X4425000Y3100000D02*
D03*
X4610166Y3118962D02*
D03*
X1400000Y2650000D02*
D03*
X2700000Y3550000D02*
D03*
X2959333Y3578599D02*
D03*
X3150000Y3550000D02*
D03*
X1444560Y680387D02*
D03*
X1130968Y2494597D02*
D03*
X3155751Y3146167D02*
D03*
X1650796Y2149638D02*
D03*
X3317800Y774884D02*
D03*
X1899668Y3204108D02*
D03*
X3397430Y2176178D02*
D03*
X2781779Y2159606D02*
D03*
X2858894Y538404D02*
D03*
X2972601Y679739D02*
D03*
X4346102Y1748944D02*
D03*
X3445527Y1250000D02*
D03*
X1981985Y2946218D02*
D03*
X4271400Y2049011D02*
D03*
X3300000Y951070D02*
D03*
X4665941Y2309832D02*
D03*
X1835015Y2136364D02*
D03*
X1651473Y3170677D02*
D03*
X2424712Y3100970D02*
D03*
X3463714Y2725560D02*
D03*
X2976438Y1902389D02*
D03*
X4549820Y626565D02*
D03*
X4506695Y454899D02*
D03*
X4875000Y2025000D02*
D03*
X1418345Y2868345D02*
D03*
X3117175Y2918367D02*
D03*
X1403600Y3174870D02*
D03*
X1500000Y1800000D02*
D03*
X1325000Y1725000D02*
D03*
X794586Y394586D02*
D03*
X3156401Y516152D02*
D03*
X4539641Y3781488D02*
D03*
X4639081Y4010786D02*
D03*
X4445295Y287069D02*
D03*
X2781401Y1196097D02*
D03*
X3042671Y1185097D02*
D03*
X3209860Y1577740D02*
D03*
X3619504Y1687417D02*
D03*
X4175000Y1900000D02*
D03*
X2171901Y2965796D02*
D03*
X767245Y1201051D02*
D03*
X1725000Y1675000D02*
D03*
X3618165Y693165D02*
D03*
X4018901Y1775000D02*
D03*
X3125000Y800000D02*
D03*
X3324247Y598002D02*
D03*
X1669937Y2832598D02*
D03*
X1807755Y2977404D02*
D03*
X1552407Y2519770D02*
D03*
X875000Y2550000D02*
D03*
X1250000Y3375000D02*
D03*
X1675000Y3775000D02*
D03*
X2600000Y2500000D02*
D03*
X3001991Y2398274D02*
D03*
X2825000Y2400000D02*
D03*
X3125000Y3350000D02*
D03*
X3475000Y3550000D02*
D03*
X3925000Y3425000D02*
D03*
X4521500Y1896428D02*
D03*
X3286386Y2709923D02*
D03*
X2349907Y1880690D02*
D03*
X1025002Y1724998D02*
D03*
X672254Y1676964D02*
D03*
X4850000Y2300000D02*
D03*
X4638602Y2577974D02*
D03*
X4600155Y2750748D02*
D03*
X5050000Y2600000D02*
D03*
X4648732Y2946214D02*
D03*
X2875000Y3791000D02*
D03*
X4975000Y2775000D02*
D03*
X4624842Y1225158D02*
D03*
X975000Y2375000D02*
D03*
X4750000Y1100000D02*
D03*
X4975000Y1225000D02*
D03*
X5000000Y1425000D02*
D03*
X559569Y1206206D02*
D03*
X4600000Y1425000D02*
D03*
X1025000Y3375000D02*
D03*
X2175000Y600000D02*
D03*
X1975000D02*
D03*
D118*
X2099999Y3450000D02*
D03*
X1999999Y3550000D02*
D03*
Y3450000D02*
D03*
X1900000Y3550000D02*
D03*
Y3450000D02*
D03*
D119*
X3724001Y3114997D02*
D03*
Y3005000D02*
D03*
Y2894997D02*
D03*
Y2785000D02*
D03*
Y2674998D02*
D03*
Y2454998D02*
D03*
Y2345001D02*
D03*
Y2565000D02*
D03*
D120*
X3879998Y2139500D02*
D03*
D121*
X4619996D02*
D03*
D122*
X3714999Y2204000D02*
D03*
D123*
X5200000Y2150000D02*
D03*
Y3500000D02*
D03*
D124*
X3714999Y3469997D02*
D03*
D125*
X2650001Y1162502D02*
D03*
Y1037503D02*
D03*
X3025001Y537499D02*
D03*
Y412501D02*
D03*
%TF.MD5,d66da835a9ceab46b505dc6083623463*%
M02*
