%TF.GenerationSoftware,Altium Limited,Altium Designer,23.4.1 (23)*%
G04 Layer_Color=65535*
%FSLAX45Y45*%
%MOMM*%
%TF.SameCoordinates,23A6EF31-BC3A-4AE1-B3CE-C8081D6B100D*%
%TF.FilePolarity,Positive*%
%TF.FileFunction,Legend,Top*%
%TF.Part,Single*%
G01*
G75*
%TA.AperFunction,NonConductor*%
%ADD10C,0.50000*%
%ADD75C,0.25000*%
%ADD76C,0.20000*%
%ADD77C,0.10000*%
G36*
X3696165Y1882973D02*
Y1882832D01*
Y1882410D01*
Y1881777D01*
X3696095Y1880932D01*
Y1879947D01*
X3696024Y1878751D01*
X3695884Y1877415D01*
X3695813Y1876007D01*
X3695602Y1874530D01*
X3695461Y1872982D01*
X3694899Y1869816D01*
X3694547Y1868268D01*
X3694125Y1866791D01*
X3693703Y1865383D01*
X3693140Y1864047D01*
Y1863976D01*
X3692999Y1863765D01*
X3692858Y1863413D01*
X3692577Y1862921D01*
X3692295Y1862358D01*
X3691873Y1861725D01*
X3691381Y1861021D01*
X3690888Y1860247D01*
X3690255Y1859473D01*
X3689551Y1858629D01*
X3688777Y1857785D01*
X3687933Y1856940D01*
X3687019Y1856096D01*
X3686034Y1855322D01*
X3684978Y1854548D01*
X3683782Y1853845D01*
X3683712Y1853774D01*
X3683501Y1853704D01*
X3683149Y1853493D01*
X3682656Y1853282D01*
X3682023Y1853000D01*
X3681320Y1852719D01*
X3680475Y1852437D01*
X3679490Y1852086D01*
X3678435Y1851734D01*
X3677309Y1851452D01*
X3676043Y1851171D01*
X3674776Y1850890D01*
X3673369Y1850679D01*
X3671892Y1850467D01*
X3670414Y1850397D01*
X3668796Y1850327D01*
X3668233D01*
X3667600Y1850397D01*
X3666685Y1850467D01*
X3665630Y1850538D01*
X3664363Y1850749D01*
X3662956Y1850960D01*
X3661479Y1851241D01*
X3659931Y1851664D01*
X3658312Y1852086D01*
X3656694Y1852719D01*
X3655076Y1853423D01*
X3653458Y1854267D01*
X3651910Y1855252D01*
X3650432Y1856378D01*
X3649096Y1857644D01*
X3649025Y1857714D01*
X3648814Y1857996D01*
X3648462Y1858418D01*
X3648040Y1859051D01*
X3647548Y1859825D01*
X3646985Y1860740D01*
X3646352Y1861865D01*
X3645789Y1863132D01*
X3645156Y1864609D01*
X3644522Y1866228D01*
X3644030Y1868057D01*
X3643537Y1870027D01*
X3643115Y1872138D01*
X3642834Y1874460D01*
X3642623Y1876922D01*
Y1879525D01*
X3654232Y1881144D01*
Y1881003D01*
Y1880651D01*
X3654302Y1880088D01*
X3654372Y1879314D01*
X3654443Y1878400D01*
X3654583Y1877415D01*
X3654724Y1876289D01*
X3654935Y1875022D01*
X3655428Y1872490D01*
X3656131Y1869957D01*
X3656624Y1868831D01*
X3657116Y1867705D01*
X3657750Y1866720D01*
X3658383Y1865876D01*
X3658453Y1865806D01*
X3658524Y1865735D01*
X3658805Y1865524D01*
X3659086Y1865243D01*
X3659438Y1864961D01*
X3659931Y1864609D01*
X3660423Y1864187D01*
X3661056Y1863835D01*
X3661760Y1863484D01*
X3662534Y1863062D01*
X3663378Y1862710D01*
X3664293Y1862428D01*
X3665348Y1862147D01*
X3666404Y1862006D01*
X3667529Y1861865D01*
X3668725Y1861795D01*
X3669218D01*
X3669570Y1861865D01*
X3669992D01*
X3670484Y1861936D01*
X3671610Y1862077D01*
X3672877Y1862358D01*
X3674284Y1862710D01*
X3675761Y1863273D01*
X3677098Y1863976D01*
X3677168D01*
X3677239Y1864117D01*
X3677661Y1864398D01*
X3678294Y1864891D01*
X3678998Y1865594D01*
X3679842Y1866439D01*
X3680616Y1867494D01*
X3681390Y1868690D01*
X3681953Y1870027D01*
Y1870097D01*
X3682023Y1870238D01*
X3682093Y1870449D01*
X3682164Y1870731D01*
X3682234Y1871153D01*
X3682375Y1871645D01*
X3682516Y1872278D01*
X3682656Y1872982D01*
X3682727Y1873756D01*
X3682867Y1874671D01*
X3683008Y1875656D01*
X3683078Y1876781D01*
X3683149Y1877977D01*
X3683219Y1879244D01*
X3683290Y1880651D01*
Y1882199D01*
Y1949320D01*
X3696165D01*
Y1882973D01*
D02*
G37*
G36*
X3757377Y1851945D02*
X3745416D01*
Y1928072D01*
X3745345Y1928002D01*
X3745205Y1927861D01*
X3744994Y1927650D01*
X3744642Y1927369D01*
X3744220Y1927017D01*
X3743657Y1926524D01*
X3743024Y1926032D01*
X3742390Y1925469D01*
X3741546Y1924906D01*
X3740702Y1924203D01*
X3739787Y1923569D01*
X3738802Y1922795D01*
X3737676Y1922092D01*
X3736551Y1921318D01*
X3734018Y1919770D01*
X3733947Y1919700D01*
X3733736Y1919559D01*
X3733314Y1919348D01*
X3732822Y1919137D01*
X3732259Y1918785D01*
X3731555Y1918363D01*
X3730711Y1917941D01*
X3729867Y1917448D01*
X3727897Y1916463D01*
X3725786Y1915478D01*
X3723605Y1914493D01*
X3721494Y1913649D01*
Y1925188D01*
X3721635Y1925258D01*
X3721916Y1925399D01*
X3722479Y1925680D01*
X3723183Y1926032D01*
X3724027Y1926454D01*
X3725082Y1927017D01*
X3726208Y1927650D01*
X3727404Y1928354D01*
X3728741Y1929198D01*
X3730148Y1930042D01*
X3733103Y1932012D01*
X3736128Y1934193D01*
X3739013Y1936586D01*
X3739083Y1936656D01*
X3739365Y1936867D01*
X3739717Y1937219D01*
X3740209Y1937711D01*
X3740842Y1938345D01*
X3741546Y1939048D01*
X3742320Y1939892D01*
X3743164Y1940737D01*
X3744009Y1941722D01*
X3744923Y1942777D01*
X3746682Y1944958D01*
X3748300Y1947280D01*
X3749004Y1948476D01*
X3749637Y1949672D01*
X3757377D01*
Y1851945D01*
D02*
G37*
G36*
X3901221Y1304852D02*
X3902206Y1304781D01*
X3903402Y1304711D01*
X3904738Y1304500D01*
X3906286Y1304289D01*
X3907905Y1303937D01*
X3909664Y1303515D01*
X3911422Y1303022D01*
X3913322Y1302389D01*
X3915151Y1301615D01*
X3916981Y1300700D01*
X3918740Y1299715D01*
X3920428Y1298519D01*
X3922047Y1297112D01*
X3922117Y1297042D01*
X3922398Y1296760D01*
X3922820Y1296338D01*
X3923313Y1295705D01*
X3923946Y1295001D01*
X3924650Y1294087D01*
X3925424Y1293031D01*
X3926198Y1291835D01*
X3926901Y1290499D01*
X3927675Y1289021D01*
X3928379Y1287403D01*
X3929012Y1285714D01*
X3929504Y1283885D01*
X3929927Y1281985D01*
X3930208Y1279945D01*
X3930278Y1277834D01*
Y1277764D01*
Y1277553D01*
Y1277271D01*
Y1276849D01*
X3930208Y1276286D01*
X3930138Y1275723D01*
X3930067Y1275020D01*
X3929997Y1274246D01*
X3929716Y1272487D01*
X3929293Y1270517D01*
X3928660Y1268477D01*
X3927886Y1266366D01*
Y1266295D01*
X3927746Y1266084D01*
X3927605Y1265803D01*
X3927394Y1265381D01*
X3927183Y1264888D01*
X3926831Y1264255D01*
X3926479Y1263551D01*
X3925987Y1262778D01*
X3925494Y1261933D01*
X3924931Y1261019D01*
X3923524Y1258978D01*
X3922750Y1257923D01*
X3921906Y1256797D01*
X3920921Y1255671D01*
X3919936Y1254475D01*
X3919865Y1254405D01*
X3919654Y1254194D01*
X3919373Y1253842D01*
X3918880Y1253350D01*
X3918247Y1252716D01*
X3917473Y1251942D01*
X3916629Y1251028D01*
X3915574Y1249972D01*
X3914377Y1248847D01*
X3912970Y1247580D01*
X3911493Y1246173D01*
X3909804Y1244625D01*
X3907975Y1243007D01*
X3906005Y1241248D01*
X3903824Y1239348D01*
X3901502Y1237378D01*
X3901361Y1237308D01*
X3901009Y1236956D01*
X3900517Y1236534D01*
X3899813Y1235901D01*
X3898899Y1235197D01*
X3897984Y1234353D01*
X3896929Y1233438D01*
X3895803Y1232453D01*
X3893411Y1230413D01*
X3892285Y1229357D01*
X3891159Y1228372D01*
X3890104Y1227387D01*
X3889189Y1226543D01*
X3888345Y1225769D01*
X3887712Y1225066D01*
X3887571Y1224925D01*
X3887219Y1224503D01*
X3886656Y1223870D01*
X3885953Y1223096D01*
X3885179Y1222111D01*
X3884335Y1221055D01*
X3883490Y1219859D01*
X3882716Y1218663D01*
X3930419D01*
Y1207195D01*
X3866112D01*
Y1207265D01*
Y1207406D01*
Y1207617D01*
Y1207898D01*
Y1208320D01*
X3866182Y1208743D01*
X3866253Y1209868D01*
X3866393Y1211064D01*
X3866604Y1212472D01*
X3866956Y1213949D01*
X3867449Y1215427D01*
Y1215497D01*
X3867589Y1215708D01*
X3867730Y1216060D01*
X3867941Y1216552D01*
X3868152Y1217186D01*
X3868504Y1217889D01*
X3868926Y1218663D01*
X3869348Y1219507D01*
X3869841Y1220492D01*
X3870474Y1221477D01*
X3871811Y1223658D01*
X3873429Y1225980D01*
X3875329Y1228372D01*
X3875399Y1228443D01*
X3875610Y1228654D01*
X3875892Y1229006D01*
X3876314Y1229498D01*
X3876877Y1230131D01*
X3877580Y1230835D01*
X3878354Y1231679D01*
X3879339Y1232594D01*
X3880395Y1233649D01*
X3881520Y1234775D01*
X3882787Y1235971D01*
X3884194Y1237308D01*
X3885742Y1238645D01*
X3887360Y1240052D01*
X3889119Y1241529D01*
X3890948Y1243077D01*
X3891019Y1243148D01*
X3891159Y1243218D01*
X3891370Y1243429D01*
X3891652Y1243640D01*
X3892004Y1243992D01*
X3892426Y1244344D01*
X3893481Y1245258D01*
X3894818Y1246314D01*
X3896225Y1247651D01*
X3897843Y1249058D01*
X3899532Y1250606D01*
X3901361Y1252224D01*
X3903120Y1253912D01*
X3904950Y1255601D01*
X3906638Y1257360D01*
X3908327Y1259049D01*
X3909804Y1260667D01*
X3911211Y1262285D01*
X3912337Y1263763D01*
X3912407Y1263833D01*
X3912548Y1264114D01*
X3912830Y1264536D01*
X3913252Y1265029D01*
X3913674Y1265733D01*
X3914096Y1266506D01*
X3914659Y1267421D01*
X3915151Y1268406D01*
X3915644Y1269462D01*
X3916207Y1270587D01*
X3917121Y1273050D01*
X3917473Y1274316D01*
X3917755Y1275583D01*
X3917895Y1276849D01*
X3917966Y1278116D01*
Y1278186D01*
Y1278467D01*
Y1278819D01*
X3917895Y1279312D01*
X3917825Y1279945D01*
X3917684Y1280648D01*
X3917544Y1281422D01*
X3917333Y1282267D01*
X3917051Y1283181D01*
X3916699Y1284166D01*
X3916277Y1285151D01*
X3915785Y1286136D01*
X3915222Y1287192D01*
X3914518Y1288177D01*
X3913744Y1289162D01*
X3912830Y1290076D01*
X3912759Y1290147D01*
X3912619Y1290287D01*
X3912337Y1290499D01*
X3911915Y1290850D01*
X3911422Y1291202D01*
X3910789Y1291624D01*
X3910086Y1292117D01*
X3909312Y1292539D01*
X3908397Y1293031D01*
X3907412Y1293454D01*
X3906286Y1293876D01*
X3905161Y1294228D01*
X3903894Y1294579D01*
X3902557Y1294790D01*
X3901150Y1294931D01*
X3899673Y1295001D01*
X3898828D01*
X3898266Y1294931D01*
X3897492Y1294861D01*
X3896647Y1294720D01*
X3895733Y1294579D01*
X3894677Y1294368D01*
X3893622Y1294087D01*
X3892496Y1293735D01*
X3891370Y1293313D01*
X3890174Y1292820D01*
X3889049Y1292187D01*
X3887923Y1291484D01*
X3886797Y1290710D01*
X3885812Y1289795D01*
X3885742Y1289725D01*
X3885601Y1289584D01*
X3885320Y1289232D01*
X3885038Y1288880D01*
X3884616Y1288317D01*
X3884194Y1287684D01*
X3883701Y1286910D01*
X3883279Y1286066D01*
X3882787Y1285151D01*
X3882294Y1284026D01*
X3881872Y1282900D01*
X3881450Y1281633D01*
X3881169Y1280226D01*
X3880887Y1278749D01*
X3880746Y1277201D01*
X3880676Y1275512D01*
X3868363Y1276779D01*
Y1276849D01*
Y1276919D01*
X3868434Y1277131D01*
Y1277412D01*
X3868504Y1278116D01*
X3868715Y1279030D01*
X3868926Y1280156D01*
X3869208Y1281493D01*
X3869559Y1282970D01*
X3869982Y1284518D01*
X3870544Y1286207D01*
X3871178Y1287895D01*
X3871952Y1289654D01*
X3872866Y1291413D01*
X3873851Y1293102D01*
X3875047Y1294720D01*
X3876314Y1296268D01*
X3877791Y1297675D01*
X3877862Y1297745D01*
X3878143Y1297957D01*
X3878636Y1298379D01*
X3879269Y1298801D01*
X3880113Y1299364D01*
X3881098Y1299997D01*
X3882294Y1300630D01*
X3883631Y1301334D01*
X3885179Y1301967D01*
X3886797Y1302600D01*
X3888626Y1303233D01*
X3890596Y1303796D01*
X3892707Y1304289D01*
X3894959Y1304641D01*
X3897351Y1304852D01*
X3899884Y1304922D01*
X3900517D01*
X3901221Y1304852D01*
D02*
G37*
G36*
X3749951D02*
X3750936Y1304781D01*
X3752132Y1304711D01*
X3753469Y1304500D01*
X3755017Y1304289D01*
X3756635Y1303937D01*
X3758394Y1303515D01*
X3760153Y1303022D01*
X3762052Y1302389D01*
X3763882Y1301615D01*
X3765711Y1300700D01*
X3767470Y1299715D01*
X3769159Y1298519D01*
X3770777Y1297112D01*
X3770847Y1297042D01*
X3771129Y1296760D01*
X3771551Y1296338D01*
X3772043Y1295705D01*
X3772676Y1295001D01*
X3773380Y1294087D01*
X3774154Y1293031D01*
X3774928Y1291835D01*
X3775632Y1290499D01*
X3776405Y1289021D01*
X3777109Y1287403D01*
X3777742Y1285714D01*
X3778235Y1283885D01*
X3778657Y1281985D01*
X3778938Y1279945D01*
X3779009Y1277834D01*
Y1277764D01*
Y1277553D01*
Y1277271D01*
Y1276849D01*
X3778938Y1276286D01*
X3778868Y1275723D01*
X3778798Y1275020D01*
X3778727Y1274246D01*
X3778446Y1272487D01*
X3778024Y1270517D01*
X3777390Y1268477D01*
X3776617Y1266366D01*
Y1266295D01*
X3776476Y1266084D01*
X3776335Y1265803D01*
X3776124Y1265381D01*
X3775913Y1264888D01*
X3775561Y1264255D01*
X3775209Y1263551D01*
X3774717Y1262778D01*
X3774224Y1261933D01*
X3773661Y1261019D01*
X3772254Y1258978D01*
X3771480Y1257923D01*
X3770636Y1256797D01*
X3769651Y1255671D01*
X3768666Y1254475D01*
X3768596Y1254405D01*
X3768385Y1254194D01*
X3768103Y1253842D01*
X3767611Y1253350D01*
X3766977Y1252716D01*
X3766204Y1251942D01*
X3765359Y1251028D01*
X3764304Y1249972D01*
X3763108Y1248847D01*
X3761701Y1247580D01*
X3760223Y1246173D01*
X3758535Y1244625D01*
X3756705Y1243007D01*
X3754735Y1241248D01*
X3752554Y1239348D01*
X3750232Y1237378D01*
X3750092Y1237308D01*
X3749740Y1236956D01*
X3749247Y1236534D01*
X3748544Y1235901D01*
X3747629Y1235197D01*
X3746714Y1234353D01*
X3745659Y1233438D01*
X3744533Y1232453D01*
X3742141Y1230413D01*
X3741015Y1229357D01*
X3739890Y1228372D01*
X3738834Y1227387D01*
X3737920Y1226543D01*
X3737075Y1225769D01*
X3736442Y1225066D01*
X3736301Y1224925D01*
X3735950Y1224503D01*
X3735387Y1223870D01*
X3734683Y1223096D01*
X3733909Y1222111D01*
X3733065Y1221055D01*
X3732221Y1219859D01*
X3731447Y1218663D01*
X3779149D01*
Y1207195D01*
X3714842D01*
Y1207265D01*
Y1207406D01*
Y1207617D01*
Y1207898D01*
Y1208320D01*
X3714913Y1208743D01*
X3714983Y1209868D01*
X3715124Y1211064D01*
X3715335Y1212472D01*
X3715686Y1213949D01*
X3716179Y1215427D01*
Y1215497D01*
X3716320Y1215708D01*
X3716460Y1216060D01*
X3716672Y1216552D01*
X3716883Y1217186D01*
X3717234Y1217889D01*
X3717657Y1218663D01*
X3718079Y1219507D01*
X3718571Y1220492D01*
X3719204Y1221477D01*
X3720541Y1223658D01*
X3722159Y1225980D01*
X3724059Y1228372D01*
X3724129Y1228443D01*
X3724341Y1228654D01*
X3724622Y1229006D01*
X3725044Y1229498D01*
X3725607Y1230131D01*
X3726311Y1230835D01*
X3727084Y1231679D01*
X3728070Y1232594D01*
X3729125Y1233649D01*
X3730251Y1234775D01*
X3731517Y1235971D01*
X3732924Y1237308D01*
X3734472Y1238645D01*
X3736090Y1240052D01*
X3737849Y1241529D01*
X3739679Y1243077D01*
X3739749Y1243148D01*
X3739890Y1243218D01*
X3740101Y1243429D01*
X3740382Y1243640D01*
X3740734Y1243992D01*
X3741156Y1244344D01*
X3742211Y1245258D01*
X3743548Y1246314D01*
X3744955Y1247651D01*
X3746574Y1249058D01*
X3748262Y1250606D01*
X3750092Y1252224D01*
X3751851Y1253912D01*
X3753680Y1255601D01*
X3755368Y1257360D01*
X3757057Y1259049D01*
X3758535Y1260667D01*
X3759942Y1262285D01*
X3761067Y1263763D01*
X3761138Y1263833D01*
X3761278Y1264114D01*
X3761560Y1264536D01*
X3761982Y1265029D01*
X3762404Y1265733D01*
X3762826Y1266506D01*
X3763389Y1267421D01*
X3763882Y1268406D01*
X3764374Y1269462D01*
X3764937Y1270587D01*
X3765852Y1273050D01*
X3766204Y1274316D01*
X3766485Y1275583D01*
X3766626Y1276849D01*
X3766696Y1278116D01*
Y1278186D01*
Y1278467D01*
Y1278819D01*
X3766626Y1279312D01*
X3766555Y1279945D01*
X3766415Y1280648D01*
X3766274Y1281422D01*
X3766063Y1282267D01*
X3765781Y1283181D01*
X3765430Y1284166D01*
X3765007Y1285151D01*
X3764515Y1286136D01*
X3763952Y1287192D01*
X3763249Y1288177D01*
X3762475Y1289162D01*
X3761560Y1290076D01*
X3761490Y1290147D01*
X3761349Y1290287D01*
X3761067Y1290499D01*
X3760645Y1290850D01*
X3760153Y1291202D01*
X3759520Y1291624D01*
X3758816Y1292117D01*
X3758042Y1292539D01*
X3757127Y1293031D01*
X3756142Y1293454D01*
X3755017Y1293876D01*
X3753891Y1294228D01*
X3752624Y1294579D01*
X3751288Y1294790D01*
X3749880Y1294931D01*
X3748403Y1295001D01*
X3747559D01*
X3746996Y1294931D01*
X3746222Y1294861D01*
X3745378Y1294720D01*
X3744463Y1294579D01*
X3743408Y1294368D01*
X3742352Y1294087D01*
X3741226Y1293735D01*
X3740101Y1293313D01*
X3738905Y1292820D01*
X3737779Y1292187D01*
X3736653Y1291484D01*
X3735527Y1290710D01*
X3734542Y1289795D01*
X3734472Y1289725D01*
X3734331Y1289584D01*
X3734050Y1289232D01*
X3733769Y1288880D01*
X3733346Y1288317D01*
X3732924Y1287684D01*
X3732432Y1286910D01*
X3732010Y1286066D01*
X3731517Y1285151D01*
X3731025Y1284026D01*
X3730602Y1282900D01*
X3730180Y1281633D01*
X3729899Y1280226D01*
X3729617Y1278749D01*
X3729477Y1277201D01*
X3729406Y1275512D01*
X3717094Y1276779D01*
Y1276849D01*
Y1276919D01*
X3717164Y1277131D01*
Y1277412D01*
X3717234Y1278116D01*
X3717445Y1279030D01*
X3717657Y1280156D01*
X3717938Y1281493D01*
X3718290Y1282970D01*
X3718712Y1284518D01*
X3719275Y1286207D01*
X3719908Y1287895D01*
X3720682Y1289654D01*
X3721597Y1291413D01*
X3722582Y1293102D01*
X3723778Y1294720D01*
X3725044Y1296268D01*
X3726522Y1297675D01*
X3726592Y1297745D01*
X3726873Y1297957D01*
X3727366Y1298379D01*
X3727999Y1298801D01*
X3728843Y1299364D01*
X3729828Y1299997D01*
X3731025Y1300630D01*
X3732361Y1301334D01*
X3733909Y1301967D01*
X3735527Y1302600D01*
X3737357Y1303233D01*
X3739327Y1303796D01*
X3741438Y1304289D01*
X3743689Y1304641D01*
X3746081Y1304852D01*
X3748614Y1304922D01*
X3749247D01*
X3749951Y1304852D01*
D02*
G37*
G36*
X3674316D02*
X3675301Y1304781D01*
X3676497Y1304711D01*
X3677834Y1304500D01*
X3679382Y1304289D01*
X3681000Y1303937D01*
X3682759Y1303515D01*
X3684518Y1303022D01*
X3686418Y1302389D01*
X3688247Y1301615D01*
X3690076Y1300700D01*
X3691835Y1299715D01*
X3693524Y1298519D01*
X3695142Y1297112D01*
X3695212Y1297042D01*
X3695494Y1296760D01*
X3695916Y1296338D01*
X3696408Y1295705D01*
X3697042Y1295001D01*
X3697745Y1294087D01*
X3698519Y1293031D01*
X3699293Y1291835D01*
X3699997Y1290499D01*
X3700771Y1289021D01*
X3701474Y1287403D01*
X3702107Y1285714D01*
X3702600Y1283885D01*
X3703022Y1281985D01*
X3703303Y1279945D01*
X3703374Y1277834D01*
Y1277764D01*
Y1277553D01*
Y1277271D01*
Y1276849D01*
X3703303Y1276286D01*
X3703233Y1275723D01*
X3703163Y1275020D01*
X3703092Y1274246D01*
X3702811Y1272487D01*
X3702389Y1270517D01*
X3701756Y1268477D01*
X3700982Y1266366D01*
Y1266295D01*
X3700841Y1266084D01*
X3700700Y1265803D01*
X3700489Y1265381D01*
X3700278Y1264888D01*
X3699926Y1264255D01*
X3699575Y1263551D01*
X3699082Y1262778D01*
X3698590Y1261933D01*
X3698027Y1261019D01*
X3696619Y1258978D01*
X3695846Y1257923D01*
X3695001Y1256797D01*
X3694016Y1255671D01*
X3693031Y1254475D01*
X3692961Y1254405D01*
X3692750Y1254194D01*
X3692468Y1253842D01*
X3691976Y1253350D01*
X3691343Y1252716D01*
X3690569Y1251942D01*
X3689724Y1251028D01*
X3688669Y1249972D01*
X3687473Y1248847D01*
X3686066Y1247580D01*
X3684588Y1246173D01*
X3682900Y1244625D01*
X3681070Y1243007D01*
X3679100Y1241248D01*
X3676919Y1239348D01*
X3674597Y1237378D01*
X3674457Y1237308D01*
X3674105Y1236956D01*
X3673612Y1236534D01*
X3672909Y1235901D01*
X3671994Y1235197D01*
X3671080Y1234353D01*
X3670024Y1233438D01*
X3668898Y1232453D01*
X3666506Y1230413D01*
X3665381Y1229357D01*
X3664255Y1228372D01*
X3663199Y1227387D01*
X3662285Y1226543D01*
X3661440Y1225769D01*
X3660807Y1225066D01*
X3660667Y1224925D01*
X3660315Y1224503D01*
X3659752Y1223870D01*
X3659048Y1223096D01*
X3658274Y1222111D01*
X3657430Y1221055D01*
X3656586Y1219859D01*
X3655812Y1218663D01*
X3703515D01*
Y1207195D01*
X3639207D01*
Y1207265D01*
Y1207406D01*
Y1207617D01*
Y1207898D01*
Y1208320D01*
X3639278Y1208743D01*
X3639348Y1209868D01*
X3639489Y1211064D01*
X3639700Y1212472D01*
X3640052Y1213949D01*
X3640544Y1215427D01*
Y1215497D01*
X3640685Y1215708D01*
X3640826Y1216060D01*
X3641037Y1216552D01*
X3641248Y1217186D01*
X3641600Y1217889D01*
X3642022Y1218663D01*
X3642444Y1219507D01*
X3642936Y1220492D01*
X3643570Y1221477D01*
X3644906Y1223658D01*
X3646525Y1225980D01*
X3648424Y1228372D01*
X3648495Y1228443D01*
X3648706Y1228654D01*
X3648987Y1229006D01*
X3649409Y1229498D01*
X3649972Y1230131D01*
X3650676Y1230835D01*
X3651450Y1231679D01*
X3652435Y1232594D01*
X3653490Y1233649D01*
X3654616Y1234775D01*
X3655882Y1235971D01*
X3657289Y1237308D01*
X3658837Y1238645D01*
X3660455Y1240052D01*
X3662214Y1241529D01*
X3664044Y1243077D01*
X3664114Y1243148D01*
X3664255Y1243218D01*
X3664466Y1243429D01*
X3664747Y1243640D01*
X3665099Y1243992D01*
X3665521Y1244344D01*
X3666577Y1245258D01*
X3667913Y1246314D01*
X3669321Y1247651D01*
X3670939Y1249058D01*
X3672627Y1250606D01*
X3674457Y1252224D01*
X3676216Y1253912D01*
X3678045Y1255601D01*
X3679734Y1257360D01*
X3681422Y1259049D01*
X3682900Y1260667D01*
X3684307Y1262285D01*
X3685433Y1263763D01*
X3685503Y1263833D01*
X3685644Y1264114D01*
X3685925Y1264536D01*
X3686347Y1265029D01*
X3686769Y1265733D01*
X3687192Y1266506D01*
X3687754Y1267421D01*
X3688247Y1268406D01*
X3688739Y1269462D01*
X3689302Y1270587D01*
X3690217Y1273050D01*
X3690569Y1274316D01*
X3690850Y1275583D01*
X3690991Y1276849D01*
X3691061Y1278116D01*
Y1278186D01*
Y1278467D01*
Y1278819D01*
X3690991Y1279312D01*
X3690920Y1279945D01*
X3690780Y1280648D01*
X3690639Y1281422D01*
X3690428Y1282267D01*
X3690147Y1283181D01*
X3689795Y1284166D01*
X3689373Y1285151D01*
X3688880Y1286136D01*
X3688317Y1287192D01*
X3687614Y1288177D01*
X3686840Y1289162D01*
X3685925Y1290076D01*
X3685855Y1290147D01*
X3685714Y1290287D01*
X3685433Y1290499D01*
X3685010Y1290850D01*
X3684518Y1291202D01*
X3683885Y1291624D01*
X3683181Y1292117D01*
X3682407Y1292539D01*
X3681493Y1293031D01*
X3680507Y1293454D01*
X3679382Y1293876D01*
X3678256Y1294228D01*
X3676990Y1294579D01*
X3675653Y1294790D01*
X3674246Y1294931D01*
X3672768Y1295001D01*
X3671924D01*
X3671361Y1294931D01*
X3670587Y1294861D01*
X3669743Y1294720D01*
X3668828Y1294579D01*
X3667773Y1294368D01*
X3666717Y1294087D01*
X3665592Y1293735D01*
X3664466Y1293313D01*
X3663270Y1292820D01*
X3662144Y1292187D01*
X3661018Y1291484D01*
X3659893Y1290710D01*
X3658908Y1289795D01*
X3658837Y1289725D01*
X3658697Y1289584D01*
X3658415Y1289232D01*
X3658134Y1288880D01*
X3657712Y1288317D01*
X3657289Y1287684D01*
X3656797Y1286910D01*
X3656375Y1286066D01*
X3655882Y1285151D01*
X3655390Y1284026D01*
X3654968Y1282900D01*
X3654545Y1281633D01*
X3654264Y1280226D01*
X3653983Y1278749D01*
X3653842Y1277201D01*
X3653771Y1275512D01*
X3641459Y1276779D01*
Y1276849D01*
Y1276919D01*
X3641529Y1277131D01*
Y1277412D01*
X3641600Y1278116D01*
X3641811Y1279030D01*
X3642022Y1280156D01*
X3642303Y1281493D01*
X3642655Y1282970D01*
X3643077Y1284518D01*
X3643640Y1286207D01*
X3644273Y1287895D01*
X3645047Y1289654D01*
X3645962Y1291413D01*
X3646947Y1293102D01*
X3648143Y1294720D01*
X3649409Y1296268D01*
X3650887Y1297675D01*
X3650957Y1297745D01*
X3651239Y1297957D01*
X3651731Y1298379D01*
X3652364Y1298801D01*
X3653209Y1299364D01*
X3654194Y1299997D01*
X3655390Y1300630D01*
X3656726Y1301334D01*
X3658274Y1301967D01*
X3659893Y1302600D01*
X3661722Y1303233D01*
X3663692Y1303796D01*
X3665803Y1304289D01*
X3668054Y1304641D01*
X3670446Y1304852D01*
X3672979Y1304922D01*
X3673612D01*
X3674316Y1304852D01*
D02*
G37*
G36*
X3592771Y1304500D02*
X3593897D01*
X3595163Y1304429D01*
X3596500Y1304359D01*
X3598048Y1304218D01*
X3599596Y1304078D01*
X3601214Y1303937D01*
X3604521Y1303444D01*
X3606069Y1303163D01*
X3607617Y1302811D01*
X3609094Y1302389D01*
X3610431Y1301897D01*
X3610501D01*
X3610712Y1301756D01*
X3611064Y1301615D01*
X3611557Y1301404D01*
X3612120Y1301123D01*
X3612753Y1300700D01*
X3613527Y1300278D01*
X3614301Y1299786D01*
X3615145Y1299153D01*
X3616060Y1298519D01*
X3616974Y1297745D01*
X3617889Y1296901D01*
X3618733Y1295916D01*
X3619648Y1294931D01*
X3620492Y1293805D01*
X3621266Y1292609D01*
X3621336Y1292539D01*
X3621477Y1292328D01*
X3621618Y1291976D01*
X3621899Y1291484D01*
X3622181Y1290850D01*
X3622533Y1290076D01*
X3622955Y1289232D01*
X3623306Y1288317D01*
X3623658Y1287262D01*
X3624080Y1286136D01*
X3624432Y1284940D01*
X3624714Y1283674D01*
X3624995Y1282337D01*
X3625206Y1280930D01*
X3625276Y1279452D01*
X3625347Y1277975D01*
Y1277834D01*
Y1277553D01*
X3625276Y1276990D01*
Y1276216D01*
X3625136Y1275372D01*
X3624995Y1274316D01*
X3624784Y1273190D01*
X3624503Y1271924D01*
X3624151Y1270587D01*
X3623729Y1269180D01*
X3623166Y1267703D01*
X3622533Y1266225D01*
X3621759Y1264748D01*
X3620844Y1263340D01*
X3619789Y1261863D01*
X3618592Y1260526D01*
X3618522Y1260456D01*
X3618311Y1260245D01*
X3617889Y1259893D01*
X3617326Y1259400D01*
X3616622Y1258837D01*
X3615708Y1258204D01*
X3614723Y1257501D01*
X3613527Y1256727D01*
X3612120Y1255953D01*
X3610642Y1255179D01*
X3608883Y1254475D01*
X3607054Y1253701D01*
X3605013Y1253068D01*
X3602832Y1252435D01*
X3600440Y1251942D01*
X3597907Y1251520D01*
X3597978D01*
X3598118Y1251380D01*
X3598400Y1251309D01*
X3598752Y1251098D01*
X3599174Y1250887D01*
X3599666Y1250606D01*
X3600792Y1249972D01*
X3602058Y1249269D01*
X3603325Y1248424D01*
X3604521Y1247580D01*
X3605647Y1246666D01*
X3605717Y1246595D01*
X3605928Y1246454D01*
X3606209Y1246103D01*
X3606632Y1245751D01*
X3607124Y1245188D01*
X3607687Y1244625D01*
X3608391Y1243922D01*
X3609094Y1243077D01*
X3609868Y1242163D01*
X3610712Y1241178D01*
X3611627Y1240122D01*
X3612542Y1238997D01*
X3613456Y1237730D01*
X3614441Y1236464D01*
X3616341Y1233649D01*
X3633157Y1207195D01*
X3617045D01*
X3604169Y1227458D01*
X3604099Y1227528D01*
X3603888Y1227810D01*
X3603606Y1228302D01*
X3603254Y1228865D01*
X3602762Y1229639D01*
X3602199Y1230483D01*
X3601566Y1231398D01*
X3600933Y1232383D01*
X3599455Y1234564D01*
X3597907Y1236815D01*
X3596359Y1238926D01*
X3595585Y1239911D01*
X3594882Y1240826D01*
X3594811Y1240896D01*
X3594741Y1241037D01*
X3594530Y1241248D01*
X3594249Y1241600D01*
X3593545Y1242444D01*
X3592701Y1243429D01*
X3591645Y1244484D01*
X3590590Y1245610D01*
X3589464Y1246595D01*
X3588339Y1247369D01*
X3588198Y1247439D01*
X3587846Y1247651D01*
X3587283Y1248002D01*
X3586509Y1248354D01*
X3585665Y1248776D01*
X3584680Y1249269D01*
X3583625Y1249621D01*
X3582499Y1249972D01*
X3582428D01*
X3582077Y1250043D01*
X3581514Y1250113D01*
X3580810Y1250254D01*
X3579825Y1250324D01*
X3578559Y1250395D01*
X3577081Y1250465D01*
X3560406D01*
Y1207195D01*
X3547531D01*
Y1304570D01*
X3591927D01*
X3592771Y1304500D01*
D02*
G37*
G36*
X3863509Y1180177D02*
X3784286D01*
Y1188831D01*
X3863509D01*
Y1180177D01*
D02*
G37*
G36*
X3896127Y1357195D02*
X3884166D01*
Y1433322D01*
X3884096Y1433252D01*
X3883955Y1433111D01*
X3883744Y1432900D01*
X3883392Y1432618D01*
X3882970Y1432267D01*
X3882407Y1431774D01*
X3881774Y1431282D01*
X3881141Y1430719D01*
X3880297Y1430156D01*
X3879452Y1429452D01*
X3878538Y1428819D01*
X3877553Y1428045D01*
X3876427Y1427342D01*
X3875301Y1426568D01*
X3872768Y1425020D01*
X3872698Y1424949D01*
X3872487Y1424809D01*
X3872065Y1424598D01*
X3871572Y1424387D01*
X3871009Y1424035D01*
X3870306Y1423613D01*
X3869461Y1423190D01*
X3868617Y1422698D01*
X3866647Y1421713D01*
X3864536Y1420728D01*
X3862355Y1419743D01*
X3860245Y1418899D01*
Y1430437D01*
X3860385Y1430508D01*
X3860667Y1430648D01*
X3861230Y1430930D01*
X3861933Y1431282D01*
X3862777Y1431704D01*
X3863833Y1432267D01*
X3864958Y1432900D01*
X3866155Y1433603D01*
X3867491Y1434448D01*
X3868899Y1435292D01*
X3871854Y1437262D01*
X3874879Y1439443D01*
X3877764Y1441835D01*
X3877834Y1441906D01*
X3878115Y1442117D01*
X3878467Y1442469D01*
X3878960Y1442961D01*
X3879593Y1443594D01*
X3880297Y1444298D01*
X3881070Y1445142D01*
X3881915Y1445986D01*
X3882759Y1446971D01*
X3883674Y1448027D01*
X3885433Y1450208D01*
X3887051Y1452530D01*
X3887754Y1453726D01*
X3888388Y1454922D01*
X3896127D01*
Y1357195D01*
D02*
G37*
G36*
X3733459Y1454852D02*
X3734444Y1454781D01*
X3735640Y1454711D01*
X3736977Y1454500D01*
X3738525Y1454289D01*
X3740143Y1453937D01*
X3741902Y1453515D01*
X3743661Y1453022D01*
X3745561Y1452389D01*
X3747390Y1451615D01*
X3749220Y1450700D01*
X3750979Y1449715D01*
X3752667Y1448519D01*
X3754285Y1447112D01*
X3754356Y1447042D01*
X3754637Y1446760D01*
X3755059Y1446338D01*
X3755552Y1445705D01*
X3756185Y1445001D01*
X3756889Y1444087D01*
X3757663Y1443031D01*
X3758436Y1441835D01*
X3759140Y1440499D01*
X3759914Y1439021D01*
X3760618Y1437403D01*
X3761251Y1435714D01*
X3761743Y1433885D01*
X3762165Y1431985D01*
X3762447Y1429945D01*
X3762517Y1427834D01*
Y1427764D01*
Y1427553D01*
Y1427271D01*
Y1426849D01*
X3762447Y1426286D01*
X3762377Y1425723D01*
X3762306Y1425020D01*
X3762236Y1424246D01*
X3761954Y1422487D01*
X3761532Y1420517D01*
X3760899Y1418476D01*
X3760125Y1416366D01*
Y1416295D01*
X3759984Y1416084D01*
X3759844Y1415803D01*
X3759633Y1415381D01*
X3759421Y1414888D01*
X3759070Y1414255D01*
X3758718Y1413551D01*
X3758225Y1412777D01*
X3757733Y1411933D01*
X3757170Y1411019D01*
X3755763Y1408978D01*
X3754989Y1407923D01*
X3754145Y1406797D01*
X3753160Y1405671D01*
X3752175Y1404475D01*
X3752104Y1404405D01*
X3751893Y1404194D01*
X3751612Y1403842D01*
X3751119Y1403349D01*
X3750486Y1402716D01*
X3749712Y1401942D01*
X3748868Y1401028D01*
X3747812Y1399972D01*
X3746616Y1398847D01*
X3745209Y1397580D01*
X3743732Y1396173D01*
X3742043Y1394625D01*
X3740214Y1393007D01*
X3738244Y1391248D01*
X3736063Y1389348D01*
X3733741Y1387378D01*
X3733600Y1387308D01*
X3733248Y1386956D01*
X3732756Y1386534D01*
X3732052Y1385901D01*
X3731138Y1385197D01*
X3730223Y1384353D01*
X3729168Y1383438D01*
X3728042Y1382453D01*
X3725650Y1380413D01*
X3724524Y1379357D01*
X3723398Y1378372D01*
X3722343Y1377387D01*
X3721428Y1376543D01*
X3720584Y1375769D01*
X3719951Y1375066D01*
X3719810Y1374925D01*
X3719458Y1374503D01*
X3718895Y1373869D01*
X3718192Y1373096D01*
X3717418Y1372111D01*
X3716573Y1371055D01*
X3715729Y1369859D01*
X3714955Y1368663D01*
X3762658D01*
Y1357195D01*
X3698351D01*
Y1357265D01*
Y1357406D01*
Y1357617D01*
Y1357898D01*
Y1358320D01*
X3698421Y1358743D01*
X3698491Y1359868D01*
X3698632Y1361064D01*
X3698843Y1362471D01*
X3699195Y1363949D01*
X3699688Y1365427D01*
Y1365497D01*
X3699828Y1365708D01*
X3699969Y1366060D01*
X3700180Y1366552D01*
X3700391Y1367185D01*
X3700743Y1367889D01*
X3701165Y1368663D01*
X3701587Y1369507D01*
X3702080Y1370492D01*
X3702713Y1371477D01*
X3704050Y1373658D01*
X3705668Y1375980D01*
X3707568Y1378372D01*
X3707638Y1378443D01*
X3707849Y1378654D01*
X3708131Y1379006D01*
X3708553Y1379498D01*
X3709116Y1380131D01*
X3709819Y1380835D01*
X3710593Y1381679D01*
X3711578Y1382594D01*
X3712633Y1383649D01*
X3713759Y1384775D01*
X3715026Y1385971D01*
X3716433Y1387308D01*
X3717981Y1388645D01*
X3719599Y1390052D01*
X3721358Y1391529D01*
X3723187Y1393077D01*
X3723257Y1393148D01*
X3723398Y1393218D01*
X3723609Y1393429D01*
X3723891Y1393640D01*
X3724242Y1393992D01*
X3724665Y1394344D01*
X3725720Y1395258D01*
X3727057Y1396314D01*
X3728464Y1397650D01*
X3730082Y1399058D01*
X3731771Y1400606D01*
X3733600Y1402224D01*
X3735359Y1403912D01*
X3737188Y1405601D01*
X3738877Y1407360D01*
X3740566Y1409048D01*
X3742043Y1410667D01*
X3743450Y1412285D01*
X3744576Y1413762D01*
X3744646Y1413833D01*
X3744787Y1414114D01*
X3745068Y1414536D01*
X3745491Y1415029D01*
X3745913Y1415733D01*
X3746335Y1416506D01*
X3746898Y1417421D01*
X3747390Y1418406D01*
X3747883Y1419461D01*
X3748446Y1420587D01*
X3749360Y1423050D01*
X3749712Y1424316D01*
X3749994Y1425583D01*
X3750134Y1426849D01*
X3750205Y1428116D01*
Y1428186D01*
Y1428467D01*
Y1428819D01*
X3750134Y1429312D01*
X3750064Y1429945D01*
X3749923Y1430648D01*
X3749782Y1431422D01*
X3749571Y1432267D01*
X3749290Y1433181D01*
X3748938Y1434166D01*
X3748516Y1435151D01*
X3748023Y1436136D01*
X3747461Y1437192D01*
X3746757Y1438177D01*
X3745983Y1439162D01*
X3745068Y1440076D01*
X3744998Y1440147D01*
X3744857Y1440287D01*
X3744576Y1440499D01*
X3744154Y1440850D01*
X3743661Y1441202D01*
X3743028Y1441624D01*
X3742324Y1442117D01*
X3741551Y1442539D01*
X3740636Y1443031D01*
X3739651Y1443454D01*
X3738525Y1443876D01*
X3737399Y1444227D01*
X3736133Y1444579D01*
X3734796Y1444790D01*
X3733389Y1444931D01*
X3731912Y1445001D01*
X3731067D01*
X3730504Y1444931D01*
X3729730Y1444861D01*
X3728886Y1444720D01*
X3727971Y1444579D01*
X3726916Y1444368D01*
X3725861Y1444087D01*
X3724735Y1443735D01*
X3723609Y1443313D01*
X3722413Y1442820D01*
X3721287Y1442187D01*
X3720162Y1441484D01*
X3719036Y1440710D01*
X3718051Y1439795D01*
X3717981Y1439725D01*
X3717840Y1439584D01*
X3717558Y1439232D01*
X3717277Y1438880D01*
X3716855Y1438317D01*
X3716433Y1437684D01*
X3715940Y1436910D01*
X3715518Y1436066D01*
X3715026Y1435151D01*
X3714533Y1434026D01*
X3714111Y1432900D01*
X3713689Y1431633D01*
X3713407Y1430226D01*
X3713126Y1428749D01*
X3712985Y1427201D01*
X3712915Y1425512D01*
X3700602Y1426779D01*
Y1426849D01*
Y1426919D01*
X3700673Y1427130D01*
Y1427412D01*
X3700743Y1428116D01*
X3700954Y1429030D01*
X3701165Y1430156D01*
X3701446Y1431493D01*
X3701798Y1432970D01*
X3702220Y1434518D01*
X3702783Y1436207D01*
X3703417Y1437895D01*
X3704190Y1439654D01*
X3705105Y1441413D01*
X3706090Y1443102D01*
X3707286Y1444720D01*
X3708553Y1446268D01*
X3710030Y1447675D01*
X3710101Y1447745D01*
X3710382Y1447956D01*
X3710874Y1448379D01*
X3711508Y1448801D01*
X3712352Y1449364D01*
X3713337Y1449997D01*
X3714533Y1450630D01*
X3715870Y1451334D01*
X3717418Y1451967D01*
X3719036Y1452600D01*
X3720865Y1453233D01*
X3722835Y1453796D01*
X3724946Y1454289D01*
X3727198Y1454640D01*
X3729590Y1454852D01*
X3732123Y1454922D01*
X3732756D01*
X3733459Y1454852D01*
D02*
G37*
G36*
X3657825D02*
X3658810Y1454781D01*
X3660006Y1454711D01*
X3661342Y1454500D01*
X3662890Y1454289D01*
X3664509Y1453937D01*
X3666267Y1453515D01*
X3668026Y1453022D01*
X3669926Y1452389D01*
X3671755Y1451615D01*
X3673585Y1450700D01*
X3675344Y1449715D01*
X3677032Y1448519D01*
X3678651Y1447112D01*
X3678721Y1447042D01*
X3679002Y1446760D01*
X3679424Y1446338D01*
X3679917Y1445705D01*
X3680550Y1445001D01*
X3681254Y1444087D01*
X3682028Y1443031D01*
X3682802Y1441835D01*
X3683505Y1440499D01*
X3684279Y1439021D01*
X3684983Y1437403D01*
X3685616Y1435714D01*
X3686108Y1433885D01*
X3686531Y1431985D01*
X3686812Y1429945D01*
X3686882Y1427834D01*
Y1427764D01*
Y1427553D01*
Y1427271D01*
Y1426849D01*
X3686812Y1426286D01*
X3686742Y1425723D01*
X3686671Y1425020D01*
X3686601Y1424246D01*
X3686320Y1422487D01*
X3685897Y1420517D01*
X3685264Y1418476D01*
X3684490Y1416366D01*
Y1416295D01*
X3684350Y1416084D01*
X3684209Y1415803D01*
X3683998Y1415381D01*
X3683787Y1414888D01*
X3683435Y1414255D01*
X3683083Y1413551D01*
X3682591Y1412777D01*
X3682098Y1411933D01*
X3681535Y1411019D01*
X3680128Y1408978D01*
X3679354Y1407923D01*
X3678510Y1406797D01*
X3677525Y1405671D01*
X3676540Y1404475D01*
X3676469Y1404405D01*
X3676258Y1404194D01*
X3675977Y1403842D01*
X3675484Y1403349D01*
X3674851Y1402716D01*
X3674077Y1401942D01*
X3673233Y1401028D01*
X3672178Y1399972D01*
X3670981Y1398847D01*
X3669574Y1397580D01*
X3668097Y1396173D01*
X3666408Y1394625D01*
X3664579Y1393007D01*
X3662609Y1391248D01*
X3660428Y1389348D01*
X3658106Y1387378D01*
X3657965Y1387308D01*
X3657613Y1386956D01*
X3657121Y1386534D01*
X3656417Y1385901D01*
X3655503Y1385197D01*
X3654588Y1384353D01*
X3653533Y1383438D01*
X3652407Y1382453D01*
X3650015Y1380413D01*
X3648889Y1379357D01*
X3647763Y1378372D01*
X3646708Y1377387D01*
X3645793Y1376543D01*
X3644949Y1375769D01*
X3644316Y1375066D01*
X3644175Y1374925D01*
X3643823Y1374503D01*
X3643260Y1373869D01*
X3642557Y1373096D01*
X3641783Y1372111D01*
X3640939Y1371055D01*
X3640094Y1369859D01*
X3639320Y1368663D01*
X3687023D01*
Y1357195D01*
X3622716D01*
Y1357265D01*
Y1357406D01*
Y1357617D01*
Y1357898D01*
Y1358320D01*
X3622786Y1358743D01*
X3622857Y1359868D01*
X3622997Y1361064D01*
X3623208Y1362471D01*
X3623560Y1363949D01*
X3624053Y1365427D01*
Y1365497D01*
X3624193Y1365708D01*
X3624334Y1366060D01*
X3624545Y1366552D01*
X3624756Y1367185D01*
X3625108Y1367889D01*
X3625530Y1368663D01*
X3625952Y1369507D01*
X3626445Y1370492D01*
X3627078Y1371477D01*
X3628415Y1373658D01*
X3630033Y1375980D01*
X3631933Y1378372D01*
X3632003Y1378443D01*
X3632214Y1378654D01*
X3632496Y1379006D01*
X3632918Y1379498D01*
X3633481Y1380131D01*
X3634184Y1380835D01*
X3634958Y1381679D01*
X3635943Y1382594D01*
X3636999Y1383649D01*
X3638124Y1384775D01*
X3639391Y1385971D01*
X3640798Y1387308D01*
X3642346Y1388645D01*
X3643964Y1390052D01*
X3645723Y1391529D01*
X3647552Y1393077D01*
X3647623Y1393148D01*
X3647763Y1393218D01*
X3647974Y1393429D01*
X3648256Y1393640D01*
X3648608Y1393992D01*
X3649030Y1394344D01*
X3650085Y1395258D01*
X3651422Y1396314D01*
X3652829Y1397650D01*
X3654447Y1399058D01*
X3656136Y1400606D01*
X3657965Y1402224D01*
X3659724Y1403912D01*
X3661554Y1405601D01*
X3663242Y1407360D01*
X3664931Y1409048D01*
X3666408Y1410667D01*
X3667815Y1412285D01*
X3668941Y1413762D01*
X3669011Y1413833D01*
X3669152Y1414114D01*
X3669434Y1414536D01*
X3669856Y1415029D01*
X3670278Y1415733D01*
X3670700Y1416506D01*
X3671263Y1417421D01*
X3671755Y1418406D01*
X3672248Y1419461D01*
X3672811Y1420587D01*
X3673725Y1423050D01*
X3674077Y1424316D01*
X3674359Y1425583D01*
X3674499Y1426849D01*
X3674570Y1428116D01*
Y1428186D01*
Y1428467D01*
Y1428819D01*
X3674499Y1429312D01*
X3674429Y1429945D01*
X3674288Y1430648D01*
X3674148Y1431422D01*
X3673937Y1432267D01*
X3673655Y1433181D01*
X3673303Y1434166D01*
X3672881Y1435151D01*
X3672389Y1436136D01*
X3671826Y1437192D01*
X3671122Y1438177D01*
X3670348Y1439162D01*
X3669434Y1440076D01*
X3669363Y1440147D01*
X3669223Y1440287D01*
X3668941Y1440499D01*
X3668519Y1440850D01*
X3668026Y1441202D01*
X3667393Y1441624D01*
X3666690Y1442117D01*
X3665916Y1442539D01*
X3665001Y1443031D01*
X3664016Y1443454D01*
X3662890Y1443876D01*
X3661765Y1444227D01*
X3660498Y1444579D01*
X3659161Y1444790D01*
X3657754Y1444931D01*
X3656277Y1445001D01*
X3655432D01*
X3654870Y1444931D01*
X3654096Y1444861D01*
X3653251Y1444720D01*
X3652337Y1444579D01*
X3651281Y1444368D01*
X3650226Y1444087D01*
X3649100Y1443735D01*
X3647974Y1443313D01*
X3646778Y1442820D01*
X3645653Y1442187D01*
X3644527Y1441484D01*
X3643401Y1440710D01*
X3642416Y1439795D01*
X3642346Y1439725D01*
X3642205Y1439584D01*
X3641924Y1439232D01*
X3641642Y1438880D01*
X3641220Y1438317D01*
X3640798Y1437684D01*
X3640305Y1436910D01*
X3639883Y1436066D01*
X3639391Y1435151D01*
X3638898Y1434026D01*
X3638476Y1432900D01*
X3638054Y1431633D01*
X3637773Y1430226D01*
X3637491Y1428749D01*
X3637350Y1427201D01*
X3637280Y1425512D01*
X3624967Y1426779D01*
Y1426849D01*
Y1426919D01*
X3625038Y1427130D01*
Y1427412D01*
X3625108Y1428116D01*
X3625319Y1429030D01*
X3625530Y1430156D01*
X3625812Y1431493D01*
X3626163Y1432970D01*
X3626586Y1434518D01*
X3627148Y1436207D01*
X3627782Y1437895D01*
X3628556Y1439654D01*
X3629470Y1441413D01*
X3630455Y1443102D01*
X3631651Y1444720D01*
X3632918Y1446268D01*
X3634395Y1447675D01*
X3634466Y1447745D01*
X3634747Y1447956D01*
X3635240Y1448379D01*
X3635873Y1448801D01*
X3636717Y1449364D01*
X3637702Y1449997D01*
X3638898Y1450630D01*
X3640235Y1451334D01*
X3641783Y1451967D01*
X3643401Y1452600D01*
X3645230Y1453233D01*
X3647200Y1453796D01*
X3649311Y1454289D01*
X3651563Y1454640D01*
X3653955Y1454852D01*
X3656488Y1454922D01*
X3657121D01*
X3657825Y1454852D01*
D02*
G37*
G36*
X3576280Y1454500D02*
X3577405D01*
X3578672Y1454429D01*
X3580009Y1454359D01*
X3581556Y1454218D01*
X3583104Y1454078D01*
X3584723Y1453937D01*
X3588029Y1453444D01*
X3589577Y1453163D01*
X3591125Y1452811D01*
X3592603Y1452389D01*
X3593939Y1451897D01*
X3594010D01*
X3594221Y1451756D01*
X3594573Y1451615D01*
X3595065Y1451404D01*
X3595628Y1451123D01*
X3596261Y1450700D01*
X3597035Y1450278D01*
X3597809Y1449786D01*
X3598653Y1449153D01*
X3599568Y1448519D01*
X3600483Y1447745D01*
X3601397Y1446901D01*
X3602242Y1445916D01*
X3603156Y1444931D01*
X3604001Y1443805D01*
X3604775Y1442609D01*
X3604845Y1442539D01*
X3604986Y1442328D01*
X3605126Y1441976D01*
X3605408Y1441484D01*
X3605689Y1440850D01*
X3606041Y1440076D01*
X3606463Y1439232D01*
X3606815Y1438317D01*
X3607167Y1437262D01*
X3607589Y1436136D01*
X3607941Y1434940D01*
X3608222Y1433674D01*
X3608504Y1432337D01*
X3608715Y1430930D01*
X3608785Y1429452D01*
X3608855Y1427975D01*
Y1427834D01*
Y1427553D01*
X3608785Y1426990D01*
Y1426216D01*
X3608644Y1425372D01*
X3608504Y1424316D01*
X3608293Y1423190D01*
X3608011Y1421924D01*
X3607659Y1420587D01*
X3607237Y1419180D01*
X3606674Y1417703D01*
X3606041Y1416225D01*
X3605267Y1414747D01*
X3604352Y1413340D01*
X3603297Y1411863D01*
X3602101Y1410526D01*
X3602031Y1410456D01*
X3601820Y1410245D01*
X3601397Y1409893D01*
X3600835Y1409400D01*
X3600131Y1408837D01*
X3599216Y1408204D01*
X3598231Y1407501D01*
X3597035Y1406727D01*
X3595628Y1405953D01*
X3594151Y1405179D01*
X3592392Y1404475D01*
X3590562Y1403701D01*
X3588522Y1403068D01*
X3586341Y1402435D01*
X3583949Y1401942D01*
X3581416Y1401520D01*
X3581486D01*
X3581627Y1401379D01*
X3581908Y1401309D01*
X3582260Y1401098D01*
X3582682Y1400887D01*
X3583175Y1400606D01*
X3584300Y1399972D01*
X3585567Y1399269D01*
X3586833Y1398424D01*
X3588029Y1397580D01*
X3589155Y1396665D01*
X3589225Y1396595D01*
X3589437Y1396454D01*
X3589718Y1396103D01*
X3590140Y1395751D01*
X3590633Y1395188D01*
X3591196Y1394625D01*
X3591899Y1393922D01*
X3592603Y1393077D01*
X3593377Y1392163D01*
X3594221Y1391178D01*
X3595136Y1390122D01*
X3596050Y1388996D01*
X3596965Y1387730D01*
X3597950Y1386464D01*
X3599850Y1383649D01*
X3616665Y1357195D01*
X3600553D01*
X3587678Y1377458D01*
X3587607Y1377528D01*
X3587396Y1377810D01*
X3587115Y1378302D01*
X3586763Y1378865D01*
X3586270Y1379639D01*
X3585708Y1380483D01*
X3585074Y1381398D01*
X3584441Y1382383D01*
X3582964Y1384564D01*
X3581416Y1386815D01*
X3579868Y1388926D01*
X3579094Y1389911D01*
X3578390Y1390826D01*
X3578320Y1390896D01*
X3578250Y1391037D01*
X3578039Y1391248D01*
X3577757Y1391600D01*
X3577054Y1392444D01*
X3576209Y1393429D01*
X3575154Y1394484D01*
X3574099Y1395610D01*
X3572973Y1396595D01*
X3571847Y1397369D01*
X3571706Y1397439D01*
X3571355Y1397650D01*
X3570792Y1398002D01*
X3570018Y1398354D01*
X3569173Y1398776D01*
X3568188Y1399269D01*
X3567133Y1399621D01*
X3566007Y1399972D01*
X3565937D01*
X3565585Y1400043D01*
X3565022Y1400113D01*
X3564319Y1400254D01*
X3563334Y1400324D01*
X3562067Y1400394D01*
X3560590Y1400465D01*
X3543915D01*
Y1357195D01*
X3531039D01*
Y1454570D01*
X3575435D01*
X3576280Y1454500D01*
D02*
G37*
G36*
X3847017Y1330177D02*
X3767794D01*
Y1338831D01*
X3847017D01*
Y1330177D01*
D02*
G37*
G36*
X1922234Y1360732D02*
X1922938D01*
X1923782Y1360591D01*
X1924697Y1360521D01*
X1925682Y1360380D01*
X1926808Y1360169D01*
X1927933Y1359958D01*
X1930396Y1359324D01*
X1931733Y1358973D01*
X1932999Y1358480D01*
X1934266Y1357988D01*
X1935532Y1357354D01*
X1935602Y1357284D01*
X1935814Y1357214D01*
X1936165Y1357003D01*
X1936658Y1356721D01*
X1937221Y1356369D01*
X1937854Y1355947D01*
X1938557Y1355455D01*
X1939331Y1354892D01*
X1941020Y1353555D01*
X1942709Y1351937D01*
X1944327Y1350108D01*
X1945101Y1349052D01*
X1945804Y1347997D01*
X1945875Y1347926D01*
X1945945Y1347715D01*
X1946156Y1347434D01*
X1946367Y1346941D01*
X1946649Y1346449D01*
X1946930Y1345745D01*
X1947282Y1345042D01*
X1947634Y1344197D01*
X1947915Y1343283D01*
X1948267Y1342368D01*
X1948830Y1340257D01*
X1949252Y1337936D01*
X1949322Y1336740D01*
X1949393Y1335473D01*
Y1335403D01*
Y1335192D01*
Y1334840D01*
X1949322Y1334418D01*
Y1333855D01*
X1949182Y1333222D01*
X1949111Y1332448D01*
X1948970Y1331674D01*
X1948548Y1329844D01*
X1947915Y1327945D01*
X1947563Y1326960D01*
X1947071Y1325904D01*
X1946578Y1324919D01*
X1945945Y1323934D01*
X1945875Y1323864D01*
X1945804Y1323723D01*
X1945593Y1323442D01*
X1945312Y1323090D01*
X1944960Y1322668D01*
X1944538Y1322175D01*
X1944045Y1321613D01*
X1943412Y1320979D01*
X1942779Y1320346D01*
X1942005Y1319713D01*
X1941231Y1319009D01*
X1940316Y1318306D01*
X1939331Y1317672D01*
X1938276Y1316969D01*
X1937150Y1316336D01*
X1935954Y1315773D01*
X1936025D01*
X1936306Y1315702D01*
X1936799Y1315562D01*
X1937361Y1315351D01*
X1938135Y1315140D01*
X1938980Y1314788D01*
X1939894Y1314436D01*
X1940879Y1313944D01*
X1941935Y1313451D01*
X1943060Y1312818D01*
X1944186Y1312185D01*
X1945312Y1311411D01*
X1946367Y1310566D01*
X1947423Y1309652D01*
X1948478Y1308596D01*
X1949393Y1307471D01*
X1949463Y1307400D01*
X1949604Y1307189D01*
X1949815Y1306837D01*
X1950167Y1306345D01*
X1950518Y1305712D01*
X1950940Y1305008D01*
X1951363Y1304164D01*
X1951785Y1303179D01*
X1952207Y1302053D01*
X1952699Y1300857D01*
X1953051Y1299590D01*
X1953403Y1298183D01*
X1953755Y1296706D01*
X1953966Y1295158D01*
X1954107Y1293540D01*
X1954177Y1291781D01*
Y1291640D01*
Y1291218D01*
X1954107Y1290514D01*
X1954036Y1289670D01*
X1953896Y1288544D01*
X1953684Y1287278D01*
X1953403Y1285871D01*
X1952981Y1284323D01*
X1952488Y1282634D01*
X1951925Y1280946D01*
X1951152Y1279116D01*
X1950237Y1277287D01*
X1949182Y1275458D01*
X1947915Y1273628D01*
X1946438Y1271869D01*
X1944819Y1270181D01*
X1944679Y1270110D01*
X1944397Y1269829D01*
X1943905Y1269337D01*
X1943131Y1268774D01*
X1942216Y1268140D01*
X1941161Y1267367D01*
X1939824Y1266593D01*
X1938417Y1265748D01*
X1936799Y1264904D01*
X1934969Y1264130D01*
X1933070Y1263356D01*
X1930959Y1262723D01*
X1928778Y1262160D01*
X1926386Y1261668D01*
X1923923Y1261386D01*
X1921320Y1261316D01*
X1920757D01*
X1920053Y1261386D01*
X1919209Y1261456D01*
X1918083Y1261527D01*
X1916817Y1261738D01*
X1915410Y1261949D01*
X1913862Y1262301D01*
X1912244Y1262653D01*
X1910485Y1263145D01*
X1908726Y1263778D01*
X1906896Y1264552D01*
X1905137Y1265397D01*
X1903378Y1266382D01*
X1901620Y1267578D01*
X1900001Y1268914D01*
X1899931Y1268985D01*
X1899649Y1269266D01*
X1899227Y1269688D01*
X1898664Y1270322D01*
X1898031Y1271096D01*
X1897257Y1272010D01*
X1896483Y1273066D01*
X1895639Y1274262D01*
X1894795Y1275598D01*
X1893950Y1277146D01*
X1893177Y1278765D01*
X1892403Y1280523D01*
X1891769Y1282423D01*
X1891136Y1284393D01*
X1890714Y1286504D01*
X1890433Y1288755D01*
X1902393Y1290374D01*
Y1290233D01*
X1902464Y1289951D01*
X1902605Y1289389D01*
X1902816Y1288685D01*
X1903027Y1287841D01*
X1903308Y1286926D01*
X1903660Y1285871D01*
X1904012Y1284745D01*
X1904997Y1282282D01*
X1906193Y1279890D01*
X1906896Y1278694D01*
X1907670Y1277568D01*
X1908444Y1276583D01*
X1909359Y1275669D01*
X1909429Y1275598D01*
X1909570Y1275458D01*
X1909851Y1275247D01*
X1910274Y1274965D01*
X1910696Y1274613D01*
X1911329Y1274262D01*
X1911962Y1273839D01*
X1912736Y1273488D01*
X1913580Y1273066D01*
X1914495Y1272643D01*
X1915480Y1272292D01*
X1916535Y1271940D01*
X1917661Y1271658D01*
X1918857Y1271447D01*
X1920053Y1271307D01*
X1921390Y1271236D01*
X1921742D01*
X1922234Y1271307D01*
X1922797D01*
X1923571Y1271447D01*
X1924416Y1271518D01*
X1925330Y1271729D01*
X1926386Y1271940D01*
X1927441Y1272292D01*
X1928637Y1272643D01*
X1929833Y1273136D01*
X1931029Y1273699D01*
X1932225Y1274402D01*
X1933421Y1275176D01*
X1934547Y1276021D01*
X1935673Y1277076D01*
X1935743Y1277146D01*
X1935954Y1277357D01*
X1936236Y1277639D01*
X1936587Y1278131D01*
X1937010Y1278694D01*
X1937502Y1279398D01*
X1938065Y1280172D01*
X1938628Y1281086D01*
X1939120Y1282071D01*
X1939683Y1283197D01*
X1940176Y1284323D01*
X1940598Y1285660D01*
X1940950Y1286996D01*
X1941231Y1288404D01*
X1941442Y1289951D01*
X1941512Y1291499D01*
Y1291570D01*
Y1291851D01*
Y1292273D01*
X1941442Y1292906D01*
X1941372Y1293540D01*
X1941231Y1294384D01*
X1941090Y1295299D01*
X1940809Y1296284D01*
X1940527Y1297339D01*
X1940176Y1298465D01*
X1939754Y1299590D01*
X1939261Y1300716D01*
X1938628Y1301842D01*
X1937854Y1302968D01*
X1937080Y1304023D01*
X1936095Y1305078D01*
X1936025Y1305149D01*
X1935884Y1305289D01*
X1935532Y1305571D01*
X1935110Y1305923D01*
X1934617Y1306345D01*
X1933984Y1306767D01*
X1933210Y1307260D01*
X1932366Y1307752D01*
X1931451Y1308245D01*
X1930396Y1308737D01*
X1929270Y1309159D01*
X1928074Y1309581D01*
X1926808Y1309933D01*
X1925401Y1310215D01*
X1923993Y1310355D01*
X1922445Y1310426D01*
X1921812D01*
X1921109Y1310355D01*
X1920124Y1310285D01*
X1918857Y1310144D01*
X1917450Y1309863D01*
X1915832Y1309581D01*
X1914003Y1309159D01*
X1915339Y1319643D01*
X1915550D01*
X1915761Y1319572D01*
X1916043D01*
X1916676Y1319502D01*
X1918013D01*
X1918505Y1319572D01*
X1919209Y1319643D01*
X1919983Y1319713D01*
X1920827Y1319854D01*
X1921812Y1319994D01*
X1922868Y1320205D01*
X1923923Y1320487D01*
X1926245Y1321190D01*
X1927441Y1321613D01*
X1928637Y1322175D01*
X1929833Y1322738D01*
X1930959Y1323442D01*
X1931029Y1323512D01*
X1931240Y1323653D01*
X1931522Y1323864D01*
X1931944Y1324216D01*
X1932366Y1324638D01*
X1932929Y1325130D01*
X1933421Y1325764D01*
X1934055Y1326467D01*
X1934617Y1327312D01*
X1935180Y1328226D01*
X1935673Y1329211D01*
X1936095Y1330337D01*
X1936517Y1331533D01*
X1936799Y1332870D01*
X1937010Y1334277D01*
X1937080Y1335755D01*
Y1335825D01*
Y1336036D01*
Y1336388D01*
X1937010Y1336880D01*
X1936939Y1337373D01*
X1936869Y1338076D01*
X1936728Y1338780D01*
X1936517Y1339554D01*
X1935954Y1341242D01*
X1935602Y1342157D01*
X1935180Y1343072D01*
X1934688Y1343986D01*
X1934055Y1344901D01*
X1933351Y1345745D01*
X1932577Y1346590D01*
X1932507Y1346660D01*
X1932366Y1346801D01*
X1932155Y1347012D01*
X1931803Y1347293D01*
X1931311Y1347575D01*
X1930818Y1347997D01*
X1930185Y1348349D01*
X1929481Y1348771D01*
X1928707Y1349193D01*
X1927863Y1349545D01*
X1926878Y1349967D01*
X1925893Y1350248D01*
X1924767Y1350530D01*
X1923642Y1350741D01*
X1922375Y1350881D01*
X1921109Y1350952D01*
X1920405D01*
X1919983Y1350881D01*
X1919350Y1350811D01*
X1918646Y1350741D01*
X1917872Y1350600D01*
X1917028Y1350389D01*
X1915199Y1349896D01*
X1914284Y1349545D01*
X1913299Y1349052D01*
X1912314Y1348560D01*
X1911329Y1347997D01*
X1910414Y1347293D01*
X1909500Y1346519D01*
X1909429Y1346449D01*
X1909289Y1346308D01*
X1909077Y1346027D01*
X1908726Y1345675D01*
X1908374Y1345253D01*
X1907952Y1344690D01*
X1907530Y1343986D01*
X1907037Y1343283D01*
X1906545Y1342368D01*
X1906052Y1341383D01*
X1905489Y1340328D01*
X1905067Y1339132D01*
X1904575Y1337865D01*
X1904223Y1336528D01*
X1903871Y1335051D01*
X1903590Y1333433D01*
X1891629Y1335543D01*
Y1335614D01*
Y1335684D01*
X1891769Y1336106D01*
X1891910Y1336669D01*
X1892121Y1337513D01*
X1892403Y1338569D01*
X1892754Y1339695D01*
X1893177Y1340961D01*
X1893669Y1342368D01*
X1894302Y1343846D01*
X1895006Y1345394D01*
X1895850Y1346941D01*
X1896765Y1348489D01*
X1897750Y1350037D01*
X1898876Y1351515D01*
X1900142Y1352922D01*
X1901549Y1354188D01*
X1901620Y1354259D01*
X1901901Y1354470D01*
X1902323Y1354822D01*
X1902956Y1355244D01*
X1903730Y1355736D01*
X1904645Y1356299D01*
X1905700Y1356862D01*
X1906896Y1357495D01*
X1908233Y1358128D01*
X1909711Y1358691D01*
X1911259Y1359254D01*
X1912947Y1359747D01*
X1914776Y1360169D01*
X1916746Y1360521D01*
X1918787Y1360732D01*
X1920898Y1360802D01*
X1921672D01*
X1922234Y1360732D01*
D02*
G37*
G36*
X1766180Y1320909D02*
X1808888Y1263075D01*
X1791861D01*
X1757175Y1312185D01*
X1741274Y1296847D01*
Y1263075D01*
X1728398D01*
Y1360450D01*
X1741274D01*
Y1312114D01*
X1789610Y1360450D01*
X1807129D01*
X1766180Y1320909D01*
D02*
G37*
G36*
X1617795Y1263075D02*
X1605834D01*
Y1339202D01*
X1605764Y1339132D01*
X1605623Y1338991D01*
X1605412Y1338780D01*
X1605061Y1338498D01*
X1604638Y1338147D01*
X1604076Y1337654D01*
X1603442Y1337162D01*
X1602809Y1336599D01*
X1601965Y1336036D01*
X1601120Y1335332D01*
X1600206Y1334699D01*
X1599221Y1333925D01*
X1598095Y1333222D01*
X1596969Y1332448D01*
X1594436Y1330900D01*
X1594366Y1330829D01*
X1594155Y1330689D01*
X1593733Y1330478D01*
X1593240Y1330267D01*
X1592678Y1329915D01*
X1591974Y1329493D01*
X1591130Y1329070D01*
X1590285Y1328578D01*
X1588315Y1327593D01*
X1586205Y1326608D01*
X1584024Y1325623D01*
X1581913Y1324779D01*
Y1336317D01*
X1582053Y1336388D01*
X1582335Y1336528D01*
X1582898Y1336810D01*
X1583601Y1337162D01*
X1584446Y1337584D01*
X1585501Y1338147D01*
X1586627Y1338780D01*
X1587823Y1339483D01*
X1589160Y1340328D01*
X1590567Y1341172D01*
X1593522Y1343142D01*
X1596547Y1345323D01*
X1599432Y1347715D01*
X1599502Y1347786D01*
X1599784Y1347997D01*
X1600135Y1348349D01*
X1600628Y1348841D01*
X1601261Y1349474D01*
X1601965Y1350178D01*
X1602739Y1351022D01*
X1603583Y1351866D01*
X1604427Y1352851D01*
X1605342Y1353907D01*
X1607101Y1356088D01*
X1608719Y1358410D01*
X1609423Y1359606D01*
X1610056Y1360802D01*
X1617795D01*
Y1263075D01*
D02*
G37*
G36*
X1524852Y1360380D02*
X1525978D01*
X1527245Y1360309D01*
X1528581Y1360239D01*
X1530129Y1360098D01*
X1531677Y1359958D01*
X1533295Y1359817D01*
X1536602Y1359324D01*
X1538150Y1359043D01*
X1539698Y1358691D01*
X1541175Y1358269D01*
X1542512Y1357777D01*
X1542583D01*
X1542794Y1357636D01*
X1543146Y1357495D01*
X1543638Y1357284D01*
X1544201Y1357003D01*
X1544834Y1356580D01*
X1545608Y1356158D01*
X1546382Y1355666D01*
X1547226Y1355033D01*
X1548141Y1354399D01*
X1549056Y1353625D01*
X1549970Y1352781D01*
X1550815Y1351796D01*
X1551729Y1350811D01*
X1552573Y1349685D01*
X1553347Y1348489D01*
X1553418Y1348419D01*
X1553558Y1348208D01*
X1553699Y1347856D01*
X1553981Y1347364D01*
X1554262Y1346730D01*
X1554614Y1345956D01*
X1555036Y1345112D01*
X1555388Y1344197D01*
X1555740Y1343142D01*
X1556162Y1342016D01*
X1556514Y1340820D01*
X1556795Y1339554D01*
X1557076Y1338217D01*
X1557287Y1336810D01*
X1557358Y1335332D01*
X1557428Y1333855D01*
Y1333714D01*
Y1333433D01*
X1557358Y1332870D01*
Y1332096D01*
X1557217Y1331252D01*
X1557076Y1330196D01*
X1556865Y1329070D01*
X1556584Y1327804D01*
X1556232Y1326467D01*
X1555810Y1325060D01*
X1555247Y1323583D01*
X1554614Y1322105D01*
X1553840Y1320628D01*
X1552925Y1319220D01*
X1551870Y1317743D01*
X1550674Y1316406D01*
X1550603Y1316336D01*
X1550392Y1316125D01*
X1549970Y1315773D01*
X1549407Y1315280D01*
X1548704Y1314717D01*
X1547789Y1314084D01*
X1546804Y1313381D01*
X1545608Y1312607D01*
X1544201Y1311833D01*
X1542723Y1311059D01*
X1540964Y1310355D01*
X1539135Y1309581D01*
X1537095Y1308948D01*
X1534914Y1308315D01*
X1532521Y1307822D01*
X1529989Y1307400D01*
X1530059D01*
X1530200Y1307260D01*
X1530481Y1307189D01*
X1530833Y1306978D01*
X1531255Y1306767D01*
X1531748Y1306486D01*
X1532873Y1305852D01*
X1534140Y1305149D01*
X1535406Y1304304D01*
X1536602Y1303460D01*
X1537728Y1302546D01*
X1537798Y1302475D01*
X1538009Y1302334D01*
X1538291Y1301983D01*
X1538713Y1301631D01*
X1539205Y1301068D01*
X1539768Y1300505D01*
X1540472Y1299802D01*
X1541175Y1298957D01*
X1541949Y1298043D01*
X1542794Y1297058D01*
X1543708Y1296002D01*
X1544623Y1294877D01*
X1545538Y1293610D01*
X1546523Y1292344D01*
X1548422Y1289529D01*
X1565238Y1263075D01*
X1549126D01*
X1536250Y1283338D01*
X1536180Y1283408D01*
X1535969Y1283690D01*
X1535688Y1284182D01*
X1535336Y1284745D01*
X1534843Y1285519D01*
X1534280Y1286363D01*
X1533647Y1287278D01*
X1533014Y1288263D01*
X1531536Y1290444D01*
X1529989Y1292695D01*
X1528441Y1294806D01*
X1527667Y1295791D01*
X1526963Y1296706D01*
X1526893Y1296776D01*
X1526822Y1296917D01*
X1526611Y1297128D01*
X1526330Y1297480D01*
X1525626Y1298324D01*
X1524782Y1299309D01*
X1523727Y1300364D01*
X1522671Y1301490D01*
X1521546Y1302475D01*
X1520420Y1303249D01*
X1520279Y1303319D01*
X1519927Y1303531D01*
X1519364Y1303882D01*
X1518591Y1304234D01*
X1517746Y1304656D01*
X1516761Y1305149D01*
X1515706Y1305501D01*
X1514580Y1305852D01*
X1514510D01*
X1514158Y1305923D01*
X1513595Y1305993D01*
X1512892Y1306134D01*
X1511907Y1306204D01*
X1510640Y1306275D01*
X1509163Y1306345D01*
X1492488D01*
Y1263075D01*
X1479612D01*
Y1360450D01*
X1524008D01*
X1524852Y1360380D01*
D02*
G37*
G36*
X1681469Y1360732D02*
X1682103D01*
X1682947Y1360661D01*
X1683791Y1360521D01*
X1684776Y1360380D01*
X1686887Y1360028D01*
X1689209Y1359465D01*
X1691601Y1358691D01*
X1692727Y1358199D01*
X1693852Y1357636D01*
X1693923D01*
X1694134Y1357495D01*
X1694415Y1357284D01*
X1694837Y1357073D01*
X1695330Y1356721D01*
X1695893Y1356299D01*
X1696596Y1355877D01*
X1697300Y1355314D01*
X1698848Y1354048D01*
X1700466Y1352429D01*
X1702084Y1350600D01*
X1703562Y1348489D01*
X1703632Y1348419D01*
X1703702Y1348208D01*
X1703914Y1347856D01*
X1704195Y1347434D01*
X1704547Y1346871D01*
X1704899Y1346167D01*
X1705321Y1345394D01*
X1705743Y1344479D01*
X1706235Y1343494D01*
X1706728Y1342368D01*
X1707220Y1341172D01*
X1707783Y1339906D01*
X1708276Y1338569D01*
X1708698Y1337162D01*
X1709190Y1335614D01*
X1709613Y1334066D01*
Y1333996D01*
X1709683Y1333644D01*
X1709824Y1333222D01*
X1709964Y1332518D01*
X1710105Y1331674D01*
X1710316Y1330618D01*
X1710527Y1329422D01*
X1710738Y1328015D01*
X1710949Y1326467D01*
X1711160Y1324708D01*
X1711371Y1322809D01*
X1711512Y1320768D01*
X1711653Y1318587D01*
X1711794Y1316195D01*
X1711864Y1313732D01*
Y1311059D01*
Y1310988D01*
Y1310848D01*
Y1310637D01*
Y1310285D01*
Y1309933D01*
Y1309441D01*
X1711794Y1308878D01*
Y1308245D01*
X1711723Y1306767D01*
X1711653Y1305078D01*
X1711583Y1303249D01*
X1711442Y1301209D01*
X1711231Y1299028D01*
X1711020Y1296776D01*
X1710386Y1292203D01*
X1709964Y1289881D01*
X1709472Y1287630D01*
X1708909Y1285449D01*
X1708276Y1283408D01*
X1708205Y1283267D01*
X1708135Y1282916D01*
X1707924Y1282423D01*
X1707643Y1281649D01*
X1707220Y1280805D01*
X1706798Y1279750D01*
X1706235Y1278624D01*
X1705672Y1277428D01*
X1704969Y1276161D01*
X1704125Y1274824D01*
X1703280Y1273488D01*
X1702366Y1272081D01*
X1701310Y1270744D01*
X1700185Y1269477D01*
X1698988Y1268281D01*
X1697722Y1267155D01*
X1697652Y1267085D01*
X1697370Y1266944D01*
X1697018Y1266663D01*
X1696456Y1266241D01*
X1695752Y1265819D01*
X1694978Y1265326D01*
X1693993Y1264834D01*
X1692938Y1264341D01*
X1691671Y1263778D01*
X1690334Y1263286D01*
X1688927Y1262793D01*
X1687379Y1262371D01*
X1685691Y1262019D01*
X1683932Y1261738D01*
X1682103Y1261527D01*
X1680133Y1261456D01*
X1679499D01*
X1678796Y1261527D01*
X1677811Y1261597D01*
X1676615Y1261738D01*
X1675207Y1262019D01*
X1673730Y1262301D01*
X1672041Y1262723D01*
X1670282Y1263215D01*
X1668523Y1263919D01*
X1666694Y1264693D01*
X1664794Y1265678D01*
X1662965Y1266804D01*
X1661206Y1268140D01*
X1659518Y1269688D01*
X1657970Y1271447D01*
Y1271518D01*
X1657899Y1271588D01*
X1657759Y1271799D01*
X1657548Y1272010D01*
X1657337Y1272362D01*
X1657055Y1272784D01*
X1656774Y1273206D01*
X1656492Y1273769D01*
X1656140Y1274402D01*
X1655718Y1275106D01*
X1655367Y1275880D01*
X1654944Y1276724D01*
X1654522Y1277709D01*
X1654100Y1278694D01*
X1653608Y1279820D01*
X1653185Y1280946D01*
X1652763Y1282212D01*
X1652271Y1283549D01*
X1651849Y1284956D01*
X1651426Y1286504D01*
X1651004Y1288052D01*
X1650653Y1289740D01*
X1650230Y1291429D01*
X1649879Y1293329D01*
X1649597Y1295228D01*
X1649316Y1297198D01*
X1649034Y1299309D01*
X1648823Y1301490D01*
X1648612Y1303742D01*
X1648542Y1306063D01*
X1648401Y1308526D01*
Y1311059D01*
Y1311129D01*
Y1311270D01*
Y1311481D01*
Y1311833D01*
Y1312255D01*
Y1312747D01*
X1648471Y1313310D01*
Y1313944D01*
X1648542Y1315351D01*
X1648612Y1317039D01*
X1648683Y1318939D01*
X1648823Y1320979D01*
X1649034Y1323160D01*
X1649245Y1325412D01*
X1649879Y1330056D01*
X1650301Y1332377D01*
X1650793Y1334629D01*
X1651286Y1336810D01*
X1651919Y1338850D01*
X1651989Y1338991D01*
X1652060Y1339343D01*
X1652271Y1339835D01*
X1652552Y1340609D01*
X1652974Y1341454D01*
X1653396Y1342509D01*
X1653959Y1343635D01*
X1654593Y1344831D01*
X1655226Y1346097D01*
X1656070Y1347434D01*
X1656914Y1348841D01*
X1657829Y1350178D01*
X1658884Y1351515D01*
X1660010Y1352781D01*
X1661206Y1353977D01*
X1662473Y1355103D01*
X1662543Y1355173D01*
X1662824Y1355384D01*
X1663176Y1355666D01*
X1663739Y1356018D01*
X1664443Y1356440D01*
X1665287Y1356932D01*
X1666202Y1357425D01*
X1667327Y1357988D01*
X1668523Y1358480D01*
X1669860Y1358973D01*
X1671338Y1359465D01*
X1672886Y1359887D01*
X1674574Y1360309D01*
X1676333Y1360591D01*
X1678163Y1360732D01*
X1680133Y1360802D01*
X1680906D01*
X1681469Y1360732D01*
D02*
G37*
G36*
X1886281Y1236057D02*
X1807058D01*
Y1244711D01*
X1886281D01*
Y1236057D01*
D02*
G37*
G36*
X2719657Y600580D02*
X2690248Y581443D01*
X2690177Y581372D01*
X2689896Y581232D01*
X2689403Y580880D01*
X2688840Y580528D01*
X2688067Y580036D01*
X2687222Y579473D01*
X2686237Y578840D01*
X2685111Y578136D01*
X2683915Y577432D01*
X2682649Y576658D01*
X2681242Y575814D01*
X2679835Y574970D01*
X2676880Y573211D01*
X2673854Y571522D01*
X2673925Y571452D01*
X2674206Y571311D01*
X2674628Y571100D01*
X2675191Y570748D01*
X2675895Y570326D01*
X2676739Y569763D01*
X2677724Y569201D01*
X2678850Y568497D01*
X2680046Y567793D01*
X2681312Y566949D01*
X2682719Y566105D01*
X2684267Y565190D01*
X2685815Y564205D01*
X2687504Y563150D01*
X2690951Y560898D01*
X2719657Y542042D01*
Y527056D01*
X2663512Y565894D01*
X2622282D01*
Y578769D01*
X2663512D01*
X2719657Y616270D01*
Y600580D01*
D02*
G37*
G36*
X2623830Y521709D02*
X2624955Y521639D01*
X2626151Y521498D01*
X2627559Y521287D01*
X2629036Y520935D01*
X2630514Y520442D01*
X2630584D01*
X2630795Y520302D01*
X2631147Y520161D01*
X2631639Y519950D01*
X2632273Y519739D01*
X2632976Y519387D01*
X2633750Y518965D01*
X2634594Y518543D01*
X2635579Y518050D01*
X2636564Y517417D01*
X2638746Y516080D01*
X2641067Y514462D01*
X2643460Y512562D01*
X2643530Y512492D01*
X2643741Y512281D01*
X2644093Y511999D01*
X2644585Y511577D01*
X2645218Y511014D01*
X2645922Y510311D01*
X2646766Y509537D01*
X2647681Y508552D01*
X2648736Y507497D01*
X2649862Y506371D01*
X2651058Y505104D01*
X2652395Y503697D01*
X2653732Y502149D01*
X2655139Y500531D01*
X2656616Y498772D01*
X2658164Y496943D01*
X2658235Y496873D01*
X2658305Y496732D01*
X2658516Y496521D01*
X2658727Y496239D01*
X2659079Y495888D01*
X2659431Y495465D01*
X2660345Y494410D01*
X2661401Y493073D01*
X2662738Y491666D01*
X2664145Y490048D01*
X2665693Y488359D01*
X2667311Y486530D01*
X2668999Y484771D01*
X2670688Y482942D01*
X2672447Y481253D01*
X2674136Y479564D01*
X2675754Y478087D01*
X2677372Y476680D01*
X2678850Y475554D01*
X2678920Y475484D01*
X2679201Y475343D01*
X2679624Y475062D01*
X2680116Y474639D01*
X2680820Y474217D01*
X2681594Y473795D01*
X2682508Y473232D01*
X2683493Y472740D01*
X2684549Y472247D01*
X2685674Y471684D01*
X2688137Y470770D01*
X2689403Y470418D01*
X2690670Y470136D01*
X2691936Y469996D01*
X2693203Y469925D01*
X2693273D01*
X2693554D01*
X2693906D01*
X2694399Y469996D01*
X2695032Y470066D01*
X2695736Y470207D01*
X2696509Y470348D01*
X2697354Y470559D01*
X2698268Y470840D01*
X2699253Y471192D01*
X2700238Y471614D01*
X2701223Y472106D01*
X2702279Y472669D01*
X2703264Y473373D01*
X2704249Y474147D01*
X2705163Y475062D01*
X2705234Y475132D01*
X2705375Y475273D01*
X2705586Y475554D01*
X2705937Y475976D01*
X2706289Y476469D01*
X2706711Y477102D01*
X2707204Y477805D01*
X2707626Y478579D01*
X2708119Y479494D01*
X2708541Y480479D01*
X2708963Y481605D01*
X2709315Y482731D01*
X2709666Y483997D01*
X2709877Y485334D01*
X2710018Y486741D01*
X2710089Y488218D01*
Y489063D01*
X2710018Y489626D01*
X2709948Y490400D01*
X2709807Y491244D01*
X2709666Y492159D01*
X2709455Y493214D01*
X2709174Y494269D01*
X2708822Y495395D01*
X2708400Y496521D01*
X2707907Y497717D01*
X2707274Y498843D01*
X2706571Y499968D01*
X2705797Y501094D01*
X2704882Y502079D01*
X2704812Y502149D01*
X2704671Y502290D01*
X2704319Y502572D01*
X2703967Y502853D01*
X2703405Y503275D01*
X2702771Y503697D01*
X2701997Y504190D01*
X2701153Y504612D01*
X2700238Y505104D01*
X2699113Y505597D01*
X2697987Y506019D01*
X2696721Y506441D01*
X2695313Y506723D01*
X2693836Y507004D01*
X2692288Y507145D01*
X2690599Y507215D01*
X2691866Y519528D01*
X2691936D01*
X2692007D01*
X2692218Y519457D01*
X2692499D01*
X2693203Y519387D01*
X2694117Y519176D01*
X2695243Y518965D01*
X2696580Y518683D01*
X2698057Y518332D01*
X2699605Y517910D01*
X2701294Y517347D01*
X2702982Y516713D01*
X2704741Y515940D01*
X2706500Y515025D01*
X2708189Y514040D01*
X2709807Y512844D01*
X2711355Y511577D01*
X2712762Y510100D01*
X2712833Y510029D01*
X2713044Y509748D01*
X2713466Y509256D01*
X2713888Y508622D01*
X2714451Y507778D01*
X2715084Y506793D01*
X2715717Y505597D01*
X2716421Y504260D01*
X2717054Y502712D01*
X2717687Y501094D01*
X2718320Y499265D01*
X2718883Y497295D01*
X2719376Y495184D01*
X2719728Y492932D01*
X2719939Y490540D01*
X2720009Y488007D01*
Y487374D01*
X2719939Y486671D01*
X2719868Y485686D01*
X2719798Y484490D01*
X2719587Y483153D01*
X2719376Y481605D01*
X2719024Y479987D01*
X2718602Y478228D01*
X2718109Y476469D01*
X2717476Y474569D01*
X2716702Y472740D01*
X2715788Y470910D01*
X2714803Y469151D01*
X2713606Y467463D01*
X2712199Y465845D01*
X2712129Y465774D01*
X2711848Y465493D01*
X2711425Y465071D01*
X2710792Y464578D01*
X2710089Y463945D01*
X2709174Y463241D01*
X2708119Y462467D01*
X2706922Y461694D01*
X2705586Y460990D01*
X2704108Y460216D01*
X2702490Y459512D01*
X2700801Y458879D01*
X2698972Y458387D01*
X2697072Y457965D01*
X2695032Y457683D01*
X2692921Y457613D01*
X2692851D01*
X2692640D01*
X2692358D01*
X2691936D01*
X2691373Y457683D01*
X2690810Y457753D01*
X2690107Y457824D01*
X2689333Y457894D01*
X2687574Y458176D01*
X2685604Y458598D01*
X2683564Y459231D01*
X2681453Y460005D01*
X2681382D01*
X2681171Y460146D01*
X2680890Y460286D01*
X2680468Y460497D01*
X2679975Y460709D01*
X2679342Y461060D01*
X2678639Y461412D01*
X2677865Y461905D01*
X2677020Y462397D01*
X2676106Y462960D01*
X2674065Y464367D01*
X2673010Y465141D01*
X2671884Y465985D01*
X2670758Y466970D01*
X2669562Y467955D01*
X2669492Y468026D01*
X2669281Y468237D01*
X2668929Y468518D01*
X2668437Y469011D01*
X2667803Y469644D01*
X2667029Y470418D01*
X2666115Y471262D01*
X2665059Y472318D01*
X2663934Y473514D01*
X2662667Y474921D01*
X2661260Y476398D01*
X2659712Y478087D01*
X2658094Y479916D01*
X2656335Y481886D01*
X2654435Y484067D01*
X2652465Y486389D01*
X2652395Y486530D01*
X2652043Y486882D01*
X2651621Y487374D01*
X2650988Y488078D01*
X2650284Y488992D01*
X2649440Y489907D01*
X2648525Y490962D01*
X2647540Y492088D01*
X2645500Y494480D01*
X2644445Y495606D01*
X2643460Y496732D01*
X2642475Y497787D01*
X2641630Y498702D01*
X2640856Y499546D01*
X2640153Y500179D01*
X2640012Y500320D01*
X2639590Y500672D01*
X2638957Y501235D01*
X2638183Y501938D01*
X2637198Y502712D01*
X2636142Y503557D01*
X2634946Y504401D01*
X2633750Y505175D01*
Y457472D01*
X2622282D01*
Y521779D01*
X2622352D01*
X2622493D01*
X2622704D01*
X2622985D01*
X2623408D01*
X2623830Y521709D01*
D02*
G37*
G36*
X2182446Y3252217D02*
X2218891Y3201137D01*
X2202920D01*
X2178365Y3235823D01*
X2178295Y3235964D01*
X2178013Y3236316D01*
X2177591Y3236949D01*
X2177099Y3237652D01*
X2176465Y3238567D01*
X2175832Y3239552D01*
X2174355Y3241733D01*
Y3241663D01*
X2174214Y3241522D01*
X2174073Y3241241D01*
X2173862Y3240959D01*
X2173299Y3240045D01*
X2172596Y3239060D01*
X2171822Y3237863D01*
X2171118Y3236738D01*
X2170415Y3235682D01*
X2169781Y3234838D01*
X2145086Y3201137D01*
X2129607D01*
X2167248Y3251583D01*
X2134039Y3298512D01*
X2149448D01*
X2167178Y3273605D01*
X2167248Y3273535D01*
X2167389Y3273254D01*
X2167741Y3272831D01*
X2168093Y3272339D01*
X2168515Y3271706D01*
X2169078Y3270932D01*
X2169641Y3270087D01*
X2170274Y3269243D01*
X2171540Y3267273D01*
X2172807Y3265303D01*
X2174003Y3263403D01*
X2174566Y3262489D01*
X2174988Y3261644D01*
X2175058Y3261715D01*
X2175128Y3261856D01*
X2175340Y3262137D01*
X2175551Y3262559D01*
X2175902Y3262981D01*
X2176254Y3263544D01*
X2176676Y3264248D01*
X2177169Y3264951D01*
X2178295Y3266570D01*
X2179561Y3268399D01*
X2181039Y3270439D01*
X2182657Y3272550D01*
X2202146Y3298512D01*
X2216218D01*
X2182446Y3252217D01*
D02*
G37*
G36*
X2270393Y3201137D02*
X2258432D01*
Y3277264D01*
X2258362Y3277194D01*
X2258221Y3277053D01*
X2258010Y3276842D01*
X2257658Y3276560D01*
X2257236Y3276209D01*
X2256673Y3275716D01*
X2256040Y3275224D01*
X2255407Y3274661D01*
X2254563Y3274098D01*
X2253718Y3273394D01*
X2252804Y3272761D01*
X2251819Y3271987D01*
X2250693Y3271284D01*
X2249567Y3270510D01*
X2247034Y3268962D01*
X2246964Y3268891D01*
X2246753Y3268751D01*
X2246331Y3268540D01*
X2245838Y3268328D01*
X2245275Y3267977D01*
X2244572Y3267555D01*
X2243728Y3267132D01*
X2242883Y3266640D01*
X2240913Y3265655D01*
X2238802Y3264670D01*
X2236621Y3263685D01*
X2234511Y3262841D01*
Y3274379D01*
X2234651Y3274450D01*
X2234933Y3274590D01*
X2235496Y3274872D01*
X2236199Y3275224D01*
X2237044Y3275646D01*
X2238099Y3276209D01*
X2239225Y3276842D01*
X2240421Y3277545D01*
X2241758Y3278390D01*
X2243165Y3279234D01*
X2246120Y3281204D01*
X2249145Y3283385D01*
X2252030Y3285777D01*
X2252100Y3285848D01*
X2252382Y3286059D01*
X2252733Y3286410D01*
X2253226Y3286903D01*
X2253859Y3287536D01*
X2254563Y3288240D01*
X2255337Y3289084D01*
X2256181Y3289928D01*
X2257025Y3290913D01*
X2257940Y3291969D01*
X2259699Y3294150D01*
X2261317Y3296472D01*
X2262021Y3297668D01*
X2262654Y3298864D01*
X2270393D01*
Y3201137D01*
D02*
G37*
G36*
X673555Y1345531D02*
Y1345461D01*
Y1345391D01*
Y1345179D01*
Y1344898D01*
Y1344546D01*
Y1344124D01*
X673485Y1343139D01*
Y1341873D01*
X673415Y1340465D01*
X673274Y1338847D01*
X673133Y1337159D01*
X672922Y1335329D01*
X672711Y1333430D01*
X672148Y1329560D01*
X671726Y1327590D01*
X671304Y1325761D01*
X670741Y1323931D01*
X670178Y1322243D01*
X670108Y1322172D01*
X670038Y1321891D01*
X669826Y1321398D01*
X669545Y1320836D01*
X669123Y1320062D01*
X668701Y1319217D01*
X668138Y1318303D01*
X667434Y1317247D01*
X666660Y1316122D01*
X665816Y1314996D01*
X664831Y1313870D01*
X663705Y1312674D01*
X662509Y1311478D01*
X661243Y1310352D01*
X659765Y1309226D01*
X658217Y1308171D01*
X658147Y1308101D01*
X657795Y1307960D01*
X657303Y1307679D01*
X656670Y1307327D01*
X655755Y1306905D01*
X654770Y1306483D01*
X653503Y1305990D01*
X652167Y1305498D01*
X650548Y1305005D01*
X648860Y1304513D01*
X647030Y1304090D01*
X644990Y1303668D01*
X642809Y1303316D01*
X640487Y1303035D01*
X638095Y1302894D01*
X635492Y1302824D01*
X634155D01*
X633240Y1302894D01*
X632044Y1302965D01*
X630707Y1303105D01*
X629160Y1303246D01*
X627541Y1303387D01*
X625782Y1303668D01*
X623953Y1303950D01*
X622124Y1304372D01*
X620224Y1304794D01*
X618395Y1305357D01*
X616495Y1305990D01*
X614736Y1306694D01*
X613048Y1307538D01*
X612977Y1307608D01*
X612696Y1307749D01*
X612203Y1308030D01*
X611640Y1308382D01*
X610937Y1308875D01*
X610093Y1309508D01*
X609248Y1310212D01*
X608263Y1310985D01*
X607278Y1311900D01*
X606223Y1312955D01*
X605167Y1314011D01*
X604182Y1315277D01*
X603197Y1316544D01*
X602283Y1318021D01*
X601438Y1319499D01*
X600665Y1321117D01*
X600594Y1321258D01*
X600524Y1321539D01*
X600313Y1322032D01*
X600102Y1322735D01*
X599820Y1323650D01*
X599539Y1324776D01*
X599187Y1326042D01*
X598835Y1327520D01*
X598483Y1329208D01*
X598132Y1331037D01*
X597850Y1333007D01*
X597569Y1335189D01*
X597358Y1337510D01*
X597147Y1340043D01*
X597076Y1342717D01*
X597006Y1345531D01*
Y1401818D01*
X609881D01*
Y1345602D01*
Y1345461D01*
Y1345039D01*
Y1344405D01*
X609952Y1343561D01*
Y1342506D01*
X610022Y1341310D01*
X610093Y1339973D01*
X610163Y1338495D01*
X610304Y1337018D01*
X610444Y1335470D01*
X610866Y1332374D01*
X611148Y1330897D01*
X611429Y1329419D01*
X611781Y1328082D01*
X612203Y1326886D01*
Y1326816D01*
X612344Y1326605D01*
X612485Y1326323D01*
X612696Y1325901D01*
X612907Y1325409D01*
X613259Y1324846D01*
X614103Y1323509D01*
X615229Y1322032D01*
X615862Y1321258D01*
X616636Y1320484D01*
X617410Y1319710D01*
X618324Y1319006D01*
X619239Y1318303D01*
X620294Y1317669D01*
X620365D01*
X620576Y1317529D01*
X620857Y1317388D01*
X621350Y1317177D01*
X621913Y1316896D01*
X622546Y1316614D01*
X623320Y1316333D01*
X624234Y1316051D01*
X625219Y1315770D01*
X626275Y1315488D01*
X627401Y1315207D01*
X628667Y1314925D01*
X630004Y1314714D01*
X631411Y1314574D01*
X632818Y1314503D01*
X634366Y1314433D01*
X634999D01*
X635703Y1314503D01*
X636688D01*
X637884Y1314644D01*
X639150Y1314785D01*
X640628Y1314996D01*
X642246Y1315207D01*
X643864Y1315559D01*
X645553Y1315981D01*
X647242Y1316544D01*
X648930Y1317107D01*
X650548Y1317881D01*
X652026Y1318725D01*
X653433Y1319710D01*
X654629Y1320836D01*
X654699Y1320906D01*
X654911Y1321117D01*
X655192Y1321539D01*
X655544Y1322102D01*
X656036Y1322876D01*
X656529Y1323861D01*
X657092Y1324987D01*
X657655Y1326394D01*
X658217Y1327942D01*
X658780Y1329701D01*
X659273Y1331741D01*
X659765Y1333993D01*
X660117Y1336525D01*
X660398Y1339269D01*
X660610Y1342295D01*
X660680Y1345602D01*
Y1401818D01*
X673555D01*
Y1345531D01*
D02*
G37*
G36*
X723791Y1402099D02*
X724776Y1402029D01*
X725972Y1401958D01*
X727309Y1401747D01*
X728857Y1401536D01*
X730475Y1401184D01*
X732234Y1400762D01*
X733993Y1400270D01*
X735893Y1399637D01*
X737722Y1398863D01*
X739551Y1397948D01*
X741310Y1396963D01*
X742999Y1395767D01*
X744617Y1394360D01*
X744687Y1394289D01*
X744969Y1394008D01*
X745391Y1393586D01*
X745883Y1392953D01*
X746517Y1392249D01*
X747220Y1391334D01*
X747994Y1390279D01*
X748768Y1389083D01*
X749472Y1387746D01*
X750246Y1386269D01*
X750949Y1384650D01*
X751582Y1382962D01*
X752075Y1381132D01*
X752497Y1379233D01*
X752779Y1377192D01*
X752849Y1375082D01*
Y1375011D01*
Y1374800D01*
Y1374519D01*
Y1374097D01*
X752779Y1373534D01*
X752708Y1372971D01*
X752638Y1372267D01*
X752567Y1371493D01*
X752286Y1369734D01*
X751864Y1367764D01*
X751231Y1365724D01*
X750457Y1363613D01*
Y1363543D01*
X750316Y1363332D01*
X750175Y1363050D01*
X749964Y1362628D01*
X749753Y1362136D01*
X749401Y1361502D01*
X749050Y1360799D01*
X748557Y1360025D01*
X748065Y1359181D01*
X747502Y1358266D01*
X746095Y1356226D01*
X745321Y1355170D01*
X744476Y1354045D01*
X743491Y1352919D01*
X742506Y1351723D01*
X742436Y1351652D01*
X742225Y1351441D01*
X741943Y1351089D01*
X741451Y1350597D01*
X740818Y1349964D01*
X740044Y1349190D01*
X739199Y1348275D01*
X738144Y1347220D01*
X736948Y1346094D01*
X735541Y1344828D01*
X734063Y1343420D01*
X732375Y1341873D01*
X730545Y1340254D01*
X728575Y1338495D01*
X726394Y1336596D01*
X724072Y1334626D01*
X723932Y1334555D01*
X723580Y1334204D01*
X723087Y1333781D01*
X722384Y1333148D01*
X721469Y1332445D01*
X720555Y1331600D01*
X719499Y1330686D01*
X718373Y1329701D01*
X715981Y1327660D01*
X714856Y1326605D01*
X713730Y1325620D01*
X712674Y1324635D01*
X711760Y1323791D01*
X710916Y1323017D01*
X710282Y1322313D01*
X710142Y1322172D01*
X709790Y1321750D01*
X709227Y1321117D01*
X708523Y1320343D01*
X707749Y1319358D01*
X706905Y1318303D01*
X706061Y1317107D01*
X705287Y1315910D01*
X752990D01*
Y1304442D01*
X688682D01*
Y1304513D01*
Y1304653D01*
Y1304864D01*
Y1305146D01*
Y1305568D01*
X688753Y1305990D01*
X688823Y1307116D01*
X688964Y1308312D01*
X689175Y1309719D01*
X689527Y1311197D01*
X690019Y1312674D01*
Y1312744D01*
X690160Y1312955D01*
X690301Y1313307D01*
X690512Y1313800D01*
X690723Y1314433D01*
X691075Y1315137D01*
X691497Y1315910D01*
X691919Y1316755D01*
X692411Y1317740D01*
X693045Y1318725D01*
X694381Y1320906D01*
X696000Y1323228D01*
X697899Y1325620D01*
X697970Y1325690D01*
X698181Y1325901D01*
X698462Y1326253D01*
X698884Y1326746D01*
X699447Y1327379D01*
X700151Y1328082D01*
X700925Y1328927D01*
X701910Y1329841D01*
X702965Y1330897D01*
X704091Y1332022D01*
X705357Y1333219D01*
X706764Y1334555D01*
X708312Y1335892D01*
X709931Y1337299D01*
X711689Y1338777D01*
X713519Y1340325D01*
X713589Y1340395D01*
X713730Y1340465D01*
X713941Y1340677D01*
X714222Y1340888D01*
X714574Y1341239D01*
X714996Y1341591D01*
X716052Y1342506D01*
X717388Y1343561D01*
X718796Y1344898D01*
X720414Y1346305D01*
X722102Y1347853D01*
X723932Y1349471D01*
X725691Y1351160D01*
X727520Y1352848D01*
X729209Y1354607D01*
X730897Y1356296D01*
X732375Y1357914D01*
X733782Y1359532D01*
X734908Y1361010D01*
X734978Y1361080D01*
X735119Y1361362D01*
X735400Y1361784D01*
X735822Y1362276D01*
X736244Y1362980D01*
X736667Y1363754D01*
X737229Y1364669D01*
X737722Y1365654D01*
X738214Y1366709D01*
X738777Y1367835D01*
X739692Y1370297D01*
X740044Y1371564D01*
X740325Y1372830D01*
X740466Y1374097D01*
X740536Y1375363D01*
Y1375433D01*
Y1375715D01*
Y1376067D01*
X740466Y1376559D01*
X740396Y1377192D01*
X740255Y1377896D01*
X740114Y1378670D01*
X739903Y1379514D01*
X739622Y1380429D01*
X739270Y1381414D01*
X738848Y1382399D01*
X738355Y1383384D01*
X737792Y1384439D01*
X737089Y1385424D01*
X736315Y1386409D01*
X735400Y1387324D01*
X735330Y1387394D01*
X735189Y1387535D01*
X734908Y1387746D01*
X734485Y1388098D01*
X733993Y1388450D01*
X733360Y1388872D01*
X732656Y1389364D01*
X731882Y1389786D01*
X730968Y1390279D01*
X729983Y1390701D01*
X728857Y1391123D01*
X727731Y1391475D01*
X726465Y1391827D01*
X725128Y1392038D01*
X723721Y1392179D01*
X722243Y1392249D01*
X721399D01*
X720836Y1392179D01*
X720062Y1392108D01*
X719218Y1391967D01*
X718303Y1391827D01*
X717248Y1391616D01*
X716192Y1391334D01*
X715067Y1390982D01*
X713941Y1390560D01*
X712745Y1390068D01*
X711619Y1389435D01*
X710493Y1388731D01*
X709368Y1387957D01*
X708383Y1387042D01*
X708312Y1386972D01*
X708172Y1386831D01*
X707890Y1386480D01*
X707609Y1386128D01*
X707187Y1385565D01*
X706764Y1384932D01*
X706272Y1384158D01*
X705850Y1383313D01*
X705357Y1382399D01*
X704865Y1381273D01*
X704443Y1380147D01*
X704020Y1378881D01*
X703739Y1377474D01*
X703458Y1375996D01*
X703317Y1374448D01*
X703246Y1372760D01*
X690934Y1374026D01*
Y1374097D01*
Y1374167D01*
X691004Y1374378D01*
Y1374659D01*
X691075Y1375363D01*
X691286Y1376278D01*
X691497Y1377403D01*
X691778Y1378740D01*
X692130Y1380218D01*
X692552Y1381766D01*
X693115Y1383454D01*
X693748Y1385143D01*
X694522Y1386902D01*
X695437Y1388661D01*
X696422Y1390349D01*
X697618Y1391967D01*
X698884Y1393515D01*
X700362Y1394923D01*
X700432Y1394993D01*
X700714Y1395204D01*
X701206Y1395626D01*
X701839Y1396048D01*
X702684Y1396611D01*
X703669Y1397244D01*
X704865Y1397878D01*
X706202Y1398581D01*
X707749Y1399214D01*
X709368Y1399848D01*
X711197Y1400481D01*
X713167Y1401044D01*
X715278Y1401536D01*
X717529Y1401888D01*
X719921Y1402099D01*
X722454Y1402169D01*
X723087D01*
X723791Y1402099D01*
D02*
G37*
%LPC*%
G36*
X3591153Y1293805D02*
X3560406D01*
Y1261652D01*
X3589535D01*
X3590238Y1261722D01*
X3591153D01*
X3592067Y1261792D01*
X3593123Y1261863D01*
X3595304Y1262074D01*
X3597626Y1262426D01*
X3599877Y1262848D01*
X3600862Y1263129D01*
X3601847Y1263411D01*
X3601918D01*
X3602058Y1263481D01*
X3602340Y1263622D01*
X3602692Y1263763D01*
X3603114Y1263974D01*
X3603536Y1264185D01*
X3604662Y1264818D01*
X3605928Y1265662D01*
X3607194Y1266647D01*
X3608391Y1267843D01*
X3609446Y1269250D01*
Y1269321D01*
X3609587Y1269462D01*
X3609657Y1269673D01*
X3609868Y1269954D01*
X3610079Y1270306D01*
X3610290Y1270798D01*
X3610783Y1271854D01*
X3611205Y1273120D01*
X3611627Y1274598D01*
X3611908Y1276216D01*
X3612049Y1277975D01*
Y1278045D01*
Y1278256D01*
Y1278608D01*
X3611979Y1279101D01*
X3611908Y1279734D01*
X3611768Y1280367D01*
X3611627Y1281141D01*
X3611416Y1281985D01*
X3611135Y1282830D01*
X3610783Y1283744D01*
X3610431Y1284729D01*
X3609938Y1285644D01*
X3609305Y1286629D01*
X3608672Y1287544D01*
X3607898Y1288458D01*
X3606983Y1289302D01*
X3606913Y1289373D01*
X3606772Y1289514D01*
X3606421Y1289725D01*
X3606069Y1290006D01*
X3605506Y1290358D01*
X3604802Y1290710D01*
X3604028Y1291132D01*
X3603114Y1291554D01*
X3602129Y1291976D01*
X3600933Y1292398D01*
X3599596Y1292750D01*
X3598189Y1293102D01*
X3596641Y1293383D01*
X3594952Y1293594D01*
X3593123Y1293735D01*
X3591153Y1293805D01*
D02*
G37*
G36*
X3574661Y1443805D02*
X3543915D01*
Y1411652D01*
X3573043D01*
X3573747Y1411722D01*
X3574661D01*
X3575576Y1411792D01*
X3576631Y1411863D01*
X3578813Y1412074D01*
X3581134Y1412426D01*
X3583386Y1412848D01*
X3584371Y1413129D01*
X3585356Y1413411D01*
X3585426D01*
X3585567Y1413481D01*
X3585848Y1413622D01*
X3586200Y1413762D01*
X3586622Y1413974D01*
X3587044Y1414185D01*
X3588170Y1414818D01*
X3589437Y1415662D01*
X3590703Y1416647D01*
X3591899Y1417843D01*
X3592954Y1419250D01*
Y1419321D01*
X3593095Y1419461D01*
X3593166Y1419673D01*
X3593377Y1419954D01*
X3593588Y1420306D01*
X3593799Y1420798D01*
X3594291Y1421854D01*
X3594713Y1423120D01*
X3595136Y1424598D01*
X3595417Y1426216D01*
X3595558Y1427975D01*
Y1428045D01*
Y1428256D01*
Y1428608D01*
X3595487Y1429101D01*
X3595417Y1429734D01*
X3595276Y1430367D01*
X3595136Y1431141D01*
X3594924Y1431985D01*
X3594643Y1432829D01*
X3594291Y1433744D01*
X3593939Y1434729D01*
X3593447Y1435644D01*
X3592814Y1436629D01*
X3592181Y1437543D01*
X3591407Y1438458D01*
X3590492Y1439302D01*
X3590422Y1439373D01*
X3590281Y1439514D01*
X3589929Y1439725D01*
X3589577Y1440006D01*
X3589014Y1440358D01*
X3588311Y1440710D01*
X3587537Y1441132D01*
X3586622Y1441554D01*
X3585637Y1441976D01*
X3584441Y1442398D01*
X3583104Y1442750D01*
X3581697Y1443102D01*
X3580149Y1443383D01*
X3578461Y1443594D01*
X3576631Y1443735D01*
X3574661Y1443805D01*
D02*
G37*
G36*
X1523234Y1349685D02*
X1492488D01*
Y1317532D01*
X1521616D01*
X1522320Y1317602D01*
X1523234D01*
X1524149Y1317672D01*
X1525204Y1317743D01*
X1527385Y1317954D01*
X1529707Y1318306D01*
X1531959Y1318728D01*
X1532944Y1319009D01*
X1533929Y1319291D01*
X1533999D01*
X1534140Y1319361D01*
X1534421Y1319502D01*
X1534773Y1319643D01*
X1535195Y1319854D01*
X1535617Y1320065D01*
X1536743Y1320698D01*
X1538009Y1321542D01*
X1539276Y1322527D01*
X1540472Y1323723D01*
X1541527Y1325130D01*
Y1325201D01*
X1541668Y1325342D01*
X1541738Y1325553D01*
X1541949Y1325834D01*
X1542160Y1326186D01*
X1542372Y1326678D01*
X1542864Y1327734D01*
X1543286Y1329000D01*
X1543708Y1330478D01*
X1543990Y1332096D01*
X1544131Y1333855D01*
Y1333925D01*
Y1334136D01*
Y1334488D01*
X1544060Y1334981D01*
X1543990Y1335614D01*
X1543849Y1336247D01*
X1543708Y1337021D01*
X1543497Y1337865D01*
X1543216Y1338710D01*
X1542864Y1339624D01*
X1542512Y1340609D01*
X1542020Y1341524D01*
X1541387Y1342509D01*
X1540753Y1343424D01*
X1539979Y1344338D01*
X1539065Y1345182D01*
X1538994Y1345253D01*
X1538854Y1345394D01*
X1538502Y1345605D01*
X1538150Y1345886D01*
X1537587Y1346238D01*
X1536884Y1346590D01*
X1536110Y1347012D01*
X1535195Y1347434D01*
X1534210Y1347856D01*
X1533014Y1348278D01*
X1531677Y1348630D01*
X1530270Y1348982D01*
X1528722Y1349263D01*
X1527034Y1349474D01*
X1525204Y1349615D01*
X1523234Y1349685D01*
D02*
G37*
G36*
X1679992Y1350881D02*
X1679640D01*
X1679218Y1350811D01*
X1678655Y1350741D01*
X1677951Y1350670D01*
X1677107Y1350530D01*
X1676263Y1350319D01*
X1675278Y1350037D01*
X1674222Y1349615D01*
X1673167Y1349193D01*
X1672041Y1348630D01*
X1670986Y1347926D01*
X1669860Y1347152D01*
X1668805Y1346238D01*
X1667820Y1345112D01*
X1666835Y1343916D01*
X1666765Y1343846D01*
X1666553Y1343494D01*
X1666272Y1342931D01*
X1665850Y1342157D01*
X1665428Y1341102D01*
X1664935Y1339835D01*
X1664372Y1338287D01*
X1663809Y1336458D01*
X1663458Y1335473D01*
X1663176Y1334347D01*
X1662895Y1333222D01*
X1662684Y1331955D01*
X1662402Y1330689D01*
X1662121Y1329282D01*
X1661910Y1327804D01*
X1661699Y1326256D01*
X1661488Y1324638D01*
X1661277Y1322949D01*
X1661136Y1321190D01*
X1660995Y1319361D01*
X1660854Y1317391D01*
X1660784Y1315351D01*
X1660714Y1313240D01*
Y1311059D01*
Y1310988D01*
Y1310777D01*
Y1310496D01*
Y1310003D01*
Y1309441D01*
X1660784Y1308807D01*
Y1308033D01*
Y1307189D01*
X1660854Y1306275D01*
Y1305289D01*
X1660995Y1303038D01*
X1661206Y1300646D01*
X1661417Y1298113D01*
X1661699Y1295439D01*
X1662051Y1292766D01*
X1662543Y1290092D01*
X1663036Y1287489D01*
X1663669Y1285026D01*
X1664443Y1282845D01*
X1664865Y1281790D01*
X1665287Y1280875D01*
X1665779Y1279961D01*
X1666272Y1279187D01*
X1666342Y1279116D01*
X1666553Y1278835D01*
X1666835Y1278483D01*
X1667257Y1277991D01*
X1667820Y1277357D01*
X1668523Y1276724D01*
X1669227Y1275950D01*
X1670142Y1275247D01*
X1671056Y1274543D01*
X1672112Y1273769D01*
X1673237Y1273136D01*
X1674504Y1272573D01*
X1675770Y1272010D01*
X1677177Y1271658D01*
X1678655Y1271377D01*
X1680133Y1271307D01*
X1680484D01*
X1680906Y1271377D01*
X1681469Y1271447D01*
X1682173Y1271518D01*
X1683017Y1271729D01*
X1683932Y1271940D01*
X1684917Y1272292D01*
X1685972Y1272714D01*
X1687098Y1273206D01*
X1688224Y1273839D01*
X1689420Y1274613D01*
X1690546Y1275528D01*
X1691742Y1276583D01*
X1692867Y1277780D01*
X1693923Y1279187D01*
X1693993Y1279257D01*
X1694134Y1279609D01*
X1694415Y1280101D01*
X1694837Y1280805D01*
X1695259Y1281790D01*
X1695682Y1282986D01*
X1696245Y1284393D01*
X1696737Y1286152D01*
X1697018Y1287137D01*
X1697230Y1288192D01*
X1697511Y1289248D01*
X1697792Y1290444D01*
X1698003Y1291710D01*
X1698215Y1293047D01*
X1698496Y1294454D01*
X1698707Y1296002D01*
X1698848Y1297550D01*
X1699059Y1299239D01*
X1699200Y1300998D01*
X1699340Y1302827D01*
X1699411Y1304727D01*
X1699481Y1306767D01*
X1699551Y1308878D01*
Y1311059D01*
Y1311129D01*
Y1311340D01*
Y1311692D01*
Y1312114D01*
Y1312677D01*
Y1313310D01*
X1699481Y1314084D01*
Y1314929D01*
X1699411Y1315843D01*
Y1316899D01*
X1699270Y1319080D01*
X1699059Y1321472D01*
X1698848Y1324075D01*
X1698566Y1326678D01*
X1698215Y1329352D01*
X1697722Y1332026D01*
X1697159Y1334629D01*
X1696526Y1337091D01*
X1695752Y1339272D01*
X1695330Y1340328D01*
X1694908Y1341242D01*
X1694415Y1342157D01*
X1693923Y1342931D01*
X1693852Y1343001D01*
X1693641Y1343283D01*
X1693360Y1343635D01*
X1692938Y1344197D01*
X1692375Y1344760D01*
X1691742Y1345464D01*
X1690968Y1346167D01*
X1690123Y1346941D01*
X1689138Y1347645D01*
X1688083Y1348349D01*
X1686957Y1349052D01*
X1685691Y1349615D01*
X1684354Y1350178D01*
X1683017Y1350530D01*
X1681540Y1350811D01*
X1679992Y1350881D01*
D02*
G37*
%LPD*%
D10*
X2243789Y1779119D02*
G03*
X2243789Y1779119I-25000J0D01*
G01*
D75*
X1825000Y697500D02*
G03*
X1825000Y697500I-12500J0D01*
G01*
X2937498Y1034999D02*
G03*
X2937498Y1034999I-12500J0D01*
G01*
X3720000Y1370000D02*
G03*
X3720000Y1370000I-12500J0D01*
G01*
X552497Y1207497D02*
G03*
X552497Y1207497I-12500J0D01*
G01*
X2460410Y1673119D02*
G03*
X2460410Y1673119I-12500J0D01*
G01*
X1514998Y2934396D02*
G03*
X1514998Y2934396I-12500J0D01*
G01*
X190000Y850000D02*
G03*
X190000Y850000I-12500J0D01*
G01*
Y3050000D02*
G03*
X190000Y3050000I-12500J0D01*
G01*
Y1850000D02*
G03*
X190000Y1850000I-12500J0D01*
G01*
X2117500Y3050000D02*
G03*
X2117500Y3050000I-12500J0D01*
G01*
X577500Y2805000D02*
G03*
X577500Y2805000I-12500J0D01*
G01*
X3947500Y3150000D02*
G03*
X3947500Y3150000I-12500J0D01*
G01*
Y2550000D02*
G03*
X3947500Y2550000I-12500J0D01*
G01*
Y2750000D02*
G03*
X3947500Y2750000I-12500J0D01*
G01*
Y2950000D02*
G03*
X3947500Y2950000I-12500J0D01*
G01*
D76*
X857000Y373000D02*
G03*
X857000Y373000I-2000J0D01*
G01*
X386503Y1799997D02*
Y1899997D01*
X513503Y1799997D02*
Y1899997D01*
X3270002Y2660001D02*
X3430002D01*
X3270002Y2840000D02*
X3430002D01*
X1545002Y757500D02*
X1755004D01*
X1545002Y442505D02*
X1755004D01*
X3249997Y569997D02*
Y664998D01*
X2989998Y569997D02*
X3249997D01*
Y935000D02*
Y1030001D01*
X2989998D02*
X3249997D01*
X4233795Y1125495D02*
X4314989D01*
X3845464Y1125465D02*
X3966196D01*
X3845464D02*
Y1138597D01*
X3844997Y1861496D02*
Y1874526D01*
X3966196D01*
X4233795D02*
X4314999D01*
X4314989Y1125495D02*
Y1874496D01*
X615001Y1184997D02*
Y1212495D01*
X642499D01*
X1007497D02*
X1035000D01*
Y1184997D02*
Y1212495D01*
Y792496D02*
Y819999D01*
X1007497Y792496D02*
X1035000D01*
X615001D02*
Y819999D01*
Y792496D02*
X642499D01*
X269998Y1059999D02*
X430003D01*
X269998Y1239999D02*
X430003D01*
X239579Y1040609D02*
X520792D01*
X239579Y859395D02*
X520792D01*
X1453790Y1694110D02*
X2303786Y1694115D01*
X1453790Y1694110D02*
X1453795Y2544116D01*
X2303786D01*
Y1694115D02*
Y2544116D01*
X3270002Y3060000D02*
X3430002D01*
X3270002Y3240000D02*
X3430002D01*
X1940002Y670007D02*
X2460006D01*
Y330008D02*
Y342510D01*
Y657510D02*
Y670007D01*
X1940002Y330008D02*
X2460006D01*
X1940002D02*
Y342510D01*
Y657510D02*
Y670007D01*
X805003Y615006D02*
X879999D01*
X805003Y519604D02*
Y615006D01*
X1095000Y519604D02*
Y615006D01*
X925003Y485004D02*
X975000D01*
X1020004Y615006D02*
X1095000D01*
X1809395Y2990607D02*
X2090609D01*
X1809395Y2809393D02*
X2090609D01*
X3540400Y2400499D02*
Y2413001D01*
Y2142999D02*
Y2155501D01*
Y2142999D02*
X3860400D01*
Y2400499D02*
Y2413001D01*
Y2142999D02*
Y2155501D01*
X3540400Y2413001D02*
X3860400D01*
X2637496Y2045001D02*
Y2155003D01*
X2762500Y2045001D02*
Y2155003D01*
X2637501Y2245000D02*
Y2354998D01*
X2762500Y2245000D02*
Y2354998D01*
X1449996Y3000005D02*
Y3300005D01*
X1749995Y3000005D02*
Y3300005D01*
X1079394Y3214391D02*
X1320608D01*
X1079394Y3385608D02*
X1320608D01*
X777500Y2569998D02*
X822499D01*
X777500Y2429999D02*
X822499D01*
X359396Y2379209D02*
Y2660422D01*
X540610Y2379209D02*
Y2660422D01*
X1413501Y400000D02*
Y500000D01*
X1286501Y400000D02*
Y500000D01*
X1413501Y600000D02*
Y700000D01*
X1286501Y600000D02*
Y700000D01*
X-212500Y200001D02*
X12498D01*
Y280000D01*
Y919999D02*
Y999999D01*
X-212500D02*
X12498D01*
X-412500Y320000D02*
Y879999D01*
X-212500Y2199997D02*
X12498D01*
Y2279996D01*
Y3120000D02*
Y3200000D01*
X-212500D02*
X12498D01*
X-412500Y2319996D02*
Y3080000D01*
X-212500Y1199999D02*
X12498D01*
Y1279998D01*
Y1920002D02*
Y2000002D01*
X-212500D02*
X12498D01*
X-412500Y1319998D02*
Y1880002D01*
Y3570001D02*
Y3830001D01*
X-212500Y3950001D02*
X12498D01*
Y3870001D02*
Y3950001D01*
Y3450002D02*
Y3530002D01*
X-212500Y3450002D02*
X12498D01*
X3270002Y2639996D02*
X3430002D01*
X3270002Y2459996D02*
X3430002D01*
X3269997Y3040000D02*
X3429997D01*
X3269997Y2860000D02*
X3429997D01*
X1600003Y2836500D02*
X1700003D01*
X1600003Y2963500D02*
X1700003D01*
X935005Y3130007D02*
X1030007D01*
Y2870008D02*
Y3130007D01*
X570007D02*
X665003D01*
X570007Y2870008D02*
Y3130007D01*
X651399Y1633678D02*
Y1738682D01*
X526401Y1633678D02*
Y1738682D01*
X662504Y2007500D02*
Y2112504D01*
X537501Y2007500D02*
Y2112504D01*
X2149994Y1313501D02*
X2249994D01*
X2149994Y1186501D02*
X2249994D01*
X2400006Y2686503D02*
X2500006D01*
X2400006Y2813503D02*
X2500006D01*
X2763506Y2500001D02*
Y2600001D01*
X2636506Y2500001D02*
Y2600001D01*
X1249996Y2813503D02*
X1349996D01*
X1249996Y2686503D02*
X1349996D01*
X3682503Y3217500D02*
X3717504D01*
X3682503Y3082499D02*
X3717504D01*
X3682503Y2617501D02*
X3717504D01*
X3682503Y2482500D02*
X3717504D01*
X3682503Y2817501D02*
X3717504D01*
X3682503Y2682500D02*
X3717504D01*
X3682503Y3017501D02*
X3717504D01*
X3682503Y2882500D02*
X3717504D01*
D77*
X167500Y3800000D02*
G03*
X167500Y3800000I-5000J0D01*
G01*
%TF.MD5,0e29b2d93bdca7ac8786efcc3593410e*%
M02*
