%TF.GenerationSoftware,Altium Limited,Altium Designer,23.4.1 (23)*%
G04 Layer_Physical_Order=6*
G04 Layer_Color=16711680*
%FSLAX45Y45*%
%MOMM*%
%TF.SameCoordinates,48A87055-20E1-44AA-943F-EC830DB2746A*%
%TF.FilePolarity,Positive*%
%TF.FileFunction,Copper,L6,Bot,Signal*%
%TF.Part,Single*%
G01*
G75*
%TA.AperFunction,Conductor*%
%ADD10C,0.15000*%
%TA.AperFunction,SMDPad,CuDef*%
%ADD24R,1.55000X0.60000*%
%ADD25R,1.80000X1.20000*%
%ADD33R,0.75000X1.00000*%
%ADD34R,1.10000X2.05000*%
%ADD49R,0.70000X1.30000*%
%ADD50R,0.50000X0.40000*%
%ADD51R,0.40000X0.50000*%
%TA.AperFunction,ComponentPad*%
%ADD54C,0.99100*%
%ADD55C,1.45000*%
%ADD56C,0.75000*%
%TA.AperFunction,ViaPad*%
%ADD57C,4.00000*%
G04:AMPARAMS|DCode=58|XSize=1.524mm|YSize=2mm|CornerRadius=0.381mm|HoleSize=0mm|Usage=FLASHONLY|Rotation=0.000|XOffset=0mm|YOffset=0mm|HoleType=Round|Shape=RoundedRectangle|*
%AMROUNDEDRECTD58*
21,1,1.52400,1.23800,0,0,0.0*
21,1,0.76200,2.00000,0,0,0.0*
1,1,0.76200,0.38100,-0.61900*
1,1,0.76200,-0.38100,-0.61900*
1,1,0.76200,-0.38100,0.61900*
1,1,0.76200,0.38100,0.61900*
%
%ADD58ROUNDEDRECTD58*%
%ADD59C,1.27000*%
%ADD60C,0.50000*%
%TA.AperFunction,SMDPad,CuDef*%
%ADD61R,1.70000X1.50000*%
%ADD62R,1.50000X1.70000*%
%ADD63R,1.68000X0.80000*%
%ADD64R,1.50000X1.60000*%
%ADD65R,1.40000X1.29000*%
%ADD66R,1.30000X1.29000*%
%ADD67R,0.85000X0.70000*%
%ADD68R,1.00000X0.75000*%
%ADD69R,1.40000X0.38000*%
%ADD70R,2.40000X1.90000*%
D10*
X2014101Y195835D02*
G03*
X2060573Y123570I85899J4165D01*
G01*
X2064312Y117717D02*
G03*
X2062576Y120819I-13865J-5726D01*
G01*
X2095417Y42403D02*
G03*
X2097043Y38686I79583J32597D01*
G01*
X2161109Y-160280D02*
G03*
X2223376Y-119855I-11109J85279D01*
G01*
X2339294Y2032107D02*
G03*
X2339069Y2021554I85706J-7107D01*
G01*
X1732901Y-259283D02*
G03*
X1794974Y-248303I17099J84283D01*
G01*
X465213Y2110603D02*
G03*
X467877Y2099469I84786J14397D01*
G01*
X-90959Y1831749D02*
G03*
X-126014Y1920686I-84041J18251D01*
G01*
X-96265Y1935187D02*
G03*
X-107660Y1944453I-78735J-85187D01*
G01*
X125200Y1758276D02*
G03*
X131897Y1826246I-75201J41724D01*
G01*
X1324466Y2880000D02*
G03*
X1327302Y2880270I1J15001D01*
G01*
X1108864Y1987302D02*
G03*
X1131297Y2021950I-58864J62698D01*
G01*
X1129697Y1965713D02*
G03*
X1154339Y1999311I-79697J84287D01*
G01*
X116927Y933039D02*
G03*
X131318Y920519I83073J80961D01*
G01*
X135599Y957004D02*
G03*
X150796Y943466I64401J56996D01*
G01*
X1233823Y1090535D02*
G03*
X1266177Y1090535I16177J84465D01*
G01*
X1639948Y1662733D02*
G03*
X1644701Y1619208I85052J-12733D01*
G01*
X508285Y1781679D02*
G03*
X504522Y1836433I-83194J21789D01*
G01*
X180847Y1748800D02*
G03*
X155032Y1725005I44153J-73800D01*
G01*
X1646251Y2933333D02*
G03*
X1608743Y2934449I-21251J-83333D01*
G01*
X1662876Y425000D02*
G03*
X1668189Y423024I32621J79573D01*
G01*
X1670607Y420606D02*
G03*
X1670606Y420607I-10607J-10607D01*
G01*
X572799Y2387312D02*
G03*
X487312Y2472799I512J85999D01*
G01*
X558900Y2372313D02*
G03*
X558900Y2372312I15000J-1D01*
G01*
X482919Y2463293D02*
G03*
X482920Y2463294I-10606J10607D01*
G01*
X563294Y2382920D02*
G03*
X563293Y2382919I10606J-10607D01*
G01*
X452232Y2186528D02*
G03*
X435712Y2210154I-77743J-36771D01*
G01*
X2825000Y3716213D02*
X3956290D01*
X2480509D02*
X2825000D01*
Y3725000D01*
Y3660701D02*
Y3716213D01*
X2750000Y3550000D02*
Y3585701D01*
X2825000Y3660701D01*
X2097043Y38686D02*
X2150000Y-75000D01*
X2064312Y117717D02*
X2095417Y42403D01*
X2060572Y123570D02*
X2062575Y120818D01*
X2002733Y257851D02*
X2011520Y249064D01*
X2272865Y108232D02*
X2274657Y82881D01*
X2274999Y356D01*
X2275000Y-35622D02*
Y356D01*
X2261000Y160622D02*
X2272865Y108232D01*
X2274999Y356D02*
X2275000Y356D01*
X2011520Y249064D02*
X2014101Y195835D01*
X2046001Y-175000D02*
X2161109Y-160280D01*
X2223376Y-119855D02*
X2275000Y-35622D01*
X3956290Y3716213D02*
X4092500Y3580003D01*
X2401296Y3637000D02*
X2480509Y3716213D01*
X2401296Y3462997D02*
Y3637000D01*
Y3462997D02*
X2439293Y3425000D01*
X2598701Y2786295D02*
Y3387003D01*
X2560704Y3425000D02*
X2598701Y3387003D01*
X2439293Y3425000D02*
X2560704D01*
X2598701Y2786295D02*
X2614999Y2769997D01*
X2431501Y2000000D02*
X2446000Y1985501D01*
Y1355875D02*
Y1985501D01*
X2339069Y2021554D02*
X2356681Y1582368D01*
X2416000Y1523049D01*
X2446000Y1355875D02*
X3327500Y474375D01*
X2341650Y2060285D02*
Y2072712D01*
X2339294Y2032107D02*
X2341650Y2060285D01*
X2101622Y320000D02*
X2261000Y160622D01*
X1671361Y320000D02*
X2101622D01*
X2002471Y258023D02*
X2002733Y257851D01*
X1264936Y237496D02*
X2002471Y258023D01*
X1662494Y-244999D02*
X1732901Y-259283D01*
X1614994Y-149999D02*
X1662494Y-244999D01*
X1794974Y-248303D02*
X1890001Y-190001D01*
X1925001Y-162501D01*
X3211000Y1183311D02*
Y1452779D01*
X3205689Y1178000D02*
X3211000Y1183311D01*
X467877Y2099469D02*
X532096Y1892904D01*
X452371Y2186237D02*
X465213Y2110603D01*
X532096Y1892904D02*
X536489Y1888511D01*
X762835Y2073118D02*
X771622Y2064331D01*
X550000Y2125000D02*
X762835Y2073118D01*
X536489Y1888511D02*
X675000Y1750000D01*
X-96265Y1935187D02*
X50000Y1800000D01*
X-252499Y2016286D02*
X-226617Y1990404D01*
X-126014Y1920685D01*
X-222499Y2028712D02*
X-214190Y2020404D01*
X-252499Y2016286D02*
Y3275629D01*
X-214190Y2020404D02*
X-107660Y1944453D01*
X-125000Y1675000D02*
X-90959Y1831749D01*
X70607Y1663033D02*
X75000Y1667426D01*
X79394Y2020607D02*
X333787Y2275000D01*
X45000Y1637426D02*
X70607Y1663033D01*
X75000Y1667426D02*
X125200Y1758276D01*
X75000Y2003786D02*
X131897Y1826246D01*
X-222499Y2028712D02*
Y3263203D01*
X75000Y2003786D02*
Y2016213D01*
X79394Y2020607D01*
X-222499Y3263203D02*
X186797Y3672499D01*
X1136270Y2329450D02*
X1175000Y2290720D01*
X1037643Y2574363D02*
X1076503Y2535503D01*
X1175000Y2075000D02*
Y2290720D01*
X806059Y2657108D02*
X845654Y2620066D01*
X858080Y2650066D02*
X1037643Y2574363D01*
X1166270Y2341877D02*
X1175032Y2333114D01*
X823262Y2684884D02*
X858080Y2650066D01*
X845654Y2620066D02*
X1025217Y2544363D01*
X1076503Y2535503D02*
X1166270Y2341877D01*
X1016503Y2250503D02*
Y2510651D01*
X1010049Y2517104D02*
X1016503Y2510651D01*
X641412Y2673735D02*
X1010049Y2517104D01*
X404000Y2911148D02*
X639352Y2675795D01*
X1025217Y2544363D02*
X1046503Y2523077D01*
X608409Y2749164D02*
X806059Y2657108D01*
X1000000Y2234000D02*
X1016503Y2250503D01*
X639352Y2675795D02*
X641412Y2673735D01*
X1046503Y2523077D02*
X1136270Y2329450D01*
X1175032Y2333114D02*
X1205000Y2303147D01*
X464000Y2936001D02*
X472787Y2927213D01*
X464000Y2942214D02*
X464000Y2936001D01*
X472787Y2927213D02*
X780324Y2702500D01*
X606536Y2751037D02*
X608409Y2749164D01*
X434000Y2923574D02*
X606536Y2751037D01*
X780324Y2702500D02*
X817478Y2684885D01*
X464000Y2942214D02*
Y3060622D01*
X817478Y2684885D02*
X823262Y2684884D01*
X686000Y2239000D02*
X743926D01*
X825000Y2234000D01*
X799999Y2750000D02*
X899999D01*
X999999D01*
X1525001D01*
X1625000Y2850000D01*
X799999Y2850000D02*
X899999D01*
X799999Y2750000D02*
Y2850000D01*
X1130961Y3053237D02*
X1304199Y2880000D01*
X1327302Y2880270D02*
X1608743Y2934449D01*
X1304199Y2880000D02*
X1324466D01*
X579943Y3053237D02*
X1130961D01*
X2925000Y1075000D02*
X3150000Y850000D01*
X2682499Y1317501D02*
X2925000Y1075000D01*
X2682499Y1317501D02*
Y1441500D01*
X3150000Y850000D02*
X3208177D01*
X2580001Y1865000D02*
X2602001D01*
X2617499Y1506500D02*
X2682499Y1441500D01*
X2569501Y1832500D02*
X2602001Y1865000D01*
X2517501Y1595681D02*
X2536681Y1576500D01*
X2547499D02*
X2614999Y1509000D01*
X2536681Y1576500D02*
X2547499D01*
X2517501Y1595681D02*
Y1804318D01*
X2545683Y1832500D01*
X2569501D01*
X3208177Y850000D02*
X3333177Y725000D01*
X3500000D01*
X2614999Y2769997D02*
X2636499Y2748497D01*
X2800000D01*
X2918787Y2030886D02*
Y2756213D01*
Y2030886D02*
X3260000Y1689673D01*
X2660085Y2877497D02*
X2797503D01*
X2918787Y2756213D01*
X-275000Y-325000D02*
X-253378D01*
X-203378Y-275000D01*
X171875D01*
X1108864Y1987301D02*
X1108864Y1987302D01*
X721362Y1621361D02*
X1108864Y1987301D01*
X1131297Y2021950D02*
X1136245Y2036245D01*
X434000Y2923574D02*
Y3085296D01*
X401300Y2929585D02*
Y3387003D01*
Y2929585D02*
X404000Y2911148D01*
X434000Y3085296D02*
X469400Y3120696D01*
X464000Y3060622D02*
X648979Y3245602D01*
X1018003Y402497D02*
X1119938D01*
X2198048Y991000D02*
X2239049Y950000D01*
X2185622Y961000D02*
X2236000Y910622D01*
X1428180Y627497D02*
X1902497D01*
X1994119Y597497D02*
X2236000Y839378D01*
X1199999Y639997D02*
X1415679D01*
X1902497Y627497D02*
X2150000Y875000D01*
X1624996Y699997D02*
Y712497D01*
X1873500Y961000D01*
X940679Y991000D02*
X2198048D01*
X1415679Y639997D02*
X1428180Y627497D01*
X2236000Y839378D02*
Y910622D01*
X1484997Y559997D02*
X1522496Y597497D01*
X1873500Y961000D02*
X2185622D01*
X1522496Y597497D02*
X1994119D01*
X2239049Y950000D02*
X2525000D01*
X748785Y799106D02*
X940679Y991000D01*
X1625002Y700002D02*
Y849994D01*
X1624996Y699997D02*
X1625002Y700002D01*
X1136245Y2036245D02*
X1175000Y2075000D01*
X550000Y1450000D02*
X721362Y1621361D01*
X1175032Y2032606D02*
X1205000Y2062574D01*
X725000Y1576361D02*
X725000Y1582574D01*
X733788Y1591361D01*
X725000Y1450000D02*
Y1576361D01*
X733788Y1591361D02*
X1129697Y1965713D01*
X1166245Y2023818D02*
X1175032Y2032606D01*
X1154339Y1999311D02*
X1166245Y2023818D01*
X131318Y920518D02*
X142511Y909325D01*
X172511Y783167D02*
Y921751D01*
X150796Y943466D02*
X172511Y921751D01*
X75000Y1025476D02*
X135599Y957004D01*
X45000Y1006837D02*
X116926Y933038D01*
X142511Y700686D02*
Y909325D01*
X45000Y1006837D02*
Y1637426D01*
X232501Y979999D02*
X262502Y949999D01*
X200000Y1014000D02*
X232501Y979999D01*
X75000Y1025476D02*
Y1618787D01*
X1205000Y2062574D02*
Y2303147D01*
X771622Y1725000D02*
Y1890994D01*
X767797Y1894820D02*
X771622Y1890994D01*
X1639948Y1662733D02*
X1700000Y2064048D01*
X2033694Y2393976D02*
X2081670Y2346000D01*
X1956353Y2277976D02*
X2043647D01*
X2081670Y2346000D02*
X2491214D01*
X2043647Y2277976D02*
X2086000Y2235622D01*
X2000000Y1755418D02*
Y2191976D01*
X1914000Y2235622D02*
X1956353Y2277976D01*
X2008024Y2393976D02*
X2033694D01*
X2355202Y2307976D02*
X2530681Y2132497D01*
X1704393Y2068442D02*
X1943927Y2307976D01*
X2355202D01*
X2256499Y2022152D02*
X2271354Y2007298D01*
X2256499Y2022152D02*
Y2081500D01*
X372171Y2146470D02*
X374773Y2149072D01*
X504522Y1836433D01*
X368503Y2146470D02*
X372171D01*
X1927961Y1060535D02*
X2011551Y1064929D01*
X1266177Y1090535D02*
X1915535Y1090535D01*
X1919928Y1094928D01*
X2011551Y1064929D02*
X2386000Y1439378D01*
X955362Y1090535D02*
X1233823D01*
X1919928Y1094928D02*
X2300000Y1475000D01*
X592327Y727500D02*
X955362Y1090535D01*
X963395Y1056142D02*
X1927961Y1060535D01*
X718785Y811532D02*
X963395Y1056142D01*
X2249999Y2950001D02*
Y3300002D01*
Y2950001D02*
X2325000Y2875000D01*
X1689189Y1464189D02*
X1700000Y1475000D01*
X1700000Y2064048D02*
X1704393Y2068442D01*
X1644701Y1619208D02*
X1700000Y1475000D01*
X3705002Y466620D02*
Y550001D01*
X3650000Y411617D02*
X3705002Y466620D01*
X3650000Y400000D02*
Y411617D01*
X3705002Y650001D02*
X3752502D01*
X3875000Y527503D01*
Y525000D02*
Y527503D01*
X1750000Y3300002D02*
X1775000Y3275002D01*
Y3075000D02*
Y3275002D01*
X3444902Y3419902D02*
X3475001Y3450001D01*
X3400000Y3332574D02*
Y3362881D01*
X3444902Y3407783D01*
Y3419902D01*
X1205004Y285001D02*
X1248116Y241889D01*
X1252510Y237496D02*
X1264936D01*
X1248116Y241889D02*
X1252510Y237496D01*
X3682502Y3227501D02*
X3705002Y3250001D01*
X3602501Y3227501D02*
X3682502D01*
X3525000Y3150000D02*
X3602501Y3227501D01*
X3475001Y3450001D02*
X3705002D01*
Y750001D02*
X3727502Y727501D01*
X3897499D01*
X3900000Y725000D01*
X180847Y1748800D02*
X333417Y1840079D01*
X343775Y1840078D02*
X425091Y1803468D01*
X333417Y1840079D02*
X343775Y1840078D01*
X434000Y1498048D02*
X508284Y1781679D01*
X434000Y1401951D02*
Y1498048D01*
Y1401951D02*
X540951Y1295000D01*
X1700190Y3599804D02*
X1750000Y3549994D01*
X1700190Y3599804D02*
Y3649810D01*
X1647501Y3702499D02*
X1700190Y3649810D01*
X75000Y1618787D02*
X75000Y1625000D01*
X105000Y1655000D02*
X155032Y1725005D01*
X75000Y1625000D02*
X105000Y1655000D01*
X1646251Y2933333D02*
X1875000Y2875000D01*
X1668189Y423024D02*
X1670606Y420607D01*
X1550000Y462502D02*
X1562499Y475000D01*
X1587502Y425000D02*
X1662876D01*
X1670607Y420606D02*
X1675000Y416213D01*
X1585001Y435001D02*
X1587502Y425000D01*
X1537499Y450000D02*
X1550000Y462502D01*
X1675000Y358787D02*
Y416213D01*
X1550000Y462502D02*
X1585001Y435001D01*
X1675000Y358787D02*
X1683787Y350000D01*
X2541213D01*
X2550000Y341213D01*
X-561861Y527636D02*
X-540431Y506206D01*
X-561861Y527636D02*
Y586568D01*
X-575000Y599706D02*
X-561861Y586568D01*
X-575000Y599706D02*
Y1025000D01*
X578237Y3051532D02*
X579943Y3053237D01*
X3705002Y850000D02*
X4092500D01*
Y1180002D01*
Y419999D02*
Y850000D01*
X2651298Y2886284D02*
Y3376832D01*
X2499996Y3528134D02*
Y3549999D01*
Y3528134D02*
X2651298Y3376832D01*
Y2886284D02*
X2660085Y2877497D01*
X2517501Y1846744D02*
Y2103251D01*
X2500001Y2354787D02*
Y3076815D01*
X2491214Y2346000D02*
X2500001Y2354787D01*
X2333787Y2200000D02*
X2420752D01*
X2517501Y2103251D01*
X2580001Y2085000D02*
X2624001D01*
X2532504Y2132497D02*
X2580001Y2085000D01*
X2530681Y2132497D02*
X2532504D01*
X2256499Y2122713D02*
X2333787Y2200000D01*
X2256499Y2081500D02*
Y2122713D01*
X2476000Y1805243D02*
X2517501Y1846744D01*
X2256499Y2081500D02*
X2332919D01*
X2341650Y2072712D01*
X4100000Y1187503D02*
Y1450000D01*
X4092500Y1180002D02*
X4100000Y1187503D01*
X3208177Y850000D02*
X3705002D01*
X2476000Y1373159D02*
Y1805243D01*
X4092500Y230002D02*
Y419999D01*
Y230002D02*
X4092500Y230001D01*
X3587503Y-170000D02*
X3657502Y-100001D01*
X3450000Y-75000D02*
X3545000Y-170000D01*
X3587503D01*
X3521622Y-200000D02*
X3705002D01*
X3471622Y-250000D02*
X3521622Y-200000D01*
X3450000Y-250000D02*
X3471622D01*
X3657502Y-100001D02*
X3705002D01*
X3425000Y-425000D02*
X3550000Y-300000D01*
X3705002D01*
X1653858Y337503D02*
X1671361Y320000D01*
X1550000Y337503D02*
X1653858D01*
X2550000Y-124999D02*
Y341213D01*
X1199999Y559997D02*
X1484997D01*
X875000Y350000D02*
Y541213D01*
Y200000D02*
Y350000D01*
X887497Y337503D02*
X992999D01*
X875000Y350000D02*
X887497Y337503D01*
X981499Y544004D02*
X992999Y532504D01*
X904783Y544004D02*
X981499D01*
X898787Y550000D02*
X904783Y544004D01*
X883787Y550000D02*
X898787D01*
X875000Y541213D02*
X883787Y550000D01*
X450000Y-225000D02*
X875000Y200000D01*
X39301Y-450000D02*
X264301Y-225000D01*
X748785Y248473D02*
Y799106D01*
X264301Y-225000D02*
X450000D01*
X310875Y-136000D02*
X364313D01*
X-325000Y-450000D02*
X39301D01*
X171875Y-275000D02*
X310875Y-136000D01*
X364313D02*
X748785Y248473D01*
X-468787Y-293787D02*
X-397502Y-222502D01*
X-468787Y-306213D02*
Y-293787D01*
Y-306213D02*
X-325000Y-450000D01*
X-397502Y-222502D02*
X152498D01*
X325000Y-50000D01*
X1200004Y285001D02*
X1205004D01*
X2249999Y-425000D02*
X2550000Y-124999D01*
X1Y-2D02*
Y25001D01*
X287501Y277501D02*
X300000Y290000D01*
X252501Y277501D02*
X287501D01*
X1Y25001D02*
X252501Y277501D01*
X306250Y208751D02*
X317500Y197500D01*
X305000Y210000D02*
X306250Y208751D01*
X455748D01*
X300000Y210000D02*
X305000D01*
X317500Y-42500D02*
Y197500D01*
Y-42500D02*
X325000Y-50000D01*
X262502Y949999D02*
X275002D01*
X172511Y783167D02*
X293177Y662501D01*
X131519Y677268D02*
X211284Y597503D01*
X131519Y677268D02*
Y689694D01*
X142511Y700686D01*
X-252499Y3275629D02*
X174370Y3702499D01*
X567687Y2387312D02*
X572799D01*
X563294Y2382920D02*
X567687Y2387312D01*
X371300Y2553700D02*
X466100Y2458900D01*
X558900Y2372312D02*
X558900Y2366100D01*
X487312Y2467687D02*
Y2472799D01*
X558900Y2366100D02*
X686000Y2239000D01*
X371300Y2553700D02*
Y3537513D01*
X482920Y2463294D02*
X487312Y2467687D01*
X558900Y2372313D02*
X558900Y2378526D01*
X478526Y2458900D02*
X482919Y2463293D01*
X558900Y2378526D02*
X563293Y2382919D01*
X466100Y2458900D02*
X478526D01*
X489189Y2389189D02*
X573311Y2473311D01*
X364189Y2389189D02*
X489189D01*
X452231Y2186528D02*
X452371Y2186237D01*
X380410Y2266213D02*
X435712Y2210154D01*
X371622Y2275000D02*
X380410Y2266213D01*
X333787Y2275000D02*
X371622D01*
X1614994Y-149999D02*
Y74994D01*
X4092500Y-529997D02*
Y230001D01*
X4100000Y1450000D02*
Y2800000D01*
X3705002Y3350001D02*
X3832503D01*
X4062500Y3120004D01*
X4092500D01*
Y2807500D02*
Y3120004D01*
Y2807500D02*
X4100000Y2800000D01*
X4092500Y3120004D02*
Y3580003D01*
X-375000Y1225000D02*
Y1724999D01*
X-575000Y1025000D02*
X-375000Y1225000D01*
X2086000Y1810622D02*
Y2235622D01*
X507998Y532504D02*
X531497Y556003D01*
X2086000Y1810622D02*
X2386000Y1510622D01*
X456998Y727500D02*
X592327D01*
X531497Y556003D02*
X536318D01*
X718785Y738470D01*
Y811532D01*
X2668001Y2304999D02*
X2715503Y2257497D01*
X2717321D01*
Y2477497D02*
X2790501Y2404317D01*
Y2116746D02*
Y2404317D01*
X2730501Y1956746D02*
Y2134320D01*
X2760501Y1969173D02*
Y2214317D01*
X2730501Y1956746D02*
X2958660Y1728587D01*
Y1705119D02*
Y1728587D01*
X2624001Y2304999D02*
X2668001D01*
X3200000Y1508323D02*
Y1529674D01*
X2790501Y2116746D02*
X3230000Y1677247D01*
X2717321Y2257497D02*
X2760501Y2214317D01*
Y1969173D02*
X3200000Y1529674D01*
Y1508323D02*
X3400000Y1308323D01*
X2717321Y2147500D02*
X2730501Y2134320D01*
X3400000Y1200000D02*
Y1308323D01*
X2958660Y1705119D02*
X3211000Y1452779D01*
X3260000Y1533176D02*
Y1689673D01*
X3230000Y1520750D02*
Y1677247D01*
X2668001Y2194997D02*
X2715498Y2147500D01*
X3230000Y1520750D02*
X3635002Y1115747D01*
X2715498Y2147500D02*
X2717321D01*
X3260000Y1533176D02*
X3690676Y1102500D01*
X2624001Y2194997D02*
X2668001D01*
X3690676Y1102500D02*
X3791822D01*
X2955000Y1495000D02*
X3100000Y1350000D01*
X3125000D01*
X2730501Y1736747D02*
Y1914320D01*
X2955000Y1495000D02*
Y1512248D01*
X2700501Y1936287D02*
Y1942498D01*
Y1936287D02*
X2709288Y1927501D01*
X2730501Y1736747D02*
X2955000Y1512248D01*
X2717321Y1927501D02*
X2730501Y1914320D01*
X2624001Y1974998D02*
X2668001D01*
X2709288Y1927501D02*
X2717321D01*
X2668001Y1974998D02*
X2700501Y1942498D01*
X2925000Y1375000D02*
Y1499822D01*
X2624001Y1754998D02*
X2668001D01*
X2715498Y1707501D01*
X2717321D01*
X2925000Y1499822D01*
X456998Y532504D02*
X507998D01*
X2476000Y1373159D02*
X3635003Y214156D01*
X2405811Y1353638D02*
X3297500Y461949D01*
X2405811Y1416763D02*
X2416000Y1426952D01*
X2386000Y1439378D02*
Y1510622D01*
X2416000Y1426952D02*
Y1523049D01*
X2405811Y1353638D02*
Y1416763D01*
X1914000Y1798992D02*
X1972574Y1740418D01*
X1914000Y1798992D02*
Y2235622D01*
X1972574Y1527426D02*
Y1740418D01*
X1770148Y1325000D02*
X1972574Y1527426D01*
X540951Y1295000D02*
X1782574D01*
X2003787Y1516213D01*
Y1751631D01*
X464000Y1414378D02*
Y1485622D01*
X646622Y1600000D02*
X771622Y1725000D01*
X553378Y1325000D02*
X1770148D01*
X464000Y1414378D02*
X553378Y1325000D01*
X578378Y1600000D02*
X646622D01*
X464000Y1485622D02*
X578378Y1600000D01*
X211284Y597503D02*
X456998D01*
X293177Y662501D02*
X456998D01*
X771622Y1896622D02*
Y2064331D01*
X3329996Y22504D02*
X3682503D01*
X3635003Y122504D02*
Y214156D01*
X3682503Y22504D02*
X3705002Y4D01*
X3657502Y100004D02*
X3705002D01*
X3635003Y122504D02*
X3657502Y100004D01*
X2517499Y2675677D02*
X2582579Y2610598D01*
Y2542577D02*
Y2610598D01*
X3635002Y1072500D02*
Y1115747D01*
X2582579Y2542577D02*
X2647659Y2477497D01*
X3791822Y1102500D02*
X3805002Y1089320D01*
X2647659Y2477497D02*
X2717321D01*
X2517499Y2675677D02*
Y2864317D01*
X3805002Y1002500D02*
Y1089320D01*
X2500001Y3076815D02*
X2530001Y3046815D01*
X2517499Y2864317D02*
X2530001Y2876819D01*
Y3046815D01*
X3752502Y950000D02*
X3805002Y1002500D01*
X2500001Y3076815D02*
Y3300002D01*
X3705002Y950000D02*
X3752502D01*
X3635002Y1072500D02*
X3657502Y1050000D01*
X3705002D01*
X3125000Y-475000D02*
X3297500Y-302500D01*
Y461949D01*
X3327500Y25000D02*
Y474375D01*
Y-314926D02*
Y25000D01*
X3329996Y22504D01*
X3094926Y-547500D02*
X3327500Y-314926D01*
X2368700Y-479400D02*
X2466800Y-577500D01*
X3616213D01*
X3635003Y-558711D02*
Y-422500D01*
X3616213Y-577500D02*
X3635003Y-558711D01*
X2816371Y-498610D02*
X2823610D01*
X2750000Y-432239D02*
Y-425000D01*
X2872500Y-547500D02*
X3094926D01*
X2823610Y-498610D02*
X2872500Y-547500D01*
X2750000Y-432239D02*
X2816371Y-498610D01*
X3657502Y-400000D02*
X3705002D01*
X3635003Y-422500D02*
X3657502Y-400000D01*
X2249999Y-425000D02*
X2304399Y-479400D01*
X2368700D01*
X3050000Y-475000D02*
X3125000D01*
X3000000Y-425000D02*
X3050000Y-475000D01*
X1627555Y3446247D02*
X1750000Y3323802D01*
X1563194Y3672499D02*
X1627555Y3608139D01*
X174370Y3702499D02*
X1647501D01*
X1627555Y3446247D02*
Y3608139D01*
X186797Y3672499D02*
X1563194D01*
X1750000Y3300002D02*
Y3323802D01*
X2000000Y1755418D02*
X2003787Y1751631D01*
X648979Y3245602D02*
X695602D01*
X750002Y3300002D01*
X469400Y3120696D02*
Y3269402D01*
X500000Y3300002D01*
X401300Y3387003D02*
X441790Y3427494D01*
X371300Y3537513D02*
X383787Y3550000D01*
X441790Y3427494D02*
X563201D01*
X631307Y3495599D01*
X695597D02*
X749997Y3549999D01*
X631307Y3495599D02*
X695597D01*
X499994Y3550000D02*
X500000Y3549994D01*
X383787Y3550000D02*
X499994D01*
X999999Y-425000D02*
Y-417760D01*
X933629Y-351390D02*
X999999Y-417760D01*
X926389Y-351390D02*
X933629D01*
X750002Y-432239D02*
X816373Y-498610D01*
X750002Y-432239D02*
Y-425000D01*
X816373Y-498610D02*
X823612D01*
X332502Y792499D02*
X482002D01*
X25010Y805006D02*
X98380Y731635D01*
Y543452D02*
Y731635D01*
Y543452D02*
X142510Y499322D01*
Y411285D02*
Y499322D01*
Y411285D02*
X151299Y402502D01*
X456998D01*
X11Y805006D02*
X25010D01*
X57512Y337503D02*
X456998D01*
X11Y395004D02*
X57512Y337503D01*
X322510Y272500D02*
X456998D01*
X305004Y290000D02*
X322510Y272500D01*
X300000Y290000D02*
X305004D01*
X455748Y208751D02*
X456998Y207501D01*
X1925001Y-287499D02*
X1932504D01*
X1960002Y-314997D01*
Y-410003D02*
Y-314997D01*
Y-410003D02*
X1974998Y-425000D01*
X1018003Y207496D02*
X1069006D01*
X1092506Y183996D01*
X1097327D01*
X1200689Y207496D02*
X1352490D01*
X1379988Y149995D02*
Y179998D01*
X1352490Y207496D02*
X1379988Y179998D01*
X1569990Y119998D02*
X1614994Y74994D01*
X1569990Y119998D02*
Y149995D01*
X1097327Y183996D02*
X1284997Y-3680D01*
Y-149999D02*
Y-3680D01*
X1018003Y597498D02*
X1152496D01*
X1195000Y639997D02*
X1199999D01*
X1447506Y727495D02*
X1474999Y699997D01*
X1018003Y662496D02*
X1172506D01*
X1018003Y727495D02*
X1447506D01*
X1152496Y597498D02*
X1195000Y639997D01*
X1172506Y662496D02*
X1195000Y639997D01*
X1018003Y792499D02*
X1430001D01*
X1474999Y837497D01*
Y849994D01*
X275002Y799997D02*
X324999D01*
X332502Y792499D01*
X1018003Y272495D02*
X1135696D01*
X1522502Y365001D02*
X1550000Y337503D01*
X1200004Y365001D02*
X1522502D01*
X1112003Y532499D02*
X1139501Y559997D01*
X1199999D01*
X1390001Y450000D02*
X1537499D01*
X1018003Y532499D02*
X1112003D01*
X1297504Y467495D02*
X1310001Y454994D01*
X1018003Y467495D02*
X1297504D01*
X1310001Y450000D02*
Y454994D01*
X1157433Y365001D02*
X1200004D01*
X1119938Y402497D02*
X1157433Y365001D01*
X1135696Y272495D02*
X1200689Y207496D01*
X480752Y208751D02*
X482002Y207496D01*
D24*
X3705002Y-400000D02*
D03*
Y-300000D02*
D03*
Y-200000D02*
D03*
Y4D02*
D03*
Y100004D02*
D03*
Y-100001D02*
D03*
X3705002Y3450001D02*
D03*
Y3250001D02*
D03*
Y3350001D02*
D03*
Y550001D02*
D03*
Y650001D02*
D03*
Y750001D02*
D03*
Y950000D02*
D03*
Y1050000D02*
D03*
Y850000D02*
D03*
D25*
X4092500Y-529997D02*
D03*
Y230001D02*
D03*
X4092500Y3120004D02*
D03*
Y3580003D02*
D03*
Y419999D02*
D03*
Y1180002D02*
D03*
D33*
X1474999Y849994D02*
D03*
X1625002D02*
D03*
X1474999Y699997D02*
D03*
X1624996D02*
D03*
D34*
X1284997Y-149999D02*
D03*
X1614994D02*
D03*
D49*
X1379988Y149995D02*
D03*
X1569990D02*
D03*
D50*
X1199999Y559997D02*
D03*
Y639997D02*
D03*
X1200004Y285001D02*
D03*
Y365001D02*
D03*
X300000Y210000D02*
D03*
Y290000D02*
D03*
D51*
X1310001Y450000D02*
D03*
X1390001D02*
D03*
D54*
X-700000Y-304000D02*
D03*
X-598400Y204000D02*
D03*
X-801600D02*
D03*
D55*
X-375000Y1724999D02*
D03*
Y1225000D02*
D03*
D56*
X-700004Y850000D02*
D03*
D57*
X1Y-2D02*
D03*
X3050003Y3050000D02*
D03*
Y-2D02*
D03*
X1Y3050000D02*
D03*
D58*
X2750000Y3550000D02*
D03*
X2749998Y3300002D02*
D03*
X2500001D02*
D03*
X2499996Y3549999D02*
D03*
X2249994Y3540799D02*
D03*
X2249999Y3300002D02*
D03*
X2000002D02*
D03*
X1999997Y3549994D02*
D03*
X1750000D02*
D03*
Y3300002D02*
D03*
X1499998D02*
D03*
Y3549994D02*
D03*
X1249996Y3549999D02*
D03*
X999999Y3300002D02*
D03*
Y3549994D02*
D03*
X749997Y3549999D02*
D03*
X750002Y3300002D02*
D03*
X500000D02*
D03*
Y3549994D02*
D03*
X249998Y3549999D02*
D03*
Y3299997D02*
D03*
X3000000Y-425000D02*
D03*
X2750000D02*
D03*
X2500000D02*
D03*
X2249999Y-425000D02*
D03*
X1974998D02*
D03*
X1750000D02*
D03*
X1500003D02*
D03*
X1250001D02*
D03*
X750002D02*
D03*
X500000D02*
D03*
X250003D02*
D03*
X1250001Y3300002D02*
D03*
X999999Y-425000D02*
D03*
D59*
X2175000Y75000D02*
D03*
X2100000Y200000D02*
D03*
X1822936Y9000D02*
D03*
X2150000Y-75000D02*
D03*
X1325000Y2375000D02*
D03*
X2431501Y2000000D02*
D03*
X2046001Y-175000D02*
D03*
X2000000Y22000D02*
D03*
X1750000Y-175000D02*
D03*
X3775000Y1325000D02*
D03*
X3748552Y1591453D02*
D03*
X3205689Y1178000D02*
D03*
X3525000Y1582500D02*
D03*
X550000Y2125000D02*
D03*
X-175000Y1850000D02*
D03*
X-125000Y1675000D02*
D03*
X50000Y1800000D02*
D03*
X-300000Y525000D02*
D03*
X775000Y2436000D02*
D03*
X825000Y2234000D02*
D03*
X1000000D02*
D03*
X2925000Y1075000D02*
D03*
X2800000Y2748497D02*
D03*
X-275000Y-325000D02*
D03*
X2075000Y2825000D02*
D03*
X2050000Y2600000D02*
D03*
X1050000Y2050000D02*
D03*
X-75000Y1025000D02*
D03*
X-405774Y978099D02*
D03*
X200000Y1014000D02*
D03*
X767797Y1894820D02*
D03*
X2008024Y2393976D02*
D03*
X2000000Y2191976D02*
D03*
X2271354Y2007298D02*
D03*
X2450000Y-25000D02*
D03*
X368503Y2146470D02*
D03*
X400000Y1100000D02*
D03*
X1250000Y1175000D02*
D03*
X1875369Y1221426D02*
D03*
X1875000Y1675000D02*
D03*
X1689189Y1464189D02*
D03*
X1725000Y1650000D02*
D03*
X2325000Y2875000D02*
D03*
X3650000Y400000D02*
D03*
X3875000Y525000D02*
D03*
X1775000Y3075000D02*
D03*
X3900000Y2050000D02*
D03*
X3950000Y1900000D02*
D03*
X3400000Y3332574D02*
D03*
X3525000Y3150000D02*
D03*
X3555311Y2241689D02*
D03*
X3525000Y2069689D02*
D03*
X3394955Y2320523D02*
D03*
X3550000Y2415496D02*
D03*
X3900000Y725000D02*
D03*
X3525000Y1925000D02*
D03*
X325000Y1950000D02*
D03*
X425091Y1803468D02*
D03*
X2315878Y559122D02*
D03*
X225000Y1675000D02*
D03*
X1625000Y2850000D02*
D03*
X1695497Y504573D02*
D03*
X1926504Y479803D02*
D03*
X-540431Y506206D02*
D03*
X604295Y955187D02*
D03*
X578237Y3051532D02*
D03*
X3500000Y725000D02*
D03*
X3450000Y-250000D02*
D03*
Y-75000D02*
D03*
X3425000Y-425000D02*
D03*
X3500000Y525000D02*
D03*
X2150000Y875000D02*
D03*
X325000Y-50000D02*
D03*
X-400000Y2800000D02*
D03*
X150000Y2650000D02*
D03*
X-75000Y2675000D02*
D03*
X573311Y2473311D02*
D03*
X364189Y2389189D02*
D03*
X2525000Y950000D02*
D03*
X3125000Y1350000D02*
D03*
X2976689Y1351689D02*
D03*
X3400000Y1200000D02*
D03*
X2300000Y1475000D02*
D03*
X725000Y1450000D02*
D03*
X1075000Y-100000D02*
D03*
X875000D02*
D03*
X675000Y1750000D02*
D03*
X550000Y1450000D02*
D03*
X1875000Y2875000D02*
D03*
D60*
X999999Y2750000D02*
D03*
X899999Y2850000D02*
D03*
Y2750000D02*
D03*
X799999Y2850000D02*
D03*
Y2750000D02*
D03*
D61*
X4100000Y2800000D02*
D03*
Y1450000D02*
D03*
D62*
X2614999Y2769997D02*
D03*
D63*
X2624001Y1865000D02*
D03*
Y1645001D02*
D03*
Y1754998D02*
D03*
Y1974998D02*
D03*
Y2085000D02*
D03*
Y2194997D02*
D03*
Y2304999D02*
D03*
Y2414997D02*
D03*
D64*
X2614999Y1504000D02*
D03*
D65*
X3519996Y1439500D02*
D03*
D66*
X2779997D02*
D03*
D67*
X1550000Y462502D02*
D03*
Y337503D02*
D03*
X1925001Y-162501D02*
D03*
Y-287499D02*
D03*
D68*
X275002Y799997D02*
D03*
Y949999D02*
D03*
D69*
X992999Y402502D02*
D03*
Y662501D02*
D03*
Y597503D02*
D03*
X456998Y77504D02*
D03*
Y142502D02*
D03*
Y857502D02*
D03*
Y922501D02*
D03*
X992999D02*
D03*
Y857502D02*
D03*
Y142502D02*
D03*
Y77504D02*
D03*
Y207501D02*
D03*
Y272500D02*
D03*
Y337503D02*
D03*
Y467500D02*
D03*
Y532504D02*
D03*
Y727500D02*
D03*
Y792504D02*
D03*
X456998D02*
D03*
Y727500D02*
D03*
Y662501D02*
D03*
Y597503D02*
D03*
Y532504D02*
D03*
Y467500D02*
D03*
Y402502D02*
D03*
Y337503D02*
D03*
Y272500D02*
D03*
Y207501D02*
D03*
D70*
X11Y395004D02*
D03*
Y805006D02*
D03*
%TF.MD5,7f5daa2d239ac2d76decea74ac75132d*%
M02*
