%TF.GenerationSoftware,Altium Limited,Altium Designer,23.4.1 (23)*%
G04 Layer_Color=32896*
%FSLAX45Y45*%
%MOMM*%
%TF.SameCoordinates,640A0DE8-BAFA-4507-9DCD-DBD9925EBA1E*%
%TF.FilePolarity,Positive*%
%TF.FileFunction,Legend,Bot*%
%TF.Part,Single*%
G01*
G75*
%TA.AperFunction,NonConductor*%
%ADD72C,0.25000*%
%ADD73C,0.20000*%
%ADD75C,0.10000*%
D72*
X3597503Y3115001D02*
G03*
X3597503Y3115001I-12500J0D01*
G01*
X4685000Y800000D02*
G03*
X4685000Y800000I-12500J0D01*
G01*
Y1750000D02*
G03*
X4685000Y1750000I-12500J0D01*
G01*
X1437496Y780005D02*
G03*
X1437496Y780005I-12500J0D01*
G01*
D73*
X5212506Y3247694D02*
G03*
X5250573Y2265211I1530123J-432693D01*
G01*
X5212497Y3247697D02*
Y3366000D01*
X4729998Y2110000D02*
X5074996D01*
X3984996D02*
X4509999D01*
X3830000Y3540000D02*
X5074996D01*
X5262502Y270003D02*
Y830002D01*
X4837504Y950001D02*
X5062503D01*
X4837504Y870002D02*
Y950001D01*
Y150003D02*
Y230003D01*
Y150003D02*
X5062503D01*
X4837504Y3800004D02*
X5062502D01*
X4837504D02*
Y3880004D01*
Y4220003D02*
Y4300003D01*
X5062502D01*
X5262502Y3920004D02*
Y4180003D01*
Y1219999D02*
Y1780003D01*
X4837504Y1900002D02*
X5062502D01*
X4837504Y1820002D02*
Y1900002D01*
Y1099999D02*
Y1179999D01*
Y1099999D02*
X5062502D01*
X2552490Y779998D02*
X2597489D01*
X2552490Y919998D02*
X2597489D01*
X2477499Y415000D02*
X2622497D01*
X2477499Y685002D02*
X2622497D01*
X2570001Y1459997D02*
X2730000D01*
X2570001Y1639996D02*
X2730000D01*
X1465004Y1494998D02*
Y1654998D01*
X1284999Y1494998D02*
Y1654998D01*
X2569996Y1310000D02*
X2729995D01*
X2569996Y1489999D02*
X2729995D01*
X2397504Y1087501D02*
X2502503D01*
X2397504Y1212499D02*
X2502503D01*
X2362498Y1247495D02*
Y1352499D01*
X2237499Y1247495D02*
Y1352499D01*
X2362503Y972500D02*
Y1077498D01*
X2237505Y972500D02*
Y1077498D01*
X1599995Y710001D02*
X2049997D01*
Y1679001D02*
Y1690004D01*
Y710001D02*
Y721004D01*
X1599995Y1690004D02*
X2049997D01*
X1599995Y1679001D02*
Y1690004D01*
Y710001D02*
Y721004D01*
X1270008Y1040003D02*
Y1560007D01*
X930009D02*
X942511D01*
X1257512D02*
X1270008D01*
X930009Y1040003D02*
Y1560007D01*
Y1040003D02*
X942511D01*
X1257512D02*
X1270008D01*
X1462505Y897499D02*
Y1002497D01*
X1337501Y897499D02*
Y1002497D01*
D75*
X4692500Y4150000D02*
G03*
X4692500Y4150000I-5000J0D01*
G01*
%TF.MD5,3a00b542692dfba789fbdb31559de4b7*%
M02*
