%TF.GenerationSoftware,Altium Limited,Altium Designer,23.4.1 (23)*%
G04 Layer_Color=8388736*
%FSLAX45Y45*%
%MOMM*%
%TF.SameCoordinates,4A4EADC6-D63E-4973-9290-F54A389017C5*%
%TF.FilePolarity,Negative*%
%TF.FileFunction,Soldermask,Top*%
%TF.Part,Single*%
G01*
G75*
%TA.AperFunction,SMDPad,CuDef*%
%ADD11R,0.50000X0.35000*%
%ADD15R,1.25000X1.10000*%
%ADD16R,1.20840X1.01213*%
G04:AMPARAMS|DCode=18|XSize=0.73107mm|YSize=0.30247mm|CornerRadius=0.15124mm|HoleSize=0mm|Usage=FLASHONLY|Rotation=90.000|XOffset=0mm|YOffset=0mm|HoleType=Round|Shape=RoundedRectangle|*
%AMROUNDEDRECTD18*
21,1,0.73107,0.00000,0,0,90.0*
21,1,0.42859,0.30247,0,0,90.0*
1,1,0.30247,0.00000,0.21430*
1,1,0.30247,0.00000,-0.21430*
1,1,0.30247,0.00000,-0.21430*
1,1,0.30247,0.00000,0.21430*
%
%ADD18ROUNDEDRECTD18*%
%ADD19R,2.50000X1.75000*%
G04:AMPARAMS|DCode=20|XSize=0.31247mm|YSize=1.78828mm|CornerRadius=0.15624mm|HoleSize=0mm|Usage=FLASHONLY|Rotation=180.000|XOffset=0mm|YOffset=0mm|HoleType=Round|Shape=RoundedRectangle|*
%AMROUNDEDRECTD20*
21,1,0.31247,1.47581,0,0,180.0*
21,1,0.00000,1.78828,0,0,180.0*
1,1,0.31247,0.00000,0.73791*
1,1,0.31247,0.00000,0.73791*
1,1,0.31247,0.00000,-0.73791*
1,1,0.31247,0.00000,-0.73791*
%
%ADD20ROUNDEDRECTD20*%
%ADD22R,0.50000X0.40000*%
%ADD26R,0.52000X0.52000*%
G04:AMPARAMS|DCode=27|XSize=1.78828mm|YSize=0.31247mm|CornerRadius=0.15624mm|HoleSize=0mm|Usage=FLASHONLY|Rotation=180.000|XOffset=0mm|YOffset=0mm|HoleType=Round|Shape=RoundedRectangle|*
%AMROUNDEDRECTD27*
21,1,1.78828,0.00000,0,0,180.0*
21,1,1.47581,0.31247,0,0,180.0*
1,1,0.31247,-0.73791,0.00000*
1,1,0.31247,0.73791,0.00000*
1,1,0.31247,0.73791,0.00000*
1,1,0.31247,-0.73791,0.00000*
%
%ADD27ROUNDEDRECTD27*%
%TA.AperFunction,ConnectorPad*%
%ADD28R,0.95872X0.91213*%
%TA.AperFunction,SMDPad,CuDef*%
%ADD32R,0.70000X1.30000*%
%ADD33R,1.01213X1.20840*%
%ADD35R,0.75000X1.00000*%
%ADD36R,0.80000X1.70000*%
%ADD38R,1.78828X0.31247*%
%ADD42R,1.90000X2.40000*%
%ADD44R,6.80000X2.84000*%
%ADD45R,0.30247X0.73107*%
%TA.AperFunction,ComponentPad*%
%ADD52C,0.75000*%
%TA.AperFunction,NonConductor*%
%ADD77C,0.70320*%
%TA.AperFunction,SMDPad,CuDef*%
%ADD78R,1.00320X0.55320*%
%ADD79R,0.55320X1.05320*%
%ADD80R,2.90320X2.80320*%
%ADD81R,0.60320X2.20320*%
%ADD82R,1.15320X1.00320*%
%ADD83R,1.25320X1.15320*%
%TA.AperFunction,ConnectorPad*%
%ADD84R,1.55320X0.60320*%
%TA.AperFunction,SMDPad,CuDef*%
%ADD85R,2.00320X0.80320*%
%ADD86R,0.80320X2.00320*%
G04:AMPARAMS|DCode=87|XSize=2.1032mm|YSize=3.4032mm|CornerRadius=0mm|HoleSize=0mm|Usage=FLASHONLY|Rotation=180.000|XOffset=0mm|YOffset=0mm|HoleType=Round|Shape=Octagon|*
%AMOCTAGOND87*
4,1,8,0.52580,-1.70160,-0.52580,-1.70160,-1.05160,-1.17580,-1.05160,1.17580,-0.52580,1.70160,0.52580,1.70160,1.05160,1.17580,1.05160,-1.17580,0.52580,-1.70160,0.0*
%
%ADD87OCTAGOND87*%

%ADD88R,1.75320X0.80320*%
%ADD89R,2.00320X1.40320*%
%ADD90R,1.05320X0.90320*%
%ADD91R,1.00320X1.15320*%
%ADD92R,1.60320X0.80320*%
%ADD93R,0.65320X0.65320*%
%ADD94R,0.80320X0.90320*%
%ADD95R,1.15320X1.05320*%
%TA.AperFunction,ConnectorPad*%
%ADD96R,2.10320X1.70320*%
%TA.AperFunction,SMDPad,CuDef*%
%ADD97R,0.80320X1.60320*%
%ADD98R,1.05320X0.90320*%
%TA.AperFunction,ViaPad*%
G04:AMPARAMS|DCode=99|XSize=1.7272mm|YSize=2.2032mm|CornerRadius=0.4826mm|HoleSize=0mm|Usage=FLASHONLY|Rotation=0.000|XOffset=0mm|YOffset=0mm|HoleType=Round|Shape=RoundedRectangle|*
%AMROUNDEDRECTD99*
21,1,1.72720,1.23800,0,0,0.0*
21,1,0.76200,2.20320,0,0,0.0*
1,1,0.96520,0.38100,-0.61900*
1,1,0.96520,-0.38100,-0.61900*
1,1,0.96520,-0.38100,0.61900*
1,1,0.96520,0.38100,0.61900*
%
%ADD99ROUNDEDRECTD99*%
%TA.AperFunction,ComponentPad*%
%ADD100C,1.65320*%
%TA.AperFunction,ViaPad*%
%ADD101C,1.72720*%
%ADD102C,0.70320*%
G36*
X3946328Y930094D02*
X3947634Y929834D01*
X3948895Y929406D01*
X3950090Y928817D01*
X3951197Y928077D01*
X3952198Y927199D01*
X3953076Y926198D01*
X3953816Y925090D01*
X3954406Y923896D01*
X3954834Y922634D01*
X3955093Y921328D01*
X3955181Y919999D01*
Y789999D01*
X3955093Y788670D01*
X3954834Y787364D01*
X3954406Y786103D01*
X3953816Y784908D01*
X3953076Y783801D01*
X3952198Y782800D01*
X3951197Y781921D01*
X3950090Y781182D01*
X3948895Y780592D01*
X3947634Y780164D01*
X3946328Y779904D01*
X3944999Y779817D01*
X3905183D01*
Y740001D01*
X3905096Y738672D01*
X3904836Y737366D01*
X3904408Y736105D01*
X3904118Y735516D01*
X3903819Y734911D01*
X3903079Y733803D01*
X3902201Y732802D01*
X3902201D01*
Y732802D01*
X3901200Y731924D01*
X3900092Y731184D01*
X3899487Y730885D01*
X3898898Y730594D01*
X3897637Y730166D01*
X3896331Y729907D01*
X3895002Y729819D01*
X3804999Y729817D01*
X3804999D01*
D01*
X3803670Y729904D01*
X3802363Y730164D01*
X3801102Y730592D01*
X3800513Y730883D01*
X3799908Y731181D01*
X3798801Y731921D01*
X3797799Y732799D01*
Y732799D01*
X3797799D01*
X3796921Y733801D01*
X3796181Y734908D01*
X3795883Y735513D01*
X3795592Y736102D01*
X3795164Y737364D01*
X3794904Y738670D01*
X3794817Y739999D01*
Y739999D01*
D01*
Y779817D01*
X3754999D01*
X3753670Y779904D01*
X3752363Y780164D01*
X3751102Y780592D01*
X3749908Y781182D01*
X3748800Y781921D01*
X3747799Y782800D01*
X3746921Y783801D01*
X3746181Y784908D01*
X3745592Y786103D01*
X3745164Y787364D01*
X3744904Y788670D01*
X3744817Y789999D01*
Y919999D01*
X3744904Y921328D01*
X3745164Y922634D01*
X3745592Y923896D01*
X3746181Y925090D01*
X3746921Y926198D01*
X3747799Y927199D01*
X3748800Y928077D01*
X3749908Y928817D01*
X3751102Y929406D01*
X3752363Y929834D01*
X3753670Y930094D01*
X3754999Y930181D01*
X3944999D01*
X3946328Y930094D01*
D02*
G37*
G36*
X3896327Y1570094D02*
X3897634Y1569834D01*
X3898895Y1569406D01*
X3899484Y1569116D01*
X3900089Y1568817D01*
X3901197Y1568077D01*
X3902198Y1567199D01*
Y1567199D01*
X3902198D01*
X3903076Y1566198D01*
X3903816Y1565090D01*
X3904115Y1564485D01*
X3904405Y1563896D01*
X3904833Y1562635D01*
X3905093Y1561329D01*
X3905180Y1560000D01*
Y1559999D01*
D01*
Y1520181D01*
X3944999D01*
X3946328Y1520094D01*
X3947634Y1519834D01*
X3948895Y1519406D01*
X3950090Y1518817D01*
X3951197Y1518077D01*
X3952198Y1517199D01*
X3953076Y1516198D01*
X3953816Y1515090D01*
X3954406Y1513896D01*
X3954834Y1512635D01*
X3955093Y1511328D01*
X3955181Y1509999D01*
Y1379999D01*
X3955093Y1378670D01*
X3954834Y1377364D01*
X3954406Y1376103D01*
X3953816Y1374908D01*
X3953076Y1373801D01*
X3952198Y1372800D01*
X3951197Y1371922D01*
X3950090Y1371182D01*
X3948895Y1370592D01*
X3947634Y1370164D01*
X3946328Y1369905D01*
X3944999Y1369817D01*
X3754999D01*
X3753670Y1369905D01*
X3752363Y1370164D01*
X3751102Y1370592D01*
X3749908Y1371182D01*
X3748800Y1371922D01*
X3747799Y1372800D01*
X3746921Y1373801D01*
X3746181Y1374908D01*
X3745592Y1376103D01*
X3745164Y1377364D01*
X3744904Y1378670D01*
X3744817Y1379999D01*
Y1509999D01*
X3744904Y1511328D01*
X3745164Y1512635D01*
X3745592Y1513896D01*
X3746181Y1515090D01*
X3746921Y1516198D01*
X3747799Y1517199D01*
X3748800Y1518077D01*
X3749908Y1518817D01*
X3751102Y1519406D01*
X3752363Y1519834D01*
X3753670Y1520094D01*
X3754999Y1520181D01*
X3794814D01*
Y1559997D01*
X3794901Y1561326D01*
X3795161Y1562632D01*
X3795589Y1563893D01*
X3795880Y1564483D01*
X3796178Y1565088D01*
X3796918Y1566195D01*
X3797796Y1567197D01*
X3797796D01*
Y1567197D01*
X3798798Y1568075D01*
X3799905Y1568815D01*
X3800510Y1569113D01*
X3801099Y1569404D01*
X3802360Y1569832D01*
X3803667Y1570092D01*
X3804996Y1570179D01*
X3894998Y1570181D01*
X3894999D01*
D01*
X3896327Y1570094D01*
D02*
G37*
D11*
X1570000Y697500D02*
D03*
Y632502D02*
D03*
Y567503D02*
D03*
Y502504D02*
D03*
X1730005D02*
D03*
Y567503D02*
D03*
Y632502D02*
D03*
Y697500D02*
D03*
D15*
X3817504Y3150002D02*
D03*
Y2950003D02*
D03*
Y2749998D02*
D03*
Y2549998D02*
D03*
X3582503Y3150002D02*
D03*
Y2549998D02*
D03*
Y2749998D02*
D03*
Y2950003D02*
D03*
D16*
X3030185Y2949998D02*
D03*
X460371Y950002D02*
D03*
X2869810Y2949998D02*
D03*
X300000Y950002D02*
D03*
D18*
X1632500Y3289052D02*
D03*
X1697498Y3010947D02*
D03*
X1502497Y3289052D02*
D03*
X1567496D02*
D03*
X1697498D02*
D03*
X1632500Y3010947D02*
D03*
X1567496D02*
D03*
D19*
X1599998Y3150002D02*
D03*
D20*
X2203786Y2688240D02*
D03*
X1553790Y2688235D02*
D03*
X2203786Y1549995D02*
D03*
X2153789Y2688240D02*
D03*
X2103786D02*
D03*
X2253789Y1549995D02*
D03*
X1503788Y2688235D02*
D03*
X2253789Y2688240D02*
D03*
X2053789Y2688235D02*
D03*
X2003787D02*
D03*
X1953789Y2688240D02*
D03*
X1903787D02*
D03*
X1853790D02*
D03*
X1803787Y2688235D02*
D03*
X1753790Y2688240D02*
D03*
X1703787D02*
D03*
X1653790D02*
D03*
X1603787D02*
D03*
X1503788Y1549995D02*
D03*
X1553790D02*
D03*
X1603782D02*
D03*
X1653790D02*
D03*
X1703787D02*
D03*
X1753790D02*
D03*
X1803787D02*
D03*
X1853790D02*
D03*
X1903787D02*
D03*
X1953789D02*
D03*
X2003787D02*
D03*
X2053789D02*
D03*
X2103781D02*
D03*
X2153789D02*
D03*
D22*
X3100000Y2340001D02*
D03*
X2854433Y1809853D02*
D03*
X599995Y2209999D02*
D03*
X588900Y1726180D02*
D03*
X2854433Y1729853D02*
D03*
X600000Y2020002D02*
D03*
X3100000Y2260002D02*
D03*
X588900Y1646180D02*
D03*
X600000Y2100002D02*
D03*
X599995Y2289999D02*
D03*
D26*
X2700006Y2589998D02*
D03*
X1550000Y1090001D02*
D03*
X1449996Y1090006D02*
D03*
X1049996Y2540001D02*
D03*
X450003Y1890000D02*
D03*
X1350001Y1090006D02*
D03*
X1250001Y1090001D02*
D03*
X1350001Y690002D02*
D03*
Y490003D02*
D03*
Y1010007D02*
D03*
X1449996D02*
D03*
X1550000Y1010002D02*
D03*
X1250001D02*
D03*
X1350001Y610002D02*
D03*
Y410003D02*
D03*
X450003Y1810000D02*
D03*
X1049996Y2460001D02*
D03*
X2700006Y2509999D02*
D03*
D27*
X2447911Y2294114D02*
D03*
X1309666Y1794115D02*
D03*
Y1744117D02*
D03*
X2447911Y1794115D02*
D03*
Y1844117D02*
D03*
Y1894115D02*
D03*
Y1944117D02*
D03*
Y1994119D02*
D03*
X2447906Y2044117D02*
D03*
X2447911Y2094119D02*
D03*
Y2144117D02*
D03*
Y2194119D02*
D03*
Y2244111D02*
D03*
Y2344116D02*
D03*
Y2394119D02*
D03*
Y2444116D02*
D03*
Y2494118D02*
D03*
X1309666D02*
D03*
Y2444116D02*
D03*
Y2394119D02*
D03*
Y2344116D02*
D03*
Y2294119D02*
D03*
Y2244116D02*
D03*
Y2194119D02*
D03*
Y2144117D02*
D03*
Y2094119D02*
D03*
Y2044117D02*
D03*
Y1994119D02*
D03*
Y1944117D02*
D03*
Y1894115D02*
D03*
Y1844112D02*
D03*
D28*
X1127329Y3299999D02*
D03*
X1272673D02*
D03*
D32*
X704998Y2500001D02*
D03*
X895000D02*
D03*
D33*
X450003Y2600001D02*
D03*
Y2439625D02*
D03*
D35*
X3275001Y2549998D02*
D03*
X424999Y1150001D02*
D03*
X275002D02*
D03*
X3425003Y3150002D02*
D03*
X3275001D02*
D03*
X3424998Y2549998D02*
D03*
X3275001Y2750003D02*
D03*
X3424998D02*
D03*
X3274996Y2950003D02*
D03*
X3424998D02*
D03*
D36*
X3870402Y2278000D02*
D03*
X3530398D02*
D03*
D38*
X2447911Y1744112D02*
D03*
D42*
X1995003Y500010D02*
D03*
X2405005D02*
D03*
D44*
X2150004Y950002D02*
D03*
D45*
X1502497Y3010947D02*
D03*
D52*
X3700400Y2278000D02*
D03*
D77*
X3904088Y1533288D02*
G03*
X3902712Y1533780I-9090J-23289D01*
G01*
X3904088Y1533288D02*
G03*
X3902712Y1533780I-9090J-23289D01*
G01*
X3902711Y1533780D02*
G03*
X3897286Y1534894I-7712J-23781D01*
G01*
X3902711Y1533780D02*
G03*
X3897286Y1534894I-7712J-23781D01*
G01*
X3902711Y1533780D02*
G03*
X3897286Y1534894I-7712J-23781D01*
G01*
X3902711Y1533780D02*
G03*
X3897286Y1534894I-7712J-23781D01*
G01*
X3897278Y1534895D02*
G03*
X3895000Y1534999I-2279J-24896D01*
G01*
X3897278Y1534895D02*
G03*
X3895000Y1534999I-2279J-24896D01*
G01*
X3897278Y1534895D02*
G03*
X3895000Y1534999I-2279J-24896D01*
G01*
X3897278Y1534895D02*
G03*
X3895000Y1534999I-2279J-24896D01*
G01*
X3917910Y1520002D02*
G03*
X3904094Y1533286I-22912J-10002D01*
G01*
X3917910Y1520002D02*
G03*
X3904094Y1533286I-22912J-10002D01*
G01*
X3904088Y1533288D02*
G03*
X3902712Y1533780I-9090J-23289D01*
G01*
X3904088Y1533288D02*
G03*
X3902712Y1533780I-9090J-23289D01*
G01*
X3917910Y1520002D02*
G03*
X3904094Y1533286I-22912J-10002D01*
G01*
X3917910Y1520002D02*
G03*
X3904094Y1533286I-22912J-10002D01*
G01*
X3895000Y1534999D02*
G03*
X3877548Y1527901I-1J-25000D01*
G01*
X3895000Y1534999D02*
G03*
X3877548Y1527901I-1J-25000D01*
G01*
X3895000Y1534999D02*
G03*
X3877548Y1527901I-1J-25000D01*
G01*
X3895000Y1534999D02*
G03*
X3877548Y1527901I-1J-25000D01*
G01*
X3919892Y1512307D02*
G03*
X3919891Y1512317I-24893J-2307D01*
G01*
X3919894Y1512287D02*
G03*
X3919892Y1512306I-24895J-2288D01*
G01*
Y1512307D02*
G03*
X3919891Y1512317I-24893J-2307D01*
G01*
X3919894Y1512287D02*
G03*
X3919892Y1512306I-24895J-2288D01*
G01*
X3919894Y1512287D02*
G03*
X3919892Y1512306I-24895J-2288D01*
G01*
Y1512307D02*
G03*
X3919891Y1512317I-24893J-2307D01*
G01*
X3919892Y1512307D02*
G03*
X3919891Y1512317I-24893J-2307D01*
G01*
X3919999Y1510002D02*
G03*
X3919960Y1511377I-25000J-2D01*
G01*
X3919999Y1510002D02*
G03*
X3919960Y1511377I-25000J-2D01*
G01*
X3919960Y1511389D02*
G03*
X3919894Y1512280I-24961J-1389D01*
G01*
X3919960Y1511379D02*
G03*
X3919960Y1511389I-24962J-1380D01*
G01*
X3919999Y1510002D02*
G03*
X3919960Y1511377I-25000J-2D01*
G01*
X3919999Y1510002D02*
G03*
X3919960Y1511377I-25000J-2D01*
G01*
X3919960Y1511389D02*
G03*
X3919894Y1512280I-24961J-1389D01*
G01*
X3919960Y1511379D02*
G03*
X3919960Y1511389I-24962J-1380D01*
G01*
X3919894Y1512287D02*
G03*
X3919892Y1512306I-24895J-2288D01*
G01*
X3919960Y1511389D02*
G03*
X3919894Y1512280I-24961J-1389D01*
G01*
X3919960Y1511379D02*
G03*
X3919960Y1511389I-24962J-1380D01*
G01*
D02*
G03*
X3919894Y1512280I-24961J-1389D01*
G01*
X3919960Y1511379D02*
G03*
X3919960Y1511389I-24962J-1380D01*
G01*
X3918838Y1517526D02*
G03*
X3918286Y1519092I-23840J-7527D01*
G01*
X3918838Y1517526D02*
G03*
X3918286Y1519092I-23840J-7527D01*
G01*
X3918838Y1517526D02*
G03*
X3918286Y1519092I-23840J-7527D01*
G01*
X3919261Y1516027D02*
G03*
X3918840Y1517521I-24263J-6027D01*
G01*
X3919261Y1516027D02*
G03*
X3918840Y1517521I-24263J-6027D01*
G01*
X3918285Y1519095D02*
G03*
X3917910Y1520002I-23287J-9095D01*
G01*
X3918285Y1519095D02*
G03*
X3917910Y1520002I-23287J-9095D01*
G01*
X3918285Y1519095D02*
G03*
X3917910Y1520002I-23287J-9095D01*
G01*
X3918838Y1517526D02*
G03*
X3918286Y1519092I-23840J-7527D01*
G01*
X3918285Y1519095D02*
G03*
X3917910Y1520002I-23287J-9095D01*
G01*
X3919261Y1516027D02*
G03*
X3918840Y1517521I-24263J-6027D01*
G01*
X3919999Y1509991D02*
G03*
X3919999Y1509999I-25000J8D01*
G01*
X3918181Y1500642D02*
G03*
X3919999Y1509991I-23183J9357D01*
G01*
X3919261Y1516027D02*
G03*
X3918840Y1517521I-24263J-6027D01*
G01*
X3919999Y1509991D02*
G03*
X3919999Y1509999I-25000J8D01*
G01*
X3918181Y1500642D02*
G03*
X3919999Y1509991I-23183J9357D01*
G01*
X3918180Y1500638D02*
G03*
X3918181Y1500642I-23181J9362D01*
G01*
X3918180Y1500638D02*
G03*
X3918181Y1500642I-23181J9362D01*
G01*
X3917910Y1499997D02*
G03*
X3918178Y1500634I-22912J10002D01*
G01*
X3917910Y1499997D02*
G03*
X3918178Y1500634I-22912J10002D01*
G01*
X3917910Y1499997D02*
G03*
X3918178Y1500634I-22912J10002D01*
G01*
X3917910Y1499997D02*
G03*
X3918178Y1500634I-22912J10002D01*
G01*
X3879841Y809880D02*
G03*
X3873333Y802473I15157J-19881D01*
G01*
X3879841Y809880D02*
G03*
X3873333Y802473I15157J-19881D01*
G01*
X3827911Y1499998D02*
G03*
X3829279Y1504043I-22912J10001D01*
G01*
X3782086Y1499998D02*
G03*
X3827911Y1499998I22912J10001D01*
G01*
X3829998Y1510000D02*
G03*
X3782086Y1499998I-25000J-0D01*
G01*
X3827911D02*
G03*
X3829279Y1504043I-22912J10001D01*
G01*
X3782086Y1499998D02*
G03*
X3827911Y1499998I22912J10001D01*
G01*
X3829998Y1510000D02*
G03*
X3782086Y1499998I-25000J-0D01*
G01*
X3873333Y802473D02*
G03*
X3870580Y795358I21665J-12474D01*
G01*
X3873333Y802473D02*
G03*
X3870580Y795358I21665J-12474D01*
G01*
X3870579Y795355D02*
G03*
X3870087Y792100I24420J-5356D01*
G01*
X3870579Y795355D02*
G03*
X3870087Y792100I24420J-5356D01*
G01*
Y792100D02*
G03*
X3870001Y790318I24912J-2100D01*
G01*
Y790317D02*
G03*
X3869999Y790134I24998J-318D01*
G01*
X3870001Y790317D02*
G03*
X3869999Y790134I24998J-318D01*
G01*
D02*
G03*
X3869999Y790098I25000J-135D01*
G01*
Y790098D02*
G03*
X3869999Y790093I25000J-99D01*
G01*
Y790134D02*
G03*
X3869999Y790098I25000J-135D01*
G01*
Y790098D02*
G03*
X3869999Y790093I25000J-99D01*
G01*
Y790093D02*
G03*
X3869999Y790088I25000J-94D01*
G01*
Y790093D02*
G03*
X3869999Y790088I25000J-94D01*
G01*
D02*
G03*
X3869999Y790048I25000J-89D01*
G01*
X3869999Y790088D02*
G03*
X3869999Y790048I25000J-89D01*
G01*
X3874987Y1524984D02*
G03*
X3874974Y1524966I20012J-14984D01*
G01*
X3874987Y1524984D02*
G03*
X3874974Y1524966I20012J-14984D01*
G01*
X3919891Y1512318D02*
G03*
X3919269Y1515995I-24892J-2319D01*
G01*
X3919891Y1512318D02*
G03*
X3919269Y1515995I-24892J-2319D01*
G01*
X3919891Y1512318D02*
G03*
X3919269Y1515995I-24892J-2319D01*
G01*
X3919891Y1512318D02*
G03*
X3919269Y1515995I-24892J-2319D01*
G01*
X3872091Y1499988D02*
G03*
X3917910Y1499996I22908J10011D01*
G01*
X3874973Y1524965D02*
G03*
X3872086Y1499998I20026J-14966D01*
G01*
X3872091Y1499988D02*
G03*
X3917910Y1499996I22908J10011D01*
G01*
X3872091Y1499988D02*
G03*
X3917910Y1499996I22908J10011D01*
G01*
X3872091Y1499988D02*
G03*
X3917910Y1499996I22908J10011D01*
G01*
X3874973Y1524965D02*
G03*
X3872086Y1499999I20026J-14966D01*
G01*
X3872087Y1499997D02*
G03*
X3872090Y1499990I22912J10003D01*
G01*
X3872087Y1499997D02*
G03*
X3872090Y1499990I22912J10003D01*
G01*
X3869999Y790046D02*
G03*
X3869999Y790002I25000J-47D01*
G01*
Y790046D02*
G03*
X3869999Y790002I25000J-47D01*
G01*
X3906058Y812420D02*
G03*
X3904070Y813296I-11059J-22421D01*
G01*
X3906058Y812420D02*
G03*
X3904070Y813296I-11059J-22421D01*
G01*
X3916300Y803086D02*
G03*
X3906058Y812420I-21301J-13087D01*
G01*
X3919999Y790002D02*
G03*
X3916300Y803086I-25000J-3D01*
G01*
X3884064Y812481D02*
G03*
X3882525Y811665I10935J-22482D01*
G01*
X3904066Y813297D02*
G03*
X3884067Y812482I-9067J-23298D01*
G01*
X3919999Y790002D02*
G03*
X3916300Y803086I-25000J-3D01*
G01*
D02*
G03*
X3906058Y812420I-21301J-13087D01*
G01*
X3884064Y812481D02*
G03*
X3882525Y811665I10935J-22482D01*
G01*
X3882523Y811664D02*
G03*
X3879841Y809880I12476J-21664D01*
G01*
X3882523Y811664D02*
G03*
X3879841Y809880I12476J-21664D01*
G01*
X3919264Y1516017D02*
G03*
X3919262Y1516022I-24265J-6017D01*
G01*
X3919264Y1516017D02*
G03*
X3919262Y1516022I-24265J-6017D01*
G01*
X3904066Y813297D02*
G03*
X3884068Y812483I-9067J-23298D01*
G01*
X3869999Y790000D02*
G03*
X3919999Y789999I25000J-1D01*
G01*
X3919267Y1516001D02*
G03*
X3919266Y1516006I-24269J-6002D01*
G01*
X3919267Y1516001D02*
G03*
X3919266Y1516006I-24269J-6002D01*
G01*
X3877538Y1527892D02*
G03*
X3877529Y1527883I17460J-17892D01*
G01*
X3877538Y1527892D02*
G03*
X3877529Y1527883I17460J-17892D01*
G01*
D02*
G03*
X3877525Y1527879I17470J-17883D01*
G01*
X3877529Y1527883D02*
G03*
X3877525Y1527879I17470J-17883D01*
G01*
X3877524Y1527878D02*
G03*
X3876896Y1527241I17475J-17878D01*
G01*
X3877524Y1527878D02*
G03*
X3876896Y1527241I17475J-17878D01*
G01*
X3876895Y1527241D02*
G03*
X3876884Y1527229I18103J-17242D01*
G01*
X3876895Y1527241D02*
G03*
X3876884Y1527229I18103J-17242D01*
G01*
X3877548Y1527901D02*
G03*
X3877544Y1527898I17451J-17902D01*
G01*
X3877548Y1527901D02*
G03*
X3877544Y1527898I17451J-17902D01*
G01*
X3829999Y790001D02*
G03*
X3805002Y764999I-25000J-2D01*
G01*
X3821750Y771441D02*
G03*
X3829999Y789995I-16751J18558D01*
G01*
X3821750Y771441D02*
G03*
X3829999Y789995I-16751J18558D01*
G01*
X3821746Y771438D02*
G03*
X3821749Y771441I-16747J18562D01*
G01*
X3821746Y771438D02*
G03*
X3821749Y771441I-16747J18562D01*
G01*
X3805003Y764999D02*
G03*
X3821746Y771438I-5J25000D01*
G01*
X3805003Y764999D02*
G03*
X3821746Y771438I-5J25000D01*
G01*
X3877542Y1527895D02*
G03*
X3877539Y1527892I17456J-17896D01*
G01*
X3877542Y1527895D02*
G03*
X3877539Y1527892I17456J-17896D01*
G01*
X3876879Y1527224D02*
G03*
X3874988Y1524986I18119J-17225D01*
G01*
X3876879Y1527224D02*
G03*
X3874988Y1524986I18119J-17225D01*
G01*
X3829279Y1504043D02*
G03*
X3829998Y1509999I-24280J5956D01*
G01*
X3829999Y789995D02*
G03*
X3829999Y789999I-25000J5D01*
G01*
Y790001D02*
G03*
X3805001Y764999I-25000J-2D01*
G01*
D78*
X624998Y1127497D02*
D03*
Y1077499D02*
D03*
Y1027497D02*
D03*
Y977495D02*
D03*
Y927497D02*
D03*
Y877495D02*
D03*
X1024998D02*
D03*
Y927497D02*
D03*
Y977495D02*
D03*
Y1027497D02*
D03*
Y1077499D02*
D03*
Y1127497D02*
D03*
D79*
X700000Y804998D02*
D03*
X749997D02*
D03*
X799999D02*
D03*
X849997D02*
D03*
X899999D02*
D03*
X950002D02*
D03*
Y1199999D02*
D03*
X899999D02*
D03*
X849997D02*
D03*
X799999D02*
D03*
X749997D02*
D03*
X700000D02*
D03*
D80*
X824998Y1002498D02*
D03*
D81*
X2300001Y3050008D02*
D03*
X2180002D02*
D03*
X2420001D02*
D03*
D82*
X3450002Y1884996D02*
D03*
X1150001Y1335005D02*
D03*
Y1465002D02*
D03*
X3450002Y2014998D02*
D03*
D83*
X2949998Y2227500D02*
D03*
Y2372498D02*
D03*
D84*
X3579999Y1279998D02*
D03*
Y1215000D02*
D03*
Y1150001D02*
D03*
Y1085003D02*
D03*
Y1019999D02*
D03*
D85*
X3080000Y1550000D02*
D03*
D86*
X800004Y2830008D02*
D03*
D87*
Y3080005D02*
D03*
D88*
X45000Y3699999D02*
D03*
Y2349999D02*
D03*
Y1650000D02*
D03*
Y649997D02*
D03*
Y850002D02*
D03*
Y750002D02*
D03*
Y549997D02*
D03*
Y449998D02*
D03*
Y349998D02*
D03*
Y2449999D02*
D03*
Y3049997D02*
D03*
Y2949998D02*
D03*
Y2849998D02*
D03*
Y2749998D02*
D03*
Y2649998D02*
D03*
Y2549998D02*
D03*
Y1850000D02*
D03*
Y1750000D02*
D03*
Y1550000D02*
D03*
Y1450001D02*
D03*
Y1350001D02*
D03*
Y3599999D02*
D03*
Y3799998D02*
D03*
D89*
X-342498Y3930001D02*
D03*
Y3180000D02*
D03*
Y3470002D02*
D03*
Y2219997D02*
D03*
Y1980002D02*
D03*
Y1219999D02*
D03*
Y979999D02*
D03*
Y220001D02*
D03*
D90*
X3327503Y2349999D02*
D03*
X3172502D02*
D03*
D91*
X2687499Y1450001D02*
D03*
X2612493Y1250001D02*
D03*
X2737491D02*
D03*
X2812502Y1450001D02*
D03*
D92*
X3060000Y1399998D02*
D03*
Y1700003D02*
D03*
D93*
X3399999Y959999D02*
D03*
Y1039999D02*
D03*
Y1190001D02*
D03*
Y1110001D02*
D03*
D94*
X1045003Y450003D02*
D03*
X855001D02*
D03*
X950002Y650002D02*
D03*
D95*
X899999Y1332500D02*
D03*
D96*
X3850001Y1250001D02*
D03*
Y1050001D02*
D03*
D97*
X950007Y2810008D02*
D03*
X650007D02*
D03*
D98*
X2749998Y349998D02*
D03*
D99*
X2500001Y3799998D02*
D03*
X899999Y149998D02*
D03*
X1150001D02*
D03*
X3250002Y3550002D02*
D03*
X3000000D02*
D03*
X2749998D02*
D03*
X2500001D02*
D03*
X2249999D02*
D03*
X2000002D02*
D03*
X1750000D02*
D03*
X1499998D02*
D03*
X1250001D02*
D03*
X1650000Y149998D02*
D03*
X3399999D02*
D03*
X3150002D02*
D03*
X2900000D02*
D03*
X2649998D02*
D03*
X2400001D02*
D03*
X2149999D02*
D03*
X650002D02*
D03*
X1900002D02*
D03*
X1399998D02*
D03*
X750002Y3799998D02*
D03*
X999999D02*
D03*
X1250001D02*
D03*
X1499998D02*
D03*
X999999Y3550002D02*
D03*
X750002D02*
D03*
X2000002Y3799998D02*
D03*
X1750000D02*
D03*
X2249999D02*
D03*
X2749998D02*
D03*
X3000000D02*
D03*
X3250002D02*
D03*
D100*
X3579999Y899999D02*
D03*
Y1399998D02*
D03*
D101*
X450003Y3550002D02*
D03*
X3550002D02*
D03*
X3650001Y349998D02*
D03*
X450003Y450003D02*
D03*
D102*
X3080640Y2501520D02*
D03*
X1251840Y2577720D02*
D03*
X1825880Y373000D02*
D03*
X1483290Y1424250D02*
D03*
X950002Y726060D02*
D03*
X1528700Y2128140D02*
D03*
X1655700Y1043560D02*
D03*
X1670661Y1307720D02*
D03*
X1676020Y1328040D02*
D03*
Y2082420D02*
D03*
X1517981Y1315538D02*
D03*
X1680993Y2173967D02*
D03*
X883540Y1897000D02*
D03*
X1328040Y2689480D02*
D03*
X2648840Y2968880D02*
D03*
X494920Y825120D02*
D03*
X1719332Y2503435D02*
D03*
X675260Y1924940D02*
D03*
X487300Y2004391D02*
D03*
X865760Y2742820D02*
D03*
X3065400Y3116200D02*
D03*
X3588640Y1627760D02*
D03*
X3327807Y1809853D02*
D03*
X3433405Y1277001D02*
D03*
X2949998Y2458340D02*
D03*
X259782Y672720D02*
D03*
X2168780Y446660D02*
D03*
X797180Y530480D02*
D03*
X710820Y720980D02*
D03*
X370460Y1836040D02*
D03*
X3131440Y3055240D02*
D03*
X1035940Y2808860D02*
D03*
X3360040Y586360D02*
D03*
X1719200Y2229740D02*
D03*
X1903787Y1858900D02*
D03*
X1909700Y1947800D02*
D03*
X2575180Y1053720D02*
D03*
X1541400Y1678560D02*
D03*
X1554100Y779400D02*
D03*
X2054480Y1328040D02*
D03*
X985201Y1492901D02*
D03*
X1462071Y1839718D02*
D03*
X2324599Y1590900D02*
D03*
X3712297Y1705403D02*
D03*
X3587660Y1550000D02*
D03*
X2933320Y857383D02*
D03*
Y1325500D02*
D03*
X2633600Y690500D02*
D03*
X1457580Y2011300D02*
D03*
X847980Y2153540D02*
D03*
X822580Y1995948D02*
D03*
X987680Y1904620D02*
D03*
X3273680Y1180720D02*
D03*
X2468500Y2912761D02*
D03*
X2521840Y2585340D02*
D03*
X3153706Y2949998D02*
D03*
X2335988Y2866046D02*
D03*
X1805484Y1781603D02*
D03*
X1244220Y708280D02*
D03*
X3312004Y1251601D02*
D03*
X1609980Y2436735D02*
D03*
X588900Y1922400D02*
D03*
X3230500D02*
D03*
X3276220Y2463420D02*
D03*
X497460Y1274700D02*
D03*
X1010540Y2598040D02*
D03*
X1752987Y1917320D02*
D03*
X1917320Y3090800D02*
D03*
X-214797Y3419202D02*
D03*
X-213740Y3469260D02*
D03*
X1064799Y1335005D02*
D03*
X3870402Y2155298D02*
D03*
X-214797Y1980002D02*
D03*
Y2219997D02*
D03*
X160204Y2349999D02*
D03*
X487300Y3053614D02*
D03*
X-214797Y3180000D02*
D03*
X1553790Y2561119D02*
D03*
X1909700Y2386001D02*
D03*
X1041691Y3299999D02*
D03*
X-214797Y3930001D02*
D03*
X2300001Y3339999D02*
D03*
X3685201Y1279998D02*
D03*
X3364800Y1884996D02*
D03*
X267646Y3972180D02*
D03*
X281560Y1550000D02*
D03*
X2168780Y520320D02*
D03*
X2252600Y535560D02*
D03*
X172340Y449998D02*
D03*
X2496440Y3050160D02*
D03*
X-94578Y2549998D02*
D03*
X-68960Y2649998D02*
D03*
X306960Y2735261D02*
D03*
X111380Y2044320D02*
D03*
X228220Y1750000D02*
D03*
X2631060Y2460880D02*
D03*
X2595500Y2394119D02*
D03*
X588900Y3243200D02*
D03*
X1287400Y3067940D02*
D03*
X1782700Y3372740D02*
D03*
X3133980Y1251840D02*
D03*
X93600Y284100D02*
D03*
X700660Y2209999D02*
D03*
X1982273Y3219106D02*
D03*
X1988440Y1419480D02*
D03*
X439040Y1348360D02*
D03*
X724998Y1102498D02*
D03*
X824998D02*
D03*
X924998D02*
D03*
X724998Y1002498D02*
D03*
X824998D02*
D03*
X924998D02*
D03*
X724998Y902499D02*
D03*
X824998D02*
D03*
X924998D02*
D03*
X2989200Y2082420D02*
D03*
%TF.MD5,9e08d7658c0cc71e8cd08c48e38e5419*%
M02*
