%TF.GenerationSoftware,Altium Limited,Altium Designer,23.4.1 (23)*%
G04 Layer_Physical_Order=2*
G04 Layer_Color=32768*
%FSLAX45Y45*%
%MOMM*%
%TF.SameCoordinates,9EBB4E2D-B9AE-48B2-BE03-C18F5659661E*%
%TF.FilePolarity,Negative*%
%TF.FileFunction,Copper,L2,Inr,Plane*%
%TF.Part,Single*%
G01*
G75*
%TA.AperFunction,NonConductor*%
%ADD63C,1.01600*%
%TA.AperFunction,ComponentPad*%
G04:AMPARAMS|DCode=64|XSize=2.374mm|YSize=2.374mm|CornerRadius=0mm|HoleSize=0mm|Usage=FLASHONLY|Rotation=0.000|XOffset=0mm|YOffset=0mm|HoleType=Round|Shape=Relief|Width=0.254mm|Gap=0.254mm|Entries=4|*
%AMTHD64*
7,0,0,2.37400,1.86600,0.25400,45*
%
%ADD64THD64*%
%AMTHOVALD65*
21,1,0.70000,2.12400,0,0,0.0*
1,1,2.12400,-0.35000,0.00000*
1,1,2.12400,0.35000,0.00000*
21,0,0.70000,1.61600,0,0,0.0*
1,0,1.61600,-0.35000,0.00000*
1,0,1.61600,0.35000,0.00000*
4,0,4,-0.26020,-0.08980,-1.01114,-0.84075,-1.19075,-0.66114,-0.43980,0.08980,-0.26020,-0.08980,0.0*
4,0,4,0.43980,-0.08980,1.19075,0.66114,1.01114,0.84075,0.26020,0.08980,0.43980,-0.08980,0.0*
4,0,4,-0.43980,-0.08980,-1.19075,0.66114,-1.01114,0.84075,-0.26020,0.08980,-0.43980,-0.08980,0.0*
4,0,4,0.26020,-0.08980,1.01114,-0.84075,1.19075,-0.66114,0.43980,0.08980,0.26020,-0.08980,0.0*
%
%ADD65THOVALD65*%

%TA.AperFunction,ViaPad*%
%ADD66C,2.00701*%
%TA.AperFunction,ComponentPad*%
%ADD67C,1.76600*%
%TA.AperFunction,ViaPad*%
G04:AMPARAMS|DCode=68|XSize=5.524mm|YSize=5.524mm|CornerRadius=0mm|HoleSize=0mm|Usage=FLASHONLY|Rotation=0.000|XOffset=0mm|YOffset=0mm|HoleType=Round|Shape=Relief|Width=0.254mm|Gap=0.254mm|Entries=4|*
%AMTHD68*
7,0,0,5.52400,5.01600,0.25400,45*
%
%ADD68THD68*%
G04:AMPARAMS|DCode=69|XSize=2.286mm|YSize=2.286mm|CornerRadius=0mm|HoleSize=0mm|Usage=FLASHONLY|Rotation=0.000|XOffset=0mm|YOffset=0mm|HoleType=Round|Shape=Relief|Width=0.254mm|Gap=0.254mm|Entries=4|*
%AMTHD69*
7,0,0,2.28600,1.77800,0.25400,45*
%
%ADD69THD69*%
%ADD70C,1.77800*%
%ADD71C,1.72720*%
G04:AMPARAMS|DCode=72|XSize=2.2352mm|YSize=2.2352mm|CornerRadius=0mm|HoleSize=0mm|Usage=FLASHONLY|Rotation=0.000|XOffset=0mm|YOffset=0mm|HoleType=Round|Shape=Relief|Width=0.254mm|Gap=0.254mm|Entries=4|*
%AMTHD72*
7,0,0,2.23520,1.72720,0.25400,45*
%
%ADD72THD72*%
G04:AMPARAMS|DCode=73|XSize=1.724mm|YSize=1.724mm|CornerRadius=0mm|HoleSize=0mm|Usage=FLASHONLY|Rotation=0.000|XOffset=0mm|YOffset=0mm|HoleType=Round|Shape=Relief|Width=0.254mm|Gap=0.254mm|Entries=4|*
%AMTHD73*
7,0,0,1.72400,1.21600,0.25400,45*
%
%ADD73THD73*%
D63*
X50000Y50000D02*
Y4475000D01*
X5300000D01*
Y50000D02*
Y4475000D01*
X50000Y50000D02*
X5300000D01*
D64*
X414401Y1934399D02*
D03*
Y2434398D02*
D03*
D65*
X144399Y1834399D02*
D03*
Y2534398D02*
D03*
D66*
X490220Y924560D02*
D03*
X388620Y416560D02*
D03*
X287020Y924560D02*
D03*
D67*
X399996Y1550000D02*
D03*
D68*
X1100001Y699998D02*
D03*
X4150003Y3750000D02*
D03*
Y699998D02*
D03*
X1100001Y3750000D02*
D03*
D69*
X3850000Y4250000D02*
D03*
X3849998Y4000002D02*
D03*
X3099997Y4249994D02*
D03*
X2599998D02*
D03*
X2099999Y4000002D02*
D03*
Y4249994D02*
D03*
D70*
X3600001Y4000002D02*
D03*
X3599996Y4249999D02*
D03*
X3349994Y4240799D02*
D03*
X3349999Y4000002D02*
D03*
X3100002D02*
D03*
X2850000Y4249994D02*
D03*
Y4000002D02*
D03*
X2599998D02*
D03*
X2349996Y4249999D02*
D03*
X1849997D02*
D03*
X1850002Y4000002D02*
D03*
X1600000D02*
D03*
Y4249994D02*
D03*
X1349998Y4249999D02*
D03*
Y3999997D02*
D03*
X4100000Y275000D02*
D03*
X3850000D02*
D03*
X3600000D02*
D03*
X3349999Y275000D02*
D03*
X3074998D02*
D03*
X2850000D02*
D03*
X2600003D02*
D03*
X2350001D02*
D03*
X1850002D02*
D03*
X1600000D02*
D03*
X1350003D02*
D03*
X2350001Y4000002D02*
D03*
X2099999Y275000D02*
D03*
D71*
X1762240Y2441396D02*
D03*
X1828841Y2630433D02*
D03*
X1351665Y2410178D02*
D03*
X3784600Y508000D02*
D03*
X736600Y3530600D02*
D03*
X533400Y3479800D02*
D03*
X1104900Y266700D02*
D03*
X393700Y1079500D02*
D03*
X4425000Y3100000D02*
D03*
X4610166Y3118962D02*
D03*
X1400000Y2650000D02*
D03*
X2959333Y3578599D02*
D03*
X1444560Y680387D02*
D03*
X1130968Y2494597D02*
D03*
X3155751Y3146167D02*
D03*
X1650796Y2149638D02*
D03*
X3317800Y774884D02*
D03*
X1899668Y3204108D02*
D03*
X3397430Y2176178D02*
D03*
X2781779Y2159606D02*
D03*
X2858894Y538404D02*
D03*
X2972601Y679739D02*
D03*
X4346102Y1748944D02*
D03*
X3445527Y1250000D02*
D03*
X1981985Y2946218D02*
D03*
X4271400Y2049011D02*
D03*
X3300000Y951070D02*
D03*
X4665941Y2309832D02*
D03*
X1835015Y2136364D02*
D03*
X2424712Y3100970D02*
D03*
X3463714Y2725560D02*
D03*
X2976438Y1902389D02*
D03*
X4506695Y454899D02*
D03*
X4875000Y2025000D02*
D03*
X1418345Y2868345D02*
D03*
X3117175Y2918367D02*
D03*
X1500000Y1800000D02*
D03*
X1325000Y1725000D02*
D03*
X794586Y394586D02*
D03*
X4539641Y3781488D02*
D03*
X4639081Y4010786D02*
D03*
X4445295Y287069D02*
D03*
X2781401Y1196097D02*
D03*
X3619504Y1687417D02*
D03*
X4175000Y1900000D02*
D03*
X2171901Y2965796D02*
D03*
X767245Y1201051D02*
D03*
X1725000Y1675000D02*
D03*
X3618165Y693165D02*
D03*
X3125000Y800000D02*
D03*
X3324247Y598002D02*
D03*
X1669937Y2832598D02*
D03*
X1807755Y2977404D02*
D03*
X1552407Y2519770D02*
D03*
X875000Y2550000D02*
D03*
X1675000Y3775000D02*
D03*
X2600000Y2500000D02*
D03*
X3001991Y2398274D02*
D03*
X2825000Y2400000D02*
D03*
X3125000Y3350000D02*
D03*
X3475000Y3550000D02*
D03*
X4521500Y1896428D02*
D03*
X3286386Y2709923D02*
D03*
X2349907Y1880690D02*
D03*
X672254Y1676964D02*
D03*
X4850000Y2300000D02*
D03*
X4638602Y2577974D02*
D03*
X4600155Y2750748D02*
D03*
X5050000Y2600000D02*
D03*
X4648732Y2946214D02*
D03*
X2875000Y3791000D02*
D03*
X4975000Y2775000D02*
D03*
X4624842Y1225158D02*
D03*
X975000Y2375000D02*
D03*
X4750000Y1100000D02*
D03*
X4975000Y1225000D02*
D03*
X5000000Y1425000D02*
D03*
X1025000Y3375000D02*
D03*
X2175000Y600000D02*
D03*
X1975000D02*
D03*
D72*
X2700000Y3550000D02*
D03*
X3150000D02*
D03*
X1651473Y3170677D02*
D03*
X4549820Y626565D02*
D03*
X1403600Y3174870D02*
D03*
X3156401Y516152D02*
D03*
X3042671Y1185097D02*
D03*
X3209860Y1577740D02*
D03*
X4018901Y1775000D02*
D03*
X1250000Y3375000D02*
D03*
X3925000Y3425000D02*
D03*
X1025002Y1724998D02*
D03*
X559569Y1206206D02*
D03*
X4600000Y1425000D02*
D03*
D73*
X2099999Y3450000D02*
D03*
X1999999Y3550000D02*
D03*
Y3450000D02*
D03*
X1900000Y3550000D02*
D03*
Y3450000D02*
D03*
%TF.MD5,ea2841fd35667aa228869baa427c90b5*%
M02*
