%TF.GenerationSoftware,Altium Limited,Altium Designer,23.4.1 (23)*%
G04 Layer_Color=8388736*
%FSLAX45Y45*%
%MOMM*%
%TF.SameCoordinates,C9BBA984-B0C4-4836-938B-120E292B3470*%
%TF.FilePolarity,Negative*%
%TF.FileFunction,Soldermask,Top*%
%TF.Part,Single*%
G01*
G75*
%TA.AperFunction,SMDPad,CuDef*%
G04:AMPARAMS|DCode=15|XSize=0.31247mm|YSize=1.78828mm|CornerRadius=0.15624mm|HoleSize=0mm|Usage=FLASHONLY|Rotation=180.000|XOffset=0mm|YOffset=0mm|HoleType=Round|Shape=RoundedRectangle|*
%AMROUNDEDRECTD15*
21,1,0.31247,1.47581,0,0,180.0*
21,1,0.00000,1.78828,0,0,180.0*
1,1,0.31247,0.00000,0.73791*
1,1,0.31247,0.00000,0.73791*
1,1,0.31247,0.00000,-0.73791*
1,1,0.31247,0.00000,-0.73791*
%
%ADD15ROUNDEDRECTD15*%
G04:AMPARAMS|DCode=16|XSize=1.78828mm|YSize=0.31247mm|CornerRadius=0.15624mm|HoleSize=0mm|Usage=FLASHONLY|Rotation=180.000|XOffset=0mm|YOffset=0mm|HoleType=Round|Shape=RoundedRectangle|*
%AMROUNDEDRECTD16*
21,1,1.78828,0.00000,0,0,180.0*
21,1,1.47581,0.31247,0,0,180.0*
1,1,0.31247,-0.73791,0.00000*
1,1,0.31247,0.73791,0.00000*
1,1,0.31247,0.73791,0.00000*
1,1,0.31247,-0.73791,0.00000*
%
%ADD16ROUNDEDRECTD16*%
%ADD17R,1.78828X0.31247*%
%ADD18R,0.57247X0.56818*%
%ADD23R,0.80000X1.70000*%
%ADD26R,0.70000X0.60000*%
%ADD29R,2.84000X6.80000*%
%ADD30R,1.01213X1.20840*%
%ADD31R,0.52000X0.52000*%
%ADD32R,0.52000X0.52000*%
%ADD33R,0.75000X1.00000*%
%ADD34R,1.10000X2.05000*%
%ADD39R,1.25000X1.10000*%
%ADD40R,0.50000X0.35000*%
G04:AMPARAMS|DCode=46|XSize=0.73107mm|YSize=0.30247mm|CornerRadius=0.15124mm|HoleSize=0mm|Usage=FLASHONLY|Rotation=180.000|XOffset=0mm|YOffset=0mm|HoleType=Round|Shape=RoundedRectangle|*
%AMROUNDEDRECTD46*
21,1,0.73107,0.00000,0,0,180.0*
21,1,0.42859,0.30247,0,0,180.0*
1,1,0.30247,-0.21430,0.00000*
1,1,0.30247,0.21430,0.00000*
1,1,0.30247,0.21430,0.00000*
1,1,0.30247,-0.21430,0.00000*
%
%ADD46ROUNDEDRECTD46*%
%ADD47R,1.75000X2.50000*%
%ADD48R,0.91213X0.95872*%
%ADD49R,0.70000X1.30000*%
%ADD50R,0.50000X0.40000*%
%ADD51R,0.40000X0.50000*%
%ADD52R,0.73107X0.30247*%
%TA.AperFunction,ComponentPad*%
%ADD58C,0.75000*%
%TA.AperFunction,Conductor*%
%ADD92C,0.70320*%
%TA.AperFunction,ConnectorPad*%
%ADD93R,1.55320X0.60320*%
%ADD94R,2.10320X1.70320*%
%TA.AperFunction,SMDPad,CuDef*%
%ADD95C,0.99019*%
%ADD96R,1.00320X1.15320*%
%ADD97R,2.00320X0.80320*%
G04:AMPARAMS|DCode=98|XSize=2.1032mm|YSize=3.4032mm|CornerRadius=0mm|HoleSize=0mm|Usage=FLASHONLY|Rotation=270.000|XOffset=0mm|YOffset=0mm|HoleType=Round|Shape=Octagon|*
%AMOCTAGOND98*
4,1,8,1.70160,0.52580,1.70160,-0.52580,1.17580,-1.05160,-1.17580,-1.05160,-1.70160,-0.52580,-1.70160,0.52580,-1.17580,1.05160,1.17580,1.05160,1.70160,0.52580,0.0*
%
%ADD98OCTAGOND98*%

%ADD99R,1.60320X0.80320*%
%ADD100R,1.75320X0.80320*%
%ADD101R,2.00320X1.40320*%
%ADD102R,1.10320X2.30320*%
%ADD103R,3.40320X2.30320*%
%ADD104R,1.15320X1.00320*%
%ADD105R,1.05320X1.15320*%
%ADD106R,1.10320X1.25320*%
%ADD107R,0.65320X0.65320*%
%ADD108R,1.15320X1.05320*%
%ADD109R,0.55320X1.00320*%
%ADD110R,1.05320X0.55320*%
%ADD111R,2.80320X2.90320*%
%ADD112R,2.20320X0.60320*%
%TA.AperFunction,ComponentPad*%
%ADD113C,1.65320*%
%TA.AperFunction,ViaPad*%
%ADD114C,1.19421*%
%ADD115C,4.20320*%
G04:AMPARAMS|DCode=116|XSize=1.7272mm|YSize=2.2032mm|CornerRadius=0.4826mm|HoleSize=0mm|Usage=FLASHONLY|Rotation=0.000|XOffset=0mm|YOffset=0mm|HoleType=Round|Shape=RoundedRectangle|*
%AMROUNDEDRECTD116*
21,1,1.72720,1.23800,0,0,0.0*
21,1,0.76200,2.20320,0,0,0.0*
1,1,0.96520,0.38100,-0.61900*
1,1,0.96520,-0.38100,-0.61900*
1,1,0.96520,-0.38100,0.61900*
1,1,0.96520,0.38100,0.61900*
%
%ADD116ROUNDEDRECTD116*%
%ADD117C,1.47320*%
%ADD118C,0.70320*%
G36*
X240729Y1964494D02*
X242035Y1964235D01*
X243296Y1963807D01*
X244491Y1963217D01*
X245598Y1962477D01*
X246600Y1961599D01*
X247478Y1960598D01*
X248218Y1959491D01*
X248807Y1958296D01*
X249235Y1957035D01*
X249495Y1955729D01*
X249582Y1954400D01*
Y1824400D01*
X249495Y1823071D01*
X249235Y1821764D01*
X248807Y1820503D01*
X248218Y1819309D01*
X247478Y1818201D01*
X246600Y1817200D01*
X245598Y1816322D01*
X244491Y1815582D01*
X243296Y1814993D01*
X242035Y1814565D01*
X240729Y1814305D01*
X239400Y1814218D01*
X199585D01*
Y1774402D01*
X199497Y1773073D01*
X199238Y1771767D01*
X198810Y1770505D01*
X198519Y1769916D01*
X198221Y1769311D01*
X197481Y1768204D01*
X196603Y1767202D01*
X196602D01*
Y1767202D01*
X195601Y1766324D01*
X194494Y1765584D01*
X193889Y1765286D01*
X193299Y1764995D01*
X192038Y1764567D01*
X190732Y1764307D01*
X189403Y1764220D01*
X99400Y1764218D01*
X99400D01*
D01*
X98071Y1764305D01*
X96765Y1764565D01*
X95504Y1764993D01*
X94915Y1765283D01*
X94309Y1765582D01*
X93202Y1766322D01*
X92201Y1767200D01*
Y1767200D01*
X92200D01*
X91322Y1768201D01*
X90582Y1769309D01*
X90284Y1769914D01*
X89993Y1770503D01*
X89565Y1771764D01*
X89305Y1773070D01*
X89218Y1774399D01*
Y1774400D01*
D01*
Y1814218D01*
X49400D01*
X48071Y1814305D01*
X46765Y1814565D01*
X45504Y1814993D01*
X44309Y1815582D01*
X43202Y1816322D01*
X42200Y1817200D01*
X41322Y1818201D01*
X40582Y1819309D01*
X39993Y1820503D01*
X39565Y1821764D01*
X39305Y1823071D01*
X39218Y1824400D01*
Y1954400D01*
X39305Y1955729D01*
X39565Y1957035D01*
X39993Y1958296D01*
X40582Y1959491D01*
X41322Y1960598D01*
X42200Y1961599D01*
X43202Y1962477D01*
X44309Y1963217D01*
X45504Y1963807D01*
X46765Y1964235D01*
X48071Y1964494D01*
X49400Y1964582D01*
X239400D01*
X240729Y1964494D01*
D02*
G37*
G36*
X190729Y2604495D02*
X192035Y2604235D01*
X193296Y2603807D01*
X193885Y2603516D01*
X194491Y2603218D01*
X195598Y2602478D01*
X196599Y2601600D01*
Y2601600D01*
X196600D01*
X197478Y2600598D01*
X198218Y2599491D01*
X198516Y2598886D01*
X198807Y2598297D01*
X199235Y2597035D01*
X199495Y2595729D01*
X199582Y2594400D01*
Y2594400D01*
D01*
Y2554582D01*
X239400D01*
X240729Y2554495D01*
X242035Y2554235D01*
X243296Y2553807D01*
X244491Y2553217D01*
X245598Y2552477D01*
X246600Y2551599D01*
X247478Y2550598D01*
X248218Y2549491D01*
X248807Y2548296D01*
X249235Y2547035D01*
X249495Y2545729D01*
X249582Y2544400D01*
Y2414400D01*
X249495Y2413071D01*
X249235Y2411765D01*
X248807Y2410503D01*
X248218Y2409309D01*
X247478Y2408201D01*
X246600Y2407200D01*
X245598Y2406322D01*
X244491Y2405582D01*
X243296Y2404993D01*
X242035Y2404565D01*
X240729Y2404305D01*
X239400Y2404218D01*
X49400D01*
X48071Y2404305D01*
X46765Y2404565D01*
X45504Y2404993D01*
X44309Y2405582D01*
X43202Y2406322D01*
X42200Y2407200D01*
X41322Y2408201D01*
X40582Y2409309D01*
X39993Y2410503D01*
X39565Y2411765D01*
X39305Y2413071D01*
X39218Y2414400D01*
Y2544400D01*
X39305Y2545729D01*
X39565Y2547035D01*
X39993Y2548296D01*
X40582Y2549491D01*
X41322Y2550598D01*
X42200Y2551599D01*
X43202Y2552477D01*
X44309Y2553217D01*
X45504Y2553807D01*
X46765Y2554235D01*
X48071Y2554495D01*
X49400Y2554582D01*
X89215D01*
Y2594398D01*
X89303Y2595727D01*
X89562Y2597033D01*
X89990Y2598294D01*
X90281Y2598883D01*
X90579Y2599488D01*
X91319Y2600596D01*
X92197Y2601597D01*
X92198D01*
Y2601597D01*
X93199Y2602475D01*
X94306Y2603215D01*
X94911Y2603514D01*
X95501Y2603805D01*
X96762Y2604233D01*
X98068Y2604492D01*
X99397Y2604579D01*
X189400Y2604582D01*
X189400D01*
D01*
X190729Y2604495D01*
D02*
G37*
D15*
X2925001Y1580875D02*
D03*
X2874994D02*
D03*
X2825001D02*
D03*
X2774999D02*
D03*
X2725002D02*
D03*
X2674999D02*
D03*
X2625002D02*
D03*
X2574999D02*
D03*
X2525002D02*
D03*
X2475000D02*
D03*
X2425002D02*
D03*
X2374995D02*
D03*
X2325002D02*
D03*
X2275000D02*
D03*
X2375000Y2719121D02*
D03*
X2425002D02*
D03*
X2475000D02*
D03*
X2525002D02*
D03*
X2574999Y2719115D02*
D03*
X2625002Y2719121D02*
D03*
X2674999D02*
D03*
X2725002D02*
D03*
X2774999Y2719115D02*
D03*
X2825001D02*
D03*
X3025001Y2719121D02*
D03*
X2275000Y2719115D02*
D03*
X3025001Y1580875D02*
D03*
X2874999Y2719121D02*
D03*
X2925001D02*
D03*
X2974999Y1580875D02*
D03*
X2325002Y2719115D02*
D03*
X2974999Y2719121D02*
D03*
D16*
X2080878Y1874992D02*
D03*
Y1924995D02*
D03*
Y1974997D02*
D03*
Y2025000D02*
D03*
Y2074997D02*
D03*
Y2124999D02*
D03*
Y2174997D02*
D03*
Y2224999D02*
D03*
Y2274996D02*
D03*
Y2324999D02*
D03*
Y2374996D02*
D03*
Y2424999D02*
D03*
Y2474996D02*
D03*
Y2524999D02*
D03*
X3219123D02*
D03*
Y2474996D02*
D03*
Y2424999D02*
D03*
Y2374996D02*
D03*
Y2274991D02*
D03*
Y2224999D02*
D03*
Y2174997D02*
D03*
Y2124999D02*
D03*
X3219118Y2074997D02*
D03*
X3219123Y2025000D02*
D03*
Y1974997D02*
D03*
Y1924995D02*
D03*
Y1874997D02*
D03*
Y1824995D02*
D03*
X2080878Y1774997D02*
D03*
Y1824995D02*
D03*
X3219123Y2324994D02*
D03*
D17*
Y1774992D02*
D03*
D18*
X2525002Y2929783D02*
D03*
Y3020217D02*
D03*
D23*
X569999Y1550000D02*
D03*
X229994D02*
D03*
D26*
X4300000Y2495001D02*
D03*
Y2304999D02*
D03*
X4499999Y2400000D02*
D03*
D29*
X1824998Y1200002D02*
D03*
D30*
X4550002Y980186D02*
D03*
Y819815D02*
D03*
X3250004Y1380185D02*
D03*
Y1219809D02*
D03*
X2950000Y3380186D02*
D03*
X4100000Y2319807D02*
D03*
X2950000Y3219810D02*
D03*
X4100000Y2480183D02*
D03*
D31*
X3424997Y2310001D02*
D03*
Y2390001D02*
D03*
X1018503Y3031490D02*
D03*
Y2951490D02*
D03*
X1859245Y1784266D02*
D03*
X1025000Y3109996D02*
D03*
X1859245Y1704266D02*
D03*
X1025000Y3189996D02*
D03*
D32*
X3489999Y1774998D02*
D03*
X3410000D02*
D03*
X4535001Y3249996D02*
D03*
X4615000D02*
D03*
X3615001Y2074992D02*
D03*
X2990000Y3049996D02*
D03*
X2315010Y2924997D02*
D03*
X2959997Y1299997D02*
D03*
X2235010Y2924997D02*
D03*
X2910000Y3049996D02*
D03*
X3039997Y1299997D02*
D03*
X3535001Y2074992D02*
D03*
D33*
X650005Y2924998D02*
D03*
X800002D02*
D03*
X1485908Y2374986D02*
D03*
X1635906D02*
D03*
X649999Y2724998D02*
D03*
X800002D02*
D03*
D34*
X4160000Y1649999D02*
D03*
X4490002D02*
D03*
D39*
X492499Y3124997D02*
D03*
X257498D02*
D03*
Y2724998D02*
D03*
Y3325002D02*
D03*
Y2924998D02*
D03*
X492499Y2724998D02*
D03*
Y2924998D02*
D03*
Y3325002D02*
D03*
D40*
X1305005Y3172500D02*
D03*
Y3107502D02*
D03*
Y3042503D02*
D03*
Y2977505D02*
D03*
X1145000D02*
D03*
Y3042503D02*
D03*
Y3107502D02*
D03*
Y3172500D02*
D03*
D46*
X4060950Y3332505D02*
D03*
X4339055Y3397504D02*
D03*
X4060950Y3202503D02*
D03*
Y3267501D02*
D03*
Y3397504D02*
D03*
X4339055Y3332505D02*
D03*
Y3267501D02*
D03*
D47*
X4200000Y3300003D02*
D03*
D48*
X3700001Y3502330D02*
D03*
Y3647673D02*
D03*
D49*
X4770001Y3499998D02*
D03*
X4579999D02*
D03*
D50*
X1649997Y3514999D02*
D03*
Y3434999D02*
D03*
D51*
X1960004Y3225002D02*
D03*
X2040004D02*
D03*
D52*
X4339055Y3202503D02*
D03*
D58*
X399996Y1550000D02*
D03*
D92*
X164400Y2544398D02*
G03*
X189397Y2569400I25000J2D01*
G01*
X164400Y2544404D02*
G03*
X164400Y2544400I25000J-5D01*
G01*
X165120Y1830356D02*
G03*
X164400Y1824400I24280J-5956D01*
G01*
X117519Y1807175D02*
G03*
X119410Y1809413I-18119J17225D01*
G01*
X117519Y1807175D02*
G03*
X119410Y1809413I-18119J17225D01*
G01*
X116857Y1806504D02*
G03*
X116860Y1806507I-17456J17896D01*
G01*
X116857Y1806504D02*
G03*
X116860Y1806507I-17456J17896D01*
G01*
X189395Y2569400D02*
G03*
X172653Y2562961I5J-25000D01*
G01*
X189395Y2569400D02*
G03*
X172653Y2562961I5J-25000D01*
G01*
X172653D02*
G03*
X172649Y2562958I16747J-18562D01*
G01*
X172653Y2562961D02*
G03*
X172649Y2562958I16747J-18562D01*
G01*
X172649Y2562958D02*
G03*
X164400Y2544404I16751J-18558D01*
G01*
X172649Y2562958D02*
G03*
X164400Y2544404I16751J-18558D01*
G01*
Y2544398D02*
G03*
X189396Y2569400I25000J2D01*
G01*
X116851Y1806498D02*
G03*
X116854Y1806501I-17451J17902D01*
G01*
X116851Y1806498D02*
G03*
X116854Y1806501I-17451J17902D01*
G01*
X117503Y1807158D02*
G03*
X117514Y1807170I-18103J17242D01*
G01*
X117503Y1807158D02*
G03*
X117514Y1807170I-18103J17242D01*
G01*
X116875Y1806521D02*
G03*
X117503Y1807158I-17475J17878D01*
G01*
X116875Y1806521D02*
G03*
X117503Y1807158I-17475J17878D01*
G01*
X116870Y1806516D02*
G03*
X116874Y1806520I-17470J17883D01*
G01*
X116870Y1806516D02*
G03*
X116874Y1806520I-17470J17883D01*
G01*
X116860Y1806507D02*
G03*
X116870Y1806516I-17460J17892D01*
G01*
X116860Y1806507D02*
G03*
X116870Y1806516I-17460J17892D01*
G01*
X75131Y1818398D02*
G03*
X75132Y1818393I24269J6002D01*
G01*
X75131Y1818398D02*
G03*
X75132Y1818393I24269J6002D01*
G01*
X124400Y2544399D02*
G03*
X74400Y2544400I-25000J1D01*
G01*
X90333Y2521102D02*
G03*
X110330Y2521916I9067J23298D01*
G01*
X75135Y1818382D02*
G03*
X75137Y1818377I24265J6017D01*
G01*
X75135Y1818382D02*
G03*
X75137Y1818377I24265J6017D01*
G01*
X111876Y2522735D02*
G03*
X114557Y2524519I-12476J21664D01*
G01*
X111876Y2522735D02*
G03*
X114557Y2524519I-12476J21664D01*
G01*
X110335Y2521918D02*
G03*
X111874Y2522734I-10935J22482D01*
G01*
X78099Y2531313D02*
G03*
X88341Y2521979I21301J13087D01*
G01*
X74400Y2544397D02*
G03*
X78099Y2531313I25000J3D01*
G01*
X90333Y2521102D02*
G03*
X110332Y2521917I9067J23298D01*
G01*
X110335Y2521918D02*
G03*
X111874Y2522734I-10935J22482D01*
G01*
X74400Y2544397D02*
G03*
X78099Y2531313I25000J3D01*
G01*
D02*
G03*
X88341Y2521979I21301J13087D01*
G01*
D02*
G03*
X90329Y2521103I11059J22421D01*
G01*
X88341Y2521979D02*
G03*
X90329Y2521103I11059J22421D01*
G01*
X124400Y2544353D02*
G03*
X124400Y2544397I-25000J47D01*
G01*
Y2544353D02*
G03*
X124400Y2544397I-25000J47D01*
G01*
X122312Y1834402D02*
G03*
X122309Y1834409I-22912J-10003D01*
G01*
X122312Y1834402D02*
G03*
X122309Y1834409I-22912J-10003D01*
G01*
X119426Y1809434D02*
G03*
X122313Y1834400I-20026J14966D01*
G01*
X122308Y1834411D02*
G03*
X76489Y1834403I-22908J-10011D01*
G01*
X122308Y1834411D02*
G03*
X76489Y1834403I-22908J-10011D01*
G01*
X122308Y1834411D02*
G03*
X76489Y1834403I-22908J-10011D01*
G01*
X119426Y1809434D02*
G03*
X122312Y1834401I-20026J14966D01*
G01*
X122308Y1834411D02*
G03*
X76489Y1834403I-22908J-10011D01*
G01*
X74508Y1822081D02*
G03*
X75130Y1818404I24892J2319D01*
G01*
X74508Y1822081D02*
G03*
X75130Y1818404I24892J2319D01*
G01*
X74508Y1822081D02*
G03*
X75130Y1818404I24892J2319D01*
G01*
X74508Y1822081D02*
G03*
X75130Y1818404I24892J2319D01*
G01*
X119412Y1809415D02*
G03*
X119425Y1809433I-20012J14984D01*
G01*
X119412Y1809415D02*
G03*
X119425Y1809433I-20012J14984D01*
G01*
X124400Y2544311D02*
G03*
X124400Y2544351I-25000J89D01*
G01*
X124400Y2544311D02*
G03*
X124400Y2544351I-25000J89D01*
G01*
X124400Y2544306D02*
G03*
X124400Y2544311I-25000J94D01*
G01*
Y2544306D02*
G03*
X124400Y2544311I-25000J94D01*
G01*
Y2544301D02*
G03*
X124400Y2544306I-25000J99D01*
G01*
Y2544265D02*
G03*
X124400Y2544300I-25000J135D01*
G01*
Y2544301D02*
G03*
X124400Y2544306I-25000J99D01*
G01*
Y2544265D02*
G03*
X124400Y2544300I-25000J135D01*
G01*
X124398Y2544082D02*
G03*
X124400Y2544265I-24998J318D01*
G01*
X124398Y2544082D02*
G03*
X124400Y2544265I-24998J318D01*
G01*
X124311Y2542299D02*
G03*
X124398Y2544081I-24912J2100D01*
G01*
X123819Y2539044D02*
G03*
X124311Y2542299I-24420J5356D01*
G01*
X123819Y2539044D02*
G03*
X124311Y2542299I-24420J5356D01*
G01*
X121065Y2531926D02*
G03*
X123819Y2539041I-21665J12474D01*
G01*
X121065Y2531926D02*
G03*
X123819Y2539041I-21665J12474D01*
G01*
X166488Y1834401D02*
G03*
X165120Y1830356I22912J-10001D01*
G01*
X166488Y1834401D02*
G03*
X165120Y1830356I22912J-10001D01*
G01*
X114557Y2524519D02*
G03*
X121065Y2531926I-15157J19881D01*
G01*
X114557Y2524519D02*
G03*
X121065Y2531926I-15157J19881D01*
G01*
X76488Y1834402D02*
G03*
X76221Y1833765I22912J-10002D01*
G01*
X76488Y1834402D02*
G03*
X76221Y1833765I22912J-10002D01*
G01*
X76488Y1834402D02*
G03*
X76221Y1833765I22912J-10002D01*
G01*
X76488Y1834402D02*
G03*
X76221Y1833765I22912J-10002D01*
G01*
X76219Y1833761D02*
G03*
X76218Y1833757I23181J-9362D01*
G01*
X76219Y1833761D02*
G03*
X76218Y1833757I23181J-9362D01*
G01*
X76217Y1833757D02*
G03*
X74400Y1824408I23183J-9357D01*
G01*
D02*
G03*
X74400Y1824400I25000J-8D01*
G01*
X75138Y1818372D02*
G03*
X75558Y1816878I24263J6027D01*
G01*
X76217Y1833757D02*
G03*
X74400Y1824408I23183J-9357D01*
G01*
D02*
G03*
X74400Y1824400I25000J-8D01*
G01*
X75138Y1818372D02*
G03*
X75558Y1816878I24263J6027D01*
G01*
X76113Y1815304D02*
G03*
X76488Y1814397I23287J9095D01*
G01*
X75560Y1816873D02*
G03*
X76112Y1815307I23840J7527D01*
G01*
X76113Y1815304D02*
G03*
X76488Y1814397I23287J9095D01*
G01*
X76113Y1815304D02*
G03*
X76488Y1814397I23287J9095D01*
G01*
X76113Y1815304D02*
G03*
X76488Y1814397I23287J9095D01*
G01*
X75138Y1818372D02*
G03*
X75558Y1816878I24263J6027D01*
G01*
X75138Y1818372D02*
G03*
X75558Y1816878I24263J6027D01*
G01*
X75560Y1816873D02*
G03*
X76112Y1815307I23840J7527D01*
G01*
X75560Y1816873D02*
G03*
X76112Y1815307I23840J7527D01*
G01*
X75560Y1816873D02*
G03*
X76112Y1815307I23840J7527D01*
G01*
X74438Y1823020D02*
G03*
X74439Y1823010I24962J1380D01*
G01*
D02*
G03*
X74505Y1822119I24961J1389D01*
G01*
X74438Y1823020D02*
G03*
X74439Y1823010I24962J1380D01*
G01*
D02*
G03*
X74505Y1822119I24961J1389D01*
G01*
X74505Y1822112D02*
G03*
X74507Y1822093I24895J2288D01*
G01*
X74438Y1823020D02*
G03*
X74439Y1823010I24962J1380D01*
G01*
D02*
G03*
X74505Y1822119I24961J1389D01*
G01*
X74400Y1824397D02*
G03*
X74438Y1823022I25000J2D01*
G01*
X74400Y1824397D02*
G03*
X74438Y1823022I25000J2D01*
G01*
Y1823020D02*
G03*
X74439Y1823010I24962J1380D01*
G01*
D02*
G03*
X74505Y1822119I24961J1389D01*
G01*
X74400Y1824397D02*
G03*
X74438Y1823022I25000J2D01*
G01*
X74400Y1824397D02*
G03*
X74438Y1823022I25000J2D01*
G01*
X74507Y1822092D02*
G03*
X74508Y1822082I24893J2307D01*
G01*
X74507Y1822092D02*
G03*
X74508Y1822082I24893J2307D01*
G01*
X74505Y1822112D02*
G03*
X74507Y1822093I24895J2288D01*
G01*
X74505Y1822112D02*
G03*
X74507Y1822093I24895J2288D01*
G01*
Y1822092D02*
G03*
X74508Y1822082I24893J2307D01*
G01*
X74505Y1822112D02*
G03*
X74507Y1822093I24895J2288D01*
G01*
Y1822092D02*
G03*
X74508Y1822082I24893J2307D01*
G01*
X99399Y1799400D02*
G03*
X116851Y1806498I1J25000D01*
G01*
X99399Y1799400D02*
G03*
X116851Y1806498I1J25000D01*
G01*
X99399Y1799400D02*
G03*
X116851Y1806498I1J25000D01*
G01*
X99399Y1799400D02*
G03*
X116851Y1806498I1J25000D01*
G01*
X76488Y1814397D02*
G03*
X90305Y1801113I22912J10002D01*
G01*
X76488Y1814397D02*
G03*
X90305Y1801113I22912J10002D01*
G01*
X90310Y1801111D02*
G03*
X91687Y1800619I9090J23289D01*
G01*
X90310Y1801111D02*
G03*
X91687Y1800619I9090J23289D01*
G01*
X76488Y1814397D02*
G03*
X90305Y1801113I22912J10002D01*
G01*
X76488Y1814397D02*
G03*
X90305Y1801113I22912J10002D01*
G01*
X97121Y1799504D02*
G03*
X99399Y1799400I2279J24896D01*
G01*
X97121Y1799504D02*
G03*
X99399Y1799400I2279J24896D01*
G01*
X97121Y1799504D02*
G03*
X99399Y1799400I2279J24896D01*
G01*
X97121Y1799504D02*
G03*
X99399Y1799400I2279J24896D01*
G01*
X91688Y1800619D02*
G03*
X97113Y1799505I7712J23781D01*
G01*
X91688Y1800619D02*
G03*
X97113Y1799505I7712J23781D01*
G01*
X91688Y1800619D02*
G03*
X97113Y1799505I7712J23781D01*
G01*
X91688Y1800619D02*
G03*
X97113Y1799505I7712J23781D01*
G01*
X90310Y1801111D02*
G03*
X91687Y1800619I9090J23289D01*
G01*
X90310Y1801111D02*
G03*
X91687Y1800619I9090J23289D01*
G01*
X164400Y1824399D02*
G03*
X202160Y1802901I25000J0D01*
G01*
D02*
G03*
X212313Y1834401I-12760J21498D01*
G01*
X164400Y1824399D02*
G03*
X202160Y1802901I25000J0D01*
G01*
D02*
G03*
X212313Y1834401I-12760J21498D01*
G01*
D02*
G03*
X202160Y1845898I-22912J-10001D01*
G01*
D02*
G03*
X166488Y1834401I-12760J-21498D01*
G01*
X212313D02*
G03*
X202160Y1845898I-22912J-10001D01*
G01*
D02*
G03*
X166488Y1834401I-12760J-21498D01*
G01*
D93*
X414401Y2314398D02*
D03*
Y2249394D02*
D03*
Y2184396D02*
D03*
Y2119397D02*
D03*
Y2054398D02*
D03*
D94*
X144399Y2284395D02*
D03*
Y2084396D02*
D03*
D95*
X452120Y543560D02*
D03*
X325120D02*
D03*
X452120Y670560D02*
D03*
X325120D02*
D03*
X452120Y797560D02*
D03*
X325120D02*
D03*
D96*
X3665005Y2249998D02*
D03*
X3535003D02*
D03*
X2937500Y925000D02*
D03*
X2812497D02*
D03*
X2585002Y1024996D02*
D03*
X3112504Y1050000D02*
D03*
X2987506D02*
D03*
X2715004Y1024996D02*
D03*
D97*
X4344993Y2875005D02*
D03*
D98*
X4094996D02*
D03*
D99*
X4364993Y3025008D02*
D03*
Y2725008D02*
D03*
D100*
X4805002Y3275000D02*
D03*
Y3175000D02*
D03*
Y2575001D02*
D03*
Y2675001D02*
D03*
Y2775001D02*
D03*
Y2875000D02*
D03*
Y2975000D02*
D03*
Y3075000D02*
D03*
D101*
X5192499Y2444999D02*
D03*
Y3405002D02*
D03*
D102*
X3930003Y1434998D02*
D03*
X3700001D02*
D03*
X3470004D02*
D03*
D103*
X3700001Y864997D02*
D03*
D104*
X2699998Y3059999D02*
D03*
Y3190001D02*
D03*
X1450003Y3614999D02*
D03*
Y3485002D02*
D03*
D105*
X2592500Y3549995D02*
D03*
X2457499D02*
D03*
D106*
X682501Y3324997D02*
D03*
X817502D02*
D03*
X1157502Y2724998D02*
D03*
X1292503D02*
D03*
X682501Y3124997D02*
D03*
X817497D02*
D03*
D107*
X1810002Y1900001D02*
D03*
X1890002D02*
D03*
X1810002Y2025000D02*
D03*
X1890002D02*
D03*
D108*
X2525002Y3215000D02*
D03*
Y3350001D02*
D03*
D109*
X2124998Y3750000D02*
D03*
X2075000D02*
D03*
X2024998D02*
D03*
X1974996D02*
D03*
X1924998D02*
D03*
X1874996D02*
D03*
Y3350001D02*
D03*
X1924998D02*
D03*
X1974996D02*
D03*
X2024998D02*
D03*
X2075000D02*
D03*
X2124998D02*
D03*
D110*
X1802499Y3674999D02*
D03*
Y3625001D02*
D03*
Y3574999D02*
D03*
Y3525002D02*
D03*
Y3474999D02*
D03*
Y3424997D02*
D03*
X2197500D02*
D03*
Y3474999D02*
D03*
Y3525002D02*
D03*
Y3574999D02*
D03*
Y3625001D02*
D03*
Y3674999D02*
D03*
D111*
X1999999Y3550000D02*
D03*
D112*
X3800001Y1874997D02*
D03*
Y1754998D02*
D03*
Y1994997D02*
D03*
D113*
X414401Y1934399D02*
D03*
Y2434398D02*
D03*
D114*
X490220Y924560D02*
D03*
X388620Y416560D02*
D03*
X287020Y924560D02*
D03*
D115*
X1100001Y699998D02*
D03*
X4150003Y3750000D02*
D03*
Y699998D02*
D03*
X1100001Y3750000D02*
D03*
D116*
X3850000Y4250000D02*
D03*
X3849998Y4000002D02*
D03*
X3600001D02*
D03*
X3599996Y4249999D02*
D03*
X3349994Y4240799D02*
D03*
X3349999Y4000002D02*
D03*
X3100002D02*
D03*
X3099997Y4249994D02*
D03*
X2850000D02*
D03*
Y4000002D02*
D03*
X2599998D02*
D03*
Y4249994D02*
D03*
X2349996Y4249999D02*
D03*
X2099999Y4000002D02*
D03*
Y4249994D02*
D03*
X1849997Y4249999D02*
D03*
X1850002Y4000002D02*
D03*
X1600000D02*
D03*
Y4249994D02*
D03*
X1349998Y4249999D02*
D03*
Y3999997D02*
D03*
X4100000Y275000D02*
D03*
X3850000D02*
D03*
X3600000D02*
D03*
X3349999Y275000D02*
D03*
X3074998D02*
D03*
X2850000D02*
D03*
X2600003D02*
D03*
X2350001D02*
D03*
X1850002D02*
D03*
X1600000D02*
D03*
X1350003D02*
D03*
X2350001Y4000002D02*
D03*
X2099999Y275000D02*
D03*
D117*
X1762240Y2441396D02*
D03*
X1828841Y2630433D02*
D03*
X1351665Y2410178D02*
D03*
X3784600Y508000D02*
D03*
X736600Y3530600D02*
D03*
X533400Y3479800D02*
D03*
X1104900Y266700D02*
D03*
X393700Y1079500D02*
D03*
X4425000Y3100000D02*
D03*
X4610166Y3118962D02*
D03*
X1400000Y2650000D02*
D03*
X2700000Y3550000D02*
D03*
X2959333Y3578599D02*
D03*
X3150000Y3550000D02*
D03*
X1444560Y680387D02*
D03*
X1130968Y2494597D02*
D03*
X3155751Y3146167D02*
D03*
X1650796Y2149638D02*
D03*
X3317800Y774884D02*
D03*
X1899668Y3204108D02*
D03*
X3397430Y2176178D02*
D03*
X2781779Y2159606D02*
D03*
X2858894Y538404D02*
D03*
X2972601Y679739D02*
D03*
X4346102Y1748944D02*
D03*
X3445527Y1250000D02*
D03*
X1981985Y2946218D02*
D03*
X4271400Y2049011D02*
D03*
X3300000Y951070D02*
D03*
X4665941Y2309832D02*
D03*
X1835015Y2136364D02*
D03*
X1651473Y3170677D02*
D03*
X2424712Y3100970D02*
D03*
X3463714Y2725560D02*
D03*
X2976438Y1902389D02*
D03*
X4549820Y626565D02*
D03*
X4506695Y454899D02*
D03*
X4875000Y2025000D02*
D03*
X1418345Y2868345D02*
D03*
X3117175Y2918367D02*
D03*
X1403600Y3174870D02*
D03*
X1500000Y1800000D02*
D03*
X1325000Y1725000D02*
D03*
X794586Y394586D02*
D03*
X3156401Y516152D02*
D03*
X4539641Y3781488D02*
D03*
X4639081Y4010786D02*
D03*
X4445295Y287069D02*
D03*
X2781401Y1196097D02*
D03*
X3042671Y1185097D02*
D03*
X3209860Y1577740D02*
D03*
X3619504Y1687417D02*
D03*
X4175000Y1900000D02*
D03*
X2171901Y2965796D02*
D03*
X767245Y1201051D02*
D03*
X1725000Y1675000D02*
D03*
X3618165Y693165D02*
D03*
X4018901Y1775000D02*
D03*
X3125000Y800000D02*
D03*
X3324247Y598002D02*
D03*
X1669937Y2832598D02*
D03*
X1807755Y2977404D02*
D03*
X1552407Y2519770D02*
D03*
X875000Y2550000D02*
D03*
X1250000Y3375000D02*
D03*
X1675000Y3775000D02*
D03*
X2600000Y2500000D02*
D03*
X3001991Y2398274D02*
D03*
X2825000Y2400000D02*
D03*
X3125000Y3350000D02*
D03*
X3475000Y3550000D02*
D03*
X3925000Y3425000D02*
D03*
X4521500Y1896428D02*
D03*
X3286386Y2709923D02*
D03*
X2349907Y1880690D02*
D03*
X1025002Y1724998D02*
D03*
X672254Y1676964D02*
D03*
X4850000Y2300000D02*
D03*
X4638602Y2577974D02*
D03*
X4600155Y2750748D02*
D03*
X5050000Y2600000D02*
D03*
X4648732Y2946214D02*
D03*
X2875000Y3791000D02*
D03*
X4975000Y2775000D02*
D03*
X4624842Y1225158D02*
D03*
X975000Y2375000D02*
D03*
X4750000Y1100000D02*
D03*
X4975000Y1225000D02*
D03*
X5000000Y1425000D02*
D03*
X559569Y1206206D02*
D03*
X4600000Y1425000D02*
D03*
X1025000Y3375000D02*
D03*
X2175000Y600000D02*
D03*
X1975000D02*
D03*
D118*
X2099999Y3450000D02*
D03*
X1999999Y3550000D02*
D03*
Y3450000D02*
D03*
X1900000Y3550000D02*
D03*
Y3450000D02*
D03*
%TF.MD5,0df7b90bdcb8571e77f10767fb38c568*%
M02*
