%TF.GenerationSoftware,Altium Limited,Altium Designer,23.4.1 (23)*%
G04 Layer_Physical_Order=3*
G04 Layer_Color=36540*
%FSLAX45Y45*%
%MOMM*%
%TF.SameCoordinates,48A87055-20E1-44AA-943F-EC830DB2746A*%
%TF.FilePolarity,Positive*%
%TF.FileFunction,Copper,L3,Inr,Signal*%
%TF.Part,Single*%
G01*
G75*
%TA.AperFunction,Conductor*%
%ADD10C,0.15000*%
%TA.AperFunction,ComponentPad*%
%ADD54C,0.99100*%
%ADD55C,1.45000*%
%ADD56C,0.75000*%
%TA.AperFunction,ViaPad*%
%ADD57C,4.00000*%
G04:AMPARAMS|DCode=58|XSize=1.524mm|YSize=2mm|CornerRadius=0.381mm|HoleSize=0mm|Usage=FLASHONLY|Rotation=0.000|XOffset=0mm|YOffset=0mm|HoleType=Round|Shape=RoundedRectangle|*
%AMROUNDEDRECTD58*
21,1,1.52400,1.23800,0,0,0.0*
21,1,0.76200,2.00000,0,0,0.0*
1,1,0.76200,0.38100,-0.61900*
1,1,0.76200,-0.38100,-0.61900*
1,1,0.76200,-0.38100,0.61900*
1,1,0.76200,0.38100,0.61900*
%
%ADD58ROUNDEDRECTD58*%
%ADD59C,1.27000*%
%ADD60C,0.50000*%
D10*
X1982596Y255103D02*
G03*
X1920512Y155753I22355J-83044D01*
G01*
X2041707Y300289D02*
G03*
X2026739Y289938I58293J-100289D01*
G01*
X2059195Y275703D02*
G03*
X2059200Y124294I40805J-75703D01*
G01*
X1890512Y151903D02*
G03*
X1890512Y151905I-15000J-1D01*
G01*
X1741207Y-36163D02*
G03*
X1736970Y-26658I-14969J-975D01*
G01*
X2359217Y484841D02*
G03*
X2360816Y485798I-43339J74282D01*
G01*
D02*
G03*
X2376587Y498209I-44939J73325D01*
G01*
X1740716Y-290628D02*
G03*
X1849983Y-233816I9284J115628D01*
G01*
X1716834Y-254347D02*
G03*
X1825243Y-216648I33166J79348D01*
G01*
X452295Y2165836D02*
G03*
X443880Y2187875I-83791J-19366D01*
G01*
X466209Y2105634D02*
G03*
X550000Y2039000I83791J19366D01*
G01*
X135986Y1798454D02*
G03*
X107534Y1863921I-85986J1546D01*
G01*
X2980488Y1009295D02*
G03*
X2997058Y1028057I-55488J65704D01*
G01*
X3144979Y1251666D02*
G03*
X3133631Y1237697I60710J-60913D01*
G01*
X1964003Y2600728D02*
G03*
X1964320Y2592580I85997J-728D01*
G01*
X1790175Y1209679D02*
G03*
X1939234Y1163831I85194J11748D01*
G01*
X1965878Y281280D02*
G03*
X1973557Y287617I-5166J14083D01*
G01*
X2579194Y883224D02*
G03*
X2590712Y894520I-54194J66776D01*
G01*
X1965878Y281280D02*
G03*
X1890511Y153100I39074J-109221D01*
G01*
X2261800Y625992D02*
G03*
X2261608Y625836I54078J-66870D01*
G01*
X2579148Y883187D02*
G03*
X2579194Y883224I-54148J66813D01*
G01*
X1965221Y403011D02*
G03*
X1993541Y425933I-38717J76792D01*
G01*
X2459278Y1005467D02*
G03*
X2457963Y1003870I65722J-55467D01*
G01*
X2464290Y1010913D02*
G03*
X2459278Y1005467I60710J-60913D01*
G01*
X3450000Y-75000D02*
Y264000D01*
X3414000Y300000D02*
X3450000Y264000D01*
X3414000Y300000D02*
Y639000D01*
X3500000Y725000D01*
X2512426Y520000D02*
X2574565Y574564D01*
X2059195Y275703D02*
X2512426Y520000D01*
X1984607Y255618D02*
X2026739Y289938D01*
X2041707Y300289D02*
X2359217Y484841D01*
X1982596Y255103D02*
X1984607Y255618D01*
X1822936Y9000D02*
Y34000D01*
X1736936Y283557D02*
X1736936Y283558D01*
X1741207Y-36163D02*
X1741208Y-36190D01*
X1750000Y-175000D01*
X1736936Y-26623D02*
Y283557D01*
Y-26623D02*
X1736970Y-26658D01*
X2983203Y-222502D02*
X3271702Y-511000D01*
X2070049Y-64000D02*
X2141213Y-66213D01*
X2852138Y544564D02*
X3112574Y805000D01*
X2162427Y-75000D02*
X2852138Y544564D01*
X1953427Y-64000D02*
X2070049D01*
X2141213Y-66213D02*
X2150000Y-75000D01*
X2171465Y-96464D02*
X2983203Y-222502D01*
X3112574Y805000D02*
X3162835D01*
X2150000Y-75000D02*
X2171465Y-96464D01*
X2150000Y-75000D02*
X2162427Y-75000D01*
X2078302Y114000D02*
X2087089Y105213D01*
X2085151Y90244D02*
X2087089Y92786D01*
X2000000Y22000D02*
X2085151Y90244D01*
X2087089Y92786D02*
Y105213D01*
X2574565Y574564D02*
X2839712D01*
X2059200Y124294D02*
X2078302Y114000D01*
X3739765Y1582362D02*
X3748552Y1591149D01*
Y1591453D01*
X3727338Y1582362D02*
X3739765D01*
X3682820Y1626878D02*
X3727338Y1582362D01*
X325000Y-50000D02*
X463035Y-188035D01*
X1849983Y-233816D02*
X1944811Y-72616D01*
X3748552Y1591453D02*
X3750000Y1575000D01*
X1741329Y287951D02*
X1744228Y290850D01*
X1423423Y-100000D02*
X1477898Y-154476D01*
X1716834Y-254347D01*
X463035Y-188035D02*
X1740716Y-290628D01*
X1908936Y-66063D02*
Y24345D01*
X1944811Y-72616D02*
X1953427Y-64000D01*
X1736936Y283558D02*
X1741329Y287951D01*
X1825243Y-216648D02*
X1908936Y-66063D01*
X3748552Y1553786D02*
Y1573551D01*
X3169049Y805000D02*
X3516000Y1151951D01*
X3162835Y805000D02*
X3169049Y805000D01*
X3748552Y1573551D02*
X3750000Y1575000D01*
X3516000Y1151951D02*
X3748552Y1553786D01*
X3660534Y1635665D02*
Y1667843D01*
X3669321Y1626878D02*
X3682820D01*
X3660534Y1635665D02*
X3669321Y1626878D01*
X3277808Y1199430D02*
X3364378Y1286000D01*
X3157313Y1264000D02*
X3206501D01*
X3525000Y1582500D01*
X3227119Y1199430D02*
X3277808D01*
X3205689Y1178000D02*
X3227119Y1199430D01*
X3144979Y1251666D02*
X3157313Y1264000D01*
X3308955Y2019423D02*
X3660534Y1667843D01*
X443880Y2194088D02*
Y2304858D01*
X550000Y2039000D02*
X580212D01*
X443880Y2187875D02*
X443880Y2194088D01*
X589000Y1714378D02*
Y2030213D01*
X452294Y2165836D02*
X466209Y2105634D01*
X580212Y2039000D02*
X589000Y2030213D01*
X125000Y1175000D02*
Y1187427D01*
X135986Y1798454D01*
X200000Y105307D02*
Y1014000D01*
Y1100000D01*
X-400000Y2327836D02*
X-400000Y2321623D01*
X129393Y1170607D02*
X200000Y1100000D01*
X-400000Y2321623D02*
X-391212Y2312835D01*
X107534Y1863920D01*
X-400000Y2327836D02*
Y2800000D01*
X125000Y1175000D02*
X129393Y1170607D01*
X573311Y2473311D02*
X595787Y2591476D01*
X596650Y2596014D01*
X601145Y2600508D01*
X699818Y2661656D01*
X1436656D01*
X100000Y2825000D02*
X282574D01*
X355074Y2897500D01*
X783199D01*
X64000Y2789000D02*
X100000Y2825000D01*
X64000Y2567755D02*
Y2789000D01*
Y2567755D02*
X328566Y2303188D01*
X399811D01*
X401481Y2304858D02*
X443880D01*
X399811Y2303188D02*
X401481Y2304858D01*
X150000Y2626689D02*
Y2650000D01*
Y2626689D02*
X364189Y2412500D01*
Y2389189D02*
Y2412500D01*
X2997058Y1028057D02*
X3133631Y1237697D01*
X2473313Y580000D02*
X2980488Y1009295D01*
X2336755Y580000D02*
X2467100D01*
X2473313Y580000D01*
X1725000Y2277069D02*
X1965009Y2517078D01*
X1964003Y3238102D02*
X2000002Y3300002D01*
X1964003Y2600728D02*
Y3238102D01*
X1964320Y2592580D02*
X1969402Y2533898D01*
Y2521471D02*
Y2533898D01*
X1965009Y2517078D02*
X1969402Y2521471D01*
X1875000Y1675000D02*
Y1945353D01*
X2325000Y2395353D02*
Y2875000D01*
X1875000Y1945353D02*
X2325000Y2395353D01*
X1124998Y3489291D02*
Y3610702D01*
X1395941Y3031562D02*
X1565060D01*
X1186800Y3422502D02*
X1313202D01*
X436794Y3422497D02*
X441790Y3427494D01*
X1063200D01*
X1124998Y3610702D02*
X1186795Y3672499D01*
X1565060Y3031562D02*
X1711000Y2885622D01*
X1313197Y3672499D02*
X1377493Y3608203D01*
X783199Y2897500D02*
X1098699Y3213000D01*
X1711000Y2305495D02*
Y2885622D01*
X1377493Y3486797D02*
Y3608203D01*
X1098699Y3213000D02*
Y3334401D01*
X1336000Y1930495D02*
X1711000Y2305495D01*
X1186795Y3672499D02*
X1313197D01*
X1377493Y3486797D02*
X1441788Y3422502D01*
X1098699Y3334401D02*
X1186800Y3422502D01*
X1336000Y361000D02*
Y1930495D01*
X1441788Y3422502D02*
X2063203D01*
X1348701Y3278203D02*
Y3387003D01*
X875000Y-100000D02*
X1336000Y361000D01*
X1313202Y3422502D02*
X1348701Y3387003D01*
Y3278203D02*
X1381303Y3245602D01*
X1063200Y3427494D02*
X1124998Y3489291D01*
X1250001Y3177502D02*
Y3300002D01*
Y3177502D02*
X1395941Y3031562D01*
X1436656Y2661656D02*
X1625000Y2850000D01*
X496623Y1100000D02*
X811000Y1414378D01*
Y1492378D01*
X1445598Y3245602D02*
X1499998Y3300002D01*
X589000Y1714378D02*
X811000Y1492378D01*
X1381303Y3245602D02*
X1445598D01*
X400000Y1100000D02*
X496623D01*
X1927012Y1302012D02*
X3272502Y2647502D01*
X1875369Y1221426D02*
X1918225Y1293225D01*
X1789000Y1218251D02*
X1790175Y1209679D01*
X2214000Y1467378D02*
Y1546574D01*
X1918225Y1293225D02*
X1927012Y1302012D01*
X1939234Y1163831D02*
X2214000Y1467378D01*
X1789000Y1218251D02*
Y1399035D01*
X2813199Y3177502D02*
X2908197Y3272500D01*
X2186798Y3177502D02*
X2813199D01*
X1850000Y1460035D02*
Y1525000D01*
X1725000Y1650000D02*
Y2277069D01*
Y1650000D02*
X1850000Y1525000D01*
X2315878Y559122D02*
X2336755Y580000D01*
X3825000Y1975000D02*
X3900000Y2050000D01*
X3800000Y1975000D02*
X3825000D01*
X3700000Y2075000D02*
Y2800000D01*
Y2075000D02*
X3800000Y1975000D01*
X3439000Y3061000D02*
X3700000Y2800000D01*
X3364378Y3418574D02*
X3435622D01*
X3439000Y3061000D02*
Y3217787D01*
X1789000Y1399035D02*
X1850000Y1460035D01*
X3435622Y3418574D02*
X3486000Y3368196D01*
X3308955Y2599103D02*
X3400000Y2690148D01*
Y3332574D01*
X2214000Y1546574D02*
X3302502Y2635076D01*
X3308955Y2019423D02*
Y2599103D01*
X3302502Y2635076D02*
Y3356699D01*
X3486000Y3264787D02*
Y3368196D01*
X3302502Y3356699D02*
X3364378Y3418574D01*
X3439000Y3217787D02*
X3486000Y3264787D01*
X3525000Y3150000D02*
Y3371622D01*
X3435622Y3461000D02*
X3525000Y3371622D01*
X3364378Y3461000D02*
X3435622D01*
X3272502Y3369125D02*
X3364378Y3461000D01*
X2908197Y3272500D02*
X3250003D01*
X3272502Y2647502D02*
Y3250000D01*
X3250003Y3272500D02*
X3272502Y3250000D01*
Y3369125D01*
X2261800Y625992D02*
X2579148Y883187D01*
X1888408Y144243D02*
X1890511Y147784D01*
Y151903D01*
X1908936Y24345D02*
X1908936Y30558D01*
X1822936Y34000D02*
X1888408Y144243D01*
X2376587Y498209D02*
X2428378Y550000D01*
X1973557Y287617D02*
X1973609Y287703D01*
X2088217Y480681D01*
X1890511Y151905D02*
Y153100D01*
X2088652Y481413D02*
X2096565Y491836D01*
X2097843Y493114D01*
X2261608Y625836D01*
X1908936Y30558D02*
X1920512Y139475D01*
Y155753D01*
X2088217Y480681D02*
X2088652Y481413D01*
X2428378Y550000D02*
X2500000D01*
X249998Y3431284D02*
Y3549999D01*
X2125001Y3239299D02*
X2186798Y3177502D01*
X2063203Y3422502D02*
X2125001Y3360705D01*
X249998Y3431284D02*
X258785Y3422497D01*
X436794D01*
X2125001Y3239299D02*
Y3360705D01*
X2554564Y604564D02*
X2804564D01*
X2500000Y550000D02*
X2554564Y604564D01*
X2590712Y894520D02*
X2976689Y1351689D01*
X1993541Y425933D02*
X2457963Y1003870D01*
X1745723Y292345D02*
X1965221Y403011D01*
X1744228Y290850D02*
X1745723Y292345D01*
X2464290Y1010913D02*
X2891067Y1437689D01*
X3037311D01*
X3450000Y-250000D02*
X3511000Y-311000D01*
X3271702Y-511000D02*
X3460622D01*
X3511000Y-460622D01*
Y-311000D01*
X2839712Y574564D02*
X3134619Y869471D01*
X3486000Y1164378D02*
Y1235622D01*
X3191094Y869471D02*
X3486000Y1164378D01*
X3134619Y869471D02*
X3191094D01*
X3435622Y1286000D02*
X3486000Y1235622D01*
X3364378Y1286000D02*
X3435622D01*
X2804564Y604564D02*
X3400000Y1200000D01*
X3037311Y1437689D02*
X3125000Y1350000D01*
X200000Y105307D02*
X325000Y-19693D01*
Y-50000D02*
Y-19693D01*
X1075000Y-100000D02*
X1423423D01*
D54*
X-700000Y-304000D02*
D03*
X-598400Y204000D02*
D03*
X-801600D02*
D03*
D55*
X-375000Y1724999D02*
D03*
Y1225000D02*
D03*
D56*
X-700004Y850000D02*
D03*
D57*
X1Y-2D02*
D03*
X3050003Y3050000D02*
D03*
Y-2D02*
D03*
X1Y3050000D02*
D03*
D58*
X2750000Y3550000D02*
D03*
X2749998Y3300002D02*
D03*
X2500001D02*
D03*
X2499996Y3549999D02*
D03*
X2249994Y3540799D02*
D03*
X2249999Y3300002D02*
D03*
X2000002D02*
D03*
X1999997Y3549994D02*
D03*
X1750000D02*
D03*
Y3300002D02*
D03*
X1499998D02*
D03*
Y3549994D02*
D03*
X1249996Y3549999D02*
D03*
X999999Y3300002D02*
D03*
Y3549994D02*
D03*
X749997Y3549999D02*
D03*
X750002Y3300002D02*
D03*
X500000D02*
D03*
Y3549994D02*
D03*
X249998Y3549999D02*
D03*
Y3299997D02*
D03*
X3000000Y-425000D02*
D03*
X2750000D02*
D03*
X2500000D02*
D03*
X2249999Y-425000D02*
D03*
X1974998D02*
D03*
X1750000D02*
D03*
X1500003D02*
D03*
X1250001D02*
D03*
X750002D02*
D03*
X500000D02*
D03*
X250003D02*
D03*
X1250001Y3300002D02*
D03*
X999999Y-425000D02*
D03*
D59*
X2175000Y75000D02*
D03*
X2100000Y200000D02*
D03*
X1822936Y9000D02*
D03*
X2150000Y-75000D02*
D03*
X1325000Y2375000D02*
D03*
X2431501Y2000000D02*
D03*
X2046001Y-175000D02*
D03*
X2000000Y22000D02*
D03*
X1750000Y-175000D02*
D03*
X3775000Y1325000D02*
D03*
X3748552Y1591453D02*
D03*
X3205689Y1178000D02*
D03*
X3525000Y1582500D02*
D03*
X550000Y2125000D02*
D03*
X-175000Y1850000D02*
D03*
X-125000Y1675000D02*
D03*
X50000Y1800000D02*
D03*
X-300000Y525000D02*
D03*
X775000Y2436000D02*
D03*
X825000Y2234000D02*
D03*
X1000000D02*
D03*
X2925000Y1075000D02*
D03*
X2800000Y2748497D02*
D03*
X-275000Y-325000D02*
D03*
X2075000Y2825000D02*
D03*
X2050000Y2600000D02*
D03*
X1050000Y2050000D02*
D03*
X-75000Y1025000D02*
D03*
X-405774Y978099D02*
D03*
X200000Y1014000D02*
D03*
X767797Y1894820D02*
D03*
X2008024Y2393976D02*
D03*
X2000000Y2191976D02*
D03*
X2271354Y2007298D02*
D03*
X2450000Y-25000D02*
D03*
X368503Y2146470D02*
D03*
X400000Y1100000D02*
D03*
X1250000Y1175000D02*
D03*
X1875369Y1221426D02*
D03*
X1875000Y1675000D02*
D03*
X1689189Y1464189D02*
D03*
X1725000Y1650000D02*
D03*
X2325000Y2875000D02*
D03*
X3650000Y400000D02*
D03*
X3875000Y525000D02*
D03*
X1775000Y3075000D02*
D03*
X3900000Y2050000D02*
D03*
X3950000Y1900000D02*
D03*
X3400000Y3332574D02*
D03*
X3525000Y3150000D02*
D03*
X3555311Y2241689D02*
D03*
X3525000Y2069689D02*
D03*
X3394955Y2320523D02*
D03*
X3550000Y2415496D02*
D03*
X3900000Y725000D02*
D03*
X3525000Y1925000D02*
D03*
X325000Y1950000D02*
D03*
X425091Y1803468D02*
D03*
X2315878Y559122D02*
D03*
X225000Y1675000D02*
D03*
X1625000Y2850000D02*
D03*
X1695497Y504573D02*
D03*
X1926504Y479803D02*
D03*
X-540431Y506206D02*
D03*
X604295Y955187D02*
D03*
X578237Y3051532D02*
D03*
X3500000Y725000D02*
D03*
X3450000Y-250000D02*
D03*
Y-75000D02*
D03*
X3425000Y-425000D02*
D03*
X3500000Y525000D02*
D03*
X2150000Y875000D02*
D03*
X325000Y-50000D02*
D03*
X-400000Y2800000D02*
D03*
X150000Y2650000D02*
D03*
X-75000Y2675000D02*
D03*
X573311Y2473311D02*
D03*
X364189Y2389189D02*
D03*
X2525000Y950000D02*
D03*
X3125000Y1350000D02*
D03*
X2976689Y1351689D02*
D03*
X3400000Y1200000D02*
D03*
X2300000Y1475000D02*
D03*
X725000Y1450000D02*
D03*
X1075000Y-100000D02*
D03*
X875000D02*
D03*
X675000Y1750000D02*
D03*
X550000Y1450000D02*
D03*
X1875000Y2875000D02*
D03*
D60*
X999999Y2750000D02*
D03*
X899999Y2850000D02*
D03*
Y2750000D02*
D03*
X799999Y2850000D02*
D03*
Y2750000D02*
D03*
%TF.MD5,96b7759e956d00a1944da119b0e2c85c*%
M02*
