%TF.GenerationSoftware,Altium Limited,Altium Designer,23.4.1 (23)*%
G04 Layer_Physical_Order=4*
G04 Layer_Color=16440176*
%FSLAX45Y45*%
%MOMM*%
%TF.SameCoordinates,4A4EADC6-D63E-4973-9290-F54A389017C5*%
%TF.FilePolarity,Positive*%
%TF.FileFunction,Copper,L4,Inr,Signal*%
%TF.Part,Single*%
G01*
G75*
%TA.AperFunction,Conductor*%
%ADD50C,0.15000*%
%TA.AperFunction,ViaPad*%
G04:AMPARAMS|DCode=51|XSize=1.524mm|YSize=2mm|CornerRadius=0.381mm|HoleSize=0mm|Usage=FLASHONLY|Rotation=0.000|XOffset=0mm|YOffset=0mm|HoleType=Round|Shape=RoundedRectangle|*
%AMROUNDEDRECTD51*
21,1,1.52400,1.23800,0,0,0.0*
21,1,0.76200,2.00000,0,0,0.0*
1,1,0.76200,0.38100,-0.61900*
1,1,0.76200,-0.38100,-0.61900*
1,1,0.76200,-0.38100,0.61900*
1,1,0.76200,0.38100,0.61900*
%
%ADD51ROUNDEDRECTD51*%
%TA.AperFunction,ComponentPad*%
%ADD52C,0.75000*%
%ADD53C,1.45000*%
%TA.AperFunction,ViaPad*%
%ADD54C,1.52400*%
%ADD55C,0.50000*%
D50*
X1250001Y3520060D02*
X1442340Y3327721D01*
X1095061Y3675000D02*
X1250001Y3520060D01*
X1251840Y2349120D02*
Y2577720D01*
X799720Y1897000D02*
X1251840Y2349120D01*
X799720Y1495680D02*
Y1897000D01*
X593980Y1289940D02*
X799720Y1495680D01*
X593980Y632080D02*
Y1289940D01*
Y632080D02*
X792100Y433960D01*
X850520D01*
X1254380Y837820D01*
X1620140D01*
X1825880Y632080D01*
Y373000D02*
Y632080D01*
X1622680Y2242440D02*
X1681100Y2300860D01*
X1622680Y1145317D02*
Y2242440D01*
X1608197Y1130834D02*
X1622680Y1145317D01*
X1608197Y922397D02*
Y1130834D01*
X1559180Y873380D02*
X1608197Y922397D01*
X1097322Y873380D02*
X1559180D01*
X950002Y726060D02*
X1097322Y873380D01*
X1655700Y1043560D02*
Y1292759D01*
X1670661Y1307720D01*
X1676020Y1328040D02*
Y2082420D01*
X1566043Y2408297D02*
X1591443Y2382897D01*
Y1160837D02*
Y2382897D01*
X1541400Y1110794D02*
X1591443Y1160837D01*
X1541400Y914020D02*
Y1110794D01*
X883540Y1897000D02*
X1328040Y2341500D01*
Y2689480D01*
X776860Y550800D02*
X797180Y530480D01*
X776860Y550800D02*
Y1132968D01*
X1401700Y1757808D01*
Y2268597D01*
X1493140Y2360037D01*
X931063Y1545007D02*
X981127D01*
X675260Y1289203D02*
X931063Y1545007D01*
X675260Y756540D02*
Y1289203D01*
Y756540D02*
X710820Y720980D01*
X3150002Y149998D02*
Y252838D01*
X2575180Y827660D02*
X3150002Y252838D01*
X2575180Y827660D02*
Y1053720D01*
X1703960Y1041020D02*
Y1046384D01*
X2077056Y1419480D01*
X2087500D01*
X1409320Y779400D02*
X1554100D01*
X1025780Y395860D02*
X1409320Y779400D01*
X1025780Y73280D02*
Y395860D01*
Y73280D02*
X1096900Y2160D01*
X1359358D01*
X1399998Y42800D01*
Y149998D01*
X2054480Y1328040D02*
X2133220Y1406780D01*
X2331340D01*
X2361820Y1376300D01*
Y818658D02*
Y1376300D01*
Y818658D02*
X2649998Y530480D01*
Y149998D02*
Y530480D01*
X860680Y639700D02*
X898043Y677063D01*
Y773563D01*
X1279780Y1155300D01*
Y1396620D01*
X2234820Y2239900D02*
X2399920Y2074800D01*
Y924180D02*
Y2074800D01*
Y924180D02*
X2633600Y690500D01*
X124837Y1150997D02*
X750002Y1776162D01*
Y3550002D01*
X276480Y2849998D02*
Y3240660D01*
X225680Y3291460D02*
X276480Y3240660D01*
X225680Y3291460D02*
Y3715640D01*
X284100Y3774060D01*
X540615D01*
X639675Y3675000D01*
X1095061D01*
X1442340Y2407540D02*
Y3327721D01*
X1178180Y2143380D02*
X1442340Y2407540D01*
X1250001Y3520060D02*
Y3550002D01*
X987680Y1904620D02*
X1569340Y2486280D01*
X1668400D01*
X1846200Y2308480D01*
X2295780D01*
X2491360Y2112900D01*
Y1963040D02*
Y2112900D01*
Y1963040D02*
X3273680Y1180720D01*
X2468500Y2363994D02*
Y2912761D01*
Y2363994D02*
X2630516Y2201978D01*
Y2069176D02*
Y2201978D01*
X2590420Y2029080D02*
X2630516Y2069176D01*
X2521840Y2585340D02*
Y2959802D01*
X2518690Y2962952D02*
X2521840Y2959802D01*
X2479508Y2962952D02*
X2518690D01*
X2422780Y3019680D02*
X2479508Y2962952D01*
X2422780Y3019680D02*
Y3090800D01*
X2600580Y3268600D01*
Y3906140D01*
X2570100Y3936620D02*
X2600580Y3906140D01*
X1533018Y3936620D02*
X2570100D01*
X1499998Y3903600D02*
X1533018Y3936620D01*
X1499998Y3799998D02*
Y3903600D01*
X2383491Y2352849D02*
X2582800Y2153540D01*
X2383491Y2352849D02*
Y3215590D01*
X2500001Y3332100D01*
Y3550002D01*
X2749998Y2689922D02*
X2806320Y2633600D01*
X2749998Y2689922D02*
Y3550002D01*
X1150001Y149998D02*
Y174880D01*
X1348121Y373000D01*
X1477900D01*
X172340Y32640D02*
Y449998D01*
Y32640D02*
X233300Y-28320D01*
X1599200D01*
X1650000Y22480D01*
Y149998D01*
X2496440Y3050160D02*
X2627763Y2918837D01*
Y2537837D02*
Y2918837D01*
X2535297Y2445371D02*
X2627763Y2537837D01*
X2535297Y2360210D02*
Y2445371D01*
Y2360210D02*
X2688723Y2206783D01*
Y2136517D02*
Y2206783D01*
X1250001Y3776600D02*
Y3799998D01*
Y3776600D02*
X1373760Y3652841D01*
Y3454020D02*
Y3652841D01*
Y3454020D02*
X1785240Y3042540D01*
Y2557400D02*
Y3042540D01*
X1900002Y149998D02*
Y459269D01*
X2189100Y748366D01*
Y1363600D01*
X2149999Y149998D02*
Y267859D01*
X2328800Y446660D01*
Y968310D01*
X2232615Y1064495D02*
X2328800Y968310D01*
X2232615Y1064495D02*
Y1322498D01*
X2285620Y1375502D01*
X228220Y1750000D02*
Y2996820D01*
X195200Y3029840D02*
X228220Y2996820D01*
X195200Y3029840D02*
Y3751200D01*
X378080Y3934080D01*
X1469518D01*
X1499998Y3903600D01*
X2631060Y2460880D02*
X2696343Y2526163D01*
Y3130683D01*
X2648840Y3178186D02*
X2696343Y3130683D01*
X2648840Y3178186D02*
Y3903600D01*
X2699640Y3954400D01*
X3299080D01*
X3349880Y3903600D01*
Y3700400D02*
Y3903600D01*
X3324480Y3675000D02*
X3349880Y3700400D01*
X3012700Y3675000D02*
X3324480D01*
X3000000Y3662300D02*
X3012700Y3675000D01*
X3000000Y3550002D02*
Y3662300D01*
X2595500Y2394119D02*
X2610019Y2379600D01*
X2849500D01*
X2900300Y2430400D01*
Y3649600D01*
X3000000Y3749300D01*
Y3799998D01*
X2480606Y1338200D02*
X2618360D01*
X2852040Y1104520D01*
Y684998D02*
Y1104520D01*
D51*
X2500001Y3799998D02*
D03*
X899999Y149998D02*
D03*
X1150001D02*
D03*
X3250002Y3550002D02*
D03*
X3000000D02*
D03*
X2749998D02*
D03*
X2500001D02*
D03*
X2249999D02*
D03*
X2000002D02*
D03*
X1750000D02*
D03*
X1499998D02*
D03*
X1250001D02*
D03*
X1650000Y149998D02*
D03*
X3399999D02*
D03*
X3150002D02*
D03*
X2900000D02*
D03*
X2649998D02*
D03*
X2400001D02*
D03*
X2149999D02*
D03*
X650002D02*
D03*
X1900002D02*
D03*
X1399998D02*
D03*
X750002Y3799998D02*
D03*
X999999D02*
D03*
X1250001D02*
D03*
X1499998D02*
D03*
X999999Y3550002D02*
D03*
X750002D02*
D03*
X2000002Y3799998D02*
D03*
X1750000D02*
D03*
X2249999D02*
D03*
X2749998D02*
D03*
X3000000D02*
D03*
X3250002D02*
D03*
D52*
X3700400Y2278000D02*
D03*
D53*
X3579999Y899999D02*
D03*
Y1399998D02*
D03*
D54*
X450003Y3550002D02*
D03*
X3550002D02*
D03*
X3650001Y349998D02*
D03*
X450003Y450003D02*
D03*
D55*
X3080640Y2501520D02*
D03*
X1251840Y2577720D02*
D03*
X1825880Y373000D02*
D03*
X1483290Y1424250D02*
D03*
X950002Y726060D02*
D03*
X1528700Y2128140D02*
D03*
X1655700Y1043560D02*
D03*
X1670661Y1307720D02*
D03*
X1676020Y1328040D02*
D03*
Y2082420D02*
D03*
X1517981Y1315538D02*
D03*
X1680993Y2173967D02*
D03*
X883540Y1897000D02*
D03*
X1328040Y2689480D02*
D03*
X2648840Y2968880D02*
D03*
X494920Y825120D02*
D03*
X1719332Y2503435D02*
D03*
X675260Y1924940D02*
D03*
X487300Y2004391D02*
D03*
X865760Y2742820D02*
D03*
X3065400Y3116200D02*
D03*
X3588640Y1627760D02*
D03*
X3327807Y1809853D02*
D03*
X3433405Y1277001D02*
D03*
X2949998Y2458340D02*
D03*
X259782Y672720D02*
D03*
X2168780Y446660D02*
D03*
X797180Y530480D02*
D03*
X710820Y720980D02*
D03*
X370460Y1836040D02*
D03*
X3131440Y3055240D02*
D03*
X1035940Y2808860D02*
D03*
X3360040Y586360D02*
D03*
X1719200Y2229740D02*
D03*
X1903787Y1858900D02*
D03*
X1909700Y1947800D02*
D03*
X2575180Y1053720D02*
D03*
X1541400Y1678560D02*
D03*
X1554100Y779400D02*
D03*
X2054480Y1328040D02*
D03*
X985201Y1492901D02*
D03*
X1462071Y1839718D02*
D03*
X2324599Y1590900D02*
D03*
X3712297Y1705403D02*
D03*
X3587660Y1550000D02*
D03*
X2933320Y857383D02*
D03*
Y1325500D02*
D03*
X2633600Y690500D02*
D03*
X1457580Y2011300D02*
D03*
X847980Y2153540D02*
D03*
X822580Y1995948D02*
D03*
X987680Y1904620D02*
D03*
X3273680Y1180720D02*
D03*
X2468500Y2912761D02*
D03*
X2521840Y2585340D02*
D03*
X3153706Y2949998D02*
D03*
X2335988Y2866046D02*
D03*
X1805484Y1781603D02*
D03*
X1244220Y708280D02*
D03*
X3312004Y1251601D02*
D03*
X1609980Y2436735D02*
D03*
X588900Y1922400D02*
D03*
X3230500D02*
D03*
X3276220Y2463420D02*
D03*
X497460Y1274700D02*
D03*
X1010540Y2598040D02*
D03*
X1752987Y1917320D02*
D03*
X1917320Y3090800D02*
D03*
X-214797Y3419202D02*
D03*
X-213740Y3469260D02*
D03*
X1064799Y1335005D02*
D03*
X3870402Y2155298D02*
D03*
X-214797Y1980002D02*
D03*
Y2219997D02*
D03*
X160204Y2349999D02*
D03*
X487300Y3053614D02*
D03*
X-214797Y3180000D02*
D03*
X1553790Y2561119D02*
D03*
X1909700Y2386001D02*
D03*
X1041691Y3299999D02*
D03*
X-214797Y3930001D02*
D03*
X2300001Y3339999D02*
D03*
X3685201Y1279998D02*
D03*
X3364800Y1884996D02*
D03*
X267646Y3972180D02*
D03*
X281560Y1550000D02*
D03*
X2168780Y520320D02*
D03*
X2252600Y535560D02*
D03*
X172340Y449998D02*
D03*
X2496440Y3050160D02*
D03*
X-94578Y2549998D02*
D03*
X-68960Y2649998D02*
D03*
X306960Y2735261D02*
D03*
X111380Y2044320D02*
D03*
X228220Y1750000D02*
D03*
X2631060Y2460880D02*
D03*
X2595500Y2394119D02*
D03*
X588900Y3243200D02*
D03*
X1287400Y3067940D02*
D03*
X1782700Y3372740D02*
D03*
X3133980Y1251840D02*
D03*
X93600Y284100D02*
D03*
X700660Y2209999D02*
D03*
X1982273Y3219106D02*
D03*
X1988440Y1419480D02*
D03*
X439040Y1348360D02*
D03*
X724998Y1102498D02*
D03*
X824998D02*
D03*
X924998D02*
D03*
X724998Y1002498D02*
D03*
X824998D02*
D03*
X924998D02*
D03*
X724998Y902499D02*
D03*
X824998D02*
D03*
X924998D02*
D03*
X2989200Y2082420D02*
D03*
%TF.MD5,57c43d7fd90cfbb3a08acd6f17c115bf*%
M02*
