%TF.GenerationSoftware,Altium Limited,Altium Designer,23.4.1 (23)*%
G04 Layer_Physical_Order=3*
G04 Layer_Color=36540*
%FSLAX45Y45*%
%MOMM*%
%TF.SameCoordinates,9EBB4E2D-B9AE-48B2-BE03-C18F5659661E*%
%TF.FilePolarity,Positive*%
%TF.FileFunction,Copper,L3,Inr,Signal*%
%TF.Part,Single*%
G01*
G75*
%TA.AperFunction,Conductor*%
%ADD10C,0.15000*%
%TA.AperFunction,ComponentPad*%
%ADD56C,1.45000*%
%TA.AperFunction,ViaPad*%
%ADD57C,0.99101*%
%TA.AperFunction,ComponentPad*%
%ADD58C,0.75000*%
%TA.AperFunction,ViaPad*%
%ADD59C,4.00000*%
G04:AMPARAMS|DCode=60|XSize=1.524mm|YSize=2mm|CornerRadius=0.381mm|HoleSize=0mm|Usage=FLASHONLY|Rotation=0.000|XOffset=0mm|YOffset=0mm|HoleType=Round|Shape=RoundedRectangle|*
%AMROUNDEDRECTD60*
21,1,1.52400,1.23800,0,0,0.0*
21,1,0.76200,2.00000,0,0,0.0*
1,1,0.76200,0.38100,-0.61900*
1,1,0.76200,-0.38100,-0.61900*
1,1,0.76200,-0.38100,0.61900*
1,1,0.76200,0.38100,0.61900*
%
%ADD60ROUNDEDRECTD60*%
%ADD61C,1.27000*%
%ADD62C,0.50000*%
D10*
X2796328Y3546275D02*
G03*
X2794919Y3566832I-96328J3725D01*
G01*
X3054656Y3564227D02*
G03*
X3055719Y3576948I-95323J14372D01*
G01*
X3054656Y3564227D02*
G03*
X3054202Y3560757I95344J-14227D01*
G01*
X2875005Y2039145D02*
G03*
X2875000Y2038746I14995J-399D01*
G01*
X3220339Y1137543D02*
G03*
X3222031Y1138958I-8753J12183D01*
G01*
X3152900Y1071897D02*
G03*
X3153062Y1072057I-10445J10767D01*
G01*
X3214968Y1133683D02*
G03*
X3213113Y1132108I8753J-12182D01*
G01*
X3382869Y1323259D02*
G03*
X3368855Y1308433I62658J-73259D01*
G01*
X3260649Y1176419D02*
G03*
X3305560Y1225380I-396842J409093D01*
G01*
X1235124Y2500395D02*
G03*
X1202821Y2573107I-96398J706D01*
G01*
X1235158Y2489658D02*
G03*
X1235161Y2490993I-96396J945D01*
G01*
X3056815Y2036143D02*
G03*
X3021046Y1996666I359212J-361409D01*
G01*
X3329360Y2252400D02*
G03*
X3321546Y2243692I67707J-68620D01*
G01*
X3056934Y2036262D02*
G03*
X3056815Y2036143I359092J-361528D01*
G01*
X3090340Y1011210D02*
G03*
X3087218Y1008098I111886J-115340D01*
G01*
X3696617Y1593690D02*
G03*
X3696589Y1593662I10526J-10688D01*
G01*
X3681357Y1578551D02*
G03*
X3694624Y1591404I-56357J71449D01*
G01*
D02*
G03*
X3695980Y1593053I-69624J58596D01*
G01*
X2446292Y1878973D02*
G03*
X2446297Y1882038I-96385J1717D01*
G01*
X414401Y2434398D02*
X715602D01*
X725000Y2424999D01*
X736600Y3282364D02*
Y3530600D01*
X700000Y3245764D02*
X736600Y3282364D01*
X700000Y3027836D02*
Y3245764D01*
X393700Y1079500D02*
X609600D01*
X660400Y1028700D01*
Y711200D02*
X1104900Y266700D01*
X660400Y711200D02*
Y1028700D01*
X1514745Y2618438D02*
Y2908275D01*
X1456006Y2559700D02*
X1514745Y2618438D01*
X1153600Y3269420D02*
X1514745Y2908275D01*
X2613989Y3482775D02*
X2700000Y3550000D01*
X2773984Y2968479D02*
X2796328Y3546275D01*
X2783203Y3613865D02*
X2787432Y3609636D01*
X2605201Y3473988D02*
X2613989Y3482775D01*
X2596446Y3465233D02*
X2605201Y3473988D01*
X2440394Y2634889D02*
X2773984Y2968479D01*
X2787432Y3609636D02*
X2794919Y3566832D01*
X1225000Y1825000D02*
X1325000Y1725000D01*
X1225000Y1825000D02*
Y1887292D01*
X1325000Y1725000D02*
X1430499Y1619501D01*
X3055719Y3576948D02*
X3061902Y3938102D01*
X3049303Y3517129D02*
X3054202Y3560757D01*
X3049274Y3517100D02*
X3049303Y3517129D01*
X3061902Y3938102D02*
X3100002Y4000002D01*
X1444560Y680387D02*
X1451448D01*
X1724831Y407004D01*
X3742153Y1047470D02*
X4345773Y1749227D01*
X2825000Y3292826D02*
X3049274Y3517100D01*
X1675508Y3300508D02*
X2050000D01*
X2596446Y3321446D02*
Y3465233D01*
X4296842Y1938122D02*
X4665941Y2307221D01*
X4296842Y1885512D02*
Y1938122D01*
X4665941Y2307221D02*
Y2309832D01*
X3560827Y1100000D02*
X4357255Y1896428D01*
X4521500D01*
X3445527Y1250000D02*
X3661330D01*
X1650000Y3275000D02*
X1675508Y3300508D01*
X2100000D02*
X2575508D01*
X1900000Y3450000D02*
Y3550000D01*
Y3304566D02*
Y3450000D01*
X1999999Y3304566D02*
Y3450000D01*
X2050000Y3300508D02*
X2100000D01*
X1270285Y3289000D02*
X1394007Y3165277D01*
X1650000Y3172150D02*
X1651473Y3170677D01*
X1649377Y3172774D02*
X1650000Y3172150D01*
X1403600Y3174870D02*
X1405697Y3172774D01*
X1649377D01*
X2825000Y2400000D02*
Y3292826D01*
X2850000Y825000D02*
X2897235Y872235D01*
X2850000Y547298D02*
X2858894Y538404D01*
X2850000Y547298D02*
Y825000D01*
X2897235Y872235D02*
Y1475749D01*
X3125000Y800000D02*
Y916713D01*
X3255757Y1047470D02*
X3742153D01*
X3125000Y916713D02*
X3255757Y1047470D01*
X3661330Y1250000D02*
X4296842Y1885512D01*
X3705289Y1602362D02*
X3924523Y1895291D01*
X3929232Y1900000D01*
X4175000D01*
X2878171Y2200235D02*
X2879148Y2197662D01*
X2875000Y1758787D02*
Y2038746D01*
X2875005Y2039145D02*
X2879148Y2194702D01*
Y2197662D01*
X2837810Y2306500D02*
X2878171Y2200235D01*
X2883787Y1750000D02*
X3025000D01*
X2875000Y1758787D02*
X2883787Y1750000D01*
X3235152Y1960152D02*
Y2134791D01*
X3025000Y1750000D02*
X3235152Y1960152D01*
X3053604Y973651D02*
X3087218Y1008098D01*
X2972601Y679739D02*
Y892648D01*
X3053604Y973651D01*
X3231086Y1100583D02*
X3324804D01*
X3025208Y894705D02*
X3231086Y1100583D01*
X2332996Y442004D02*
X2927653D01*
X3078677Y593028D01*
X2779826Y402177D02*
X3325000D01*
X2775000Y407004D02*
X2779826Y402177D01*
X3025208Y763462D02*
X3078677Y709993D01*
Y593028D02*
Y709993D01*
X3025208Y763462D02*
Y894705D01*
X3090340Y1011210D02*
X3152900Y1071897D01*
X3222031Y1138958D02*
X3260649Y1176419D01*
X3153062Y1072057D02*
X3213113Y1132108D01*
X3214968Y1133683D02*
X3220339Y1137543D01*
X3325387Y1100000D02*
X3560827D01*
X3324804Y1100583D02*
X3325387Y1100000D01*
X4345773Y1749227D02*
X4345819D01*
X4346102Y1748944D01*
X3329360Y2252400D02*
X4277292Y3187711D01*
X4428212Y3338631D01*
Y3894475D01*
X4372503Y3727497D02*
Y3950000D01*
Y3727497D02*
X4375000Y3725000D01*
X3056934Y2036262D02*
X4147836Y3127164D01*
X3056917Y2036245D02*
X3056934Y2036262D01*
X4147836Y3127164D02*
X4375000Y3354328D01*
Y3725000D01*
X3305560Y1225380D02*
X3368855Y1308433D01*
X3382869Y1323259D02*
X3681357Y1578551D01*
X4256261Y2076205D02*
X4271400Y2061066D01*
Y2049011D02*
Y2061066D01*
X1234355Y2407740D02*
X1235157Y2489658D01*
X1235123Y2500395D02*
X1235161Y2490993D01*
X1225000Y1887292D02*
X1234355Y2407740D01*
X2175000Y600000D02*
X2332996Y442004D01*
X3475000Y2975000D02*
Y3550000D01*
X3312500Y2812500D02*
X3475000Y2975000D01*
X3475000D01*
X3001991Y2726991D02*
X3087500Y2812500D01*
X3312500D01*
X3001991Y2398274D02*
Y2726991D01*
X1430499Y739595D02*
Y1619501D01*
X1650000Y3172150D02*
Y3275000D01*
X2976438Y1902389D02*
X3018385Y1991487D01*
X3235152Y2134791D02*
X3321546Y2243692D01*
X3018385Y1991487D02*
X3021046Y1996666D01*
X4162761Y2075000D02*
X4256261Y2076205D01*
X3590573Y2075000D02*
X4162761D01*
X4549820Y626565D02*
Y655531D01*
X4514000Y691351D02*
X4549820Y655531D01*
X4490569Y454899D02*
X4506695D01*
X4437848Y402177D02*
X4490569Y454899D01*
X4850000Y2300000D02*
X4971400Y2178600D01*
X4878600Y1439930D02*
X4971400Y1532730D01*
Y2178600D01*
X1153600Y3269420D02*
Y3414930D01*
X1456006Y2217001D02*
Y2559700D01*
X1153600Y3414930D02*
X1402635Y3663965D01*
X1500000Y1800000D02*
Y2173007D01*
X1402635Y3663965D02*
X1949664D01*
X1394007Y3165277D02*
X1403600Y3174870D01*
X1456006Y2217001D02*
X1500000Y2173007D01*
X1949664Y3663965D02*
X2198699Y3913001D01*
X1441285Y1832383D02*
X1500000Y1800000D01*
X3325000Y402177D02*
X4437848D01*
X3324247Y402931D02*
Y598002D01*
Y402931D02*
X3325000Y402177D01*
X1724831Y407004D02*
X2775000D01*
X4878600Y818835D02*
Y1439930D01*
X4514707Y454941D02*
X4878600Y818835D01*
X4539641Y3781488D02*
X4794311Y3579869D01*
X4800000Y2314012D02*
Y3574321D01*
X4794990Y3579331D02*
X4800000Y3574321D01*
X4794311Y3579869D02*
X4794990Y3579331D01*
X725000Y1925000D02*
X749874Y1900126D01*
X849874D01*
X1025002Y1724998D01*
X725000Y1925000D02*
Y2424999D01*
X1999999Y3550000D02*
X2050000Y3499999D01*
Y3300508D02*
Y3499999D01*
X2099999Y3300509D02*
Y3450000D01*
Y3300509D02*
X2100000Y3300508D01*
X2575508D02*
X2596446Y3321446D01*
X1250000Y3375000D02*
X1270285Y3354715D01*
Y3289000D02*
Y3354715D01*
X1437052Y1836616D02*
X1441285Y1832383D01*
X4428212Y3894475D02*
X4555525D01*
X4556848Y3893152D02*
X4957830D01*
X4555525Y3894475D02*
X4556848Y3893152D01*
X4967449Y3888791D02*
X4975000Y3881240D01*
X4963459Y3892781D02*
X4967449Y3888791D01*
X4957830Y3893152D02*
X4963459Y3892781D01*
X4975000Y2775002D02*
Y3881240D01*
X4372503Y3966213D02*
X4417076Y4010786D01*
X4639081D01*
X4372503Y3950000D02*
Y3966213D01*
X4514000Y691351D02*
Y1339000D01*
X2897235Y1475749D02*
X3584955Y2074999D01*
X3590573Y2075000D01*
X3695980Y1593053D02*
X3696589Y1593662D01*
X3696617Y1593690D02*
X3705289Y1602362D01*
X708508Y3013115D02*
X1202821Y2573106D01*
X700000Y3021623D02*
X708508Y3013115D01*
X2825000Y2400000D02*
X2826714Y2398286D01*
X2837810Y2306500D01*
X2431645Y1056645D02*
X2446291Y1878973D01*
X2436000Y2618119D02*
X2446297Y1882038D01*
X1975000Y600000D02*
X2431645Y1056645D01*
X2436000Y2618119D02*
Y2630495D01*
X2665060Y3731562D02*
X2783203Y3613865D01*
X2436000Y2630495D02*
X2440394Y2634889D01*
X2495941Y3731562D02*
X2665060D01*
X4514000Y1339000D02*
X4600000Y1425000D01*
X700000Y3027836D02*
X700000Y3021623D01*
X2224998Y4189291D02*
Y4310702D01*
X2286800Y4122502D02*
X2413202D01*
X1536794Y4122497D02*
X1541790Y4127494D01*
X2163200D01*
X2224998Y4310702D02*
X2286795Y4372499D01*
X2413197D02*
X2477493Y4308203D01*
Y4186797D02*
Y4308203D01*
X2198699Y3913001D02*
Y4034401D01*
X2286795Y4372499D02*
X2413197D01*
X2477493Y4186797D02*
X2541788Y4122502D01*
X2198699Y4034401D02*
X2286800Y4122502D01*
X2541788D02*
X3163203D01*
X2448701Y3978203D02*
Y4087003D01*
X2413202Y4122502D02*
X2448701Y4087003D01*
Y3978203D02*
X2481303Y3945602D01*
X2163200Y4127494D02*
X2224998Y4189291D01*
X2350001Y3877502D02*
Y4000002D01*
Y3877502D02*
X2495941Y3731562D01*
X2545598Y3945602D02*
X2599998Y4000002D01*
X2481303Y3945602D02*
X2545598D01*
X3913199Y3877502D02*
X4008197Y3972500D01*
X3286798Y3877502D02*
X3913199D01*
X4008197Y3972500D02*
X4350003D01*
X4372503Y3950000D01*
X1349998Y4131284D02*
Y4249999D01*
X3225001Y3939299D02*
X3286798Y3877502D01*
X3163203Y4122502D02*
X3225001Y4060705D01*
X1349998Y4131284D02*
X1358785Y4122497D01*
X1536794D01*
X3225001Y3939299D02*
Y4060705D01*
D56*
X414401Y1934399D02*
D03*
Y2434398D02*
D03*
D57*
X490220Y924560D02*
D03*
X388620Y416560D02*
D03*
X287020Y924560D02*
D03*
D58*
X399996Y1550000D02*
D03*
D59*
X1100001Y699998D02*
D03*
X4150003Y3750000D02*
D03*
Y699998D02*
D03*
X1100001Y3750000D02*
D03*
D60*
X3850000Y4250000D02*
D03*
X3849998Y4000002D02*
D03*
X3600001D02*
D03*
X3599996Y4249999D02*
D03*
X3349994Y4240799D02*
D03*
X3349999Y4000002D02*
D03*
X3100002D02*
D03*
X3099997Y4249994D02*
D03*
X2850000D02*
D03*
Y4000002D02*
D03*
X2599998D02*
D03*
Y4249994D02*
D03*
X2349996Y4249999D02*
D03*
X2099999Y4000002D02*
D03*
Y4249994D02*
D03*
X1849997Y4249999D02*
D03*
X1850002Y4000002D02*
D03*
X1600000D02*
D03*
Y4249994D02*
D03*
X1349998Y4249999D02*
D03*
Y3999997D02*
D03*
X4100000Y275000D02*
D03*
X3850000D02*
D03*
X3600000D02*
D03*
X3349999Y275000D02*
D03*
X3074998D02*
D03*
X2850000D02*
D03*
X2600003D02*
D03*
X2350001D02*
D03*
X1850002D02*
D03*
X1600000D02*
D03*
X1350003D02*
D03*
X2350001Y4000002D02*
D03*
X2099999Y275000D02*
D03*
D61*
X1762240Y2441396D02*
D03*
X1828841Y2630433D02*
D03*
X1351665Y2410178D02*
D03*
X3784600Y508000D02*
D03*
X736600Y3530600D02*
D03*
X533400Y3479800D02*
D03*
X1104900Y266700D02*
D03*
X393700Y1079500D02*
D03*
X4425000Y3100000D02*
D03*
X4610166Y3118962D02*
D03*
X1400000Y2650000D02*
D03*
X2700000Y3550000D02*
D03*
X2959333Y3578599D02*
D03*
X3150000Y3550000D02*
D03*
X1444560Y680387D02*
D03*
X1130968Y2494597D02*
D03*
X3155751Y3146167D02*
D03*
X1650796Y2149638D02*
D03*
X3317800Y774884D02*
D03*
X1899668Y3204108D02*
D03*
X3397430Y2176178D02*
D03*
X2781779Y2159606D02*
D03*
X2858894Y538404D02*
D03*
X2972601Y679739D02*
D03*
X4346102Y1748944D02*
D03*
X3445527Y1250000D02*
D03*
X1981985Y2946218D02*
D03*
X4271400Y2049011D02*
D03*
X3300000Y951070D02*
D03*
X4665941Y2309832D02*
D03*
X1835015Y2136364D02*
D03*
X1651473Y3170677D02*
D03*
X2424712Y3100970D02*
D03*
X3463714Y2725560D02*
D03*
X2976438Y1902389D02*
D03*
X4549820Y626565D02*
D03*
X4506695Y454899D02*
D03*
X4875000Y2025000D02*
D03*
X1418345Y2868345D02*
D03*
X3117175Y2918367D02*
D03*
X1403600Y3174870D02*
D03*
X1500000Y1800000D02*
D03*
X1325000Y1725000D02*
D03*
X794586Y394586D02*
D03*
X3156401Y516152D02*
D03*
X4539641Y3781488D02*
D03*
X4639081Y4010786D02*
D03*
X4445295Y287069D02*
D03*
X2781401Y1196097D02*
D03*
X3042671Y1185097D02*
D03*
X3209860Y1577740D02*
D03*
X3619504Y1687417D02*
D03*
X4175000Y1900000D02*
D03*
X2171901Y2965796D02*
D03*
X767245Y1201051D02*
D03*
X1725000Y1675000D02*
D03*
X3618165Y693165D02*
D03*
X4018901Y1775000D02*
D03*
X3125000Y800000D02*
D03*
X3324247Y598002D02*
D03*
X1669937Y2832598D02*
D03*
X1807755Y2977404D02*
D03*
X1552407Y2519770D02*
D03*
X875000Y2550000D02*
D03*
X1250000Y3375000D02*
D03*
X1675000Y3775000D02*
D03*
X2600000Y2500000D02*
D03*
X3001991Y2398274D02*
D03*
X2825000Y2400000D02*
D03*
X3125000Y3350000D02*
D03*
X3475000Y3550000D02*
D03*
X3925000Y3425000D02*
D03*
X4521500Y1896428D02*
D03*
X3286386Y2709923D02*
D03*
X2349907Y1880690D02*
D03*
X1025002Y1724998D02*
D03*
X672254Y1676964D02*
D03*
X4850000Y2300000D02*
D03*
X4638602Y2577974D02*
D03*
X4600155Y2750748D02*
D03*
X5050000Y2600000D02*
D03*
X4648732Y2946214D02*
D03*
X2875000Y3791000D02*
D03*
X4975000Y2775000D02*
D03*
X4624842Y1225158D02*
D03*
X975000Y2375000D02*
D03*
X4750000Y1100000D02*
D03*
X4975000Y1225000D02*
D03*
X5000000Y1425000D02*
D03*
X559569Y1206206D02*
D03*
X4600000Y1425000D02*
D03*
X1025000Y3375000D02*
D03*
X2175000Y600000D02*
D03*
X1975000D02*
D03*
D62*
X2099999Y3450000D02*
D03*
X1999999Y3550000D02*
D03*
Y3450000D02*
D03*
X1900000Y3550000D02*
D03*
Y3450000D02*
D03*
%TF.MD5,cbc657423bc094922462678bd444b918*%
M02*
