%TF.GenerationSoftware,Altium Limited,Altium Designer,23.4.1 (23)*%
G04 Layer_Physical_Order=6*
G04 Layer_Color=16711680*
%FSLAX45Y45*%
%MOMM*%
%TF.SameCoordinates,C9BBA984-B0C4-4836-938B-120E292B3470*%
%TF.FilePolarity,Positive*%
%TF.FileFunction,Copper,L6,Bot,Signal*%
%TF.Part,Single*%
G01*
G75*
%TA.AperFunction,Conductor*%
%ADD10C,0.15000*%
%TA.AperFunction,SMDPad,CuDef*%
%ADD24R,1.55000X0.60000*%
%ADD25R,1.80000X1.20000*%
%ADD33R,0.75000X1.00000*%
%ADD34R,1.10000X2.05000*%
%ADD49R,0.70000X1.30000*%
%ADD50R,0.50000X0.40000*%
%ADD51R,0.40000X0.50000*%
%TA.AperFunction,ComponentPad*%
%ADD56C,1.45000*%
%TA.AperFunction,ViaPad*%
%ADD57C,0.99101*%
%TA.AperFunction,ComponentPad*%
%ADD58C,0.75000*%
%TA.AperFunction,ViaPad*%
%ADD59C,4.00000*%
G04:AMPARAMS|DCode=60|XSize=1.524mm|YSize=2mm|CornerRadius=0.381mm|HoleSize=0mm|Usage=FLASHONLY|Rotation=0.000|XOffset=0mm|YOffset=0mm|HoleType=Round|Shape=RoundedRectangle|*
%AMROUNDEDRECTD60*
21,1,1.52400,1.23800,0,0,0.0*
21,1,0.76200,2.00000,0,0,0.0*
1,1,0.76200,0.38100,-0.61900*
1,1,0.76200,-0.38100,-0.61900*
1,1,0.76200,-0.38100,0.61900*
1,1,0.76200,0.38100,0.61900*
%
%ADD60ROUNDEDRECTD60*%
%ADD61C,1.27000*%
%ADD62C,0.50000*%
%TA.AperFunction,SMDPad,CuDef*%
%ADD78R,1.68000X0.80000*%
%ADD79R,1.30000X1.29000*%
%ADD80R,1.40000X1.29000*%
%ADD81R,1.50000X1.60000*%
%ADD82R,1.70000X1.50000*%
%ADD83R,1.50000X1.70000*%
%ADD84R,0.85000X0.70000*%
%ADD85R,1.00000X0.75000*%
%ADD86R,1.40000X0.38000*%
%ADD87R,2.40000X1.90000*%
D10*
X1504456Y604853D02*
G03*
X1512830Y612327I-59897J75534D01*
G01*
X1290765Y2484905D02*
G03*
X1267911Y2457909I60900J-74727D01*
G01*
X2724499Y3643235D02*
G03*
X2709359Y3645945I-24499J-93235D01*
G01*
X2351028Y1714290D02*
G03*
X2350843Y1714288I0J-15001D01*
G01*
X3174642Y3046727D02*
G03*
X3183302Y3042518I10541J10673D01*
G01*
X4369948Y347262D02*
G03*
X4370235Y347612I-11454J9687D01*
G01*
X4394949Y369418D02*
G03*
X4396302Y370201I-6830J13356D01*
G01*
X4373666Y351771D02*
G03*
X4372532Y350500I10607J-10607D01*
G01*
X4389614Y366690D02*
G03*
X4385837Y363942I6830J-13356D01*
G01*
X1750003Y3167881D02*
G03*
X1745145Y3198424I-99539J-177D01*
G01*
X1679704Y3304134D02*
G03*
X1687286Y3302077I7582J12944D01*
G01*
X2681068Y4354625D02*
G03*
X2638098Y4372494I-42970J-42731D01*
G01*
X3152828Y1478649D02*
G03*
X3152830Y1478652I-10606J10608D01*
G01*
X3030372Y3048964D02*
G03*
X3025333Y3048114I51612J-321299D01*
G01*
X4000523Y3484911D02*
G03*
X3976137Y3506719I-75523J-59911D01*
G01*
X1501300Y3938102D02*
G03*
X1504026Y3920131I60600J0D01*
G01*
D02*
G03*
X1504560Y3918493I57874J17971D01*
G01*
X1256145Y1645189D02*
G03*
X1255985Y1645349I-24827J-24671D01*
G01*
X1902593Y4407498D02*
G03*
X1907349Y4405541I8001J12688D01*
G01*
X1542561Y4405517D02*
G03*
X1547403Y4407493I-3160J14663D01*
G01*
X1916625Y4403143D02*
G03*
X1907349Y4405540I-28528J-91244D01*
G01*
X1792558Y4405523D02*
G03*
X1797400Y4407498I-3160J14663D01*
G01*
X2292557Y4405523D02*
G03*
X2297399Y4407498I-3160J14663D01*
G01*
X2542559Y4405517D02*
G03*
X2547401Y4407493I-3160J14663D01*
G01*
X1542561Y4405517D02*
G03*
X1533394Y4403145I19339J-93624D01*
G01*
X2152595Y4407493D02*
G03*
X2157352Y4405536I8001J12688D01*
G01*
X1416620Y4403145D02*
G03*
X1407350Y4405540I-28522J-91246D01*
G01*
X1292559Y4405523D02*
G03*
X1282305Y4402803I19339J-93624D01*
G01*
X2402592Y4407498D02*
G03*
X2407348Y4405541I8001J12688D01*
G01*
X1666346Y4403226D02*
G03*
X1670803Y4402499I4616J14273D01*
G01*
X2666344Y4403226D02*
G03*
X2670801Y4402499I4616J14273D01*
G01*
X2666344Y4403226D02*
G03*
X2657350Y4405535I-28246J-91332D01*
G01*
X2542559Y4405517D02*
G03*
X2533392Y4403145I19339J-93624D01*
G01*
X2166345Y4403226D02*
G03*
X2157351Y4405535I-28246J-91332D01*
G01*
X2292557Y4405523D02*
G03*
X2283467Y4403174I19339J-93624D01*
G01*
X2042560Y4405517D02*
G03*
X2033393Y4403145I19339J-93624D01*
G01*
X1666346Y4403226D02*
G03*
X1657352Y4405535I-28246J-91332D01*
G01*
X1792558Y4405523D02*
G03*
X1783468Y4403174I19339J-93624D01*
G01*
X2166345Y4403226D02*
G03*
X2170802Y4402499I4616J14273D01*
G01*
X2042560Y4405517D02*
G03*
X2047402Y4407493I-3160J14663D01*
G01*
X2416624Y4403143D02*
G03*
X2407348Y4405540I-28528J-91244D01*
G01*
X1292559Y4405523D02*
G03*
X1297401Y4407498I-3160J14663D01*
G01*
X1402594Y4407498D02*
G03*
X1407350Y4405541I8001J12688D01*
G01*
X1652596Y4407493D02*
G03*
X1657353Y4405536I8001J12688D01*
G01*
X2652594Y4407493D02*
G03*
X2657351Y4405536I8001J12688D01*
G01*
X3964997Y3513691D02*
G03*
X3962327Y3516306I-64997J-63691D01*
G01*
X3190544Y2720273D02*
G03*
X3189986Y2709784I95843J-10350D01*
G01*
X2835409Y436686D02*
G03*
X2918059Y454073I23485J93496D01*
G01*
X1109362Y477696D02*
G03*
X1203655Y503118I-9361J222303D01*
G01*
X1085510Y477971D02*
G03*
X1109362Y477696I14491J222027D01*
G01*
X4412599Y477965D02*
G03*
X4417227Y415389I93218J-24565D01*
G01*
X4550240Y722965D02*
G03*
X4549561Y722964I-240J-96400D01*
G01*
X2416624Y4403143D02*
G03*
X2420843Y4402499I4351J14356D01*
G01*
X2029124D02*
G03*
X2033393Y4403145I-87J15000D01*
G01*
X1811897Y4372499D02*
G03*
X1787793Y4367499I0J-60600D01*
G01*
X1662192D02*
G03*
X1638100Y4372494I-24092J-55605D01*
G01*
X921384Y3882673D02*
G03*
X882501Y3703096I178617J-132673D01*
G01*
X2529123Y4402499D02*
G03*
X2533392Y4403145I-87J15000D01*
G01*
X1274263Y4399779D02*
G03*
X1223640Y4348640I37635J-87880D01*
G01*
X1280664Y4402382D02*
G03*
X1282305Y4402803I-2900J14717D01*
G01*
X1311898Y4372499D02*
G03*
X1253873Y4329375I0J-60600D01*
G01*
X1416620Y4403145D02*
G03*
X1420845Y4402499I4357J14354D01*
G01*
X1280664Y4402382D02*
G03*
X1275782Y4400548I2755J-14745D01*
G01*
X1916625Y4403143D02*
G03*
X1920844Y4402499I4351J14356D01*
G01*
X1529125D02*
G03*
X1533394Y4403145I-87J15000D01*
G01*
X2311896Y4372499D02*
G03*
X2287792Y4367499I0J-60600D01*
G01*
X847243Y3799189D02*
G03*
X847501Y3699502I252758J-49189D01*
G01*
X2162191Y4367499D02*
G03*
X2138099Y4372494I-24092J-55605D01*
G01*
X1779105Y4402499D02*
G03*
X1783468Y4403174I-87J15000D01*
G01*
X847243Y3799189D02*
G03*
X847501Y3801961I-14742J2772D01*
G01*
X2412200Y4367499D02*
G03*
X2388096Y4372499I-24104J-55600D01*
G01*
X1561900Y4372494D02*
G03*
X1537808Y4367499I0J-60600D01*
G01*
X1274263Y4399779D02*
G03*
X1275782Y4400548I-6003J13747D01*
G01*
X2561898Y4372494D02*
G03*
X2537806Y4367499I0J-60600D01*
G01*
X2279104Y4402499D02*
G03*
X2283467Y4403174I-87J15000D01*
G01*
X1412202Y4367499D02*
G03*
X1388098Y4372499I-24104J-55600D01*
G01*
X1912201Y4367499D02*
G03*
X1888097Y4372499I-24104J-55600D01*
G01*
X2061899Y4372494D02*
G03*
X2037807Y4367499I0J-60600D01*
G01*
X1519108Y4104811D02*
G03*
X1501300Y4061902I42792J-42909D01*
G01*
X1216927Y1633039D02*
G03*
X1231318Y1620519I83073J80961D01*
G01*
X1987497Y1037503D02*
X1987504D01*
X2092999D01*
X1347501Y397501D02*
X1987504Y1037503D01*
X1975000Y1050000D02*
Y1181100D01*
X2041999Y1232504D02*
X2092999D01*
X2018495Y1209001D02*
X2041999Y1232504D01*
X2002901Y1209001D02*
X2018495D01*
X1975000Y1181100D02*
X2002901Y1209001D01*
X1286214Y431860D02*
X1286300Y431860D01*
X880586Y408964D02*
X903482Y431860D01*
X1286300Y431860D02*
X1504456Y604853D01*
X698186Y354656D02*
Y434516D01*
X754656Y490986D01*
X903482Y431860D02*
X1286214D01*
X1512830Y612327D02*
X1848785Y948474D01*
Y1499106D01*
X2060377Y1710698D01*
X1303754Y397501D02*
X1347501D01*
X1805858Y2603546D02*
Y2607451D01*
X1685120Y2505519D02*
X1749243Y2441396D01*
X1805858Y2607451D02*
X1828841Y2630433D01*
X1749243Y2441396D02*
X1762240D01*
X1263051Y2449381D02*
X1267911Y2457909D01*
X1253600Y2373600D02*
Y2433717D01*
X1253601Y2439931D02*
X1263051Y2449381D01*
X1333440Y2519770D02*
X1552407D01*
X1290765Y2484905D02*
X1333440Y2519770D01*
X1253600Y2433717D02*
X1253601Y2439931D01*
X1426161Y2782345D02*
X1648807Y2559700D01*
Y2392160D02*
Y2559700D01*
X1426161Y2782345D02*
Y2860528D01*
X1418345Y2868345D02*
X1426161Y2860528D01*
X2866372Y3606151D02*
X2959333Y3578599D01*
X2670617Y3649724D02*
X2709359Y3645945D01*
X2669049Y3649898D02*
X2670617Y3649724D01*
X2724499Y3643235D02*
X2866372Y3606151D01*
X4002731Y3483293D02*
X4875000D01*
X1325000Y1700001D02*
X1375002Y1649999D01*
X1325000Y1700001D02*
Y1725000D01*
X3522999Y2023646D02*
X3725055Y1725037D01*
X3725000Y1531985D02*
X4372768Y884217D01*
X3725000Y1531985D02*
Y1724982D01*
X3725055Y1725037D01*
X4372768Y421735D02*
Y884217D01*
X4220503Y233788D02*
X4372768Y421735D01*
X1401287Y610306D02*
X1425084Y673698D01*
X1457026Y688958D02*
Y857975D01*
X3348760Y1687417D02*
X3619504D01*
X3321644Y1714533D02*
X3348760Y1687417D01*
X3081207Y1714533D02*
X3321644D01*
X2725002Y1650002D02*
X2750000Y1675000D01*
X2724997Y1399997D02*
Y1412497D01*
X3308220Y1292497D02*
Y1660805D01*
X2750000Y1675000D02*
X3294025D01*
X3308220Y1660805D01*
X2617496Y1292497D02*
X3308220D01*
X2390537Y1784990D02*
X2722061D01*
X2389837Y1784290D02*
X2390537Y1784990D01*
X2722061D02*
X2935861Y1998789D01*
X2399207Y1749290D02*
X2399450Y1749532D01*
X2351028Y1714290D02*
X2413704D01*
X3066710Y1749532D02*
X3296635Y1979458D01*
X2413704Y1714290D02*
X3081207Y1714533D01*
X2399450Y1749532D02*
X3066710D01*
X2049472Y1749290D02*
X2399207D01*
X3296635Y1979458D02*
X3424349Y2075862D01*
X2060377Y1710698D02*
X2350843Y1714288D01*
X3193718Y1951036D02*
X3351248Y2075334D01*
X2036375Y1784290D02*
X2389837D01*
X3088989Y1951036D02*
X3193718D01*
X2935861Y1998789D02*
X3041236D01*
X1813786Y1513604D02*
X2049472Y1749290D01*
X3041236Y1998789D02*
X3088989Y1951036D01*
X2035675Y1784990D02*
X2036375Y1784290D01*
X1805858Y2594141D02*
Y2603546D01*
Y2616202D01*
X882501Y3703096D02*
X883581Y2875002D01*
X882501Y2743064D02*
X1130968Y2494597D01*
X882501Y2743064D02*
Y2875000D01*
X847501Y2709215D02*
Y3699502D01*
Y2709215D02*
X910316Y2646400D01*
X975000Y2375000D02*
Y2586330D01*
X914930Y2646400D02*
X975000Y2586330D01*
X910316Y2646400D02*
X914930D01*
X1180000Y1721072D02*
Y2300000D01*
X1228051Y2463878D02*
Y2555240D01*
X1218600Y2445899D02*
Y2454427D01*
X1145000Y1706837D02*
Y2372299D01*
X1218600Y2445899D01*
X1180000Y2300000D02*
X1253600Y2373600D01*
X1218600Y2454427D02*
X1228051Y2463878D01*
X1519396Y2095210D02*
Y2262749D01*
X1648807Y2392160D01*
X3133391Y2245818D02*
Y2597130D01*
X3117175Y2613346D02*
Y2918367D01*
Y2613346D02*
X3133391Y2597130D01*
X2886967Y1999394D02*
X3133391Y2245818D01*
X3068181Y2243180D02*
Y2328133D01*
X1639103Y2025000D02*
X2850000D01*
X3068181Y2243180D01*
Y2328133D02*
X3098392Y2358344D01*
Y2438204D01*
X3047540Y2489055D02*
X3098392Y2438204D01*
X3047540Y2489055D02*
Y2752460D01*
X3077245Y3014767D02*
X3157105D01*
X3213575Y2958297D01*
Y2878437D02*
Y2958297D01*
X3190543Y2720273D02*
X3200113Y2807268D01*
Y2864975D02*
X3213575Y2878437D01*
X3020775Y2958297D02*
X3077245Y3014767D01*
X3020775Y2779225D02*
X3047540Y2752460D01*
X3020775Y2779225D02*
Y2958297D01*
X3171602Y3049767D02*
X3174576Y3046793D01*
X3027428Y3046020D02*
X3030372Y3048964D01*
X3183302Y3042518D02*
X3183364Y3042510D01*
X2728600Y2747192D02*
X3027428Y3046020D01*
X3062747Y3049767D02*
X3171602D01*
X3030372Y3048964D02*
X3061945D01*
X3200113Y2807268D02*
Y2864975D01*
X3155751Y3146167D02*
X3255568Y3245984D01*
X3061945Y3048964D02*
X3062747Y3049767D01*
X3183364Y3042510D02*
X3376584Y3018910D01*
X3174576Y3046793D02*
X3174642Y3046727D01*
X3190394Y2519545D02*
X3493830Y2216108D01*
X3424349Y2075862D02*
X3428264Y2079778D01*
X3437360D01*
X3493830Y2136248D01*
Y2216108D01*
X3528830Y2121751D02*
Y2230605D01*
X3500000Y2259436D02*
X3528830Y2230605D01*
X3522999Y2023646D02*
Y2115919D01*
X3528830Y2121751D01*
X3500000Y2259436D02*
Y2325000D01*
X3575938Y2025938D02*
X4427500Y1174375D01*
X3547501Y2261432D02*
X3575938Y2232995D01*
X3547501Y2261432D02*
Y2464341D01*
X3575938Y2025938D02*
Y2232995D01*
X3617499Y2040072D02*
Y2246185D01*
X3582501Y2281184D02*
X3617499Y2246185D01*
Y2040072D02*
X4462500Y1195071D01*
Y1188872D02*
Y1195071D01*
X3630681Y2517498D02*
X3647501Y2532500D01*
X3647499Y2276501D02*
X3714999Y2209000D01*
X3582501Y2281184D02*
Y2478838D01*
X3617501Y2295681D02*
X3630681Y2282501D01*
X3617501Y2295681D02*
Y2504318D01*
X3630681Y2282501D02*
X3647499Y2276501D01*
X3647501Y2532500D02*
X3702001Y2565000D01*
X3190394Y2519545D02*
Y2530689D01*
X3189986Y2709784D02*
X3190394Y2530689D01*
X3581130Y2480209D02*
X3582501Y2478838D01*
X4373666Y351771D02*
X4385837Y363942D01*
X4370235Y347612D02*
X4372532Y350500D01*
X4389614Y366690D02*
X4394949Y369418D01*
X3572196Y2505433D02*
X3581130Y2496499D01*
X4261716Y219290D02*
X4369948Y347262D01*
X3581130Y2480209D02*
Y2496499D01*
X4396302Y370201D02*
X4412414Y380689D01*
X3352773Y2076858D02*
X3354940Y2079305D01*
X3397430Y2176178D01*
X3523497Y2488345D02*
X3547501Y2464341D01*
X3523497Y2488345D02*
Y2653114D01*
X3617501Y2504318D02*
X3630681Y2517498D01*
X3572196Y2505433D02*
Y2796584D01*
X3358526Y2781500D02*
X3383323D01*
X3367314Y2457686D02*
Y2772712D01*
Y2457686D02*
X3500000Y2325000D01*
X3356500Y2781500D02*
X3358526D01*
X3529020Y2796584D02*
X3572196D01*
X3503644Y2821960D02*
X3529020Y2796584D01*
X3423784Y2821960D02*
X3503644D01*
X3383323Y2781500D02*
X3423784Y2821960D01*
X1406250Y908751D02*
X1457026Y857975D01*
X808964Y408964D02*
X880586D01*
X794586Y394586D02*
X808964Y408964D01*
X708787Y250000D02*
X868766D01*
X700000Y258787D02*
X708787Y250000D01*
X700000Y258787D02*
Y352842D01*
X698186Y354656D02*
X700000Y352842D01*
X1303113Y396860D02*
X1303754Y397501D01*
X1015626Y396860D02*
X1303113D01*
X868766Y250000D02*
X1015626Y396860D01*
X798927Y490888D02*
Y490986D01*
Y490888D02*
X1085509Y477971D01*
X754656Y490986D02*
X798927D01*
X1175000Y2608290D02*
X1228051Y2555240D01*
X1180000Y1721072D02*
X1240554Y1658941D01*
X1200000Y2975000D02*
X1471622D01*
X1471622Y2975000D01*
X1175000Y2950000D02*
X1200000Y2975000D01*
X1175000Y2608290D02*
Y2950000D01*
X1685120Y2505519D02*
Y2658674D01*
X1521346Y2822448D02*
X1685120Y2658674D01*
X1471622Y2975000D02*
X1521346Y2925276D01*
Y2822448D02*
Y2925276D01*
X1554396Y2109707D02*
X1639103Y2025000D01*
X1624606Y1990000D02*
X2864497D01*
X1519396Y2095210D02*
X1624606Y1990000D01*
X1554396Y2109707D02*
Y2189568D01*
X1640916Y2276088D01*
X1901088D01*
X2864497Y1990000D02*
X2886967Y1999394D01*
X1805858Y2594141D02*
X1950000Y2450000D01*
Y2325000D02*
Y2450000D01*
X1901088Y2276088D02*
X1950000Y2325000D01*
X1669937Y2832598D02*
X1675463Y2827072D01*
Y2746597D02*
Y2827072D01*
Y2746597D02*
X1805858Y2616202D01*
X1632105Y3267077D02*
X1691403D01*
X1438328Y3460855D02*
X1632105Y3267077D01*
X1691403D02*
X1745145Y3213336D01*
Y3198425D02*
Y3213336D01*
Y3198424D02*
Y3198425D01*
X1787702Y3179552D02*
X1814215Y3153039D01*
X1706359Y3302077D02*
X1787702Y3220734D01*
Y3179552D02*
Y3220734D01*
X1640675Y3326998D02*
X1679704Y3304134D01*
X1687286Y3302077D02*
X1706359D01*
X1448698Y4083899D02*
X1600000Y4235201D01*
X1438328Y3460855D02*
Y3879622D01*
X1448698Y3889992D02*
Y4083899D01*
X1438328Y3879622D02*
X1448698Y3889992D01*
X1600000Y4235201D02*
Y4249994D01*
X1742904Y3357096D02*
X1959528D01*
X2275000Y3041625D01*
Y2241551D02*
Y3041625D01*
X1543600Y3556400D02*
Y3829427D01*
Y3556400D02*
X1742904Y3357096D01*
X1543600Y3829427D02*
X1600000Y3885827D01*
Y4000002D01*
X1581478Y3686638D02*
Y3719129D01*
X1657100Y3871400D02*
X1731302Y3945602D01*
X1578600Y3722007D02*
Y3814930D01*
X1635070Y3871400D02*
X1657100D01*
X1578600Y3814930D02*
X1635070Y3871400D01*
X1578600Y3722007D02*
X1581478Y3719129D01*
X1731302Y3945602D02*
X1795602D01*
X1850002Y4000002D01*
X1581478Y3686638D02*
X1876021Y3392096D01*
X3768001Y2674998D02*
X3815498Y2627501D01*
X3817321D02*
X4271400Y2173421D01*
X3724001Y2674998D02*
X3768001D01*
X3815498Y2627501D02*
X3817321D01*
X4271400Y2049011D02*
Y2173421D01*
X3817321Y2847500D02*
X4367800Y2297021D01*
X3768001Y2894997D02*
X3815498Y2847500D01*
X4367800Y1800950D02*
Y2297021D01*
X4346102Y1779251D02*
X4367800Y1800950D01*
X4346102Y1748944D02*
Y1779251D01*
X3815498Y2847500D02*
X3817321D01*
X3724001Y2894997D02*
X3768001D01*
X3817321Y2957498D02*
X4517380Y2257438D01*
X3768001Y3005000D02*
X3815503Y2957498D01*
X4517380Y1900547D02*
Y2257438D01*
X4521500Y1896428D02*
X4521500Y1896427D01*
X4517380Y1900547D02*
X4521500Y1896428D01*
X3815503Y2957498D02*
X3817321D01*
X3724001Y3005000D02*
X3768001D01*
X3456480Y593905D02*
Y1038683D01*
X3447693Y1047470D02*
X3456480Y1038683D01*
X2659967Y1047470D02*
X3447693D01*
X3775000Y700001D02*
Y1050000D01*
X3423609Y348610D02*
X3775000Y700001D01*
X3736303Y1088697D02*
X3775000Y1050000D01*
X2731305Y1088697D02*
X3736303D01*
X2650001Y1162502D02*
X2657500D01*
X2731305Y1088697D01*
X3349999Y275000D02*
Y282240D01*
X3416370Y348610D01*
X3423609D01*
X2650001Y1037503D02*
X2659967Y1047470D01*
X3156401Y516152D02*
X3170951Y501602D01*
X3364177D01*
X3456480Y593905D01*
X3123834Y937496D02*
X3206533Y854797D01*
X3221400Y700848D02*
Y839930D01*
X3206533Y854797D02*
X3221400Y839930D01*
Y700848D02*
X3324247Y598002D01*
X2640688Y937496D02*
X3123834D01*
X2593182Y985002D02*
X2640688Y937496D01*
X2300004Y985002D02*
X2593182D01*
X4782502Y1527501D02*
X4805002Y1550000D01*
X4702501Y1527501D02*
X4782502D01*
X4600000Y1425000D02*
X4702501Y1527501D01*
X4368901Y1425000D02*
X4600000D01*
X4018901Y1775000D02*
X4368901Y1425000D01*
X3714999Y2204000D02*
X3782499Y2136500D01*
Y2075678D02*
Y2136500D01*
Y2075678D02*
X3997471Y1860706D01*
Y1796430D02*
Y1860706D01*
Y1796430D02*
X4018901Y1775000D01*
X2667217Y3650000D02*
X2669049Y3649898D01*
X1800000Y3650000D02*
X2667217D01*
X3351248Y2075334D02*
X3352773Y2076858D01*
X2728600Y2343260D02*
X2785373Y2286487D01*
X2728600Y2343260D02*
Y2740979D01*
X2728600Y2747192D01*
X2781779Y2159606D02*
X2785373Y2274060D01*
X3025333Y3048114D02*
Y3250333D01*
X2785373Y2274060D02*
Y2286487D01*
X2681149Y4354544D02*
X2727555Y4308138D01*
X2681068Y4354625D02*
X2681149Y4354544D01*
X1876021Y3392096D02*
X2301213D01*
X2310000Y3383309D01*
X3155257Y1481835D02*
X3209860Y1577740D01*
X2796528Y1327497D02*
X3150750Y1476572D01*
X3152828Y1478649D01*
X3154258Y1480080D02*
X3155257Y1481835D01*
X3152830Y1478652D02*
X3154258Y1480080D01*
X2326285Y1327497D02*
X2796528D01*
X2299999Y1339997D02*
X2312499Y1327497D01*
X2326285D01*
X2326285Y1327497D01*
X2724997Y1399997D02*
X2725002Y1400002D01*
Y1549994D01*
Y1650002D01*
X3724001Y2454998D02*
X3845002D01*
X4175000Y2125000D01*
Y1900001D02*
Y2125000D01*
X1675000Y3775000D02*
X1800000Y3650000D01*
X1733922Y2232764D02*
X2266213D01*
X2275000Y2241551D01*
X1650796Y2149638D02*
X1733922Y2232764D01*
X2293180Y2127702D02*
X2305607Y2127701D01*
X2310000Y2132095D01*
X1835015Y2136364D02*
X2293180Y2127702D01*
X1650796Y2149638D02*
X1680672Y2145420D01*
X3025333Y3250333D02*
X3125000Y3350000D01*
X4799016Y3245984D02*
X4825000Y3220000D01*
X3595986Y3245984D02*
X4799016D01*
X3255568D02*
X3595986D01*
X3600001Y3250000D02*
Y4000002D01*
X3595986Y3245984D02*
X3600001Y3250000D01*
X4825000Y2639173D02*
Y3220000D01*
X4971400Y1969449D02*
Y2492773D01*
X4825000Y2639173D02*
X4971400Y2492773D01*
X4875000Y2638670D02*
X5006400Y2507270D01*
X4875000Y2638670D02*
Y3483293D01*
X4852502Y1650000D02*
X5006400Y1803898D01*
X4805002Y1803051D02*
X4971400Y1969449D01*
X4805002Y1750000D02*
Y1803051D01*
X5006400Y1803898D02*
Y2507270D01*
X4805002Y1650000D02*
X4852502D01*
X3410194Y3014804D02*
X3413849Y3011149D01*
X3453530Y2971469D01*
X3376584Y3018910D02*
X3378964Y3018619D01*
X3410194Y3014804D01*
X3453530Y2971469D02*
X3604090Y2820911D01*
X3642125Y2817500D02*
X3691501D01*
X3724001Y2785000D01*
X3638714Y2820911D02*
X3642125Y2817500D01*
X3604090Y2820911D02*
X3638714D01*
X1749998Y3003031D02*
X1750003Y3167881D01*
X1473328Y3512174D02*
X1474883Y3496875D01*
X1637651Y3329334D02*
X1640675Y3326998D01*
X1474883Y3496875D02*
X1479199Y3487786D01*
X1637651Y3329334D01*
X1814216Y3153038D02*
X1814217D01*
X1843622Y3123632D01*
X1814215Y3153039D02*
X1814216Y3153038D01*
X1977800Y3022892D02*
X1984044Y3016648D01*
X1981985Y2946218D02*
X1984044Y3010193D01*
Y3016648D01*
X1914630Y3052628D02*
X1977800Y3022892D01*
X1843622Y3123632D02*
X1914630Y3052628D01*
X1473328Y3548371D02*
X1482348Y3616672D01*
X1473328Y3512174D02*
Y3548371D01*
X1482348Y3616672D02*
X1504560Y3896357D01*
X2310000Y2132095D02*
Y3383309D01*
X3463714Y2725560D02*
X3523497Y2653114D01*
X4549820Y626565D02*
X4550000D01*
X4506695Y454899D02*
X4506705Y454909D01*
Y454941D01*
X4525000Y3796128D02*
Y4025000D01*
Y3796128D02*
X4539641Y3781488D01*
X4681724Y3933233D02*
Y3937836D01*
Y3933233D02*
X4702564Y3912394D01*
X4639081Y3980479D02*
Y4010786D01*
Y3980479D02*
X4681724Y3937836D01*
X4719895Y3912394D02*
X4757502Y3950001D01*
X4805002D01*
X4702564Y3912394D02*
X4719895D01*
X3358526Y2781500D02*
X3367314Y2772712D01*
X4445295Y287069D02*
X4735002Y377500D01*
X4805003Y400000D01*
X4175000Y1900000D02*
X4175000Y1900001D01*
X1203969Y503283D02*
X1395293Y604312D01*
X1401287Y610306D01*
X3349999Y275000D02*
X3404399Y220601D01*
X3468700D02*
X3589300Y100000D01*
X1504560Y3896357D02*
Y3918493D01*
X3638096Y4188099D02*
X3675201Y4160000D01*
X3599996Y4249999D02*
X3638096Y4188099D01*
X3976069Y3506761D02*
X3976137Y3506719D01*
X3675201Y4160000D02*
X3735000Y4100202D01*
X3700000Y3547498D02*
X3714999Y3469997D01*
X3735000Y4100202D02*
X3751298Y4076833D01*
Y3586284D02*
Y4076833D01*
X3660704Y4125000D02*
X3700000Y4085705D01*
Y3547498D02*
Y4085705D01*
X3964996Y3513690D02*
X3976069Y3506761D01*
X1245815Y1655518D02*
X1255857Y1645477D01*
X1256241Y1645092D02*
X1277511Y1623823D01*
X1256145Y1645189D02*
X1256241Y1645092D01*
X1255857Y1645477D02*
X1255985Y1645349D01*
X1407350Y4405540D02*
X1407350Y4405541D01*
X2157351Y4405535D02*
X2157352Y4405536D01*
X2407348Y4405540D02*
X2407348Y4405541D01*
X2547401Y4407493D02*
X2652594Y4407493D01*
X1907349Y4405540D02*
X1907349Y4405541D01*
X1297401Y4407498D02*
X1402594Y4407498D01*
X2657350Y4405535D02*
X2657351Y4405536D01*
X1547403Y4407493D02*
X1652596Y4407493D01*
X2670801Y4402499D02*
X2747501D01*
X2297399Y4407498D02*
X2402592Y4407498D01*
X1657352Y4405535D02*
X1657353Y4405536D01*
X2170802Y4402499D02*
X2279104D01*
X1670803D02*
X1779105D01*
X2047402Y4407493D02*
X2152595Y4407493D01*
X1797400Y4407498D02*
X1902593Y4407498D01*
X3450000Y3550000D02*
X3475000D01*
X3349999Y3650001D02*
X3450000Y3550000D01*
X3714999Y3469997D02*
X3782499Y3425000D01*
X3925000D01*
X2762494Y455001D02*
X2835409Y436686D01*
X2918059Y454073D02*
X2990001Y509999D01*
X3025001Y537499D01*
X2714994Y550001D02*
X2762494Y455001D01*
X3286386Y2709923D02*
X3351801Y2776801D01*
X3356500Y2781500D01*
X1243978Y1655518D02*
X1245815D01*
X1277511Y1478167D02*
X1393177Y1362501D01*
X1240554Y1658941D02*
X1243978Y1655518D01*
X1277511Y1478167D02*
Y1623823D01*
X4506705Y454941D02*
X4616393Y498248D01*
X4417227Y415389D02*
X4421727Y394930D01*
X4188713Y152500D02*
X4232426Y190000D01*
X3972500Y152500D02*
X4188713D01*
X4616393Y498248D02*
X4628820D01*
X4421201Y389476D02*
X4421727Y394930D01*
X4211716Y225000D02*
X4220503Y233788D01*
X4412414Y380689D02*
X4421201Y389476D01*
X4232426Y190000D02*
X4261716Y219290D01*
X4150000Y225000D02*
X4211716D01*
X4427500Y713318D02*
Y725000D01*
X4628820Y498248D02*
X4630503Y496564D01*
X4412599Y477965D02*
X4427500Y713318D01*
X4448714Y722505D02*
X4549561Y722964D01*
X4550240Y722964D02*
X4735002Y722505D01*
X4805003Y700004D01*
X4429996Y722505D02*
X4448714D01*
X4693461Y535958D02*
X4757503Y600000D01*
X4681034Y535958D02*
X4693461Y535958D01*
X4427500Y725000D02*
X4429996Y722505D01*
X4550000Y626565D02*
X4681034Y535958D01*
X4707000Y500000D02*
X4805003D01*
X4703565Y496564D02*
X4707000Y500000D01*
X4630503Y496564D02*
X4703565D01*
X1242511Y1400686D02*
X1345695Y1297503D01*
X1556998D01*
X1242511Y1400686D02*
Y1609325D01*
X1198380Y1243452D02*
Y1431635D01*
X1100011Y1505006D02*
X1125010D01*
X1198380Y1431635D01*
Y1243452D02*
X1242510Y1199322D01*
X847501Y3801961D02*
Y3972501D01*
X1561900Y4372494D02*
X1638100D01*
X2727555Y4146247D02*
Y4308138D01*
X1311898Y4372499D02*
X1388098D01*
X2162191Y4367499D02*
X2287792D01*
X2420843Y4402499D02*
X2529123D01*
X2061899Y4372494D02*
X2138099D01*
X2311896Y4372499D02*
X2388096D01*
X1811897D02*
X1888097D01*
X2412200Y4367499D02*
X2537806D01*
X1420845Y4402499D02*
X1529125D01*
X847501Y3972501D02*
X1223640Y4348640D01*
X1912201Y4367499D02*
X2037807D01*
X921384Y3882673D02*
X1253873Y4329375D01*
X1412202Y4367499D02*
X1537808D01*
X2561898Y4372494D02*
X2638098D01*
X1662192Y4367499D02*
X1787793D01*
X1920844Y4402499D02*
X2029124D01*
X1541791Y4127494D02*
X1663201D01*
X1501300Y3938102D02*
Y4061902D01*
X1519108Y4104811D02*
X1541791Y4127494D01*
X1686114Y1427500D02*
X1694901Y1436288D01*
X1778786Y1528101D01*
X1556998Y1232504D02*
X1619498Y1244004D01*
X1778786Y1528101D02*
X2035675Y1784990D01*
X1636318Y1256003D02*
X1649498Y1269183D01*
X1619498Y1244004D02*
X1636318Y1256003D01*
X1649498Y1269183D02*
X1813786Y1513604D01*
X1556998Y1427500D02*
X1686114D01*
X2584997Y1259997D02*
X2617496Y1292497D01*
X4466111Y1183048D02*
X4735003Y914156D01*
Y822504D02*
X4805003Y800004D01*
X4735003Y822504D02*
Y914156D01*
X4462500Y1188872D02*
X4462500Y1186659D01*
X4466111Y1183048D01*
X4693713Y100000D02*
X4735003Y141290D01*
X3589300Y100000D02*
X4693713D01*
X3850000Y267761D02*
Y275000D01*
X3916371Y201390D02*
X3923610D01*
X3850000Y267761D02*
X3916371Y201390D01*
X3923610D02*
X3972500Y152500D01*
X2875000Y3791000D02*
Y3975002D01*
X1203655Y503118D02*
X1203969Y503283D01*
X4544902Y4044902D02*
Y4119902D01*
X4525000Y4025000D02*
X4544902Y4044902D01*
X3897503Y3577498D02*
X3962327Y3516305D01*
X3760085Y3577498D02*
X3897503D01*
X3925000Y4416213D02*
X5056290D01*
X3580509D02*
X3925000D01*
Y4360701D02*
Y4416213D01*
X3850000Y4250000D02*
Y4285701D01*
X3925000Y4360701D01*
X5056290Y4416213D02*
X5192500Y4280003D01*
X3501296Y4337000D02*
X3580509Y4416213D01*
X3501296Y4162998D02*
Y4337000D01*
Y4162998D02*
X3539293Y4125000D01*
X3660704D01*
X2118003Y1102497D02*
X2219938D01*
X1231318Y1620518D02*
X1242511Y1609325D01*
X1145000Y1706837D02*
X1216926Y1633038D01*
X3349999Y3650001D02*
Y4000002D01*
X4805002Y1166620D02*
Y1250001D01*
X4750000Y1111618D02*
X4805002Y1166620D01*
X4750000Y1100000D02*
Y1111618D01*
X4805002Y1350001D02*
X4852502D01*
X4975000Y1227503D01*
Y1225000D02*
Y1227503D01*
X2850000Y4000002D02*
X2875000Y3975002D01*
X4544902Y4119902D02*
X4575001Y4150001D01*
X4805002D01*
Y1450001D02*
X4827502Y1427501D01*
X4997500D01*
X5000000Y1425000D01*
X2800190Y4299804D02*
X2850000Y4249994D01*
X2800190Y4299804D02*
Y4349810D01*
X2747501Y4402499D02*
X2800190Y4349810D01*
X2637499Y1150000D02*
X2650001Y1162502D01*
X538139Y1227636D02*
X559569Y1206206D01*
X4805002Y1550000D02*
X5192500D01*
Y1880002D01*
Y1119999D02*
Y1550000D01*
X3751298Y3586284D02*
X3760085Y3577498D01*
X5200000Y1887503D02*
Y2150000D01*
X5192500Y1880002D02*
X5200000Y1887503D01*
X5192500Y930002D02*
Y1119999D01*
Y930002D02*
X5192500Y930001D01*
X4757503Y600000D02*
X4805003D01*
X2299999Y1259997D02*
X2584997D01*
X1975000Y1050000D02*
X1987497Y1037503D01*
X1100001Y699998D02*
Y725001D01*
X1387501Y977501D02*
X1400001Y990000D01*
X1352501Y977501D02*
X1387501D01*
X1100001Y725001D02*
X1352501Y977501D01*
X1406250Y908751D02*
X1555748D01*
X2714994Y550001D02*
Y774994D01*
X5192500Y170003D02*
Y930001D01*
X5200000Y2150000D02*
Y3500000D01*
X4805002Y4050001D02*
X4932503D01*
X5162500Y3820004D01*
X5192500D01*
Y3507500D02*
Y3820004D01*
Y3507500D02*
X5200000Y3500000D01*
X5192500Y3820004D02*
Y4280003D01*
X1393177Y1362501D02*
X1556998D01*
X4427500Y725000D02*
Y1174375D01*
X4735003Y141290D02*
Y277500D01*
X4757503Y300000D02*
X4805003D01*
X4735003Y277500D02*
X4757503Y300000D01*
X3404399Y220601D02*
X3468700D01*
X4100000Y275000D02*
X4150000Y225000D01*
X2727555Y4146247D02*
X2850000Y4023802D01*
Y4000002D02*
Y4023802D01*
X1663201Y4127494D02*
X1731307Y4195599D01*
X1795597D02*
X1849997Y4249999D01*
X1731307Y4195599D02*
X1795597D01*
X2099999Y275000D02*
Y282240D01*
X2033629Y348610D02*
X2099999Y282240D01*
X2026389Y348610D02*
X2033629D01*
X1850002Y267761D02*
X1916373Y201391D01*
X1850002Y267761D02*
Y275000D01*
X1916373Y201391D02*
X1923612D01*
X1432502Y1492499D02*
X1582002D01*
X1242510Y1111285D02*
Y1199322D01*
Y1111285D02*
X1251299Y1102502D01*
X1556998D01*
X1157512Y1037503D02*
X1556998D01*
X1100011Y1095004D02*
X1157512Y1037503D01*
X1422510Y972500D02*
X1556998D01*
X1405004Y990000D02*
X1422510Y972500D01*
X1400001Y990000D02*
X1405004D01*
X1555748Y908751D02*
X1556998Y907501D01*
X3025001Y412501D02*
X3032504D01*
X3060002Y385003D01*
Y289997D02*
Y385003D01*
Y289997D02*
X3074998Y275000D01*
X2118003Y907496D02*
X2169006D01*
X2192506Y883996D01*
X2197327D01*
X2300690Y907496D02*
X2452490D01*
X2479988Y849996D02*
Y879998D01*
X2452490Y907496D02*
X2479988Y879998D01*
X2669990Y819998D02*
X2714994Y774994D01*
X2669990Y819998D02*
Y849996D01*
X2197327Y883996D02*
X2384997Y696320D01*
Y550001D02*
Y696320D01*
X2118003Y1297498D02*
X2252496D01*
X2295000Y1339997D02*
X2299999D01*
X2547506Y1427495D02*
X2574999Y1399997D01*
X2118003Y1362496D02*
X2272506D01*
X2118003Y1427495D02*
X2547506D01*
X2252496Y1297498D02*
X2295000Y1339997D01*
X2272506Y1362496D02*
X2295000Y1339997D01*
X2118003Y1492499D02*
X2530001D01*
X2574999Y1537497D01*
Y1549994D01*
X1375002Y1499997D02*
X1424999D01*
X1432502Y1492499D01*
X2118003Y972495D02*
X2235696D01*
X2622503Y1065001D02*
X2650001Y1037503D01*
X2300004Y1065001D02*
X2622503D01*
X2212003Y1232499D02*
X2239501Y1259997D01*
X2299999D01*
X2490001Y1150000D02*
X2637499D01*
X2118003Y1232499D02*
X2212003D01*
X2397504Y1167496D02*
X2410001Y1154994D01*
X2118003Y1167496D02*
X2397504D01*
X2410001Y1150000D02*
Y1154994D01*
X2257433Y1065001D02*
X2300004D01*
X2219938Y1102497D02*
X2257433Y1065001D01*
X2235696Y972495D02*
X2300690Y907496D01*
X1580752Y908751D02*
X1582002Y907496D01*
D24*
X4805003Y300000D02*
D03*
Y400000D02*
D03*
Y500000D02*
D03*
Y700004D02*
D03*
Y800004D02*
D03*
Y600000D02*
D03*
X4805002Y4150001D02*
D03*
Y3950001D02*
D03*
Y4050001D02*
D03*
Y1250001D02*
D03*
Y1350001D02*
D03*
Y1450001D02*
D03*
Y1650000D02*
D03*
Y1750000D02*
D03*
Y1550000D02*
D03*
D25*
X5192500Y170003D02*
D03*
Y930001D02*
D03*
X5192500Y3820004D02*
D03*
Y4280003D02*
D03*
Y1119999D02*
D03*
Y1880002D02*
D03*
D33*
X2574999Y1549994D02*
D03*
X2725002D02*
D03*
X2574999Y1399997D02*
D03*
X2724997D02*
D03*
D34*
X2384997Y550001D02*
D03*
X2714994D02*
D03*
D49*
X2479988Y849996D02*
D03*
X2669990D02*
D03*
D50*
X2299999Y1259997D02*
D03*
Y1339997D02*
D03*
X2300004Y985002D02*
D03*
Y1065001D02*
D03*
X1400001Y910000D02*
D03*
Y990000D02*
D03*
D51*
X2410001Y1150000D02*
D03*
X2490001D02*
D03*
D56*
X414401Y1934399D02*
D03*
Y2434398D02*
D03*
D57*
X490220Y924560D02*
D03*
X388620Y416560D02*
D03*
X287020Y924560D02*
D03*
D58*
X399996Y1550000D02*
D03*
D59*
X1100001Y699998D02*
D03*
X4150003Y3750000D02*
D03*
Y699998D02*
D03*
X1100001Y3750000D02*
D03*
D60*
X3850000Y4250000D02*
D03*
X3849998Y4000002D02*
D03*
X3600001D02*
D03*
X3599996Y4249999D02*
D03*
X3349994Y4240799D02*
D03*
X3349999Y4000002D02*
D03*
X3100002D02*
D03*
X3099997Y4249994D02*
D03*
X2850000D02*
D03*
Y4000002D02*
D03*
X2599998D02*
D03*
Y4249994D02*
D03*
X2349996Y4249999D02*
D03*
X2099999Y4000002D02*
D03*
Y4249994D02*
D03*
X1849997Y4249999D02*
D03*
X1850002Y4000002D02*
D03*
X1600000D02*
D03*
Y4249994D02*
D03*
X1349998Y4249999D02*
D03*
Y3999997D02*
D03*
X4100000Y275000D02*
D03*
X3850000D02*
D03*
X3600000D02*
D03*
X3349999Y275000D02*
D03*
X3074998D02*
D03*
X2850000D02*
D03*
X2600003D02*
D03*
X2350001D02*
D03*
X1850002D02*
D03*
X1600000D02*
D03*
X1350003D02*
D03*
X2350001Y4000002D02*
D03*
X2099999Y275000D02*
D03*
D61*
X1762240Y2441396D02*
D03*
X1828841Y2630433D02*
D03*
X1351665Y2410178D02*
D03*
X3784600Y508000D02*
D03*
X736600Y3530600D02*
D03*
X533400Y3479800D02*
D03*
X1104900Y266700D02*
D03*
X393700Y1079500D02*
D03*
X4425000Y3100000D02*
D03*
X4610166Y3118962D02*
D03*
X1400000Y2650000D02*
D03*
X2700000Y3550000D02*
D03*
X2959333Y3578599D02*
D03*
X3150000Y3550000D02*
D03*
X1444560Y680387D02*
D03*
X1130968Y2494597D02*
D03*
X3155751Y3146167D02*
D03*
X1650796Y2149638D02*
D03*
X3317800Y774884D02*
D03*
X1899668Y3204108D02*
D03*
X3397430Y2176178D02*
D03*
X2781779Y2159606D02*
D03*
X2858894Y538404D02*
D03*
X2972601Y679739D02*
D03*
X4346102Y1748944D02*
D03*
X3445527Y1250000D02*
D03*
X1981985Y2946218D02*
D03*
X4271400Y2049011D02*
D03*
X3300000Y951070D02*
D03*
X4665941Y2309832D02*
D03*
X1835015Y2136364D02*
D03*
X1651473Y3170677D02*
D03*
X2424712Y3100970D02*
D03*
X3463714Y2725560D02*
D03*
X2976438Y1902389D02*
D03*
X4549820Y626565D02*
D03*
X4506695Y454899D02*
D03*
X4875000Y2025000D02*
D03*
X1418345Y2868345D02*
D03*
X3117175Y2918367D02*
D03*
X1403600Y3174870D02*
D03*
X1500000Y1800000D02*
D03*
X1325000Y1725000D02*
D03*
X794586Y394586D02*
D03*
X3156401Y516152D02*
D03*
X4539641Y3781488D02*
D03*
X4639081Y4010786D02*
D03*
X4445295Y287069D02*
D03*
X2781401Y1196097D02*
D03*
X3042671Y1185097D02*
D03*
X3209860Y1577740D02*
D03*
X3619504Y1687417D02*
D03*
X4175000Y1900000D02*
D03*
X2171901Y2965796D02*
D03*
X767245Y1201051D02*
D03*
X1725000Y1675000D02*
D03*
X3618165Y693165D02*
D03*
X4018901Y1775000D02*
D03*
X3125000Y800000D02*
D03*
X3324247Y598002D02*
D03*
X1669937Y2832598D02*
D03*
X1807755Y2977404D02*
D03*
X1552407Y2519770D02*
D03*
X875000Y2550000D02*
D03*
X1250000Y3375000D02*
D03*
X1675000Y3775000D02*
D03*
X2600000Y2500000D02*
D03*
X3001991Y2398274D02*
D03*
X2825000Y2400000D02*
D03*
X3125000Y3350000D02*
D03*
X3475000Y3550000D02*
D03*
X3925000Y3425000D02*
D03*
X4521500Y1896428D02*
D03*
X3286386Y2709923D02*
D03*
X2349907Y1880690D02*
D03*
X1025002Y1724998D02*
D03*
X672254Y1676964D02*
D03*
X4850000Y2300000D02*
D03*
X4638602Y2577974D02*
D03*
X4600155Y2750748D02*
D03*
X5050000Y2600000D02*
D03*
X4648732Y2946214D02*
D03*
X2875000Y3791000D02*
D03*
X4975000Y2775000D02*
D03*
X4624842Y1225158D02*
D03*
X975000Y2375000D02*
D03*
X4750000Y1100000D02*
D03*
X4975000Y1225000D02*
D03*
X5000000Y1425000D02*
D03*
X559569Y1206206D02*
D03*
X4600000Y1425000D02*
D03*
X1025000Y3375000D02*
D03*
X2175000Y600000D02*
D03*
X1975000D02*
D03*
D62*
X2099999Y3450000D02*
D03*
X1999999Y3550000D02*
D03*
Y3450000D02*
D03*
X1900000Y3550000D02*
D03*
Y3450000D02*
D03*
D78*
X3724001Y3114997D02*
D03*
Y3005000D02*
D03*
Y2894997D02*
D03*
Y2785000D02*
D03*
Y2674998D02*
D03*
Y2454998D02*
D03*
Y2345001D02*
D03*
Y2565000D02*
D03*
D79*
X3879998Y2139500D02*
D03*
D80*
X4619996D02*
D03*
D81*
X3714999Y2204000D02*
D03*
D82*
X5200000Y2150000D02*
D03*
Y3500000D02*
D03*
D83*
X3714999Y3469997D02*
D03*
D84*
X2650001Y1162502D02*
D03*
Y1037503D02*
D03*
X3025001Y537499D02*
D03*
Y412501D02*
D03*
D85*
X1375002Y1499997D02*
D03*
Y1649999D02*
D03*
D86*
X2092999Y1102502D02*
D03*
Y1362501D02*
D03*
Y1297503D02*
D03*
X1556998Y777504D02*
D03*
Y842503D02*
D03*
Y1557502D02*
D03*
Y1622501D02*
D03*
X2092999D02*
D03*
Y1557502D02*
D03*
Y842503D02*
D03*
Y777504D02*
D03*
Y907501D02*
D03*
Y972500D02*
D03*
Y1037503D02*
D03*
Y1167501D02*
D03*
Y1232504D02*
D03*
Y1427500D02*
D03*
Y1492504D02*
D03*
X1556998D02*
D03*
Y1427500D02*
D03*
Y1362501D02*
D03*
Y1297503D02*
D03*
Y1232504D02*
D03*
Y1167501D02*
D03*
Y1102502D02*
D03*
Y1037503D02*
D03*
Y972500D02*
D03*
Y907501D02*
D03*
D87*
X1100011Y1095004D02*
D03*
Y1505006D02*
D03*
%TF.MD5,de89018f1f04af31cb7710a46675b045*%
M02*
