%TF.GenerationSoftware,Altium Limited,Altium Designer,23.4.1 (23)*%
G04 Layer_Color=8388736*
%FSLAX45Y45*%
%MOMM*%
%TF.SameCoordinates,48A87055-20E1-44AA-943F-EC830DB2746A*%
%TF.FilePolarity,Negative*%
%TF.FileFunction,Soldermask,Top*%
%TF.Part,Single*%
G01*
G75*
%TA.AperFunction,BGAPad,CuDef*%
%ADD12C,0.78700*%
%TA.AperFunction,SMDPad,CuDef*%
%ADD13R,0.57247X0.56818*%
G04:AMPARAMS|DCode=18|XSize=0.31247mm|YSize=1.78828mm|CornerRadius=0.15624mm|HoleSize=0mm|Usage=FLASHONLY|Rotation=180.000|XOffset=0mm|YOffset=0mm|HoleType=Round|Shape=RoundedRectangle|*
%AMROUNDEDRECTD18*
21,1,0.31247,1.47581,0,0,180.0*
21,1,0.00000,1.78828,0,0,180.0*
1,1,0.31247,0.00000,0.73791*
1,1,0.31247,0.00000,0.73791*
1,1,0.31247,0.00000,-0.73791*
1,1,0.31247,0.00000,-0.73791*
%
%ADD18ROUNDEDRECTD18*%
G04:AMPARAMS|DCode=19|XSize=1.78828mm|YSize=0.31247mm|CornerRadius=0.15624mm|HoleSize=0mm|Usage=FLASHONLY|Rotation=180.000|XOffset=0mm|YOffset=0mm|HoleType=Round|Shape=RoundedRectangle|*
%AMROUNDEDRECTD19*
21,1,1.78828,0.00000,0,0,180.0*
21,1,1.47581,0.31247,0,0,180.0*
1,1,0.31247,-0.73791,0.00000*
1,1,0.31247,0.73791,0.00000*
1,1,0.31247,0.73791,0.00000*
1,1,0.31247,-0.73791,0.00000*
%
%ADD19ROUNDEDRECTD19*%
%ADD20R,1.78828X0.31247*%
%ADD23R,0.80000X1.70000*%
%ADD26R,0.70000X0.60000*%
%ADD29R,2.84000X6.80000*%
%ADD30R,1.01213X1.20840*%
%ADD31R,0.52000X0.52000*%
%ADD32R,0.52000X0.52000*%
%ADD33R,0.75000X1.00000*%
%ADD34R,1.10000X2.05000*%
%ADD39R,1.25000X1.10000*%
%ADD40R,0.50000X0.35000*%
G04:AMPARAMS|DCode=46|XSize=0.73107mm|YSize=0.30247mm|CornerRadius=0.15124mm|HoleSize=0mm|Usage=FLASHONLY|Rotation=180.000|XOffset=0mm|YOffset=0mm|HoleType=Round|Shape=RoundedRectangle|*
%AMROUNDEDRECTD46*
21,1,0.73107,0.00000,0,0,180.0*
21,1,0.42859,0.30247,0,0,180.0*
1,1,0.30247,-0.21430,0.00000*
1,1,0.30247,0.21430,0.00000*
1,1,0.30247,0.21430,0.00000*
1,1,0.30247,-0.21430,0.00000*
%
%ADD46ROUNDEDRECTD46*%
%ADD47R,1.75000X2.50000*%
%ADD48R,0.91213X0.95872*%
%ADD49R,0.70000X1.30000*%
%ADD50R,0.50000X0.40000*%
%ADD51R,0.40000X0.50000*%
%ADD52R,0.73107X0.30247*%
%TA.AperFunction,ComponentPad*%
%ADD54C,0.99100*%
%ADD56C,0.75000*%
%TA.AperFunction,Conductor*%
%ADD76C,0.70320*%
%TA.AperFunction,SMDPad,CuDef*%
%ADD77R,1.00320X1.15320*%
%ADD78R,2.00320X0.80320*%
G04:AMPARAMS|DCode=79|XSize=2.1032mm|YSize=3.4032mm|CornerRadius=0mm|HoleSize=0mm|Usage=FLASHONLY|Rotation=270.000|XOffset=0mm|YOffset=0mm|HoleType=Round|Shape=Octagon|*
%AMOCTAGOND79*
4,1,8,1.70160,0.52580,1.70160,-0.52580,1.17580,-1.05160,-1.17580,-1.05160,-1.70160,-0.52580,-1.70160,0.52580,-1.17580,1.05160,1.17580,1.05160,1.70160,0.52580,0.0*
%
%ADD79OCTAGOND79*%

%ADD80R,1.60320X0.80320*%
%ADD81R,1.55320X0.60320*%
%ADD82R,2.10320X1.70320*%
%ADD83R,1.75320X0.80320*%
%ADD84R,2.00320X1.40320*%
%ADD85R,1.10320X2.30320*%
%ADD86R,3.40320X2.30320*%
%ADD87R,1.15320X1.00320*%
%ADD88R,1.05320X1.15320*%
%ADD89R,1.10320X1.25320*%
%ADD90R,0.65320X0.65320*%
%ADD91R,1.15320X1.05320*%
%ADD92R,0.55320X1.00320*%
%ADD93R,1.05320X0.55320*%
%ADD94R,2.80320X2.90320*%
%ADD95R,2.20320X0.60320*%
%TA.AperFunction,ComponentPad*%
%ADD96C,1.65320*%
%TA.AperFunction,ViaPad*%
%ADD97C,4.20320*%
G04:AMPARAMS|DCode=98|XSize=1.7272mm|YSize=2.2032mm|CornerRadius=0.4826mm|HoleSize=0mm|Usage=FLASHONLY|Rotation=0.000|XOffset=0mm|YOffset=0mm|HoleType=Round|Shape=RoundedRectangle|*
%AMROUNDEDRECTD98*
21,1,1.72720,1.23800,0,0,0.0*
21,1,0.76200,2.20320,0,0,0.0*
1,1,0.96520,0.38100,-0.61900*
1,1,0.96520,-0.38100,-0.61900*
1,1,0.96520,-0.38100,0.61900*
1,1,0.96520,0.38100,0.61900*
%
%ADD98ROUNDEDRECTD98*%
%ADD99C,1.47320*%
%ADD100C,0.70320*%
G36*
X-548672Y1255096D02*
X-547366Y1254836D01*
X-546105Y1254408D01*
X-544910Y1253819D01*
X-543803Y1253079D01*
X-542801Y1252201D01*
X-541923Y1251199D01*
X-541183Y1250092D01*
X-540594Y1248897D01*
X-540166Y1247636D01*
X-539906Y1246330D01*
X-539819Y1245001D01*
Y1115001D01*
X-539906Y1113672D01*
X-540166Y1112366D01*
X-540594Y1111105D01*
X-541183Y1109910D01*
X-541923Y1108803D01*
X-542801Y1107801D01*
X-543803Y1106923D01*
X-544910Y1106183D01*
X-546105Y1105594D01*
X-547366Y1105166D01*
X-548672Y1104906D01*
X-550001Y1104819D01*
X-589816D01*
Y1065003D01*
X-589904Y1063674D01*
X-590163Y1062368D01*
X-590591Y1061107D01*
X-590882Y1060518D01*
X-591180Y1059913D01*
X-591920Y1058805D01*
X-592798Y1057804D01*
X-592799D01*
Y1057804D01*
X-593800Y1056925D01*
X-594907Y1056186D01*
X-595512Y1055887D01*
X-596102Y1055596D01*
X-597363Y1055168D01*
X-598669Y1054908D01*
X-599998Y1054821D01*
X-690001Y1054819D01*
D01*
X-690001D01*
X-691330Y1054906D01*
X-692636Y1055166D01*
X-693897Y1055594D01*
X-694486Y1055885D01*
X-695092Y1056183D01*
X-696199Y1056923D01*
X-697200Y1057801D01*
Y1057801D01*
X-697201D01*
X-698079Y1058803D01*
X-698819Y1059910D01*
X-699117Y1060515D01*
X-699408Y1061104D01*
X-699836Y1062365D01*
X-700096Y1063672D01*
X-700183Y1065001D01*
Y1065001D01*
D01*
Y1104819D01*
X-740001D01*
X-741330Y1104906D01*
X-742636Y1105166D01*
X-743897Y1105594D01*
X-745092Y1106183D01*
X-746199Y1106923D01*
X-747201Y1107801D01*
X-748079Y1108803D01*
X-748819Y1109910D01*
X-749408Y1111105D01*
X-749836Y1112366D01*
X-750096Y1113672D01*
X-750183Y1115001D01*
Y1245001D01*
X-750096Y1246330D01*
X-749836Y1247636D01*
X-749408Y1248897D01*
X-748819Y1250092D01*
X-748079Y1251199D01*
X-747201Y1252201D01*
X-746199Y1253079D01*
X-745092Y1253819D01*
X-743897Y1254408D01*
X-742636Y1254836D01*
X-741330Y1255096D01*
X-740001Y1255183D01*
X-550001D01*
X-548672Y1255096D01*
D02*
G37*
G36*
X-598672Y1895096D02*
X-597366Y1894836D01*
X-596105Y1894408D01*
X-595516Y1894118D01*
X-594910Y1893819D01*
X-593803Y1893079D01*
X-592802Y1892201D01*
Y1892201D01*
X-592801D01*
X-591923Y1891200D01*
X-591183Y1890092D01*
X-590885Y1889487D01*
X-590594Y1888898D01*
X-590166Y1887637D01*
X-589906Y1886330D01*
X-589819Y1885002D01*
Y1885001D01*
D01*
Y1845183D01*
X-550001D01*
X-548672Y1845096D01*
X-547366Y1844836D01*
X-546105Y1844408D01*
X-544910Y1843819D01*
X-543803Y1843079D01*
X-542801Y1842201D01*
X-541923Y1841200D01*
X-541183Y1840092D01*
X-540594Y1838898D01*
X-540166Y1837636D01*
X-539906Y1836330D01*
X-539819Y1835001D01*
Y1705001D01*
X-539906Y1703672D01*
X-540166Y1702366D01*
X-540594Y1701105D01*
X-541183Y1699910D01*
X-541923Y1698803D01*
X-542801Y1697802D01*
X-543803Y1696923D01*
X-544910Y1696184D01*
X-546105Y1695594D01*
X-547366Y1695166D01*
X-548672Y1694906D01*
X-550001Y1694819D01*
X-740001D01*
X-741330Y1694906D01*
X-742636Y1695166D01*
X-743897Y1695594D01*
X-745092Y1696184D01*
X-746199Y1696923D01*
X-747201Y1697802D01*
X-748079Y1698803D01*
X-748819Y1699910D01*
X-749408Y1701105D01*
X-749836Y1702366D01*
X-750096Y1703672D01*
X-750183Y1705001D01*
Y1835001D01*
X-750096Y1836330D01*
X-749836Y1837636D01*
X-749408Y1838898D01*
X-748819Y1840092D01*
X-748079Y1841200D01*
X-747201Y1842201D01*
X-746199Y1843079D01*
X-745092Y1843819D01*
X-743897Y1844408D01*
X-742636Y1844836D01*
X-741330Y1845096D01*
X-740001Y1845183D01*
X-700186D01*
Y1884999D01*
X-700098Y1886328D01*
X-699839Y1887634D01*
X-699411Y1888895D01*
X-699120Y1889484D01*
X-698822Y1890090D01*
X-698082Y1891197D01*
X-697204Y1892198D01*
X-697203D01*
Y1892199D01*
X-696202Y1893077D01*
X-695095Y1893817D01*
X-694490Y1894115D01*
X-693900Y1894406D01*
X-692639Y1894834D01*
X-691333Y1895094D01*
X-690004Y1895181D01*
X-600001Y1895183D01*
D01*
X-600001D01*
X-598672Y1895096D01*
D02*
G37*
D12*
X-763500Y77000D02*
D03*
X-636500D02*
D03*
Y-50000D02*
D03*
X-763500Y-177000D02*
D03*
X-636500D02*
D03*
X-763500Y-50000D02*
D03*
D13*
X1425002Y2229783D02*
D03*
Y2320217D02*
D03*
D18*
X1825001Y880875D02*
D03*
X1774994D02*
D03*
X1725001D02*
D03*
X1674999D02*
D03*
X1625002D02*
D03*
X1574999D02*
D03*
X1525002D02*
D03*
X1474999D02*
D03*
X1425002D02*
D03*
X1375000D02*
D03*
X1325002D02*
D03*
X1274995D02*
D03*
X1225002D02*
D03*
X1175000D02*
D03*
X1275000Y2019120D02*
D03*
X1325002D02*
D03*
X1375000D02*
D03*
X1425002D02*
D03*
X1474999Y2019115D02*
D03*
X1525002Y2019120D02*
D03*
X1574999D02*
D03*
X1625002D02*
D03*
X1674999Y2019115D02*
D03*
X1725001D02*
D03*
X1925001Y2019120D02*
D03*
X1175000Y2019115D02*
D03*
X1925001Y880875D02*
D03*
X1774999Y2019120D02*
D03*
X1825001D02*
D03*
X1874999Y880875D02*
D03*
X1225002Y2019115D02*
D03*
X1874999Y2019120D02*
D03*
D19*
X980878Y1174992D02*
D03*
Y1224995D02*
D03*
Y1274997D02*
D03*
Y1324999D02*
D03*
Y1374997D02*
D03*
Y1424999D02*
D03*
Y1474997D02*
D03*
Y1524999D02*
D03*
Y1574996D02*
D03*
Y1624999D02*
D03*
Y1674996D02*
D03*
Y1724999D02*
D03*
Y1774996D02*
D03*
Y1824998D02*
D03*
X2119123D02*
D03*
Y1774996D02*
D03*
Y1724999D02*
D03*
Y1674996D02*
D03*
Y1574991D02*
D03*
Y1524999D02*
D03*
Y1474997D02*
D03*
Y1424999D02*
D03*
X2119118Y1374997D02*
D03*
X2119123Y1324999D02*
D03*
Y1274997D02*
D03*
Y1224995D02*
D03*
Y1174997D02*
D03*
Y1124995D02*
D03*
X980878Y1074997D02*
D03*
Y1124995D02*
D03*
X2119123Y1624994D02*
D03*
D20*
Y1074992D02*
D03*
D23*
X-530001Y850000D02*
D03*
X-870006D02*
D03*
D26*
X3200000Y1795001D02*
D03*
Y1604999D02*
D03*
X3399999Y1700000D02*
D03*
D29*
X724998Y500002D02*
D03*
D30*
X3450002Y280186D02*
D03*
Y119815D02*
D03*
X2150004Y680185D02*
D03*
Y519809D02*
D03*
X1850000Y2680186D02*
D03*
X3000000Y1619807D02*
D03*
X1850000Y2519810D02*
D03*
X3000000Y1780183D02*
D03*
D31*
X2324997Y1610001D02*
D03*
Y1690001D02*
D03*
X-81497Y2331490D02*
D03*
Y2251490D02*
D03*
X759245Y1084266D02*
D03*
X-75000Y2409996D02*
D03*
X759245Y1004266D02*
D03*
X-75000Y2489996D02*
D03*
D32*
X2389999Y1074998D02*
D03*
X2309999D02*
D03*
X3435000Y2549996D02*
D03*
X3515000D02*
D03*
X2515001Y1374992D02*
D03*
X1890000Y2349996D02*
D03*
X1215010Y2224997D02*
D03*
X1859997Y599997D02*
D03*
X1135010Y2224997D02*
D03*
X1810000Y2349996D02*
D03*
X1939997Y599997D02*
D03*
X2435001Y1374992D02*
D03*
D33*
X-449996Y2224998D02*
D03*
X-299998D02*
D03*
X385908Y1674986D02*
D03*
X535905D02*
D03*
X-450001Y2024998D02*
D03*
X-299998D02*
D03*
D34*
X3060000Y949999D02*
D03*
X3390002D02*
D03*
D39*
X-607501Y2424997D02*
D03*
X-842502D02*
D03*
Y2024998D02*
D03*
Y2625002D02*
D03*
Y2224998D02*
D03*
X-607501Y2024998D02*
D03*
Y2224998D02*
D03*
Y2625002D02*
D03*
D40*
X205004Y2472500D02*
D03*
Y2407502D02*
D03*
Y2342503D02*
D03*
Y2277504D02*
D03*
X45000D02*
D03*
Y2342503D02*
D03*
Y2407502D02*
D03*
Y2472500D02*
D03*
D46*
X2960950Y2632505D02*
D03*
X3239055Y2697504D02*
D03*
X2960950Y2502503D02*
D03*
Y2567501D02*
D03*
Y2697504D02*
D03*
X3239055Y2632505D02*
D03*
Y2567501D02*
D03*
D47*
X3100000Y2600003D02*
D03*
D48*
X2600001Y2802329D02*
D03*
Y2947673D02*
D03*
D49*
X3670001Y2799998D02*
D03*
X3479999D02*
D03*
D50*
X549997Y2814999D02*
D03*
Y2734999D02*
D03*
D51*
X860004Y2525002D02*
D03*
X940004D02*
D03*
D52*
X3239055Y2502503D02*
D03*
D54*
X-700000Y-304000D02*
D03*
X-598400Y204000D02*
D03*
X-801600D02*
D03*
D56*
X-700004Y850000D02*
D03*
D76*
X-587241Y1136499D02*
G03*
X-622913Y1125002I-12760J-21498D01*
G01*
X-577089D02*
G03*
X-587241Y1136499I-22912J-10001D01*
G01*
D02*
G03*
X-622913Y1125002I-12760J-21498D01*
G01*
X-577089D02*
G03*
X-587241Y1136499I-22912J-10001D01*
G01*
Y1093503D02*
G03*
X-577089Y1125002I-12760J21498D01*
G01*
X-625001Y1115001D02*
G03*
X-587241Y1093503I25000J0D01*
G01*
D02*
G03*
X-577089Y1125002I-12760J21498D01*
G01*
X-625001Y1115001D02*
G03*
X-587241Y1093503I25000J0D01*
G01*
X-699091Y1091712D02*
G03*
X-697714Y1091221I9090J23289D01*
G01*
X-699091Y1091712D02*
G03*
X-697714Y1091221I9090J23289D01*
G01*
X-697713Y1091220D02*
G03*
X-692288Y1090106I7712J23781D01*
G01*
X-697713Y1091220D02*
G03*
X-692288Y1090106I7712J23781D01*
G01*
X-697713Y1091220D02*
G03*
X-692288Y1090106I7712J23781D01*
G01*
X-697713Y1091220D02*
G03*
X-692288Y1090106I7712J23781D01*
G01*
X-692280Y1090105D02*
G03*
X-690002Y1090001I2279J24896D01*
G01*
X-692280Y1090105D02*
G03*
X-690002Y1090001I2279J24896D01*
G01*
X-692280Y1090105D02*
G03*
X-690002Y1090001I2279J24896D01*
G01*
X-692280Y1090105D02*
G03*
X-690002Y1090001I2279J24896D01*
G01*
X-712913Y1104999D02*
G03*
X-699096Y1091714I22912J10002D01*
G01*
X-712913Y1104999D02*
G03*
X-699096Y1091714I22912J10002D01*
G01*
X-699091Y1091712D02*
G03*
X-697714Y1091221I9090J23289D01*
G01*
X-699091Y1091712D02*
G03*
X-697714Y1091221I9090J23289D01*
G01*
X-712913Y1104999D02*
G03*
X-699096Y1091714I22912J10002D01*
G01*
X-712913Y1104999D02*
G03*
X-699096Y1091714I22912J10002D01*
G01*
X-690002Y1090001D02*
G03*
X-672550Y1097099I1J25000D01*
G01*
X-690002Y1090001D02*
G03*
X-672550Y1097099I1J25000D01*
G01*
X-690002Y1090001D02*
G03*
X-672550Y1097099I1J25000D01*
G01*
X-690002Y1090001D02*
G03*
X-672550Y1097099I1J25000D01*
G01*
X-714894Y1112694D02*
G03*
X-714893Y1112684I24893J2307D01*
G01*
X-714896Y1112713D02*
G03*
X-714894Y1112694I24895J2288D01*
G01*
Y1112694D02*
G03*
X-714893Y1112684I24893J2307D01*
G01*
X-714896Y1112713D02*
G03*
X-714894Y1112694I24895J2288D01*
G01*
X-714896Y1112713D02*
G03*
X-714894Y1112694I24895J2288D01*
G01*
Y1112694D02*
G03*
X-714893Y1112684I24893J2307D01*
G01*
X-714894Y1112694D02*
G03*
X-714893Y1112684I24893J2307D01*
G01*
X-715001Y1114999D02*
G03*
X-714963Y1113623I25000J2D01*
G01*
X-715001Y1114999D02*
G03*
X-714963Y1113623I25000J2D01*
G01*
X-714962Y1113612D02*
G03*
X-714896Y1112720I24961J1389D01*
G01*
X-714963Y1113621D02*
G03*
X-714962Y1113612I24962J1380D01*
G01*
X-715001Y1114999D02*
G03*
X-714963Y1113623I25000J2D01*
G01*
X-715001Y1114999D02*
G03*
X-714963Y1113623I25000J2D01*
G01*
X-714962Y1113612D02*
G03*
X-714896Y1112720I24961J1389D01*
G01*
X-714963Y1113621D02*
G03*
X-714962Y1113612I24962J1380D01*
G01*
X-714896Y1112713D02*
G03*
X-714894Y1112694I24895J2288D01*
G01*
X-714962Y1113612D02*
G03*
X-714896Y1112720I24961J1389D01*
G01*
X-714963Y1113621D02*
G03*
X-714962Y1113612I24962J1380D01*
G01*
D02*
G03*
X-714896Y1112720I24961J1389D01*
G01*
X-714963Y1113621D02*
G03*
X-714962Y1113612I24962J1380D01*
G01*
X-713841Y1107474D02*
G03*
X-713289Y1105908I23840J7527D01*
G01*
X-713841Y1107474D02*
G03*
X-713289Y1105908I23840J7527D01*
G01*
X-713841Y1107474D02*
G03*
X-713289Y1105908I23840J7527D01*
G01*
X-714263Y1108974D02*
G03*
X-713843Y1107480I24263J6027D01*
G01*
X-714263Y1108974D02*
G03*
X-713843Y1107480I24263J6027D01*
G01*
X-713288Y1105906D02*
G03*
X-712913Y1104999I23287J9095D01*
G01*
X-713288Y1105906D02*
G03*
X-712913Y1104999I23287J9095D01*
G01*
X-713288Y1105906D02*
G03*
X-712913Y1104999I23287J9095D01*
G01*
X-713841Y1107474D02*
G03*
X-713289Y1105908I23840J7527D01*
G01*
X-713288Y1105906D02*
G03*
X-712913Y1104999I23287J9095D01*
G01*
X-714263Y1108974D02*
G03*
X-713843Y1107480I24263J6027D01*
G01*
X-715001Y1115009D02*
G03*
X-715001Y1115001I25000J-8D01*
G01*
X-713184Y1124358D02*
G03*
X-715001Y1115009I23183J-9357D01*
G01*
X-714263Y1108974D02*
G03*
X-713843Y1107480I24263J6027D01*
G01*
X-715001Y1115009D02*
G03*
X-715001Y1115001I25000J-8D01*
G01*
X-713184Y1124358D02*
G03*
X-715001Y1115009I23183J-9357D01*
G01*
X-713182Y1124363D02*
G03*
X-713183Y1124359I23181J-9362D01*
G01*
X-713182Y1124363D02*
G03*
X-713183Y1124359I23181J-9362D01*
G01*
X-712913Y1125003D02*
G03*
X-713180Y1124367I22912J-10002D01*
G01*
X-712913Y1125003D02*
G03*
X-713180Y1124367I22912J-10002D01*
G01*
X-712913Y1125003D02*
G03*
X-713180Y1124367I22912J-10002D01*
G01*
X-712913Y1125003D02*
G03*
X-713180Y1124367I22912J-10002D01*
G01*
X-674844Y1815120D02*
G03*
X-668336Y1822527I-15157J19881D01*
G01*
X-674844Y1815120D02*
G03*
X-668336Y1822527I-15157J19881D01*
G01*
X-622913Y1125002D02*
G03*
X-624281Y1120957I22912J-10001D01*
G01*
X-622913Y1125002D02*
G03*
X-624281Y1120957I22912J-10001D01*
G01*
X-668336Y1822527D02*
G03*
X-665582Y1829642I-21665J12474D01*
G01*
X-668336Y1822527D02*
G03*
X-665582Y1829642I-21665J12474D01*
G01*
X-665582Y1829646D02*
G03*
X-665090Y1832900I-24420J5356D01*
G01*
X-665582Y1829646D02*
G03*
X-665090Y1832900I-24420J5356D01*
G01*
Y1832901D02*
G03*
X-665003Y1834682I-24912J2100D01*
G01*
Y1834683D02*
G03*
X-665001Y1834866I-24998J318D01*
G01*
X-665003Y1834683D02*
G03*
X-665001Y1834866I-24998J318D01*
G01*
D02*
G03*
X-665001Y1834902I-25000J135D01*
G01*
Y1834902D02*
G03*
X-665001Y1834907I-25000J99D01*
G01*
Y1834866D02*
G03*
X-665001Y1834902I-25000J135D01*
G01*
Y1834902D02*
G03*
X-665001Y1834907I-25000J99D01*
G01*
Y1834907D02*
G03*
X-665001Y1834912I-25000J94D01*
G01*
Y1834907D02*
G03*
X-665001Y1834912I-25000J94D01*
G01*
D02*
G03*
X-665001Y1834953I-25000J89D01*
G01*
X-665001Y1834912D02*
G03*
X-665001Y1834953I-25000J89D01*
G01*
X-669989Y1100017D02*
G03*
X-669976Y1100034I-20012J14984D01*
G01*
X-669989Y1100017D02*
G03*
X-669976Y1100034I-20012J14984D01*
G01*
X-714893Y1112682D02*
G03*
X-714271Y1109005I24892J2319D01*
G01*
X-714893Y1112682D02*
G03*
X-714271Y1109005I24892J2319D01*
G01*
X-714893Y1112682D02*
G03*
X-714271Y1109005I24892J2319D01*
G01*
X-714893Y1112682D02*
G03*
X-714271Y1109005I24892J2319D01*
G01*
X-667093Y1125012D02*
G03*
X-712912Y1125004I-22908J-10011D01*
G01*
X-669975Y1100035D02*
G03*
X-667089Y1125002I-20026J14966D01*
G01*
X-667093Y1125012D02*
G03*
X-712912Y1125004I-22908J-10011D01*
G01*
X-667093Y1125012D02*
G03*
X-712912Y1125004I-22908J-10011D01*
G01*
X-667093Y1125012D02*
G03*
X-712912Y1125004I-22908J-10011D01*
G01*
X-669975Y1100035D02*
G03*
X-667088Y1125002I-20026J14966D01*
G01*
X-667089Y1125004D02*
G03*
X-667092Y1125010I-22912J-10003D01*
G01*
X-667089Y1125004D02*
G03*
X-667092Y1125010I-22912J-10003D01*
G01*
X-665001Y1834954D02*
G03*
X-665001Y1834998I-25000J47D01*
G01*
Y1834954D02*
G03*
X-665001Y1834998I-25000J47D01*
G01*
X-701060Y1812580D02*
G03*
X-699072Y1811705I11059J22421D01*
G01*
X-701060Y1812580D02*
G03*
X-699072Y1811705I11059J22421D01*
G01*
X-711302Y1821915D02*
G03*
X-701060Y1812580I21301J13087D01*
G01*
X-715001Y1834998D02*
G03*
X-711302Y1821915I25000J3D01*
G01*
X-679066Y1812520D02*
G03*
X-677527Y1813336I-10935J22482D01*
G01*
X-699068Y1811704D02*
G03*
X-679069Y1812518I9067J23298D01*
G01*
X-715001Y1834998D02*
G03*
X-711302Y1821915I25000J3D01*
G01*
D02*
G03*
X-701060Y1812580I21301J13087D01*
G01*
X-679066Y1812520D02*
G03*
X-677527Y1813336I-10935J22482D01*
G01*
X-677525Y1813337D02*
G03*
X-674844Y1815120I-12476J21664D01*
G01*
X-677525Y1813337D02*
G03*
X-674844Y1815120I-12476J21664D01*
G01*
X-714266Y1108984D02*
G03*
X-714265Y1108978I24265J6017D01*
G01*
X-714266Y1108984D02*
G03*
X-714265Y1108978I24265J6017D01*
G01*
X-699068Y1811704D02*
G03*
X-679071Y1812517I9067J23298D01*
G01*
X-665001Y1835000D02*
G03*
X-715001Y1835001I-25000J1D01*
G01*
X-714270Y1108999D02*
G03*
X-714269Y1108994I24269J6002D01*
G01*
X-714270Y1108999D02*
G03*
X-714269Y1108994I24269J6002D01*
G01*
X-672541Y1097109D02*
G03*
X-672531Y1097118I-17460J17892D01*
G01*
X-672541Y1097109D02*
G03*
X-672531Y1097118I-17460J17892D01*
G01*
D02*
G03*
X-672527Y1097122I-17470J17883D01*
G01*
X-672531Y1097118D02*
G03*
X-672527Y1097122I-17470J17883D01*
G01*
X-672526Y1097123D02*
G03*
X-671898Y1097759I-17475J17878D01*
G01*
X-672526Y1097123D02*
G03*
X-671898Y1097759I-17475J17878D01*
G01*
X-671898Y1097759D02*
G03*
X-671887Y1097771I-18103J17242D01*
G01*
X-671898Y1097759D02*
G03*
X-671887Y1097771I-18103J17242D01*
G01*
X-672550Y1097099D02*
G03*
X-672547Y1097103I-17451J17902D01*
G01*
X-672550Y1097099D02*
G03*
X-672547Y1097103I-17451J17902D01*
G01*
X-625001Y1834999D02*
G03*
X-600005Y1860001I25000J2D01*
G01*
X-616752Y1853559D02*
G03*
X-625001Y1835006I16751J-18558D01*
G01*
X-616752Y1853559D02*
G03*
X-625001Y1835006I16751J-18558D01*
G01*
X-616748Y1853563D02*
G03*
X-616752Y1853560I16747J-18562D01*
G01*
X-616748Y1853563D02*
G03*
X-616752Y1853560I16747J-18562D01*
G01*
X-600006Y1860001D02*
G03*
X-616748Y1853563I5J-25000D01*
G01*
X-600006Y1860001D02*
G03*
X-616748Y1853563I5J-25000D01*
G01*
X-672545Y1097105D02*
G03*
X-672541Y1097108I-17456J17896D01*
G01*
X-672545Y1097105D02*
G03*
X-672541Y1097108I-17456J17896D01*
G01*
X-671882Y1097776D02*
G03*
X-669991Y1100015I-18119J17225D01*
G01*
X-671882Y1097776D02*
G03*
X-669991Y1100015I-18119J17225D01*
G01*
X-624281Y1120957D02*
G03*
X-625001Y1115001I24280J-5956D01*
G01*
X-625001Y1835006D02*
G03*
X-625001Y1835001I25000J-5D01*
G01*
Y1834999D02*
G03*
X-600004Y1860001I25000J2D01*
G01*
D77*
X2565005Y1549998D02*
D03*
X2435002D02*
D03*
X1837500Y225000D02*
D03*
X1712497D02*
D03*
X1485002Y324996D02*
D03*
X2012504Y350000D02*
D03*
X1887505D02*
D03*
X1615004Y324996D02*
D03*
D78*
X3244993Y2175005D02*
D03*
D79*
X2994996D02*
D03*
D80*
X3264993Y2325008D02*
D03*
Y2025008D02*
D03*
D81*
X-375000Y1345000D02*
D03*
Y1409998D02*
D03*
Y1474997D02*
D03*
Y1539996D02*
D03*
Y1604999D02*
D03*
D82*
X-645002Y1374997D02*
D03*
Y1574997D02*
D03*
D83*
X3705001Y2574999D02*
D03*
Y2475000D02*
D03*
Y1875001D02*
D03*
Y1975001D02*
D03*
Y2075000D02*
D03*
Y2175000D02*
D03*
Y2275000D02*
D03*
Y2375000D02*
D03*
D84*
X4092499Y1744999D02*
D03*
Y2705002D02*
D03*
D85*
X2830003Y734998D02*
D03*
X2600001D02*
D03*
X2370004D02*
D03*
D86*
X2600001Y164997D02*
D03*
D87*
X1599998Y2359999D02*
D03*
Y2490001D02*
D03*
X350003Y2914999D02*
D03*
Y2785002D02*
D03*
D88*
X1492500Y2849995D02*
D03*
X1357499D02*
D03*
D89*
X-417499Y2624997D02*
D03*
X-282498D02*
D03*
X57502Y2024998D02*
D03*
X192503D02*
D03*
X-417499Y2424997D02*
D03*
X-282503D02*
D03*
D90*
X710002Y1200000D02*
D03*
X790002D02*
D03*
X710002Y1324999D02*
D03*
X790002D02*
D03*
D91*
X1425002Y2515000D02*
D03*
Y2650001D02*
D03*
D92*
X1024998Y3050000D02*
D03*
X975000D02*
D03*
X924998D02*
D03*
X874995D02*
D03*
X824998D02*
D03*
X774996D02*
D03*
Y2650001D02*
D03*
X824998D02*
D03*
X874995D02*
D03*
X924998D02*
D03*
X975000D02*
D03*
X1024998D02*
D03*
D93*
X702499Y2974999D02*
D03*
Y2925001D02*
D03*
Y2874999D02*
D03*
Y2825001D02*
D03*
Y2774999D02*
D03*
Y2724997D02*
D03*
X1097499D02*
D03*
Y2774999D02*
D03*
Y2825001D02*
D03*
Y2874999D02*
D03*
Y2925001D02*
D03*
Y2974999D02*
D03*
D94*
X899999Y2850000D02*
D03*
D95*
X2700001Y1174997D02*
D03*
Y1054997D02*
D03*
Y1294997D02*
D03*
D96*
X-375000Y1724999D02*
D03*
Y1225000D02*
D03*
D97*
X1Y-2D02*
D03*
X3050003Y3050000D02*
D03*
Y-2D02*
D03*
X1Y3050000D02*
D03*
D98*
X2750000Y3550000D02*
D03*
X2749998Y3300002D02*
D03*
X2500001D02*
D03*
X2499996Y3549999D02*
D03*
X2249994Y3540799D02*
D03*
X2249999Y3300002D02*
D03*
X2000002D02*
D03*
X1999997Y3549994D02*
D03*
X1750000D02*
D03*
Y3300002D02*
D03*
X1499998D02*
D03*
Y3549994D02*
D03*
X1249996Y3549999D02*
D03*
X999999Y3300002D02*
D03*
Y3549994D02*
D03*
X749997Y3549999D02*
D03*
X750002Y3300002D02*
D03*
X500000D02*
D03*
Y3549994D02*
D03*
X249998Y3549999D02*
D03*
Y3299997D02*
D03*
X3000000Y-425000D02*
D03*
X2750000D02*
D03*
X2500000D02*
D03*
X2249999Y-425000D02*
D03*
X1974998D02*
D03*
X1750000D02*
D03*
X1500003D02*
D03*
X1250001D02*
D03*
X750002D02*
D03*
X500000D02*
D03*
X250003D02*
D03*
X1250001Y3300002D02*
D03*
X999999Y-425000D02*
D03*
D99*
X2175000Y75000D02*
D03*
X2100000Y200000D02*
D03*
X1822936Y9000D02*
D03*
X2150000Y-75000D02*
D03*
X1325000Y2375000D02*
D03*
X2431501Y2000000D02*
D03*
X2046001Y-175000D02*
D03*
X2000000Y22000D02*
D03*
X1750000Y-175000D02*
D03*
X3775000Y1325000D02*
D03*
X3748552Y1591453D02*
D03*
X3205689Y1178000D02*
D03*
X3525000Y1582500D02*
D03*
X550000Y2125000D02*
D03*
X-175000Y1850000D02*
D03*
X-125000Y1675000D02*
D03*
X50000Y1800000D02*
D03*
X-300000Y525000D02*
D03*
X775000Y2436000D02*
D03*
X825000Y2234000D02*
D03*
X1000000D02*
D03*
X2925000Y1075000D02*
D03*
X2800000Y2748497D02*
D03*
X-275000Y-325000D02*
D03*
X2075000Y2825000D02*
D03*
X2050000Y2600000D02*
D03*
X1050000Y2050000D02*
D03*
X-75000Y1025000D02*
D03*
X-405774Y978099D02*
D03*
X200000Y1014000D02*
D03*
X767797Y1894820D02*
D03*
X2008024Y2393976D02*
D03*
X2000000Y2191976D02*
D03*
X2271354Y2007298D02*
D03*
X2450000Y-25000D02*
D03*
X368503Y2146470D02*
D03*
X400000Y1100000D02*
D03*
X1250000Y1175000D02*
D03*
X1875369Y1221426D02*
D03*
X1875000Y1675000D02*
D03*
X1689189Y1464189D02*
D03*
X1725000Y1650000D02*
D03*
X2325000Y2875000D02*
D03*
X3650000Y400000D02*
D03*
X3875000Y525000D02*
D03*
X1775000Y3075000D02*
D03*
X3900000Y2050000D02*
D03*
X3950000Y1900000D02*
D03*
X3400000Y3332574D02*
D03*
X3525000Y3150000D02*
D03*
X3555311Y2241689D02*
D03*
X3525000Y2069689D02*
D03*
X3394955Y2320523D02*
D03*
X3550000Y2415496D02*
D03*
X3900000Y725000D02*
D03*
X3525000Y1925000D02*
D03*
X325000Y1950000D02*
D03*
X425091Y1803468D02*
D03*
X2315878Y559122D02*
D03*
X225000Y1675000D02*
D03*
X1625000Y2850000D02*
D03*
X1695497Y504573D02*
D03*
X1926504Y479803D02*
D03*
X-540431Y506206D02*
D03*
X604295Y955187D02*
D03*
X578237Y3051532D02*
D03*
X3500000Y725000D02*
D03*
X3450000Y-250000D02*
D03*
Y-75000D02*
D03*
X3425000Y-425000D02*
D03*
X3500000Y525000D02*
D03*
X2150000Y875000D02*
D03*
X325000Y-50000D02*
D03*
X-400000Y2800000D02*
D03*
X150000Y2650000D02*
D03*
X-75000Y2675000D02*
D03*
X573311Y2473311D02*
D03*
X364189Y2389189D02*
D03*
X2525000Y950000D02*
D03*
X3125000Y1350000D02*
D03*
X2976689Y1351689D02*
D03*
X3400000Y1200000D02*
D03*
X2300000Y1475000D02*
D03*
X725000Y1450000D02*
D03*
X1075000Y-100000D02*
D03*
X875000D02*
D03*
X675000Y1750000D02*
D03*
X550000Y1450000D02*
D03*
X1875000Y2875000D02*
D03*
D100*
X999999Y2750000D02*
D03*
X899999Y2850000D02*
D03*
Y2750000D02*
D03*
X799999Y2850000D02*
D03*
Y2750000D02*
D03*
%TF.MD5,3e57c279b7fae659516dadefabb67467*%
M02*
