%TF.GenerationSoftware,Altium Limited,Altium Designer,23.4.1 (23)*%
G04 Layer_Physical_Order=1*
G04 Layer_Color=255*
%FSLAX45Y45*%
%MOMM*%
%TF.SameCoordinates,48A87055-20E1-44AA-943F-EC830DB2746A*%
%TF.FilePolarity,Positive*%
%TF.FileFunction,Copper,L1,Top,Signal*%
%TF.Part,Single*%
G01*
G75*
%TA.AperFunction,Conductor*%
%ADD10C,0.15000*%
%ADD11C,0.50000*%
%TA.AperFunction,BGAPad,CuDef*%
%ADD12C,0.78700*%
%TA.AperFunction,SMDPad,CuDef*%
%ADD13R,0.57247X0.56818*%
%ADD14R,0.80000X0.95000*%
%ADD15R,1.80000X0.60000*%
G04:AMPARAMS|DCode=16|XSize=1.9mm|YSize=3.2mm|CornerRadius=0mm|HoleSize=0mm|Usage=FLASHONLY|Rotation=270.000|XOffset=0mm|YOffset=0mm|HoleType=Round|Shape=Octagon|*
%AMOCTAGOND16*
4,1,8,1.60000,0.47500,1.60000,-0.47500,1.12500,-0.95000,-1.12500,-0.95000,-1.60000,-0.47500,-1.60000,0.47500,-1.12500,0.95000,1.12500,0.95000,1.60000,0.47500,0.0*
%
%ADD16OCTAGOND16*%

%ADD17R,1.40000X0.60000*%
G04:AMPARAMS|DCode=18|XSize=0.31247mm|YSize=1.78828mm|CornerRadius=0.15624mm|HoleSize=0mm|Usage=FLASHONLY|Rotation=180.000|XOffset=0mm|YOffset=0mm|HoleType=Round|Shape=RoundedRectangle|*
%AMROUNDEDRECTD18*
21,1,0.31247,1.47581,0,0,180.0*
21,1,0.00000,1.78828,0,0,180.0*
1,1,0.31247,0.00000,0.73791*
1,1,0.31247,0.00000,0.73791*
1,1,0.31247,0.00000,-0.73791*
1,1,0.31247,0.00000,-0.73791*
%
%ADD18ROUNDEDRECTD18*%
G04:AMPARAMS|DCode=19|XSize=1.78828mm|YSize=0.31247mm|CornerRadius=0.15624mm|HoleSize=0mm|Usage=FLASHONLY|Rotation=180.000|XOffset=0mm|YOffset=0mm|HoleType=Round|Shape=RoundedRectangle|*
%AMROUNDEDRECTD19*
21,1,1.78828,0.00000,0,0,180.0*
21,1,1.47581,0.31247,0,0,180.0*
1,1,0.31247,-0.73791,0.00000*
1,1,0.31247,0.73791,0.00000*
1,1,0.31247,0.73791,0.00000*
1,1,0.31247,-0.73791,0.00000*
%
%ADD19ROUNDEDRECTD19*%
%ADD20R,1.78828X0.31247*%
%ADD21R,1.35000X0.40000*%
%ADD22R,1.90000X1.50000*%
%ADD23R,0.80000X1.70000*%
%ADD24R,1.55000X0.60000*%
%ADD25R,1.80000X1.20000*%
%ADD26R,0.70000X0.60000*%
%ADD27R,0.90000X2.10000*%
%ADD28R,3.20000X2.10000*%
%ADD29R,2.84000X6.80000*%
%ADD30R,1.01213X1.20840*%
%ADD31R,0.52000X0.52000*%
%ADD32R,0.52000X0.52000*%
%ADD33R,0.75000X1.00000*%
%ADD34R,1.10000X2.05000*%
%ADD35R,0.95000X0.80000*%
%ADD36R,0.85000X0.95000*%
%ADD37R,0.90000X1.05000*%
%ADD38R,0.45000X0.45000*%
%ADD39R,1.25000X1.10000*%
%ADD40R,0.50000X0.35000*%
%ADD41R,0.95000X0.85000*%
%ADD42R,0.35000X0.80000*%
%ADD43R,0.85000X0.35000*%
%ADD44R,2.60000X2.70000*%
%ADD45R,2.00000X0.40000*%
G04:AMPARAMS|DCode=46|XSize=0.73107mm|YSize=0.30247mm|CornerRadius=0.15124mm|HoleSize=0mm|Usage=FLASHONLY|Rotation=180.000|XOffset=0mm|YOffset=0mm|HoleType=Round|Shape=RoundedRectangle|*
%AMROUNDEDRECTD46*
21,1,0.73107,0.00000,0,0,180.0*
21,1,0.42859,0.30247,0,0,180.0*
1,1,0.30247,-0.21430,0.00000*
1,1,0.30247,0.21430,0.00000*
1,1,0.30247,0.21430,0.00000*
1,1,0.30247,-0.21430,0.00000*
%
%ADD46ROUNDEDRECTD46*%
%ADD47R,1.75000X2.50000*%
%ADD48R,0.91213X0.95872*%
%ADD49R,0.70000X1.30000*%
%ADD50R,0.50000X0.40000*%
%ADD51R,0.40000X0.50000*%
%ADD52R,0.73107X0.30247*%
%TA.AperFunction,Conductor*%
%ADD53C,0.38100*%
%TA.AperFunction,ComponentPad*%
%ADD54C,0.99100*%
%ADD55C,1.45000*%
%ADD56C,0.75000*%
%TA.AperFunction,ViaPad*%
%ADD57C,4.00000*%
G04:AMPARAMS|DCode=58|XSize=1.524mm|YSize=2mm|CornerRadius=0.381mm|HoleSize=0mm|Usage=FLASHONLY|Rotation=0.000|XOffset=0mm|YOffset=0mm|HoleType=Round|Shape=RoundedRectangle|*
%AMROUNDEDRECTD58*
21,1,1.52400,1.23800,0,0,0.0*
21,1,0.76200,2.00000,0,0,0.0*
1,1,0.76200,0.38100,-0.61900*
1,1,0.76200,-0.38100,-0.61900*
1,1,0.76200,-0.38100,0.61900*
1,1,0.76200,0.38100,0.61900*
%
%ADD58ROUNDEDRECTD58*%
%ADD59C,1.27000*%
%ADD60C,0.50000*%
G36*
X-550001Y1245001D02*
X-740001D01*
Y1115001D01*
X-550001D01*
Y1245001D01*
D02*
G37*
G36*
X-599998Y1115001D02*
X-690001D01*
Y1065001D01*
X-599998Y1065003D01*
Y1115001D01*
D02*
G37*
G36*
X-690004Y1835002D02*
X-600001D01*
Y1885001D01*
X-690004Y1884999D01*
Y1835002D01*
D02*
G37*
G36*
X-740001Y1705001D02*
X-550001D01*
Y1835001D01*
X-740001D01*
Y1705001D01*
D02*
G37*
D10*
X1922188Y124458D02*
G03*
X1899901Y125654I-11681J-9411D01*
G01*
X1302847Y2458098D02*
G03*
X1243997Y2403890I22153J-83098D01*
G01*
X1275058Y2479699D02*
G03*
X1218682Y2421395I49942J-104699D01*
G01*
X1918403Y49164D02*
G03*
X1945690Y-44681I81598J-27164D01*
G01*
X543857Y2039220D02*
G03*
X553070Y2039055I6143J85780D01*
G01*
X80971Y1880229D02*
G03*
X77419Y1881512I-30971J-80229D01*
G01*
X-214868Y512809D02*
G03*
X-215889Y542926I-85132J12191D01*
G01*
X658995Y2465946D02*
G03*
X659108Y2479225I-85684J7365D01*
G01*
X658964Y2465596D02*
G03*
X658995Y2465946I-85653J7715D01*
G01*
X1024291Y2316498D02*
G03*
X1000000Y2320000I-24291J-82498D01*
G01*
X2870835Y2797266D02*
G03*
X2853854Y2815548I-70835J-48769D01*
G01*
X-191004Y-343457D02*
G03*
X-189365Y-317084I-83996J18457D01*
G01*
X-159758Y-338243D02*
G03*
X-159406Y-315303I-115242J13243D01*
G01*
X825487Y1958600D02*
G03*
X813544Y1967643I-57690J-63780D01*
G01*
X1092791Y1759205D02*
G03*
X1092791Y1740790I11842J-9208D01*
G01*
X1092791Y1709207D02*
G03*
X1092792Y1690787I11840J-9209D01*
G01*
X731068Y1815210D02*
G03*
X663644Y1835247I-56068J-65210D01*
G01*
X2210437Y2068003D02*
G03*
X2188022Y2028552I60917J-60705D01*
G01*
X1807598Y1168482D02*
G03*
X1820221Y1155437I67771J52944D01*
G01*
X240922Y1540833D02*
G03*
X306781Y1530784I44889J73355D01*
G01*
X228000Y1513621D02*
G03*
X312741Y1501358I57812J100567D01*
G01*
X2208834Y3174354D02*
G03*
X2208786Y3174402I-10607J-10606D01*
G01*
X2211894Y3663298D02*
G03*
X2151295Y3602699I0J-60599D01*
G01*
X2173575Y3408844D02*
G03*
X2151299Y3361902I38325J-46943D01*
G01*
X2213226Y3163731D02*
G03*
X2213226Y3163749I-15000J17D01*
G01*
X2173575Y3408844D02*
G03*
X2173553Y3431971I-9566J11554D01*
G01*
X2151295Y3478899D02*
G03*
X2173553Y3431971I60599J0D01*
G01*
X2151299Y3238102D02*
G03*
X2205329Y3177859I60600J0D01*
G01*
X2037305Y-306481D02*
G03*
X2037307Y-306481I2J15000D01*
G01*
X2034700Y-306480D02*
G03*
X2013098Y-302500I-21602J-56619D01*
G01*
X583188Y3139095D02*
G03*
X560225Y3137330I-4951J-85858D01*
G01*
X2172782Y-316815D02*
G03*
X2174038Y-315601I-9780J11374D01*
G01*
X2172782Y-316815D02*
G03*
X2151299Y-363100I39117J-46284D01*
G01*
X1936898Y-302500D02*
G03*
X1876298Y-363100I0J-60600D01*
G01*
X-842502Y2625002D02*
X-835002D01*
X-300352Y3159651D01*
Y3185350D01*
X186797Y3672499D01*
X901294D01*
X999999Y3573794D01*
Y3549994D02*
Y3573794D01*
X2018263Y178570D02*
X2078570D01*
X2011752Y172059D02*
X2018263Y178570D01*
X2078570D02*
X2100000Y200000D01*
X2068622Y75000D02*
X2175000D01*
X1899326Y167506D02*
X1951338D01*
X1899246Y125000D02*
X1899901Y125654D01*
X1736936Y45261D02*
X1756368D01*
X1922188Y124458D02*
X1922221Y124417D01*
X1471213Y-178036D02*
X1744249Y95000D01*
X1756368Y45261D02*
X1792629Y9000D01*
X1731823Y125000D02*
X1899246D01*
X1766213Y225000D02*
X1775000Y216213D01*
Y168180D02*
Y216213D01*
X1922221Y124417D02*
X1952556Y86492D01*
X1686823Y80000D02*
X1731823Y125000D01*
X1792629Y9000D02*
X1822936D01*
X1712497Y225000D02*
X1766213D01*
X1744249Y95000D02*
X1901622D01*
X2010844Y108000D02*
X2035622D01*
X2068622Y75000D01*
X1886820Y155000D02*
X1899326Y167506D01*
X1775000Y168180D02*
X1788180Y155000D01*
X1886820D01*
X1951338Y167506D02*
X2010844Y108000D01*
X-841051Y-46000D02*
X-738500D01*
X-861213Y-173000D02*
X-738500D01*
X-870000Y-181787D02*
X-861213Y-173000D01*
X1182574Y2350000D02*
X1191362Y2358788D01*
X1224654Y2343441D02*
X1224654Y2349654D01*
X1191362Y2358788D02*
X1218682Y2421395D01*
X1176361Y2350000D02*
X1182574Y2350000D01*
X659069Y2350000D02*
X1176361D01*
X1346214Y2513641D02*
X1355002Y2522428D01*
X1403878Y2341126D02*
X1425002Y2320217D01*
X1224654Y2349654D02*
X1243997Y2403890D01*
X1325000Y2375000D02*
X1403878Y2341126D01*
X1385002Y2479999D02*
X1425002Y2515000D01*
X1224654Y2337227D02*
Y2343441D01*
X1275058Y2479699D02*
X1346214Y2513641D01*
X1302847Y2458098D02*
X1385002Y2479999D01*
X1355002Y2522428D02*
Y2566819D01*
X2196831Y1724999D02*
X2410071Y1938238D01*
Y1978570D01*
X2431501Y2000000D01*
X1945690Y-44682D02*
X2046001Y-144993D01*
Y-175000D02*
Y-144993D01*
X1989211Y172059D02*
X2011752D01*
X1936270Y225000D02*
X1989211Y172059D01*
X1952556Y86492D02*
X2000000Y22000D01*
X1918403Y49164D02*
X1922556Y61639D01*
Y74066D01*
X1901622Y95000D02*
X1922556Y74066D01*
X2178223Y-311074D02*
X2303857Y-185440D01*
X2308251Y-181046D02*
X2308251Y170066D01*
X2312644Y174460D01*
X2303857Y-185440D02*
X2308251Y-181046D01*
X2312644Y174460D02*
X2467504Y329320D01*
X1686964Y-238036D02*
X1750000Y-175000D01*
X1433934Y-238036D02*
X1686964D01*
X3698115Y1401885D02*
X3775000Y1325000D01*
X3676885Y1401885D02*
X3698115D01*
X3554999Y1795001D02*
X3748552Y1601448D01*
Y1591453D02*
Y1601448D01*
X3503570Y1603929D02*
X3525000Y1582500D01*
X3503570Y1603929D02*
Y1655266D01*
X3481336Y1677500D02*
X3503570Y1655266D01*
X3422499Y1677500D02*
X3481336D01*
X3650000Y1375000D02*
X3676885Y1401885D01*
X3429998Y1375000D02*
X3650000D01*
X553070Y2039055D02*
X845144Y2050000D01*
X857570Y2050001D02*
X892108Y2050000D01*
X508450Y2291213D02*
X550000Y2125000D01*
X499663Y2300000D02*
X508450Y2291213D01*
X260003Y2069994D02*
X271256Y2058740D01*
X312506Y2300000D02*
X499663D01*
X271256Y2058740D02*
X543857Y2039219D01*
X845144Y2050000D02*
X857570Y2050001D01*
X450003Y2424997D02*
X691822Y2183178D01*
X450003Y2424997D02*
Y2846748D01*
X691822Y2183178D02*
X837214Y2111653D01*
X-255715Y1709934D02*
Y1769285D01*
X-175000Y1850000D01*
X-315000Y1650649D02*
X-255715Y1709934D01*
X-125000Y1675000D02*
X-59000Y1609000D01*
X89086D01*
X122097Y1575989D01*
X81339Y1718662D02*
X90126Y1709874D01*
X224039Y1825000D02*
X226643Y1825000D01*
X325000D01*
X80971Y1880229D02*
X224039Y1825000D01*
X90126Y1709874D02*
X96430Y1703570D01*
X-124997Y1949997D02*
X77419Y1881512D01*
X50000Y1800000D02*
X81339Y1718662D01*
X-344321Y1949997D02*
X-124997D01*
X-295606Y-50989D02*
X-214869Y512809D01*
X-295606Y929393D02*
X-295606Y916967D01*
X-295606Y-63416D02*
X-295606Y-50989D01*
X-395606Y6584D02*
X-300000Y525000D01*
X-653641Y676358D02*
X-649247Y671965D01*
X-395607Y-5843D02*
X-200000Y-201449D01*
X-395607Y-5843D02*
X-395606Y6584D01*
X-649247Y671965D02*
X-315001Y540001D01*
X-300000Y525000D01*
X-749783Y772500D02*
X-653641Y676358D01*
X-295606Y916967D02*
X-215889Y542926D01*
X-295606Y-63416D02*
X-170000Y-189023D01*
X-295606Y929393D02*
X100000Y1325000D01*
X838272Y2457430D02*
X860004Y2479163D01*
X796430Y2457430D02*
X838272D01*
X775000Y2436000D02*
X796430Y2457430D01*
X650282Y2358787D02*
X659069Y2350000D01*
X650282Y2358787D02*
Y2365649D01*
X630000Y2320000D02*
X1000000D01*
X825000Y2234000D02*
X907383Y2085040D01*
X650282Y2365649D02*
X658964Y2465596D01*
X860004Y2479163D02*
Y2530001D01*
X573311Y2376689D02*
X630000Y2320000D01*
X907383Y2085040D02*
X925599Y2050998D01*
X573311Y2376689D02*
Y2473311D01*
X925599Y2050998D02*
X925912Y2048106D01*
X1183510Y2260317D02*
X1196510Y2243497D01*
X1170330Y2273497D02*
X1183510Y2260317D01*
X955163Y2153286D02*
X1000000Y2234000D01*
X1024291Y2316498D02*
X1170330Y2273497D01*
X1196510Y2243497D02*
X1225002Y2215005D01*
X955163Y2146910D02*
X955163Y2153286D01*
X925912Y2048106D02*
X925976Y2047522D01*
X955163Y2146910D02*
X959687Y1961758D01*
X2515685Y1375676D02*
Y1479998D01*
X2502505Y1493178D02*
Y1601816D01*
X2515001Y1374992D02*
X2515685Y1375676D01*
X2484322Y1619998D02*
X2502505Y1601816D01*
X2375686Y1610001D02*
X2385683Y1619998D01*
X2484322D01*
X2502505Y1493178D02*
X2515685Y1479998D01*
X2324997Y1610001D02*
X2375686D01*
X2816211Y1174997D02*
X2825003D01*
X2700001D02*
X2816211D01*
X2825003D02*
X2925000Y1075000D01*
X2119123Y1624994D02*
X2310005D01*
X2324997Y1610001D01*
X2830003Y687505D02*
X2853749Y711248D01*
X2867504Y725001D01*
X2435001Y1374992D02*
X2466501Y1343492D01*
X2435001Y1374997D02*
X2444990D01*
X2119118D02*
X2435001D01*
X2445000Y1374987D02*
Y1540000D01*
X2435001Y1374992D02*
Y1374997D01*
X2466501Y1339672D02*
Y1343492D01*
Y1339672D02*
X2479687Y1326487D01*
X2309992Y1674996D02*
X2324997Y1690001D01*
X2333533Y1681465D02*
X2523719D01*
X2119123Y1674996D02*
X2309992D01*
X2939520Y2697504D02*
X2960950D01*
X2689351Y2947673D02*
X2853854Y2815548D01*
X2870835Y2797266D02*
X2939520Y2697504D01*
X2800000Y2700000D02*
Y2748497D01*
X2702330Y2700000D02*
X2800000D01*
X2867495Y2632505D01*
X2600001Y2800000D02*
X2638107Y2761894D01*
X2600001Y2800000D02*
Y2802329D01*
X2638107Y2761894D02*
X2640437D01*
X2702330Y2700000D01*
X2960950Y2632505D02*
X3067498D01*
X2867495D02*
X2960950D01*
X-208787Y-500000D02*
X-174394Y-465607D01*
X-204394Y-404393D02*
X-191004Y-343457D01*
X-286000Y-325000D02*
X-275000D01*
X-200000Y-201449D02*
X-189365Y-317084D01*
X-174394Y-465607D02*
X-159758Y-338243D01*
X-225000Y-425000D02*
X-204394Y-404393D01*
X-170000Y-189023D02*
X-159406Y-315303D01*
X-307430Y-303570D02*
X-286000Y-325000D01*
X1850000Y2680186D02*
X1930186D01*
X2075000Y2825000D01*
X2450000Y2700000D02*
X2647497Y2502503D01*
X2450000Y2700000D02*
Y2795343D01*
X2600001Y2945344D01*
X2647497Y2502503D02*
X2960950D01*
X-611500Y-177000D02*
X-363500Y-425000D01*
X3012500Y2175005D02*
X3244993D01*
X2994996D02*
X3012500D01*
X3264993Y2325008D02*
X3269478Y2320523D01*
X3394955D01*
X1935533Y2597266D02*
X1964000Y2625733D01*
Y2635622D02*
X2014378Y2686000D01*
X1964000Y2625733D02*
Y2635622D01*
X1969810Y2519810D02*
X2050000Y2600000D01*
X2014378Y2686000D02*
X2085622D01*
X1850000Y2670373D02*
X1923107Y2597266D01*
X1850000Y2670373D02*
Y2680186D01*
X1923107Y2597266D02*
X1935533D01*
X1046012Y2053988D02*
Y2136000D01*
Y2053988D02*
X1050000Y2050000D01*
X1046012Y2136000D02*
X1135010Y2224997D01*
X900291Y1936301D02*
X943470Y1893122D01*
X959687Y1961758D02*
X968323Y1953122D01*
X870090Y2079907D02*
X878788Y2071209D01*
X892109Y2050000D01*
X925976Y2047522D02*
X929988Y1949030D01*
X955896Y1923122D01*
X895976Y2041213D02*
X900291Y1936301D01*
X968323Y1953122D02*
X1107738D01*
X892109Y2050000D02*
X895976Y2041213D01*
X790002Y1324999D02*
X840004Y1274997D01*
X980878D01*
X800000Y1224995D02*
X980878D01*
X790002Y1200000D02*
X800000Y1209999D01*
Y1224995D01*
X-75000Y1025000D02*
X22000Y928000D01*
X374428D01*
X530694Y1084266D01*
X759245D01*
X175000Y1325000D02*
X400000Y1100000D01*
X100000Y1325000D02*
X175000D01*
X400000Y1100000D02*
X450000D01*
X-480682Y742500D02*
X-330000Y893182D01*
Y937426D01*
X-250000Y1017426D02*
Y1100000D01*
X-427204Y956669D02*
X-405774Y978099D01*
X-468332Y956669D02*
X-427204D01*
X-530001Y895000D02*
X-468332Y956669D01*
X-330000Y937426D02*
X-250000Y1017426D01*
X-677356Y742500D02*
X-480682D01*
X1625000Y2731211D02*
Y2850000D01*
Y2731211D02*
X1636213Y2719998D01*
X1260755Y2650001D02*
X1425002D01*
X1222502D02*
X1260755D01*
X952504Y2542502D02*
X1115004D01*
X940004Y2525002D02*
Y2530002D01*
X1115004Y2542502D02*
X1222502Y2650001D01*
X940004Y2530002D02*
X952504Y2542502D01*
X1529998Y2539321D02*
X1543178Y2552501D01*
X1606215Y2689998D02*
X1615002Y2681211D01*
X1586819Y2689998D02*
X1606215D01*
X1529998Y2440681D02*
Y2539321D01*
X1615002Y2561288D02*
Y2681211D01*
X1529998Y2440681D02*
X1543178Y2427501D01*
X1666212D01*
X1606215Y2552501D02*
X1615002Y2561288D01*
X1373183Y2585000D02*
X1481822D01*
X1586819Y2689998D01*
X1543178Y2552501D02*
X1606215D01*
X1355002Y2566819D02*
X1373183Y2585000D01*
X1674999Y2196824D02*
Y2418714D01*
X1666212Y2427501D02*
X1674999Y2418714D01*
X1224654Y2337227D02*
X1263510Y2298371D01*
Y2189678D02*
Y2298371D01*
X1841500Y2391500D02*
X1969810Y2519810D01*
X1850000D02*
X1969810D01*
X837214Y2111653D02*
X870090Y2079907D01*
X1130711Y1819289D02*
X1250001Y1700000D01*
X1159911Y1858523D02*
X1434536D01*
X1107738Y1953122D02*
X1172337Y1888523D01*
X1082886Y1893122D02*
X1122792Y1853216D01*
X955896Y1923122D02*
X1095312D01*
X825487Y1958600D02*
X931043Y1863122D01*
X1172337Y1888523D02*
X1422110D01*
X1070460Y1863122D02*
X1092792Y1840790D01*
X796823Y1978176D02*
X813543Y1967643D01*
X1465184Y1881595D02*
X1525002Y1941412D01*
X1422110Y1888523D02*
X1474999Y1941412D01*
X931043Y1863122D02*
X1070460D01*
X1092791Y1786594D02*
X1092792Y1840790D01*
X943470Y1893122D02*
X1082886D01*
X1122792Y1853216D02*
X1130711Y1819289D01*
X1434536Y1858523D02*
X1465184Y1881595D01*
X1095312Y1923122D02*
X1159911Y1858523D01*
X1092791Y1759205D02*
Y1786594D01*
X792377Y1982622D02*
X796823Y1978176D01*
X1092791Y1709207D02*
X1092791Y1740790D01*
X1092792Y1690787D02*
X1092792Y1682208D01*
X1250001Y1700000D02*
X1574999D01*
X1092792Y1682208D02*
X1625002Y1149998D01*
Y880875D02*
Y1149998D01*
X482623Y1982622D02*
X792377D01*
X777839Y1774996D02*
X980878D01*
X425091Y1803468D02*
X663644Y1835247D01*
X731068Y1815210D02*
X777839Y1774996D01*
X767797Y1894820D02*
X812834Y1833786D01*
X821620Y1824998D01*
X2085622Y2686000D02*
X2136000Y2635622D01*
X1973402Y2480976D02*
X2052598D01*
X1904998Y2279998D02*
X2008024Y2383024D01*
X2000000Y1966414D02*
Y2191976D01*
X2052598Y2480976D02*
X2136000Y2564378D01*
X1890000Y2349996D02*
Y2397574D01*
X2008024Y2383024D02*
Y2393976D01*
X1810000Y2349996D02*
X1841500Y2381496D01*
X2136000Y2564378D02*
Y2635622D01*
X1890000Y2397574D02*
X1973402Y2480976D01*
X1841500Y2381496D02*
Y2391500D01*
X2210437Y2068003D02*
X2230701Y2088267D01*
X2176339Y1982749D02*
X2188022Y2028552D01*
X2197591Y2097583D02*
X2200701Y2843002D01*
X2213227Y3151305D02*
X2230701Y2861726D01*
X2075002Y2974999D02*
X2196307Y2853693D01*
X2231037Y1838653D02*
X2271354Y2007298D01*
X2230701Y2088267D02*
Y2861726D01*
X2200701Y2843002D02*
Y2849299D01*
X2213226Y3163514D02*
X2213227Y3151305D01*
X2173001Y1875876D02*
X2176339Y1982749D01*
X2196307Y2853693D02*
X2200701Y2849299D01*
X2231037Y1809207D02*
Y1838653D01*
X1975003Y1874996D02*
X2197591Y2097583D01*
X2547500Y164997D02*
X2600001D01*
X2450000Y67497D02*
X2547500Y164997D01*
X2450000Y-25000D02*
Y67497D01*
X275000Y2959316D02*
X423791Y3108107D01*
X283787Y2852498D02*
X401826D01*
X275000Y2861285D02*
X283787Y2852498D01*
X275000Y2861285D02*
Y2959316D01*
X3479999Y2668746D02*
Y2799998D01*
X3453500Y2642247D02*
X3479999Y2668746D01*
X3453500Y2568495D02*
Y2642247D01*
X3435000Y2549996D02*
X3453500Y2568495D01*
X368503Y2146470D02*
Y2156497D01*
X247496Y2277504D02*
X368503Y2156497D01*
X759245Y1004266D02*
X777744Y1022766D01*
X697796Y942817D02*
X759245Y1004266D01*
X616665Y942817D02*
X697796D01*
X604295Y955187D02*
X616665Y942817D01*
X1125001Y1424999D02*
X1250000Y1300000D01*
Y1175000D02*
Y1300000D01*
X2006218Y1124995D02*
X2119123D01*
X1820220Y1155436D02*
X2006213Y1000000D01*
X2000006Y1124995D02*
X2006218Y1124995D01*
X1875369Y1221426D02*
X2000006Y1124995D01*
X2006213Y1000000D02*
X2050000D01*
X1700000Y1306213D02*
Y1464189D01*
Y1306213D02*
X1807598Y1168482D01*
X2041410Y1524999D02*
X2119123D01*
X1983146Y1583262D02*
X2041410Y1524999D01*
X1966738Y1583262D02*
X1983146D01*
X1875000Y1675000D02*
X1966738Y1583262D01*
X2041415Y1474997D02*
X2119123D01*
X1991418Y1425000D02*
X2041415Y1474997D01*
X1850000Y1425000D02*
X1991418D01*
X1700000Y1464189D02*
Y1475000D01*
X1725000Y1550000D02*
X1850000Y1425000D01*
X1725000Y1550000D02*
Y1650000D01*
X1689189Y1464189D02*
X1700000D01*
X980878Y1424999D02*
X1125001D01*
X2600001Y164997D02*
Y734998D01*
X3705001Y1875001D02*
X3727501Y1897501D01*
X3947501D01*
X3950000Y1900000D01*
X3705002Y1975000D02*
X3825000D01*
X3900000Y2050000D01*
X3705001Y1975001D02*
X3705002Y1975000D01*
X1837500Y225000D02*
X1936270D01*
X1712497D02*
Y317986D01*
X1781497Y386987D01*
X1360000Y-206528D02*
Y506533D01*
Y-206528D02*
X1362502Y-209030D01*
Y-263698D02*
Y-209030D01*
X1420000Y-181676D02*
Y481681D01*
X1450000Y-169250D02*
X1458787Y-178036D01*
X1330951Y-320249D02*
Y-219906D01*
X1450000Y-169250D02*
Y206820D01*
X1420000Y-181676D02*
X1446360Y-208036D01*
X1483639D02*
X1736936Y45261D01*
X1390000Y-194102D02*
X1433934Y-238036D01*
X1330000Y-218954D02*
X1330951Y-219906D01*
X1390000Y-194102D02*
Y494107D01*
X1330000Y-218954D02*
Y518959D01*
X1446360Y-208036D02*
X1483639D01*
X1458787Y-178036D02*
X1471213D01*
X1575000Y93184D02*
Y206820D01*
X1552504Y229317D02*
X1575000Y206820D01*
X1570000Y522251D02*
Y722180D01*
X1552504Y504755D02*
X1570000Y522251D01*
Y722180D02*
X1574999Y727179D01*
X1575000Y93184D02*
X1588184Y80000D01*
X1552504Y229317D02*
Y504755D01*
X1588184Y80000D02*
X1686823D01*
X3387508Y2502503D02*
X3394955Y2509950D01*
X3435000Y2549996D01*
X3394955Y2320523D02*
Y2509950D01*
X3239055Y2632505D02*
X3352491D01*
X3435000Y2549996D01*
X3260484Y2502503D02*
X3387508D01*
X3453500Y2743504D02*
X3466248Y2756251D01*
X3100000Y2617504D02*
Y2637503D01*
Y2600003D02*
Y2617504D01*
X3180000Y2717503D02*
X3265684D01*
X3302273Y2827500D02*
X3392271Y2917498D01*
X3684321D02*
X3805002Y2796818D01*
X3435679Y2887498D02*
X3524319D01*
X3537499Y2874318D01*
X3515000Y2703179D02*
X3537499Y2725678D01*
X3100000Y2637503D02*
X3180000Y2717503D01*
X3265684D02*
X3435679Y2887498D01*
X3515000Y2549996D02*
Y2703179D01*
X3392271Y2917498D02*
X3684321D01*
X3537499Y2725678D02*
Y2874318D01*
X3180000Y2697504D02*
X3239055D01*
X3100000Y2617504D02*
X3180000Y2697504D01*
X1255002Y2181170D02*
X1263510Y2189678D01*
X1255002Y2116821D02*
X1275000Y2096824D01*
X1255002Y2116821D02*
Y2181170D01*
X1275000Y2019120D02*
Y2096824D01*
X2689351Y2947673D02*
X2830049D01*
X2600001D02*
X2689351D01*
X3705001Y2475000D02*
X3752502D01*
X3805002Y2527500D01*
X2950223Y2827500D02*
X3302273D01*
X2830049Y2947673D02*
X2950223Y2827500D01*
X3805002Y2527500D02*
Y2796818D01*
X3207498Y2027502D02*
X3229997Y2050002D01*
X3000000Y1789997D02*
X3207498Y1997495D01*
Y2027502D01*
X3000000Y1780183D02*
Y1789997D01*
Y1619807D02*
Y1626893D01*
X2895000Y1687574D02*
X2912574Y1670000D01*
X2956894D01*
X3000000Y1626893D01*
X2895000Y1687574D02*
Y1860455D01*
X2994996Y1960452D02*
Y2175005D01*
X2895000Y1860455D02*
X2994996Y1960452D01*
X3555311Y2228216D02*
Y2241689D01*
X3525000Y2069689D02*
Y2075000D01*
X3555311Y2228216D02*
X3556443Y2227084D01*
X3564506Y2415496D02*
X3605002Y2375000D01*
X3550000Y2415496D02*
X3564506D01*
X3632501Y2549996D02*
X3657504Y2574999D01*
X3515000Y2549996D02*
X3632501D01*
X3657504Y2574999D02*
X3692501D01*
X3204998Y1795001D02*
X3554999D01*
X3200000D02*
X3204998D01*
X3556443Y2227084D02*
X3635001Y2252500D01*
X3605002Y2375000D02*
X3705001D01*
X3705001Y2375000D01*
X3525000Y2075000D02*
X3635001Y2152500D01*
Y2252500D02*
X3682502Y2252500D01*
X3635001Y2152500D02*
X3705001Y2175000D01*
X3598292Y1998292D02*
Y2015791D01*
X3525000Y1925000D02*
X3598292Y1998292D01*
Y2015791D02*
X3657501Y2075000D01*
X3705001D01*
X192503Y2024998D02*
X206690Y2010811D01*
X264189D01*
X325000Y1950000D01*
Y1825000D02*
X482623Y1982622D01*
X2332504Y662689D02*
X2350000Y680185D01*
X2315878Y559122D02*
X2332504Y575748D01*
Y662689D01*
X2150004Y680185D02*
X2350000D01*
Y714994D01*
X2370004Y734998D01*
X2437504Y445676D02*
Y849318D01*
X2012504Y357500D02*
X2091893Y436889D01*
X2428717D01*
X2437504Y445676D01*
X2424324Y862498D02*
X2437504Y849318D01*
X3399999Y1700000D02*
X3422499Y1677500D01*
X3200000Y1604999D02*
X3429998Y1375000D01*
X3390002Y902499D02*
Y949999D01*
Y902499D02*
X3481501Y811000D01*
Y743499D02*
Y811000D01*
Y743499D02*
X3500000Y725000D01*
X385894Y1675000D02*
X385908Y1674986D01*
X225000Y1675000D02*
X385894D01*
X122097Y1575989D02*
X226627Y1514409D01*
X228000Y1513621D01*
X134641Y1605871D02*
X240922Y1540833D01*
X306781Y1530784D02*
X601951Y1604996D01*
X611867Y1572486D02*
X614377Y1574996D01*
X312741Y1501358D02*
X611867Y1572486D01*
X133633Y1606879D02*
X134641Y1605871D01*
X96430Y1644082D02*
X133633Y1606879D01*
X3067498Y2632505D02*
X3100000Y2600003D01*
Y2262505D02*
Y2600003D01*
X3012500Y2175005D02*
X3100000Y2262505D01*
X1725001Y1941412D02*
Y2096829D01*
X1680000Y2944999D02*
X1775000Y2849999D01*
X1725001Y2096829D02*
X1744999Y2116826D01*
X1775000Y2817426D02*
Y2849999D01*
X1731500Y2302250D02*
X1744999Y2288751D01*
X1731500Y2773926D02*
X1775000Y2817426D01*
X1744999Y2116826D02*
Y2288751D01*
X1731500Y2302250D02*
Y2773926D01*
X1097499Y2925001D02*
X1107497Y2934998D01*
X1149319D01*
X1159319Y2944999D01*
X1680000D01*
X2208834Y3174354D02*
X2213226Y3169961D01*
X2151295Y3478899D02*
Y3602699D01*
X2252320Y3663298D02*
X2261521Y3672499D01*
X2213226Y3163514D02*
Y3163731D01*
X2168632Y1871508D02*
X2173001Y1875876D01*
X2151299Y3238102D02*
Y3361902D01*
X2261521Y3672499D02*
X2406795D01*
X2205329Y3177859D02*
X2208786Y3174402D01*
X2119123Y1824998D02*
X2168464Y1871350D01*
X2213226Y3163749D02*
Y3169961D01*
X2211894Y3663298D02*
X2252320D01*
X2168464Y1871350D02*
X2168632Y1871508D01*
X3682502Y2252500D02*
X3705001Y2275000D01*
X-530001Y850000D02*
Y895000D01*
X-375000Y1225000D02*
Y1345000D01*
Y1225000D02*
X-250000Y1100000D01*
X1674067Y483143D02*
X1695497Y504573D01*
X1674067Y391559D02*
Y483143D01*
X1615004Y324996D02*
Y332496D01*
X1674067Y391559D01*
X2012504Y350000D02*
Y357500D01*
X2028450Y651178D02*
X2150004Y529624D01*
X1859997Y546310D02*
X1926504Y479803D01*
X1859997Y546310D02*
Y599997D01*
X2012504Y357500D02*
Y527495D01*
X1939997Y599997D02*
X2012504Y527495D01*
X1600000Y340000D02*
X1615004Y324996D01*
X1574999Y727179D02*
Y880875D01*
X1600000Y709754D02*
X1659207Y768961D01*
X1600000Y340000D02*
Y709754D01*
X1795001Y661247D02*
Y783170D01*
X1786877Y791294D02*
X1795001Y783170D01*
X1781497Y647743D02*
X1795001Y661247D01*
X1774994Y868992D02*
X1786877D01*
X1774994Y880875D02*
X1774994Y868992D01*
X1786877Y791294D02*
Y868992D01*
X1781497Y386987D02*
Y647743D01*
X1833788Y377122D02*
X1860383D01*
X1811497Y635317D02*
X1825001Y648821D01*
X1811497Y399413D02*
Y635317D01*
X1825001Y648821D02*
Y880875D01*
X1811497Y399413D02*
X1833788Y377122D01*
X1859997Y599997D02*
Y714993D01*
X-932506Y944320D02*
X-919326Y957500D01*
X-826521Y649695D02*
X-687275D01*
X-932506Y755680D02*
Y944320D01*
X-870006Y805000D02*
Y850000D01*
X-687275Y649695D02*
X-581290Y543710D01*
X-870006Y805000D02*
X-837506Y772500D01*
X-749783D01*
X-760004Y825147D02*
X-677356Y742500D01*
X-535819Y510819D02*
X-501350Y476350D01*
X-760004Y825147D02*
Y896818D01*
X-848650Y276350D02*
X-581290Y543710D01*
X-543786Y506206D02*
X-540431D01*
X-820686Y957500D02*
X-760004Y896818D01*
X-919326Y957500D02*
X-820686D01*
X-581290Y543710D02*
X-543786Y506206D01*
X-932506Y755680D02*
X-826521Y649695D01*
X-630004Y1360000D02*
X-381265D01*
X-501350Y174156D02*
Y476350D01*
X-848650Y174156D02*
Y276350D01*
X-598506Y77000D02*
X-501350Y174156D01*
X-848650D02*
X-751494Y77000D01*
X-738500D01*
X-375000Y1604999D02*
X-327500D01*
X-315000Y1617499D01*
Y1650649D01*
X1024998Y3050000D02*
Y3275003D01*
X999999Y3300002D02*
X1024998Y3275003D01*
X900000Y3425000D02*
X1075000D01*
X1150000Y3350000D01*
X875000Y3175000D02*
Y3400000D01*
X900000Y3425000D01*
X837532Y3137532D02*
X875000Y3175000D01*
X497661Y3021496D02*
X577655Y3053008D01*
X578237Y3051532D02*
Y3052426D01*
X577655Y3053008D02*
X578237Y3052426D01*
X577099Y3137532D02*
X837532D01*
X2192914Y1774996D02*
X2208705Y1786875D01*
X2119123Y1774996D02*
X2192914Y1774996D01*
X2208705Y1786875D02*
X2231037Y1809207D01*
X4092500Y1455002D02*
Y2705001D01*
X3450002Y280186D02*
Y453377D01*
X3500000Y503375D01*
Y525000D01*
X4010001Y1264999D02*
X4042500Y1232499D01*
X3752500Y50001D02*
X4042500Y340001D01*
Y1232499D01*
X4010001Y1264999D02*
Y1402505D01*
X4092499Y2705002D02*
X4092500Y2705001D01*
X4092499Y2705002D02*
X4092500Y2705003D01*
X2600001Y2945344D02*
Y2947673D01*
X1474999Y579106D02*
Y880875D01*
X1420000Y481681D02*
X1525002Y586683D01*
X1390000Y494107D02*
X1474999Y579106D01*
X1525002Y586683D02*
Y880875D01*
X1860383Y377122D02*
X1887505Y350000D01*
X1659207Y768961D02*
X1690789D01*
X1725001Y803173D01*
Y880875D01*
X2050000Y1000000D02*
X2235002D01*
X2050000D02*
X2064000Y986000D01*
Y839378D02*
Y986000D01*
X2323822Y1224995D02*
X2439000Y1109817D01*
Y890248D02*
Y1109817D01*
X2306100Y862498D02*
X2424324D01*
X2439000Y890248D02*
X2467504Y861744D01*
X2232602Y789000D02*
X2306100Y862498D01*
X2467504Y329320D02*
Y861744D01*
X2114378Y789000D02*
X2232602D01*
X2064000Y839378D02*
X2114378Y789000D01*
X2084930Y350000D02*
X2266213D01*
X1874999Y880875D02*
Y958579D01*
X2076143Y328787D02*
Y341213D01*
X2028450Y651178D02*
Y921551D01*
X2076143Y341213D02*
X2084930Y350000D01*
X2076143Y328787D02*
X2082504Y322426D01*
X1956212Y993783D02*
X2028450Y921551D01*
X2275000Y-75000D02*
Y341213D01*
X2266213Y350000D02*
X2275000Y341213D01*
X1874999Y802689D02*
Y880875D01*
X2150004Y519809D02*
Y529624D01*
X1910208Y993783D02*
X1956212D01*
X1874999Y958579D02*
X1910208Y993783D01*
X2235002Y1000000D02*
X2309999Y1074998D01*
X1721430Y1394982D02*
Y1453570D01*
X2029541Y1086871D02*
X2033454D01*
X1700000Y1475000D02*
X1721430Y1453570D01*
X2033454Y1086871D02*
X2045333Y1074992D01*
X2119123D01*
X2358499Y1043498D02*
X2389999Y1074998D01*
X2358499Y1039678D02*
Y1043498D01*
X2215252Y896430D02*
X2358499Y1039678D01*
X2171430Y896430D02*
X2215252D01*
X2150000Y875000D02*
X2171430Y896430D01*
X2043520Y-306480D02*
X2275000Y-75000D01*
X2037307Y-306481D02*
X2043520Y-306480D01*
X2034700D02*
X2037305Y-306481D01*
X1920006Y314392D02*
X1941217D01*
X2082504Y297574D02*
Y322426D01*
X1941217Y314392D02*
X1950004Y305605D01*
Y293180D02*
Y305605D01*
Y293180D02*
X1963184Y280000D01*
X1887505Y346892D02*
X1920006Y314392D01*
X1963184Y280000D02*
X2064930D01*
X2082504Y297574D01*
X96430Y1644082D02*
Y1703570D01*
X-319998Y2662497D02*
X-282498Y2624997D01*
X-319998Y2662497D02*
Y2719998D01*
X-400000Y2800000D02*
X-319998Y2719998D01*
X45000Y2407502D02*
X52500D01*
X77498Y2432500D01*
X79319D01*
X103945Y2457126D01*
Y2574433D01*
X150000Y2620488D01*
Y2650000D01*
X35001Y2785002D02*
X342500D01*
X-75000Y2489996D02*
Y2675000D01*
X35001Y2785002D01*
X-215003Y2399923D02*
X-160001Y2344922D01*
Y2246174D02*
Y2344922D01*
X-215003Y2399923D02*
Y2449709D01*
X-206216Y2458496D02*
X-106500D01*
X-160001Y2246174D02*
X-116817Y2202990D01*
X-215003Y2449709D02*
X-206216Y2458496D01*
X-190001Y2233748D02*
Y2276747D01*
X-245002Y2331748D02*
X-190001Y2276747D01*
Y2233748D02*
X-108126Y2151873D01*
X-112999Y2282986D02*
X-81497Y2251490D01*
X-130001Y2296168D02*
Y2366806D01*
Y2296168D02*
X-116819Y2282986D01*
X-130001Y2366806D02*
X-105312Y2391495D01*
X-116819Y2282986D02*
X-112999D01*
X-105312Y2391495D02*
X-93501D01*
X-75000Y2409996D01*
X-32997Y2216170D02*
Y2286809D01*
X-59178Y2312990D02*
X-32997Y2286809D01*
X-106500Y2458496D02*
X-75000Y2489996D01*
X-61873Y2151873D02*
X57502Y2032498D01*
X-81497Y2331490D02*
X-62998Y2312990D01*
X-108126Y2151873D02*
X-61873D01*
X-116817Y2202990D02*
X-46178D01*
X-32997Y2216170D01*
X-62998Y2312990D02*
X-59178D01*
X55000Y2352503D02*
X64321D01*
X45000Y2342503D02*
X55000Y2352503D01*
X45000Y2472500D02*
X52500D01*
X342500Y2785002D02*
X350003D01*
X464000Y3021496D02*
X485234D01*
X423791Y3108107D02*
X560225Y3137330D01*
X485234Y3021496D02*
X497661Y3021496D01*
X550001Y2713785D02*
Y2722499D01*
X654396Y2628141D02*
X667503Y2641248D01*
X650003Y2611320D02*
X659107Y2479225D01*
X650003Y2611320D02*
Y2623747D01*
X654396Y2628141D01*
X549997Y2734999D02*
X550001Y2722499D01*
Y2713785D02*
X573311Y2473311D01*
X442965Y2853786D02*
X450003Y2846748D01*
X442965Y2866212D02*
X451752Y2874999D01*
X364189Y2389189D02*
Y2410812D01*
X420003Y2562843D02*
Y2834321D01*
X187238Y2529054D02*
X386213D01*
X451752Y2874999D02*
X702499D01*
X386213Y2529054D02*
X420003Y2562843D01*
X442965Y2853786D02*
Y2866212D01*
X302500Y2472500D02*
X364189Y2410812D01*
X401826Y2852498D02*
X420003Y2834321D01*
X205004Y2472500D02*
X302500D01*
X252504Y2360002D02*
X312506Y2300000D01*
X252504Y2360002D02*
Y2369323D01*
X239324Y2382503D02*
X252504Y2369323D01*
X205004Y2407502D02*
X212504D01*
X222504Y2397502D01*
X231291Y2382503D02*
X239324D01*
X222504Y2391290D02*
X231291Y2382503D01*
X222504Y2391290D02*
Y2397502D01*
X172506Y2367501D02*
X197505Y2342503D01*
X170686Y2367501D02*
X172506D01*
X157504Y2380683D02*
X170686Y2367501D01*
X157504Y2380683D02*
Y2499320D01*
X-282498Y2624997D02*
Y3082163D01*
X-64664Y3299997D01*
X249998D01*
X2177793Y-311522D02*
X2178223Y-311074D01*
X2174038Y-315601D02*
X2177793Y-311522D01*
X2151299Y-573701D02*
Y-363100D01*
X2120000Y-605000D02*
X2151299Y-573701D01*
X-911213Y-605000D02*
X2120000D01*
X1750000Y-425000D02*
X1867511D01*
X1876298Y-416213D02*
Y-363100D01*
X1867511Y-425000D02*
X1871905Y-420606D01*
X1936898Y-302500D02*
X2013098D01*
X1871905Y-420606D02*
X1876298Y-416213D01*
X1330000Y518959D02*
X1375000Y563959D01*
X1300000Y531385D02*
X1325002Y556388D01*
X1360000Y506533D02*
X1425002Y571535D01*
X1250001Y-425000D02*
Y-401199D01*
X1450000Y206820D02*
X1485002Y241822D01*
X1300000Y-100005D02*
Y531385D01*
X999999Y-400006D02*
X1300000Y-100005D01*
X1050001Y-300001D02*
X1270000Y-80003D01*
Y543811D02*
X1274995Y548806D01*
X1250001Y-401199D02*
X1330951Y-320249D01*
X1270000Y-80003D02*
Y543811D01*
X1485002Y241822D02*
Y324996D01*
X2792503Y697498D02*
X2830003Y734998D01*
X-975000Y-541213D02*
Y2250073D01*
X-900073Y2325000D02*
X-280681D01*
X-975000Y2250073D02*
X-900073Y2325000D01*
X-850002Y2424997D02*
X-842502D01*
X-975000Y-541213D02*
X-911213Y-605000D01*
X-745000Y-500000D02*
X-208787D01*
X-400000Y-575000D02*
X535701D01*
X-900000Y-400000D02*
X-750000Y-550000D01*
X535701Y-575000D02*
X651302Y-459399D01*
X-870000Y-375000D02*
X-745000Y-500000D01*
X-425000Y-550000D02*
X-400000Y-575000D01*
X-750000Y-550000D02*
X-425000D01*
X-842502Y2424997D02*
Y2625002D01*
Y2024998D02*
Y2224998D01*
X-530000Y1600000D02*
X-379998Y1750002D01*
X-611500Y77000D02*
X-598506D01*
X-363500Y-425000D02*
X-225000D01*
X-307430Y-303570D02*
Y-242570D01*
X-500000Y-50000D02*
X-307430Y-242570D01*
X-611500Y-50000D02*
X-500000D01*
X2608181Y1114997D02*
X2791821D01*
X2577501Y1145677D02*
X2608181Y1114997D01*
X2577501Y1145677D02*
Y1204317D01*
X2608181Y1234997D01*
X2816211Y1174997D02*
X2852501Y1211287D01*
X2608181Y1234997D02*
X2791821D01*
X2822501Y1265677D01*
Y1324317D01*
X2809321Y1337497D02*
X2822501Y1324317D01*
X2852501Y1211287D02*
Y1336743D01*
X2525000Y950000D02*
X2746823D01*
X2822501Y1025678D02*
Y1084317D01*
X2590681Y1337497D02*
X2809321D01*
X2579670Y1326487D02*
X2590681Y1337497D01*
X2479687Y1326487D02*
X2579670D01*
X2506628Y1168370D02*
Y1174124D01*
Y1168370D02*
X2620001Y1054997D01*
X2700001D01*
X2791821Y1114997D02*
X2822501Y1084317D01*
X2405755Y1274997D02*
X2506628Y1174124D01*
X2526890Y1374997D02*
X2814247D01*
X2746823Y950000D02*
X2822501Y1025678D01*
X2814247Y1374997D02*
X2852501Y1336743D01*
X2890689Y1298558D02*
Y1340981D01*
Y1298558D02*
X3060000Y1129247D01*
X2721672Y1509998D02*
X2890689Y1340981D01*
X2597502Y1509998D02*
X2721672D01*
X2119123Y1274997D02*
X2405755D01*
X-870000Y-375000D02*
Y-181787D01*
X-900000Y-400000D02*
Y-104949D01*
X-841051Y-46000D01*
X3060000Y949999D02*
Y1129247D01*
X651302Y-459399D02*
Y-323698D01*
X875000Y-100000D01*
X2296828Y1475000D02*
X2300000D01*
X2196836Y1574991D02*
X2296828Y1475000D01*
X725000Y1450000D02*
X755307D01*
X780304Y1474997D01*
X821620Y1824998D02*
X980878D01*
X-645002Y1374997D02*
X-630004Y1360000D01*
X3000000Y-425000D02*
Y-417760D01*
X3066371Y-351390D01*
X3076097D01*
X3077487Y-350000D01*
X2750000Y-425000D02*
Y-401200D01*
X2119123Y1724999D02*
X2196831D01*
X2119123Y1574991D02*
X2196836D01*
X1425002Y571535D02*
Y880875D01*
X1362502Y-263698D02*
X1500003Y-401200D01*
X1274995Y548806D02*
Y880875D01*
X1375000Y563959D02*
Y880875D01*
X1325002Y556388D02*
Y880875D01*
X1225002Y50002D02*
Y880875D01*
X1075000Y-100000D02*
X1225002Y50002D01*
X1500003Y-425000D02*
Y-401200D01*
X1175000Y200000D02*
Y880875D01*
X875000Y-100000D02*
X1175000Y200000D01*
X469955Y-311287D02*
X930000Y148758D01*
X1122792Y1046780D02*
Y1310790D01*
X930000Y998087D02*
X938787Y1006874D01*
X1082886D02*
X1122792Y1046780D01*
X938787Y1006874D02*
X1082886D01*
X930000Y148758D02*
Y998087D01*
X980878Y1374997D02*
X1058585D01*
X1122792Y1310790D01*
X980878Y1324999D02*
X1058580D01*
X1070460Y1036873D02*
X1092792Y1059206D01*
X900000Y1028087D02*
X908787Y1036873D01*
X900000Y161184D02*
Y1028087D01*
X908787Y1036873D02*
X1070460D01*
X1092792Y1059206D02*
Y1290787D01*
X513816Y-225000D02*
X900000Y161184D01*
X1058580Y1324999D02*
X1092792Y1290787D01*
X882689Y1604996D02*
X902691Y1624999D01*
X601951Y1604996D02*
X882689D01*
X614377Y1574996D02*
X980878D01*
X902691Y1624999D02*
X980878D01*
X527503Y1683388D02*
X560891Y1650000D01*
X878174D02*
X903170Y1674996D01*
X560891Y1650000D02*
X878174D01*
X903170Y1674996D02*
X980878D01*
X730308Y1724999D02*
X980878D01*
X705307Y1750000D02*
X730308Y1724999D01*
X675000Y1750000D02*
X705307D01*
X1725001Y1941412D02*
X1759207Y1907206D01*
X1940792D01*
X2000000Y1966414D01*
X1904998Y2116826D02*
Y2279998D01*
X1925001Y2019120D02*
Y2096824D01*
X1904998Y2116826D02*
X1925001Y2096824D01*
X1150000Y2974999D02*
X2075002D01*
X1097499D02*
X1150000D01*
X157504Y2499320D02*
X187238Y2529054D01*
X197505Y2342503D02*
X205004D01*
X1150000Y2974999D02*
Y3350000D01*
X367505Y2925001D02*
X464000Y3021496D01*
X205004Y2277504D02*
X247496D01*
X230009Y2099998D02*
X246822D01*
X260003Y2086818D01*
X52503Y2277504D02*
X230009Y2099998D01*
X260003Y2069994D02*
Y2086818D01*
X799981Y1524999D02*
X980878D01*
X788980Y1536000D02*
X799981Y1524999D01*
X636000Y1536000D02*
X788980D01*
X550000Y1450000D02*
X636000Y1536000D01*
X780304Y1474997D02*
X980878D01*
X1525002Y1941412D02*
Y2019120D01*
X1474999Y1941412D02*
Y2019115D01*
X367505Y2925001D02*
X702499D01*
X360000D02*
X367505D01*
X1761500Y2761500D02*
X1875000Y2875000D01*
X1761500Y2314676D02*
Y2761500D01*
Y2314676D02*
X1774999Y2301178D01*
Y2019120D02*
Y2301178D01*
X2499996Y3549999D02*
Y3579298D01*
X2406795Y3672499D02*
X2499996Y3579298D01*
X1741415Y1874996D02*
X1975003D01*
X450000Y1100000D02*
X487496Y1137496D01*
X804317D01*
X841813Y1174992D01*
X980878D01*
X872229Y1124995D02*
X980878D01*
X801585Y1054351D02*
X872229Y1124995D01*
X759245Y1084266D02*
X789159Y1054351D01*
X801585D01*
X864779Y1074997D02*
X980878D01*
X812548Y1022766D02*
X864779Y1074997D01*
X777744Y1022766D02*
X812548D01*
X458787Y-383787D02*
X469955Y-372618D01*
Y-311287D01*
X458787Y-383787D02*
X500000Y-425000D01*
X307104Y-225000D02*
X513816D01*
X250003Y-425000D02*
Y-282101D01*
X307104Y-225000D01*
X814396Y-310608D02*
X825003Y-300001D01*
X1050001D01*
X750002Y-425000D02*
Y-384639D01*
X814396Y-320245D01*
Y-310608D01*
X-245002Y2331748D02*
Y2387497D01*
X57502Y2024998D02*
Y2032498D01*
X-239998Y2097498D02*
Y2284318D01*
X-280681Y2325000D02*
X-239998Y2284318D01*
X-299998Y2037498D02*
X-239998Y2097498D01*
X-299998Y2024998D02*
Y2037498D01*
X2119123Y1224995D02*
X2323822D01*
X2324997Y1690001D02*
X2333533Y1681465D01*
X1225002Y2019115D02*
Y2215005D01*
X1175000Y2019115D02*
Y2142709D01*
X1153510Y2164199D02*
X1175000Y2142709D01*
X1153510Y2164199D02*
Y2206497D01*
X1135010Y2224997D02*
X1153510Y2206497D01*
X2523719Y1681465D02*
X2532505Y1672678D01*
Y1582497D02*
Y1672678D01*
Y1582497D02*
X2565005Y1549998D01*
X549997Y2734999D02*
X600000D01*
X1425002Y2019120D02*
Y2229778D01*
Y2229783D01*
X3269997Y1860000D02*
Y2050002D01*
X3229997D02*
X3269997D01*
X549997Y2814999D02*
X600000D01*
X1260755Y2650001D02*
X1355756Y2745002D01*
X1392505D01*
X1492500Y2844996D01*
Y2849995D01*
X-282503Y2424997D02*
X-245002Y2387497D01*
X-70484Y2342503D02*
X45000D01*
X-81497Y2331490D02*
X-70484Y2342503D01*
X604999Y2819998D02*
X697500D01*
X600000Y2814999D02*
X604999Y2819998D01*
X600000Y2734999D02*
X640000Y2774999D01*
X702499D01*
X3210002Y1800000D02*
X3269997Y1860000D01*
X3204998Y1795001D02*
X3210002Y1800000D01*
X2249994Y3516999D02*
Y3540799D01*
Y3516999D02*
X2368302Y3398696D01*
Y3245996D02*
Y3398696D01*
Y3245996D02*
X2482246Y3132052D01*
X2486056D01*
X2600001Y3018113D01*
Y2947673D02*
Y3018113D01*
X3145943Y2620943D02*
X3161285Y2636290D01*
X3450002Y119815D02*
Y129625D01*
X3366212Y213414D02*
X3450002Y129625D01*
X3366212Y213414D02*
Y725001D01*
X2830003Y687505D02*
Y734998D01*
X2600001Y750004D02*
X2800000Y949999D01*
X3060000D01*
X4010001Y1402505D02*
X4062497Y1455002D01*
X4092500D01*
X3450002Y119815D02*
X3475000Y94811D01*
X3612689D01*
X-650000Y1400001D02*
X-620003Y1370003D01*
X-650000Y1600000D02*
X-530000D01*
X2565005Y1542500D02*
X2597502Y1509998D01*
X2565005Y1542500D02*
Y1549998D01*
X2435002D02*
X2445000Y1540000D01*
X992506Y2542503D02*
X1015000Y2564997D01*
Y2640003D01*
X784998Y2565002D02*
Y2639998D01*
X807497Y2542503D02*
X847508D01*
X784998Y2565002D02*
X807497Y2542503D01*
X847508D02*
X860004Y2530001D01*
X1015000Y2640003D02*
X1024998Y2650001D01*
X774996D02*
X784998Y2639998D01*
X-72506Y2407502D02*
X45000D01*
X-75000Y2409996D02*
X-72506Y2407502D01*
X-57505Y2472500D02*
X45000D01*
X-75000Y2489996D02*
X-57505Y2472500D01*
X-299998Y2212501D02*
Y2224998D01*
X-359998Y2152501D02*
X-299998Y2212501D01*
X-359998Y1965674D02*
Y2152501D01*
Y1965674D02*
X-344321Y1949997D01*
X1574999Y1700000D02*
X1625002Y1749997D01*
Y2019120D01*
X-607501Y2224998D02*
X-449996D01*
X-607501Y2424997D02*
X-417499D01*
X-607501Y2625002D02*
X-417499D01*
Y2624997D02*
Y2625002D01*
X-282498Y2599998D02*
Y2607496D01*
X-607501Y2024998D02*
X-450001D01*
X2867504Y725001D02*
X3366212D01*
X2119123Y1074992D02*
X2295008D01*
X2420001Y1324999D02*
X2449999Y1294997D01*
X2119123Y1324999D02*
X2420001D01*
X2444990Y1374997D02*
X2445000Y1374987D01*
X3670001Y2597499D02*
X3692501Y2574999D01*
X3670001Y2597499D02*
Y2799998D01*
X45000Y2277504D02*
X52503D01*
X310003Y2752505D02*
X342500Y2785002D01*
X697500Y2819998D02*
X702499Y2825001D01*
X999999Y-425000D02*
Y-400006D01*
X3612689Y94811D02*
X3657504Y50001D01*
X3752500D01*
X2449999Y1294997D02*
X2625000D01*
X350003Y2914999D02*
X360000Y2925001D01*
X1500003Y2719998D02*
X1636213D01*
X1645002Y2711209D01*
Y2499998D02*
Y2711209D01*
X1425002Y2650001D02*
X1430001D01*
X1500003Y2719998D01*
X1425002Y2229783D02*
X1425215D01*
X1522934Y2327497D01*
X1567496D01*
X1599998Y2359999D01*
X1574999Y2019120D02*
Y2096824D01*
X1674999Y2196824D01*
X1325002Y2817498D02*
X1357499Y2849995D01*
X1325002Y2799998D02*
Y2817498D01*
X1299998Y2774999D02*
X1325002Y2799998D01*
X1097499Y2774999D02*
X1299998D01*
X1674999Y1941412D02*
X1741415Y1874996D01*
X1674999Y1941412D02*
Y2019115D01*
X677500Y2724997D02*
X702499D01*
X667503Y2714994D02*
X677500Y2724997D01*
X667503Y2641248D02*
Y2714994D01*
X1874999Y2019120D02*
Y2334995D01*
X1072501Y2974994D02*
X1072506Y2974999D01*
X1874999Y802689D02*
X1895004Y782684D01*
Y749999D02*
Y782684D01*
X1859997Y714993D02*
X1895004Y749999D01*
X1925001Y614998D02*
Y880875D01*
Y614998D02*
X1939997Y599997D01*
X1874999Y2334995D02*
X1890000Y2349996D01*
X1825001Y2019120D02*
Y2335000D01*
X1810000Y2349996D02*
X1825001Y2335000D01*
D11*
X-587241Y1136499D02*
G03*
X-622913Y1125002I-12760J-21498D01*
G01*
X-577089D02*
G03*
X-587241Y1136499I-22912J-10001D01*
G01*
D02*
G03*
X-622913Y1125002I-12760J-21498D01*
G01*
X-577089D02*
G03*
X-587241Y1136499I-22912J-10001D01*
G01*
Y1093503D02*
G03*
X-577089Y1125002I-12760J21498D01*
G01*
X-625001Y1115001D02*
G03*
X-587241Y1093503I25000J0D01*
G01*
D02*
G03*
X-577089Y1125002I-12760J21498D01*
G01*
X-625001Y1115001D02*
G03*
X-587241Y1093503I25000J0D01*
G01*
X-699091Y1091712D02*
G03*
X-697714Y1091221I9090J23289D01*
G01*
X-699091Y1091712D02*
G03*
X-697714Y1091221I9090J23289D01*
G01*
X-697713Y1091220D02*
G03*
X-692288Y1090106I7712J23781D01*
G01*
X-697713Y1091220D02*
G03*
X-692288Y1090106I7712J23781D01*
G01*
X-697713Y1091220D02*
G03*
X-692288Y1090106I7712J23781D01*
G01*
X-697713Y1091220D02*
G03*
X-692288Y1090106I7712J23781D01*
G01*
X-692280Y1090105D02*
G03*
X-690002Y1090001I2279J24896D01*
G01*
X-692280Y1090105D02*
G03*
X-690002Y1090001I2279J24896D01*
G01*
X-692280Y1090105D02*
G03*
X-690002Y1090001I2279J24896D01*
G01*
X-692280Y1090105D02*
G03*
X-690002Y1090001I2279J24896D01*
G01*
X-712913Y1104999D02*
G03*
X-699096Y1091714I22912J10002D01*
G01*
X-712913Y1104999D02*
G03*
X-699096Y1091714I22912J10002D01*
G01*
X-699091Y1091712D02*
G03*
X-697714Y1091221I9090J23289D01*
G01*
X-699091Y1091712D02*
G03*
X-697714Y1091221I9090J23289D01*
G01*
X-712913Y1104999D02*
G03*
X-699096Y1091714I22912J10002D01*
G01*
X-712913Y1104999D02*
G03*
X-699096Y1091714I22912J10002D01*
G01*
X-690002Y1090001D02*
G03*
X-672550Y1097099I1J25000D01*
G01*
X-690002Y1090001D02*
G03*
X-672550Y1097099I1J25000D01*
G01*
X-690002Y1090001D02*
G03*
X-672550Y1097099I1J25000D01*
G01*
X-690002Y1090001D02*
G03*
X-672550Y1097099I1J25000D01*
G01*
X-714894Y1112694D02*
G03*
X-714893Y1112684I24893J2307D01*
G01*
X-714896Y1112713D02*
G03*
X-714894Y1112694I24895J2288D01*
G01*
Y1112694D02*
G03*
X-714893Y1112684I24893J2307D01*
G01*
X-714896Y1112713D02*
G03*
X-714894Y1112694I24895J2288D01*
G01*
X-714896Y1112713D02*
G03*
X-714894Y1112694I24895J2288D01*
G01*
Y1112694D02*
G03*
X-714893Y1112684I24893J2307D01*
G01*
X-714894Y1112694D02*
G03*
X-714893Y1112684I24893J2307D01*
G01*
X-715001Y1114999D02*
G03*
X-714963Y1113623I25000J2D01*
G01*
X-715001Y1114999D02*
G03*
X-714963Y1113623I25000J2D01*
G01*
X-714962Y1113612D02*
G03*
X-714896Y1112720I24961J1389D01*
G01*
X-714963Y1113621D02*
G03*
X-714962Y1113612I24962J1380D01*
G01*
X-715001Y1114999D02*
G03*
X-714963Y1113623I25000J2D01*
G01*
X-715001Y1114999D02*
G03*
X-714963Y1113623I25000J2D01*
G01*
X-714962Y1113612D02*
G03*
X-714896Y1112720I24961J1389D01*
G01*
X-714963Y1113621D02*
G03*
X-714962Y1113612I24962J1380D01*
G01*
X-714896Y1112713D02*
G03*
X-714894Y1112694I24895J2288D01*
G01*
X-714962Y1113612D02*
G03*
X-714896Y1112720I24961J1389D01*
G01*
X-714963Y1113621D02*
G03*
X-714962Y1113612I24962J1380D01*
G01*
D02*
G03*
X-714896Y1112720I24961J1389D01*
G01*
X-714963Y1113621D02*
G03*
X-714962Y1113612I24962J1380D01*
G01*
X-713841Y1107474D02*
G03*
X-713289Y1105908I23840J7527D01*
G01*
X-713841Y1107474D02*
G03*
X-713289Y1105908I23840J7527D01*
G01*
X-713841Y1107474D02*
G03*
X-713289Y1105908I23840J7527D01*
G01*
X-714263Y1108974D02*
G03*
X-713843Y1107480I24263J6027D01*
G01*
X-714263Y1108974D02*
G03*
X-713843Y1107480I24263J6027D01*
G01*
X-713288Y1105906D02*
G03*
X-712913Y1104999I23287J9095D01*
G01*
X-713288Y1105906D02*
G03*
X-712913Y1104999I23287J9095D01*
G01*
X-713288Y1105906D02*
G03*
X-712913Y1104999I23287J9095D01*
G01*
X-713841Y1107474D02*
G03*
X-713289Y1105908I23840J7527D01*
G01*
X-713288Y1105906D02*
G03*
X-712913Y1104999I23287J9095D01*
G01*
X-714263Y1108974D02*
G03*
X-713843Y1107480I24263J6027D01*
G01*
X-715001Y1115009D02*
G03*
X-715001Y1115001I25000J-8D01*
G01*
X-713184Y1124358D02*
G03*
X-715001Y1115009I23183J-9357D01*
G01*
X-714263Y1108974D02*
G03*
X-713843Y1107480I24263J6027D01*
G01*
X-715001Y1115009D02*
G03*
X-715001Y1115001I25000J-8D01*
G01*
X-713184Y1124358D02*
G03*
X-715001Y1115009I23183J-9357D01*
G01*
X-713182Y1124363D02*
G03*
X-713183Y1124359I23181J-9362D01*
G01*
X-713182Y1124363D02*
G03*
X-713183Y1124359I23181J-9362D01*
G01*
X-712913Y1125003D02*
G03*
X-713180Y1124367I22912J-10002D01*
G01*
X-712913Y1125003D02*
G03*
X-713180Y1124367I22912J-10002D01*
G01*
X-712913Y1125003D02*
G03*
X-713180Y1124367I22912J-10002D01*
G01*
X-712913Y1125003D02*
G03*
X-713180Y1124367I22912J-10002D01*
G01*
X-674844Y1815120D02*
G03*
X-668336Y1822527I-15157J19881D01*
G01*
X-674844Y1815120D02*
G03*
X-668336Y1822527I-15157J19881D01*
G01*
X-622913Y1125002D02*
G03*
X-624281Y1120957I22912J-10001D01*
G01*
X-622913Y1125002D02*
G03*
X-624281Y1120957I22912J-10001D01*
G01*
X-668336Y1822527D02*
G03*
X-665582Y1829642I-21665J12474D01*
G01*
X-668336Y1822527D02*
G03*
X-665582Y1829642I-21665J12474D01*
G01*
X-665582Y1829646D02*
G03*
X-665090Y1832900I-24420J5356D01*
G01*
X-665582Y1829646D02*
G03*
X-665090Y1832900I-24420J5356D01*
G01*
Y1832901D02*
G03*
X-665003Y1834682I-24912J2100D01*
G01*
Y1834683D02*
G03*
X-665001Y1834866I-24998J318D01*
G01*
X-665003Y1834683D02*
G03*
X-665001Y1834866I-24998J318D01*
G01*
D02*
G03*
X-665001Y1834902I-25000J135D01*
G01*
Y1834902D02*
G03*
X-665001Y1834907I-25000J99D01*
G01*
Y1834866D02*
G03*
X-665001Y1834902I-25000J135D01*
G01*
Y1834902D02*
G03*
X-665001Y1834907I-25000J99D01*
G01*
Y1834907D02*
G03*
X-665001Y1834912I-25000J94D01*
G01*
Y1834907D02*
G03*
X-665001Y1834912I-25000J94D01*
G01*
D02*
G03*
X-665001Y1834953I-25000J89D01*
G01*
X-665001Y1834912D02*
G03*
X-665001Y1834953I-25000J89D01*
G01*
X-669989Y1100017D02*
G03*
X-669976Y1100034I-20012J14984D01*
G01*
X-669989Y1100017D02*
G03*
X-669976Y1100034I-20012J14984D01*
G01*
X-714893Y1112682D02*
G03*
X-714271Y1109005I24892J2319D01*
G01*
X-714893Y1112682D02*
G03*
X-714271Y1109005I24892J2319D01*
G01*
X-714893Y1112682D02*
G03*
X-714271Y1109005I24892J2319D01*
G01*
X-714893Y1112682D02*
G03*
X-714271Y1109005I24892J2319D01*
G01*
X-667093Y1125012D02*
G03*
X-712912Y1125004I-22908J-10011D01*
G01*
X-669975Y1100035D02*
G03*
X-667089Y1125002I-20026J14966D01*
G01*
X-667093Y1125012D02*
G03*
X-712912Y1125004I-22908J-10011D01*
G01*
X-667093Y1125012D02*
G03*
X-712912Y1125004I-22908J-10011D01*
G01*
X-667093Y1125012D02*
G03*
X-712912Y1125004I-22908J-10011D01*
G01*
X-669975Y1100035D02*
G03*
X-667088Y1125002I-20026J14966D01*
G01*
X-667089Y1125004D02*
G03*
X-667092Y1125010I-22912J-10003D01*
G01*
X-667089Y1125004D02*
G03*
X-667092Y1125010I-22912J-10003D01*
G01*
X-665001Y1834954D02*
G03*
X-665001Y1834998I-25000J47D01*
G01*
Y1834954D02*
G03*
X-665001Y1834998I-25000J47D01*
G01*
X-701060Y1812580D02*
G03*
X-699072Y1811705I11059J22421D01*
G01*
X-701060Y1812580D02*
G03*
X-699072Y1811705I11059J22421D01*
G01*
X-711302Y1821915D02*
G03*
X-701060Y1812580I21301J13087D01*
G01*
X-715001Y1834998D02*
G03*
X-711302Y1821915I25000J3D01*
G01*
X-679066Y1812520D02*
G03*
X-677527Y1813336I-10935J22482D01*
G01*
X-699068Y1811704D02*
G03*
X-679069Y1812518I9067J23298D01*
G01*
X-715001Y1834998D02*
G03*
X-711302Y1821915I25000J3D01*
G01*
D02*
G03*
X-701060Y1812580I21301J13087D01*
G01*
X-679066Y1812520D02*
G03*
X-677527Y1813336I-10935J22482D01*
G01*
X-677525Y1813337D02*
G03*
X-674844Y1815120I-12476J21664D01*
G01*
X-677525Y1813337D02*
G03*
X-674844Y1815120I-12476J21664D01*
G01*
X-714266Y1108984D02*
G03*
X-714265Y1108978I24265J6017D01*
G01*
X-714266Y1108984D02*
G03*
X-714265Y1108978I24265J6017D01*
G01*
X-699068Y1811704D02*
G03*
X-679071Y1812517I9067J23298D01*
G01*
X-665001Y1835000D02*
G03*
X-715001Y1835001I-25000J1D01*
G01*
X-714270Y1108999D02*
G03*
X-714269Y1108994I24269J6002D01*
G01*
X-714270Y1108999D02*
G03*
X-714269Y1108994I24269J6002D01*
G01*
X-672541Y1097109D02*
G03*
X-672531Y1097118I-17460J17892D01*
G01*
X-672541Y1097109D02*
G03*
X-672531Y1097118I-17460J17892D01*
G01*
D02*
G03*
X-672527Y1097122I-17470J17883D01*
G01*
X-672531Y1097118D02*
G03*
X-672527Y1097122I-17470J17883D01*
G01*
X-672526Y1097123D02*
G03*
X-671898Y1097759I-17475J17878D01*
G01*
X-672526Y1097123D02*
G03*
X-671898Y1097759I-17475J17878D01*
G01*
X-671898Y1097759D02*
G03*
X-671887Y1097771I-18103J17242D01*
G01*
X-671898Y1097759D02*
G03*
X-671887Y1097771I-18103J17242D01*
G01*
X-672550Y1097099D02*
G03*
X-672547Y1097103I-17451J17902D01*
G01*
X-672550Y1097099D02*
G03*
X-672547Y1097103I-17451J17902D01*
G01*
X-625001Y1834999D02*
G03*
X-600005Y1860001I25000J2D01*
G01*
X-616752Y1853559D02*
G03*
X-625001Y1835006I16751J-18558D01*
G01*
X-616752Y1853559D02*
G03*
X-625001Y1835006I16751J-18558D01*
G01*
X-616748Y1853563D02*
G03*
X-616752Y1853560I16747J-18562D01*
G01*
X-616748Y1853563D02*
G03*
X-616752Y1853560I16747J-18562D01*
G01*
X-600006Y1860001D02*
G03*
X-616748Y1853563I5J-25000D01*
G01*
X-600006Y1860001D02*
G03*
X-616748Y1853563I5J-25000D01*
G01*
X-672545Y1097105D02*
G03*
X-672541Y1097108I-17456J17896D01*
G01*
X-672545Y1097105D02*
G03*
X-672541Y1097108I-17456J17896D01*
G01*
X-671882Y1097776D02*
G03*
X-669991Y1100015I-18119J17225D01*
G01*
X-671882Y1097776D02*
G03*
X-669991Y1100015I-18119J17225D01*
G01*
X-624281Y1120957D02*
G03*
X-625001Y1115001I24280J-5956D01*
G01*
X-625001Y1835006D02*
G03*
X-625001Y1835001I25000J-5D01*
G01*
Y1834999D02*
G03*
X-600004Y1860001I25000J2D01*
G01*
X-842502Y2024998D02*
X-835002D01*
X-723966Y1913962D01*
Y1841052D02*
Y1913962D01*
D12*
X-763500Y77000D02*
D03*
X-636500D02*
D03*
Y-50000D02*
D03*
X-763500Y-177000D02*
D03*
X-636500D02*
D03*
X-763500Y-50000D02*
D03*
D13*
X1425002Y2229783D02*
D03*
Y2320217D02*
D03*
D14*
X2565005Y1549998D02*
D03*
X2435002D02*
D03*
X1837500Y225000D02*
D03*
X1712497D02*
D03*
X1485002Y324996D02*
D03*
X2012504Y350000D02*
D03*
X1887505D02*
D03*
X1615004Y324996D02*
D03*
D15*
X3244993Y2175005D02*
D03*
D16*
X2994996D02*
D03*
D17*
X3264993Y2325008D02*
D03*
Y2025008D02*
D03*
D18*
X1825001Y880875D02*
D03*
X1774994D02*
D03*
X1725001D02*
D03*
X1674999D02*
D03*
X1625002D02*
D03*
X1574999D02*
D03*
X1525002D02*
D03*
X1474999D02*
D03*
X1425002D02*
D03*
X1375000D02*
D03*
X1325002D02*
D03*
X1274995D02*
D03*
X1225002D02*
D03*
X1175000D02*
D03*
X1275000Y2019120D02*
D03*
X1325002D02*
D03*
X1375000D02*
D03*
X1425002D02*
D03*
X1474999Y2019115D02*
D03*
X1525002Y2019120D02*
D03*
X1574999D02*
D03*
X1625002D02*
D03*
X1674999Y2019115D02*
D03*
X1725001D02*
D03*
X1925001Y2019120D02*
D03*
X1175000Y2019115D02*
D03*
X1925001Y880875D02*
D03*
X1774999Y2019120D02*
D03*
X1825001D02*
D03*
X1874999Y880875D02*
D03*
X1225002Y2019115D02*
D03*
X1874999Y2019120D02*
D03*
D19*
X980878Y1174992D02*
D03*
Y1224995D02*
D03*
Y1274997D02*
D03*
Y1324999D02*
D03*
Y1374997D02*
D03*
Y1424999D02*
D03*
Y1474997D02*
D03*
Y1524999D02*
D03*
Y1574996D02*
D03*
Y1624999D02*
D03*
Y1674996D02*
D03*
Y1724999D02*
D03*
Y1774996D02*
D03*
Y1824998D02*
D03*
X2119123D02*
D03*
Y1774996D02*
D03*
Y1724999D02*
D03*
Y1674996D02*
D03*
Y1574991D02*
D03*
Y1524999D02*
D03*
Y1474997D02*
D03*
Y1424999D02*
D03*
X2119118Y1374997D02*
D03*
X2119123Y1324999D02*
D03*
Y1274997D02*
D03*
Y1224995D02*
D03*
Y1174997D02*
D03*
Y1124995D02*
D03*
X980878Y1074997D02*
D03*
Y1124995D02*
D03*
X2119123Y1624994D02*
D03*
D20*
Y1074992D02*
D03*
D21*
X-375000Y1345000D02*
D03*
Y1409998D02*
D03*
Y1474997D02*
D03*
Y1539996D02*
D03*
Y1604999D02*
D03*
D22*
X-645002Y1374997D02*
D03*
Y1574997D02*
D03*
D23*
X-530001Y850000D02*
D03*
X-870006D02*
D03*
D24*
X3705001Y2574999D02*
D03*
Y2475000D02*
D03*
Y1875001D02*
D03*
Y1975001D02*
D03*
Y2075000D02*
D03*
Y2175000D02*
D03*
Y2275000D02*
D03*
Y2375000D02*
D03*
D25*
X4092499Y1744999D02*
D03*
Y2705002D02*
D03*
D26*
X3200000Y1795001D02*
D03*
Y1604999D02*
D03*
X3399999Y1700000D02*
D03*
D27*
X2830003Y734998D02*
D03*
X2600001D02*
D03*
X2370004D02*
D03*
D28*
X2600001Y164997D02*
D03*
D29*
X724998Y500002D02*
D03*
D30*
X3450002Y280186D02*
D03*
Y119815D02*
D03*
X2150004Y680185D02*
D03*
Y519809D02*
D03*
X1850000Y2680186D02*
D03*
X3000000Y1619807D02*
D03*
X1850000Y2519810D02*
D03*
X3000000Y1780183D02*
D03*
D31*
X2324997Y1610001D02*
D03*
Y1690001D02*
D03*
X-81497Y2331490D02*
D03*
Y2251490D02*
D03*
X759245Y1084266D02*
D03*
X-75000Y2409996D02*
D03*
X759245Y1004266D02*
D03*
X-75000Y2489996D02*
D03*
D32*
X2389999Y1074998D02*
D03*
X2309999D02*
D03*
X3435000Y2549996D02*
D03*
X3515000D02*
D03*
X2515001Y1374992D02*
D03*
X1890000Y2349996D02*
D03*
X1215010Y2224997D02*
D03*
X1859997Y599997D02*
D03*
X1135010Y2224997D02*
D03*
X1810000Y2349996D02*
D03*
X1939997Y599997D02*
D03*
X2435001Y1374992D02*
D03*
D33*
X-449996Y2224998D02*
D03*
X-299998D02*
D03*
X385908Y1674986D02*
D03*
X535905D02*
D03*
X-450001Y2024998D02*
D03*
X-299998D02*
D03*
D34*
X3060000Y949999D02*
D03*
X3390002D02*
D03*
D35*
X1599998Y2359999D02*
D03*
Y2490001D02*
D03*
X350003Y2914999D02*
D03*
Y2785002D02*
D03*
D36*
X1492500Y2849995D02*
D03*
X1357499D02*
D03*
D37*
X-417499Y2624997D02*
D03*
X-282498D02*
D03*
X57502Y2024998D02*
D03*
X192503D02*
D03*
X-417499Y2424997D02*
D03*
X-282503D02*
D03*
D38*
X710002Y1200000D02*
D03*
X790002D02*
D03*
X710002Y1324999D02*
D03*
X790002D02*
D03*
D39*
X-607501Y2424997D02*
D03*
X-842502D02*
D03*
Y2024998D02*
D03*
Y2625002D02*
D03*
Y2224998D02*
D03*
X-607501Y2024998D02*
D03*
Y2224998D02*
D03*
Y2625002D02*
D03*
D40*
X205004Y2472500D02*
D03*
Y2407502D02*
D03*
Y2342503D02*
D03*
Y2277504D02*
D03*
X45000D02*
D03*
Y2342503D02*
D03*
Y2407502D02*
D03*
Y2472500D02*
D03*
D41*
X1425002Y2515000D02*
D03*
Y2650001D02*
D03*
D42*
X1024998Y3050000D02*
D03*
X975000D02*
D03*
X924998D02*
D03*
X874995D02*
D03*
X824998D02*
D03*
X774996D02*
D03*
Y2650001D02*
D03*
X824998D02*
D03*
X874995D02*
D03*
X924998D02*
D03*
X975000D02*
D03*
X1024998D02*
D03*
D43*
X702499Y2974999D02*
D03*
Y2925001D02*
D03*
Y2874999D02*
D03*
Y2825001D02*
D03*
Y2774999D02*
D03*
Y2724997D02*
D03*
X1097499D02*
D03*
Y2774999D02*
D03*
Y2825001D02*
D03*
Y2874999D02*
D03*
Y2925001D02*
D03*
Y2974999D02*
D03*
D44*
X899999Y2850000D02*
D03*
D45*
X2700001Y1174997D02*
D03*
Y1054997D02*
D03*
Y1294997D02*
D03*
D46*
X2960950Y2632505D02*
D03*
X3239055Y2697504D02*
D03*
X2960950Y2502503D02*
D03*
Y2567501D02*
D03*
Y2697504D02*
D03*
X3239055Y2632505D02*
D03*
Y2567501D02*
D03*
D47*
X3100000Y2600003D02*
D03*
D48*
X2600001Y2802329D02*
D03*
Y2947673D02*
D03*
D49*
X3670001Y2799998D02*
D03*
X3479999D02*
D03*
D50*
X549997Y2814999D02*
D03*
Y2734999D02*
D03*
D51*
X860004Y2525002D02*
D03*
X940004D02*
D03*
D52*
X3239055Y2502503D02*
D03*
D53*
X689250Y1304248D02*
X710002Y1324999D01*
X689250Y1294250D02*
Y1304248D01*
Y1220752D02*
X710002Y1200000D01*
X689250Y1220752D02*
Y1230750D01*
X-310272Y1476496D02*
X73027D01*
X140163Y1409359D01*
X166466Y1472859D02*
X175704D01*
X99329Y1539996D02*
X166466Y1472859D01*
X140163Y1409359D02*
X149402D01*
X328011Y1230750D02*
X689250D01*
X354313Y1294250D02*
X689250D01*
X175704Y1472859D02*
X354313Y1294250D01*
X-375000Y1539996D02*
X99329D01*
X149402Y1409359D02*
X328011Y1230750D01*
D54*
X-700000Y-304000D02*
D03*
X-598400Y204000D02*
D03*
X-801600D02*
D03*
D55*
X-375000Y1724999D02*
D03*
Y1225000D02*
D03*
D56*
X-700004Y850000D02*
D03*
D57*
X1Y-2D02*
D03*
X3050003Y3050000D02*
D03*
Y-2D02*
D03*
X1Y3050000D02*
D03*
D58*
X2750000Y3550000D02*
D03*
X2749998Y3300002D02*
D03*
X2500001D02*
D03*
X2499996Y3549999D02*
D03*
X2249994Y3540799D02*
D03*
X2249999Y3300002D02*
D03*
X2000002D02*
D03*
X1999997Y3549994D02*
D03*
X1750000D02*
D03*
Y3300002D02*
D03*
X1499998D02*
D03*
Y3549994D02*
D03*
X1249996Y3549999D02*
D03*
X999999Y3300002D02*
D03*
Y3549994D02*
D03*
X749997Y3549999D02*
D03*
X750002Y3300002D02*
D03*
X500000D02*
D03*
Y3549994D02*
D03*
X249998Y3549999D02*
D03*
Y3299997D02*
D03*
X3000000Y-425000D02*
D03*
X2750000D02*
D03*
X2500000D02*
D03*
X2249999Y-425000D02*
D03*
X1974998D02*
D03*
X1750000D02*
D03*
X1500003D02*
D03*
X1250001D02*
D03*
X750002D02*
D03*
X500000D02*
D03*
X250003D02*
D03*
X1250001Y3300002D02*
D03*
X999999Y-425000D02*
D03*
D59*
X2175000Y75000D02*
D03*
X2100000Y200000D02*
D03*
X1822936Y9000D02*
D03*
X2150000Y-75000D02*
D03*
X1325000Y2375000D02*
D03*
X2431501Y2000000D02*
D03*
X2046001Y-175000D02*
D03*
X2000000Y22000D02*
D03*
X1750000Y-175000D02*
D03*
X3775000Y1325000D02*
D03*
X3748552Y1591453D02*
D03*
X3205689Y1178000D02*
D03*
X3525000Y1582500D02*
D03*
X550000Y2125000D02*
D03*
X-175000Y1850000D02*
D03*
X-125000Y1675000D02*
D03*
X50000Y1800000D02*
D03*
X-300000Y525000D02*
D03*
X775000Y2436000D02*
D03*
X825000Y2234000D02*
D03*
X1000000D02*
D03*
X2925000Y1075000D02*
D03*
X2800000Y2748497D02*
D03*
X-275000Y-325000D02*
D03*
X2075000Y2825000D02*
D03*
X2050000Y2600000D02*
D03*
X1050000Y2050000D02*
D03*
X-75000Y1025000D02*
D03*
X-405774Y978099D02*
D03*
X200000Y1014000D02*
D03*
X767797Y1894820D02*
D03*
X2008024Y2393976D02*
D03*
X2000000Y2191976D02*
D03*
X2271354Y2007298D02*
D03*
X2450000Y-25000D02*
D03*
X368503Y2146470D02*
D03*
X400000Y1100000D02*
D03*
X1250000Y1175000D02*
D03*
X1875369Y1221426D02*
D03*
X1875000Y1675000D02*
D03*
X1689189Y1464189D02*
D03*
X1725000Y1650000D02*
D03*
X2325000Y2875000D02*
D03*
X3650000Y400000D02*
D03*
X3875000Y525000D02*
D03*
X1775000Y3075000D02*
D03*
X3900000Y2050000D02*
D03*
X3950000Y1900000D02*
D03*
X3400000Y3332574D02*
D03*
X3525000Y3150000D02*
D03*
X3555311Y2241689D02*
D03*
X3525000Y2069689D02*
D03*
X3394955Y2320523D02*
D03*
X3550000Y2415496D02*
D03*
X3900000Y725000D02*
D03*
X3525000Y1925000D02*
D03*
X325000Y1950000D02*
D03*
X425091Y1803468D02*
D03*
X2315878Y559122D02*
D03*
X225000Y1675000D02*
D03*
X1625000Y2850000D02*
D03*
X1695497Y504573D02*
D03*
X1926504Y479803D02*
D03*
X-540431Y506206D02*
D03*
X604295Y955187D02*
D03*
X578237Y3051532D02*
D03*
X3500000Y725000D02*
D03*
X3450000Y-250000D02*
D03*
Y-75000D02*
D03*
X3425000Y-425000D02*
D03*
X3500000Y525000D02*
D03*
X2150000Y875000D02*
D03*
X325000Y-50000D02*
D03*
X-400000Y2800000D02*
D03*
X150000Y2650000D02*
D03*
X-75000Y2675000D02*
D03*
X573311Y2473311D02*
D03*
X364189Y2389189D02*
D03*
X2525000Y950000D02*
D03*
X3125000Y1350000D02*
D03*
X2976689Y1351689D02*
D03*
X3400000Y1200000D02*
D03*
X2300000Y1475000D02*
D03*
X725000Y1450000D02*
D03*
X1075000Y-100000D02*
D03*
X875000D02*
D03*
X675000Y1750000D02*
D03*
X550000Y1450000D02*
D03*
X1875000Y2875000D02*
D03*
D60*
X999999Y2750000D02*
D03*
X899999Y2850000D02*
D03*
Y2750000D02*
D03*
X799999Y2850000D02*
D03*
Y2750000D02*
D03*
%TF.MD5,6ae22aab219016aa3598ffc4e705168e*%
M02*
