%TF.GenerationSoftware,Altium Limited,Altium Designer,23.4.1 (23)*%
G04 Layer_Color=8421504*
%FSLAX45Y45*%
%MOMM*%
%TF.SameCoordinates,2ABB9494-C5B4-4C01-9411-B7C80C6C87EF*%
%TF.FilePolarity,Positive*%
%TF.FileFunction,Paste,Top*%
%TF.Part,Single*%
G01*
G75*
%TA.AperFunction,NonConductor*%
%ADD10C,0.50000*%
%TA.AperFunction,SMDPad,CuDef*%
G04:AMPARAMS|DCode=11|XSize=0.73107mm|YSize=0.30247mm|CornerRadius=0.15124mm|HoleSize=0mm|Usage=FLASHONLY|Rotation=90.000|XOffset=0mm|YOffset=0mm|HoleType=Round|Shape=RoundedRectangle|*
%AMROUNDEDRECTD11*
21,1,0.73107,0.00000,0,0,90.0*
21,1,0.42859,0.30247,0,0,90.0*
1,1,0.30247,0.00000,0.21430*
1,1,0.30247,0.00000,-0.21430*
1,1,0.30247,0.00000,-0.21430*
1,1,0.30247,0.00000,0.21430*
%
%ADD11ROUNDEDRECTD11*%
%ADD12R,0.30247X0.73107*%
%TA.AperFunction,ConnectorPad*%
%ADD14R,0.95872X0.91213*%
%TA.AperFunction,SMDPad,CuDef*%
%ADD15R,0.70000X1.30000*%
%ADD16R,1.01213X1.20840*%
%ADD17R,0.52000X0.52000*%
%TA.AperFunction,ConnectorPad*%
%ADD18R,1.55000X0.60000*%
%ADD19R,1.80000X1.20000*%
%TA.AperFunction,SMDPad,CuDef*%
%ADD20R,6.80000X2.84000*%
G04:AMPARAMS|DCode=21|XSize=0.31247mm|YSize=1.78828mm|CornerRadius=0.15624mm|HoleSize=0mm|Usage=FLASHONLY|Rotation=180.000|XOffset=0mm|YOffset=0mm|HoleType=Round|Shape=RoundedRectangle|*
%AMROUNDEDRECTD21*
21,1,0.31247,1.47581,0,0,180.0*
21,1,0.00000,1.78828,0,0,180.0*
1,1,0.31247,0.00000,0.73791*
1,1,0.31247,0.00000,0.73791*
1,1,0.31247,0.00000,-0.73791*
1,1,0.31247,0.00000,-0.73791*
%
%ADD21ROUNDEDRECTD21*%
G04:AMPARAMS|DCode=22|XSize=1.78828mm|YSize=0.31247mm|CornerRadius=0.15624mm|HoleSize=0mm|Usage=FLASHONLY|Rotation=180.000|XOffset=0mm|YOffset=0mm|HoleType=Round|Shape=RoundedRectangle|*
%AMROUNDEDRECTD22*
21,1,1.78828,0.00000,0,0,180.0*
21,1,1.47581,0.31247,0,0,180.0*
1,1,0.31247,-0.73791,0.00000*
1,1,0.31247,0.73791,0.00000*
1,1,0.31247,0.73791,0.00000*
1,1,0.31247,-0.73791,0.00000*
%
%ADD22ROUNDEDRECTD22*%
%ADD23R,1.78828X0.31247*%
%ADD24R,0.40000X2.00000*%
%ADD25R,0.75000X1.00000*%
%ADD26R,0.45000X0.45000*%
%ADD27R,0.95000X0.80000*%
%ADD28R,0.50000X0.35000*%
%ADD29R,0.95000X0.85000*%
%TA.AperFunction,ConnectorPad*%
%ADD30R,1.90000X1.50000*%
%ADD31R,1.35000X0.40000*%
%TA.AperFunction,SMDPad,CuDef*%
G04:AMPARAMS|DCode=32|XSize=1.9mm|YSize=3.2mm|CornerRadius=0mm|HoleSize=0mm|Usage=FLASHONLY|Rotation=180.000|XOffset=0mm|YOffset=0mm|HoleType=Round|Shape=Octagon|*
%AMOCTAGOND32*
4,1,8,0.47500,-1.60000,-0.47500,-1.60000,-0.95000,-1.12500,-0.95000,1.12500,-0.47500,1.60000,0.47500,1.60000,0.95000,1.12500,0.95000,-1.12500,0.47500,-1.60000,0.0*
%
%ADD32OCTAGOND32*%

%ADD33R,0.60000X1.40000*%
%ADD34R,0.60000X1.80000*%
%ADD35R,0.80000X1.70000*%
%ADD36R,0.85000X0.70000*%
%ADD37R,1.40000X0.60000*%
%ADD38R,1.80000X0.60000*%
%ADD39R,0.50000X0.40000*%
%ADD41R,2.70000X2.60000*%
%ADD42R,0.35000X0.85000*%
%ADD43R,0.80000X0.35000*%
%ADD44R,1.25000X1.10000*%
%ADD45R,1.90000X2.40000*%
%TA.AperFunction,NonConductor*%
%ADD108R,1.75001X1.00000*%
%TA.AperFunction,SMDPad,CuDef*%
%ADD109R,0.50000X0.60000*%
G36*
X3944999Y789999D02*
X3754999D01*
Y919999D01*
X3944999D01*
Y789999D01*
D02*
G37*
G36*
X3895001Y740001D02*
X3804999Y739999D01*
Y789999D01*
X3895001D01*
Y740001D01*
D02*
G37*
G36*
X3894999Y1510000D02*
X3804996D01*
Y1559997D01*
X3894999Y1559999D01*
Y1510000D01*
D02*
G37*
G36*
X3944999Y1379999D02*
X3754999D01*
Y1509999D01*
X3944999D01*
Y1379999D01*
D02*
G37*
D10*
X3904088Y1533288D02*
G03*
X3902712Y1533780I-9090J-23289D01*
G01*
X3904088Y1533288D02*
G03*
X3902712Y1533780I-9090J-23289D01*
G01*
X3902711Y1533780D02*
G03*
X3897286Y1534894I-7712J-23781D01*
G01*
X3902711Y1533780D02*
G03*
X3897286Y1534894I-7712J-23781D01*
G01*
X3902711Y1533780D02*
G03*
X3897286Y1534894I-7712J-23781D01*
G01*
X3902711Y1533780D02*
G03*
X3897286Y1534894I-7712J-23781D01*
G01*
X3897278Y1534895D02*
G03*
X3895000Y1534999I-2279J-24896D01*
G01*
X3897278Y1534895D02*
G03*
X3895000Y1534999I-2279J-24896D01*
G01*
X3897278Y1534895D02*
G03*
X3895000Y1534999I-2279J-24896D01*
G01*
X3897278Y1534895D02*
G03*
X3895000Y1534999I-2279J-24896D01*
G01*
X3917910Y1520002D02*
G03*
X3904094Y1533286I-22912J-10002D01*
G01*
X3917910Y1520002D02*
G03*
X3904094Y1533286I-22912J-10002D01*
G01*
X3904088Y1533288D02*
G03*
X3902712Y1533780I-9090J-23289D01*
G01*
X3904088Y1533288D02*
G03*
X3902712Y1533780I-9090J-23289D01*
G01*
X3917910Y1520002D02*
G03*
X3904094Y1533286I-22912J-10002D01*
G01*
X3917910Y1520002D02*
G03*
X3904094Y1533286I-22912J-10002D01*
G01*
X3895000Y1534999D02*
G03*
X3877548Y1527901I-1J-25000D01*
G01*
X3895000Y1534999D02*
G03*
X3877548Y1527901I-1J-25000D01*
G01*
X3895000Y1534999D02*
G03*
X3877548Y1527901I-1J-25000D01*
G01*
X3895000Y1534999D02*
G03*
X3877548Y1527901I-1J-25000D01*
G01*
X3919892Y1512307D02*
G03*
X3919891Y1512317I-24893J-2307D01*
G01*
X3919894Y1512287D02*
G03*
X3919892Y1512306I-24895J-2288D01*
G01*
Y1512307D02*
G03*
X3919891Y1512317I-24893J-2307D01*
G01*
X3919894Y1512287D02*
G03*
X3919892Y1512306I-24895J-2288D01*
G01*
X3919894Y1512287D02*
G03*
X3919892Y1512306I-24895J-2288D01*
G01*
Y1512307D02*
G03*
X3919891Y1512317I-24893J-2307D01*
G01*
X3919892Y1512307D02*
G03*
X3919891Y1512317I-24893J-2307D01*
G01*
X3919999Y1510002D02*
G03*
X3919960Y1511377I-25000J-2D01*
G01*
X3919999Y1510002D02*
G03*
X3919960Y1511377I-25000J-2D01*
G01*
X3919960Y1511389D02*
G03*
X3919894Y1512280I-24961J-1389D01*
G01*
X3919960Y1511379D02*
G03*
X3919960Y1511389I-24962J-1380D01*
G01*
X3919999Y1510002D02*
G03*
X3919960Y1511377I-25000J-2D01*
G01*
X3919999Y1510002D02*
G03*
X3919960Y1511377I-25000J-2D01*
G01*
X3919960Y1511389D02*
G03*
X3919894Y1512280I-24961J-1389D01*
G01*
X3919960Y1511379D02*
G03*
X3919960Y1511389I-24962J-1380D01*
G01*
X3919894Y1512287D02*
G03*
X3919892Y1512306I-24895J-2288D01*
G01*
X3919960Y1511389D02*
G03*
X3919894Y1512280I-24961J-1389D01*
G01*
X3919960Y1511379D02*
G03*
X3919960Y1511389I-24962J-1380D01*
G01*
D02*
G03*
X3919894Y1512280I-24961J-1389D01*
G01*
X3919960Y1511379D02*
G03*
X3919960Y1511389I-24962J-1380D01*
G01*
X3918838Y1517526D02*
G03*
X3918286Y1519092I-23840J-7527D01*
G01*
X3918838Y1517526D02*
G03*
X3918286Y1519092I-23840J-7527D01*
G01*
X3918838Y1517526D02*
G03*
X3918286Y1519092I-23840J-7527D01*
G01*
X3919261Y1516027D02*
G03*
X3918840Y1517521I-24263J-6027D01*
G01*
X3919261Y1516027D02*
G03*
X3918840Y1517521I-24263J-6027D01*
G01*
X3918285Y1519095D02*
G03*
X3917910Y1520002I-23287J-9095D01*
G01*
X3918285Y1519095D02*
G03*
X3917910Y1520002I-23287J-9095D01*
G01*
X3918285Y1519095D02*
G03*
X3917910Y1520002I-23287J-9095D01*
G01*
X3918838Y1517526D02*
G03*
X3918286Y1519092I-23840J-7527D01*
G01*
X3918285Y1519095D02*
G03*
X3917910Y1520002I-23287J-9095D01*
G01*
X3919261Y1516027D02*
G03*
X3918840Y1517521I-24263J-6027D01*
G01*
X3919999Y1509991D02*
G03*
X3919999Y1509999I-25000J8D01*
G01*
X3918181Y1500642D02*
G03*
X3919999Y1509991I-23183J9357D01*
G01*
X3919261Y1516027D02*
G03*
X3918840Y1517521I-24263J-6027D01*
G01*
X3919999Y1509991D02*
G03*
X3919999Y1509999I-25000J8D01*
G01*
X3918181Y1500642D02*
G03*
X3919999Y1509991I-23183J9357D01*
G01*
X3918180Y1500638D02*
G03*
X3918181Y1500642I-23181J9362D01*
G01*
X3918180Y1500638D02*
G03*
X3918181Y1500642I-23181J9362D01*
G01*
X3917910Y1499997D02*
G03*
X3918178Y1500634I-22912J10002D01*
G01*
X3917910Y1499997D02*
G03*
X3918178Y1500634I-22912J10002D01*
G01*
X3917910Y1499997D02*
G03*
X3918178Y1500634I-22912J10002D01*
G01*
X3917910Y1499997D02*
G03*
X3918178Y1500634I-22912J10002D01*
G01*
X3879841Y809880D02*
G03*
X3873333Y802473I15157J-19881D01*
G01*
X3879841Y809880D02*
G03*
X3873333Y802473I15157J-19881D01*
G01*
X3827911Y1499998D02*
G03*
X3829279Y1504043I-22912J10001D01*
G01*
X3782086Y1499998D02*
G03*
X3827911Y1499998I22912J10001D01*
G01*
X3829998Y1510000D02*
G03*
X3782086Y1499998I-25000J-0D01*
G01*
X3827911D02*
G03*
X3829279Y1504043I-22912J10001D01*
G01*
X3782086Y1499998D02*
G03*
X3827911Y1499998I22912J10001D01*
G01*
X3829998Y1510000D02*
G03*
X3782086Y1499998I-25000J-0D01*
G01*
X3873333Y802473D02*
G03*
X3870580Y795358I21665J-12474D01*
G01*
X3873333Y802473D02*
G03*
X3870580Y795358I21665J-12474D01*
G01*
X3870579Y795355D02*
G03*
X3870087Y792100I24420J-5356D01*
G01*
X3870579Y795355D02*
G03*
X3870087Y792100I24420J-5356D01*
G01*
Y792100D02*
G03*
X3870001Y790318I24912J-2100D01*
G01*
Y790317D02*
G03*
X3869999Y790134I24998J-318D01*
G01*
X3870001Y790317D02*
G03*
X3869999Y790134I24998J-318D01*
G01*
D02*
G03*
X3869999Y790098I25000J-135D01*
G01*
Y790098D02*
G03*
X3869999Y790093I25000J-99D01*
G01*
Y790134D02*
G03*
X3869999Y790098I25000J-135D01*
G01*
Y790098D02*
G03*
X3869999Y790093I25000J-99D01*
G01*
Y790093D02*
G03*
X3869999Y790088I25000J-94D01*
G01*
Y790093D02*
G03*
X3869999Y790088I25000J-94D01*
G01*
D02*
G03*
X3869999Y790048I25000J-89D01*
G01*
X3869999Y790088D02*
G03*
X3869999Y790048I25000J-89D01*
G01*
X3874987Y1524984D02*
G03*
X3874974Y1524966I20012J-14984D01*
G01*
X3874987Y1524984D02*
G03*
X3874974Y1524966I20012J-14984D01*
G01*
X3919891Y1512318D02*
G03*
X3919269Y1515995I-24892J-2319D01*
G01*
X3919891Y1512318D02*
G03*
X3919269Y1515995I-24892J-2319D01*
G01*
X3919891Y1512318D02*
G03*
X3919269Y1515995I-24892J-2319D01*
G01*
X3919891Y1512318D02*
G03*
X3919269Y1515995I-24892J-2319D01*
G01*
X3872091Y1499988D02*
G03*
X3917910Y1499996I22908J10011D01*
G01*
X3874973Y1524965D02*
G03*
X3872086Y1499998I20026J-14966D01*
G01*
X3872091Y1499988D02*
G03*
X3917910Y1499996I22908J10011D01*
G01*
X3872091Y1499988D02*
G03*
X3917910Y1499996I22908J10011D01*
G01*
X3872091Y1499988D02*
G03*
X3917910Y1499996I22908J10011D01*
G01*
X3874973Y1524965D02*
G03*
X3872086Y1499999I20026J-14966D01*
G01*
X3872087Y1499997D02*
G03*
X3872090Y1499990I22912J10003D01*
G01*
X3872087Y1499997D02*
G03*
X3872090Y1499990I22912J10003D01*
G01*
X3869999Y790046D02*
G03*
X3869999Y790002I25000J-47D01*
G01*
Y790046D02*
G03*
X3869999Y790002I25000J-47D01*
G01*
X3906058Y812420D02*
G03*
X3904070Y813296I-11059J-22421D01*
G01*
X3906058Y812420D02*
G03*
X3904070Y813296I-11059J-22421D01*
G01*
X3916300Y803086D02*
G03*
X3906058Y812420I-21301J-13087D01*
G01*
X3919999Y790002D02*
G03*
X3916300Y803086I-25000J-3D01*
G01*
X3884064Y812481D02*
G03*
X3882525Y811665I10935J-22482D01*
G01*
X3904066Y813297D02*
G03*
X3884067Y812482I-9067J-23298D01*
G01*
X3919999Y790002D02*
G03*
X3916300Y803086I-25000J-3D01*
G01*
D02*
G03*
X3906058Y812420I-21301J-13087D01*
G01*
X3884064Y812481D02*
G03*
X3882525Y811665I10935J-22482D01*
G01*
X3882523Y811664D02*
G03*
X3879841Y809880I12476J-21664D01*
G01*
X3882523Y811664D02*
G03*
X3879841Y809880I12476J-21664D01*
G01*
X3919264Y1516017D02*
G03*
X3919262Y1516022I-24265J-6017D01*
G01*
X3919264Y1516017D02*
G03*
X3919262Y1516022I-24265J-6017D01*
G01*
X3904066Y813297D02*
G03*
X3884068Y812483I-9067J-23298D01*
G01*
X3869999Y790000D02*
G03*
X3919999Y789999I25000J-1D01*
G01*
X3919267Y1516001D02*
G03*
X3919266Y1516006I-24269J-6002D01*
G01*
X3919267Y1516001D02*
G03*
X3919266Y1516006I-24269J-6002D01*
G01*
X3877538Y1527892D02*
G03*
X3877529Y1527883I17460J-17892D01*
G01*
X3877538Y1527892D02*
G03*
X3877529Y1527883I17460J-17892D01*
G01*
D02*
G03*
X3877525Y1527879I17470J-17883D01*
G01*
X3877529Y1527883D02*
G03*
X3877525Y1527879I17470J-17883D01*
G01*
X3877524Y1527878D02*
G03*
X3876896Y1527241I17475J-17878D01*
G01*
X3877524Y1527878D02*
G03*
X3876896Y1527241I17475J-17878D01*
G01*
X3876895Y1527241D02*
G03*
X3876884Y1527229I18103J-17242D01*
G01*
X3876895Y1527241D02*
G03*
X3876884Y1527229I18103J-17242D01*
G01*
X3877548Y1527901D02*
G03*
X3877544Y1527898I17451J-17902D01*
G01*
X3877548Y1527901D02*
G03*
X3877544Y1527898I17451J-17902D01*
G01*
X3829999Y790001D02*
G03*
X3805002Y764999I-25000J-2D01*
G01*
X3821750Y771441D02*
G03*
X3829999Y789995I-16751J18558D01*
G01*
X3821750Y771441D02*
G03*
X3829999Y789995I-16751J18558D01*
G01*
X3821746Y771438D02*
G03*
X3821749Y771441I-16747J18562D01*
G01*
X3821746Y771438D02*
G03*
X3821749Y771441I-16747J18562D01*
G01*
X3805003Y764999D02*
G03*
X3821746Y771438I-5J25000D01*
G01*
X3805003Y764999D02*
G03*
X3821746Y771438I-5J25000D01*
G01*
X3877542Y1527895D02*
G03*
X3877539Y1527892I17456J-17896D01*
G01*
X3877542Y1527895D02*
G03*
X3877539Y1527892I17456J-17896D01*
G01*
X3876879Y1527224D02*
G03*
X3874988Y1524986I18119J-17225D01*
G01*
X3876879Y1527224D02*
G03*
X3874988Y1524986I18119J-17225D01*
G01*
X3829279Y1504043D02*
G03*
X3829998Y1509999I-24280J5956D01*
G01*
X3829999Y789995D02*
G03*
X3829999Y789999I-25000J5D01*
G01*
Y790001D02*
G03*
X3805001Y764999I-25000J-2D01*
G01*
D11*
X1452500Y3289052D02*
D03*
X1517499D02*
D03*
X1582502D02*
D03*
X1647501D02*
D03*
Y3010947D02*
D03*
X1582502D02*
D03*
X1517499D02*
D03*
D12*
X1452500D02*
D03*
D14*
X1127329Y3299999D02*
D03*
X1272673D02*
D03*
D15*
X904998Y2500001D02*
D03*
X1095000D02*
D03*
D16*
X899999Y1900002D02*
D03*
Y1739627D02*
D03*
D17*
X1350001Y490003D02*
D03*
Y410003D02*
D03*
Y690002D02*
D03*
Y610002D02*
D03*
X2950003Y1510001D02*
D03*
Y1590000D02*
D03*
X450003Y1890000D02*
D03*
Y1810000D02*
D03*
X2649998Y1279998D02*
D03*
Y1199999D02*
D03*
X3139852Y1399998D02*
D03*
Y1319998D02*
D03*
X2800000Y1279998D02*
D03*
Y1199999D02*
D03*
X3150002Y1579998D02*
D03*
Y1499998D02*
D03*
X2949998Y1400008D02*
D03*
Y1320009D02*
D03*
D18*
X144999Y3150002D02*
D03*
Y3050003D02*
D03*
Y2949998D02*
D03*
Y2849998D02*
D03*
Y2749998D02*
D03*
Y2649998D02*
D03*
Y1450001D02*
D03*
Y1550000D02*
D03*
Y2149999D02*
D03*
Y2049999D02*
D03*
Y1950000D02*
D03*
Y1850000D02*
D03*
Y1750000D02*
D03*
Y1650000D02*
D03*
Y899999D02*
D03*
Y799999D02*
D03*
Y700000D02*
D03*
Y600000D02*
D03*
Y500000D02*
D03*
Y400000D02*
D03*
Y3599999D02*
D03*
Y3699999D02*
D03*
Y3799998D02*
D03*
D19*
X-242498Y2520001D02*
D03*
Y3280000D02*
D03*
Y1319998D02*
D03*
Y2280002D02*
D03*
Y269998D02*
D03*
Y1030001D02*
D03*
Y3930001D02*
D03*
Y3470002D02*
D03*
D20*
X2700001Y1000004D02*
D03*
D21*
X2449999Y1450001D02*
D03*
X2399996D02*
D03*
X2349999D02*
D03*
X2299996D02*
D03*
X2249999D02*
D03*
X2199997D02*
D03*
X2149999D02*
D03*
X2099997D02*
D03*
X2049999D02*
D03*
X1999997D02*
D03*
X1950000D02*
D03*
X1899997D02*
D03*
X1850000D02*
D03*
X1799997D02*
D03*
X1750000D02*
D03*
X1699998D02*
D03*
Y2588246D02*
D03*
X1750000D02*
D03*
X1799997D02*
D03*
X1850000D02*
D03*
X1899997D02*
D03*
X1950000D02*
D03*
X1999997D02*
D03*
X2049999D02*
D03*
X2099997D02*
D03*
X2149999D02*
D03*
X2199997D02*
D03*
X2249999D02*
D03*
X2299996D02*
D03*
X2349999D02*
D03*
X2399996D02*
D03*
X2449999D02*
D03*
D22*
X1505876Y1644123D02*
D03*
Y1694120D02*
D03*
Y1744122D02*
D03*
Y1794120D02*
D03*
Y1844122D02*
D03*
Y1894125D02*
D03*
Y1944122D02*
D03*
Y1994125D02*
D03*
Y2044122D02*
D03*
Y2094124D02*
D03*
Y2144122D02*
D03*
Y2194124D02*
D03*
Y2244121D02*
D03*
Y2294124D02*
D03*
Y2344121D02*
D03*
Y2394124D02*
D03*
X2644121D02*
D03*
Y2344121D02*
D03*
Y2294124D02*
D03*
Y2244121D02*
D03*
Y2194124D02*
D03*
Y2144122D02*
D03*
Y2094124D02*
D03*
Y2044122D02*
D03*
Y1994125D02*
D03*
Y1944122D02*
D03*
Y1894125D02*
D03*
Y1844122D02*
D03*
Y1794120D02*
D03*
Y1744122D02*
D03*
Y1694120D02*
D03*
D23*
Y1644123D02*
D03*
D24*
X2049999Y1050001D02*
D03*
X2169999D02*
D03*
X2289999D02*
D03*
D25*
X3275001Y3150002D02*
D03*
X3425003D02*
D03*
X3268981Y2950003D02*
D03*
X3418978D02*
D03*
X3275001Y2750003D02*
D03*
X3424998D02*
D03*
X3249997Y2549998D02*
D03*
X3399999D02*
D03*
D26*
Y1039999D02*
D03*
Y959999D02*
D03*
Y1190001D02*
D03*
Y1110001D02*
D03*
D27*
X1099999Y1514999D02*
D03*
Y1385002D02*
D03*
X2950003Y2035003D02*
D03*
Y2165000D02*
D03*
X3100005Y2034998D02*
D03*
Y2165000D02*
D03*
D28*
X1730005Y697500D02*
D03*
Y632502D02*
D03*
Y567503D02*
D03*
Y502504D02*
D03*
X1570000D02*
D03*
Y567503D02*
D03*
Y632502D02*
D03*
Y697500D02*
D03*
D29*
X1150001Y465004D02*
D03*
D30*
X3850001Y1250001D02*
D03*
Y1050001D02*
D03*
D31*
X3579999Y1279998D02*
D03*
Y1215000D02*
D03*
Y1150001D02*
D03*
Y1085003D02*
D03*
Y1019999D02*
D03*
D32*
X999999Y3050003D02*
D03*
D33*
X1150001Y2780006D02*
D03*
X850002D02*
D03*
D34*
X999999Y2800006D02*
D03*
D35*
X3940003Y2300001D02*
D03*
X3600004D02*
D03*
X3920003Y1950000D02*
D03*
X3580004D02*
D03*
D36*
X3050003Y3150002D02*
D03*
D37*
X2010000D02*
D03*
Y2849998D02*
D03*
D38*
X2029999Y3000000D02*
D03*
D39*
X588900Y1726180D02*
D03*
Y1646180D02*
D03*
X600000Y2100002D02*
D03*
Y2020002D02*
D03*
X850459Y555941D02*
D03*
Y475941D02*
D03*
D41*
X750002Y975000D02*
D03*
D42*
X625004Y1172501D02*
D03*
X675001D02*
D03*
X725003D02*
D03*
X775001D02*
D03*
X825003D02*
D03*
X875006D02*
D03*
Y777500D02*
D03*
X825003D02*
D03*
X775001D02*
D03*
X725003D02*
D03*
X675001D02*
D03*
X625004D02*
D03*
D43*
X950002Y1099999D02*
D03*
Y1050001D02*
D03*
Y999999D02*
D03*
Y949997D02*
D03*
Y899999D02*
D03*
Y849997D02*
D03*
X550002D02*
D03*
Y899999D02*
D03*
Y949997D02*
D03*
Y999999D02*
D03*
Y1050001D02*
D03*
Y1099999D02*
D03*
D44*
X3582503Y3150002D02*
D03*
X3817504D02*
D03*
X3582503Y2549998D02*
D03*
X3817504D02*
D03*
X3582503Y2749998D02*
D03*
X3817504D02*
D03*
X3582503Y2950003D02*
D03*
X3817504D02*
D03*
D45*
X2416963Y682885D02*
D03*
X2006962D02*
D03*
D108*
X1549998Y3150000D02*
D03*
D109*
X3100000Y500000D02*
D03*
X3195001Y700000D02*
D03*
X3004999D02*
D03*
%TF.MD5,e66570899f3e317e39adff0f2702cd00*%
M02*
