%TF.GenerationSoftware,Altium Limited,Altium Designer,23.4.1 (23)*%
G04 Layer_Color=0*
%FSLAX45Y45*%
%MOMM*%
%TF.SameCoordinates,23A6EF31-BC3A-4AE1-B3CE-C8081D6B100D*%
%TF.FilePolarity,Positive*%
%TF.FileFunction,Plated,1,6,PTH,Drill*%
%TF.Part,Single*%
G01*
G75*
%TA.AperFunction,ComponentDrill*%
%ADD119C,0.85000*%
%ADD120O,1.30000X0.60000*%
%TA.AperFunction,OtherDrill,Pad Free-8 (25mm,38mm)*%
%ADD121C,0.76200*%
%TA.AperFunction,OtherDrill,Pad Free-31 (9mm,-0.5mm)*%
%ADD122C,0.76200*%
%TA.AperFunction,OtherDrill,Pad Free-34 (11.5mm,-0.5mm)*%
%ADD123C,0.76200*%
%TA.AperFunction,OtherDrill,Pad Free-55 (32.5mm,35.5mm)*%
%ADD124C,0.76200*%
%TA.AperFunction,OtherDrill,Pad Free-54 (30mm,35.5mm)*%
%ADD125C,0.76200*%
%TA.AperFunction,OtherDrill,Pad Free-53 (27.5mm,35.5mm)*%
%ADD126C,0.76200*%
%TA.AperFunction,OtherDrill,Pad Free-51 (25mm,35.5mm)*%
%ADD127C,0.76200*%
%TA.AperFunction,OtherDrill,Pad Free-50 (22.5mm,35.5mm)*%
%ADD128C,0.76200*%
%TA.AperFunction,OtherDrill,Pad Free-48 (20mm,35.5mm)*%
%ADD129C,0.76200*%
%TA.AperFunction,OtherDrill,Pad Free-46 (17.5mm,35.5mm)*%
%ADD130C,0.76200*%
%TA.AperFunction,OtherDrill,Pad Free-44 (15mm,35.5mm)*%
%ADD131C,0.76200*%
%TA.AperFunction,OtherDrill,Pad Free-43 (12.5mm,35.5mm)*%
%ADD132C,0.76200*%
%TA.AperFunction,OtherDrill,Pad Free-40 (16.5mm,-0.5mm)*%
%ADD133C,0.76200*%
%TA.AperFunction,OtherDrill,Pad Free-32 (34mm,-0.5mm)*%
%ADD134C,0.76200*%
%TA.AperFunction,OtherDrill,Pad Free-42 (31.5mm,-0.5mm)*%
%ADD135C,0.76200*%
%TA.AperFunction,OtherDrill,Pad Free-41 (29mm,-0.5mm)*%
%ADD136C,0.76200*%
%TA.AperFunction,OtherDrill,Pad Free-39 (26.5mm,-0.5mm)*%
%ADD137C,0.76200*%
%TA.AperFunction,OtherDrill,Pad Free-38 (24mm,-0.5mm)*%
%ADD138C,0.76200*%
%TA.AperFunction,OtherDrill,Pad Free-37 (21.5mm,-0.5mm)*%
%ADD139C,0.76200*%
%TA.AperFunction,OtherDrill,Pad Free-36 (6.5mm,-0.5mm)*%
%ADD140C,0.76200*%
%TA.AperFunction,OtherDrill,Pad Free-35 (19mm,-0.5mm)*%
%ADD141C,0.76200*%
%TA.AperFunction,OtherDrill,Pad Free-33 (14mm,-0.5mm)*%
%ADD142C,0.76200*%
%TA.AperFunction,OtherDrill,Pad Free-17 (7.5mm,38mm)*%
%ADD143C,0.76200*%
%TA.AperFunction,OtherDrill,Pad Free-16 (10mm,38mm)*%
%ADD144C,0.76200*%
%TA.AperFunction,OtherDrill,Pad Free-15 (12.5mm,38mm)*%
%ADD145C,0.76200*%
%TA.AperFunction,OtherDrill,Pad Free-14 (15mm,38mm)*%
%ADD146C,0.76200*%
%TA.AperFunction,OtherDrill,Pad Free-13 (10mm,35.5mm)*%
%ADD147C,0.76200*%
%TA.AperFunction,OtherDrill,Pad Free-12 (7.5mm,35.5mm)*%
%ADD148C,0.76200*%
%TA.AperFunction,OtherDrill,Pad Free-11 (20mm,38mm)*%
%ADD149C,0.76200*%
%TA.AperFunction,OtherDrill,Pad Free-10 (17.5mm,38mm)*%
%ADD150C,0.76200*%
%TA.AperFunction,OtherDrill,Pad Free-9 (22.5mm,38mm)*%
%ADD151C,0.76200*%
%TA.AperFunction,OtherDrill,Pad Free-7 (27.5mm,38mm)*%
%ADD152C,0.76200*%
%TA.AperFunction,OtherDrill,Pad Free-6 (30mm,38mm)*%
%ADD153C,0.76200*%
%TA.AperFunction,OtherDrill,Pad Free-5 (32.5mm,38mm)*%
%ADD154C,0.76200*%
%TA.AperFunction,OtherDrill,Pad Free-4 (4.5mm,35.5mm)*%
%ADD155C,4.00000*%
%TA.AperFunction,OtherDrill,Pad Free-3 (35.5mm,35.5mm)*%
%ADD156C,4.00000*%
%TA.AperFunction,OtherDrill,Pad Free-2 (36.5mm,3.5mm)*%
%ADD157C,4.00000*%
%TA.AperFunction,OtherDrill,Pad Free-1 (4.5mm,4.5mm)*%
%ADD158C,4.00000*%
%TA.AperFunction,ViaDrill,NotFilled*%
%ADD159C,0.20000*%
D119*
X3829996Y1749995D02*
D03*
Y1249996D02*
D03*
D120*
X4099998Y1849995D02*
D03*
Y1149996D02*
D03*
D121*
X2500001Y3799998D02*
D03*
D122*
X899999Y-50001D02*
D03*
D123*
X1150001D02*
D03*
D124*
X3250002Y3550002D02*
D03*
D125*
X3000000D02*
D03*
D126*
X2749998D02*
D03*
D127*
X2500001D02*
D03*
D128*
X2249999D02*
D03*
D129*
X2000002D02*
D03*
D130*
X1750000D02*
D03*
D131*
X1499998D02*
D03*
D132*
X1250001D02*
D03*
D133*
X1650000Y-50001D02*
D03*
D134*
X3399999D02*
D03*
D135*
X3150002D02*
D03*
D136*
X2900000D02*
D03*
D137*
X2649998D02*
D03*
D138*
X2400001D02*
D03*
D139*
X2149999D02*
D03*
D140*
X650002D02*
D03*
D141*
X1900002D02*
D03*
D142*
X1399998D02*
D03*
D143*
X750002Y3799998D02*
D03*
D144*
X999999D02*
D03*
D145*
X1250001D02*
D03*
D146*
X1499998D02*
D03*
D147*
X999999Y3550002D02*
D03*
D148*
X750002D02*
D03*
D149*
X2000002Y3799998D02*
D03*
D150*
X1750000D02*
D03*
D151*
X2249999D02*
D03*
D152*
X2749998D02*
D03*
D153*
X3000000D02*
D03*
D154*
X3250002D02*
D03*
D155*
X450003Y3550002D02*
D03*
D156*
X3550002D02*
D03*
D157*
X3650001Y349998D02*
D03*
D158*
X450003Y450003D02*
D03*
D159*
X167260Y1550000D02*
D03*
X322200Y1549020D02*
D03*
X990220Y1731900D02*
D03*
X3230500Y644780D02*
D03*
X1844417Y2168780D02*
D03*
X832080Y1368680D02*
D03*
X1718174Y2184020D02*
D03*
X1497661Y1246760D02*
D03*
X1185800Y2460880D02*
D03*
X1808100Y461900D02*
D03*
X3530662Y790002D02*
D03*
X3136520Y596520D02*
D03*
X3845180Y1104520D02*
D03*
X3540659Y799999D02*
D03*
X3686638Y1190001D02*
D03*
X3630758D02*
D03*
X829682Y2706742D02*
D03*
X992760Y2542160D02*
D03*
X992501Y2543923D02*
D03*
X1828420Y3103500D02*
D03*
X3230500Y3243200D02*
D03*
X3096063Y3131257D02*
D03*
X2984120Y3243200D02*
D03*
X1541400Y1703960D02*
D03*
X2732660Y1160400D02*
D03*
X774320Y1973200D02*
D03*
X1777620Y398400D02*
D03*
X1239140Y2544700D02*
D03*
X96140Y281560D02*
D03*
X2130680Y484760D02*
D03*
X929260Y431420D02*
D03*
X1681100Y2559940D02*
D03*
X370460Y1866037D02*
D03*
X3103500Y3027300D02*
D03*
X3245740Y1110001D02*
D03*
X3108580Y3022220D02*
D03*
X384654Y850002D02*
D03*
X3261386Y500000D02*
D03*
X2034160Y2102740D02*
D03*
X748920Y624181D02*
D03*
X1663320Y1897000D02*
D03*
X3136520Y2498980D02*
D03*
X424999Y1402142D02*
D03*
X732019Y2344116D02*
D03*
X1829477Y398400D02*
D03*
X1730630Y2281810D02*
D03*
X215845Y719319D02*
D03*
X1432180Y2044117D02*
D03*
X726060Y1872834D02*
D03*
X319660Y713360D02*
D03*
X599060Y1495680D02*
D03*
X497460Y1274700D02*
D03*
X172340Y449998D02*
D03*
X675260Y2001140D02*
D03*
X764196Y2060002D02*
D03*
X1427100Y494920D02*
D03*
X588900Y1922400D02*
D03*
X1335660Y1188340D02*
D03*
X1650620D02*
D03*
X1486912Y1344672D02*
D03*
X989814Y1732306D02*
D03*
X2054480Y1328040D02*
D03*
X1569340Y2344040D02*
D03*
X2951100Y2525132D02*
D03*
X2491360Y2595500D02*
D03*
X3172502Y2266057D02*
D03*
X1909700Y1919860D02*
D03*
X-214797Y3419202D02*
D03*
X-213740Y3469260D02*
D03*
X1909700Y3243200D02*
D03*
X3817240Y2659000D02*
D03*
X3870402Y2400702D02*
D03*
X-70205Y1650000D02*
D03*
X-214797Y1980002D02*
D03*
Y2219997D02*
D03*
X160204Y2349999D02*
D03*
X385700Y2748814D02*
D03*
X-214797Y3180000D02*
D03*
X1553790Y2561119D02*
D03*
X1041691Y3299999D02*
D03*
X-214797Y3930001D02*
D03*
X3085415Y2597283D02*
D03*
X303368Y3972180D02*
D03*
X2181480Y533020D02*
D03*
X2252600Y535560D02*
D03*
X2778319Y2194119D02*
D03*
X1483290Y1424250D02*
D03*
X2775840Y2730877D02*
D03*
X2239900Y3210180D02*
D03*
X3456560Y1819494D02*
D03*
X3316860Y2016380D02*
D03*
X1416940Y422017D02*
D03*
X2331340Y1345820D02*
D03*
X2709800Y939420D02*
D03*
X3186538Y1061340D02*
D03*
X2468500Y2924745D02*
D03*
X-94578Y2549998D02*
D03*
X1752220Y2453260D02*
D03*
X-68960Y2649998D02*
D03*
X1569340Y2496440D02*
D03*
X225680Y2883018D02*
D03*
X1145160Y2694560D02*
D03*
X2244980Y393320D02*
D03*
X2633600Y727228D02*
D03*
X1778387Y1841120D02*
D03*
X1903787Y1793617D02*
D03*
X883540Y1922400D02*
D03*
X308327Y2641510D02*
D03*
X1023240Y2265300D02*
D03*
X199838Y2749998D02*
D03*
X111380Y2044320D02*
D03*
X230714Y1750000D02*
D03*
X2547240Y2559940D02*
D03*
X2631060Y2460880D02*
D03*
X2824100Y2394119D02*
D03*
X1830960Y1731900D02*
D03*
X995300Y2336420D02*
D03*
X544531Y3198831D02*
D03*
X1782700Y3372740D02*
D03*
X1312800Y3067940D02*
D03*
X2465960Y1490600D02*
D03*
X1197042Y748920D02*
D03*
X1988440Y1419480D02*
D03*
X3317038Y1897000D02*
D03*
X1183260Y1844112D02*
D03*
X1655700Y1772540D02*
D03*
X724998Y1102498D02*
D03*
X824998D02*
D03*
X924998D02*
D03*
X724998Y1002498D02*
D03*
X824998D02*
D03*
X924998D02*
D03*
X724998Y902499D02*
D03*
X824998D02*
D03*
X924998D02*
D03*
X2989200Y2082420D02*
D03*
%TF.MD5,909078a9757e82a28c6f613b2279e76e*%
M02*
