M48
;Layer_Color=9474304
;FILE_FORMAT=4:4
METRIC,LZ
;TYPE=PLATED
T1F00S00C0.2000
T3F00S00C0.7112
T4F00S00C0.7620
T5F00S00C0.8500
T6F00S00C0.9910
T7F00S00C4.0000
;TYPE=NON_PLATED
T8F00S00C0.7500
%
T01
X0019Y00345
X002
X0021
X002Y00355
X0019
T03
X00079459Y00039459
X00076725Y00120105
X00055957Y00120621
X00067225Y00167696
X001025Y001725
X001325Y001725
X0015Y0018
X001725Y001675
X0016508Y00214964
X00183501Y00213636
X00176224Y0024284
X00135Y0024
X000975Y002375
X00234991Y00188069
X00297644Y00190239
X00278178Y00215961
X002825Y0024
X00300199Y00239827
X0027814Y0011961
X0029726Y00067974
X00285889Y0005384
X002175Y0006
X001975
X00144456Y00068039
X003125Y0008
X0033178Y00077488
X00332425Y000598
X0031564Y00051615
X0033Y00095107
X00344553Y00125
X00304267Y0011851
X00320986Y00157774
X0036195Y00168742
X0040189Y001775
X004175Y0019
X0042714Y00204901
X0043461Y00174894
X0045215Y00189643
X004875Y002025
X00485Y0023
X00466594Y00230983
X0046Y001425
X00462484Y00122516
X00475Y0011
X004975Y001225
X005Y001425
X00454982Y00062656
X0045067Y0004549
X00444529Y00028707
X00361816Y00069317
X00339743Y00217618
X00346371Y00272556
X00328639Y00270992
X00311717Y00291837
X00315575Y00314617
X003125Y00335
X00315Y00355
X003475
X003925Y003425
X004425Y0031
X00461017Y00311896
X00464873Y00294621
X00460015Y00275075
X0046386Y00257797
X00505Y0026
X004975Y002775
X00453964Y00378149
X00463908Y00401079
X002875Y003791
X00295933Y0035786
X0027Y00355
X00242471Y00310097
X0021719Y0029658
X00198199Y00294622
X00180776Y0029774
X00166994Y0028326
X00141834Y00286835
X0014Y00265
X00155241Y00251977
X00182403Y00261372
X00189967Y00320411
X00165147Y00317068
X0014036Y00317487
X00125Y003375
X001025
X0007Y0035
X000875Y00255
X00113097Y0024946
X0026Y0025
X001675Y003775
T04
X00135Y000275
X0016
X00185
X0021
X00235
X0026
X00285
X003075
X00335
X0036Y000275
X00385
X0041
X00385Y004
X0036
X0036Y00425
X00385Y00425
X00334999Y0042408
X00335Y004
X0031
X0031Y00424999
X00285
Y004
X0026
Y00424999
X00235Y00425
X0021Y00424999
Y004
X00185
X00185Y00425
X0016Y00424999
Y004
X00135Y004
Y00425
X00235Y004
T05
X000725Y001925
Y002425
T06
X00038862Y00039878
X00028702Y00090678
X00049022
T07
X0011Y0007
X00415
Y00375
X0011
T08
X0004Y00155
M30
