M48
;Layer_Color=9474304
;FILE_FORMAT=4:4
METRIC,LZ
;TYPE=PLATED
T1F00S00C0.2000
T3F00S00C0.7112
T4F00S00C0.7620
T5F00S00C0.8500
T6F00S00C4.0000
;TYPE=NON_PLATED
T7F00S00C0.7500
T8F00S00C0.9910
%
T01
X0019Y00345
X002
X0021
X002Y00355
X0019
T03
X0008Y0004
X000775Y0012
X00055957Y00120621
X00067225Y00167696
X001025Y001725
X001325Y001725
X0015Y0018
X001725Y001675
X0018273Y0021364
X0016514Y0021701
X00176224Y0024284
X00135Y0024
X000975Y002375
X00234991Y00188069
X0029758Y00193134
X00278537Y00215951
X002825Y0024
X00300199Y00239827
X00278155Y0011961
X00295308Y00068004
X00285889Y00053018
X002175Y0006
X001975
X0014Y00065
X003125Y0008
X00331632Y00077482
X00332425Y000598
X00315598Y0004939
X0033Y0009536
X00345Y00125
X00304267Y0011851
X003225Y001575
X0036195Y00168742
X0040189Y001775
X004175Y0019
X0042563Y00207635
X0043461Y00174961
X0045215Y00189643
X004875Y002025
X00485Y0023
X00465
X0046Y001425
X00462484Y00122516
X00475Y0011
X004975Y001225
X005Y001425
X00455Y00062656
X00450671Y00045494
X00444529Y00028707
X00361816Y00069317
X00339707Y00218378
X0035211Y00267544
X00328639Y00270992
X00311717Y0029
X00315006Y00312541
X003125Y00335
X00315007Y00352522
X003475Y00355
X003925Y003425
X0044751Y00300652
X00464873Y00294621
X00461092Y00312002
X00460015Y00275075
X0046386Y00257797
X00505Y0026
X004975Y002775
X00469362Y00390345
X00453869Y00378869
X002875Y003791
X00296647Y00358406
X002675Y00355
X00246815Y00307523
X002175Y002975
X00198199Y00294622
X00180776Y0029774
X00166994Y0028326
X001425Y002875
X00139866Y00266141
X00155241Y00251977
X00180586Y0026162
X00189355Y00319517
X00165Y0032
X00146425Y00309503
X00125Y003375
X001025
X0007Y0035
X000875Y00255
X00113873Y0025011
X0026Y0025
X001675Y003775
T04
X00135Y000275
X0016
X00185
X0021
X00235
X0026
X00285
X003075
X00335
X0036Y000275
X00385
X0041
X00385Y004
X0036
X0036Y00425
X00385Y00425
X00334999Y0042408
X00335Y004
X0031
X0031Y00424999
X00285
Y004
X0026
Y00424999
X00235Y00425
X0021Y00424999
Y004
X00185
X00185Y00425
X0016Y00424999
Y004
X00135Y004
Y00425
X00235Y004
T05
X000725Y001925
Y002425
T06
X0011Y0007
X00415
Y00375
X0011
T07
X0004Y00155
T08
X0004Y000396
X0005016Y000904
X0002984
M30
