M48
INCH
T01C0.0191
T02C0.0354
T03C0.0394
T04C0.0984
%
T01
X+018534Y+013301
X+019034Y+013301
X+019659Y+013301
X+020221Y+013301
X+020721Y+013301
X+020721Y+013864
X+022303Y+013842
X+022839Y+013842
X+023406Y+013842
X+023427Y+013212
X+022866Y+013217
X+022303Y+013217
X+024052Y+013212
X+024634Y+013212
X+022846Y+009302
X+022346Y+009302
X+022346Y+008802
X+022846Y+008802
X+023846Y+008802
X+024346Y+008802
X+020677Y+009331
X+020677Y+009956
X+020677Y+010518
X+020021Y+008707
X+019396Y+008707
X+018708Y+008707
X+018114Y+008706
X+017061Y+009703
X+015748Y+009703
X+016177Y+011331
X+017436Y+011765
X+016998Y+012939
X+017123Y+013515
X+017972Y+013301
X+017972Y+013801
X+015811Y+013703
X+014436Y+013140
X+013936Y+013203
X+013936Y+013828
X+013998Y+016452
X+014498Y+016452
X+014998Y+016515
X+015498Y+016515
X+015998Y+016515
X+016520Y+016564
X+013499Y+016452
X+012874Y+016515
X+012374Y+016515
X+011999Y+016452
X+011436Y+016515
X+010999Y+016452
X+010561Y+016452
X+010186Y+016515
X+009686Y+016515
X+009249Y+016515
X+008811Y+016515
X+008374Y+016515
X+007874Y+016515
X+007499Y+016577
X+006785Y+016551
X+006812Y+016265
X+006660Y+015614
X+006437Y+014953
X+005228Y+015478
X+004812Y+015515
X+004937Y+016140
X+004999Y+016515
X+005312Y+016702
X+005999Y+016702
X+006562Y+013453
X+006562Y+012828
X+008499Y+012765
X+008499Y+014015
X+009061Y+010578
X+008488Y+010217
X+007499Y+009328
X+006963Y+008730
X+006124Y+008203
X+005687Y+006828
X+005124Y+006828
X+004687Y+006766
X+004624Y+006203
X+005249Y+006203
X+005749Y+006203
X+006535Y+004802
X+006973Y+004802
X+007535Y+004802
X+008035Y+004802
X+008473Y+004802
X+008973Y+004802
X+010285Y+004927
X+010785Y+004927
X+011285Y+004927
X+011785Y+004927
X+012285Y+004927
X+012785Y+004927
X+013285Y+004927
X+013785Y+004927
X+014285Y+004927
X+014785Y+004927
X+015513Y+005156
X+016097Y+005177
X+016722Y+005177
X+017347Y+005177
X+018159Y+005302
X+018159Y+004802
X+018159Y+004302
X+020846Y+004427
X+020846Y+004990
X+020846Y+005552
X+022346Y+004927
X+022310Y+004454
X+022873Y+004391
X+022909Y+004927
X+023471Y+004865
X+023497Y+004391
X+014498Y+008289
X+011561Y+008641
X+010443Y+008248
X+010150Y+007792
X+008687Y+008703
X+009817Y+009778
X+011802Y+010542
X+007062Y+010578
X+006124Y+004329
X+005499Y+004329
X+004812Y+004329
T02
X+004999Y+008828
X+004999Y+009828
X+004999Y+010828
X+004999Y+011828
X+004999Y+012828
X+004999Y+013828
T03
X+023284Y+008864
X+020784Y+008864
T04
X+005812Y+015827
X+005499Y+005329
T00
M30
