G04 DipTrace 3.0.0.2*
G04 silbasmp6531BIG.GTO*
%MOIN*%
G04 #@! TF.FileFunction,Legend,Top*
G04 #@! TF.Part,Single*
%ADD10C,0.009843*%
%ADD29C,0.015742*%
%ADD33C,0.015401*%
%ADD82C,0.018527*%
%ADD83C,0.004632*%
%FSLAX26Y26*%
G04*
G70*
G90*
G75*
G01*
G04 TopSilk*
%LPD*%
X879060Y967123D2*
D10*
Y1018265D1*
X1997138Y874627D2*
Y898244D1*
X1985342Y886436D2*
X2008974D1*
X2028163D2*
G02X2028163Y886436I175198J0D01*
G01*
X669396Y1006539D2*
Y1057681D1*
X1494159Y787530D2*
X1443017D1*
X659455Y1042711D2*
X608314D1*
X675328Y751367D2*
X651769D1*
X675328Y814297D2*
X651769D1*
X667914D2*
Y751367D1*
X675363Y814297D2*
Y751367D1*
X549940Y832822D2*
X449940D1*
Y1132822D1*
X549940D2*
X449940D1*
X549940Y832822D2*
Y1132822D1*
X449940Y1132790D1*
Y1432790D1*
X549940D2*
X449940D1*
X549940Y1132790D2*
Y1432790D1*
X769136Y963285D2*
X737652D1*
X769136Y864852D2*
X737652D1*
X2040948Y1119771D2*
Y942600D1*
X1828346Y1119771D2*
Y942600D1*
D29*
X2040948Y1147315D3*
X2187207Y1030696D2*
D10*
Y1207867D1*
X2399808Y1030696D2*
Y1207867D1*
D29*
X2187207Y1003152D3*
X2043583Y653705D2*
D10*
Y476535D1*
X1830982Y653705D2*
Y476535D1*
D29*
X2043583Y681250D3*
X2168459Y574494D2*
D10*
Y751665D1*
X2381060Y574494D2*
Y751665D1*
D29*
X2168459Y546950D3*
X2043583Y1566110D2*
D10*
Y1388939D1*
X1830982Y1566110D2*
Y1388939D1*
D29*
X2043583Y1593654D3*
X2168459Y1474399D2*
D10*
Y1651570D1*
X2381060Y1474399D2*
Y1651570D1*
D29*
X2168459Y1446855D3*
X813608Y1430987D2*
D10*
Y1084530D1*
X923822Y1430987D2*
Y1084530D1*
X813608D2*
X923822D1*
X813608Y1430987D2*
X849042D1*
X888388D2*
X923822D1*
X849042D2*
G03X888388Y1430987I19673J-6D01*
G01*
D33*
X860485Y797453D3*
X865748Y851519D2*
D10*
X983856D1*
X865748Y883009D2*
X983856D1*
Y851519D2*
Y883009D1*
X865748Y851519D2*
Y883009D1*
X1398649Y937508D2*
Y1323295D1*
X1272677Y937508D2*
Y1323295D1*
X1398649D2*
X1272677D1*
X1398649Y937508D2*
X1355351D1*
X1315974D2*
X1272677D1*
X1355351D2*
G03X1315974Y937508I-19689J-52D01*
G01*
X721235Y600112D2*
D82*
Y496780D1*
X669635Y548380D2*
X772967D1*
X740729Y1622683D2*
X849765D1*
X1131123Y1568640D2*
D83*
Y1538496D1*
X1144056D1*
X1148367Y1539955D1*
X1149793Y1541381D1*
X1151219Y1544233D1*
Y1548544D1*
X1149793Y1551429D1*
X1148367Y1552855D1*
X1144056Y1554281D1*
X1148367Y1555740D1*
X1149793Y1557166D1*
X1151219Y1560018D1*
Y1562903D1*
X1149793Y1565755D1*
X1148367Y1567214D1*
X1144056Y1568640D1*
X1131123D1*
Y1554281D2*
X1144056D1*
X1160483Y1568640D2*
Y1538496D1*
X1177693D1*
X1186957Y1568640D2*
Y1538496D1*
Y1552855D2*
X1191268Y1557166D1*
X1194153Y1558592D1*
X1198464D1*
X1201316Y1557166D1*
X1202742Y1552855D1*
Y1538496D1*
X1212006Y1549970D2*
X1229216D1*
Y1552855D1*
X1227791Y1555740D1*
X1226365Y1557166D1*
X1223479Y1558592D1*
X1219168D1*
X1216317Y1557166D1*
X1213431Y1554281D1*
X1212006Y1549970D1*
Y1547118D1*
X1213431Y1542807D1*
X1216317Y1539955D1*
X1219168Y1538496D1*
X1223479D1*
X1226365Y1539955D1*
X1229216Y1542807D1*
X1238480Y1568640D2*
Y1538496D1*
X1247744Y1568640D2*
X1249170Y1567214D1*
X1250629Y1568640D1*
X1249170Y1570099D1*
X1247744Y1568640D1*
X1249170Y1558592D2*
Y1538496D1*
X1259892Y1533521D2*
X1287151D1*
X1312200Y1554281D2*
X1310774Y1557166D1*
X1306463Y1558592D1*
X1302152D1*
X1297841Y1557166D1*
X1296415Y1554281D1*
X1297841Y1551429D1*
X1300726Y1549970D1*
X1307889Y1548544D1*
X1310774Y1547118D1*
X1312200Y1544233D1*
Y1542807D1*
X1310774Y1539955D1*
X1306463Y1538496D1*
X1302152D1*
X1297841Y1539955D1*
X1296415Y1542807D1*
X1352083Y1565722D2*
X1350624Y1567181D1*
X1352083Y1568607D1*
X1353509Y1567181D1*
Y1564296D1*
X1352083Y1561444D1*
X1350624Y1559985D1*
X1357820Y1565722D2*
X1356361Y1567181D1*
X1357820Y1568607D1*
X1359246Y1567181D1*
Y1564296D1*
X1357820Y1561444D1*
X1356361Y1559985D1*
X1368509Y1568640D2*
X1369935Y1567214D1*
X1371394Y1568640D1*
X1369935Y1570099D1*
X1368509Y1568640D1*
X1369935Y1558592D2*
Y1538496D1*
X1382117Y1565722D2*
X1380658Y1567181D1*
X1382117Y1568607D1*
X1383543Y1567181D1*
Y1564296D1*
X1382117Y1561444D1*
X1380658Y1559985D1*
X1387854Y1565722D2*
X1386395Y1567181D1*
X1387854Y1568607D1*
X1389280Y1567181D1*
Y1564296D1*
X1387854Y1561444D1*
X1386395Y1559985D1*
X586522Y1506010D2*
X585096Y1508862D1*
X582211Y1511747D1*
X579359Y1513173D1*
X573622D1*
X570737Y1511747D1*
X567885Y1508862D1*
X566426Y1506010D1*
X565000Y1501699D1*
Y1494503D1*
X566426Y1490225D1*
X567885Y1487340D1*
X570737Y1484488D1*
X573622Y1483029D1*
X579359D1*
X582211Y1484488D1*
X585096Y1487340D1*
X586522Y1490225D1*
Y1494503D1*
X579359D1*
X615881Y1513173D2*
Y1483029D1*
X595785Y1513173D1*
Y1483029D1*
X625145Y1513173D2*
Y1483029D1*
X635193D1*
X639504Y1484488D1*
X642389Y1487340D1*
X643815Y1490225D1*
X645241Y1494503D1*
Y1501699D1*
X643815Y1506010D1*
X642389Y1508862D1*
X639504Y1511747D1*
X635193Y1513173D1*
X625145D1*
X565351Y1294624D2*
Y1268791D1*
X552451Y1281691D2*
X578284D1*
X590433Y1296763D2*
X606184D1*
X597596Y1285289D1*
X601907D1*
X604759Y1283863D1*
X606184Y1282437D1*
X607644Y1278126D1*
Y1275274D1*
X606184Y1270963D1*
X603333Y1268078D1*
X599022Y1266652D1*
X594711D1*
X590433Y1268078D1*
X589007Y1269537D1*
X587548Y1272389D1*
X616907Y1286748D2*
X625529Y1266652D1*
X634118Y1286748D1*
X681164Y1296796D2*
X678279Y1295370D1*
X675427Y1292485D1*
X673968Y1289633D1*
X672542Y1285322D1*
Y1278126D1*
X673968Y1273848D1*
X675427Y1270963D1*
X678279Y1268111D1*
X681164Y1266652D1*
X686901D1*
X689753Y1268111D1*
X692638Y1270963D1*
X694064Y1273848D1*
X695490Y1278126D1*
Y1285322D1*
X694064Y1289633D1*
X692638Y1292485D1*
X689753Y1295370D1*
X686901Y1296796D1*
X681164D1*
X704754Y1286748D2*
Y1272389D1*
X706180Y1268111D1*
X709065Y1266652D1*
X713376D1*
X716228Y1268111D1*
X720539Y1272389D1*
Y1286748D2*
Y1266652D1*
X734113Y1296796D2*
Y1272389D1*
X735539Y1268111D1*
X738424Y1266652D1*
X741276D1*
X729802Y1286748D2*
X739850D1*
X573401Y1201224D2*
X586334D1*
X590612Y1202649D1*
X592071Y1204109D1*
X593497Y1206961D1*
Y1211272D1*
X592071Y1214123D1*
X590612Y1215583D1*
X586334Y1217009D1*
X573401D1*
Y1186865D1*
X602761Y1217009D2*
X609957Y1186865D1*
X617120Y1217009D1*
X624283Y1186865D1*
X631479Y1217009D1*
X663690Y1186865D2*
Y1217009D1*
X652216Y1186865D1*
X640742Y1217009D1*
Y1186865D1*
X1168619Y1484112D2*
X1181552D1*
X1185830Y1485538D1*
X1187289Y1486997D1*
X1188715Y1489849D1*
Y1494160D1*
X1187289Y1497012D1*
X1185830Y1498471D1*
X1181552Y1499897D1*
X1168619D1*
Y1469753D1*
X1199405Y1472638D2*
X1197979Y1471179D1*
X1199405Y1469753D1*
X1200864Y1471179D1*
X1199405Y1472638D1*
X1259384Y1495586D2*
X1256532Y1498471D1*
X1252221Y1499897D1*
X1246484D1*
X1242173Y1498471D1*
X1239288Y1495586D1*
Y1492734D1*
X1240747Y1489849D1*
X1242173Y1488423D1*
X1245025Y1486997D1*
X1253647Y1484112D1*
X1256532Y1482686D1*
X1257958Y1481227D1*
X1259384Y1478375D1*
Y1474064D1*
X1256532Y1471212D1*
X1252221Y1469753D1*
X1246484D1*
X1242173Y1471212D1*
X1239288Y1474064D1*
X1268647Y1489849D2*
Y1469753D1*
Y1484112D2*
X1272958Y1488423D1*
X1275843Y1489849D1*
X1280121D1*
X1283006Y1488423D1*
X1284432Y1484112D1*
Y1469753D1*
Y1484112D2*
X1288743Y1488423D1*
X1291628Y1489849D1*
X1295906D1*
X1298791Y1488423D1*
X1300250Y1484112D1*
Y1469753D1*
X1309514Y1499897D2*
X1310940Y1498471D1*
X1312399Y1499897D1*
X1310940Y1501356D1*
X1309514Y1499897D1*
X1310940Y1489849D2*
Y1469753D1*
X1325974Y1499897D2*
Y1475490D1*
X1327400Y1471212D1*
X1330285Y1469753D1*
X1333137D1*
X1321663Y1489849D2*
X1331711D1*
X1358185Y1485538D2*
X1356759Y1488423D1*
X1352448Y1489849D1*
X1348137D1*
X1343826Y1488423D1*
X1342400Y1485538D1*
X1343826Y1482686D1*
X1346711Y1481227D1*
X1353874Y1479801D1*
X1356759Y1478375D1*
X1358185Y1475490D1*
Y1474064D1*
X1356759Y1471212D1*
X1352448Y1469753D1*
X1348137D1*
X1343826Y1471212D1*
X1342400Y1474064D1*
X1056131Y1616774D2*
X1069031D1*
X1073342Y1618233D1*
X1074801Y1619659D1*
X1076227Y1622511D1*
Y1625396D1*
X1074801Y1628248D1*
X1073342Y1629707D1*
X1069031Y1631133D1*
X1056131D1*
Y1600989D1*
X1066179Y1616774D2*
X1076227Y1600989D1*
X1104127Y1631133D2*
X1085490D1*
Y1600989D1*
X1104127D1*
X1085490Y1616774D2*
X1096964D1*
X1113391Y1631133D2*
X1124865Y1600989D1*
X1136339Y1631133D1*
X1174763Y1625363D2*
X1177648Y1626822D1*
X1181959Y1631100D1*
Y1600989D1*
X1192648Y1603874D2*
X1191223Y1602415D1*
X1192648Y1600989D1*
X1194108Y1602415D1*
X1192648Y1603874D1*
X1203371Y1625363D2*
X1206256Y1626822D1*
X1210567Y1631100D1*
Y1600989D1*
X1248991Y1631133D2*
Y1600989D1*
X1259039D1*
X1263350Y1602448D1*
X1266235Y1605300D1*
X1267661Y1608185D1*
X1269087Y1612463D1*
Y1619659D1*
X1267661Y1623970D1*
X1266235Y1626822D1*
X1263350Y1629707D1*
X1259039Y1631133D1*
X1248991D1*
X1278351Y1612463D2*
X1295562D1*
Y1615348D1*
X1294136Y1618233D1*
X1292710Y1619659D1*
X1289825Y1621085D1*
X1285514D1*
X1282662Y1619659D1*
X1279777Y1616774D1*
X1278351Y1612463D1*
Y1609611D1*
X1279777Y1605300D1*
X1282662Y1602448D1*
X1285514Y1600989D1*
X1289825D1*
X1292710Y1602448D1*
X1295562Y1605300D1*
X1322069Y1616774D2*
X1319184Y1619659D1*
X1316299Y1621085D1*
X1312021D1*
X1309136Y1619659D1*
X1306284Y1616774D1*
X1304825Y1612463D1*
Y1609611D1*
X1306284Y1605300D1*
X1309136Y1602448D1*
X1312021Y1600989D1*
X1316299D1*
X1319184Y1602448D1*
X1322069Y1605300D1*
X1361953Y1623937D2*
Y1625363D1*
X1363379Y1628248D1*
X1364805Y1629674D1*
X1367690Y1631100D1*
X1373427D1*
X1376279Y1629674D1*
X1377705Y1628248D1*
X1379164Y1625363D1*
Y1622511D1*
X1377705Y1619626D1*
X1374853Y1615348D1*
X1360494Y1600989D1*
X1380590D1*
X1398475Y1631100D2*
X1394164Y1629674D1*
X1391279Y1625363D1*
X1389853Y1618200D1*
Y1613889D1*
X1391279Y1606726D1*
X1394164Y1602415D1*
X1398475Y1600989D1*
X1401327D1*
X1405638Y1602415D1*
X1408490Y1606726D1*
X1409949Y1613889D1*
Y1618200D1*
X1408490Y1625363D1*
X1405638Y1629674D1*
X1401327Y1631100D1*
X1398475D1*
X1408490Y1625363D2*
X1391279Y1606726D1*
X1419213Y1625363D2*
X1422098Y1626822D1*
X1426409Y1631100D1*
Y1600989D1*
X1441409D2*
X1455768Y1631100D1*
X1435672D1*
X579677Y1004338D2*
X576792Y1007224D1*
X573907Y1008649D1*
X569629D1*
X566744Y1007224D1*
X563892Y1004338D1*
X562433Y1000027D1*
Y997176D1*
X563892Y992865D1*
X566744Y990013D1*
X569629Y988553D1*
X573907D1*
X576792Y990013D1*
X579677Y992865D1*
X588940Y1018697D2*
Y988553D1*
X603299Y1008649D2*
X588940Y994290D1*
X594677Y1000027D2*
X604725Y988553D1*
X585893Y906209D2*
Y876065D1*
Y891850D2*
X583041Y894735D1*
X580156Y896161D1*
X575845D1*
X572993Y894735D1*
X570108Y891850D1*
X568682Y887539D1*
Y884687D1*
X570108Y880376D1*
X572993Y877524D1*
X575845Y876065D1*
X580156D1*
X583041Y877524D1*
X585893Y880376D1*
M02*
