G04 DipTrace 3.0.0.2*
G04 silbasmp6531BIG.GTL*
%MOIN*%
G04 #@! TF.FileFunction,Copper,L1,Top*
G04 #@! TF.Part,Single*
G04 #@! TA.AperFunction,Conductor*
%ADD10C,0.009843*%
%ADD14C,0.012992*%
%ADD15C,0.019685*%
G04 #@! TA.AperFunction,CopperBalancing*
%ADD16C,0.025*%
%ADD17R,0.03937X0.043307*%
%ADD18R,0.051181X0.059055*%
G04 #@! TA.AperFunction,ComponentPad*
%ADD19C,0.062992*%
%ADD20R,0.062992X0.062992*%
%ADD21R,0.059055X0.051181*%
%ADD22R,0.043307X0.03937*%
%ADD23R,0.062992X0.070866*%
G04 #@! TA.AperFunction,ComponentPad*
%ADD24R,0.059055X0.059055*%
%ADD25C,0.059055*%
%ADD26R,0.045276X0.106299*%
G04 #@! TA.AperFunction,ComponentPad*
%ADD27R,0.19685X0.19685*%
%ADD28R,0.19685X0.177165*%
%ADD30R,0.027559X0.045276*%
%ADD31R,0.185039X0.181102*%
%ADD32R,0.070866X0.01378*%
%ADD34R,0.023622X0.043307*%
%ADD35R,0.070866X0.015748*%
%ADD36R,0.098425X0.216535*%
G04 #@! TA.AperFunction,ViaPad*
%ADD37C,0.04*%
%FSLAX26Y26*%
G04*
G70*
G90*
G75*
G01*
G04 Top*
%LPD*%
X975010Y1245268D2*
D14*
X1221202D1*
X1221493Y1245559D1*
X975010Y1170268D2*
X1220013D1*
X1221493Y1168787D1*
X975010Y1270268D2*
X1220612D1*
X1221493Y1271150D1*
X975010Y1195268D2*
X1220604D1*
X1221493Y1194378D1*
X975010Y1295268D2*
X1220013D1*
X1221486Y1296740D1*
X975010Y1220268D2*
X1221194D1*
X1221493Y1219969D1*
X1637320Y676593D2*
D10*
X1624822D1*
Y989060D1*
X1606073Y1007808D1*
X1543580D1*
X1510554Y1040835D1*
X1449840D1*
Y1143197D2*
Y1145294D1*
X1537331D1*
X1581076Y1189039D1*
X1618572D1*
Y1190333D1*
X1449840Y1245559D2*
X1531357D1*
X1612323Y1326525D1*
Y1389018D1*
X1624822Y1401517D1*
Y1501507D1*
X1612323D1*
X2524727Y545357D2*
Y557856D1*
X2484575Y598008D1*
X2140861D1*
X2109177Y629692D1*
X1690471D1*
X1670685Y649478D1*
Y980693D1*
X1624822Y1026556D1*
X1556079D1*
X1516210Y1066425D1*
X1449840D1*
Y1168787D2*
Y1170291D1*
X1537331D1*
X1599824Y1232785D1*
X1643570D1*
X1651862Y1224492D1*
Y1160613D1*
X1717176Y1095299D1*
X2131018D1*
X2166079Y1060239D1*
X2428908D1*
X2466089Y1023058D1*
X2430987Y1476509D2*
X2421377D1*
X2396379Y1501507D1*
X2124769D1*
X2118520Y1495257D1*
Y1307777D1*
X2104668Y1293925D1*
X1699814D1*
X1581076Y1370270D2*
Y1345273D1*
X1531081Y1295278D1*
X1512333D1*
X1487336Y1270281D1*
X1450709D1*
X1449840Y1271150D1*
Y1117606D2*
Y1114047D1*
X1568577D1*
D14*
X1587325Y1132795D1*
X1616759D1*
X1618572Y1130982D1*
X1743559Y1176541D2*
X1906042D1*
X1912291Y1182790D1*
Y1139035D1*
X1909646Y1136390D1*
X1619831Y1130982D2*
X1618572D1*
X499940Y882822D2*
X481192D1*
X581181Y982811D1*
Y1176541D1*
X624908Y1220268D1*
X762412D1*
X924801Y814079D2*
D10*
Y741114D1*
X897776Y714089D1*
X608430Y782832D2*
X612428D1*
X643675Y751585D1*
Y789081D1*
X612428Y820328D1*
X995223Y992694D2*
X981672D1*
Y977797D1*
X785559Y1032110D2*
Y993458D1*
X749915Y957814D1*
Y932816D1*
X924801Y814079D2*
Y839172D1*
X899898Y864075D1*
X874899D1*
X868651Y870323D1*
X762412Y1295268D2*
X706178D1*
X656173Y1345273D1*
X1449840Y1296740D2*
X1460877D1*
X1443591Y1314026D1*
X1221493Y1040835D2*
Y1054159D1*
X1180192D1*
X1221493Y1066425D2*
X1192458D1*
X1180192Y1054159D1*
X1468588Y828890D2*
X1449840D1*
X624927Y939066D2*
D14*
Y914068D1*
X599929Y889071D1*
Y832827D1*
X612428Y820328D1*
X1221493Y1066425D2*
X1271686D1*
X1335663Y1130402D1*
X1221493Y1040835D2*
X1246096D1*
X1335663Y1130402D1*
X1148013Y1051472D2*
X1180192D1*
Y1054159D1*
X1285543Y876572D2*
Y989654D1*
X1221493D1*
X1862281Y670324D2*
X1710518D1*
X1704249Y676593D1*
X499940Y982822D2*
Y957814D1*
X556184Y1014058D1*
Y1207787D1*
X593664Y1245268D1*
X762412D1*
X2524727Y478428D2*
X2472919D1*
X2393491Y557856D1*
X2349781D1*
X2349761Y557875D1*
X848795Y1021693D2*
Y1081693D1*
X874999Y1107896D1*
Y1127622D1*
X887399Y1140022D1*
Y1289029D1*
X831155Y1345273D1*
X762417D1*
X762412Y1345268D1*
X1449840Y1015244D2*
X1504898D1*
X1537331Y982811D1*
X1560514D1*
X1574827Y968499D1*
X1912281Y670324D2*
Y751596D1*
X1868546Y795331D1*
X1774806D1*
X1737310Y832827D1*
Y939066D1*
X1706063Y970312D1*
X1574827Y968499D2*
Y970312D1*
X633885Y1080092D2*
X624927D1*
Y1005995D1*
X1221493Y1092016D2*
X1121308D1*
X1109144Y1079852D1*
Y848556D1*
X1137373Y820328D1*
X1257924D1*
X1264173Y814079D1*
X1679252Y1501507D2*
X1731060D1*
X1793554Y1564000D1*
X1843552D1*
X1862281Y1582728D1*
X2430987Y1409580D2*
X2428615D1*
X2380415Y1457781D1*
X2349761D1*
X499940Y1282790D2*
D15*
Y1264031D1*
X694298Y914068D2*
Y1015652D1*
X710756Y1032110D1*
X762412Y1270268D2*
D14*
Y1270281D1*
X668672D1*
X656173Y1282780D1*
X710756Y1032110D2*
D15*
Y1053215D1*
X706168Y1057803D1*
X1120844Y726493D2*
D14*
Y730618D1*
X1078492Y772970D1*
X1015022D1*
Y779219D1*
X696306Y872959D2*
Y912060D1*
X694298Y914068D1*
X497304Y1276530D2*
D15*
Y1280155D1*
X499940Y1282790D1*
X1221493Y1117606D2*
D14*
X1106541D1*
X1051299Y1062365D1*
X1067916D1*
X1064068D1*
X1084406Y1042028D1*
Y762932D1*
X1120844Y726493D1*
X633885Y1154895D2*
X671570D1*
X699919Y1126546D1*
Y1057803D1*
D15*
X706168D1*
X1912281Y1582728D2*
D10*
Y1570239D1*
X1918541Y1576499D1*
Y1626493D1*
X1681066D1*
X1645895Y1591323D1*
Y1334898D1*
X1649819D1*
X1449840Y1219969D2*
X1537013D1*
X1649819Y1332774D1*
Y1334898D1*
X1712312Y1351522D2*
D14*
X1643570D1*
Y1341147D1*
X1649819Y1334898D1*
X799908Y772458D2*
X729041D1*
X718667Y782832D1*
X799908Y772458D2*
Y914068D1*
X812408D1*
X887399Y920378D2*
X818718D1*
X812408Y914068D1*
X964705Y714089D2*
X1041510D1*
X1053915Y726493D1*
X964705Y714089D2*
Y811576D1*
X962202Y814079D1*
X920420Y992694D2*
X924801D1*
Y920378D1*
Y895415D1*
X956140Y864075D1*
X1042482D1*
X1042831Y863724D1*
X1221493Y1015244D2*
X1177051D1*
X1162370Y1000563D1*
Y857824D1*
X1156121Y864073D1*
X1044345Y824825D2*
Y863724D1*
X1042831D1*
X1148013Y984543D2*
Y986207D1*
X1162370Y1000563D1*
X887399Y814079D2*
X849904Y776584D1*
Y720339D1*
X835094Y705529D1*
X799908D1*
X1042831Y930654D2*
X962202D1*
Y920378D1*
X1685501Y1190333D2*
Y1178354D1*
X1743559Y1120297D1*
X1856049D1*
X1859646Y1123894D1*
Y1136390D1*
X666858Y1420265D2*
X749913D1*
X768661Y1439013D1*
X868651D1*
X937396Y1370268D1*
X975010D1*
X499940Y1182790D2*
Y1189039D1*
X599929Y1289029D1*
Y1420265D1*
X906147Y1057803D2*
D10*
Y1126546D1*
X912396Y1120297D1*
Y1295278D1*
X837407Y1370268D1*
X762412D1*
Y1395268D2*
D14*
X799908D1*
Y1401517D1*
X849903D1*
X762412Y1320268D2*
X806165D1*
X849903Y1276530D1*
X2466089Y956129D2*
X2426458D1*
X2368509Y1014077D1*
X1218614Y876572D2*
Y961184D1*
X1221493Y964063D1*
X1468588Y903693D2*
D10*
Y945315D1*
X1449840Y964063D1*
X1331102Y814079D2*
D14*
Y850386D1*
X1444780Y964063D1*
X1449840D1*
X1000987Y1062365D2*
X1004449D1*
X1087378Y1145294D1*
X1219396D1*
X1221493Y1143197D1*
X1449840Y989654D2*
D10*
X1492992D1*
X1574827Y907819D1*
Y901570D1*
X1449840Y1092016D2*
D14*
X1590609D1*
X1618572Y1064052D1*
X1649819Y1267969D2*
D10*
X1610010D1*
X1536420Y1194378D1*
X1449840D1*
D37*
X1699814Y1293925D3*
X1581076Y1370270D3*
X1743559Y1176541D3*
X1617727Y1133085D3*
X612428Y820328D3*
X981672Y977797D3*
X749915Y932816D3*
X868651Y870323D3*
X656173Y1345273D3*
X1443591Y1314026D3*
X1180192Y1054159D3*
X1449840Y828890D3*
X848795Y1021693D3*
X1706063Y970312D3*
X1574827D3*
X656173Y1282780D3*
D3*
X706168Y1057803D3*
X656173Y1282780D3*
X1015022Y779219D3*
X696306Y872959D3*
X1712312Y1351522D3*
X1156121Y864073D3*
X1044345Y824825D3*
X906147Y1057803D3*
X849903Y1401517D3*
Y1276530D3*
X1853412Y1330138D3*
X1903406D3*
X1797168Y1380134D3*
Y1330138D3*
X1965899D3*
X2022143D3*
X2072139Y1386382D3*
Y1330138D3*
X2067665Y1051812D3*
X512438Y682843D3*
X749913Y1657740D3*
X787409Y1651491D3*
X2283891Y1384175D3*
X2230348Y1321669D3*
X2286605D3*
X2342655Y1321203D3*
X2405154D3*
X2463420Y1321184D3*
X837404Y1651491D3*
X881150D3*
X924895D3*
X968640D3*
X1028451Y492726D3*
X2340585Y1384175D3*
X2230348D3*
X1078451Y492726D3*
X2067665Y995563D3*
Y933063D3*
X2084636Y442731D3*
X1128451Y492726D3*
X1178451D3*
X1228450D3*
X1278450D3*
X1328450D3*
X1378451D3*
X1811417Y870562D3*
X2002067Y870711D3*
X1939567D3*
X1870818Y870710D3*
X2234622Y930180D3*
Y880181D3*
X2284622Y880180D3*
X2349745Y439118D3*
X2384622Y880180D3*
X2434621D3*
X1018635Y1651491D3*
X1428451Y492726D3*
X1478451D3*
X1056131Y1645241D3*
X1099877D3*
X1143622Y1651491D3*
X1199866Y1645241D3*
X1237362Y1651491D3*
X2284622Y930180D3*
X2084636Y555219D3*
Y498975D3*
X1287357Y1651491D3*
X1349850Y1645241D3*
X1815916Y480227D3*
Y430234D3*
X1734675Y517724D3*
X1815916Y530223D3*
X1672180Y517724D3*
X1609686D3*
X1551286Y515562D3*
X1399845Y1645241D3*
X1449840D3*
X1499835Y1651491D3*
X1549829D3*
X1599824D3*
X1651987Y1656367D3*
X599929Y1670239D3*
X2347110Y486478D3*
X2290866Y492727D3*
X499940Y1651491D3*
X493690Y1613995D3*
X481192Y1551501D3*
X681171Y1626493D3*
X481192Y432869D3*
X549934D3*
X612428D3*
X2231008Y445367D3*
X2287252Y439118D3*
X2234622Y492727D3*
X568682Y682843D3*
X574932Y620349D3*
X468693Y676593D3*
X697283Y480228D3*
X524937Y620349D3*
X753528Y480228D3*
X803521D3*
X653538D3*
X847268D3*
X897261D3*
X462444Y620349D3*
X522751Y1547818D3*
X531186Y1670239D3*
X666035Y1561364D3*
X643675Y1495257D3*
X678535Y1655105D3*
X1393596Y1320276D3*
Y1382769D3*
X1814184Y1489151D2*
D16*
X2082963D1*
X1786156Y1464282D2*
X2083109D1*
X1782640Y1439413D2*
X2083207D1*
X1782640Y1414545D2*
X2083353D1*
X1782640Y1389676D2*
X2083451D1*
X1782640Y1364807D2*
X2083597D1*
X1782640Y1339938D2*
X2083696D1*
X2085348Y1513810D2*
X1834702Y1509638D1*
X1780119Y1461121D1*
X1780117Y1319581D1*
X2086318D1*
X2085346Y1513803D1*
X1793420Y1245411D2*
X2603483D1*
X1793420Y1220542D2*
X2603483D1*
X1793420Y1195673D2*
X2603483D1*
X1793420Y1170804D2*
X1816862D1*
X1902429D2*
X2603483D1*
X1902429Y1145936D2*
X2603483D1*
X2180895Y1121067D2*
X2603483D1*
X2180895Y1096198D2*
X2603483D1*
X1831874Y1185520D2*
X1899917D1*
Y1130100D1*
X2166860Y1130123D1*
X2170663Y1129210D1*
X2173997Y1127167D1*
X2176537Y1124193D1*
X2178034Y1120580D1*
X2178379Y1117661D1*
Y1092320D1*
X2191079Y1091652D1*
X2431373Y1091555D1*
X2438615Y1090114D1*
X2445322Y1087024D1*
X2451121Y1082451D1*
X2451349Y1082203D1*
X2451777Y1081795D1*
X2605967Y1082802D1*
Y1270155D1*
X2384604Y1267644D1*
X2120980D1*
X2115728Y1265403D1*
X2108486Y1263962D1*
X1881021Y1263865D1*
X1790933D1*
X1790920Y1153248D1*
X1819390Y1153285D1*
X1819374Y1185520D1*
X1831874D1*
X1795349Y780323D2*
X2590983D1*
X1796667Y755454D2*
X2590983D1*
X1797937Y730585D2*
X2590983D1*
X1799206Y705717D2*
X1819499D1*
X1905066D2*
X2590983D1*
X1905066Y680848D2*
X2590983D1*
X2141003Y655979D2*
X2590983D1*
X2161121Y631110D2*
X2304949D1*
X1834509Y719454D2*
X1902552D1*
Y661105D1*
X2111642Y661008D1*
X2118885Y659567D1*
X2121558Y658549D1*
X2124804Y657846D1*
X2133937Y657501D1*
X2137550Y656004D1*
X2140524Y653465D1*
X2159339Y630220D1*
X2593469Y632849D1*
X2593295Y801755D1*
X2334610Y805192D1*
X1791596D1*
X1796833Y703302D1*
X1821993Y703312D1*
X1822009Y719454D1*
X1834509D1*
X1804722Y1670366D2*
X2597231D1*
X1806333Y1645497D2*
X2597231D1*
X1807944Y1620629D2*
X1819545D1*
X1905063D2*
X2597231D1*
X1905063Y1595760D2*
X2597231D1*
X1905063Y1570891D2*
X2597231D1*
X2174643Y1546022D2*
X2597231D1*
X1834509Y1631858D2*
X1902552D1*
Y1559446D1*
X2161794Y1554928D1*
X2165492Y1553656D1*
X2168617Y1551304D1*
X2170862Y1548102D1*
X2172008Y1544362D1*
X2172130Y1532900D1*
X2398844Y1532823D1*
X2404093Y1531945D1*
X2422052Y1531647D1*
X2599718Y1532755D1*
Y1695235D1*
X1800577D1*
X1806987Y1597007D1*
X1822021Y1596988D1*
X1822009Y1631858D1*
X1834509D1*
X2152927Y1449003D2*
X2307009D1*
X2479685D2*
X2493696D1*
X2153415Y1424134D2*
X2307009D1*
X2479685D2*
X2493077D1*
X2153903Y1399265D2*
X2382302D1*
X2479685D2*
X2492461D1*
X2154392Y1374396D2*
X2382302D1*
X2479685D2*
X2491930D1*
X2154881Y1349528D2*
X2491286D1*
X2155369Y1324659D2*
X2490701D1*
X2382953Y1408651D2*
X2309490D1*
Y1470126D1*
X2150042Y1470093D1*
X2153358Y1311416D1*
X2492958Y1312050D1*
X2496787Y1473797D1*
X2477148Y1473556D1*
X2477164Y1361434D1*
X2384810D1*
Y1406795D1*
X2193169Y1011870D2*
X2325718D1*
X2193169Y987001D2*
X2325718D1*
X2193218Y962133D2*
X2371323D1*
X2193266Y937264D2*
X2396177D1*
X2193266Y912395D2*
X2417417D1*
X2193315Y887526D2*
X2513218D1*
X2193365Y862657D2*
X2513315D1*
X2371037Y964948D2*
X2328238D1*
Y1028864D1*
X2190577Y1028825D1*
X2190877Y861440D1*
X2515828D1*
X2515243Y1027656D1*
X2512282Y1027702D1*
X2512266Y907983D1*
X2419912D1*
Y923852D1*
X2413833Y925651D1*
X2407068Y929441D1*
X2403131Y932802D1*
X2370987Y964946D1*
X2183514Y551734D2*
X2307005D1*
X2448724D2*
X2469310D1*
X2183514Y526865D2*
X2307005D1*
X2183514Y501996D2*
X2400219D1*
X2183514Y477127D2*
X2425072D1*
X2183514Y452259D2*
X2450365D1*
X2390033Y514672D2*
Y508745D1*
X2309490D1*
Y566606D1*
X2181010Y566594D1*
X2181014Y433097D1*
X2468839Y438879D1*
X2468987Y445650D1*
X2462724Y447054D1*
X2455682Y450301D1*
X2449592Y455101D1*
X2390034Y514660D1*
X2471538Y566594D2*
X2431402D1*
X2471167Y526919D1*
X2472213Y565919D1*
X1807598Y1028077D2*
X2115831D1*
X1784259Y1003209D2*
X2115831D1*
X1784160Y978340D2*
X2115831D1*
X1784063Y953471D2*
X2115831D1*
X1783965Y928602D2*
X2115831D1*
X1783867Y903735D2*
X2115831D1*
X1783770Y878866D2*
X2115831D1*
X2118370Y1052219D2*
X1836155Y1052936D1*
X1781782Y1009413D1*
X1781196Y856655D1*
X2118352Y856715D1*
Y1052272D1*
X1794571Y574096D2*
X2107636D1*
X1757949Y549227D2*
X2107979D1*
X1766251Y524358D2*
X2108272D1*
X1774503Y499490D2*
X2108613D1*
X1782803Y474621D2*
X2108955D1*
X1791104Y449752D2*
X2109297D1*
X2110014Y584429D2*
X2095444Y599000D1*
X1849743Y598965D1*
X1752793Y557168D1*
X1796310Y426635D1*
X2112157Y426621D1*
X2109992Y584495D1*
X457794Y670471D2*
X606455D1*
X457207Y645602D2*
X622374D1*
X456573Y620734D2*
X638243D1*
X456134Y595865D2*
X1827598D1*
X456475Y570996D2*
X1822911D1*
X456866Y546127D2*
X1818223D1*
X457257Y521259D2*
X1813535D1*
X457647Y496390D2*
X1808849D1*
X457990Y471521D2*
X1804161D1*
X458379Y446652D2*
X1799474D1*
X1830613Y598278D2*
X1688007Y598375D1*
X1680764Y599815D1*
X1674058Y602907D1*
X1668259Y607479D1*
X1668030Y607727D1*
X1655932Y619804D1*
X648122Y617047D1*
X644399Y618245D1*
X641228Y620534D1*
X639508Y622669D1*
X593058Y695378D1*
X455837Y695340D1*
X453559Y599156D1*
X456196Y439119D1*
X637534Y438799D1*
X1798576Y428896D1*
X1830564Y598316D1*
X462308Y1667731D2*
X687265D1*
X462308Y1642862D2*
X687265D1*
X462308Y1617993D2*
X687265D1*
X462308Y1593125D2*
X687265D1*
X462308Y1568256D2*
X687265D1*
X462308Y1543387D2*
X687265D1*
X462308Y1518518D2*
X687265D1*
X462308Y1493650D2*
X687265D1*
X462308Y1468781D2*
X687265D1*
X689777Y1466476D2*
X689510Y1687370D1*
X459827Y1692327D1*
X459867Y1467567D1*
X689797Y1466487D1*
X464945Y1664117D2*
X1741512D1*
X464945Y1639248D2*
X1646932D1*
X464945Y1614379D2*
X1622030D1*
X464945Y1589510D2*
X1611971D1*
X464945Y1564642D2*
X1611971D1*
X464945Y1539773D2*
X1561678D1*
X464945Y1514904D2*
X1561678D1*
X464945Y1490035D2*
X1561678D1*
X464945Y1465167D2*
X549276D1*
X717508D2*
X746102D1*
X891239D2*
X1561678D1*
X464945Y1440298D2*
X549276D1*
X916483D2*
X1590927D1*
X464945Y1415429D2*
X549276D1*
X1039432D2*
X1567538D1*
X464945Y1390560D2*
X549276D1*
X1039432D2*
X1536727D1*
X464945Y1365692D2*
X564462D1*
X635428D2*
X698007D1*
X1039432D2*
X1532332D1*
X464945Y1340823D2*
X564462D1*
X635428D2*
X698007D1*
X1039432D2*
X1529696D1*
X547587Y1315954D2*
X564462D1*
X1285916D2*
X1486092D1*
X1285916Y1291085D2*
X1385408D1*
X1285916Y1266217D2*
X1385408D1*
X1285916Y1241348D2*
X1385408D1*
X826835Y1216479D2*
X851912D1*
X1285916D2*
X1385408D1*
X826835Y1191610D2*
X851912D1*
X1285916D2*
X1385408D1*
X826835Y1166741D2*
X851912D1*
X1285916D2*
X1385408D1*
X826835Y1141873D2*
X842782D1*
X1285916D2*
X1385408D1*
X464945Y1117004D2*
X520711D1*
X1285916D2*
X1385408D1*
X464945Y1092135D2*
X520711D1*
X1285916D2*
X1385408D1*
X464945Y1067266D2*
X520711D1*
X765360D2*
X813339D1*
X1285916D2*
X1385408D1*
X464945Y1042398D2*
X520711D1*
X765360D2*
X804647D1*
X1285916D2*
X1385408D1*
X765360Y1017529D2*
X800008D1*
X1305643D2*
X1385408D1*
X974979Y992660D2*
X1048934D1*
X1320878D2*
X1385408D1*
X745927Y967791D2*
X760799D1*
X1321024D2*
X1385408D1*
X590408Y942923D2*
X642684D1*
X745927D2*
X760799D1*
X1321024D2*
X1374520D1*
X565555Y918054D2*
X642684D1*
X745927D2*
X760799D1*
X1336210D2*
X1349618D1*
X558475Y893185D2*
X642684D1*
X745927D2*
X760799D1*
X558475Y868316D2*
X642684D1*
X745927D2*
X760799D1*
X558475Y843448D2*
X642684D1*
X1381766D2*
X1590927D1*
X972503Y1016146D2*
Y968488D1*
X996702Y968524D1*
X996655Y978799D1*
X1051391D1*
X1051417Y1016203D1*
X972521Y1016188D1*
X762839Y1086909D2*
Y976091D1*
X743454D1*
X743428Y844735D1*
X763266Y844757D1*
X763278Y993710D1*
X811667D1*
X807370Y1000585D1*
X804579Y1007325D1*
X802875Y1014420D1*
X802303Y1021693D1*
X802875Y1028966D1*
X804579Y1036060D1*
X807370Y1042801D1*
X811182Y1049020D1*
X815814Y1054453D1*
X815908Y1084281D1*
X816219Y1086883D1*
X762862Y1086886D1*
X1593416Y853424D2*
X1528650D1*
Y909625D1*
X1524613Y913608D1*
X1524608Y851610D1*
X1412568D1*
Y885253D1*
X1379269Y851899D1*
X1379248Y832864D1*
X1593450Y832828D1*
X1593408Y853400D1*
X1318501Y922749D2*
X1333689D1*
Y899654D1*
X1387912Y953849D1*
X1387915Y1177563D1*
Y1305516D1*
X1478198D1*
X1491932Y1319165D1*
X1498072Y1323268D1*
X1505000Y1325824D1*
X1512333Y1326692D1*
X1512671Y1326678D1*
X1518046Y1326692D1*
X1539978Y1348600D1*
X1536860Y1355903D1*
X1535156Y1362997D1*
X1534584Y1370270D1*
X1535156Y1377543D1*
X1536860Y1384638D1*
X1539651Y1391378D1*
X1543463Y1397597D1*
X1548201Y1403146D1*
X1553749Y1407883D1*
X1559969Y1411696D1*
X1566709Y1414487D1*
X1573803Y1416190D1*
X1581076Y1416762D1*
X1588349Y1416190D1*
X1593425Y1415056D1*
X1593408Y1455374D1*
X1564177Y1455329D1*
Y1547684D1*
X1614518D1*
X1614579Y1593787D1*
X1616018Y1601030D1*
X1619110Y1607736D1*
X1623682Y1613535D1*
X1623930Y1613765D1*
X1660664Y1650381D1*
X1666804Y1654483D1*
X1673732Y1657039D1*
X1681066Y1657907D1*
X1681403Y1657894D1*
X1744102Y1657907D1*
X1743558Y1688986D1*
X462445D1*
Y1324386D1*
X470669Y1330555D1*
X478501Y1334546D1*
X486862Y1337262D1*
X495545Y1338636D1*
X504335D1*
X513017Y1337262D1*
X521378Y1334546D1*
X529210Y1330555D1*
X536322Y1325387D1*
X542537Y1319172D1*
X547705Y1312060D1*
X551696Y1304228D1*
X554412Y1295867D1*
X555328Y1291059D1*
X566970Y1302722D1*
X566941Y1374136D1*
X551783Y1374088D1*
Y1466442D1*
X715004D1*
Y1453210D1*
X736243Y1453253D1*
X747238Y1464097D1*
X753685Y1468406D1*
X760961Y1471091D1*
X768661Y1472001D1*
X768995Y1471988D1*
X871239Y1471900D1*
X878845Y1470387D1*
X885887Y1467140D1*
X891978Y1462340D1*
X892203Y1462094D1*
X925640Y1428676D1*
X1036936Y1428650D1*
Y1328210D1*
X1159531Y1328256D1*
X1159560Y1331106D1*
X1283411D1*
X1283370Y1134421D1*
X1283419Y1057650D1*
X1159568D1*
Y1059066D1*
X1142148Y1059028D1*
X1142133Y1032734D1*
X1147883Y1032728D1*
X1157661Y1041932D1*
X1157990Y1042151D1*
X1157661Y1041932D1*
X1159568Y1043378D1*
Y1049610D1*
X1283419D1*
Y1022609D1*
X1290703Y1022236D1*
X1298168Y1020131D1*
X1304933Y1016341D1*
X1310627Y1011077D1*
X1314936Y1004630D1*
X1317619Y997354D1*
X1318531Y989654D1*
X1318518Y989320D1*
X1318531Y922710D1*
X660678Y832772D2*
Y834427D1*
X645168D1*
Y957815D1*
X602891Y957849D1*
X555928Y910906D1*
X555959Y832774D1*
X660638Y832828D1*
X462434Y1024381D2*
X467012Y1028143D1*
X474508Y1032735D1*
X482629Y1036100D1*
X491176Y1038151D1*
X499940Y1038841D1*
X508703Y1038151D1*
X517251Y1036100D1*
X523203Y1033735D1*
X523196Y1126802D1*
X462454Y1126770D1*
X462445Y1024484D1*
X648075Y1374106D2*
X632890Y1374088D1*
X632917Y1323049D1*
X638382Y1325732D1*
X645320Y1327987D1*
X652525Y1329129D1*
X659822D1*
X667026Y1327987D1*
X673965Y1325732D1*
X680466Y1322420D1*
X686367Y1318133D1*
X691526Y1312974D1*
X695814Y1307072D1*
X697891Y1303252D1*
X700535Y1303650D1*
X697598Y1303887D1*
X697891Y1303252D1*
X700487Y1311886D1*
Y1374043D1*
X632924Y1374088D1*
X824337Y1237702D2*
X824289Y1236886D1*
X825610Y1236890D1*
X824343Y1237736D1*
X824337Y1103797D1*
X842008Y1121558D1*
X842416Y1132782D1*
X844521Y1140245D1*
X848310Y1147012D1*
X854417Y1153693D1*
X851917Y1151175D1*
X854411Y1165022D1*
Y1230306D1*
X846255Y1230181D1*
X839050Y1231323D1*
X832112Y1233577D1*
X825610Y1236890D1*
X632913Y1322999D2*
X638382Y1325732D1*
X645320Y1327987D1*
X652525Y1329129D1*
X659822D1*
X667026Y1327987D1*
X673965Y1325732D1*
X680466Y1322420D1*
X686367Y1318133D1*
X691526Y1312974D1*
X695814Y1307072D1*
X697598Y1303887D1*
X700487Y1311886D1*
Y1374043D1*
X632913Y1322999D2*
X638382Y1325732D1*
X645320Y1327987D1*
X652525Y1329129D1*
X659822D1*
X667026Y1327987D1*
X673965Y1325732D1*
X680466Y1322420D1*
X686367Y1318133D1*
X691526Y1312974D1*
X695814Y1307072D1*
X697891Y1303252D1*
D17*
X799908Y705529D3*
Y772458D3*
D18*
X920420Y992694D3*
X995223D3*
D19*
X2328362Y886436D3*
D20*
X2078362D3*
D18*
X710756Y1032110D3*
X785559D3*
D17*
X1618572Y1064052D3*
Y1130982D3*
X1649819Y1267969D3*
Y1334898D3*
X1574827Y901570D3*
Y968499D3*
D21*
X1468588Y828890D3*
Y903693D3*
D22*
X1218614Y876572D3*
X1285543D3*
D17*
X1148013Y984543D3*
Y1051472D3*
D21*
X633885Y1080092D3*
Y1154895D3*
D23*
X718667Y782832D3*
X608430D3*
D24*
X499940Y882822D3*
D25*
Y982822D3*
Y1082822D3*
D24*
Y1182790D3*
D25*
Y1282790D3*
Y1382790D3*
D26*
X812408Y914068D3*
X694298D3*
D27*
X2493480Y714089D3*
X2512228Y1182790D3*
D28*
X2505979Y1613995D3*
D27*
X581181Y1582748D3*
X549934Y532858D3*
D30*
X2009646Y1136409D3*
X1959646Y1136390D3*
X1909646D3*
X1859646D3*
D31*
X1934646Y982050D3*
D30*
X2218509Y1014058D3*
X2268509Y1014077D3*
X2318509D3*
X2368509D3*
D31*
X2293509Y1168417D3*
D30*
X2012281Y670344D3*
X1962281Y670324D3*
X1912281D3*
X1862281D3*
D31*
X1937281Y515984D3*
D30*
X2199761Y557856D3*
X2249761Y557875D3*
X2299761D3*
X2349761D3*
D31*
X2274761Y712215D3*
D30*
X2012281Y1582748D3*
X1962281Y1582728D3*
X1912281D3*
X1862281D3*
D31*
X1937281Y1428388D3*
D30*
X2199761Y1457761D3*
X2249761Y1457781D3*
X2299761D3*
X2349761D3*
D31*
X2274761Y1612121D3*
D22*
X1637320Y676593D3*
X1704249D3*
D17*
X2524727Y545357D3*
Y478428D3*
D22*
X1612323Y1501507D3*
X1679252D3*
D17*
X2430987Y1476509D3*
Y1409580D3*
D22*
X1618572Y1190333D3*
X1685501D3*
D17*
X624927Y1005995D3*
Y939066D3*
X1042831Y930654D3*
Y863724D3*
D22*
X1053915Y726493D3*
X1120844D3*
D17*
X2466089Y1023058D3*
Y956129D3*
D22*
X964705Y714089D3*
X897776D3*
X1331102Y814079D3*
X1264173D3*
X1000987Y1062365D3*
X1067916D3*
X599929Y1420265D3*
X666858D3*
D32*
X762412Y1395268D3*
Y1370268D3*
Y1345268D3*
Y1320268D3*
Y1295268D3*
Y1270268D3*
Y1245268D3*
Y1220268D3*
Y1195268D3*
Y1170268D3*
Y1145268D3*
Y1120268D3*
X975018Y1120248D3*
X975010Y1145268D3*
Y1170268D3*
Y1195268D3*
Y1220268D3*
Y1245268D3*
Y1270268D3*
Y1295268D3*
Y1320268D3*
Y1345268D3*
Y1370268D3*
Y1395268D3*
D34*
X887399Y814079D3*
X924801D3*
X962202D3*
Y920378D3*
X924801D3*
X887399D3*
D35*
X1449840Y964063D3*
Y989654D3*
Y1015244D3*
Y1040835D3*
Y1066425D3*
Y1092016D3*
Y1117606D3*
Y1143197D3*
Y1168787D3*
Y1194378D3*
Y1219969D3*
Y1245559D3*
Y1271150D3*
Y1296740D3*
X1221486D3*
X1221493Y1271150D3*
Y1245559D3*
Y1219969D3*
Y1194378D3*
Y1168787D3*
Y1143197D3*
Y1117606D3*
Y1092016D3*
Y1066425D3*
Y1040835D3*
Y1015244D3*
Y989654D3*
Y964063D3*
D36*
X1335663Y1130402D3*
M02*
